%TF.GenerationSoftware,KiCad,Pcbnew,8.0.8+1*%
%TF.CreationDate,2025-02-28T13:08:23+11:00*%
%TF.ProjectId,mcharger_if,6d636861-7267-4657-925f-69662e6b6963,rev?*%
%TF.SameCoordinates,Original*%
%TF.FileFunction,Legend,Top*%
%TF.FilePolarity,Positive*%
%FSLAX46Y46*%
G04 Gerber Fmt 4.6, Leading zero omitted, Abs format (unit mm)*
G04 Created by KiCad (PCBNEW 8.0.8+1) date 2025-02-28 13:08:23*
%MOMM*%
%LPD*%
G01*
G04 APERTURE LIST*
%ADD10C,0.152400*%
%ADD11C,0.100000*%
%ADD12C,0.203200*%
%ADD13C,0.150000*%
%ADD14C,0.120000*%
G04 APERTURE END LIST*
D10*
X76445405Y-129345566D02*
X75574548Y-129345566D01*
X76009977Y-129345566D02*
X76009977Y-127821566D01*
X76009977Y-127821566D02*
X75864834Y-128039280D01*
X75864834Y-128039280D02*
X75719691Y-128184423D01*
X75719691Y-128184423D02*
X75574548Y-128256995D01*
X77025977Y-127966709D02*
X77098549Y-127894137D01*
X77098549Y-127894137D02*
X77243692Y-127821566D01*
X77243692Y-127821566D02*
X77606549Y-127821566D01*
X77606549Y-127821566D02*
X77751692Y-127894137D01*
X77751692Y-127894137D02*
X77824263Y-127966709D01*
X77824263Y-127966709D02*
X77896834Y-128111852D01*
X77896834Y-128111852D02*
X77896834Y-128256995D01*
X77896834Y-128256995D02*
X77824263Y-128474709D01*
X77824263Y-128474709D02*
X76953406Y-129345566D01*
X76953406Y-129345566D02*
X77896834Y-129345566D01*
X78332263Y-127821566D02*
X78840263Y-129345566D01*
X78840263Y-129345566D02*
X79348263Y-127821566D01*
X81017407Y-129345566D02*
X81017407Y-127821566D01*
X81743121Y-129345566D02*
X81743121Y-127821566D01*
X81743121Y-127821566D02*
X82613978Y-129345566D01*
X82613978Y-129345566D02*
X82613978Y-127821566D01*
D11*
X131431312Y-125856419D02*
X131097979Y-125380228D01*
X130859884Y-125856419D02*
X130859884Y-124856419D01*
X130859884Y-124856419D02*
X131240836Y-124856419D01*
X131240836Y-124856419D02*
X131336074Y-124904038D01*
X131336074Y-124904038D02*
X131383693Y-124951657D01*
X131383693Y-124951657D02*
X131431312Y-125046895D01*
X131431312Y-125046895D02*
X131431312Y-125189752D01*
X131431312Y-125189752D02*
X131383693Y-125284990D01*
X131383693Y-125284990D02*
X131336074Y-125332609D01*
X131336074Y-125332609D02*
X131240836Y-125380228D01*
X131240836Y-125380228D02*
X130859884Y-125380228D01*
X131859884Y-125332609D02*
X132193217Y-125332609D01*
X132336074Y-125856419D02*
X131859884Y-125856419D01*
X131859884Y-125856419D02*
X131859884Y-124856419D01*
X131859884Y-124856419D02*
X132336074Y-124856419D01*
X132621789Y-124856419D02*
X132955122Y-125856419D01*
X132955122Y-125856419D02*
X133288455Y-124856419D01*
X134145598Y-125856419D02*
X133574170Y-125856419D01*
X133859884Y-125856419D02*
X133859884Y-124856419D01*
X133859884Y-124856419D02*
X133764646Y-124999276D01*
X133764646Y-124999276D02*
X133669408Y-125094514D01*
X133669408Y-125094514D02*
X133574170Y-125142133D01*
D12*
X130665493Y-123946754D02*
X130665493Y-121914754D01*
X130665493Y-121914754D02*
X131342826Y-123366183D01*
X131342826Y-123366183D02*
X132020160Y-121914754D01*
X132020160Y-121914754D02*
X132020160Y-123946754D01*
X134148922Y-123753231D02*
X134052160Y-123849993D01*
X134052160Y-123849993D02*
X133761874Y-123946754D01*
X133761874Y-123946754D02*
X133568350Y-123946754D01*
X133568350Y-123946754D02*
X133278065Y-123849993D01*
X133278065Y-123849993D02*
X133084541Y-123656469D01*
X133084541Y-123656469D02*
X132987779Y-123462945D01*
X132987779Y-123462945D02*
X132891017Y-123075897D01*
X132891017Y-123075897D02*
X132891017Y-122785612D01*
X132891017Y-122785612D02*
X132987779Y-122398564D01*
X132987779Y-122398564D02*
X133084541Y-122205040D01*
X133084541Y-122205040D02*
X133278065Y-122011516D01*
X133278065Y-122011516D02*
X133568350Y-121914754D01*
X133568350Y-121914754D02*
X133761874Y-121914754D01*
X133761874Y-121914754D02*
X134052160Y-122011516D01*
X134052160Y-122011516D02*
X134148922Y-122108278D01*
X135019779Y-123946754D02*
X135019779Y-121914754D01*
X135019779Y-122882373D02*
X136180922Y-122882373D01*
X136180922Y-123946754D02*
X136180922Y-121914754D01*
X137051779Y-123366183D02*
X138019398Y-123366183D01*
X136858255Y-123946754D02*
X137535589Y-121914754D01*
X137535589Y-121914754D02*
X138212922Y-123946754D01*
X140051398Y-123946754D02*
X139374065Y-122979135D01*
X138890255Y-123946754D02*
X138890255Y-121914754D01*
X138890255Y-121914754D02*
X139664350Y-121914754D01*
X139664350Y-121914754D02*
X139857874Y-122011516D01*
X139857874Y-122011516D02*
X139954636Y-122108278D01*
X139954636Y-122108278D02*
X140051398Y-122301802D01*
X140051398Y-122301802D02*
X140051398Y-122592088D01*
X140051398Y-122592088D02*
X139954636Y-122785612D01*
X139954636Y-122785612D02*
X139857874Y-122882373D01*
X139857874Y-122882373D02*
X139664350Y-122979135D01*
X139664350Y-122979135D02*
X138890255Y-122979135D01*
X141986636Y-122011516D02*
X141793112Y-121914754D01*
X141793112Y-121914754D02*
X141502826Y-121914754D01*
X141502826Y-121914754D02*
X141212541Y-122011516D01*
X141212541Y-122011516D02*
X141019017Y-122205040D01*
X141019017Y-122205040D02*
X140922255Y-122398564D01*
X140922255Y-122398564D02*
X140825493Y-122785612D01*
X140825493Y-122785612D02*
X140825493Y-123075897D01*
X140825493Y-123075897D02*
X140922255Y-123462945D01*
X140922255Y-123462945D02*
X141019017Y-123656469D01*
X141019017Y-123656469D02*
X141212541Y-123849993D01*
X141212541Y-123849993D02*
X141502826Y-123946754D01*
X141502826Y-123946754D02*
X141696350Y-123946754D01*
X141696350Y-123946754D02*
X141986636Y-123849993D01*
X141986636Y-123849993D02*
X142083398Y-123753231D01*
X142083398Y-123753231D02*
X142083398Y-123075897D01*
X142083398Y-123075897D02*
X141696350Y-123075897D01*
X142954255Y-122882373D02*
X143631588Y-122882373D01*
X143921874Y-123946754D02*
X142954255Y-123946754D01*
X142954255Y-123946754D02*
X142954255Y-121914754D01*
X142954255Y-121914754D02*
X143921874Y-121914754D01*
X144308922Y-124140278D02*
X145857112Y-124140278D01*
X147502064Y-123753231D02*
X147405302Y-123849993D01*
X147405302Y-123849993D02*
X147115016Y-123946754D01*
X147115016Y-123946754D02*
X146921492Y-123946754D01*
X146921492Y-123946754D02*
X146631207Y-123849993D01*
X146631207Y-123849993D02*
X146437683Y-123656469D01*
X146437683Y-123656469D02*
X146340921Y-123462945D01*
X146340921Y-123462945D02*
X146244159Y-123075897D01*
X146244159Y-123075897D02*
X146244159Y-122785612D01*
X146244159Y-122785612D02*
X146340921Y-122398564D01*
X146340921Y-122398564D02*
X146437683Y-122205040D01*
X146437683Y-122205040D02*
X146631207Y-122011516D01*
X146631207Y-122011516D02*
X146921492Y-121914754D01*
X146921492Y-121914754D02*
X147115016Y-121914754D01*
X147115016Y-121914754D02*
X147405302Y-122011516D01*
X147405302Y-122011516D02*
X147502064Y-122108278D01*
X148082635Y-121914754D02*
X149243778Y-121914754D01*
X148663207Y-123946754D02*
X148663207Y-121914754D01*
X150888730Y-123946754D02*
X149921111Y-123946754D01*
X149921111Y-123946754D02*
X149921111Y-121914754D01*
D10*
X157974995Y-117719451D02*
X158047566Y-117501737D01*
X158047566Y-117501737D02*
X158047566Y-117138879D01*
X158047566Y-117138879D02*
X157974995Y-116993737D01*
X157974995Y-116993737D02*
X157902423Y-116921165D01*
X157902423Y-116921165D02*
X157757280Y-116848594D01*
X157757280Y-116848594D02*
X157612137Y-116848594D01*
X157612137Y-116848594D02*
X157466995Y-116921165D01*
X157466995Y-116921165D02*
X157394423Y-116993737D01*
X157394423Y-116993737D02*
X157321852Y-117138879D01*
X157321852Y-117138879D02*
X157249280Y-117429165D01*
X157249280Y-117429165D02*
X157176709Y-117574308D01*
X157176709Y-117574308D02*
X157104137Y-117646879D01*
X157104137Y-117646879D02*
X156958995Y-117719451D01*
X156958995Y-117719451D02*
X156813852Y-117719451D01*
X156813852Y-117719451D02*
X156668709Y-117646879D01*
X156668709Y-117646879D02*
X156596137Y-117574308D01*
X156596137Y-117574308D02*
X156523566Y-117429165D01*
X156523566Y-117429165D02*
X156523566Y-117066308D01*
X156523566Y-117066308D02*
X156596137Y-116848594D01*
X158047566Y-116195450D02*
X156523566Y-116195450D01*
X156523566Y-116195450D02*
X156523566Y-115832593D01*
X156523566Y-115832593D02*
X156596137Y-115614879D01*
X156596137Y-115614879D02*
X156741280Y-115469736D01*
X156741280Y-115469736D02*
X156886423Y-115397165D01*
X156886423Y-115397165D02*
X157176709Y-115324593D01*
X157176709Y-115324593D02*
X157394423Y-115324593D01*
X157394423Y-115324593D02*
X157684709Y-115397165D01*
X157684709Y-115397165D02*
X157829852Y-115469736D01*
X157829852Y-115469736D02*
X157974995Y-115614879D01*
X157974995Y-115614879D02*
X158047566Y-115832593D01*
X158047566Y-115832593D02*
X158047566Y-116195450D01*
X157902423Y-113800593D02*
X157974995Y-113873165D01*
X157974995Y-113873165D02*
X158047566Y-114090879D01*
X158047566Y-114090879D02*
X158047566Y-114236022D01*
X158047566Y-114236022D02*
X157974995Y-114453736D01*
X157974995Y-114453736D02*
X157829852Y-114598879D01*
X157829852Y-114598879D02*
X157684709Y-114671450D01*
X157684709Y-114671450D02*
X157394423Y-114744022D01*
X157394423Y-114744022D02*
X157176709Y-114744022D01*
X157176709Y-114744022D02*
X156886423Y-114671450D01*
X156886423Y-114671450D02*
X156741280Y-114598879D01*
X156741280Y-114598879D02*
X156596137Y-114453736D01*
X156596137Y-114453736D02*
X156523566Y-114236022D01*
X156523566Y-114236022D02*
X156523566Y-114090879D01*
X156523566Y-114090879D02*
X156596137Y-113873165D01*
X156596137Y-113873165D02*
X156668709Y-113800593D01*
X157612137Y-113220022D02*
X157612137Y-112494308D01*
X158047566Y-113365165D02*
X156523566Y-112857165D01*
X156523566Y-112857165D02*
X158047566Y-112349165D01*
X158047566Y-110970307D02*
X157321852Y-111478307D01*
X158047566Y-111841164D02*
X156523566Y-111841164D01*
X156523566Y-111841164D02*
X156523566Y-111260593D01*
X156523566Y-111260593D02*
X156596137Y-111115450D01*
X156596137Y-111115450D02*
X156668709Y-111042879D01*
X156668709Y-111042879D02*
X156813852Y-110970307D01*
X156813852Y-110970307D02*
X157031566Y-110970307D01*
X157031566Y-110970307D02*
X157176709Y-111042879D01*
X157176709Y-111042879D02*
X157249280Y-111115450D01*
X157249280Y-111115450D02*
X157321852Y-111260593D01*
X157321852Y-111260593D02*
X157321852Y-111841164D01*
X158047566Y-110317164D02*
X156523566Y-110317164D01*
X156523566Y-110317164D02*
X156523566Y-109954307D01*
X156523566Y-109954307D02*
X156596137Y-109736593D01*
X156596137Y-109736593D02*
X156741280Y-109591450D01*
X156741280Y-109591450D02*
X156886423Y-109518879D01*
X156886423Y-109518879D02*
X157176709Y-109446307D01*
X157176709Y-109446307D02*
X157394423Y-109446307D01*
X157394423Y-109446307D02*
X157684709Y-109518879D01*
X157684709Y-109518879D02*
X157829852Y-109591450D01*
X157829852Y-109591450D02*
X157974995Y-109736593D01*
X157974995Y-109736593D02*
X158047566Y-109954307D01*
X158047566Y-109954307D02*
X158047566Y-110317164D01*
X165631280Y-113582879D02*
X165631280Y-113074879D01*
X166429566Y-112857165D02*
X166429566Y-113582879D01*
X166429566Y-113582879D02*
X164905566Y-113582879D01*
X164905566Y-113582879D02*
X164905566Y-112857165D01*
X166429566Y-112204022D02*
X164905566Y-112204022D01*
X164905566Y-112204022D02*
X166429566Y-111333165D01*
X166429566Y-111333165D02*
X164905566Y-111333165D01*
X166284423Y-109736594D02*
X166356995Y-109809166D01*
X166356995Y-109809166D02*
X166429566Y-110026880D01*
X166429566Y-110026880D02*
X166429566Y-110172023D01*
X166429566Y-110172023D02*
X166356995Y-110389737D01*
X166356995Y-110389737D02*
X166211852Y-110534880D01*
X166211852Y-110534880D02*
X166066709Y-110607451D01*
X166066709Y-110607451D02*
X165776423Y-110680023D01*
X165776423Y-110680023D02*
X165558709Y-110680023D01*
X165558709Y-110680023D02*
X165268423Y-110607451D01*
X165268423Y-110607451D02*
X165123280Y-110534880D01*
X165123280Y-110534880D02*
X164978137Y-110389737D01*
X164978137Y-110389737D02*
X164905566Y-110172023D01*
X164905566Y-110172023D02*
X164905566Y-110026880D01*
X164905566Y-110026880D02*
X164978137Y-109809166D01*
X164978137Y-109809166D02*
X165050709Y-109736594D01*
X164905566Y-108793166D02*
X164905566Y-108502880D01*
X164905566Y-108502880D02*
X164978137Y-108357737D01*
X164978137Y-108357737D02*
X165123280Y-108212594D01*
X165123280Y-108212594D02*
X165413566Y-108140023D01*
X165413566Y-108140023D02*
X165921566Y-108140023D01*
X165921566Y-108140023D02*
X166211852Y-108212594D01*
X166211852Y-108212594D02*
X166356995Y-108357737D01*
X166356995Y-108357737D02*
X166429566Y-108502880D01*
X166429566Y-108502880D02*
X166429566Y-108793166D01*
X166429566Y-108793166D02*
X166356995Y-108938309D01*
X166356995Y-108938309D02*
X166211852Y-109083451D01*
X166211852Y-109083451D02*
X165921566Y-109156023D01*
X165921566Y-109156023D02*
X165413566Y-109156023D01*
X165413566Y-109156023D02*
X165123280Y-109083451D01*
X165123280Y-109083451D02*
X164978137Y-108938309D01*
X164978137Y-108938309D02*
X164905566Y-108793166D01*
X166429566Y-107486880D02*
X164905566Y-107486880D01*
X164905566Y-107486880D02*
X164905566Y-107124023D01*
X164905566Y-107124023D02*
X164978137Y-106906309D01*
X164978137Y-106906309D02*
X165123280Y-106761166D01*
X165123280Y-106761166D02*
X165268423Y-106688595D01*
X165268423Y-106688595D02*
X165558709Y-106616023D01*
X165558709Y-106616023D02*
X165776423Y-106616023D01*
X165776423Y-106616023D02*
X166066709Y-106688595D01*
X166066709Y-106688595D02*
X166211852Y-106761166D01*
X166211852Y-106761166D02*
X166356995Y-106906309D01*
X166356995Y-106906309D02*
X166429566Y-107124023D01*
X166429566Y-107124023D02*
X166429566Y-107486880D01*
X165631280Y-105962880D02*
X165631280Y-105454880D01*
X166429566Y-105237166D02*
X166429566Y-105962880D01*
X166429566Y-105962880D02*
X164905566Y-105962880D01*
X164905566Y-105962880D02*
X164905566Y-105237166D01*
X166429566Y-103713166D02*
X165703852Y-104221166D01*
X166429566Y-104584023D02*
X164905566Y-104584023D01*
X164905566Y-104584023D02*
X164905566Y-104003452D01*
X164905566Y-104003452D02*
X164978137Y-103858309D01*
X164978137Y-103858309D02*
X165050709Y-103785738D01*
X165050709Y-103785738D02*
X165195852Y-103713166D01*
X165195852Y-103713166D02*
X165413566Y-103713166D01*
X165413566Y-103713166D02*
X165558709Y-103785738D01*
X165558709Y-103785738D02*
X165631280Y-103858309D01*
X165631280Y-103858309D02*
X165703852Y-104003452D01*
X165703852Y-104003452D02*
X165703852Y-104584023D01*
X115017120Y-128039280D02*
X114509120Y-128039280D01*
X114509120Y-128837566D02*
X114509120Y-127313566D01*
X114509120Y-127313566D02*
X115234834Y-127313566D01*
X115742834Y-128402137D02*
X116468549Y-128402137D01*
X115597691Y-128837566D02*
X116105691Y-127313566D01*
X116105691Y-127313566D02*
X116613691Y-128837566D01*
X117121692Y-128837566D02*
X117121692Y-127313566D01*
X117121692Y-127313566D02*
X117992549Y-128837566D01*
X117992549Y-128837566D02*
X117992549Y-127313566D01*
X162478834Y-70417566D02*
X161753120Y-70417566D01*
X161753120Y-70417566D02*
X161753120Y-68893566D01*
X163857691Y-70272423D02*
X163785119Y-70344995D01*
X163785119Y-70344995D02*
X163567405Y-70417566D01*
X163567405Y-70417566D02*
X163422262Y-70417566D01*
X163422262Y-70417566D02*
X163204548Y-70344995D01*
X163204548Y-70344995D02*
X163059405Y-70199852D01*
X163059405Y-70199852D02*
X162986834Y-70054709D01*
X162986834Y-70054709D02*
X162914262Y-69764423D01*
X162914262Y-69764423D02*
X162914262Y-69546709D01*
X162914262Y-69546709D02*
X162986834Y-69256423D01*
X162986834Y-69256423D02*
X163059405Y-69111280D01*
X163059405Y-69111280D02*
X163204548Y-68966137D01*
X163204548Y-68966137D02*
X163422262Y-68893566D01*
X163422262Y-68893566D02*
X163567405Y-68893566D01*
X163567405Y-68893566D02*
X163785119Y-68966137D01*
X163785119Y-68966137D02*
X163857691Y-69038709D01*
X164510834Y-70417566D02*
X164510834Y-68893566D01*
X164510834Y-68893566D02*
X164873691Y-68893566D01*
X164873691Y-68893566D02*
X165091405Y-68966137D01*
X165091405Y-68966137D02*
X165236548Y-69111280D01*
X165236548Y-69111280D02*
X165309119Y-69256423D01*
X165309119Y-69256423D02*
X165381691Y-69546709D01*
X165381691Y-69546709D02*
X165381691Y-69764423D01*
X165381691Y-69764423D02*
X165309119Y-70054709D01*
X165309119Y-70054709D02*
X165236548Y-70199852D01*
X165236548Y-70199852D02*
X165091405Y-70344995D01*
X165091405Y-70344995D02*
X164873691Y-70417566D01*
X164873691Y-70417566D02*
X164510834Y-70417566D01*
X58311142Y-119833106D02*
X58819142Y-121357106D01*
X58819142Y-121357106D02*
X59327142Y-119833106D01*
X60125428Y-119833106D02*
X60415714Y-119833106D01*
X60415714Y-119833106D02*
X60560857Y-119905677D01*
X60560857Y-119905677D02*
X60706000Y-120050820D01*
X60706000Y-120050820D02*
X60778571Y-120341106D01*
X60778571Y-120341106D02*
X60778571Y-120849106D01*
X60778571Y-120849106D02*
X60706000Y-121139392D01*
X60706000Y-121139392D02*
X60560857Y-121284535D01*
X60560857Y-121284535D02*
X60415714Y-121357106D01*
X60415714Y-121357106D02*
X60125428Y-121357106D01*
X60125428Y-121357106D02*
X59980286Y-121284535D01*
X59980286Y-121284535D02*
X59835143Y-121139392D01*
X59835143Y-121139392D02*
X59762571Y-120849106D01*
X59762571Y-120849106D02*
X59762571Y-120341106D01*
X59762571Y-120341106D02*
X59835143Y-120050820D01*
X59835143Y-120050820D02*
X59980286Y-119905677D01*
X59980286Y-119905677D02*
X60125428Y-119833106D01*
X61431714Y-119833106D02*
X61431714Y-121066820D01*
X61431714Y-121066820D02*
X61504285Y-121211963D01*
X61504285Y-121211963D02*
X61576857Y-121284535D01*
X61576857Y-121284535D02*
X61721999Y-121357106D01*
X61721999Y-121357106D02*
X62012285Y-121357106D01*
X62012285Y-121357106D02*
X62157428Y-121284535D01*
X62157428Y-121284535D02*
X62229999Y-121211963D01*
X62229999Y-121211963D02*
X62302571Y-121066820D01*
X62302571Y-121066820D02*
X62302571Y-119833106D01*
X62810570Y-119833106D02*
X63681428Y-119833106D01*
X63245999Y-121357106D02*
X63245999Y-119833106D01*
X64189428Y-120776535D02*
X65350571Y-120776535D01*
X64769999Y-121357106D02*
X64769999Y-120195963D01*
X66729428Y-120341106D02*
X66729428Y-121357106D01*
X66366570Y-119760535D02*
X66003713Y-120849106D01*
X66003713Y-120849106D02*
X66947142Y-120849106D01*
X67745428Y-120486249D02*
X67600285Y-120413677D01*
X67600285Y-120413677D02*
X67527714Y-120341106D01*
X67527714Y-120341106D02*
X67455142Y-120195963D01*
X67455142Y-120195963D02*
X67455142Y-120123392D01*
X67455142Y-120123392D02*
X67527714Y-119978249D01*
X67527714Y-119978249D02*
X67600285Y-119905677D01*
X67600285Y-119905677D02*
X67745428Y-119833106D01*
X67745428Y-119833106D02*
X68035714Y-119833106D01*
X68035714Y-119833106D02*
X68180857Y-119905677D01*
X68180857Y-119905677D02*
X68253428Y-119978249D01*
X68253428Y-119978249D02*
X68325999Y-120123392D01*
X68325999Y-120123392D02*
X68325999Y-120195963D01*
X68325999Y-120195963D02*
X68253428Y-120341106D01*
X68253428Y-120341106D02*
X68180857Y-120413677D01*
X68180857Y-120413677D02*
X68035714Y-120486249D01*
X68035714Y-120486249D02*
X67745428Y-120486249D01*
X67745428Y-120486249D02*
X67600285Y-120558820D01*
X67600285Y-120558820D02*
X67527714Y-120631392D01*
X67527714Y-120631392D02*
X67455142Y-120776535D01*
X67455142Y-120776535D02*
X67455142Y-121066820D01*
X67455142Y-121066820D02*
X67527714Y-121211963D01*
X67527714Y-121211963D02*
X67600285Y-121284535D01*
X67600285Y-121284535D02*
X67745428Y-121357106D01*
X67745428Y-121357106D02*
X68035714Y-121357106D01*
X68035714Y-121357106D02*
X68180857Y-121284535D01*
X68180857Y-121284535D02*
X68253428Y-121211963D01*
X68253428Y-121211963D02*
X68325999Y-121066820D01*
X68325999Y-121066820D02*
X68325999Y-120776535D01*
X68325999Y-120776535D02*
X68253428Y-120631392D01*
X68253428Y-120631392D02*
X68180857Y-120558820D01*
X68180857Y-120558820D02*
X68035714Y-120486249D01*
X68761428Y-119833106D02*
X69269428Y-121357106D01*
X69269428Y-121357106D02*
X69777428Y-119833106D01*
X71083714Y-121357106D02*
X70212857Y-121357106D01*
X70648286Y-121357106D02*
X70648286Y-119833106D01*
X70648286Y-119833106D02*
X70503143Y-120050820D01*
X70503143Y-120050820D02*
X70358000Y-120195963D01*
X70358000Y-120195963D02*
X70212857Y-120268535D01*
D13*
X81113333Y-80844819D02*
X80780000Y-80368628D01*
X80541905Y-80844819D02*
X80541905Y-79844819D01*
X80541905Y-79844819D02*
X80922857Y-79844819D01*
X80922857Y-79844819D02*
X81018095Y-79892438D01*
X81018095Y-79892438D02*
X81065714Y-79940057D01*
X81065714Y-79940057D02*
X81113333Y-80035295D01*
X81113333Y-80035295D02*
X81113333Y-80178152D01*
X81113333Y-80178152D02*
X81065714Y-80273390D01*
X81065714Y-80273390D02*
X81018095Y-80321009D01*
X81018095Y-80321009D02*
X80922857Y-80368628D01*
X80922857Y-80368628D02*
X80541905Y-80368628D01*
X81494286Y-79940057D02*
X81541905Y-79892438D01*
X81541905Y-79892438D02*
X81637143Y-79844819D01*
X81637143Y-79844819D02*
X81875238Y-79844819D01*
X81875238Y-79844819D02*
X81970476Y-79892438D01*
X81970476Y-79892438D02*
X82018095Y-79940057D01*
X82018095Y-79940057D02*
X82065714Y-80035295D01*
X82065714Y-80035295D02*
X82065714Y-80130533D01*
X82065714Y-80130533D02*
X82018095Y-80273390D01*
X82018095Y-80273390D02*
X81446667Y-80844819D01*
X81446667Y-80844819D02*
X82065714Y-80844819D01*
X74676095Y-97498819D02*
X74676095Y-98308342D01*
X74676095Y-98308342D02*
X74723714Y-98403580D01*
X74723714Y-98403580D02*
X74771333Y-98451200D01*
X74771333Y-98451200D02*
X74866571Y-98498819D01*
X74866571Y-98498819D02*
X75057047Y-98498819D01*
X75057047Y-98498819D02*
X75152285Y-98451200D01*
X75152285Y-98451200D02*
X75199904Y-98403580D01*
X75199904Y-98403580D02*
X75247523Y-98308342D01*
X75247523Y-98308342D02*
X75247523Y-97498819D01*
X76199904Y-97498819D02*
X75723714Y-97498819D01*
X75723714Y-97498819D02*
X75676095Y-97975009D01*
X75676095Y-97975009D02*
X75723714Y-97927390D01*
X75723714Y-97927390D02*
X75818952Y-97879771D01*
X75818952Y-97879771D02*
X76057047Y-97879771D01*
X76057047Y-97879771D02*
X76152285Y-97927390D01*
X76152285Y-97927390D02*
X76199904Y-97975009D01*
X76199904Y-97975009D02*
X76247523Y-98070247D01*
X76247523Y-98070247D02*
X76247523Y-98308342D01*
X76247523Y-98308342D02*
X76199904Y-98403580D01*
X76199904Y-98403580D02*
X76152285Y-98451200D01*
X76152285Y-98451200D02*
X76057047Y-98498819D01*
X76057047Y-98498819D02*
X75818952Y-98498819D01*
X75818952Y-98498819D02*
X75723714Y-98451200D01*
X75723714Y-98451200D02*
X75676095Y-98403580D01*
X100229200Y-73786095D02*
X100276819Y-73643238D01*
X100276819Y-73643238D02*
X100276819Y-73405143D01*
X100276819Y-73405143D02*
X100229200Y-73309905D01*
X100229200Y-73309905D02*
X100181580Y-73262286D01*
X100181580Y-73262286D02*
X100086342Y-73214667D01*
X100086342Y-73214667D02*
X99991104Y-73214667D01*
X99991104Y-73214667D02*
X99895866Y-73262286D01*
X99895866Y-73262286D02*
X99848247Y-73309905D01*
X99848247Y-73309905D02*
X99800628Y-73405143D01*
X99800628Y-73405143D02*
X99753009Y-73595619D01*
X99753009Y-73595619D02*
X99705390Y-73690857D01*
X99705390Y-73690857D02*
X99657771Y-73738476D01*
X99657771Y-73738476D02*
X99562533Y-73786095D01*
X99562533Y-73786095D02*
X99467295Y-73786095D01*
X99467295Y-73786095D02*
X99372057Y-73738476D01*
X99372057Y-73738476D02*
X99324438Y-73690857D01*
X99324438Y-73690857D02*
X99276819Y-73595619D01*
X99276819Y-73595619D02*
X99276819Y-73357524D01*
X99276819Y-73357524D02*
X99324438Y-73214667D01*
X100276819Y-72786095D02*
X99276819Y-72786095D01*
X99276819Y-72786095D02*
X99991104Y-72452762D01*
X99991104Y-72452762D02*
X99276819Y-72119429D01*
X99276819Y-72119429D02*
X100276819Y-72119429D01*
X100276819Y-71643238D02*
X99276819Y-71643238D01*
X99276819Y-71643238D02*
X99276819Y-71262286D01*
X99276819Y-71262286D02*
X99324438Y-71167048D01*
X99324438Y-71167048D02*
X99372057Y-71119429D01*
X99372057Y-71119429D02*
X99467295Y-71071810D01*
X99467295Y-71071810D02*
X99610152Y-71071810D01*
X99610152Y-71071810D02*
X99705390Y-71119429D01*
X99705390Y-71119429D02*
X99753009Y-71167048D01*
X99753009Y-71167048D02*
X99800628Y-71262286D01*
X99800628Y-71262286D02*
X99800628Y-71643238D01*
X100229200Y-70690857D02*
X100276819Y-70548000D01*
X100276819Y-70548000D02*
X100276819Y-70309905D01*
X100276819Y-70309905D02*
X100229200Y-70214667D01*
X100229200Y-70214667D02*
X100181580Y-70167048D01*
X100181580Y-70167048D02*
X100086342Y-70119429D01*
X100086342Y-70119429D02*
X99991104Y-70119429D01*
X99991104Y-70119429D02*
X99895866Y-70167048D01*
X99895866Y-70167048D02*
X99848247Y-70214667D01*
X99848247Y-70214667D02*
X99800628Y-70309905D01*
X99800628Y-70309905D02*
X99753009Y-70500381D01*
X99753009Y-70500381D02*
X99705390Y-70595619D01*
X99705390Y-70595619D02*
X99657771Y-70643238D01*
X99657771Y-70643238D02*
X99562533Y-70690857D01*
X99562533Y-70690857D02*
X99467295Y-70690857D01*
X99467295Y-70690857D02*
X99372057Y-70643238D01*
X99372057Y-70643238D02*
X99324438Y-70595619D01*
X99324438Y-70595619D02*
X99276819Y-70500381D01*
X99276819Y-70500381D02*
X99276819Y-70262286D01*
X99276819Y-70262286D02*
X99324438Y-70119429D01*
X100372057Y-69928953D02*
X100372057Y-69167048D01*
X99276819Y-69071809D02*
X100276819Y-68738476D01*
X100276819Y-68738476D02*
X99276819Y-68405143D01*
X99276819Y-67881333D02*
X99276819Y-67690857D01*
X99276819Y-67690857D02*
X99324438Y-67595619D01*
X99324438Y-67595619D02*
X99419676Y-67500381D01*
X99419676Y-67500381D02*
X99610152Y-67452762D01*
X99610152Y-67452762D02*
X99943485Y-67452762D01*
X99943485Y-67452762D02*
X100133961Y-67500381D01*
X100133961Y-67500381D02*
X100229200Y-67595619D01*
X100229200Y-67595619D02*
X100276819Y-67690857D01*
X100276819Y-67690857D02*
X100276819Y-67881333D01*
X100276819Y-67881333D02*
X100229200Y-67976571D01*
X100229200Y-67976571D02*
X100133961Y-68071809D01*
X100133961Y-68071809D02*
X99943485Y-68119428D01*
X99943485Y-68119428D02*
X99610152Y-68119428D01*
X99610152Y-68119428D02*
X99419676Y-68071809D01*
X99419676Y-68071809D02*
X99324438Y-67976571D01*
X99324438Y-67976571D02*
X99276819Y-67881333D01*
X99276819Y-67024190D02*
X100086342Y-67024190D01*
X100086342Y-67024190D02*
X100181580Y-66976571D01*
X100181580Y-66976571D02*
X100229200Y-66928952D01*
X100229200Y-66928952D02*
X100276819Y-66833714D01*
X100276819Y-66833714D02*
X100276819Y-66643238D01*
X100276819Y-66643238D02*
X100229200Y-66548000D01*
X100229200Y-66548000D02*
X100181580Y-66500381D01*
X100181580Y-66500381D02*
X100086342Y-66452762D01*
X100086342Y-66452762D02*
X99276819Y-66452762D01*
X99276819Y-66119428D02*
X99276819Y-65548000D01*
X100276819Y-65833714D02*
X99276819Y-65833714D01*
X100372057Y-65452762D02*
X100372057Y-64690857D01*
X99276819Y-64595618D02*
X100276819Y-64262285D01*
X100276819Y-64262285D02*
X99276819Y-63928952D01*
X100276819Y-63071809D02*
X100276819Y-63643237D01*
X100276819Y-63357523D02*
X99276819Y-63357523D01*
X99276819Y-63357523D02*
X99419676Y-63452761D01*
X99419676Y-63452761D02*
X99514914Y-63547999D01*
X99514914Y-63547999D02*
X99562533Y-63643237D01*
X99372057Y-62690856D02*
X99324438Y-62643237D01*
X99324438Y-62643237D02*
X99276819Y-62547999D01*
X99276819Y-62547999D02*
X99276819Y-62309904D01*
X99276819Y-62309904D02*
X99324438Y-62214666D01*
X99324438Y-62214666D02*
X99372057Y-62167047D01*
X99372057Y-62167047D02*
X99467295Y-62119428D01*
X99467295Y-62119428D02*
X99562533Y-62119428D01*
X99562533Y-62119428D02*
X99705390Y-62167047D01*
X99705390Y-62167047D02*
X100276819Y-62738475D01*
X100276819Y-62738475D02*
X100276819Y-62119428D01*
X99276819Y-61833713D02*
X100276819Y-61500380D01*
X100276819Y-61500380D02*
X99276819Y-61167047D01*
X100276819Y-60833713D02*
X99276819Y-60833713D01*
X99276819Y-60833713D02*
X99276819Y-60452761D01*
X99276819Y-60452761D02*
X99324438Y-60357523D01*
X99324438Y-60357523D02*
X99372057Y-60309904D01*
X99372057Y-60309904D02*
X99467295Y-60262285D01*
X99467295Y-60262285D02*
X99610152Y-60262285D01*
X99610152Y-60262285D02*
X99705390Y-60309904D01*
X99705390Y-60309904D02*
X99753009Y-60357523D01*
X99753009Y-60357523D02*
X99800628Y-60452761D01*
X99800628Y-60452761D02*
X99800628Y-60833713D01*
X100276819Y-59309904D02*
X100276819Y-59881332D01*
X100276819Y-59595618D02*
X99276819Y-59595618D01*
X99276819Y-59595618D02*
X99419676Y-59690856D01*
X99419676Y-59690856D02*
X99514914Y-59786094D01*
X99514914Y-59786094D02*
X99562533Y-59881332D01*
X101053905Y-112438819D02*
X101053905Y-111438819D01*
X101053905Y-111438819D02*
X101292000Y-111438819D01*
X101292000Y-111438819D02*
X101434857Y-111486438D01*
X101434857Y-111486438D02*
X101530095Y-111581676D01*
X101530095Y-111581676D02*
X101577714Y-111676914D01*
X101577714Y-111676914D02*
X101625333Y-111867390D01*
X101625333Y-111867390D02*
X101625333Y-112010247D01*
X101625333Y-112010247D02*
X101577714Y-112200723D01*
X101577714Y-112200723D02*
X101530095Y-112295961D01*
X101530095Y-112295961D02*
X101434857Y-112391200D01*
X101434857Y-112391200D02*
X101292000Y-112438819D01*
X101292000Y-112438819D02*
X101053905Y-112438819D01*
X102482476Y-111772152D02*
X102482476Y-112438819D01*
X102244381Y-111391200D02*
X102006286Y-112105485D01*
X102006286Y-112105485D02*
X102625333Y-112105485D01*
X91273333Y-82242819D02*
X90940000Y-81766628D01*
X90701905Y-82242819D02*
X90701905Y-81242819D01*
X90701905Y-81242819D02*
X91082857Y-81242819D01*
X91082857Y-81242819D02*
X91178095Y-81290438D01*
X91178095Y-81290438D02*
X91225714Y-81338057D01*
X91225714Y-81338057D02*
X91273333Y-81433295D01*
X91273333Y-81433295D02*
X91273333Y-81576152D01*
X91273333Y-81576152D02*
X91225714Y-81671390D01*
X91225714Y-81671390D02*
X91178095Y-81719009D01*
X91178095Y-81719009D02*
X91082857Y-81766628D01*
X91082857Y-81766628D02*
X90701905Y-81766628D01*
X91606667Y-81242819D02*
X92225714Y-81242819D01*
X92225714Y-81242819D02*
X91892381Y-81623771D01*
X91892381Y-81623771D02*
X92035238Y-81623771D01*
X92035238Y-81623771D02*
X92130476Y-81671390D01*
X92130476Y-81671390D02*
X92178095Y-81719009D01*
X92178095Y-81719009D02*
X92225714Y-81814247D01*
X92225714Y-81814247D02*
X92225714Y-82052342D01*
X92225714Y-82052342D02*
X92178095Y-82147580D01*
X92178095Y-82147580D02*
X92130476Y-82195200D01*
X92130476Y-82195200D02*
X92035238Y-82242819D01*
X92035238Y-82242819D02*
X91749524Y-82242819D01*
X91749524Y-82242819D02*
X91654286Y-82195200D01*
X91654286Y-82195200D02*
X91606667Y-82147580D01*
X147915333Y-83417580D02*
X147867714Y-83465200D01*
X147867714Y-83465200D02*
X147724857Y-83512819D01*
X147724857Y-83512819D02*
X147629619Y-83512819D01*
X147629619Y-83512819D02*
X147486762Y-83465200D01*
X147486762Y-83465200D02*
X147391524Y-83369961D01*
X147391524Y-83369961D02*
X147343905Y-83274723D01*
X147343905Y-83274723D02*
X147296286Y-83084247D01*
X147296286Y-83084247D02*
X147296286Y-82941390D01*
X147296286Y-82941390D02*
X147343905Y-82750914D01*
X147343905Y-82750914D02*
X147391524Y-82655676D01*
X147391524Y-82655676D02*
X147486762Y-82560438D01*
X147486762Y-82560438D02*
X147629619Y-82512819D01*
X147629619Y-82512819D02*
X147724857Y-82512819D01*
X147724857Y-82512819D02*
X147867714Y-82560438D01*
X147867714Y-82560438D02*
X147915333Y-82608057D01*
X148867714Y-83512819D02*
X148296286Y-83512819D01*
X148582000Y-83512819D02*
X148582000Y-82512819D01*
X148582000Y-82512819D02*
X148486762Y-82655676D01*
X148486762Y-82655676D02*
X148391524Y-82750914D01*
X148391524Y-82750914D02*
X148296286Y-82798533D01*
X147661333Y-88846819D02*
X147328000Y-88370628D01*
X147089905Y-88846819D02*
X147089905Y-87846819D01*
X147089905Y-87846819D02*
X147470857Y-87846819D01*
X147470857Y-87846819D02*
X147566095Y-87894438D01*
X147566095Y-87894438D02*
X147613714Y-87942057D01*
X147613714Y-87942057D02*
X147661333Y-88037295D01*
X147661333Y-88037295D02*
X147661333Y-88180152D01*
X147661333Y-88180152D02*
X147613714Y-88275390D01*
X147613714Y-88275390D02*
X147566095Y-88323009D01*
X147566095Y-88323009D02*
X147470857Y-88370628D01*
X147470857Y-88370628D02*
X147089905Y-88370628D01*
X148232762Y-88275390D02*
X148137524Y-88227771D01*
X148137524Y-88227771D02*
X148089905Y-88180152D01*
X148089905Y-88180152D02*
X148042286Y-88084914D01*
X148042286Y-88084914D02*
X148042286Y-88037295D01*
X148042286Y-88037295D02*
X148089905Y-87942057D01*
X148089905Y-87942057D02*
X148137524Y-87894438D01*
X148137524Y-87894438D02*
X148232762Y-87846819D01*
X148232762Y-87846819D02*
X148423238Y-87846819D01*
X148423238Y-87846819D02*
X148518476Y-87894438D01*
X148518476Y-87894438D02*
X148566095Y-87942057D01*
X148566095Y-87942057D02*
X148613714Y-88037295D01*
X148613714Y-88037295D02*
X148613714Y-88084914D01*
X148613714Y-88084914D02*
X148566095Y-88180152D01*
X148566095Y-88180152D02*
X148518476Y-88227771D01*
X148518476Y-88227771D02*
X148423238Y-88275390D01*
X148423238Y-88275390D02*
X148232762Y-88275390D01*
X148232762Y-88275390D02*
X148137524Y-88323009D01*
X148137524Y-88323009D02*
X148089905Y-88370628D01*
X148089905Y-88370628D02*
X148042286Y-88465866D01*
X148042286Y-88465866D02*
X148042286Y-88656342D01*
X148042286Y-88656342D02*
X148089905Y-88751580D01*
X148089905Y-88751580D02*
X148137524Y-88799200D01*
X148137524Y-88799200D02*
X148232762Y-88846819D01*
X148232762Y-88846819D02*
X148423238Y-88846819D01*
X148423238Y-88846819D02*
X148518476Y-88799200D01*
X148518476Y-88799200D02*
X148566095Y-88751580D01*
X148566095Y-88751580D02*
X148613714Y-88656342D01*
X148613714Y-88656342D02*
X148613714Y-88465866D01*
X148613714Y-88465866D02*
X148566095Y-88370628D01*
X148566095Y-88370628D02*
X148518476Y-88323009D01*
X148518476Y-88323009D02*
X148423238Y-88275390D01*
X163068095Y-60154819D02*
X163068095Y-59154819D01*
X163068095Y-59631009D02*
X163639523Y-59631009D01*
X163639523Y-60154819D02*
X163639523Y-59154819D01*
X164020476Y-59154819D02*
X164639523Y-59154819D01*
X164639523Y-59154819D02*
X164306190Y-59535771D01*
X164306190Y-59535771D02*
X164449047Y-59535771D01*
X164449047Y-59535771D02*
X164544285Y-59583390D01*
X164544285Y-59583390D02*
X164591904Y-59631009D01*
X164591904Y-59631009D02*
X164639523Y-59726247D01*
X164639523Y-59726247D02*
X164639523Y-59964342D01*
X164639523Y-59964342D02*
X164591904Y-60059580D01*
X164591904Y-60059580D02*
X164544285Y-60107200D01*
X164544285Y-60107200D02*
X164449047Y-60154819D01*
X164449047Y-60154819D02*
X164163333Y-60154819D01*
X164163333Y-60154819D02*
X164068095Y-60107200D01*
X164068095Y-60107200D02*
X164020476Y-60059580D01*
X147661333Y-102467580D02*
X147613714Y-102515200D01*
X147613714Y-102515200D02*
X147470857Y-102562819D01*
X147470857Y-102562819D02*
X147375619Y-102562819D01*
X147375619Y-102562819D02*
X147232762Y-102515200D01*
X147232762Y-102515200D02*
X147137524Y-102419961D01*
X147137524Y-102419961D02*
X147089905Y-102324723D01*
X147089905Y-102324723D02*
X147042286Y-102134247D01*
X147042286Y-102134247D02*
X147042286Y-101991390D01*
X147042286Y-101991390D02*
X147089905Y-101800914D01*
X147089905Y-101800914D02*
X147137524Y-101705676D01*
X147137524Y-101705676D02*
X147232762Y-101610438D01*
X147232762Y-101610438D02*
X147375619Y-101562819D01*
X147375619Y-101562819D02*
X147470857Y-101562819D01*
X147470857Y-101562819D02*
X147613714Y-101610438D01*
X147613714Y-101610438D02*
X147661333Y-101658057D01*
X147994667Y-101562819D02*
X148613714Y-101562819D01*
X148613714Y-101562819D02*
X148280381Y-101943771D01*
X148280381Y-101943771D02*
X148423238Y-101943771D01*
X148423238Y-101943771D02*
X148518476Y-101991390D01*
X148518476Y-101991390D02*
X148566095Y-102039009D01*
X148566095Y-102039009D02*
X148613714Y-102134247D01*
X148613714Y-102134247D02*
X148613714Y-102372342D01*
X148613714Y-102372342D02*
X148566095Y-102467580D01*
X148566095Y-102467580D02*
X148518476Y-102515200D01*
X148518476Y-102515200D02*
X148423238Y-102562819D01*
X148423238Y-102562819D02*
X148137524Y-102562819D01*
X148137524Y-102562819D02*
X148042286Y-102515200D01*
X148042286Y-102515200D02*
X147994667Y-102467580D01*
X157567333Y-94180819D02*
X157234000Y-93704628D01*
X156995905Y-94180819D02*
X156995905Y-93180819D01*
X156995905Y-93180819D02*
X157376857Y-93180819D01*
X157376857Y-93180819D02*
X157472095Y-93228438D01*
X157472095Y-93228438D02*
X157519714Y-93276057D01*
X157519714Y-93276057D02*
X157567333Y-93371295D01*
X157567333Y-93371295D02*
X157567333Y-93514152D01*
X157567333Y-93514152D02*
X157519714Y-93609390D01*
X157519714Y-93609390D02*
X157472095Y-93657009D01*
X157472095Y-93657009D02*
X157376857Y-93704628D01*
X157376857Y-93704628D02*
X156995905Y-93704628D01*
X158424476Y-93180819D02*
X158234000Y-93180819D01*
X158234000Y-93180819D02*
X158138762Y-93228438D01*
X158138762Y-93228438D02*
X158091143Y-93276057D01*
X158091143Y-93276057D02*
X157995905Y-93418914D01*
X157995905Y-93418914D02*
X157948286Y-93609390D01*
X157948286Y-93609390D02*
X157948286Y-93990342D01*
X157948286Y-93990342D02*
X157995905Y-94085580D01*
X157995905Y-94085580D02*
X158043524Y-94133200D01*
X158043524Y-94133200D02*
X158138762Y-94180819D01*
X158138762Y-94180819D02*
X158329238Y-94180819D01*
X158329238Y-94180819D02*
X158424476Y-94133200D01*
X158424476Y-94133200D02*
X158472095Y-94085580D01*
X158472095Y-94085580D02*
X158519714Y-93990342D01*
X158519714Y-93990342D02*
X158519714Y-93752247D01*
X158519714Y-93752247D02*
X158472095Y-93657009D01*
X158472095Y-93657009D02*
X158424476Y-93609390D01*
X158424476Y-93609390D02*
X158329238Y-93561771D01*
X158329238Y-93561771D02*
X158138762Y-93561771D01*
X158138762Y-93561771D02*
X158043524Y-93609390D01*
X158043524Y-93609390D02*
X157995905Y-93657009D01*
X157995905Y-93657009D02*
X157948286Y-93752247D01*
X157567333Y-90116819D02*
X157234000Y-89640628D01*
X156995905Y-90116819D02*
X156995905Y-89116819D01*
X156995905Y-89116819D02*
X157376857Y-89116819D01*
X157376857Y-89116819D02*
X157472095Y-89164438D01*
X157472095Y-89164438D02*
X157519714Y-89212057D01*
X157519714Y-89212057D02*
X157567333Y-89307295D01*
X157567333Y-89307295D02*
X157567333Y-89450152D01*
X157567333Y-89450152D02*
X157519714Y-89545390D01*
X157519714Y-89545390D02*
X157472095Y-89593009D01*
X157472095Y-89593009D02*
X157376857Y-89640628D01*
X157376857Y-89640628D02*
X156995905Y-89640628D01*
X157900667Y-89116819D02*
X158567333Y-89116819D01*
X158567333Y-89116819D02*
X158138762Y-90116819D01*
X163068095Y-123654819D02*
X163068095Y-122654819D01*
X163068095Y-123131009D02*
X163639523Y-123131009D01*
X163639523Y-123654819D02*
X163639523Y-122654819D01*
X164544285Y-122988152D02*
X164544285Y-123654819D01*
X164306190Y-122607200D02*
X164068095Y-123321485D01*
X164068095Y-123321485D02*
X164687142Y-123321485D01*
X147661333Y-91799580D02*
X147613714Y-91847200D01*
X147613714Y-91847200D02*
X147470857Y-91894819D01*
X147470857Y-91894819D02*
X147375619Y-91894819D01*
X147375619Y-91894819D02*
X147232762Y-91847200D01*
X147232762Y-91847200D02*
X147137524Y-91751961D01*
X147137524Y-91751961D02*
X147089905Y-91656723D01*
X147089905Y-91656723D02*
X147042286Y-91466247D01*
X147042286Y-91466247D02*
X147042286Y-91323390D01*
X147042286Y-91323390D02*
X147089905Y-91132914D01*
X147089905Y-91132914D02*
X147137524Y-91037676D01*
X147137524Y-91037676D02*
X147232762Y-90942438D01*
X147232762Y-90942438D02*
X147375619Y-90894819D01*
X147375619Y-90894819D02*
X147470857Y-90894819D01*
X147470857Y-90894819D02*
X147613714Y-90942438D01*
X147613714Y-90942438D02*
X147661333Y-90990057D01*
X148042286Y-90990057D02*
X148089905Y-90942438D01*
X148089905Y-90942438D02*
X148185143Y-90894819D01*
X148185143Y-90894819D02*
X148423238Y-90894819D01*
X148423238Y-90894819D02*
X148518476Y-90942438D01*
X148518476Y-90942438D02*
X148566095Y-90990057D01*
X148566095Y-90990057D02*
X148613714Y-91085295D01*
X148613714Y-91085295D02*
X148613714Y-91180533D01*
X148613714Y-91180533D02*
X148566095Y-91323390D01*
X148566095Y-91323390D02*
X147994667Y-91894819D01*
X147994667Y-91894819D02*
X148613714Y-91894819D01*
X153535142Y-101546819D02*
X153201809Y-101070628D01*
X152963714Y-101546819D02*
X152963714Y-100546819D01*
X152963714Y-100546819D02*
X153344666Y-100546819D01*
X153344666Y-100546819D02*
X153439904Y-100594438D01*
X153439904Y-100594438D02*
X153487523Y-100642057D01*
X153487523Y-100642057D02*
X153535142Y-100737295D01*
X153535142Y-100737295D02*
X153535142Y-100880152D01*
X153535142Y-100880152D02*
X153487523Y-100975390D01*
X153487523Y-100975390D02*
X153439904Y-101023009D01*
X153439904Y-101023009D02*
X153344666Y-101070628D01*
X153344666Y-101070628D02*
X152963714Y-101070628D01*
X154487523Y-101546819D02*
X153916095Y-101546819D01*
X154201809Y-101546819D02*
X154201809Y-100546819D01*
X154201809Y-100546819D02*
X154106571Y-100689676D01*
X154106571Y-100689676D02*
X154011333Y-100784914D01*
X154011333Y-100784914D02*
X153916095Y-100832533D01*
X155106571Y-100546819D02*
X155201809Y-100546819D01*
X155201809Y-100546819D02*
X155297047Y-100594438D01*
X155297047Y-100594438D02*
X155344666Y-100642057D01*
X155344666Y-100642057D02*
X155392285Y-100737295D01*
X155392285Y-100737295D02*
X155439904Y-100927771D01*
X155439904Y-100927771D02*
X155439904Y-101165866D01*
X155439904Y-101165866D02*
X155392285Y-101356342D01*
X155392285Y-101356342D02*
X155344666Y-101451580D01*
X155344666Y-101451580D02*
X155297047Y-101499200D01*
X155297047Y-101499200D02*
X155201809Y-101546819D01*
X155201809Y-101546819D02*
X155106571Y-101546819D01*
X155106571Y-101546819D02*
X155011333Y-101499200D01*
X155011333Y-101499200D02*
X154963714Y-101451580D01*
X154963714Y-101451580D02*
X154916095Y-101356342D01*
X154916095Y-101356342D02*
X154868476Y-101165866D01*
X154868476Y-101165866D02*
X154868476Y-100927771D01*
X154868476Y-100927771D02*
X154916095Y-100737295D01*
X154916095Y-100737295D02*
X154963714Y-100642057D01*
X154963714Y-100642057D02*
X155011333Y-100594438D01*
X155011333Y-100594438D02*
X155106571Y-100546819D01*
X59340761Y-91736057D02*
X59245523Y-91688438D01*
X59245523Y-91688438D02*
X59150285Y-91593200D01*
X59150285Y-91593200D02*
X59007428Y-91450342D01*
X59007428Y-91450342D02*
X58912190Y-91402723D01*
X58912190Y-91402723D02*
X58816952Y-91402723D01*
X58864571Y-91640819D02*
X58769333Y-91593200D01*
X58769333Y-91593200D02*
X58674095Y-91497961D01*
X58674095Y-91497961D02*
X58626476Y-91307485D01*
X58626476Y-91307485D02*
X58626476Y-90974152D01*
X58626476Y-90974152D02*
X58674095Y-90783676D01*
X58674095Y-90783676D02*
X58769333Y-90688438D01*
X58769333Y-90688438D02*
X58864571Y-90640819D01*
X58864571Y-90640819D02*
X59055047Y-90640819D01*
X59055047Y-90640819D02*
X59150285Y-90688438D01*
X59150285Y-90688438D02*
X59245523Y-90783676D01*
X59245523Y-90783676D02*
X59293142Y-90974152D01*
X59293142Y-90974152D02*
X59293142Y-91307485D01*
X59293142Y-91307485D02*
X59245523Y-91497961D01*
X59245523Y-91497961D02*
X59150285Y-91593200D01*
X59150285Y-91593200D02*
X59055047Y-91640819D01*
X59055047Y-91640819D02*
X58864571Y-91640819D01*
X60245523Y-91640819D02*
X59674095Y-91640819D01*
X59959809Y-91640819D02*
X59959809Y-90640819D01*
X59959809Y-90640819D02*
X59864571Y-90783676D01*
X59864571Y-90783676D02*
X59769333Y-90878914D01*
X59769333Y-90878914D02*
X59674095Y-90926533D01*
X105433905Y-79194819D02*
X105433905Y-78194819D01*
X105433905Y-78194819D02*
X105672000Y-78194819D01*
X105672000Y-78194819D02*
X105814857Y-78242438D01*
X105814857Y-78242438D02*
X105910095Y-78337676D01*
X105910095Y-78337676D02*
X105957714Y-78432914D01*
X105957714Y-78432914D02*
X106005333Y-78623390D01*
X106005333Y-78623390D02*
X106005333Y-78766247D01*
X106005333Y-78766247D02*
X105957714Y-78956723D01*
X105957714Y-78956723D02*
X105910095Y-79051961D01*
X105910095Y-79051961D02*
X105814857Y-79147200D01*
X105814857Y-79147200D02*
X105672000Y-79194819D01*
X105672000Y-79194819D02*
X105433905Y-79194819D01*
X106386286Y-78290057D02*
X106433905Y-78242438D01*
X106433905Y-78242438D02*
X106529143Y-78194819D01*
X106529143Y-78194819D02*
X106767238Y-78194819D01*
X106767238Y-78194819D02*
X106862476Y-78242438D01*
X106862476Y-78242438D02*
X106910095Y-78290057D01*
X106910095Y-78290057D02*
X106957714Y-78385295D01*
X106957714Y-78385295D02*
X106957714Y-78480533D01*
X106957714Y-78480533D02*
X106910095Y-78623390D01*
X106910095Y-78623390D02*
X106338667Y-79194819D01*
X106338667Y-79194819D02*
X106957714Y-79194819D01*
X101224819Y-84081904D02*
X100224819Y-84081904D01*
X101224819Y-83510476D02*
X100653390Y-83939047D01*
X100224819Y-83510476D02*
X100796247Y-84081904D01*
X45357142Y-66483231D02*
X45865142Y-68007231D01*
X45865142Y-68007231D02*
X46373142Y-66483231D01*
X46881143Y-68007231D02*
X46881143Y-66483231D01*
X47606857Y-68007231D02*
X47606857Y-66483231D01*
X47606857Y-66483231D02*
X48477714Y-68007231D01*
X48477714Y-68007231D02*
X48477714Y-66483231D01*
X49203428Y-67426660D02*
X50364571Y-67426660D01*
X51743428Y-66991231D02*
X51743428Y-68007231D01*
X51380570Y-66410660D02*
X51017713Y-67499231D01*
X51017713Y-67499231D02*
X51961142Y-67499231D01*
X52759428Y-67136374D02*
X52614285Y-67063802D01*
X52614285Y-67063802D02*
X52541714Y-66991231D01*
X52541714Y-66991231D02*
X52469142Y-66846088D01*
X52469142Y-66846088D02*
X52469142Y-66773517D01*
X52469142Y-66773517D02*
X52541714Y-66628374D01*
X52541714Y-66628374D02*
X52614285Y-66555802D01*
X52614285Y-66555802D02*
X52759428Y-66483231D01*
X52759428Y-66483231D02*
X53049714Y-66483231D01*
X53049714Y-66483231D02*
X53194857Y-66555802D01*
X53194857Y-66555802D02*
X53267428Y-66628374D01*
X53267428Y-66628374D02*
X53339999Y-66773517D01*
X53339999Y-66773517D02*
X53339999Y-66846088D01*
X53339999Y-66846088D02*
X53267428Y-66991231D01*
X53267428Y-66991231D02*
X53194857Y-67063802D01*
X53194857Y-67063802D02*
X53049714Y-67136374D01*
X53049714Y-67136374D02*
X52759428Y-67136374D01*
X52759428Y-67136374D02*
X52614285Y-67208945D01*
X52614285Y-67208945D02*
X52541714Y-67281517D01*
X52541714Y-67281517D02*
X52469142Y-67426660D01*
X52469142Y-67426660D02*
X52469142Y-67716945D01*
X52469142Y-67716945D02*
X52541714Y-67862088D01*
X52541714Y-67862088D02*
X52614285Y-67934660D01*
X52614285Y-67934660D02*
X52759428Y-68007231D01*
X52759428Y-68007231D02*
X53049714Y-68007231D01*
X53049714Y-68007231D02*
X53194857Y-67934660D01*
X53194857Y-67934660D02*
X53267428Y-67862088D01*
X53267428Y-67862088D02*
X53339999Y-67716945D01*
X53339999Y-67716945D02*
X53339999Y-67426660D01*
X53339999Y-67426660D02*
X53267428Y-67281517D01*
X53267428Y-67281517D02*
X53194857Y-67208945D01*
X53194857Y-67208945D02*
X53049714Y-67136374D01*
X53775428Y-66483231D02*
X54283428Y-68007231D01*
X54283428Y-68007231D02*
X54791428Y-66483231D01*
X56097714Y-68007231D02*
X55226857Y-68007231D01*
X55662286Y-68007231D02*
X55662286Y-66483231D01*
X55662286Y-66483231D02*
X55517143Y-66700945D01*
X55517143Y-66700945D02*
X55372000Y-66846088D01*
X55372000Y-66846088D02*
X55226857Y-66918660D01*
X97790095Y-89514819D02*
X97790095Y-90324342D01*
X97790095Y-90324342D02*
X97837714Y-90419580D01*
X97837714Y-90419580D02*
X97885333Y-90467200D01*
X97885333Y-90467200D02*
X97980571Y-90514819D01*
X97980571Y-90514819D02*
X98171047Y-90514819D01*
X98171047Y-90514819D02*
X98266285Y-90467200D01*
X98266285Y-90467200D02*
X98313904Y-90419580D01*
X98313904Y-90419580D02*
X98361523Y-90324342D01*
X98361523Y-90324342D02*
X98361523Y-89514819D01*
X99361523Y-90514819D02*
X98790095Y-90514819D01*
X99075809Y-90514819D02*
X99075809Y-89514819D01*
X99075809Y-89514819D02*
X98980571Y-89657676D01*
X98980571Y-89657676D02*
X98885333Y-89752914D01*
X98885333Y-89752914D02*
X98790095Y-89800533D01*
X44100761Y-91736057D02*
X44005523Y-91688438D01*
X44005523Y-91688438D02*
X43910285Y-91593200D01*
X43910285Y-91593200D02*
X43767428Y-91450342D01*
X43767428Y-91450342D02*
X43672190Y-91402723D01*
X43672190Y-91402723D02*
X43576952Y-91402723D01*
X43624571Y-91640819D02*
X43529333Y-91593200D01*
X43529333Y-91593200D02*
X43434095Y-91497961D01*
X43434095Y-91497961D02*
X43386476Y-91307485D01*
X43386476Y-91307485D02*
X43386476Y-90974152D01*
X43386476Y-90974152D02*
X43434095Y-90783676D01*
X43434095Y-90783676D02*
X43529333Y-90688438D01*
X43529333Y-90688438D02*
X43624571Y-90640819D01*
X43624571Y-90640819D02*
X43815047Y-90640819D01*
X43815047Y-90640819D02*
X43910285Y-90688438D01*
X43910285Y-90688438D02*
X44005523Y-90783676D01*
X44005523Y-90783676D02*
X44053142Y-90974152D01*
X44053142Y-90974152D02*
X44053142Y-91307485D01*
X44053142Y-91307485D02*
X44005523Y-91497961D01*
X44005523Y-91497961D02*
X43910285Y-91593200D01*
X43910285Y-91593200D02*
X43815047Y-91640819D01*
X43815047Y-91640819D02*
X43624571Y-91640819D01*
X44434095Y-90736057D02*
X44481714Y-90688438D01*
X44481714Y-90688438D02*
X44576952Y-90640819D01*
X44576952Y-90640819D02*
X44815047Y-90640819D01*
X44815047Y-90640819D02*
X44910285Y-90688438D01*
X44910285Y-90688438D02*
X44957904Y-90736057D01*
X44957904Y-90736057D02*
X45005523Y-90831295D01*
X45005523Y-90831295D02*
X45005523Y-90926533D01*
X45005523Y-90926533D02*
X44957904Y-91069390D01*
X44957904Y-91069390D02*
X44386476Y-91640819D01*
X44386476Y-91640819D02*
X45005523Y-91640819D01*
X150217142Y-97356819D02*
X149883809Y-96880628D01*
X149645714Y-97356819D02*
X149645714Y-96356819D01*
X149645714Y-96356819D02*
X150026666Y-96356819D01*
X150026666Y-96356819D02*
X150121904Y-96404438D01*
X150121904Y-96404438D02*
X150169523Y-96452057D01*
X150169523Y-96452057D02*
X150217142Y-96547295D01*
X150217142Y-96547295D02*
X150217142Y-96690152D01*
X150217142Y-96690152D02*
X150169523Y-96785390D01*
X150169523Y-96785390D02*
X150121904Y-96833009D01*
X150121904Y-96833009D02*
X150026666Y-96880628D01*
X150026666Y-96880628D02*
X149645714Y-96880628D01*
X151169523Y-97356819D02*
X150598095Y-97356819D01*
X150883809Y-97356819D02*
X150883809Y-96356819D01*
X150883809Y-96356819D02*
X150788571Y-96499676D01*
X150788571Y-96499676D02*
X150693333Y-96594914D01*
X150693333Y-96594914D02*
X150598095Y-96642533D01*
X152121904Y-97356819D02*
X151550476Y-97356819D01*
X151836190Y-97356819D02*
X151836190Y-96356819D01*
X151836190Y-96356819D02*
X151740952Y-96499676D01*
X151740952Y-96499676D02*
X151645714Y-96594914D01*
X151645714Y-96594914D02*
X151550476Y-96642533D01*
X88566666Y-118374819D02*
X88566666Y-119089104D01*
X88566666Y-119089104D02*
X88519047Y-119231961D01*
X88519047Y-119231961D02*
X88423809Y-119327200D01*
X88423809Y-119327200D02*
X88280952Y-119374819D01*
X88280952Y-119374819D02*
X88185714Y-119374819D01*
X89566666Y-119374819D02*
X88995238Y-119374819D01*
X89280952Y-119374819D02*
X89280952Y-118374819D01*
X89280952Y-118374819D02*
X89185714Y-118517676D01*
X89185714Y-118517676D02*
X89090476Y-118612914D01*
X89090476Y-118612914D02*
X88995238Y-118660533D01*
X153503333Y-77924819D02*
X153170000Y-77448628D01*
X152931905Y-77924819D02*
X152931905Y-76924819D01*
X152931905Y-76924819D02*
X153312857Y-76924819D01*
X153312857Y-76924819D02*
X153408095Y-76972438D01*
X153408095Y-76972438D02*
X153455714Y-77020057D01*
X153455714Y-77020057D02*
X153503333Y-77115295D01*
X153503333Y-77115295D02*
X153503333Y-77258152D01*
X153503333Y-77258152D02*
X153455714Y-77353390D01*
X153455714Y-77353390D02*
X153408095Y-77401009D01*
X153408095Y-77401009D02*
X153312857Y-77448628D01*
X153312857Y-77448628D02*
X152931905Y-77448628D01*
X154360476Y-77258152D02*
X154360476Y-77924819D01*
X154122381Y-76877200D02*
X153884286Y-77591485D01*
X153884286Y-77591485D02*
X154503333Y-77591485D01*
X93371200Y-75016761D02*
X93418819Y-74873904D01*
X93418819Y-74873904D02*
X93418819Y-74635809D01*
X93418819Y-74635809D02*
X93371200Y-74540571D01*
X93371200Y-74540571D02*
X93323580Y-74492952D01*
X93323580Y-74492952D02*
X93228342Y-74445333D01*
X93228342Y-74445333D02*
X93133104Y-74445333D01*
X93133104Y-74445333D02*
X93037866Y-74492952D01*
X93037866Y-74492952D02*
X92990247Y-74540571D01*
X92990247Y-74540571D02*
X92942628Y-74635809D01*
X92942628Y-74635809D02*
X92895009Y-74826285D01*
X92895009Y-74826285D02*
X92847390Y-74921523D01*
X92847390Y-74921523D02*
X92799771Y-74969142D01*
X92799771Y-74969142D02*
X92704533Y-75016761D01*
X92704533Y-75016761D02*
X92609295Y-75016761D01*
X92609295Y-75016761D02*
X92514057Y-74969142D01*
X92514057Y-74969142D02*
X92466438Y-74921523D01*
X92466438Y-74921523D02*
X92418819Y-74826285D01*
X92418819Y-74826285D02*
X92418819Y-74588190D01*
X92418819Y-74588190D02*
X92466438Y-74445333D01*
X93418819Y-74016761D02*
X92418819Y-74016761D01*
X92418819Y-74016761D02*
X93133104Y-73683428D01*
X93133104Y-73683428D02*
X92418819Y-73350095D01*
X92418819Y-73350095D02*
X93418819Y-73350095D01*
X93418819Y-72873904D02*
X92418819Y-72873904D01*
X92418819Y-72873904D02*
X92418819Y-72492952D01*
X92418819Y-72492952D02*
X92466438Y-72397714D01*
X92466438Y-72397714D02*
X92514057Y-72350095D01*
X92514057Y-72350095D02*
X92609295Y-72302476D01*
X92609295Y-72302476D02*
X92752152Y-72302476D01*
X92752152Y-72302476D02*
X92847390Y-72350095D01*
X92847390Y-72350095D02*
X92895009Y-72397714D01*
X92895009Y-72397714D02*
X92942628Y-72492952D01*
X92942628Y-72492952D02*
X92942628Y-72873904D01*
X93371200Y-71921523D02*
X93418819Y-71778666D01*
X93418819Y-71778666D02*
X93418819Y-71540571D01*
X93418819Y-71540571D02*
X93371200Y-71445333D01*
X93371200Y-71445333D02*
X93323580Y-71397714D01*
X93323580Y-71397714D02*
X93228342Y-71350095D01*
X93228342Y-71350095D02*
X93133104Y-71350095D01*
X93133104Y-71350095D02*
X93037866Y-71397714D01*
X93037866Y-71397714D02*
X92990247Y-71445333D01*
X92990247Y-71445333D02*
X92942628Y-71540571D01*
X92942628Y-71540571D02*
X92895009Y-71731047D01*
X92895009Y-71731047D02*
X92847390Y-71826285D01*
X92847390Y-71826285D02*
X92799771Y-71873904D01*
X92799771Y-71873904D02*
X92704533Y-71921523D01*
X92704533Y-71921523D02*
X92609295Y-71921523D01*
X92609295Y-71921523D02*
X92514057Y-71873904D01*
X92514057Y-71873904D02*
X92466438Y-71826285D01*
X92466438Y-71826285D02*
X92418819Y-71731047D01*
X92418819Y-71731047D02*
X92418819Y-71492952D01*
X92418819Y-71492952D02*
X92466438Y-71350095D01*
X93514057Y-71159619D02*
X93514057Y-70397714D01*
X92418819Y-70302475D02*
X93418819Y-69969142D01*
X93418819Y-69969142D02*
X92418819Y-69635809D01*
X93418819Y-69302475D02*
X92418819Y-69302475D01*
X93418819Y-68826285D02*
X92418819Y-68826285D01*
X92418819Y-68826285D02*
X93418819Y-68254857D01*
X93418819Y-68254857D02*
X92418819Y-68254857D01*
X93418819Y-67778666D02*
X92418819Y-67778666D01*
X92418819Y-67778666D02*
X93418819Y-67207238D01*
X93418819Y-67207238D02*
X92418819Y-67207238D01*
X93418819Y-66207238D02*
X93418819Y-66778666D01*
X93418819Y-66492952D02*
X92418819Y-66492952D01*
X92418819Y-66492952D02*
X92561676Y-66588190D01*
X92561676Y-66588190D02*
X92656914Y-66683428D01*
X92656914Y-66683428D02*
X92704533Y-66778666D01*
X162382819Y-115569904D02*
X163192342Y-115569904D01*
X163192342Y-115569904D02*
X163287580Y-115522285D01*
X163287580Y-115522285D02*
X163335200Y-115474666D01*
X163335200Y-115474666D02*
X163382819Y-115379428D01*
X163382819Y-115379428D02*
X163382819Y-115188952D01*
X163382819Y-115188952D02*
X163335200Y-115093714D01*
X163335200Y-115093714D02*
X163287580Y-115046095D01*
X163287580Y-115046095D02*
X163192342Y-114998476D01*
X163192342Y-114998476D02*
X162382819Y-114998476D01*
X162382819Y-114617523D02*
X162382819Y-113998476D01*
X162382819Y-113998476D02*
X162763771Y-114331809D01*
X162763771Y-114331809D02*
X162763771Y-114188952D01*
X162763771Y-114188952D02*
X162811390Y-114093714D01*
X162811390Y-114093714D02*
X162859009Y-114046095D01*
X162859009Y-114046095D02*
X162954247Y-113998476D01*
X162954247Y-113998476D02*
X163192342Y-113998476D01*
X163192342Y-113998476D02*
X163287580Y-114046095D01*
X163287580Y-114046095D02*
X163335200Y-114093714D01*
X163335200Y-114093714D02*
X163382819Y-114188952D01*
X163382819Y-114188952D02*
X163382819Y-114474666D01*
X163382819Y-114474666D02*
X163335200Y-114569904D01*
X163335200Y-114569904D02*
X163287580Y-114617523D01*
X147661333Y-94434819D02*
X147328000Y-93958628D01*
X147089905Y-94434819D02*
X147089905Y-93434819D01*
X147089905Y-93434819D02*
X147470857Y-93434819D01*
X147470857Y-93434819D02*
X147566095Y-93482438D01*
X147566095Y-93482438D02*
X147613714Y-93530057D01*
X147613714Y-93530057D02*
X147661333Y-93625295D01*
X147661333Y-93625295D02*
X147661333Y-93768152D01*
X147661333Y-93768152D02*
X147613714Y-93863390D01*
X147613714Y-93863390D02*
X147566095Y-93911009D01*
X147566095Y-93911009D02*
X147470857Y-93958628D01*
X147470857Y-93958628D02*
X147089905Y-93958628D01*
X148137524Y-94434819D02*
X148328000Y-94434819D01*
X148328000Y-94434819D02*
X148423238Y-94387200D01*
X148423238Y-94387200D02*
X148470857Y-94339580D01*
X148470857Y-94339580D02*
X148566095Y-94196723D01*
X148566095Y-94196723D02*
X148613714Y-94006247D01*
X148613714Y-94006247D02*
X148613714Y-93625295D01*
X148613714Y-93625295D02*
X148566095Y-93530057D01*
X148566095Y-93530057D02*
X148518476Y-93482438D01*
X148518476Y-93482438D02*
X148423238Y-93434819D01*
X148423238Y-93434819D02*
X148232762Y-93434819D01*
X148232762Y-93434819D02*
X148137524Y-93482438D01*
X148137524Y-93482438D02*
X148089905Y-93530057D01*
X148089905Y-93530057D02*
X148042286Y-93625295D01*
X148042286Y-93625295D02*
X148042286Y-93863390D01*
X148042286Y-93863390D02*
X148089905Y-93958628D01*
X148089905Y-93958628D02*
X148137524Y-94006247D01*
X148137524Y-94006247D02*
X148232762Y-94053866D01*
X148232762Y-94053866D02*
X148423238Y-94053866D01*
X148423238Y-94053866D02*
X148518476Y-94006247D01*
X148518476Y-94006247D02*
X148566095Y-93958628D01*
X148566095Y-93958628D02*
X148613714Y-93863390D01*
X37338095Y-60154819D02*
X37338095Y-59154819D01*
X37338095Y-59631009D02*
X37909523Y-59631009D01*
X37909523Y-60154819D02*
X37909523Y-59154819D01*
X38909523Y-60154819D02*
X38338095Y-60154819D01*
X38623809Y-60154819D02*
X38623809Y-59154819D01*
X38623809Y-59154819D02*
X38528571Y-59297676D01*
X38528571Y-59297676D02*
X38433333Y-59392914D01*
X38433333Y-59392914D02*
X38338095Y-59440533D01*
X112929200Y-73127333D02*
X112976819Y-72984476D01*
X112976819Y-72984476D02*
X112976819Y-72746381D01*
X112976819Y-72746381D02*
X112929200Y-72651143D01*
X112929200Y-72651143D02*
X112881580Y-72603524D01*
X112881580Y-72603524D02*
X112786342Y-72555905D01*
X112786342Y-72555905D02*
X112691104Y-72555905D01*
X112691104Y-72555905D02*
X112595866Y-72603524D01*
X112595866Y-72603524D02*
X112548247Y-72651143D01*
X112548247Y-72651143D02*
X112500628Y-72746381D01*
X112500628Y-72746381D02*
X112453009Y-72936857D01*
X112453009Y-72936857D02*
X112405390Y-73032095D01*
X112405390Y-73032095D02*
X112357771Y-73079714D01*
X112357771Y-73079714D02*
X112262533Y-73127333D01*
X112262533Y-73127333D02*
X112167295Y-73127333D01*
X112167295Y-73127333D02*
X112072057Y-73079714D01*
X112072057Y-73079714D02*
X112024438Y-73032095D01*
X112024438Y-73032095D02*
X111976819Y-72936857D01*
X111976819Y-72936857D02*
X111976819Y-72698762D01*
X111976819Y-72698762D02*
X112024438Y-72555905D01*
X112976819Y-72127333D02*
X111976819Y-72127333D01*
X111976819Y-72127333D02*
X112691104Y-71794000D01*
X112691104Y-71794000D02*
X111976819Y-71460667D01*
X111976819Y-71460667D02*
X112976819Y-71460667D01*
X112976819Y-70984476D02*
X111976819Y-70984476D01*
X111976819Y-70984476D02*
X111976819Y-70603524D01*
X111976819Y-70603524D02*
X112024438Y-70508286D01*
X112024438Y-70508286D02*
X112072057Y-70460667D01*
X112072057Y-70460667D02*
X112167295Y-70413048D01*
X112167295Y-70413048D02*
X112310152Y-70413048D01*
X112310152Y-70413048D02*
X112405390Y-70460667D01*
X112405390Y-70460667D02*
X112453009Y-70508286D01*
X112453009Y-70508286D02*
X112500628Y-70603524D01*
X112500628Y-70603524D02*
X112500628Y-70984476D01*
X112929200Y-70032095D02*
X112976819Y-69889238D01*
X112976819Y-69889238D02*
X112976819Y-69651143D01*
X112976819Y-69651143D02*
X112929200Y-69555905D01*
X112929200Y-69555905D02*
X112881580Y-69508286D01*
X112881580Y-69508286D02*
X112786342Y-69460667D01*
X112786342Y-69460667D02*
X112691104Y-69460667D01*
X112691104Y-69460667D02*
X112595866Y-69508286D01*
X112595866Y-69508286D02*
X112548247Y-69555905D01*
X112548247Y-69555905D02*
X112500628Y-69651143D01*
X112500628Y-69651143D02*
X112453009Y-69841619D01*
X112453009Y-69841619D02*
X112405390Y-69936857D01*
X112405390Y-69936857D02*
X112357771Y-69984476D01*
X112357771Y-69984476D02*
X112262533Y-70032095D01*
X112262533Y-70032095D02*
X112167295Y-70032095D01*
X112167295Y-70032095D02*
X112072057Y-69984476D01*
X112072057Y-69984476D02*
X112024438Y-69936857D01*
X112024438Y-69936857D02*
X111976819Y-69841619D01*
X111976819Y-69841619D02*
X111976819Y-69603524D01*
X111976819Y-69603524D02*
X112024438Y-69460667D01*
X113072057Y-69270191D02*
X113072057Y-68508286D01*
X111976819Y-68413047D02*
X112976819Y-68079714D01*
X112976819Y-68079714D02*
X111976819Y-67746381D01*
X111976819Y-67222571D02*
X111976819Y-67032095D01*
X111976819Y-67032095D02*
X112024438Y-66936857D01*
X112024438Y-66936857D02*
X112119676Y-66841619D01*
X112119676Y-66841619D02*
X112310152Y-66794000D01*
X112310152Y-66794000D02*
X112643485Y-66794000D01*
X112643485Y-66794000D02*
X112833961Y-66841619D01*
X112833961Y-66841619D02*
X112929200Y-66936857D01*
X112929200Y-66936857D02*
X112976819Y-67032095D01*
X112976819Y-67032095D02*
X112976819Y-67222571D01*
X112976819Y-67222571D02*
X112929200Y-67317809D01*
X112929200Y-67317809D02*
X112833961Y-67413047D01*
X112833961Y-67413047D02*
X112643485Y-67460666D01*
X112643485Y-67460666D02*
X112310152Y-67460666D01*
X112310152Y-67460666D02*
X112119676Y-67413047D01*
X112119676Y-67413047D02*
X112024438Y-67317809D01*
X112024438Y-67317809D02*
X111976819Y-67222571D01*
X111976819Y-66365428D02*
X112786342Y-66365428D01*
X112786342Y-66365428D02*
X112881580Y-66317809D01*
X112881580Y-66317809D02*
X112929200Y-66270190D01*
X112929200Y-66270190D02*
X112976819Y-66174952D01*
X112976819Y-66174952D02*
X112976819Y-65984476D01*
X112976819Y-65984476D02*
X112929200Y-65889238D01*
X112929200Y-65889238D02*
X112881580Y-65841619D01*
X112881580Y-65841619D02*
X112786342Y-65794000D01*
X112786342Y-65794000D02*
X111976819Y-65794000D01*
X111976819Y-65460666D02*
X111976819Y-64889238D01*
X112976819Y-65174952D02*
X111976819Y-65174952D01*
X113072057Y-64794000D02*
X113072057Y-64032095D01*
X112976819Y-63270190D02*
X112976819Y-63841618D01*
X112976819Y-63555904D02*
X111976819Y-63555904D01*
X111976819Y-63555904D02*
X112119676Y-63651142D01*
X112119676Y-63651142D02*
X112214914Y-63746380D01*
X112214914Y-63746380D02*
X112262533Y-63841618D01*
X112072057Y-62889237D02*
X112024438Y-62841618D01*
X112024438Y-62841618D02*
X111976819Y-62746380D01*
X111976819Y-62746380D02*
X111976819Y-62508285D01*
X111976819Y-62508285D02*
X112024438Y-62413047D01*
X112024438Y-62413047D02*
X112072057Y-62365428D01*
X112072057Y-62365428D02*
X112167295Y-62317809D01*
X112167295Y-62317809D02*
X112262533Y-62317809D01*
X112262533Y-62317809D02*
X112405390Y-62365428D01*
X112405390Y-62365428D02*
X112976819Y-62936856D01*
X112976819Y-62936856D02*
X112976819Y-62317809D01*
X111976819Y-62032094D02*
X112976819Y-61698761D01*
X112976819Y-61698761D02*
X111976819Y-61365428D01*
X112976819Y-61032094D02*
X111976819Y-61032094D01*
X111976819Y-61032094D02*
X112976819Y-60460666D01*
X112976819Y-60460666D02*
X111976819Y-60460666D01*
X112976819Y-59460666D02*
X112976819Y-60032094D01*
X112976819Y-59746380D02*
X111976819Y-59746380D01*
X111976819Y-59746380D02*
X112119676Y-59841618D01*
X112119676Y-59841618D02*
X112214914Y-59936856D01*
X112214914Y-59936856D02*
X112262533Y-60032094D01*
X153757333Y-82766819D02*
X153424000Y-82290628D01*
X153185905Y-82766819D02*
X153185905Y-81766819D01*
X153185905Y-81766819D02*
X153566857Y-81766819D01*
X153566857Y-81766819D02*
X153662095Y-81814438D01*
X153662095Y-81814438D02*
X153709714Y-81862057D01*
X153709714Y-81862057D02*
X153757333Y-81957295D01*
X153757333Y-81957295D02*
X153757333Y-82100152D01*
X153757333Y-82100152D02*
X153709714Y-82195390D01*
X153709714Y-82195390D02*
X153662095Y-82243009D01*
X153662095Y-82243009D02*
X153566857Y-82290628D01*
X153566857Y-82290628D02*
X153185905Y-82290628D01*
X154662095Y-81766819D02*
X154185905Y-81766819D01*
X154185905Y-81766819D02*
X154138286Y-82243009D01*
X154138286Y-82243009D02*
X154185905Y-82195390D01*
X154185905Y-82195390D02*
X154281143Y-82147771D01*
X154281143Y-82147771D02*
X154519238Y-82147771D01*
X154519238Y-82147771D02*
X154614476Y-82195390D01*
X154614476Y-82195390D02*
X154662095Y-82243009D01*
X154662095Y-82243009D02*
X154709714Y-82338247D01*
X154709714Y-82338247D02*
X154709714Y-82576342D01*
X154709714Y-82576342D02*
X154662095Y-82671580D01*
X154662095Y-82671580D02*
X154614476Y-82719200D01*
X154614476Y-82719200D02*
X154519238Y-82766819D01*
X154519238Y-82766819D02*
X154281143Y-82766819D01*
X154281143Y-82766819D02*
X154185905Y-82719200D01*
X154185905Y-82719200D02*
X154138286Y-82671580D01*
X166294819Y-95543333D02*
X167009104Y-95543333D01*
X167009104Y-95543333D02*
X167151961Y-95590952D01*
X167151961Y-95590952D02*
X167247200Y-95686190D01*
X167247200Y-95686190D02*
X167294819Y-95829047D01*
X167294819Y-95829047D02*
X167294819Y-95924285D01*
X166628152Y-94638571D02*
X167294819Y-94638571D01*
X166247200Y-94876666D02*
X166961485Y-95114761D01*
X166961485Y-95114761D02*
X166961485Y-94495714D01*
X146812095Y-59906819D02*
X146812095Y-60716342D01*
X146812095Y-60716342D02*
X146859714Y-60811580D01*
X146859714Y-60811580D02*
X146907333Y-60859200D01*
X146907333Y-60859200D02*
X147002571Y-60906819D01*
X147002571Y-60906819D02*
X147193047Y-60906819D01*
X147193047Y-60906819D02*
X147288285Y-60859200D01*
X147288285Y-60859200D02*
X147335904Y-60811580D01*
X147335904Y-60811580D02*
X147383523Y-60716342D01*
X147383523Y-60716342D02*
X147383523Y-59906819D01*
X147812095Y-60002057D02*
X147859714Y-59954438D01*
X147859714Y-59954438D02*
X147954952Y-59906819D01*
X147954952Y-59906819D02*
X148193047Y-59906819D01*
X148193047Y-59906819D02*
X148288285Y-59954438D01*
X148288285Y-59954438D02*
X148335904Y-60002057D01*
X148335904Y-60002057D02*
X148383523Y-60097295D01*
X148383523Y-60097295D02*
X148383523Y-60192533D01*
X148383523Y-60192533D02*
X148335904Y-60335390D01*
X148335904Y-60335390D02*
X147764476Y-60906819D01*
X147764476Y-60906819D02*
X148383523Y-60906819D01*
D11*
X127452836Y-64610704D02*
X128420455Y-64610704D01*
X127259312Y-64896419D02*
X127936646Y-63896419D01*
X127936646Y-63896419D02*
X128613979Y-64896419D01*
X129291312Y-64896419D02*
X129291312Y-63896419D01*
X129291312Y-63896419D02*
X130452455Y-64896419D01*
X130452455Y-64896419D02*
X130452455Y-63896419D01*
X131129788Y-63896419D02*
X132290931Y-63896419D01*
X131710360Y-64896419D02*
X131710360Y-63896419D01*
X132968264Y-64372609D02*
X133645597Y-64372609D01*
X133935883Y-64896419D02*
X132968264Y-64896419D01*
X132968264Y-64896419D02*
X132968264Y-63896419D01*
X132968264Y-63896419D02*
X133935883Y-63896419D01*
X134806740Y-64896419D02*
X134806740Y-63896419D01*
X134806740Y-63896419D02*
X135967883Y-64896419D01*
X135967883Y-64896419D02*
X135967883Y-63896419D01*
X136935502Y-64896419D02*
X136935502Y-63896419D01*
X136935502Y-63896419D02*
X138096645Y-64896419D01*
X138096645Y-64896419D02*
X138096645Y-63896419D01*
X138967502Y-64610704D02*
X139935121Y-64610704D01*
X138773978Y-64896419D02*
X139451312Y-63896419D01*
X139451312Y-63896419D02*
X140128645Y-64896419D01*
X129843884Y-112156419D02*
X129843884Y-112965942D01*
X129843884Y-112965942D02*
X129891503Y-113061180D01*
X129891503Y-113061180D02*
X129939122Y-113108800D01*
X129939122Y-113108800D02*
X130034360Y-113156419D01*
X130034360Y-113156419D02*
X130224836Y-113156419D01*
X130224836Y-113156419D02*
X130320074Y-113108800D01*
X130320074Y-113108800D02*
X130367693Y-113061180D01*
X130367693Y-113061180D02*
X130415312Y-112965942D01*
X130415312Y-112965942D02*
X130415312Y-112156419D01*
X130843884Y-113108800D02*
X130986741Y-113156419D01*
X130986741Y-113156419D02*
X131224836Y-113156419D01*
X131224836Y-113156419D02*
X131320074Y-113108800D01*
X131320074Y-113108800D02*
X131367693Y-113061180D01*
X131367693Y-113061180D02*
X131415312Y-112965942D01*
X131415312Y-112965942D02*
X131415312Y-112870704D01*
X131415312Y-112870704D02*
X131367693Y-112775466D01*
X131367693Y-112775466D02*
X131320074Y-112727847D01*
X131320074Y-112727847D02*
X131224836Y-112680228D01*
X131224836Y-112680228D02*
X131034360Y-112632609D01*
X131034360Y-112632609D02*
X130939122Y-112584990D01*
X130939122Y-112584990D02*
X130891503Y-112537371D01*
X130891503Y-112537371D02*
X130843884Y-112442133D01*
X130843884Y-112442133D02*
X130843884Y-112346895D01*
X130843884Y-112346895D02*
X130891503Y-112251657D01*
X130891503Y-112251657D02*
X130939122Y-112204038D01*
X130939122Y-112204038D02*
X131034360Y-112156419D01*
X131034360Y-112156419D02*
X131272455Y-112156419D01*
X131272455Y-112156419D02*
X131415312Y-112204038D01*
X132177217Y-112632609D02*
X132320074Y-112680228D01*
X132320074Y-112680228D02*
X132367693Y-112727847D01*
X132367693Y-112727847D02*
X132415312Y-112823085D01*
X132415312Y-112823085D02*
X132415312Y-112965942D01*
X132415312Y-112965942D02*
X132367693Y-113061180D01*
X132367693Y-113061180D02*
X132320074Y-113108800D01*
X132320074Y-113108800D02*
X132224836Y-113156419D01*
X132224836Y-113156419D02*
X131843884Y-113156419D01*
X131843884Y-113156419D02*
X131843884Y-112156419D01*
X131843884Y-112156419D02*
X132177217Y-112156419D01*
X132177217Y-112156419D02*
X132272455Y-112204038D01*
X132272455Y-112204038D02*
X132320074Y-112251657D01*
X132320074Y-112251657D02*
X132367693Y-112346895D01*
X132367693Y-112346895D02*
X132367693Y-112442133D01*
X132367693Y-112442133D02*
X132320074Y-112537371D01*
X132320074Y-112537371D02*
X132272455Y-112584990D01*
X132272455Y-112584990D02*
X132177217Y-112632609D01*
X132177217Y-112632609D02*
X131843884Y-112632609D01*
X132843884Y-112775466D02*
X133605789Y-112775466D01*
X134653407Y-113061180D02*
X134605788Y-113108800D01*
X134605788Y-113108800D02*
X134462931Y-113156419D01*
X134462931Y-113156419D02*
X134367693Y-113156419D01*
X134367693Y-113156419D02*
X134224836Y-113108800D01*
X134224836Y-113108800D02*
X134129598Y-113013561D01*
X134129598Y-113013561D02*
X134081979Y-112918323D01*
X134081979Y-112918323D02*
X134034360Y-112727847D01*
X134034360Y-112727847D02*
X134034360Y-112584990D01*
X134034360Y-112584990D02*
X134081979Y-112394514D01*
X134081979Y-112394514D02*
X134129598Y-112299276D01*
X134129598Y-112299276D02*
X134224836Y-112204038D01*
X134224836Y-112204038D02*
X134367693Y-112156419D01*
X134367693Y-112156419D02*
X134462931Y-112156419D01*
X134462931Y-112156419D02*
X134605788Y-112204038D01*
X134605788Y-112204038D02*
X134653407Y-112251657D01*
D13*
X108187261Y-111434057D02*
X108092023Y-111386438D01*
X108092023Y-111386438D02*
X107996785Y-111291200D01*
X107996785Y-111291200D02*
X107853928Y-111148342D01*
X107853928Y-111148342D02*
X107758690Y-111100723D01*
X107758690Y-111100723D02*
X107663452Y-111100723D01*
X107711071Y-111338819D02*
X107615833Y-111291200D01*
X107615833Y-111291200D02*
X107520595Y-111195961D01*
X107520595Y-111195961D02*
X107472976Y-111005485D01*
X107472976Y-111005485D02*
X107472976Y-110672152D01*
X107472976Y-110672152D02*
X107520595Y-110481676D01*
X107520595Y-110481676D02*
X107615833Y-110386438D01*
X107615833Y-110386438D02*
X107711071Y-110338819D01*
X107711071Y-110338819D02*
X107901547Y-110338819D01*
X107901547Y-110338819D02*
X107996785Y-110386438D01*
X107996785Y-110386438D02*
X108092023Y-110481676D01*
X108092023Y-110481676D02*
X108139642Y-110672152D01*
X108139642Y-110672152D02*
X108139642Y-111005485D01*
X108139642Y-111005485D02*
X108092023Y-111195961D01*
X108092023Y-111195961D02*
X107996785Y-111291200D01*
X107996785Y-111291200D02*
X107901547Y-111338819D01*
X107901547Y-111338819D02*
X107711071Y-111338819D01*
X108996785Y-110672152D02*
X108996785Y-111338819D01*
X108758690Y-110291200D02*
X108520595Y-111005485D01*
X108520595Y-111005485D02*
X109139642Y-111005485D01*
X44341142Y-122373231D02*
X44849142Y-123897231D01*
X44849142Y-123897231D02*
X45357142Y-122373231D01*
X46155428Y-122373231D02*
X46445714Y-122373231D01*
X46445714Y-122373231D02*
X46590857Y-122445802D01*
X46590857Y-122445802D02*
X46736000Y-122590945D01*
X46736000Y-122590945D02*
X46808571Y-122881231D01*
X46808571Y-122881231D02*
X46808571Y-123389231D01*
X46808571Y-123389231D02*
X46736000Y-123679517D01*
X46736000Y-123679517D02*
X46590857Y-123824660D01*
X46590857Y-123824660D02*
X46445714Y-123897231D01*
X46445714Y-123897231D02*
X46155428Y-123897231D01*
X46155428Y-123897231D02*
X46010286Y-123824660D01*
X46010286Y-123824660D02*
X45865143Y-123679517D01*
X45865143Y-123679517D02*
X45792571Y-123389231D01*
X45792571Y-123389231D02*
X45792571Y-122881231D01*
X45792571Y-122881231D02*
X45865143Y-122590945D01*
X45865143Y-122590945D02*
X46010286Y-122445802D01*
X46010286Y-122445802D02*
X46155428Y-122373231D01*
X47461714Y-122373231D02*
X47461714Y-123606945D01*
X47461714Y-123606945D02*
X47534285Y-123752088D01*
X47534285Y-123752088D02*
X47606857Y-123824660D01*
X47606857Y-123824660D02*
X47751999Y-123897231D01*
X47751999Y-123897231D02*
X48042285Y-123897231D01*
X48042285Y-123897231D02*
X48187428Y-123824660D01*
X48187428Y-123824660D02*
X48259999Y-123752088D01*
X48259999Y-123752088D02*
X48332571Y-123606945D01*
X48332571Y-123606945D02*
X48332571Y-122373231D01*
X48840570Y-122373231D02*
X49711428Y-122373231D01*
X49275999Y-123897231D02*
X49275999Y-122373231D01*
X50219428Y-123316660D02*
X51380571Y-123316660D01*
X52759428Y-122881231D02*
X52759428Y-123897231D01*
X52396570Y-122300660D02*
X52033713Y-123389231D01*
X52033713Y-123389231D02*
X52977142Y-123389231D01*
X53775428Y-123026374D02*
X53630285Y-122953802D01*
X53630285Y-122953802D02*
X53557714Y-122881231D01*
X53557714Y-122881231D02*
X53485142Y-122736088D01*
X53485142Y-122736088D02*
X53485142Y-122663517D01*
X53485142Y-122663517D02*
X53557714Y-122518374D01*
X53557714Y-122518374D02*
X53630285Y-122445802D01*
X53630285Y-122445802D02*
X53775428Y-122373231D01*
X53775428Y-122373231D02*
X54065714Y-122373231D01*
X54065714Y-122373231D02*
X54210857Y-122445802D01*
X54210857Y-122445802D02*
X54283428Y-122518374D01*
X54283428Y-122518374D02*
X54355999Y-122663517D01*
X54355999Y-122663517D02*
X54355999Y-122736088D01*
X54355999Y-122736088D02*
X54283428Y-122881231D01*
X54283428Y-122881231D02*
X54210857Y-122953802D01*
X54210857Y-122953802D02*
X54065714Y-123026374D01*
X54065714Y-123026374D02*
X53775428Y-123026374D01*
X53775428Y-123026374D02*
X53630285Y-123098945D01*
X53630285Y-123098945D02*
X53557714Y-123171517D01*
X53557714Y-123171517D02*
X53485142Y-123316660D01*
X53485142Y-123316660D02*
X53485142Y-123606945D01*
X53485142Y-123606945D02*
X53557714Y-123752088D01*
X53557714Y-123752088D02*
X53630285Y-123824660D01*
X53630285Y-123824660D02*
X53775428Y-123897231D01*
X53775428Y-123897231D02*
X54065714Y-123897231D01*
X54065714Y-123897231D02*
X54210857Y-123824660D01*
X54210857Y-123824660D02*
X54283428Y-123752088D01*
X54283428Y-123752088D02*
X54355999Y-123606945D01*
X54355999Y-123606945D02*
X54355999Y-123316660D01*
X54355999Y-123316660D02*
X54283428Y-123171517D01*
X54283428Y-123171517D02*
X54210857Y-123098945D01*
X54210857Y-123098945D02*
X54065714Y-123026374D01*
X54791428Y-122373231D02*
X55299428Y-123897231D01*
X55299428Y-123897231D02*
X55807428Y-122373231D01*
X56170286Y-122373231D02*
X57113714Y-122373231D01*
X57113714Y-122373231D02*
X56605714Y-122953802D01*
X56605714Y-122953802D02*
X56823429Y-122953802D01*
X56823429Y-122953802D02*
X56968572Y-123026374D01*
X56968572Y-123026374D02*
X57041143Y-123098945D01*
X57041143Y-123098945D02*
X57113714Y-123244088D01*
X57113714Y-123244088D02*
X57113714Y-123606945D01*
X57113714Y-123606945D02*
X57041143Y-123752088D01*
X57041143Y-123752088D02*
X56968572Y-123824660D01*
X56968572Y-123824660D02*
X56823429Y-123897231D01*
X56823429Y-123897231D02*
X56388000Y-123897231D01*
X56388000Y-123897231D02*
X56242857Y-123824660D01*
X56242857Y-123824660D02*
X56170286Y-123752088D01*
X100714819Y-121134094D02*
X99714819Y-121134094D01*
X99714819Y-121134094D02*
X99714819Y-120895999D01*
X99714819Y-120895999D02*
X99762438Y-120753142D01*
X99762438Y-120753142D02*
X99857676Y-120657904D01*
X99857676Y-120657904D02*
X99952914Y-120610285D01*
X99952914Y-120610285D02*
X100143390Y-120562666D01*
X100143390Y-120562666D02*
X100286247Y-120562666D01*
X100286247Y-120562666D02*
X100476723Y-120610285D01*
X100476723Y-120610285D02*
X100571961Y-120657904D01*
X100571961Y-120657904D02*
X100667200Y-120753142D01*
X100667200Y-120753142D02*
X100714819Y-120895999D01*
X100714819Y-120895999D02*
X100714819Y-121134094D01*
X99714819Y-120229332D02*
X99714819Y-119610285D01*
X99714819Y-119610285D02*
X100095771Y-119943618D01*
X100095771Y-119943618D02*
X100095771Y-119800761D01*
X100095771Y-119800761D02*
X100143390Y-119705523D01*
X100143390Y-119705523D02*
X100191009Y-119657904D01*
X100191009Y-119657904D02*
X100286247Y-119610285D01*
X100286247Y-119610285D02*
X100524342Y-119610285D01*
X100524342Y-119610285D02*
X100619580Y-119657904D01*
X100619580Y-119657904D02*
X100667200Y-119705523D01*
X100667200Y-119705523D02*
X100714819Y-119800761D01*
X100714819Y-119800761D02*
X100714819Y-120086475D01*
X100714819Y-120086475D02*
X100667200Y-120181713D01*
X100667200Y-120181713D02*
X100619580Y-120229332D01*
X100344819Y-115577904D02*
X99344819Y-115577904D01*
X100344819Y-115006476D02*
X99773390Y-115435047D01*
X99344819Y-115006476D02*
X99916247Y-115577904D01*
X75525333Y-77544819D02*
X75192000Y-77068628D01*
X74953905Y-77544819D02*
X74953905Y-76544819D01*
X74953905Y-76544819D02*
X75334857Y-76544819D01*
X75334857Y-76544819D02*
X75430095Y-76592438D01*
X75430095Y-76592438D02*
X75477714Y-76640057D01*
X75477714Y-76640057D02*
X75525333Y-76735295D01*
X75525333Y-76735295D02*
X75525333Y-76878152D01*
X75525333Y-76878152D02*
X75477714Y-76973390D01*
X75477714Y-76973390D02*
X75430095Y-77021009D01*
X75430095Y-77021009D02*
X75334857Y-77068628D01*
X75334857Y-77068628D02*
X74953905Y-77068628D01*
X76477714Y-77544819D02*
X75906286Y-77544819D01*
X76192000Y-77544819D02*
X76192000Y-76544819D01*
X76192000Y-76544819D02*
X76096762Y-76687676D01*
X76096762Y-76687676D02*
X76001524Y-76782914D01*
X76001524Y-76782914D02*
X75906286Y-76830533D01*
X59327142Y-61413231D02*
X59835142Y-62937231D01*
X59835142Y-62937231D02*
X60343142Y-61413231D01*
X60851143Y-62937231D02*
X60851143Y-61413231D01*
X61576857Y-62937231D02*
X61576857Y-61413231D01*
X61576857Y-61413231D02*
X62447714Y-62937231D01*
X62447714Y-62937231D02*
X62447714Y-61413231D01*
X63173428Y-62356660D02*
X64334571Y-62356660D01*
X63753999Y-62937231D02*
X63753999Y-61776088D01*
X65713428Y-61921231D02*
X65713428Y-62937231D01*
X65350570Y-61340660D02*
X64987713Y-62429231D01*
X64987713Y-62429231D02*
X65931142Y-62429231D01*
X66729428Y-62066374D02*
X66584285Y-61993802D01*
X66584285Y-61993802D02*
X66511714Y-61921231D01*
X66511714Y-61921231D02*
X66439142Y-61776088D01*
X66439142Y-61776088D02*
X66439142Y-61703517D01*
X66439142Y-61703517D02*
X66511714Y-61558374D01*
X66511714Y-61558374D02*
X66584285Y-61485802D01*
X66584285Y-61485802D02*
X66729428Y-61413231D01*
X66729428Y-61413231D02*
X67019714Y-61413231D01*
X67019714Y-61413231D02*
X67164857Y-61485802D01*
X67164857Y-61485802D02*
X67237428Y-61558374D01*
X67237428Y-61558374D02*
X67309999Y-61703517D01*
X67309999Y-61703517D02*
X67309999Y-61776088D01*
X67309999Y-61776088D02*
X67237428Y-61921231D01*
X67237428Y-61921231D02*
X67164857Y-61993802D01*
X67164857Y-61993802D02*
X67019714Y-62066374D01*
X67019714Y-62066374D02*
X66729428Y-62066374D01*
X66729428Y-62066374D02*
X66584285Y-62138945D01*
X66584285Y-62138945D02*
X66511714Y-62211517D01*
X66511714Y-62211517D02*
X66439142Y-62356660D01*
X66439142Y-62356660D02*
X66439142Y-62646945D01*
X66439142Y-62646945D02*
X66511714Y-62792088D01*
X66511714Y-62792088D02*
X66584285Y-62864660D01*
X66584285Y-62864660D02*
X66729428Y-62937231D01*
X66729428Y-62937231D02*
X67019714Y-62937231D01*
X67019714Y-62937231D02*
X67164857Y-62864660D01*
X67164857Y-62864660D02*
X67237428Y-62792088D01*
X67237428Y-62792088D02*
X67309999Y-62646945D01*
X67309999Y-62646945D02*
X67309999Y-62356660D01*
X67309999Y-62356660D02*
X67237428Y-62211517D01*
X67237428Y-62211517D02*
X67164857Y-62138945D01*
X67164857Y-62138945D02*
X67019714Y-62066374D01*
X67745428Y-61413231D02*
X68253428Y-62937231D01*
X68253428Y-62937231D02*
X68761428Y-61413231D01*
X70067714Y-62937231D02*
X69196857Y-62937231D01*
X69632286Y-62937231D02*
X69632286Y-61413231D01*
X69632286Y-61413231D02*
X69487143Y-61630945D01*
X69487143Y-61630945D02*
X69342000Y-61776088D01*
X69342000Y-61776088D02*
X69196857Y-61848660D01*
X166294819Y-78073333D02*
X167009104Y-78073333D01*
X167009104Y-78073333D02*
X167151961Y-78120952D01*
X167151961Y-78120952D02*
X167247200Y-78216190D01*
X167247200Y-78216190D02*
X167294819Y-78359047D01*
X167294819Y-78359047D02*
X167294819Y-78454285D01*
X166294819Y-77692380D02*
X166294819Y-77073333D01*
X166294819Y-77073333D02*
X166675771Y-77406666D01*
X166675771Y-77406666D02*
X166675771Y-77263809D01*
X166675771Y-77263809D02*
X166723390Y-77168571D01*
X166723390Y-77168571D02*
X166771009Y-77120952D01*
X166771009Y-77120952D02*
X166866247Y-77073333D01*
X166866247Y-77073333D02*
X167104342Y-77073333D01*
X167104342Y-77073333D02*
X167199580Y-77120952D01*
X167199580Y-77120952D02*
X167247200Y-77168571D01*
X167247200Y-77168571D02*
X167294819Y-77263809D01*
X167294819Y-77263809D02*
X167294819Y-77549523D01*
X167294819Y-77549523D02*
X167247200Y-77644761D01*
X167247200Y-77644761D02*
X167199580Y-77692380D01*
X74962905Y-81608819D02*
X74962905Y-80608819D01*
X74962905Y-80608819D02*
X75201000Y-80608819D01*
X75201000Y-80608819D02*
X75343857Y-80656438D01*
X75343857Y-80656438D02*
X75439095Y-80751676D01*
X75439095Y-80751676D02*
X75486714Y-80846914D01*
X75486714Y-80846914D02*
X75534333Y-81037390D01*
X75534333Y-81037390D02*
X75534333Y-81180247D01*
X75534333Y-81180247D02*
X75486714Y-81370723D01*
X75486714Y-81370723D02*
X75439095Y-81465961D01*
X75439095Y-81465961D02*
X75343857Y-81561200D01*
X75343857Y-81561200D02*
X75201000Y-81608819D01*
X75201000Y-81608819D02*
X74962905Y-81608819D01*
X76486714Y-81608819D02*
X75915286Y-81608819D01*
X76201000Y-81608819D02*
X76201000Y-80608819D01*
X76201000Y-80608819D02*
X76105762Y-80751676D01*
X76105762Y-80751676D02*
X76010524Y-80846914D01*
X76010524Y-80846914D02*
X75915286Y-80894533D01*
D11*
X46990095Y-83531419D02*
X46990095Y-84340942D01*
X46990095Y-84340942D02*
X47037714Y-84436180D01*
X47037714Y-84436180D02*
X47085333Y-84483800D01*
X47085333Y-84483800D02*
X47180571Y-84531419D01*
X47180571Y-84531419D02*
X47371047Y-84531419D01*
X47371047Y-84531419D02*
X47466285Y-84483800D01*
X47466285Y-84483800D02*
X47513904Y-84436180D01*
X47513904Y-84436180D02*
X47561523Y-84340942D01*
X47561523Y-84340942D02*
X47561523Y-83531419D01*
X48466285Y-83864752D02*
X48466285Y-84531419D01*
X48228190Y-83483800D02*
X47990095Y-84198085D01*
X47990095Y-84198085D02*
X48609142Y-84198085D01*
D13*
X86851261Y-82084057D02*
X86756023Y-82036438D01*
X86756023Y-82036438D02*
X86660785Y-81941200D01*
X86660785Y-81941200D02*
X86517928Y-81798342D01*
X86517928Y-81798342D02*
X86422690Y-81750723D01*
X86422690Y-81750723D02*
X86327452Y-81750723D01*
X86375071Y-81988819D02*
X86279833Y-81941200D01*
X86279833Y-81941200D02*
X86184595Y-81845961D01*
X86184595Y-81845961D02*
X86136976Y-81655485D01*
X86136976Y-81655485D02*
X86136976Y-81322152D01*
X86136976Y-81322152D02*
X86184595Y-81131676D01*
X86184595Y-81131676D02*
X86279833Y-81036438D01*
X86279833Y-81036438D02*
X86375071Y-80988819D01*
X86375071Y-80988819D02*
X86565547Y-80988819D01*
X86565547Y-80988819D02*
X86660785Y-81036438D01*
X86660785Y-81036438D02*
X86756023Y-81131676D01*
X86756023Y-81131676D02*
X86803642Y-81322152D01*
X86803642Y-81322152D02*
X86803642Y-81655485D01*
X86803642Y-81655485D02*
X86756023Y-81845961D01*
X86756023Y-81845961D02*
X86660785Y-81941200D01*
X86660785Y-81941200D02*
X86565547Y-81988819D01*
X86565547Y-81988819D02*
X86375071Y-81988819D01*
X87136976Y-80988819D02*
X87756023Y-80988819D01*
X87756023Y-80988819D02*
X87422690Y-81369771D01*
X87422690Y-81369771D02*
X87565547Y-81369771D01*
X87565547Y-81369771D02*
X87660785Y-81417390D01*
X87660785Y-81417390D02*
X87708404Y-81465009D01*
X87708404Y-81465009D02*
X87756023Y-81560247D01*
X87756023Y-81560247D02*
X87756023Y-81798342D01*
X87756023Y-81798342D02*
X87708404Y-81893580D01*
X87708404Y-81893580D02*
X87660785Y-81941200D01*
X87660785Y-81941200D02*
X87565547Y-81988819D01*
X87565547Y-81988819D02*
X87279833Y-81988819D01*
X87279833Y-81988819D02*
X87184595Y-81941200D01*
X87184595Y-81941200D02*
X87136976Y-81893580D01*
X38608095Y-123136819D02*
X38608095Y-122136819D01*
X38608095Y-122613009D02*
X39179523Y-122613009D01*
X39179523Y-123136819D02*
X39179523Y-122136819D01*
X39608095Y-122232057D02*
X39655714Y-122184438D01*
X39655714Y-122184438D02*
X39750952Y-122136819D01*
X39750952Y-122136819D02*
X39989047Y-122136819D01*
X39989047Y-122136819D02*
X40084285Y-122184438D01*
X40084285Y-122184438D02*
X40131904Y-122232057D01*
X40131904Y-122232057D02*
X40179523Y-122327295D01*
X40179523Y-122327295D02*
X40179523Y-122422533D01*
X40179523Y-122422533D02*
X40131904Y-122565390D01*
X40131904Y-122565390D02*
X39560476Y-123136819D01*
X39560476Y-123136819D02*
X40179523Y-123136819D01*
X114474666Y-124930819D02*
X114474666Y-125645104D01*
X114474666Y-125645104D02*
X114427047Y-125787961D01*
X114427047Y-125787961D02*
X114331809Y-125883200D01*
X114331809Y-125883200D02*
X114188952Y-125930819D01*
X114188952Y-125930819D02*
X114093714Y-125930819D01*
X114903238Y-125026057D02*
X114950857Y-124978438D01*
X114950857Y-124978438D02*
X115046095Y-124930819D01*
X115046095Y-124930819D02*
X115284190Y-124930819D01*
X115284190Y-124930819D02*
X115379428Y-124978438D01*
X115379428Y-124978438D02*
X115427047Y-125026057D01*
X115427047Y-125026057D02*
X115474666Y-125121295D01*
X115474666Y-125121295D02*
X115474666Y-125216533D01*
X115474666Y-125216533D02*
X115427047Y-125359390D01*
X115427047Y-125359390D02*
X114855619Y-125930819D01*
X114855619Y-125930819D02*
X115474666Y-125930819D01*
X86767200Y-74484951D02*
X86814819Y-74342094D01*
X86814819Y-74342094D02*
X86814819Y-74103999D01*
X86814819Y-74103999D02*
X86767200Y-74008761D01*
X86767200Y-74008761D02*
X86719580Y-73961142D01*
X86719580Y-73961142D02*
X86624342Y-73913523D01*
X86624342Y-73913523D02*
X86529104Y-73913523D01*
X86529104Y-73913523D02*
X86433866Y-73961142D01*
X86433866Y-73961142D02*
X86386247Y-74008761D01*
X86386247Y-74008761D02*
X86338628Y-74103999D01*
X86338628Y-74103999D02*
X86291009Y-74294475D01*
X86291009Y-74294475D02*
X86243390Y-74389713D01*
X86243390Y-74389713D02*
X86195771Y-74437332D01*
X86195771Y-74437332D02*
X86100533Y-74484951D01*
X86100533Y-74484951D02*
X86005295Y-74484951D01*
X86005295Y-74484951D02*
X85910057Y-74437332D01*
X85910057Y-74437332D02*
X85862438Y-74389713D01*
X85862438Y-74389713D02*
X85814819Y-74294475D01*
X85814819Y-74294475D02*
X85814819Y-74056380D01*
X85814819Y-74056380D02*
X85862438Y-73913523D01*
X86814819Y-73484951D02*
X85814819Y-73484951D01*
X85814819Y-73484951D02*
X86529104Y-73151618D01*
X86529104Y-73151618D02*
X85814819Y-72818285D01*
X85814819Y-72818285D02*
X86814819Y-72818285D01*
X86814819Y-72342094D02*
X85814819Y-72342094D01*
X85814819Y-72342094D02*
X85814819Y-71961142D01*
X85814819Y-71961142D02*
X85862438Y-71865904D01*
X85862438Y-71865904D02*
X85910057Y-71818285D01*
X85910057Y-71818285D02*
X86005295Y-71770666D01*
X86005295Y-71770666D02*
X86148152Y-71770666D01*
X86148152Y-71770666D02*
X86243390Y-71818285D01*
X86243390Y-71818285D02*
X86291009Y-71865904D01*
X86291009Y-71865904D02*
X86338628Y-71961142D01*
X86338628Y-71961142D02*
X86338628Y-72342094D01*
X86767200Y-71389713D02*
X86814819Y-71246856D01*
X86814819Y-71246856D02*
X86814819Y-71008761D01*
X86814819Y-71008761D02*
X86767200Y-70913523D01*
X86767200Y-70913523D02*
X86719580Y-70865904D01*
X86719580Y-70865904D02*
X86624342Y-70818285D01*
X86624342Y-70818285D02*
X86529104Y-70818285D01*
X86529104Y-70818285D02*
X86433866Y-70865904D01*
X86433866Y-70865904D02*
X86386247Y-70913523D01*
X86386247Y-70913523D02*
X86338628Y-71008761D01*
X86338628Y-71008761D02*
X86291009Y-71199237D01*
X86291009Y-71199237D02*
X86243390Y-71294475D01*
X86243390Y-71294475D02*
X86195771Y-71342094D01*
X86195771Y-71342094D02*
X86100533Y-71389713D01*
X86100533Y-71389713D02*
X86005295Y-71389713D01*
X86005295Y-71389713D02*
X85910057Y-71342094D01*
X85910057Y-71342094D02*
X85862438Y-71294475D01*
X85862438Y-71294475D02*
X85814819Y-71199237D01*
X85814819Y-71199237D02*
X85814819Y-70961142D01*
X85814819Y-70961142D02*
X85862438Y-70818285D01*
X86910057Y-70627809D02*
X86910057Y-69865904D01*
X85814819Y-69770665D02*
X86814819Y-69437332D01*
X86814819Y-69437332D02*
X85814819Y-69103999D01*
X86814819Y-68770665D02*
X85814819Y-68770665D01*
X86814819Y-68294475D02*
X85814819Y-68294475D01*
X85814819Y-68294475D02*
X86814819Y-67723047D01*
X86814819Y-67723047D02*
X85814819Y-67723047D01*
X86814819Y-67246856D02*
X85814819Y-67246856D01*
X85814819Y-67246856D02*
X85814819Y-66865904D01*
X85814819Y-66865904D02*
X85862438Y-66770666D01*
X85862438Y-66770666D02*
X85910057Y-66723047D01*
X85910057Y-66723047D02*
X86005295Y-66675428D01*
X86005295Y-66675428D02*
X86148152Y-66675428D01*
X86148152Y-66675428D02*
X86243390Y-66723047D01*
X86243390Y-66723047D02*
X86291009Y-66770666D01*
X86291009Y-66770666D02*
X86338628Y-66865904D01*
X86338628Y-66865904D02*
X86338628Y-67246856D01*
X86814819Y-65723047D02*
X86814819Y-66294475D01*
X86814819Y-66008761D02*
X85814819Y-66008761D01*
X85814819Y-66008761D02*
X85957676Y-66103999D01*
X85957676Y-66103999D02*
X86052914Y-66199237D01*
X86052914Y-66199237D02*
X86100533Y-66294475D01*
D14*
%TO.C,R2*%
X81507064Y-78005000D02*
X81052936Y-78005000D01*
X81507064Y-79475000D02*
X81052936Y-79475000D01*
%TO.C,U5*%
X71244000Y-87968000D02*
X71244000Y-103548000D01*
X71244000Y-103548000D02*
X74044000Y-103548000D01*
X74044000Y-87968000D02*
X71244000Y-87968000D01*
X74044000Y-90678000D02*
X71244000Y-90678000D01*
X74044000Y-103548000D02*
X74044000Y-87968000D01*
%TO.C,D4*%
X100532000Y-112684000D02*
X100532000Y-113884000D01*
X102492000Y-112684000D02*
X100532000Y-112684000D01*
X102492000Y-113884000D02*
X100532000Y-113884000D01*
%TO.C,R3*%
X90705000Y-78512936D02*
X90705000Y-78967064D01*
X92175000Y-78512936D02*
X92175000Y-78967064D01*
%TO.C,C1*%
X149350000Y-84474267D02*
X149350000Y-84181733D01*
X150370000Y-84474267D02*
X150370000Y-84181733D01*
%TO.C,R8*%
X150632936Y-87657000D02*
X151087064Y-87657000D01*
X150632936Y-89127000D02*
X151087064Y-89127000D01*
%TO.C,C3*%
X149350000Y-102623233D02*
X149350000Y-102915767D01*
X150370000Y-102623233D02*
X150370000Y-102915767D01*
%TO.C,R6*%
X155221000Y-93736936D02*
X155221000Y-94191064D01*
X156691000Y-93736936D02*
X156691000Y-94191064D01*
%TO.C,R7*%
X155221000Y-89635064D02*
X155221000Y-89180936D01*
X156691000Y-89635064D02*
X156691000Y-89180936D01*
%TO.C,C2*%
X150883233Y-90930000D02*
X151175767Y-90930000D01*
X150883233Y-91950000D02*
X151175767Y-91950000D01*
%TO.C,R10*%
X155221000Y-98795064D02*
X155221000Y-98340936D01*
X156691000Y-98795064D02*
X156691000Y-98340936D01*
%TO.C,Q1*%
X53118000Y-90130000D02*
X57759000Y-90130000D01*
X53118000Y-93399000D02*
X54628000Y-93399000D01*
X53118000Y-97100000D02*
X54628000Y-97100000D01*
X53118000Y-100370000D02*
X53118000Y-90130000D01*
X53118000Y-100370000D02*
X57759000Y-100370000D01*
X54628000Y-100370000D02*
X54628000Y-90130000D01*
X57759000Y-100370000D02*
X57759000Y-90130000D01*
%TO.C,D2*%
X101400000Y-76020000D02*
X101400000Y-81460000D01*
X101400000Y-80440000D02*
X104340000Y-80440000D01*
X101400000Y-80560000D02*
X104340000Y-80560000D01*
X101400000Y-80680000D02*
X104340000Y-80680000D01*
X101400000Y-81460000D02*
X104340000Y-81460000D01*
X102870000Y-75000000D02*
X102870000Y-76020000D01*
X102870000Y-82480000D02*
X102870000Y-81460000D01*
X104340000Y-76020000D02*
X101400000Y-76020000D01*
X104340000Y-81460000D02*
X104340000Y-76020000D01*
%TO.C,U1*%
X82552000Y-91060000D02*
X82552000Y-107059999D01*
X82552000Y-107059999D02*
X114552000Y-107060000D01*
X93218667Y-91060000D02*
X82552000Y-91060000D01*
X93218667Y-91420000D02*
X93218667Y-91060000D01*
X103885333Y-91060000D02*
X103885333Y-91420000D01*
X103885333Y-91420000D02*
X93218667Y-91420000D01*
X114552000Y-91060001D02*
X103885333Y-91060000D01*
X114552000Y-107060000D02*
X114552000Y-91060001D01*
%TO.C,Q2*%
X45873000Y-90130000D02*
X45873000Y-100370000D01*
X49004000Y-90130000D02*
X49004000Y-100370000D01*
X50514000Y-90130000D02*
X45873000Y-90130000D01*
X50514000Y-90130000D02*
X50514000Y-100370000D01*
X50514000Y-93400000D02*
X49004000Y-93400000D01*
X50514000Y-97101000D02*
X49004000Y-97101000D01*
X50514000Y-100370000D02*
X45873000Y-100370000D01*
%TO.C,R11*%
X150632936Y-97817000D02*
X151087064Y-97817000D01*
X150632936Y-99287000D02*
X151087064Y-99287000D01*
%TO.C,J1*%
X83710000Y-120610000D02*
X83710000Y-130030000D01*
X83710000Y-120610000D02*
X85310000Y-120610000D01*
X83710000Y-126720000D02*
X94090000Y-126720000D01*
X83710000Y-130030000D02*
X94090000Y-130030000D01*
X86060000Y-119320000D02*
X86660000Y-119320000D01*
X86360000Y-119920000D02*
X86060000Y-119320000D01*
X86660000Y-119320000D02*
X86360000Y-119920000D01*
X87410000Y-120610000D02*
X90390000Y-120610000D01*
X94090000Y-120610000D02*
X92490000Y-120610000D01*
X94090000Y-130030000D02*
X94090000Y-120610000D01*
%TO.C,R4*%
X155221000Y-77480936D02*
X155221000Y-77935064D01*
X156691000Y-77480936D02*
X156691000Y-77935064D01*
%TO.C,U3*%
X159128000Y-105748000D02*
X159128000Y-121328000D01*
X159128000Y-121328000D02*
X161928000Y-121328000D01*
X161928000Y-105748000D02*
X159128000Y-105748000D01*
X161928000Y-108458000D02*
X159128000Y-108458000D01*
X161928000Y-121328000D02*
X161928000Y-105748000D01*
%TO.C,R9*%
X150632936Y-93245000D02*
X151087064Y-93245000D01*
X150632936Y-94715000D02*
X151087064Y-94715000D01*
%TO.C,R5*%
X155221000Y-82539064D02*
X155221000Y-82084936D01*
X156691000Y-82539064D02*
X156691000Y-82084936D01*
%TO.C,J4*%
X159780000Y-87650000D02*
X159780000Y-102770000D01*
X159780000Y-102770000D02*
X165750000Y-102770000D01*
X160540000Y-88410000D02*
X160540000Y-95210000D01*
X160540000Y-102010000D02*
X160540000Y-95210000D01*
X163490000Y-87660000D02*
X163490000Y-88410000D01*
X163490000Y-88410000D02*
X160540000Y-88410000D01*
X163490000Y-102010000D02*
X160540000Y-102010000D01*
X163490000Y-102760000D02*
X163490000Y-102010000D01*
X164990000Y-87660000D02*
X164990000Y-89460000D01*
X164990000Y-89460000D02*
X165740000Y-89460000D01*
X164990000Y-90960000D02*
X164990000Y-99460000D01*
X164990000Y-99460000D02*
X165740000Y-99460000D01*
X164990000Y-100960000D02*
X164990000Y-102760000D01*
X164990000Y-102760000D02*
X165740000Y-102760000D01*
X165740000Y-87660000D02*
X164990000Y-87660000D01*
X165740000Y-89460000D02*
X165740000Y-87660000D01*
X165740000Y-90960000D02*
X164990000Y-90960000D01*
X165740000Y-99460000D02*
X165740000Y-90960000D01*
X165740000Y-100960000D02*
X164990000Y-100960000D01*
X165740000Y-102760000D02*
X165740000Y-100960000D01*
X165750000Y-87650000D02*
X159780000Y-87650000D01*
X165750000Y-102770000D02*
X165750000Y-87650000D01*
X166040000Y-87360000D02*
X164790000Y-87360000D01*
X166040000Y-88610000D02*
X166040000Y-87360000D01*
%TO.C,U2*%
X117880000Y-116264000D02*
X146279999Y-116264000D01*
X117880001Y-59504000D02*
X117880000Y-116264000D01*
X127346667Y-59504000D02*
X117880001Y-59504000D01*
X127346667Y-59864000D02*
X127346667Y-59504000D01*
X136813333Y-59504000D02*
X136813333Y-59864000D01*
X136813333Y-59864000D02*
X127346667Y-59864000D01*
X146279999Y-116264000D02*
X146280000Y-59504000D01*
X146280000Y-59504000D02*
X136813333Y-59504000D01*
D11*
X137160000Y-108204000D02*
X127000000Y-108204000D01*
X127000000Y-115824000D01*
X137160000Y-115824000D01*
X137160000Y-108204000D01*
D14*
%TO.C,Q4*%
X108282500Y-111724000D02*
X107632500Y-111724000D01*
X108282500Y-111724000D02*
X108932500Y-111724000D01*
X108282500Y-114844000D02*
X107632500Y-114844000D01*
X108282500Y-114844000D02*
X108932500Y-114844000D01*
X107120000Y-111774000D02*
X106880000Y-111444000D01*
X107360000Y-111444000D01*
X107120000Y-111774000D01*
G36*
X107120000Y-111774000D02*
G01*
X106880000Y-111444000D01*
X107360000Y-111444000D01*
X107120000Y-111774000D01*
G37*
%TO.C,D3*%
X96320000Y-117676000D02*
X96320000Y-123116000D01*
X96320000Y-123116000D02*
X99260000Y-123116000D01*
X97790000Y-116656000D02*
X97790000Y-117676000D01*
X97790000Y-124136000D02*
X97790000Y-123116000D01*
X99260000Y-117676000D02*
X96320000Y-117676000D01*
X99260000Y-118456000D02*
X96320000Y-118456000D01*
X99260000Y-118576000D02*
X96320000Y-118576000D01*
X99260000Y-118696000D02*
X96320000Y-118696000D01*
X99260000Y-123116000D02*
X99260000Y-117676000D01*
%TO.C,R1*%
X75464936Y-78005000D02*
X75919064Y-78005000D01*
X75464936Y-79475000D02*
X75919064Y-79475000D01*
%TO.C,J3*%
X159780000Y-71430000D02*
X159780000Y-84050000D01*
X159780000Y-84050000D02*
X165750000Y-84050000D01*
X160540000Y-77740000D02*
X160540000Y-73250000D01*
X160540000Y-83290000D02*
X160540000Y-77740000D01*
X163490000Y-71440000D02*
X163490000Y-72190000D01*
X163490000Y-72190000D02*
X162150000Y-72190000D01*
X163490000Y-83290000D02*
X160540000Y-83290000D01*
X163490000Y-84040000D02*
X163490000Y-83290000D01*
X164990000Y-71440000D02*
X164990000Y-73240000D01*
X164990000Y-73240000D02*
X165740000Y-73240000D01*
X164990000Y-74740000D02*
X164990000Y-80740000D01*
X164990000Y-80740000D02*
X165740000Y-80740000D01*
X164990000Y-82240000D02*
X164990000Y-84040000D01*
X164990000Y-84040000D02*
X165740000Y-84040000D01*
X165740000Y-71440000D02*
X164990000Y-71440000D01*
X165740000Y-73240000D02*
X165740000Y-71440000D01*
X165740000Y-74740000D02*
X164990000Y-74740000D01*
X165740000Y-80740000D02*
X165740000Y-74740000D01*
X165740000Y-82240000D02*
X164990000Y-82240000D01*
X165740000Y-84040000D02*
X165740000Y-82240000D01*
X165750000Y-71430000D02*
X159780000Y-71430000D01*
X165750000Y-84050000D02*
X165750000Y-71430000D01*
X166040000Y-71140000D02*
X164790000Y-71140000D01*
X166040000Y-72390000D02*
X166040000Y-71140000D01*
%TO.C,D1*%
X73841000Y-81844000D02*
X73841000Y-83764000D01*
X73841000Y-83764000D02*
X76701000Y-83764000D01*
X76701000Y-81844000D02*
X73841000Y-81844000D01*
%TO.C,U4*%
D11*
X34036000Y-73406000D02*
X69596000Y-73406000D01*
X69596000Y-116586000D01*
X34036000Y-116586000D01*
X34036000Y-73406000D01*
D14*
%TO.C,Q3*%
X86946500Y-77114000D02*
X86296500Y-77114000D01*
X86946500Y-77114000D02*
X87596500Y-77114000D01*
X86946500Y-80234000D02*
X86296500Y-80234000D01*
X86946500Y-80234000D02*
X87596500Y-80234000D01*
X88349000Y-80514000D02*
X87869000Y-80514000D01*
X88109000Y-80184000D01*
X88349000Y-80514000D01*
G36*
X88349000Y-80514000D02*
G01*
X87869000Y-80514000D01*
X88109000Y-80184000D01*
X88349000Y-80514000D01*
G37*
%TO.C,J2*%
X102815000Y-120217500D02*
X102815000Y-129637500D01*
X102815000Y-120217500D02*
X104415000Y-120217500D01*
X102815000Y-126327500D02*
X113195000Y-126327500D01*
X102815000Y-129637500D02*
X113195000Y-129637500D01*
X105165000Y-118927500D02*
X105765000Y-118927500D01*
X105465000Y-119527500D02*
X105165000Y-118927500D01*
X105765000Y-118927500D02*
X105465000Y-119527500D01*
X106515000Y-120217500D02*
X109495000Y-120217500D01*
X113195000Y-120217500D02*
X111595000Y-120217500D01*
X113195000Y-129637500D02*
X113195000Y-120217500D01*
%TD*%
M02*
