%TF.GenerationSoftware,KiCad,Pcbnew,8.0.8+1*%
%TF.CreationDate,2025-02-28T11:29:15+11:00*%
%TF.ProjectId,mcharger_if,6d636861-7267-4657-925f-69662e6b6963,rev?*%
%TF.SameCoordinates,Original*%
%TF.FileFunction,Drillmap*%
%TF.FilePolarity,Positive*%
%FSLAX45Y45*%
G04 Gerber Fmt 4.5, Leading zero omitted, Abs format (unit mm)*
G04 Created by KiCad (PCBNEW 8.0.8+1) date 2025-02-28 11:29:15*
%MOMM*%
%LPD*%
G01*
G04 APERTURE LIST*
%ADD10C,0.050000*%
%ADD11C,0.200000*%
%ADD12C,0.100000*%
%ADD13C,0.110000*%
%ADD14C,0.120000*%
%ADD15C,0.127000*%
%ADD16C,0.220000*%
%ADD17C,0.304800*%
%ADD18C,0.320000*%
G04 APERTURE END LIST*
D10*
X3378200Y-5892800D02*
X16738600Y-5892800D01*
X16738600Y-13030200D01*
X3378200Y-13030200D01*
X3378200Y-5892800D01*
D11*
D12*
X9969500Y-8547100D02*
X10045700Y-8623300D01*
X10045700Y-8547100D02*
X9969500Y-8623300D01*
X10680700Y-8902700D02*
X10756900Y-8978900D01*
X10756900Y-8902700D02*
X10680700Y-8978900D01*
X10731500Y-10528300D02*
X10807700Y-10604500D01*
X10807700Y-10528300D02*
X10731500Y-10604500D01*
X11506200Y-11506200D02*
X11582400Y-11582400D01*
X11582400Y-11506200D02*
X11506200Y-11582400D01*
X12357100Y-10985500D02*
X12433300Y-11061700D01*
X12433300Y-10985500D02*
X12357100Y-11061700D01*
X12611100Y-9359900D02*
X12687300Y-9436100D01*
X12687300Y-9359900D02*
X12611100Y-9436100D01*
X13042900Y-10020300D02*
X13119100Y-10096500D01*
X13119100Y-10020300D02*
X13042900Y-10096500D01*
X13195300Y-11163300D02*
X13271500Y-11239500D01*
X13271500Y-11163300D02*
X13195300Y-11239500D01*
X13246100Y-9766300D02*
X13322300Y-9842500D01*
X13322300Y-9766300D02*
X13246100Y-9842500D01*
X13449300Y-11696700D02*
X13525500Y-11772900D01*
X13525500Y-11696700D02*
X13449300Y-11772900D01*
X13500100Y-9486900D02*
X13576300Y-9563100D01*
X13576300Y-9486900D02*
X13500100Y-9563100D01*
X13525500Y-8877300D02*
X13601700Y-8953500D01*
X13601700Y-8877300D02*
X13525500Y-8953500D01*
X13601700Y-7200900D02*
X13677900Y-7277100D01*
X13677900Y-7200900D02*
X13601700Y-7277100D01*
X13855700Y-11417300D02*
X13931900Y-11493500D01*
X13931900Y-11417300D02*
X13855700Y-11493500D01*
X13881100Y-9105900D02*
X13957300Y-9182100D01*
X13957300Y-9105900D02*
X13881100Y-9182100D01*
X15151100Y-10325100D02*
X15227300Y-10401300D01*
X15227300Y-10325100D02*
X15151100Y-10401300D01*
X15201900Y-7988300D02*
X15278100Y-8064500D01*
X15278100Y-7988300D02*
X15201900Y-8064500D01*
X15328900Y-9105900D02*
X15405100Y-9182100D01*
X15405100Y-9105900D02*
X15328900Y-9182100D01*
X15361600Y-8579800D02*
X15437800Y-8656000D01*
X15437800Y-8579800D02*
X15361600Y-8656000D01*
X15608300Y-8496300D02*
X15684500Y-8572500D01*
X15684500Y-8496300D02*
X15608300Y-8572500D01*
X15608300Y-9131300D02*
X15684500Y-9207500D01*
X15684500Y-9131300D02*
X15608300Y-9207500D01*
X15608300Y-10121900D02*
X15684500Y-10198100D01*
X15684500Y-10121900D02*
X15608300Y-10198100D01*
X15709900Y-7226300D02*
X15786100Y-7302500D01*
X15786100Y-7226300D02*
X15709900Y-7302500D01*
X16014700Y-8572500D02*
X16090900Y-8648700D01*
X16090900Y-8572500D02*
X16014700Y-8648700D01*
X7304400Y-8940800D02*
G75*
G02*
X7224400Y-8940800I-40000J0D01*
G01*
X7224400Y-8940800D02*
G75*
G02*
X7304400Y-8940800I40000J0D01*
G01*
X7304400Y-9194800D02*
G75*
G02*
X7224400Y-9194800I-40000J0D01*
G01*
X7224400Y-9194800D02*
G75*
G02*
X7304400Y-9194800I40000J0D01*
G01*
X7304400Y-9448800D02*
G75*
G02*
X7224400Y-9448800I-40000J0D01*
G01*
X7224400Y-9448800D02*
G75*
G02*
X7304400Y-9448800I40000J0D01*
G01*
X7304400Y-9702800D02*
G75*
G02*
X7224400Y-9702800I-40000J0D01*
G01*
X7224400Y-9702800D02*
G75*
G02*
X7304400Y-9702800I40000J0D01*
G01*
X7304400Y-9956800D02*
G75*
G02*
X7224400Y-9956800I-40000J0D01*
G01*
X7224400Y-9956800D02*
G75*
G02*
X7304400Y-9956800I40000J0D01*
G01*
X7304400Y-10210800D02*
G75*
G02*
X7224400Y-10210800I-40000J0D01*
G01*
X7224400Y-10210800D02*
G75*
G02*
X7304400Y-10210800I40000J0D01*
G01*
X11978000Y-7010400D02*
G75*
G02*
X11898000Y-7010400I-40000J0D01*
G01*
X11898000Y-7010400D02*
G75*
G02*
X11978000Y-7010400I40000J0D01*
G01*
X11978000Y-7264400D02*
G75*
G02*
X11898000Y-7264400I-40000J0D01*
G01*
X11898000Y-7264400D02*
G75*
G02*
X11978000Y-7264400I40000J0D01*
G01*
X11978000Y-7518400D02*
G75*
G02*
X11898000Y-7518400I-40000J0D01*
G01*
X11898000Y-7518400D02*
G75*
G02*
X11978000Y-7518400I40000J0D01*
G01*
X11978000Y-7772400D02*
G75*
G02*
X11898000Y-7772400I-40000J0D01*
G01*
X11898000Y-7772400D02*
G75*
G02*
X11978000Y-7772400I40000J0D01*
G01*
X11978000Y-8026400D02*
G75*
G02*
X11898000Y-8026400I-40000J0D01*
G01*
X11898000Y-8026400D02*
G75*
G02*
X11978000Y-8026400I40000J0D01*
G01*
X11978000Y-8280400D02*
G75*
G02*
X11898000Y-8280400I-40000J0D01*
G01*
X11898000Y-8280400D02*
G75*
G02*
X11978000Y-8280400I40000J0D01*
G01*
X11978000Y-8534400D02*
G75*
G02*
X11898000Y-8534400I-40000J0D01*
G01*
X11898000Y-8534400D02*
G75*
G02*
X11978000Y-8534400I40000J0D01*
G01*
X11978000Y-8788400D02*
G75*
G02*
X11898000Y-8788400I-40000J0D01*
G01*
X11898000Y-8788400D02*
G75*
G02*
X11978000Y-8788400I40000J0D01*
G01*
X11978000Y-9042400D02*
G75*
G02*
X11898000Y-9042400I-40000J0D01*
G01*
X11898000Y-9042400D02*
G75*
G02*
X11978000Y-9042400I40000J0D01*
G01*
X11978000Y-9296400D02*
G75*
G02*
X11898000Y-9296400I-40000J0D01*
G01*
X11898000Y-9296400D02*
G75*
G02*
X11978000Y-9296400I40000J0D01*
G01*
X11978000Y-9550400D02*
G75*
G02*
X11898000Y-9550400I-40000J0D01*
G01*
X11898000Y-9550400D02*
G75*
G02*
X11978000Y-9550400I40000J0D01*
G01*
X11978000Y-9804400D02*
G75*
G02*
X11898000Y-9804400I-40000J0D01*
G01*
X11898000Y-9804400D02*
G75*
G02*
X11978000Y-9804400I40000J0D01*
G01*
X11978000Y-10058400D02*
G75*
G02*
X11898000Y-10058400I-40000J0D01*
G01*
X11898000Y-10058400D02*
G75*
G02*
X11978000Y-10058400I40000J0D01*
G01*
X11978000Y-10312400D02*
G75*
G02*
X11898000Y-10312400I-40000J0D01*
G01*
X11898000Y-10312400D02*
G75*
G02*
X11978000Y-10312400I40000J0D01*
G01*
X11978000Y-10566400D02*
G75*
G02*
X11898000Y-10566400I-40000J0D01*
G01*
X11898000Y-10566400D02*
G75*
G02*
X11978000Y-10566400I40000J0D01*
G01*
X14518000Y-7010400D02*
G75*
G02*
X14438000Y-7010400I-40000J0D01*
G01*
X14438000Y-7010400D02*
G75*
G02*
X14518000Y-7010400I40000J0D01*
G01*
X14518000Y-7264400D02*
G75*
G02*
X14438000Y-7264400I-40000J0D01*
G01*
X14438000Y-7264400D02*
G75*
G02*
X14518000Y-7264400I40000J0D01*
G01*
X14518000Y-7518400D02*
G75*
G02*
X14438000Y-7518400I-40000J0D01*
G01*
X14438000Y-7518400D02*
G75*
G02*
X14518000Y-7518400I40000J0D01*
G01*
X14518000Y-7772400D02*
G75*
G02*
X14438000Y-7772400I-40000J0D01*
G01*
X14438000Y-7772400D02*
G75*
G02*
X14518000Y-7772400I40000J0D01*
G01*
X14518000Y-8026400D02*
G75*
G02*
X14438000Y-8026400I-40000J0D01*
G01*
X14438000Y-8026400D02*
G75*
G02*
X14518000Y-8026400I40000J0D01*
G01*
X14518000Y-8280400D02*
G75*
G02*
X14438000Y-8280400I-40000J0D01*
G01*
X14438000Y-8280400D02*
G75*
G02*
X14518000Y-8280400I40000J0D01*
G01*
X14518000Y-8534400D02*
G75*
G02*
X14438000Y-8534400I-40000J0D01*
G01*
X14438000Y-8534400D02*
G75*
G02*
X14518000Y-8534400I40000J0D01*
G01*
X14518000Y-8788400D02*
G75*
G02*
X14438000Y-8788400I-40000J0D01*
G01*
X14438000Y-8788400D02*
G75*
G02*
X14518000Y-8788400I40000J0D01*
G01*
X14518000Y-9042400D02*
G75*
G02*
X14438000Y-9042400I-40000J0D01*
G01*
X14438000Y-9042400D02*
G75*
G02*
X14518000Y-9042400I40000J0D01*
G01*
X14518000Y-9296400D02*
G75*
G02*
X14438000Y-9296400I-40000J0D01*
G01*
X14438000Y-9296400D02*
G75*
G02*
X14518000Y-9296400I40000J0D01*
G01*
X14518000Y-9550400D02*
G75*
G02*
X14438000Y-9550400I-40000J0D01*
G01*
X14438000Y-9550400D02*
G75*
G02*
X14518000Y-9550400I40000J0D01*
G01*
X14518000Y-9804400D02*
G75*
G02*
X14438000Y-9804400I-40000J0D01*
G01*
X14438000Y-9804400D02*
G75*
G02*
X14518000Y-9804400I40000J0D01*
G01*
X14518000Y-10058400D02*
G75*
G02*
X14438000Y-10058400I-40000J0D01*
G01*
X14438000Y-10058400D02*
G75*
G02*
X14518000Y-10058400I40000J0D01*
G01*
X14518000Y-10312400D02*
G75*
G02*
X14438000Y-10312400I-40000J0D01*
G01*
X14438000Y-10312400D02*
G75*
G02*
X14518000Y-10312400I40000J0D01*
G01*
X14518000Y-10566400D02*
G75*
G02*
X14438000Y-10566400I-40000J0D01*
G01*
X14438000Y-10566400D02*
G75*
G02*
X14518000Y-10566400I40000J0D01*
G01*
X16092800Y-10718800D02*
G75*
G02*
X16012800Y-10718800I-40000J0D01*
G01*
X16012800Y-10718800D02*
G75*
G02*
X16092800Y-10718800I40000J0D01*
G01*
X16092800Y-10972800D02*
G75*
G02*
X16012800Y-10972800I-40000J0D01*
G01*
X16012800Y-10972800D02*
G75*
G02*
X16092800Y-10972800I40000J0D01*
G01*
X16092800Y-11226800D02*
G75*
G02*
X16012800Y-11226800I-40000J0D01*
G01*
X16012800Y-11226800D02*
G75*
G02*
X16092800Y-11226800I40000J0D01*
G01*
X16092800Y-11480800D02*
G75*
G02*
X16012800Y-11480800I-40000J0D01*
G01*
X16012800Y-11480800D02*
G75*
G02*
X16092800Y-11480800I40000J0D01*
G01*
X16092800Y-11734800D02*
G75*
G02*
X16012800Y-11734800I-40000J0D01*
G01*
X16012800Y-11734800D02*
G75*
G02*
X16092800Y-11734800I40000J0D01*
G01*
X16092800Y-11988800D02*
G75*
G02*
X16012800Y-11988800I-40000J0D01*
G01*
X16012800Y-11988800D02*
G75*
G02*
X16092800Y-11988800I40000J0D01*
G01*
X16329000Y-7351500D02*
X16329000Y-7446500D01*
X16281500Y-7399000D02*
X16376500Y-7399000D01*
X16329000Y-7601500D02*
X16329000Y-7696500D01*
X16281500Y-7649000D02*
X16376500Y-7649000D01*
X16329000Y-7851500D02*
X16329000Y-7946500D01*
X16281500Y-7899000D02*
X16376500Y-7899000D01*
X16329000Y-8101500D02*
X16329000Y-8196500D01*
X16281500Y-8149000D02*
X16376500Y-8149000D01*
X16329000Y-8973500D02*
X16329000Y-9068500D01*
X16281500Y-9021000D02*
X16376500Y-9021000D01*
X16329000Y-9223500D02*
X16329000Y-9318500D01*
X16281500Y-9271000D02*
X16376500Y-9271000D01*
X16329000Y-9473500D02*
X16329000Y-9568500D01*
X16281500Y-9521000D02*
X16376500Y-9521000D01*
X16329000Y-9723500D02*
X16329000Y-9818500D01*
X16281500Y-9771000D02*
X16376500Y-9771000D01*
X16329000Y-9973500D02*
X16329000Y-10068500D01*
X16281500Y-10021000D02*
X16376500Y-10021000D01*
X8440556Y-9251356D02*
X8440556Y-9180644D01*
X8369844Y-9180644D01*
X8369844Y-9251356D01*
X8440556Y-9251356D01*
X8440556Y-10631356D02*
X8440556Y-10560644D01*
X8369844Y-10560644D01*
X8369844Y-10631356D01*
X8440556Y-10631356D01*
X9306356Y-9253016D02*
X9306356Y-9182304D01*
X9235644Y-9182304D01*
X9235644Y-9253016D01*
X9306356Y-9253016D01*
X11340556Y-9251356D02*
X11340556Y-9180644D01*
X11269844Y-9180644D01*
X11269844Y-9251356D01*
X11340556Y-9251356D01*
X11340556Y-10631356D02*
X11340556Y-10560644D01*
X11269844Y-10560644D01*
X11269844Y-10631356D01*
X11340556Y-10631356D01*
D13*
X4724400Y-9326000D02*
X4779400Y-9271000D01*
X4724400Y-9216000D01*
X4669400Y-9271000D01*
X4724400Y-9326000D01*
X4724400Y-9580000D02*
X4779400Y-9525000D01*
X4724400Y-9470000D01*
X4669400Y-9525000D01*
X4724400Y-9580000D01*
X4724400Y-9834000D02*
X4779400Y-9779000D01*
X4724400Y-9724000D01*
X4669400Y-9779000D01*
X4724400Y-9834000D01*
X5638800Y-9326000D02*
X5693800Y-9271000D01*
X5638800Y-9216000D01*
X5583800Y-9271000D01*
X5638800Y-9326000D01*
X5638800Y-9580000D02*
X5693800Y-9525000D01*
X5638800Y-9470000D01*
X5583800Y-9525000D01*
X5638800Y-9580000D01*
X5638800Y-9834000D02*
X5693800Y-9779000D01*
X5638800Y-9724000D01*
X5583800Y-9779000D01*
X5638800Y-9834000D01*
X9779000Y-11586600D02*
X9834000Y-11531600D01*
X9779000Y-11476600D01*
X9724000Y-11531600D01*
X9779000Y-11586600D01*
X9779000Y-12602600D02*
X9834000Y-12547600D01*
X9779000Y-12492600D01*
X9724000Y-12547600D01*
X9779000Y-12602600D01*
X10287000Y-7421000D02*
X10342000Y-7366000D01*
X10287000Y-7311000D01*
X10232000Y-7366000D01*
X10287000Y-7421000D01*
X10287000Y-8437000D02*
X10342000Y-8382000D01*
X10287000Y-8327000D01*
X10232000Y-8382000D01*
X10287000Y-8437000D01*
D14*
X8576000Y-12132000D02*
X8696000Y-12252000D01*
X8696000Y-12132000D02*
X8576000Y-12252000D01*
X8696000Y-12192000D02*
G75*
G02*
X8576000Y-12192000I-60000J0D01*
G01*
X8576000Y-12192000D02*
G75*
G02*
X8696000Y-12192000I60000J0D01*
G01*
X9084000Y-12132000D02*
X9204000Y-12252000D01*
X9204000Y-12132000D02*
X9084000Y-12252000D01*
X9204000Y-12192000D02*
G75*
G02*
X9084000Y-12192000I-60000J0D01*
G01*
X9084000Y-12192000D02*
G75*
G02*
X9204000Y-12192000I60000J0D01*
G01*
X10486500Y-12092750D02*
X10606500Y-12212750D01*
X10606500Y-12092750D02*
X10486500Y-12212750D01*
X10606500Y-12152750D02*
G75*
G02*
X10486500Y-12152750I-60000J0D01*
G01*
X10486500Y-12152750D02*
G75*
G02*
X10606500Y-12152750I60000J0D01*
G01*
X10994500Y-12092750D02*
X11114500Y-12212750D01*
X11114500Y-12092750D02*
X10994500Y-12212750D01*
X11114500Y-12152750D02*
G75*
G02*
X10994500Y-12152750I-60000J0D01*
G01*
X10994500Y-12152750D02*
G75*
G02*
X11114500Y-12152750I60000J0D01*
G01*
D15*
X4000500Y-9486900D02*
X4127500Y-9613900D01*
X4127500Y-9486900D02*
X4000500Y-9613900D01*
X4064000Y-9486900D02*
X4064000Y-9613900D01*
X4000500Y-9550400D02*
X4127500Y-9550400D01*
X4254500Y-8775700D02*
X4381500Y-8902700D01*
X4381500Y-8775700D02*
X4254500Y-8902700D01*
X4318000Y-8775700D02*
X4318000Y-8902700D01*
X4254500Y-8839200D02*
X4381500Y-8839200D01*
X5270500Y-9944100D02*
X5397500Y-10071100D01*
X5397500Y-9944100D02*
X5270500Y-10071100D01*
X5334000Y-9944100D02*
X5334000Y-10071100D01*
X5270500Y-10007600D02*
X5397500Y-10007600D01*
X5600700Y-10274300D02*
X5727700Y-10401300D01*
X5727700Y-10274300D02*
X5600700Y-10401300D01*
X5664200Y-10274300D02*
X5664200Y-10401300D01*
X5600700Y-10337800D02*
X5727700Y-10337800D01*
X6007100Y-10680700D02*
X6134100Y-10807700D01*
X6134100Y-10680700D02*
X6007100Y-10807700D01*
X6070600Y-10680700D02*
X6070600Y-10807700D01*
X6007100Y-10744200D02*
X6134100Y-10744200D01*
X6032500Y-9944100D02*
X6159500Y-10071100D01*
X6159500Y-9944100D02*
X6032500Y-10071100D01*
X6096000Y-9944100D02*
X6096000Y-10071100D01*
X6032500Y-10007600D02*
X6159500Y-10007600D01*
X6032500Y-10248900D02*
X6159500Y-10375900D01*
X6159500Y-10248900D02*
X6032500Y-10375900D01*
X6096000Y-10248900D02*
X6096000Y-10375900D01*
X6032500Y-10312400D02*
X6159500Y-10312400D01*
X6083300Y-8420100D02*
X6210300Y-8547100D01*
X6210300Y-8420100D02*
X6083300Y-8547100D01*
X6146800Y-8420100D02*
X6146800Y-8547100D01*
X6083300Y-8483600D02*
X6210300Y-8483600D01*
X6388100Y-11061700D02*
X6515100Y-11188700D01*
X6515100Y-11061700D02*
X6388100Y-11188700D01*
X6451600Y-11061700D02*
X6451600Y-11188700D01*
X6388100Y-11125200D02*
X6515100Y-11125200D01*
X6413500Y-7048500D02*
X6540500Y-7175500D01*
X6540500Y-7048500D02*
X6413500Y-7175500D01*
X6477000Y-7048500D02*
X6477000Y-7175500D01*
X6413500Y-7112000D02*
X6540500Y-7112000D01*
X6413500Y-7607300D02*
X6540500Y-7734300D01*
X6540500Y-7607300D02*
X6413500Y-7734300D01*
X6477000Y-7607300D02*
X6477000Y-7734300D01*
X6413500Y-7670800D02*
X6540500Y-7670800D01*
X6413500Y-11772900D02*
X6540500Y-11899900D01*
X6540500Y-11772900D02*
X6413500Y-11899900D01*
X6477000Y-11772900D02*
X6477000Y-11899900D01*
X6413500Y-11836400D02*
X6540500Y-11836400D01*
D16*
X8526000Y-6240000D02*
X8746000Y-6460000D01*
X8746000Y-6240000D02*
X8526000Y-6460000D01*
X8713783Y-6427782D02*
X8713783Y-6272217D01*
X8558218Y-6272217D01*
X8558218Y-6427782D01*
X8713783Y-6427782D01*
X9161000Y-6240000D02*
X9381000Y-6460000D01*
X9381000Y-6240000D02*
X9161000Y-6460000D01*
X9348783Y-6427782D02*
X9348783Y-6272217D01*
X9193218Y-6272217D01*
X9193218Y-6427782D01*
X9348783Y-6427782D01*
X10177000Y-6240000D02*
X10397000Y-6460000D01*
X10397000Y-6240000D02*
X10177000Y-6460000D01*
X10364783Y-6427782D02*
X10364783Y-6272217D01*
X10209218Y-6272217D01*
X10209218Y-6427782D01*
X10364783Y-6427782D01*
X10812000Y-6240000D02*
X11032000Y-6460000D01*
X11032000Y-6240000D02*
X10812000Y-6460000D01*
X10999783Y-6427782D02*
X10999783Y-6272217D01*
X10844218Y-6272217D01*
X10844218Y-6427782D01*
X10999783Y-6427782D01*
D17*
X5029200Y-8077200D02*
X5334000Y-8382000D01*
X5334000Y-8077200D02*
X5029200Y-8382000D01*
X5181600Y-8382000D02*
X5334000Y-8229600D01*
X5181600Y-8077200D01*
X5029200Y-8229600D01*
X5181600Y-8382000D01*
X5029200Y-10617200D02*
X5334000Y-10922000D01*
X5334000Y-10617200D02*
X5029200Y-10922000D01*
X5181600Y-10922000D02*
X5334000Y-10769600D01*
X5181600Y-10617200D01*
X5029200Y-10769600D01*
X5181600Y-10922000D01*
D18*
X5080000Y-6190000D02*
X5080000Y-6510000D01*
X4920000Y-6350000D02*
X5240000Y-6350000D01*
X5240000Y-6350000D02*
G75*
G02*
X4920000Y-6350000I-160000J0D01*
G01*
X4920000Y-6350000D02*
G75*
G02*
X5240000Y-6350000I160000J0D01*
G01*
X5080000Y-12540000D02*
X5080000Y-12860000D01*
X4920000Y-12700000D02*
X5240000Y-12700000D01*
X5240000Y-12700000D02*
G75*
G02*
X4920000Y-12700000I-160000J0D01*
G01*
X4920000Y-12700000D02*
G75*
G02*
X5240000Y-12700000I160000J0D01*
G01*
X6477000Y-6444000D02*
X6477000Y-6764000D01*
X6317000Y-6604000D02*
X6637000Y-6604000D01*
X6637000Y-6604000D02*
G75*
G02*
X6317000Y-6604000I-160000J0D01*
G01*
X6317000Y-6604000D02*
G75*
G02*
X6637000Y-6604000I160000J0D01*
G01*
X6477000Y-12286000D02*
X6477000Y-12606000D01*
X6317000Y-12446000D02*
X6637000Y-12446000D01*
X6637000Y-12446000D02*
G75*
G02*
X6317000Y-12446000I-160000J0D01*
G01*
X6317000Y-12446000D02*
G75*
G02*
X6637000Y-12446000I160000J0D01*
G01*
D11*
X3636477Y-13344184D02*
X3636477Y-13144184D01*
X3636477Y-13144184D02*
X3684096Y-13144184D01*
X3684096Y-13144184D02*
X3712667Y-13153708D01*
X3712667Y-13153708D02*
X3731715Y-13172755D01*
X3731715Y-13172755D02*
X3741239Y-13191803D01*
X3741239Y-13191803D02*
X3750762Y-13229898D01*
X3750762Y-13229898D02*
X3750762Y-13258469D01*
X3750762Y-13258469D02*
X3741239Y-13296565D01*
X3741239Y-13296565D02*
X3731715Y-13315612D01*
X3731715Y-13315612D02*
X3712667Y-13334660D01*
X3712667Y-13334660D02*
X3684096Y-13344184D01*
X3684096Y-13344184D02*
X3636477Y-13344184D01*
X3836477Y-13344184D02*
X3836477Y-13210850D01*
X3836477Y-13248946D02*
X3846001Y-13229898D01*
X3846001Y-13229898D02*
X3855524Y-13220374D01*
X3855524Y-13220374D02*
X3874572Y-13210850D01*
X3874572Y-13210850D02*
X3893620Y-13210850D01*
X3960286Y-13344184D02*
X3960286Y-13210850D01*
X3960286Y-13144184D02*
X3950762Y-13153708D01*
X3950762Y-13153708D02*
X3960286Y-13163231D01*
X3960286Y-13163231D02*
X3969810Y-13153708D01*
X3969810Y-13153708D02*
X3960286Y-13144184D01*
X3960286Y-13144184D02*
X3960286Y-13163231D01*
X4084096Y-13344184D02*
X4065048Y-13334660D01*
X4065048Y-13334660D02*
X4055524Y-13315612D01*
X4055524Y-13315612D02*
X4055524Y-13144184D01*
X4188858Y-13344184D02*
X4169810Y-13334660D01*
X4169810Y-13334660D02*
X4160286Y-13315612D01*
X4160286Y-13315612D02*
X4160286Y-13144184D01*
X4417429Y-13344184D02*
X4417429Y-13144184D01*
X4417429Y-13144184D02*
X4484096Y-13287041D01*
X4484096Y-13287041D02*
X4550763Y-13144184D01*
X4550763Y-13144184D02*
X4550763Y-13344184D01*
X4731715Y-13344184D02*
X4731715Y-13239422D01*
X4731715Y-13239422D02*
X4722191Y-13220374D01*
X4722191Y-13220374D02*
X4703144Y-13210850D01*
X4703144Y-13210850D02*
X4665048Y-13210850D01*
X4665048Y-13210850D02*
X4646001Y-13220374D01*
X4731715Y-13334660D02*
X4712667Y-13344184D01*
X4712667Y-13344184D02*
X4665048Y-13344184D01*
X4665048Y-13344184D02*
X4646001Y-13334660D01*
X4646001Y-13334660D02*
X4636477Y-13315612D01*
X4636477Y-13315612D02*
X4636477Y-13296565D01*
X4636477Y-13296565D02*
X4646001Y-13277517D01*
X4646001Y-13277517D02*
X4665048Y-13267993D01*
X4665048Y-13267993D02*
X4712667Y-13267993D01*
X4712667Y-13267993D02*
X4731715Y-13258469D01*
X4826953Y-13210850D02*
X4826953Y-13410850D01*
X4826953Y-13220374D02*
X4846001Y-13210850D01*
X4846001Y-13210850D02*
X4884096Y-13210850D01*
X4884096Y-13210850D02*
X4903144Y-13220374D01*
X4903144Y-13220374D02*
X4912667Y-13229898D01*
X4912667Y-13229898D02*
X4922191Y-13248946D01*
X4922191Y-13248946D02*
X4922191Y-13306088D01*
X4922191Y-13306088D02*
X4912667Y-13325136D01*
X4912667Y-13325136D02*
X4903144Y-13334660D01*
X4903144Y-13334660D02*
X4884096Y-13344184D01*
X4884096Y-13344184D02*
X4846001Y-13344184D01*
X4846001Y-13344184D02*
X4826953Y-13334660D01*
X5007905Y-13325136D02*
X5017429Y-13334660D01*
X5017429Y-13334660D02*
X5007905Y-13344184D01*
X5007905Y-13344184D02*
X4998382Y-13334660D01*
X4998382Y-13334660D02*
X5007905Y-13325136D01*
X5007905Y-13325136D02*
X5007905Y-13344184D01*
X5007905Y-13220374D02*
X5017429Y-13229898D01*
X5017429Y-13229898D02*
X5007905Y-13239422D01*
X5007905Y-13239422D02*
X4998382Y-13229898D01*
X4998382Y-13229898D02*
X5007905Y-13220374D01*
X5007905Y-13220374D02*
X5007905Y-13239422D01*
D12*
X3299500Y-13634600D02*
X3375700Y-13710800D01*
X3375700Y-13634600D02*
X3299500Y-13710800D01*
D11*
X3674572Y-13564184D02*
X3693620Y-13564184D01*
X3693620Y-13564184D02*
X3712667Y-13573708D01*
X3712667Y-13573708D02*
X3722191Y-13583231D01*
X3722191Y-13583231D02*
X3731715Y-13602279D01*
X3731715Y-13602279D02*
X3741239Y-13640374D01*
X3741239Y-13640374D02*
X3741239Y-13687993D01*
X3741239Y-13687993D02*
X3731715Y-13726088D01*
X3731715Y-13726088D02*
X3722191Y-13745136D01*
X3722191Y-13745136D02*
X3712667Y-13754660D01*
X3712667Y-13754660D02*
X3693620Y-13764184D01*
X3693620Y-13764184D02*
X3674572Y-13764184D01*
X3674572Y-13764184D02*
X3655524Y-13754660D01*
X3655524Y-13754660D02*
X3646001Y-13745136D01*
X3646001Y-13745136D02*
X3636477Y-13726088D01*
X3636477Y-13726088D02*
X3626953Y-13687993D01*
X3626953Y-13687993D02*
X3626953Y-13640374D01*
X3626953Y-13640374D02*
X3636477Y-13602279D01*
X3636477Y-13602279D02*
X3646001Y-13583231D01*
X3646001Y-13583231D02*
X3655524Y-13573708D01*
X3655524Y-13573708D02*
X3674572Y-13564184D01*
X3826953Y-13745136D02*
X3836477Y-13754660D01*
X3836477Y-13754660D02*
X3826953Y-13764184D01*
X3826953Y-13764184D02*
X3817429Y-13754660D01*
X3817429Y-13754660D02*
X3826953Y-13745136D01*
X3826953Y-13745136D02*
X3826953Y-13764184D01*
X3903143Y-13564184D02*
X4036477Y-13564184D01*
X4036477Y-13564184D02*
X3950762Y-13764184D01*
X4198382Y-13564184D02*
X4160286Y-13564184D01*
X4160286Y-13564184D02*
X4141239Y-13573708D01*
X4141239Y-13573708D02*
X4131715Y-13583231D01*
X4131715Y-13583231D02*
X4112667Y-13611803D01*
X4112667Y-13611803D02*
X4103143Y-13649898D01*
X4103143Y-13649898D02*
X4103143Y-13726088D01*
X4103143Y-13726088D02*
X4112667Y-13745136D01*
X4112667Y-13745136D02*
X4122191Y-13754660D01*
X4122191Y-13754660D02*
X4141239Y-13764184D01*
X4141239Y-13764184D02*
X4179334Y-13764184D01*
X4179334Y-13764184D02*
X4198382Y-13754660D01*
X4198382Y-13754660D02*
X4207905Y-13745136D01*
X4207905Y-13745136D02*
X4217429Y-13726088D01*
X4217429Y-13726088D02*
X4217429Y-13678469D01*
X4217429Y-13678469D02*
X4207905Y-13659422D01*
X4207905Y-13659422D02*
X4198382Y-13649898D01*
X4198382Y-13649898D02*
X4179334Y-13640374D01*
X4179334Y-13640374D02*
X4141239Y-13640374D01*
X4141239Y-13640374D02*
X4122191Y-13649898D01*
X4122191Y-13649898D02*
X4112667Y-13659422D01*
X4112667Y-13659422D02*
X4103143Y-13678469D01*
X4293620Y-13583231D02*
X4303144Y-13573708D01*
X4303144Y-13573708D02*
X4322191Y-13564184D01*
X4322191Y-13564184D02*
X4369810Y-13564184D01*
X4369810Y-13564184D02*
X4388858Y-13573708D01*
X4388858Y-13573708D02*
X4398382Y-13583231D01*
X4398382Y-13583231D02*
X4407905Y-13602279D01*
X4407905Y-13602279D02*
X4407905Y-13621327D01*
X4407905Y-13621327D02*
X4398382Y-13649898D01*
X4398382Y-13649898D02*
X4284096Y-13764184D01*
X4284096Y-13764184D02*
X4407905Y-13764184D01*
X4493620Y-13764184D02*
X4493620Y-13630850D01*
X4493620Y-13649898D02*
X4503144Y-13640374D01*
X4503144Y-13640374D02*
X4522191Y-13630850D01*
X4522191Y-13630850D02*
X4550763Y-13630850D01*
X4550763Y-13630850D02*
X4569810Y-13640374D01*
X4569810Y-13640374D02*
X4579334Y-13659422D01*
X4579334Y-13659422D02*
X4579334Y-13764184D01*
X4579334Y-13659422D02*
X4588858Y-13640374D01*
X4588858Y-13640374D02*
X4607905Y-13630850D01*
X4607905Y-13630850D02*
X4636477Y-13630850D01*
X4636477Y-13630850D02*
X4655525Y-13640374D01*
X4655525Y-13640374D02*
X4665048Y-13659422D01*
X4665048Y-13659422D02*
X4665048Y-13764184D01*
X4760286Y-13764184D02*
X4760286Y-13630850D01*
X4760286Y-13649898D02*
X4769810Y-13640374D01*
X4769810Y-13640374D02*
X4788858Y-13630850D01*
X4788858Y-13630850D02*
X4817429Y-13630850D01*
X4817429Y-13630850D02*
X4836477Y-13640374D01*
X4836477Y-13640374D02*
X4846001Y-13659422D01*
X4846001Y-13659422D02*
X4846001Y-13764184D01*
X4846001Y-13659422D02*
X4855525Y-13640374D01*
X4855525Y-13640374D02*
X4874572Y-13630850D01*
X4874572Y-13630850D02*
X4903144Y-13630850D01*
X4903144Y-13630850D02*
X4922191Y-13640374D01*
X4922191Y-13640374D02*
X4931715Y-13659422D01*
X4931715Y-13659422D02*
X4931715Y-13764184D01*
X5322191Y-13554660D02*
X5150763Y-13811803D01*
X5579334Y-13564184D02*
X5598382Y-13564184D01*
X5598382Y-13564184D02*
X5617429Y-13573708D01*
X5617429Y-13573708D02*
X5626953Y-13583231D01*
X5626953Y-13583231D02*
X5636477Y-13602279D01*
X5636477Y-13602279D02*
X5646001Y-13640374D01*
X5646001Y-13640374D02*
X5646001Y-13687993D01*
X5646001Y-13687993D02*
X5636477Y-13726088D01*
X5636477Y-13726088D02*
X5626953Y-13745136D01*
X5626953Y-13745136D02*
X5617429Y-13754660D01*
X5617429Y-13754660D02*
X5598382Y-13764184D01*
X5598382Y-13764184D02*
X5579334Y-13764184D01*
X5579334Y-13764184D02*
X5560287Y-13754660D01*
X5560287Y-13754660D02*
X5550763Y-13745136D01*
X5550763Y-13745136D02*
X5541239Y-13726088D01*
X5541239Y-13726088D02*
X5531715Y-13687993D01*
X5531715Y-13687993D02*
X5531715Y-13640374D01*
X5531715Y-13640374D02*
X5541239Y-13602279D01*
X5541239Y-13602279D02*
X5550763Y-13583231D01*
X5550763Y-13583231D02*
X5560287Y-13573708D01*
X5560287Y-13573708D02*
X5579334Y-13564184D01*
X5731715Y-13745136D02*
X5741239Y-13754660D01*
X5741239Y-13754660D02*
X5731715Y-13764184D01*
X5731715Y-13764184D02*
X5722191Y-13754660D01*
X5722191Y-13754660D02*
X5731715Y-13745136D01*
X5731715Y-13745136D02*
X5731715Y-13764184D01*
X5865048Y-13564184D02*
X5884096Y-13564184D01*
X5884096Y-13564184D02*
X5903144Y-13573708D01*
X5903144Y-13573708D02*
X5912667Y-13583231D01*
X5912667Y-13583231D02*
X5922191Y-13602279D01*
X5922191Y-13602279D02*
X5931715Y-13640374D01*
X5931715Y-13640374D02*
X5931715Y-13687993D01*
X5931715Y-13687993D02*
X5922191Y-13726088D01*
X5922191Y-13726088D02*
X5912667Y-13745136D01*
X5912667Y-13745136D02*
X5903144Y-13754660D01*
X5903144Y-13754660D02*
X5884096Y-13764184D01*
X5884096Y-13764184D02*
X5865048Y-13764184D01*
X5865048Y-13764184D02*
X5846001Y-13754660D01*
X5846001Y-13754660D02*
X5836477Y-13745136D01*
X5836477Y-13745136D02*
X5826953Y-13726088D01*
X5826953Y-13726088D02*
X5817429Y-13687993D01*
X5817429Y-13687993D02*
X5817429Y-13640374D01*
X5817429Y-13640374D02*
X5826953Y-13602279D01*
X5826953Y-13602279D02*
X5836477Y-13583231D01*
X5836477Y-13583231D02*
X5846001Y-13573708D01*
X5846001Y-13573708D02*
X5865048Y-13564184D01*
X5998382Y-13564184D02*
X6122191Y-13564184D01*
X6122191Y-13564184D02*
X6055525Y-13640374D01*
X6055525Y-13640374D02*
X6084096Y-13640374D01*
X6084096Y-13640374D02*
X6103144Y-13649898D01*
X6103144Y-13649898D02*
X6112667Y-13659422D01*
X6112667Y-13659422D02*
X6122191Y-13678469D01*
X6122191Y-13678469D02*
X6122191Y-13726088D01*
X6122191Y-13726088D02*
X6112667Y-13745136D01*
X6112667Y-13745136D02*
X6103144Y-13754660D01*
X6103144Y-13754660D02*
X6084096Y-13764184D01*
X6084096Y-13764184D02*
X6026953Y-13764184D01*
X6026953Y-13764184D02*
X6007906Y-13754660D01*
X6007906Y-13754660D02*
X5998382Y-13745136D01*
X6246001Y-13564184D02*
X6265048Y-13564184D01*
X6265048Y-13564184D02*
X6284096Y-13573708D01*
X6284096Y-13573708D02*
X6293620Y-13583231D01*
X6293620Y-13583231D02*
X6303144Y-13602279D01*
X6303144Y-13602279D02*
X6312667Y-13640374D01*
X6312667Y-13640374D02*
X6312667Y-13687993D01*
X6312667Y-13687993D02*
X6303144Y-13726088D01*
X6303144Y-13726088D02*
X6293620Y-13745136D01*
X6293620Y-13745136D02*
X6284096Y-13754660D01*
X6284096Y-13754660D02*
X6265048Y-13764184D01*
X6265048Y-13764184D02*
X6246001Y-13764184D01*
X6246001Y-13764184D02*
X6226953Y-13754660D01*
X6226953Y-13754660D02*
X6217429Y-13745136D01*
X6217429Y-13745136D02*
X6207906Y-13726088D01*
X6207906Y-13726088D02*
X6198382Y-13687993D01*
X6198382Y-13687993D02*
X6198382Y-13640374D01*
X6198382Y-13640374D02*
X6207906Y-13602279D01*
X6207906Y-13602279D02*
X6217429Y-13583231D01*
X6217429Y-13583231D02*
X6226953Y-13573708D01*
X6226953Y-13573708D02*
X6246001Y-13564184D01*
X6436477Y-13564184D02*
X6455525Y-13564184D01*
X6455525Y-13564184D02*
X6474572Y-13573708D01*
X6474572Y-13573708D02*
X6484096Y-13583231D01*
X6484096Y-13583231D02*
X6493620Y-13602279D01*
X6493620Y-13602279D02*
X6503144Y-13640374D01*
X6503144Y-13640374D02*
X6503144Y-13687993D01*
X6503144Y-13687993D02*
X6493620Y-13726088D01*
X6493620Y-13726088D02*
X6484096Y-13745136D01*
X6484096Y-13745136D02*
X6474572Y-13754660D01*
X6474572Y-13754660D02*
X6455525Y-13764184D01*
X6455525Y-13764184D02*
X6436477Y-13764184D01*
X6436477Y-13764184D02*
X6417429Y-13754660D01*
X6417429Y-13754660D02*
X6407906Y-13745136D01*
X6407906Y-13745136D02*
X6398382Y-13726088D01*
X6398382Y-13726088D02*
X6388858Y-13687993D01*
X6388858Y-13687993D02*
X6388858Y-13640374D01*
X6388858Y-13640374D02*
X6398382Y-13602279D01*
X6398382Y-13602279D02*
X6407906Y-13583231D01*
X6407906Y-13583231D02*
X6417429Y-13573708D01*
X6417429Y-13573708D02*
X6436477Y-13564184D01*
X6579334Y-13564184D02*
X6579334Y-13602279D01*
X6655525Y-13564184D02*
X6655525Y-13602279D01*
X6950763Y-13840374D02*
X6941239Y-13830850D01*
X6941239Y-13830850D02*
X6922191Y-13802279D01*
X6922191Y-13802279D02*
X6912668Y-13783231D01*
X6912668Y-13783231D02*
X6903144Y-13754660D01*
X6903144Y-13754660D02*
X6893620Y-13707041D01*
X6893620Y-13707041D02*
X6893620Y-13668946D01*
X6893620Y-13668946D02*
X6903144Y-13621327D01*
X6903144Y-13621327D02*
X6912668Y-13592755D01*
X6912668Y-13592755D02*
X6922191Y-13573708D01*
X6922191Y-13573708D02*
X6941239Y-13545136D01*
X6941239Y-13545136D02*
X6950763Y-13535612D01*
X7017429Y-13583231D02*
X7026953Y-13573708D01*
X7026953Y-13573708D02*
X7046001Y-13564184D01*
X7046001Y-13564184D02*
X7093620Y-13564184D01*
X7093620Y-13564184D02*
X7112668Y-13573708D01*
X7112668Y-13573708D02*
X7122191Y-13583231D01*
X7122191Y-13583231D02*
X7131715Y-13602279D01*
X7131715Y-13602279D02*
X7131715Y-13621327D01*
X7131715Y-13621327D02*
X7122191Y-13649898D01*
X7122191Y-13649898D02*
X7007906Y-13764184D01*
X7007906Y-13764184D02*
X7131715Y-13764184D01*
X7303144Y-13630850D02*
X7303144Y-13764184D01*
X7255525Y-13554660D02*
X7207906Y-13697517D01*
X7207906Y-13697517D02*
X7331715Y-13697517D01*
X7560287Y-13764184D02*
X7560287Y-13564184D01*
X7646001Y-13764184D02*
X7646001Y-13659422D01*
X7646001Y-13659422D02*
X7636477Y-13640374D01*
X7636477Y-13640374D02*
X7617430Y-13630850D01*
X7617430Y-13630850D02*
X7588858Y-13630850D01*
X7588858Y-13630850D02*
X7569810Y-13640374D01*
X7569810Y-13640374D02*
X7560287Y-13649898D01*
X7769810Y-13764184D02*
X7750763Y-13754660D01*
X7750763Y-13754660D02*
X7741239Y-13745136D01*
X7741239Y-13745136D02*
X7731715Y-13726088D01*
X7731715Y-13726088D02*
X7731715Y-13668946D01*
X7731715Y-13668946D02*
X7741239Y-13649898D01*
X7741239Y-13649898D02*
X7750763Y-13640374D01*
X7750763Y-13640374D02*
X7769810Y-13630850D01*
X7769810Y-13630850D02*
X7798382Y-13630850D01*
X7798382Y-13630850D02*
X7817430Y-13640374D01*
X7817430Y-13640374D02*
X7826953Y-13649898D01*
X7826953Y-13649898D02*
X7836477Y-13668946D01*
X7836477Y-13668946D02*
X7836477Y-13726088D01*
X7836477Y-13726088D02*
X7826953Y-13745136D01*
X7826953Y-13745136D02*
X7817430Y-13754660D01*
X7817430Y-13754660D02*
X7798382Y-13764184D01*
X7798382Y-13764184D02*
X7769810Y-13764184D01*
X7950763Y-13764184D02*
X7931715Y-13754660D01*
X7931715Y-13754660D02*
X7922191Y-13735612D01*
X7922191Y-13735612D02*
X7922191Y-13564184D01*
X8103144Y-13754660D02*
X8084096Y-13764184D01*
X8084096Y-13764184D02*
X8046001Y-13764184D01*
X8046001Y-13764184D02*
X8026953Y-13754660D01*
X8026953Y-13754660D02*
X8017430Y-13735612D01*
X8017430Y-13735612D02*
X8017430Y-13659422D01*
X8017430Y-13659422D02*
X8026953Y-13640374D01*
X8026953Y-13640374D02*
X8046001Y-13630850D01*
X8046001Y-13630850D02*
X8084096Y-13630850D01*
X8084096Y-13630850D02*
X8103144Y-13640374D01*
X8103144Y-13640374D02*
X8112668Y-13659422D01*
X8112668Y-13659422D02*
X8112668Y-13678469D01*
X8112668Y-13678469D02*
X8017430Y-13697517D01*
X8188858Y-13754660D02*
X8207906Y-13764184D01*
X8207906Y-13764184D02*
X8246001Y-13764184D01*
X8246001Y-13764184D02*
X8265049Y-13754660D01*
X8265049Y-13754660D02*
X8274572Y-13735612D01*
X8274572Y-13735612D02*
X8274572Y-13726088D01*
X8274572Y-13726088D02*
X8265049Y-13707041D01*
X8265049Y-13707041D02*
X8246001Y-13697517D01*
X8246001Y-13697517D02*
X8217430Y-13697517D01*
X8217430Y-13697517D02*
X8198382Y-13687993D01*
X8198382Y-13687993D02*
X8188858Y-13668946D01*
X8188858Y-13668946D02*
X8188858Y-13659422D01*
X8188858Y-13659422D02*
X8198382Y-13640374D01*
X8198382Y-13640374D02*
X8217430Y-13630850D01*
X8217430Y-13630850D02*
X8246001Y-13630850D01*
X8246001Y-13630850D02*
X8265049Y-13640374D01*
X8341239Y-13840374D02*
X8350763Y-13830850D01*
X8350763Y-13830850D02*
X8369811Y-13802279D01*
X8369811Y-13802279D02*
X8379334Y-13783231D01*
X8379334Y-13783231D02*
X8388858Y-13754660D01*
X8388858Y-13754660D02*
X8398382Y-13707041D01*
X8398382Y-13707041D02*
X8398382Y-13668946D01*
X8398382Y-13668946D02*
X8388858Y-13621327D01*
X8388858Y-13621327D02*
X8379334Y-13592755D01*
X8379334Y-13592755D02*
X8369811Y-13573708D01*
X8369811Y-13573708D02*
X8350763Y-13545136D01*
X8350763Y-13545136D02*
X8341239Y-13535612D01*
D12*
X3375700Y-13936700D02*
G75*
G02*
X3295700Y-13936700I-40000J0D01*
G01*
X3295700Y-13936700D02*
G75*
G02*
X3375700Y-13936700I40000J0D01*
G01*
D11*
X3674572Y-13828184D02*
X3693620Y-13828184D01*
X3693620Y-13828184D02*
X3712667Y-13837708D01*
X3712667Y-13837708D02*
X3722191Y-13847231D01*
X3722191Y-13847231D02*
X3731715Y-13866279D01*
X3731715Y-13866279D02*
X3741239Y-13904374D01*
X3741239Y-13904374D02*
X3741239Y-13951993D01*
X3741239Y-13951993D02*
X3731715Y-13990088D01*
X3731715Y-13990088D02*
X3722191Y-14009136D01*
X3722191Y-14009136D02*
X3712667Y-14018660D01*
X3712667Y-14018660D02*
X3693620Y-14028184D01*
X3693620Y-14028184D02*
X3674572Y-14028184D01*
X3674572Y-14028184D02*
X3655524Y-14018660D01*
X3655524Y-14018660D02*
X3646001Y-14009136D01*
X3646001Y-14009136D02*
X3636477Y-13990088D01*
X3636477Y-13990088D02*
X3626953Y-13951993D01*
X3626953Y-13951993D02*
X3626953Y-13904374D01*
X3626953Y-13904374D02*
X3636477Y-13866279D01*
X3636477Y-13866279D02*
X3646001Y-13847231D01*
X3646001Y-13847231D02*
X3655524Y-13837708D01*
X3655524Y-13837708D02*
X3674572Y-13828184D01*
X3826953Y-14009136D02*
X3836477Y-14018660D01*
X3836477Y-14018660D02*
X3826953Y-14028184D01*
X3826953Y-14028184D02*
X3817429Y-14018660D01*
X3817429Y-14018660D02*
X3826953Y-14009136D01*
X3826953Y-14009136D02*
X3826953Y-14028184D01*
X3950762Y-13913898D02*
X3931715Y-13904374D01*
X3931715Y-13904374D02*
X3922191Y-13894850D01*
X3922191Y-13894850D02*
X3912667Y-13875803D01*
X3912667Y-13875803D02*
X3912667Y-13866279D01*
X3912667Y-13866279D02*
X3922191Y-13847231D01*
X3922191Y-13847231D02*
X3931715Y-13837708D01*
X3931715Y-13837708D02*
X3950762Y-13828184D01*
X3950762Y-13828184D02*
X3988858Y-13828184D01*
X3988858Y-13828184D02*
X4007905Y-13837708D01*
X4007905Y-13837708D02*
X4017429Y-13847231D01*
X4017429Y-13847231D02*
X4026953Y-13866279D01*
X4026953Y-13866279D02*
X4026953Y-13875803D01*
X4026953Y-13875803D02*
X4017429Y-13894850D01*
X4017429Y-13894850D02*
X4007905Y-13904374D01*
X4007905Y-13904374D02*
X3988858Y-13913898D01*
X3988858Y-13913898D02*
X3950762Y-13913898D01*
X3950762Y-13913898D02*
X3931715Y-13923422D01*
X3931715Y-13923422D02*
X3922191Y-13932946D01*
X3922191Y-13932946D02*
X3912667Y-13951993D01*
X3912667Y-13951993D02*
X3912667Y-13990088D01*
X3912667Y-13990088D02*
X3922191Y-14009136D01*
X3922191Y-14009136D02*
X3931715Y-14018660D01*
X3931715Y-14018660D02*
X3950762Y-14028184D01*
X3950762Y-14028184D02*
X3988858Y-14028184D01*
X3988858Y-14028184D02*
X4007905Y-14018660D01*
X4007905Y-14018660D02*
X4017429Y-14009136D01*
X4017429Y-14009136D02*
X4026953Y-13990088D01*
X4026953Y-13990088D02*
X4026953Y-13951993D01*
X4026953Y-13951993D02*
X4017429Y-13932946D01*
X4017429Y-13932946D02*
X4007905Y-13923422D01*
X4007905Y-13923422D02*
X3988858Y-13913898D01*
X4150762Y-13828184D02*
X4169810Y-13828184D01*
X4169810Y-13828184D02*
X4188858Y-13837708D01*
X4188858Y-13837708D02*
X4198382Y-13847231D01*
X4198382Y-13847231D02*
X4207905Y-13866279D01*
X4207905Y-13866279D02*
X4217429Y-13904374D01*
X4217429Y-13904374D02*
X4217429Y-13951993D01*
X4217429Y-13951993D02*
X4207905Y-13990088D01*
X4207905Y-13990088D02*
X4198382Y-14009136D01*
X4198382Y-14009136D02*
X4188858Y-14018660D01*
X4188858Y-14018660D02*
X4169810Y-14028184D01*
X4169810Y-14028184D02*
X4150762Y-14028184D01*
X4150762Y-14028184D02*
X4131715Y-14018660D01*
X4131715Y-14018660D02*
X4122191Y-14009136D01*
X4122191Y-14009136D02*
X4112667Y-13990088D01*
X4112667Y-13990088D02*
X4103143Y-13951993D01*
X4103143Y-13951993D02*
X4103143Y-13904374D01*
X4103143Y-13904374D02*
X4112667Y-13866279D01*
X4112667Y-13866279D02*
X4122191Y-13847231D01*
X4122191Y-13847231D02*
X4131715Y-13837708D01*
X4131715Y-13837708D02*
X4150762Y-13828184D01*
X4341239Y-13828184D02*
X4360286Y-13828184D01*
X4360286Y-13828184D02*
X4379334Y-13837708D01*
X4379334Y-13837708D02*
X4388858Y-13847231D01*
X4388858Y-13847231D02*
X4398382Y-13866279D01*
X4398382Y-13866279D02*
X4407905Y-13904374D01*
X4407905Y-13904374D02*
X4407905Y-13951993D01*
X4407905Y-13951993D02*
X4398382Y-13990088D01*
X4398382Y-13990088D02*
X4388858Y-14009136D01*
X4388858Y-14009136D02*
X4379334Y-14018660D01*
X4379334Y-14018660D02*
X4360286Y-14028184D01*
X4360286Y-14028184D02*
X4341239Y-14028184D01*
X4341239Y-14028184D02*
X4322191Y-14018660D01*
X4322191Y-14018660D02*
X4312667Y-14009136D01*
X4312667Y-14009136D02*
X4303144Y-13990088D01*
X4303144Y-13990088D02*
X4293620Y-13951993D01*
X4293620Y-13951993D02*
X4293620Y-13904374D01*
X4293620Y-13904374D02*
X4303144Y-13866279D01*
X4303144Y-13866279D02*
X4312667Y-13847231D01*
X4312667Y-13847231D02*
X4322191Y-13837708D01*
X4322191Y-13837708D02*
X4341239Y-13828184D01*
X4493620Y-14028184D02*
X4493620Y-13894850D01*
X4493620Y-13913898D02*
X4503144Y-13904374D01*
X4503144Y-13904374D02*
X4522191Y-13894850D01*
X4522191Y-13894850D02*
X4550763Y-13894850D01*
X4550763Y-13894850D02*
X4569810Y-13904374D01*
X4569810Y-13904374D02*
X4579334Y-13923422D01*
X4579334Y-13923422D02*
X4579334Y-14028184D01*
X4579334Y-13923422D02*
X4588858Y-13904374D01*
X4588858Y-13904374D02*
X4607905Y-13894850D01*
X4607905Y-13894850D02*
X4636477Y-13894850D01*
X4636477Y-13894850D02*
X4655525Y-13904374D01*
X4655525Y-13904374D02*
X4665048Y-13923422D01*
X4665048Y-13923422D02*
X4665048Y-14028184D01*
X4760286Y-14028184D02*
X4760286Y-13894850D01*
X4760286Y-13913898D02*
X4769810Y-13904374D01*
X4769810Y-13904374D02*
X4788858Y-13894850D01*
X4788858Y-13894850D02*
X4817429Y-13894850D01*
X4817429Y-13894850D02*
X4836477Y-13904374D01*
X4836477Y-13904374D02*
X4846001Y-13923422D01*
X4846001Y-13923422D02*
X4846001Y-14028184D01*
X4846001Y-13923422D02*
X4855525Y-13904374D01*
X4855525Y-13904374D02*
X4874572Y-13894850D01*
X4874572Y-13894850D02*
X4903144Y-13894850D01*
X4903144Y-13894850D02*
X4922191Y-13904374D01*
X4922191Y-13904374D02*
X4931715Y-13923422D01*
X4931715Y-13923422D02*
X4931715Y-14028184D01*
X5322191Y-13818660D02*
X5150763Y-14075803D01*
X5579334Y-13828184D02*
X5598382Y-13828184D01*
X5598382Y-13828184D02*
X5617429Y-13837708D01*
X5617429Y-13837708D02*
X5626953Y-13847231D01*
X5626953Y-13847231D02*
X5636477Y-13866279D01*
X5636477Y-13866279D02*
X5646001Y-13904374D01*
X5646001Y-13904374D02*
X5646001Y-13951993D01*
X5646001Y-13951993D02*
X5636477Y-13990088D01*
X5636477Y-13990088D02*
X5626953Y-14009136D01*
X5626953Y-14009136D02*
X5617429Y-14018660D01*
X5617429Y-14018660D02*
X5598382Y-14028184D01*
X5598382Y-14028184D02*
X5579334Y-14028184D01*
X5579334Y-14028184D02*
X5560287Y-14018660D01*
X5560287Y-14018660D02*
X5550763Y-14009136D01*
X5550763Y-14009136D02*
X5541239Y-13990088D01*
X5541239Y-13990088D02*
X5531715Y-13951993D01*
X5531715Y-13951993D02*
X5531715Y-13904374D01*
X5531715Y-13904374D02*
X5541239Y-13866279D01*
X5541239Y-13866279D02*
X5550763Y-13847231D01*
X5550763Y-13847231D02*
X5560287Y-13837708D01*
X5560287Y-13837708D02*
X5579334Y-13828184D01*
X5731715Y-14009136D02*
X5741239Y-14018660D01*
X5741239Y-14018660D02*
X5731715Y-14028184D01*
X5731715Y-14028184D02*
X5722191Y-14018660D01*
X5722191Y-14018660D02*
X5731715Y-14009136D01*
X5731715Y-14009136D02*
X5731715Y-14028184D01*
X5865048Y-13828184D02*
X5884096Y-13828184D01*
X5884096Y-13828184D02*
X5903144Y-13837708D01*
X5903144Y-13837708D02*
X5912667Y-13847231D01*
X5912667Y-13847231D02*
X5922191Y-13866279D01*
X5922191Y-13866279D02*
X5931715Y-13904374D01*
X5931715Y-13904374D02*
X5931715Y-13951993D01*
X5931715Y-13951993D02*
X5922191Y-13990088D01*
X5922191Y-13990088D02*
X5912667Y-14009136D01*
X5912667Y-14009136D02*
X5903144Y-14018660D01*
X5903144Y-14018660D02*
X5884096Y-14028184D01*
X5884096Y-14028184D02*
X5865048Y-14028184D01*
X5865048Y-14028184D02*
X5846001Y-14018660D01*
X5846001Y-14018660D02*
X5836477Y-14009136D01*
X5836477Y-14009136D02*
X5826953Y-13990088D01*
X5826953Y-13990088D02*
X5817429Y-13951993D01*
X5817429Y-13951993D02*
X5817429Y-13904374D01*
X5817429Y-13904374D02*
X5826953Y-13866279D01*
X5826953Y-13866279D02*
X5836477Y-13847231D01*
X5836477Y-13847231D02*
X5846001Y-13837708D01*
X5846001Y-13837708D02*
X5865048Y-13828184D01*
X5998382Y-13828184D02*
X6122191Y-13828184D01*
X6122191Y-13828184D02*
X6055525Y-13904374D01*
X6055525Y-13904374D02*
X6084096Y-13904374D01*
X6084096Y-13904374D02*
X6103144Y-13913898D01*
X6103144Y-13913898D02*
X6112667Y-13923422D01*
X6112667Y-13923422D02*
X6122191Y-13942469D01*
X6122191Y-13942469D02*
X6122191Y-13990088D01*
X6122191Y-13990088D02*
X6112667Y-14009136D01*
X6112667Y-14009136D02*
X6103144Y-14018660D01*
X6103144Y-14018660D02*
X6084096Y-14028184D01*
X6084096Y-14028184D02*
X6026953Y-14028184D01*
X6026953Y-14028184D02*
X6007906Y-14018660D01*
X6007906Y-14018660D02*
X5998382Y-14009136D01*
X6312667Y-14028184D02*
X6198382Y-14028184D01*
X6255525Y-14028184D02*
X6255525Y-13828184D01*
X6255525Y-13828184D02*
X6236477Y-13856755D01*
X6236477Y-13856755D02*
X6217429Y-13875803D01*
X6217429Y-13875803D02*
X6198382Y-13885327D01*
X6493620Y-13828184D02*
X6398382Y-13828184D01*
X6398382Y-13828184D02*
X6388858Y-13923422D01*
X6388858Y-13923422D02*
X6398382Y-13913898D01*
X6398382Y-13913898D02*
X6417429Y-13904374D01*
X6417429Y-13904374D02*
X6465048Y-13904374D01*
X6465048Y-13904374D02*
X6484096Y-13913898D01*
X6484096Y-13913898D02*
X6493620Y-13923422D01*
X6493620Y-13923422D02*
X6503144Y-13942469D01*
X6503144Y-13942469D02*
X6503144Y-13990088D01*
X6503144Y-13990088D02*
X6493620Y-14009136D01*
X6493620Y-14009136D02*
X6484096Y-14018660D01*
X6484096Y-14018660D02*
X6465048Y-14028184D01*
X6465048Y-14028184D02*
X6417429Y-14028184D01*
X6417429Y-14028184D02*
X6398382Y-14018660D01*
X6398382Y-14018660D02*
X6388858Y-14009136D01*
X6579334Y-13828184D02*
X6579334Y-13866279D01*
X6655525Y-13828184D02*
X6655525Y-13866279D01*
X6950763Y-14104374D02*
X6941239Y-14094850D01*
X6941239Y-14094850D02*
X6922191Y-14066279D01*
X6922191Y-14066279D02*
X6912668Y-14047231D01*
X6912668Y-14047231D02*
X6903144Y-14018660D01*
X6903144Y-14018660D02*
X6893620Y-13971041D01*
X6893620Y-13971041D02*
X6893620Y-13932946D01*
X6893620Y-13932946D02*
X6903144Y-13885327D01*
X6903144Y-13885327D02*
X6912668Y-13856755D01*
X6912668Y-13856755D02*
X6922191Y-13837708D01*
X6922191Y-13837708D02*
X6941239Y-13809136D01*
X6941239Y-13809136D02*
X6950763Y-13799612D01*
X7112668Y-13894850D02*
X7112668Y-14028184D01*
X7065048Y-13818660D02*
X7017429Y-13961517D01*
X7017429Y-13961517D02*
X7141239Y-13961517D01*
X7207906Y-13847231D02*
X7217429Y-13837708D01*
X7217429Y-13837708D02*
X7236477Y-13828184D01*
X7236477Y-13828184D02*
X7284096Y-13828184D01*
X7284096Y-13828184D02*
X7303144Y-13837708D01*
X7303144Y-13837708D02*
X7312668Y-13847231D01*
X7312668Y-13847231D02*
X7322191Y-13866279D01*
X7322191Y-13866279D02*
X7322191Y-13885327D01*
X7322191Y-13885327D02*
X7312668Y-13913898D01*
X7312668Y-13913898D02*
X7198382Y-14028184D01*
X7198382Y-14028184D02*
X7322191Y-14028184D01*
X7560287Y-14028184D02*
X7560287Y-13828184D01*
X7646001Y-14028184D02*
X7646001Y-13923422D01*
X7646001Y-13923422D02*
X7636477Y-13904374D01*
X7636477Y-13904374D02*
X7617430Y-13894850D01*
X7617430Y-13894850D02*
X7588858Y-13894850D01*
X7588858Y-13894850D02*
X7569810Y-13904374D01*
X7569810Y-13904374D02*
X7560287Y-13913898D01*
X7769810Y-14028184D02*
X7750763Y-14018660D01*
X7750763Y-14018660D02*
X7741239Y-14009136D01*
X7741239Y-14009136D02*
X7731715Y-13990088D01*
X7731715Y-13990088D02*
X7731715Y-13932946D01*
X7731715Y-13932946D02*
X7741239Y-13913898D01*
X7741239Y-13913898D02*
X7750763Y-13904374D01*
X7750763Y-13904374D02*
X7769810Y-13894850D01*
X7769810Y-13894850D02*
X7798382Y-13894850D01*
X7798382Y-13894850D02*
X7817430Y-13904374D01*
X7817430Y-13904374D02*
X7826953Y-13913898D01*
X7826953Y-13913898D02*
X7836477Y-13932946D01*
X7836477Y-13932946D02*
X7836477Y-13990088D01*
X7836477Y-13990088D02*
X7826953Y-14009136D01*
X7826953Y-14009136D02*
X7817430Y-14018660D01*
X7817430Y-14018660D02*
X7798382Y-14028184D01*
X7798382Y-14028184D02*
X7769810Y-14028184D01*
X7950763Y-14028184D02*
X7931715Y-14018660D01*
X7931715Y-14018660D02*
X7922191Y-13999612D01*
X7922191Y-13999612D02*
X7922191Y-13828184D01*
X8103144Y-14018660D02*
X8084096Y-14028184D01*
X8084096Y-14028184D02*
X8046001Y-14028184D01*
X8046001Y-14028184D02*
X8026953Y-14018660D01*
X8026953Y-14018660D02*
X8017430Y-13999612D01*
X8017430Y-13999612D02*
X8017430Y-13923422D01*
X8017430Y-13923422D02*
X8026953Y-13904374D01*
X8026953Y-13904374D02*
X8046001Y-13894850D01*
X8046001Y-13894850D02*
X8084096Y-13894850D01*
X8084096Y-13894850D02*
X8103144Y-13904374D01*
X8103144Y-13904374D02*
X8112668Y-13923422D01*
X8112668Y-13923422D02*
X8112668Y-13942469D01*
X8112668Y-13942469D02*
X8017430Y-13961517D01*
X8188858Y-14018660D02*
X8207906Y-14028184D01*
X8207906Y-14028184D02*
X8246001Y-14028184D01*
X8246001Y-14028184D02*
X8265049Y-14018660D01*
X8265049Y-14018660D02*
X8274572Y-13999612D01*
X8274572Y-13999612D02*
X8274572Y-13990088D01*
X8274572Y-13990088D02*
X8265049Y-13971041D01*
X8265049Y-13971041D02*
X8246001Y-13961517D01*
X8246001Y-13961517D02*
X8217430Y-13961517D01*
X8217430Y-13961517D02*
X8198382Y-13951993D01*
X8198382Y-13951993D02*
X8188858Y-13932946D01*
X8188858Y-13932946D02*
X8188858Y-13923422D01*
X8188858Y-13923422D02*
X8198382Y-13904374D01*
X8198382Y-13904374D02*
X8217430Y-13894850D01*
X8217430Y-13894850D02*
X8246001Y-13894850D01*
X8246001Y-13894850D02*
X8265049Y-13904374D01*
X8341239Y-14104374D02*
X8350763Y-14094850D01*
X8350763Y-14094850D02*
X8369811Y-14066279D01*
X8369811Y-14066279D02*
X8379334Y-14047231D01*
X8379334Y-14047231D02*
X8388858Y-14018660D01*
X8388858Y-14018660D02*
X8398382Y-13971041D01*
X8398382Y-13971041D02*
X8398382Y-13932946D01*
X8398382Y-13932946D02*
X8388858Y-13885327D01*
X8388858Y-13885327D02*
X8379334Y-13856755D01*
X8379334Y-13856755D02*
X8369811Y-13837708D01*
X8369811Y-13837708D02*
X8350763Y-13809136D01*
X8350763Y-13809136D02*
X8341239Y-13799612D01*
D12*
X3328200Y-14153200D02*
X3328200Y-14248200D01*
X3280700Y-14200700D02*
X3375700Y-14200700D01*
D11*
X3674572Y-14092184D02*
X3693620Y-14092184D01*
X3693620Y-14092184D02*
X3712667Y-14101708D01*
X3712667Y-14101708D02*
X3722191Y-14111231D01*
X3722191Y-14111231D02*
X3731715Y-14130279D01*
X3731715Y-14130279D02*
X3741239Y-14168374D01*
X3741239Y-14168374D02*
X3741239Y-14215993D01*
X3741239Y-14215993D02*
X3731715Y-14254088D01*
X3731715Y-14254088D02*
X3722191Y-14273136D01*
X3722191Y-14273136D02*
X3712667Y-14282660D01*
X3712667Y-14282660D02*
X3693620Y-14292184D01*
X3693620Y-14292184D02*
X3674572Y-14292184D01*
X3674572Y-14292184D02*
X3655524Y-14282660D01*
X3655524Y-14282660D02*
X3646001Y-14273136D01*
X3646001Y-14273136D02*
X3636477Y-14254088D01*
X3636477Y-14254088D02*
X3626953Y-14215993D01*
X3626953Y-14215993D02*
X3626953Y-14168374D01*
X3626953Y-14168374D02*
X3636477Y-14130279D01*
X3636477Y-14130279D02*
X3646001Y-14111231D01*
X3646001Y-14111231D02*
X3655524Y-14101708D01*
X3655524Y-14101708D02*
X3674572Y-14092184D01*
X3826953Y-14273136D02*
X3836477Y-14282660D01*
X3836477Y-14282660D02*
X3826953Y-14292184D01*
X3826953Y-14292184D02*
X3817429Y-14282660D01*
X3817429Y-14282660D02*
X3826953Y-14273136D01*
X3826953Y-14273136D02*
X3826953Y-14292184D01*
X3931715Y-14292184D02*
X3969810Y-14292184D01*
X3969810Y-14292184D02*
X3988858Y-14282660D01*
X3988858Y-14282660D02*
X3998382Y-14273136D01*
X3998382Y-14273136D02*
X4017429Y-14244565D01*
X4017429Y-14244565D02*
X4026953Y-14206469D01*
X4026953Y-14206469D02*
X4026953Y-14130279D01*
X4026953Y-14130279D02*
X4017429Y-14111231D01*
X4017429Y-14111231D02*
X4007905Y-14101708D01*
X4007905Y-14101708D02*
X3988858Y-14092184D01*
X3988858Y-14092184D02*
X3950762Y-14092184D01*
X3950762Y-14092184D02*
X3931715Y-14101708D01*
X3931715Y-14101708D02*
X3922191Y-14111231D01*
X3922191Y-14111231D02*
X3912667Y-14130279D01*
X3912667Y-14130279D02*
X3912667Y-14177898D01*
X3912667Y-14177898D02*
X3922191Y-14196946D01*
X3922191Y-14196946D02*
X3931715Y-14206469D01*
X3931715Y-14206469D02*
X3950762Y-14215993D01*
X3950762Y-14215993D02*
X3988858Y-14215993D01*
X3988858Y-14215993D02*
X4007905Y-14206469D01*
X4007905Y-14206469D02*
X4017429Y-14196946D01*
X4017429Y-14196946D02*
X4026953Y-14177898D01*
X4207905Y-14092184D02*
X4112667Y-14092184D01*
X4112667Y-14092184D02*
X4103143Y-14187422D01*
X4103143Y-14187422D02*
X4112667Y-14177898D01*
X4112667Y-14177898D02*
X4131715Y-14168374D01*
X4131715Y-14168374D02*
X4179334Y-14168374D01*
X4179334Y-14168374D02*
X4198382Y-14177898D01*
X4198382Y-14177898D02*
X4207905Y-14187422D01*
X4207905Y-14187422D02*
X4217429Y-14206469D01*
X4217429Y-14206469D02*
X4217429Y-14254088D01*
X4217429Y-14254088D02*
X4207905Y-14273136D01*
X4207905Y-14273136D02*
X4198382Y-14282660D01*
X4198382Y-14282660D02*
X4179334Y-14292184D01*
X4179334Y-14292184D02*
X4131715Y-14292184D01*
X4131715Y-14292184D02*
X4112667Y-14282660D01*
X4112667Y-14282660D02*
X4103143Y-14273136D01*
X4341239Y-14092184D02*
X4360286Y-14092184D01*
X4360286Y-14092184D02*
X4379334Y-14101708D01*
X4379334Y-14101708D02*
X4388858Y-14111231D01*
X4388858Y-14111231D02*
X4398382Y-14130279D01*
X4398382Y-14130279D02*
X4407905Y-14168374D01*
X4407905Y-14168374D02*
X4407905Y-14215993D01*
X4407905Y-14215993D02*
X4398382Y-14254088D01*
X4398382Y-14254088D02*
X4388858Y-14273136D01*
X4388858Y-14273136D02*
X4379334Y-14282660D01*
X4379334Y-14282660D02*
X4360286Y-14292184D01*
X4360286Y-14292184D02*
X4341239Y-14292184D01*
X4341239Y-14292184D02*
X4322191Y-14282660D01*
X4322191Y-14282660D02*
X4312667Y-14273136D01*
X4312667Y-14273136D02*
X4303144Y-14254088D01*
X4303144Y-14254088D02*
X4293620Y-14215993D01*
X4293620Y-14215993D02*
X4293620Y-14168374D01*
X4293620Y-14168374D02*
X4303144Y-14130279D01*
X4303144Y-14130279D02*
X4312667Y-14111231D01*
X4312667Y-14111231D02*
X4322191Y-14101708D01*
X4322191Y-14101708D02*
X4341239Y-14092184D01*
X4493620Y-14292184D02*
X4493620Y-14158850D01*
X4493620Y-14177898D02*
X4503144Y-14168374D01*
X4503144Y-14168374D02*
X4522191Y-14158850D01*
X4522191Y-14158850D02*
X4550763Y-14158850D01*
X4550763Y-14158850D02*
X4569810Y-14168374D01*
X4569810Y-14168374D02*
X4579334Y-14187422D01*
X4579334Y-14187422D02*
X4579334Y-14292184D01*
X4579334Y-14187422D02*
X4588858Y-14168374D01*
X4588858Y-14168374D02*
X4607905Y-14158850D01*
X4607905Y-14158850D02*
X4636477Y-14158850D01*
X4636477Y-14158850D02*
X4655525Y-14168374D01*
X4655525Y-14168374D02*
X4665048Y-14187422D01*
X4665048Y-14187422D02*
X4665048Y-14292184D01*
X4760286Y-14292184D02*
X4760286Y-14158850D01*
X4760286Y-14177898D02*
X4769810Y-14168374D01*
X4769810Y-14168374D02*
X4788858Y-14158850D01*
X4788858Y-14158850D02*
X4817429Y-14158850D01*
X4817429Y-14158850D02*
X4836477Y-14168374D01*
X4836477Y-14168374D02*
X4846001Y-14187422D01*
X4846001Y-14187422D02*
X4846001Y-14292184D01*
X4846001Y-14187422D02*
X4855525Y-14168374D01*
X4855525Y-14168374D02*
X4874572Y-14158850D01*
X4874572Y-14158850D02*
X4903144Y-14158850D01*
X4903144Y-14158850D02*
X4922191Y-14168374D01*
X4922191Y-14168374D02*
X4931715Y-14187422D01*
X4931715Y-14187422D02*
X4931715Y-14292184D01*
X5322191Y-14082660D02*
X5150763Y-14339803D01*
X5579334Y-14092184D02*
X5598382Y-14092184D01*
X5598382Y-14092184D02*
X5617429Y-14101708D01*
X5617429Y-14101708D02*
X5626953Y-14111231D01*
X5626953Y-14111231D02*
X5636477Y-14130279D01*
X5636477Y-14130279D02*
X5646001Y-14168374D01*
X5646001Y-14168374D02*
X5646001Y-14215993D01*
X5646001Y-14215993D02*
X5636477Y-14254088D01*
X5636477Y-14254088D02*
X5626953Y-14273136D01*
X5626953Y-14273136D02*
X5617429Y-14282660D01*
X5617429Y-14282660D02*
X5598382Y-14292184D01*
X5598382Y-14292184D02*
X5579334Y-14292184D01*
X5579334Y-14292184D02*
X5560287Y-14282660D01*
X5560287Y-14282660D02*
X5550763Y-14273136D01*
X5550763Y-14273136D02*
X5541239Y-14254088D01*
X5541239Y-14254088D02*
X5531715Y-14215993D01*
X5531715Y-14215993D02*
X5531715Y-14168374D01*
X5531715Y-14168374D02*
X5541239Y-14130279D01*
X5541239Y-14130279D02*
X5550763Y-14111231D01*
X5550763Y-14111231D02*
X5560287Y-14101708D01*
X5560287Y-14101708D02*
X5579334Y-14092184D01*
X5731715Y-14273136D02*
X5741239Y-14282660D01*
X5741239Y-14282660D02*
X5731715Y-14292184D01*
X5731715Y-14292184D02*
X5722191Y-14282660D01*
X5722191Y-14282660D02*
X5731715Y-14273136D01*
X5731715Y-14273136D02*
X5731715Y-14292184D01*
X5865048Y-14092184D02*
X5884096Y-14092184D01*
X5884096Y-14092184D02*
X5903144Y-14101708D01*
X5903144Y-14101708D02*
X5912667Y-14111231D01*
X5912667Y-14111231D02*
X5922191Y-14130279D01*
X5922191Y-14130279D02*
X5931715Y-14168374D01*
X5931715Y-14168374D02*
X5931715Y-14215993D01*
X5931715Y-14215993D02*
X5922191Y-14254088D01*
X5922191Y-14254088D02*
X5912667Y-14273136D01*
X5912667Y-14273136D02*
X5903144Y-14282660D01*
X5903144Y-14282660D02*
X5884096Y-14292184D01*
X5884096Y-14292184D02*
X5865048Y-14292184D01*
X5865048Y-14292184D02*
X5846001Y-14282660D01*
X5846001Y-14282660D02*
X5836477Y-14273136D01*
X5836477Y-14273136D02*
X5826953Y-14254088D01*
X5826953Y-14254088D02*
X5817429Y-14215993D01*
X5817429Y-14215993D02*
X5817429Y-14168374D01*
X5817429Y-14168374D02*
X5826953Y-14130279D01*
X5826953Y-14130279D02*
X5836477Y-14111231D01*
X5836477Y-14111231D02*
X5846001Y-14101708D01*
X5846001Y-14101708D02*
X5865048Y-14092184D01*
X5998382Y-14092184D02*
X6122191Y-14092184D01*
X6122191Y-14092184D02*
X6055525Y-14168374D01*
X6055525Y-14168374D02*
X6084096Y-14168374D01*
X6084096Y-14168374D02*
X6103144Y-14177898D01*
X6103144Y-14177898D02*
X6112667Y-14187422D01*
X6112667Y-14187422D02*
X6122191Y-14206469D01*
X6122191Y-14206469D02*
X6122191Y-14254088D01*
X6122191Y-14254088D02*
X6112667Y-14273136D01*
X6112667Y-14273136D02*
X6103144Y-14282660D01*
X6103144Y-14282660D02*
X6084096Y-14292184D01*
X6084096Y-14292184D02*
X6026953Y-14292184D01*
X6026953Y-14292184D02*
X6007906Y-14282660D01*
X6007906Y-14282660D02*
X5998382Y-14273136D01*
X6188858Y-14092184D02*
X6322191Y-14092184D01*
X6322191Y-14092184D02*
X6236477Y-14292184D01*
X6484096Y-14158850D02*
X6484096Y-14292184D01*
X6436477Y-14082660D02*
X6388858Y-14225517D01*
X6388858Y-14225517D02*
X6512667Y-14225517D01*
X6579334Y-14092184D02*
X6579334Y-14130279D01*
X6655525Y-14092184D02*
X6655525Y-14130279D01*
X6950763Y-14368374D02*
X6941239Y-14358850D01*
X6941239Y-14358850D02*
X6922191Y-14330279D01*
X6922191Y-14330279D02*
X6912668Y-14311231D01*
X6912668Y-14311231D02*
X6903144Y-14282660D01*
X6903144Y-14282660D02*
X6893620Y-14235041D01*
X6893620Y-14235041D02*
X6893620Y-14196946D01*
X6893620Y-14196946D02*
X6903144Y-14149327D01*
X6903144Y-14149327D02*
X6912668Y-14120755D01*
X6912668Y-14120755D02*
X6922191Y-14101708D01*
X6922191Y-14101708D02*
X6941239Y-14073136D01*
X6941239Y-14073136D02*
X6950763Y-14063612D01*
X7036477Y-14292184D02*
X7074572Y-14292184D01*
X7074572Y-14292184D02*
X7093620Y-14282660D01*
X7093620Y-14282660D02*
X7103144Y-14273136D01*
X7103144Y-14273136D02*
X7122191Y-14244565D01*
X7122191Y-14244565D02*
X7131715Y-14206469D01*
X7131715Y-14206469D02*
X7131715Y-14130279D01*
X7131715Y-14130279D02*
X7122191Y-14111231D01*
X7122191Y-14111231D02*
X7112668Y-14101708D01*
X7112668Y-14101708D02*
X7093620Y-14092184D01*
X7093620Y-14092184D02*
X7055525Y-14092184D01*
X7055525Y-14092184D02*
X7036477Y-14101708D01*
X7036477Y-14101708D02*
X7026953Y-14111231D01*
X7026953Y-14111231D02*
X7017429Y-14130279D01*
X7017429Y-14130279D02*
X7017429Y-14177898D01*
X7017429Y-14177898D02*
X7026953Y-14196946D01*
X7026953Y-14196946D02*
X7036477Y-14206469D01*
X7036477Y-14206469D02*
X7055525Y-14215993D01*
X7055525Y-14215993D02*
X7093620Y-14215993D01*
X7093620Y-14215993D02*
X7112668Y-14206469D01*
X7112668Y-14206469D02*
X7122191Y-14196946D01*
X7122191Y-14196946D02*
X7131715Y-14177898D01*
X7369810Y-14292184D02*
X7369810Y-14092184D01*
X7455525Y-14292184D02*
X7455525Y-14187422D01*
X7455525Y-14187422D02*
X7446001Y-14168374D01*
X7446001Y-14168374D02*
X7426953Y-14158850D01*
X7426953Y-14158850D02*
X7398382Y-14158850D01*
X7398382Y-14158850D02*
X7379334Y-14168374D01*
X7379334Y-14168374D02*
X7369810Y-14177898D01*
X7579334Y-14292184D02*
X7560287Y-14282660D01*
X7560287Y-14282660D02*
X7550763Y-14273136D01*
X7550763Y-14273136D02*
X7541239Y-14254088D01*
X7541239Y-14254088D02*
X7541239Y-14196946D01*
X7541239Y-14196946D02*
X7550763Y-14177898D01*
X7550763Y-14177898D02*
X7560287Y-14168374D01*
X7560287Y-14168374D02*
X7579334Y-14158850D01*
X7579334Y-14158850D02*
X7607906Y-14158850D01*
X7607906Y-14158850D02*
X7626953Y-14168374D01*
X7626953Y-14168374D02*
X7636477Y-14177898D01*
X7636477Y-14177898D02*
X7646001Y-14196946D01*
X7646001Y-14196946D02*
X7646001Y-14254088D01*
X7646001Y-14254088D02*
X7636477Y-14273136D01*
X7636477Y-14273136D02*
X7626953Y-14282660D01*
X7626953Y-14282660D02*
X7607906Y-14292184D01*
X7607906Y-14292184D02*
X7579334Y-14292184D01*
X7760287Y-14292184D02*
X7741239Y-14282660D01*
X7741239Y-14282660D02*
X7731715Y-14263612D01*
X7731715Y-14263612D02*
X7731715Y-14092184D01*
X7912668Y-14282660D02*
X7893620Y-14292184D01*
X7893620Y-14292184D02*
X7855525Y-14292184D01*
X7855525Y-14292184D02*
X7836477Y-14282660D01*
X7836477Y-14282660D02*
X7826953Y-14263612D01*
X7826953Y-14263612D02*
X7826953Y-14187422D01*
X7826953Y-14187422D02*
X7836477Y-14168374D01*
X7836477Y-14168374D02*
X7855525Y-14158850D01*
X7855525Y-14158850D02*
X7893620Y-14158850D01*
X7893620Y-14158850D02*
X7912668Y-14168374D01*
X7912668Y-14168374D02*
X7922191Y-14187422D01*
X7922191Y-14187422D02*
X7922191Y-14206469D01*
X7922191Y-14206469D02*
X7826953Y-14225517D01*
X7998382Y-14282660D02*
X8017430Y-14292184D01*
X8017430Y-14292184D02*
X8055525Y-14292184D01*
X8055525Y-14292184D02*
X8074572Y-14282660D01*
X8074572Y-14282660D02*
X8084096Y-14263612D01*
X8084096Y-14263612D02*
X8084096Y-14254088D01*
X8084096Y-14254088D02*
X8074572Y-14235041D01*
X8074572Y-14235041D02*
X8055525Y-14225517D01*
X8055525Y-14225517D02*
X8026953Y-14225517D01*
X8026953Y-14225517D02*
X8007906Y-14215993D01*
X8007906Y-14215993D02*
X7998382Y-14196946D01*
X7998382Y-14196946D02*
X7998382Y-14187422D01*
X7998382Y-14187422D02*
X8007906Y-14168374D01*
X8007906Y-14168374D02*
X8026953Y-14158850D01*
X8026953Y-14158850D02*
X8055525Y-14158850D01*
X8055525Y-14158850D02*
X8074572Y-14168374D01*
X8150763Y-14368374D02*
X8160287Y-14358850D01*
X8160287Y-14358850D02*
X8179334Y-14330279D01*
X8179334Y-14330279D02*
X8188858Y-14311231D01*
X8188858Y-14311231D02*
X8198382Y-14282660D01*
X8198382Y-14282660D02*
X8207906Y-14235041D01*
X8207906Y-14235041D02*
X8207906Y-14196946D01*
X8207906Y-14196946D02*
X8198382Y-14149327D01*
X8198382Y-14149327D02*
X8188858Y-14120755D01*
X8188858Y-14120755D02*
X8179334Y-14101708D01*
X8179334Y-14101708D02*
X8160287Y-14073136D01*
X8160287Y-14073136D02*
X8150763Y-14063612D01*
D12*
X3361056Y-14500056D02*
X3361056Y-14429344D01*
X3290344Y-14429344D01*
X3290344Y-14500056D01*
X3361056Y-14500056D01*
D11*
X3741239Y-14556184D02*
X3626953Y-14556184D01*
X3684096Y-14556184D02*
X3684096Y-14356184D01*
X3684096Y-14356184D02*
X3665048Y-14384755D01*
X3665048Y-14384755D02*
X3646001Y-14403803D01*
X3646001Y-14403803D02*
X3626953Y-14413327D01*
X3826953Y-14537136D02*
X3836477Y-14546660D01*
X3836477Y-14546660D02*
X3826953Y-14556184D01*
X3826953Y-14556184D02*
X3817429Y-14546660D01*
X3817429Y-14546660D02*
X3826953Y-14537136D01*
X3826953Y-14537136D02*
X3826953Y-14556184D01*
X3960286Y-14356184D02*
X3979334Y-14356184D01*
X3979334Y-14356184D02*
X3998382Y-14365708D01*
X3998382Y-14365708D02*
X4007905Y-14375231D01*
X4007905Y-14375231D02*
X4017429Y-14394279D01*
X4017429Y-14394279D02*
X4026953Y-14432374D01*
X4026953Y-14432374D02*
X4026953Y-14479993D01*
X4026953Y-14479993D02*
X4017429Y-14518088D01*
X4017429Y-14518088D02*
X4007905Y-14537136D01*
X4007905Y-14537136D02*
X3998382Y-14546660D01*
X3998382Y-14546660D02*
X3979334Y-14556184D01*
X3979334Y-14556184D02*
X3960286Y-14556184D01*
X3960286Y-14556184D02*
X3941239Y-14546660D01*
X3941239Y-14546660D02*
X3931715Y-14537136D01*
X3931715Y-14537136D02*
X3922191Y-14518088D01*
X3922191Y-14518088D02*
X3912667Y-14479993D01*
X3912667Y-14479993D02*
X3912667Y-14432374D01*
X3912667Y-14432374D02*
X3922191Y-14394279D01*
X3922191Y-14394279D02*
X3931715Y-14375231D01*
X3931715Y-14375231D02*
X3941239Y-14365708D01*
X3941239Y-14365708D02*
X3960286Y-14356184D01*
X4150762Y-14356184D02*
X4169810Y-14356184D01*
X4169810Y-14356184D02*
X4188858Y-14365708D01*
X4188858Y-14365708D02*
X4198382Y-14375231D01*
X4198382Y-14375231D02*
X4207905Y-14394279D01*
X4207905Y-14394279D02*
X4217429Y-14432374D01*
X4217429Y-14432374D02*
X4217429Y-14479993D01*
X4217429Y-14479993D02*
X4207905Y-14518088D01*
X4207905Y-14518088D02*
X4198382Y-14537136D01*
X4198382Y-14537136D02*
X4188858Y-14546660D01*
X4188858Y-14546660D02*
X4169810Y-14556184D01*
X4169810Y-14556184D02*
X4150762Y-14556184D01*
X4150762Y-14556184D02*
X4131715Y-14546660D01*
X4131715Y-14546660D02*
X4122191Y-14537136D01*
X4122191Y-14537136D02*
X4112667Y-14518088D01*
X4112667Y-14518088D02*
X4103143Y-14479993D01*
X4103143Y-14479993D02*
X4103143Y-14432374D01*
X4103143Y-14432374D02*
X4112667Y-14394279D01*
X4112667Y-14394279D02*
X4122191Y-14375231D01*
X4122191Y-14375231D02*
X4131715Y-14365708D01*
X4131715Y-14365708D02*
X4150762Y-14356184D01*
X4341239Y-14356184D02*
X4360286Y-14356184D01*
X4360286Y-14356184D02*
X4379334Y-14365708D01*
X4379334Y-14365708D02*
X4388858Y-14375231D01*
X4388858Y-14375231D02*
X4398382Y-14394279D01*
X4398382Y-14394279D02*
X4407905Y-14432374D01*
X4407905Y-14432374D02*
X4407905Y-14479993D01*
X4407905Y-14479993D02*
X4398382Y-14518088D01*
X4398382Y-14518088D02*
X4388858Y-14537136D01*
X4388858Y-14537136D02*
X4379334Y-14546660D01*
X4379334Y-14546660D02*
X4360286Y-14556184D01*
X4360286Y-14556184D02*
X4341239Y-14556184D01*
X4341239Y-14556184D02*
X4322191Y-14546660D01*
X4322191Y-14546660D02*
X4312667Y-14537136D01*
X4312667Y-14537136D02*
X4303144Y-14518088D01*
X4303144Y-14518088D02*
X4293620Y-14479993D01*
X4293620Y-14479993D02*
X4293620Y-14432374D01*
X4293620Y-14432374D02*
X4303144Y-14394279D01*
X4303144Y-14394279D02*
X4312667Y-14375231D01*
X4312667Y-14375231D02*
X4322191Y-14365708D01*
X4322191Y-14365708D02*
X4341239Y-14356184D01*
X4493620Y-14556184D02*
X4493620Y-14422850D01*
X4493620Y-14441898D02*
X4503144Y-14432374D01*
X4503144Y-14432374D02*
X4522191Y-14422850D01*
X4522191Y-14422850D02*
X4550763Y-14422850D01*
X4550763Y-14422850D02*
X4569810Y-14432374D01*
X4569810Y-14432374D02*
X4579334Y-14451422D01*
X4579334Y-14451422D02*
X4579334Y-14556184D01*
X4579334Y-14451422D02*
X4588858Y-14432374D01*
X4588858Y-14432374D02*
X4607905Y-14422850D01*
X4607905Y-14422850D02*
X4636477Y-14422850D01*
X4636477Y-14422850D02*
X4655525Y-14432374D01*
X4655525Y-14432374D02*
X4665048Y-14451422D01*
X4665048Y-14451422D02*
X4665048Y-14556184D01*
X4760286Y-14556184D02*
X4760286Y-14422850D01*
X4760286Y-14441898D02*
X4769810Y-14432374D01*
X4769810Y-14432374D02*
X4788858Y-14422850D01*
X4788858Y-14422850D02*
X4817429Y-14422850D01*
X4817429Y-14422850D02*
X4836477Y-14432374D01*
X4836477Y-14432374D02*
X4846001Y-14451422D01*
X4846001Y-14451422D02*
X4846001Y-14556184D01*
X4846001Y-14451422D02*
X4855525Y-14432374D01*
X4855525Y-14432374D02*
X4874572Y-14422850D01*
X4874572Y-14422850D02*
X4903144Y-14422850D01*
X4903144Y-14422850D02*
X4922191Y-14432374D01*
X4922191Y-14432374D02*
X4931715Y-14451422D01*
X4931715Y-14451422D02*
X4931715Y-14556184D01*
X5322191Y-14346660D02*
X5150763Y-14603803D01*
X5579334Y-14356184D02*
X5598382Y-14356184D01*
X5598382Y-14356184D02*
X5617429Y-14365708D01*
X5617429Y-14365708D02*
X5626953Y-14375231D01*
X5626953Y-14375231D02*
X5636477Y-14394279D01*
X5636477Y-14394279D02*
X5646001Y-14432374D01*
X5646001Y-14432374D02*
X5646001Y-14479993D01*
X5646001Y-14479993D02*
X5636477Y-14518088D01*
X5636477Y-14518088D02*
X5626953Y-14537136D01*
X5626953Y-14537136D02*
X5617429Y-14546660D01*
X5617429Y-14546660D02*
X5598382Y-14556184D01*
X5598382Y-14556184D02*
X5579334Y-14556184D01*
X5579334Y-14556184D02*
X5560287Y-14546660D01*
X5560287Y-14546660D02*
X5550763Y-14537136D01*
X5550763Y-14537136D02*
X5541239Y-14518088D01*
X5541239Y-14518088D02*
X5531715Y-14479993D01*
X5531715Y-14479993D02*
X5531715Y-14432374D01*
X5531715Y-14432374D02*
X5541239Y-14394279D01*
X5541239Y-14394279D02*
X5550763Y-14375231D01*
X5550763Y-14375231D02*
X5560287Y-14365708D01*
X5560287Y-14365708D02*
X5579334Y-14356184D01*
X5731715Y-14537136D02*
X5741239Y-14546660D01*
X5741239Y-14546660D02*
X5731715Y-14556184D01*
X5731715Y-14556184D02*
X5722191Y-14546660D01*
X5722191Y-14546660D02*
X5731715Y-14537136D01*
X5731715Y-14537136D02*
X5731715Y-14556184D01*
X5865048Y-14356184D02*
X5884096Y-14356184D01*
X5884096Y-14356184D02*
X5903144Y-14365708D01*
X5903144Y-14365708D02*
X5912667Y-14375231D01*
X5912667Y-14375231D02*
X5922191Y-14394279D01*
X5922191Y-14394279D02*
X5931715Y-14432374D01*
X5931715Y-14432374D02*
X5931715Y-14479993D01*
X5931715Y-14479993D02*
X5922191Y-14518088D01*
X5922191Y-14518088D02*
X5912667Y-14537136D01*
X5912667Y-14537136D02*
X5903144Y-14546660D01*
X5903144Y-14546660D02*
X5884096Y-14556184D01*
X5884096Y-14556184D02*
X5865048Y-14556184D01*
X5865048Y-14556184D02*
X5846001Y-14546660D01*
X5846001Y-14546660D02*
X5836477Y-14537136D01*
X5836477Y-14537136D02*
X5826953Y-14518088D01*
X5826953Y-14518088D02*
X5817429Y-14479993D01*
X5817429Y-14479993D02*
X5817429Y-14432374D01*
X5817429Y-14432374D02*
X5826953Y-14394279D01*
X5826953Y-14394279D02*
X5836477Y-14375231D01*
X5836477Y-14375231D02*
X5846001Y-14365708D01*
X5846001Y-14365708D02*
X5865048Y-14356184D01*
X5998382Y-14356184D02*
X6122191Y-14356184D01*
X6122191Y-14356184D02*
X6055525Y-14432374D01*
X6055525Y-14432374D02*
X6084096Y-14432374D01*
X6084096Y-14432374D02*
X6103144Y-14441898D01*
X6103144Y-14441898D02*
X6112667Y-14451422D01*
X6112667Y-14451422D02*
X6122191Y-14470469D01*
X6122191Y-14470469D02*
X6122191Y-14518088D01*
X6122191Y-14518088D02*
X6112667Y-14537136D01*
X6112667Y-14537136D02*
X6103144Y-14546660D01*
X6103144Y-14546660D02*
X6084096Y-14556184D01*
X6084096Y-14556184D02*
X6026953Y-14556184D01*
X6026953Y-14556184D02*
X6007906Y-14546660D01*
X6007906Y-14546660D02*
X5998382Y-14537136D01*
X6217429Y-14556184D02*
X6255525Y-14556184D01*
X6255525Y-14556184D02*
X6274572Y-14546660D01*
X6274572Y-14546660D02*
X6284096Y-14537136D01*
X6284096Y-14537136D02*
X6303144Y-14508565D01*
X6303144Y-14508565D02*
X6312667Y-14470469D01*
X6312667Y-14470469D02*
X6312667Y-14394279D01*
X6312667Y-14394279D02*
X6303144Y-14375231D01*
X6303144Y-14375231D02*
X6293620Y-14365708D01*
X6293620Y-14365708D02*
X6274572Y-14356184D01*
X6274572Y-14356184D02*
X6236477Y-14356184D01*
X6236477Y-14356184D02*
X6217429Y-14365708D01*
X6217429Y-14365708D02*
X6207906Y-14375231D01*
X6207906Y-14375231D02*
X6198382Y-14394279D01*
X6198382Y-14394279D02*
X6198382Y-14441898D01*
X6198382Y-14441898D02*
X6207906Y-14460946D01*
X6207906Y-14460946D02*
X6217429Y-14470469D01*
X6217429Y-14470469D02*
X6236477Y-14479993D01*
X6236477Y-14479993D02*
X6274572Y-14479993D01*
X6274572Y-14479993D02*
X6293620Y-14470469D01*
X6293620Y-14470469D02*
X6303144Y-14460946D01*
X6303144Y-14460946D02*
X6312667Y-14441898D01*
X6484096Y-14422850D02*
X6484096Y-14556184D01*
X6436477Y-14346660D02*
X6388858Y-14489517D01*
X6388858Y-14489517D02*
X6512667Y-14489517D01*
X6579334Y-14356184D02*
X6579334Y-14394279D01*
X6655525Y-14356184D02*
X6655525Y-14394279D01*
X6950763Y-14632374D02*
X6941239Y-14622850D01*
X6941239Y-14622850D02*
X6922191Y-14594279D01*
X6922191Y-14594279D02*
X6912668Y-14575231D01*
X6912668Y-14575231D02*
X6903144Y-14546660D01*
X6903144Y-14546660D02*
X6893620Y-14499041D01*
X6893620Y-14499041D02*
X6893620Y-14460946D01*
X6893620Y-14460946D02*
X6903144Y-14413327D01*
X6903144Y-14413327D02*
X6912668Y-14384755D01*
X6912668Y-14384755D02*
X6922191Y-14365708D01*
X6922191Y-14365708D02*
X6941239Y-14337136D01*
X6941239Y-14337136D02*
X6950763Y-14327612D01*
X7122191Y-14356184D02*
X7026953Y-14356184D01*
X7026953Y-14356184D02*
X7017429Y-14451422D01*
X7017429Y-14451422D02*
X7026953Y-14441898D01*
X7026953Y-14441898D02*
X7046001Y-14432374D01*
X7046001Y-14432374D02*
X7093620Y-14432374D01*
X7093620Y-14432374D02*
X7112668Y-14441898D01*
X7112668Y-14441898D02*
X7122191Y-14451422D01*
X7122191Y-14451422D02*
X7131715Y-14470469D01*
X7131715Y-14470469D02*
X7131715Y-14518088D01*
X7131715Y-14518088D02*
X7122191Y-14537136D01*
X7122191Y-14537136D02*
X7112668Y-14546660D01*
X7112668Y-14546660D02*
X7093620Y-14556184D01*
X7093620Y-14556184D02*
X7046001Y-14556184D01*
X7046001Y-14556184D02*
X7026953Y-14546660D01*
X7026953Y-14546660D02*
X7017429Y-14537136D01*
X7369810Y-14556184D02*
X7369810Y-14356184D01*
X7455525Y-14556184D02*
X7455525Y-14451422D01*
X7455525Y-14451422D02*
X7446001Y-14432374D01*
X7446001Y-14432374D02*
X7426953Y-14422850D01*
X7426953Y-14422850D02*
X7398382Y-14422850D01*
X7398382Y-14422850D02*
X7379334Y-14432374D01*
X7379334Y-14432374D02*
X7369810Y-14441898D01*
X7579334Y-14556184D02*
X7560287Y-14546660D01*
X7560287Y-14546660D02*
X7550763Y-14537136D01*
X7550763Y-14537136D02*
X7541239Y-14518088D01*
X7541239Y-14518088D02*
X7541239Y-14460946D01*
X7541239Y-14460946D02*
X7550763Y-14441898D01*
X7550763Y-14441898D02*
X7560287Y-14432374D01*
X7560287Y-14432374D02*
X7579334Y-14422850D01*
X7579334Y-14422850D02*
X7607906Y-14422850D01*
X7607906Y-14422850D02*
X7626953Y-14432374D01*
X7626953Y-14432374D02*
X7636477Y-14441898D01*
X7636477Y-14441898D02*
X7646001Y-14460946D01*
X7646001Y-14460946D02*
X7646001Y-14518088D01*
X7646001Y-14518088D02*
X7636477Y-14537136D01*
X7636477Y-14537136D02*
X7626953Y-14546660D01*
X7626953Y-14546660D02*
X7607906Y-14556184D01*
X7607906Y-14556184D02*
X7579334Y-14556184D01*
X7760287Y-14556184D02*
X7741239Y-14546660D01*
X7741239Y-14546660D02*
X7731715Y-14527612D01*
X7731715Y-14527612D02*
X7731715Y-14356184D01*
X7912668Y-14546660D02*
X7893620Y-14556184D01*
X7893620Y-14556184D02*
X7855525Y-14556184D01*
X7855525Y-14556184D02*
X7836477Y-14546660D01*
X7836477Y-14546660D02*
X7826953Y-14527612D01*
X7826953Y-14527612D02*
X7826953Y-14451422D01*
X7826953Y-14451422D02*
X7836477Y-14432374D01*
X7836477Y-14432374D02*
X7855525Y-14422850D01*
X7855525Y-14422850D02*
X7893620Y-14422850D01*
X7893620Y-14422850D02*
X7912668Y-14432374D01*
X7912668Y-14432374D02*
X7922191Y-14451422D01*
X7922191Y-14451422D02*
X7922191Y-14470469D01*
X7922191Y-14470469D02*
X7826953Y-14489517D01*
X7998382Y-14546660D02*
X8017430Y-14556184D01*
X8017430Y-14556184D02*
X8055525Y-14556184D01*
X8055525Y-14556184D02*
X8074572Y-14546660D01*
X8074572Y-14546660D02*
X8084096Y-14527612D01*
X8084096Y-14527612D02*
X8084096Y-14518088D01*
X8084096Y-14518088D02*
X8074572Y-14499041D01*
X8074572Y-14499041D02*
X8055525Y-14489517D01*
X8055525Y-14489517D02*
X8026953Y-14489517D01*
X8026953Y-14489517D02*
X8007906Y-14479993D01*
X8007906Y-14479993D02*
X7998382Y-14460946D01*
X7998382Y-14460946D02*
X7998382Y-14451422D01*
X7998382Y-14451422D02*
X8007906Y-14432374D01*
X8007906Y-14432374D02*
X8026953Y-14422850D01*
X8026953Y-14422850D02*
X8055525Y-14422850D01*
X8055525Y-14422850D02*
X8074572Y-14432374D01*
X8150763Y-14632374D02*
X8160287Y-14622850D01*
X8160287Y-14622850D02*
X8179334Y-14594279D01*
X8179334Y-14594279D02*
X8188858Y-14575231D01*
X8188858Y-14575231D02*
X8198382Y-14546660D01*
X8198382Y-14546660D02*
X8207906Y-14499041D01*
X8207906Y-14499041D02*
X8207906Y-14460946D01*
X8207906Y-14460946D02*
X8198382Y-14413327D01*
X8198382Y-14413327D02*
X8188858Y-14384755D01*
X8188858Y-14384755D02*
X8179334Y-14365708D01*
X8179334Y-14365708D02*
X8160287Y-14337136D01*
X8160287Y-14337136D02*
X8150763Y-14327612D01*
D13*
X3320700Y-14783700D02*
X3375700Y-14728700D01*
X3320700Y-14673700D01*
X3265700Y-14728700D01*
X3320700Y-14783700D01*
D11*
X3741239Y-14820184D02*
X3626953Y-14820184D01*
X3684096Y-14820184D02*
X3684096Y-14620184D01*
X3684096Y-14620184D02*
X3665048Y-14648755D01*
X3665048Y-14648755D02*
X3646001Y-14667803D01*
X3646001Y-14667803D02*
X3626953Y-14677327D01*
X3826953Y-14801136D02*
X3836477Y-14810660D01*
X3836477Y-14810660D02*
X3826953Y-14820184D01*
X3826953Y-14820184D02*
X3817429Y-14810660D01*
X3817429Y-14810660D02*
X3826953Y-14801136D01*
X3826953Y-14801136D02*
X3826953Y-14820184D01*
X4026953Y-14820184D02*
X3912667Y-14820184D01*
X3969810Y-14820184D02*
X3969810Y-14620184D01*
X3969810Y-14620184D02*
X3950762Y-14648755D01*
X3950762Y-14648755D02*
X3931715Y-14667803D01*
X3931715Y-14667803D02*
X3912667Y-14677327D01*
X4150762Y-14620184D02*
X4169810Y-14620184D01*
X4169810Y-14620184D02*
X4188858Y-14629708D01*
X4188858Y-14629708D02*
X4198382Y-14639231D01*
X4198382Y-14639231D02*
X4207905Y-14658279D01*
X4207905Y-14658279D02*
X4217429Y-14696374D01*
X4217429Y-14696374D02*
X4217429Y-14743993D01*
X4217429Y-14743993D02*
X4207905Y-14782088D01*
X4207905Y-14782088D02*
X4198382Y-14801136D01*
X4198382Y-14801136D02*
X4188858Y-14810660D01*
X4188858Y-14810660D02*
X4169810Y-14820184D01*
X4169810Y-14820184D02*
X4150762Y-14820184D01*
X4150762Y-14820184D02*
X4131715Y-14810660D01*
X4131715Y-14810660D02*
X4122191Y-14801136D01*
X4122191Y-14801136D02*
X4112667Y-14782088D01*
X4112667Y-14782088D02*
X4103143Y-14743993D01*
X4103143Y-14743993D02*
X4103143Y-14696374D01*
X4103143Y-14696374D02*
X4112667Y-14658279D01*
X4112667Y-14658279D02*
X4122191Y-14639231D01*
X4122191Y-14639231D02*
X4131715Y-14629708D01*
X4131715Y-14629708D02*
X4150762Y-14620184D01*
X4341239Y-14620184D02*
X4360286Y-14620184D01*
X4360286Y-14620184D02*
X4379334Y-14629708D01*
X4379334Y-14629708D02*
X4388858Y-14639231D01*
X4388858Y-14639231D02*
X4398382Y-14658279D01*
X4398382Y-14658279D02*
X4407905Y-14696374D01*
X4407905Y-14696374D02*
X4407905Y-14743993D01*
X4407905Y-14743993D02*
X4398382Y-14782088D01*
X4398382Y-14782088D02*
X4388858Y-14801136D01*
X4388858Y-14801136D02*
X4379334Y-14810660D01*
X4379334Y-14810660D02*
X4360286Y-14820184D01*
X4360286Y-14820184D02*
X4341239Y-14820184D01*
X4341239Y-14820184D02*
X4322191Y-14810660D01*
X4322191Y-14810660D02*
X4312667Y-14801136D01*
X4312667Y-14801136D02*
X4303144Y-14782088D01*
X4303144Y-14782088D02*
X4293620Y-14743993D01*
X4293620Y-14743993D02*
X4293620Y-14696374D01*
X4293620Y-14696374D02*
X4303144Y-14658279D01*
X4303144Y-14658279D02*
X4312667Y-14639231D01*
X4312667Y-14639231D02*
X4322191Y-14629708D01*
X4322191Y-14629708D02*
X4341239Y-14620184D01*
X4493620Y-14820184D02*
X4493620Y-14686850D01*
X4493620Y-14705898D02*
X4503144Y-14696374D01*
X4503144Y-14696374D02*
X4522191Y-14686850D01*
X4522191Y-14686850D02*
X4550763Y-14686850D01*
X4550763Y-14686850D02*
X4569810Y-14696374D01*
X4569810Y-14696374D02*
X4579334Y-14715422D01*
X4579334Y-14715422D02*
X4579334Y-14820184D01*
X4579334Y-14715422D02*
X4588858Y-14696374D01*
X4588858Y-14696374D02*
X4607905Y-14686850D01*
X4607905Y-14686850D02*
X4636477Y-14686850D01*
X4636477Y-14686850D02*
X4655525Y-14696374D01*
X4655525Y-14696374D02*
X4665048Y-14715422D01*
X4665048Y-14715422D02*
X4665048Y-14820184D01*
X4760286Y-14820184D02*
X4760286Y-14686850D01*
X4760286Y-14705898D02*
X4769810Y-14696374D01*
X4769810Y-14696374D02*
X4788858Y-14686850D01*
X4788858Y-14686850D02*
X4817429Y-14686850D01*
X4817429Y-14686850D02*
X4836477Y-14696374D01*
X4836477Y-14696374D02*
X4846001Y-14715422D01*
X4846001Y-14715422D02*
X4846001Y-14820184D01*
X4846001Y-14715422D02*
X4855525Y-14696374D01*
X4855525Y-14696374D02*
X4874572Y-14686850D01*
X4874572Y-14686850D02*
X4903144Y-14686850D01*
X4903144Y-14686850D02*
X4922191Y-14696374D01*
X4922191Y-14696374D02*
X4931715Y-14715422D01*
X4931715Y-14715422D02*
X4931715Y-14820184D01*
X5322191Y-14610660D02*
X5150763Y-14867803D01*
X5579334Y-14620184D02*
X5598382Y-14620184D01*
X5598382Y-14620184D02*
X5617429Y-14629708D01*
X5617429Y-14629708D02*
X5626953Y-14639231D01*
X5626953Y-14639231D02*
X5636477Y-14658279D01*
X5636477Y-14658279D02*
X5646001Y-14696374D01*
X5646001Y-14696374D02*
X5646001Y-14743993D01*
X5646001Y-14743993D02*
X5636477Y-14782088D01*
X5636477Y-14782088D02*
X5626953Y-14801136D01*
X5626953Y-14801136D02*
X5617429Y-14810660D01*
X5617429Y-14810660D02*
X5598382Y-14820184D01*
X5598382Y-14820184D02*
X5579334Y-14820184D01*
X5579334Y-14820184D02*
X5560287Y-14810660D01*
X5560287Y-14810660D02*
X5550763Y-14801136D01*
X5550763Y-14801136D02*
X5541239Y-14782088D01*
X5541239Y-14782088D02*
X5531715Y-14743993D01*
X5531715Y-14743993D02*
X5531715Y-14696374D01*
X5531715Y-14696374D02*
X5541239Y-14658279D01*
X5541239Y-14658279D02*
X5550763Y-14639231D01*
X5550763Y-14639231D02*
X5560287Y-14629708D01*
X5560287Y-14629708D02*
X5579334Y-14620184D01*
X5731715Y-14801136D02*
X5741239Y-14810660D01*
X5741239Y-14810660D02*
X5731715Y-14820184D01*
X5731715Y-14820184D02*
X5722191Y-14810660D01*
X5722191Y-14810660D02*
X5731715Y-14801136D01*
X5731715Y-14801136D02*
X5731715Y-14820184D01*
X5865048Y-14620184D02*
X5884096Y-14620184D01*
X5884096Y-14620184D02*
X5903144Y-14629708D01*
X5903144Y-14629708D02*
X5912667Y-14639231D01*
X5912667Y-14639231D02*
X5922191Y-14658279D01*
X5922191Y-14658279D02*
X5931715Y-14696374D01*
X5931715Y-14696374D02*
X5931715Y-14743993D01*
X5931715Y-14743993D02*
X5922191Y-14782088D01*
X5922191Y-14782088D02*
X5912667Y-14801136D01*
X5912667Y-14801136D02*
X5903144Y-14810660D01*
X5903144Y-14810660D02*
X5884096Y-14820184D01*
X5884096Y-14820184D02*
X5865048Y-14820184D01*
X5865048Y-14820184D02*
X5846001Y-14810660D01*
X5846001Y-14810660D02*
X5836477Y-14801136D01*
X5836477Y-14801136D02*
X5826953Y-14782088D01*
X5826953Y-14782088D02*
X5817429Y-14743993D01*
X5817429Y-14743993D02*
X5817429Y-14696374D01*
X5817429Y-14696374D02*
X5826953Y-14658279D01*
X5826953Y-14658279D02*
X5836477Y-14639231D01*
X5836477Y-14639231D02*
X5846001Y-14629708D01*
X5846001Y-14629708D02*
X5865048Y-14620184D01*
X6103144Y-14686850D02*
X6103144Y-14820184D01*
X6055525Y-14610660D02*
X6007906Y-14753517D01*
X6007906Y-14753517D02*
X6131715Y-14753517D01*
X6188858Y-14620184D02*
X6312667Y-14620184D01*
X6312667Y-14620184D02*
X6246001Y-14696374D01*
X6246001Y-14696374D02*
X6274572Y-14696374D01*
X6274572Y-14696374D02*
X6293620Y-14705898D01*
X6293620Y-14705898D02*
X6303144Y-14715422D01*
X6303144Y-14715422D02*
X6312667Y-14734469D01*
X6312667Y-14734469D02*
X6312667Y-14782088D01*
X6312667Y-14782088D02*
X6303144Y-14801136D01*
X6303144Y-14801136D02*
X6293620Y-14810660D01*
X6293620Y-14810660D02*
X6274572Y-14820184D01*
X6274572Y-14820184D02*
X6217429Y-14820184D01*
X6217429Y-14820184D02*
X6198382Y-14810660D01*
X6198382Y-14810660D02*
X6188858Y-14801136D01*
X6379334Y-14620184D02*
X6503144Y-14620184D01*
X6503144Y-14620184D02*
X6436477Y-14696374D01*
X6436477Y-14696374D02*
X6465048Y-14696374D01*
X6465048Y-14696374D02*
X6484096Y-14705898D01*
X6484096Y-14705898D02*
X6493620Y-14715422D01*
X6493620Y-14715422D02*
X6503144Y-14734469D01*
X6503144Y-14734469D02*
X6503144Y-14782088D01*
X6503144Y-14782088D02*
X6493620Y-14801136D01*
X6493620Y-14801136D02*
X6484096Y-14810660D01*
X6484096Y-14810660D02*
X6465048Y-14820184D01*
X6465048Y-14820184D02*
X6407906Y-14820184D01*
X6407906Y-14820184D02*
X6388858Y-14810660D01*
X6388858Y-14810660D02*
X6379334Y-14801136D01*
X6579334Y-14620184D02*
X6579334Y-14658279D01*
X6655525Y-14620184D02*
X6655525Y-14658279D01*
X6950763Y-14896374D02*
X6941239Y-14886850D01*
X6941239Y-14886850D02*
X6922191Y-14858279D01*
X6922191Y-14858279D02*
X6912668Y-14839231D01*
X6912668Y-14839231D02*
X6903144Y-14810660D01*
X6903144Y-14810660D02*
X6893620Y-14763041D01*
X6893620Y-14763041D02*
X6893620Y-14724946D01*
X6893620Y-14724946D02*
X6903144Y-14677327D01*
X6903144Y-14677327D02*
X6912668Y-14648755D01*
X6912668Y-14648755D02*
X6922191Y-14629708D01*
X6922191Y-14629708D02*
X6941239Y-14601136D01*
X6941239Y-14601136D02*
X6950763Y-14591612D01*
X7131715Y-14820184D02*
X7017429Y-14820184D01*
X7074572Y-14820184D02*
X7074572Y-14620184D01*
X7074572Y-14620184D02*
X7055525Y-14648755D01*
X7055525Y-14648755D02*
X7036477Y-14667803D01*
X7036477Y-14667803D02*
X7017429Y-14677327D01*
X7255525Y-14620184D02*
X7274572Y-14620184D01*
X7274572Y-14620184D02*
X7293620Y-14629708D01*
X7293620Y-14629708D02*
X7303144Y-14639231D01*
X7303144Y-14639231D02*
X7312668Y-14658279D01*
X7312668Y-14658279D02*
X7322191Y-14696374D01*
X7322191Y-14696374D02*
X7322191Y-14743993D01*
X7322191Y-14743993D02*
X7312668Y-14782088D01*
X7312668Y-14782088D02*
X7303144Y-14801136D01*
X7303144Y-14801136D02*
X7293620Y-14810660D01*
X7293620Y-14810660D02*
X7274572Y-14820184D01*
X7274572Y-14820184D02*
X7255525Y-14820184D01*
X7255525Y-14820184D02*
X7236477Y-14810660D01*
X7236477Y-14810660D02*
X7226953Y-14801136D01*
X7226953Y-14801136D02*
X7217429Y-14782088D01*
X7217429Y-14782088D02*
X7207906Y-14743993D01*
X7207906Y-14743993D02*
X7207906Y-14696374D01*
X7207906Y-14696374D02*
X7217429Y-14658279D01*
X7217429Y-14658279D02*
X7226953Y-14639231D01*
X7226953Y-14639231D02*
X7236477Y-14629708D01*
X7236477Y-14629708D02*
X7255525Y-14620184D01*
X7560287Y-14820184D02*
X7560287Y-14620184D01*
X7646001Y-14820184D02*
X7646001Y-14715422D01*
X7646001Y-14715422D02*
X7636477Y-14696374D01*
X7636477Y-14696374D02*
X7617430Y-14686850D01*
X7617430Y-14686850D02*
X7588858Y-14686850D01*
X7588858Y-14686850D02*
X7569810Y-14696374D01*
X7569810Y-14696374D02*
X7560287Y-14705898D01*
X7769810Y-14820184D02*
X7750763Y-14810660D01*
X7750763Y-14810660D02*
X7741239Y-14801136D01*
X7741239Y-14801136D02*
X7731715Y-14782088D01*
X7731715Y-14782088D02*
X7731715Y-14724946D01*
X7731715Y-14724946D02*
X7741239Y-14705898D01*
X7741239Y-14705898D02*
X7750763Y-14696374D01*
X7750763Y-14696374D02*
X7769810Y-14686850D01*
X7769810Y-14686850D02*
X7798382Y-14686850D01*
X7798382Y-14686850D02*
X7817430Y-14696374D01*
X7817430Y-14696374D02*
X7826953Y-14705898D01*
X7826953Y-14705898D02*
X7836477Y-14724946D01*
X7836477Y-14724946D02*
X7836477Y-14782088D01*
X7836477Y-14782088D02*
X7826953Y-14801136D01*
X7826953Y-14801136D02*
X7817430Y-14810660D01*
X7817430Y-14810660D02*
X7798382Y-14820184D01*
X7798382Y-14820184D02*
X7769810Y-14820184D01*
X7950763Y-14820184D02*
X7931715Y-14810660D01*
X7931715Y-14810660D02*
X7922191Y-14791612D01*
X7922191Y-14791612D02*
X7922191Y-14620184D01*
X8103144Y-14810660D02*
X8084096Y-14820184D01*
X8084096Y-14820184D02*
X8046001Y-14820184D01*
X8046001Y-14820184D02*
X8026953Y-14810660D01*
X8026953Y-14810660D02*
X8017430Y-14791612D01*
X8017430Y-14791612D02*
X8017430Y-14715422D01*
X8017430Y-14715422D02*
X8026953Y-14696374D01*
X8026953Y-14696374D02*
X8046001Y-14686850D01*
X8046001Y-14686850D02*
X8084096Y-14686850D01*
X8084096Y-14686850D02*
X8103144Y-14696374D01*
X8103144Y-14696374D02*
X8112668Y-14715422D01*
X8112668Y-14715422D02*
X8112668Y-14734469D01*
X8112668Y-14734469D02*
X8017430Y-14753517D01*
X8188858Y-14810660D02*
X8207906Y-14820184D01*
X8207906Y-14820184D02*
X8246001Y-14820184D01*
X8246001Y-14820184D02*
X8265049Y-14810660D01*
X8265049Y-14810660D02*
X8274572Y-14791612D01*
X8274572Y-14791612D02*
X8274572Y-14782088D01*
X8274572Y-14782088D02*
X8265049Y-14763041D01*
X8265049Y-14763041D02*
X8246001Y-14753517D01*
X8246001Y-14753517D02*
X8217430Y-14753517D01*
X8217430Y-14753517D02*
X8198382Y-14743993D01*
X8198382Y-14743993D02*
X8188858Y-14724946D01*
X8188858Y-14724946D02*
X8188858Y-14715422D01*
X8188858Y-14715422D02*
X8198382Y-14696374D01*
X8198382Y-14696374D02*
X8217430Y-14686850D01*
X8217430Y-14686850D02*
X8246001Y-14686850D01*
X8246001Y-14686850D02*
X8265049Y-14696374D01*
X8341239Y-14896374D02*
X8350763Y-14886850D01*
X8350763Y-14886850D02*
X8369811Y-14858279D01*
X8369811Y-14858279D02*
X8379334Y-14839231D01*
X8379334Y-14839231D02*
X8388858Y-14810660D01*
X8388858Y-14810660D02*
X8398382Y-14763041D01*
X8398382Y-14763041D02*
X8398382Y-14724946D01*
X8398382Y-14724946D02*
X8388858Y-14677327D01*
X8388858Y-14677327D02*
X8379334Y-14648755D01*
X8379334Y-14648755D02*
X8369811Y-14629708D01*
X8369811Y-14629708D02*
X8350763Y-14601136D01*
X8350763Y-14601136D02*
X8341239Y-14591612D01*
D14*
X3255700Y-14932700D02*
X3375700Y-15052700D01*
X3375700Y-14932700D02*
X3255700Y-15052700D01*
X3375700Y-14992700D02*
G75*
G02*
X3255700Y-14992700I-60000J0D01*
G01*
X3255700Y-14992700D02*
G75*
G02*
X3375700Y-14992700I60000J0D01*
G01*
D11*
X3741239Y-15084184D02*
X3626953Y-15084184D01*
X3684096Y-15084184D02*
X3684096Y-14884184D01*
X3684096Y-14884184D02*
X3665048Y-14912755D01*
X3665048Y-14912755D02*
X3646001Y-14931803D01*
X3646001Y-14931803D02*
X3626953Y-14941327D01*
X3826953Y-15065136D02*
X3836477Y-15074660D01*
X3836477Y-15074660D02*
X3826953Y-15084184D01*
X3826953Y-15084184D02*
X3817429Y-15074660D01*
X3817429Y-15074660D02*
X3826953Y-15065136D01*
X3826953Y-15065136D02*
X3826953Y-15084184D01*
X3912667Y-14903231D02*
X3922191Y-14893708D01*
X3922191Y-14893708D02*
X3941239Y-14884184D01*
X3941239Y-14884184D02*
X3988858Y-14884184D01*
X3988858Y-14884184D02*
X4007905Y-14893708D01*
X4007905Y-14893708D02*
X4017429Y-14903231D01*
X4017429Y-14903231D02*
X4026953Y-14922279D01*
X4026953Y-14922279D02*
X4026953Y-14941327D01*
X4026953Y-14941327D02*
X4017429Y-14969898D01*
X4017429Y-14969898D02*
X3903143Y-15084184D01*
X3903143Y-15084184D02*
X4026953Y-15084184D01*
X4150762Y-14884184D02*
X4169810Y-14884184D01*
X4169810Y-14884184D02*
X4188858Y-14893708D01*
X4188858Y-14893708D02*
X4198382Y-14903231D01*
X4198382Y-14903231D02*
X4207905Y-14922279D01*
X4207905Y-14922279D02*
X4217429Y-14960374D01*
X4217429Y-14960374D02*
X4217429Y-15007993D01*
X4217429Y-15007993D02*
X4207905Y-15046088D01*
X4207905Y-15046088D02*
X4198382Y-15065136D01*
X4198382Y-15065136D02*
X4188858Y-15074660D01*
X4188858Y-15074660D02*
X4169810Y-15084184D01*
X4169810Y-15084184D02*
X4150762Y-15084184D01*
X4150762Y-15084184D02*
X4131715Y-15074660D01*
X4131715Y-15074660D02*
X4122191Y-15065136D01*
X4122191Y-15065136D02*
X4112667Y-15046088D01*
X4112667Y-15046088D02*
X4103143Y-15007993D01*
X4103143Y-15007993D02*
X4103143Y-14960374D01*
X4103143Y-14960374D02*
X4112667Y-14922279D01*
X4112667Y-14922279D02*
X4122191Y-14903231D01*
X4122191Y-14903231D02*
X4131715Y-14893708D01*
X4131715Y-14893708D02*
X4150762Y-14884184D01*
X4341239Y-14884184D02*
X4360286Y-14884184D01*
X4360286Y-14884184D02*
X4379334Y-14893708D01*
X4379334Y-14893708D02*
X4388858Y-14903231D01*
X4388858Y-14903231D02*
X4398382Y-14922279D01*
X4398382Y-14922279D02*
X4407905Y-14960374D01*
X4407905Y-14960374D02*
X4407905Y-15007993D01*
X4407905Y-15007993D02*
X4398382Y-15046088D01*
X4398382Y-15046088D02*
X4388858Y-15065136D01*
X4388858Y-15065136D02*
X4379334Y-15074660D01*
X4379334Y-15074660D02*
X4360286Y-15084184D01*
X4360286Y-15084184D02*
X4341239Y-15084184D01*
X4341239Y-15084184D02*
X4322191Y-15074660D01*
X4322191Y-15074660D02*
X4312667Y-15065136D01*
X4312667Y-15065136D02*
X4303144Y-15046088D01*
X4303144Y-15046088D02*
X4293620Y-15007993D01*
X4293620Y-15007993D02*
X4293620Y-14960374D01*
X4293620Y-14960374D02*
X4303144Y-14922279D01*
X4303144Y-14922279D02*
X4312667Y-14903231D01*
X4312667Y-14903231D02*
X4322191Y-14893708D01*
X4322191Y-14893708D02*
X4341239Y-14884184D01*
X4493620Y-15084184D02*
X4493620Y-14950850D01*
X4493620Y-14969898D02*
X4503144Y-14960374D01*
X4503144Y-14960374D02*
X4522191Y-14950850D01*
X4522191Y-14950850D02*
X4550763Y-14950850D01*
X4550763Y-14950850D02*
X4569810Y-14960374D01*
X4569810Y-14960374D02*
X4579334Y-14979422D01*
X4579334Y-14979422D02*
X4579334Y-15084184D01*
X4579334Y-14979422D02*
X4588858Y-14960374D01*
X4588858Y-14960374D02*
X4607905Y-14950850D01*
X4607905Y-14950850D02*
X4636477Y-14950850D01*
X4636477Y-14950850D02*
X4655525Y-14960374D01*
X4655525Y-14960374D02*
X4665048Y-14979422D01*
X4665048Y-14979422D02*
X4665048Y-15084184D01*
X4760286Y-15084184D02*
X4760286Y-14950850D01*
X4760286Y-14969898D02*
X4769810Y-14960374D01*
X4769810Y-14960374D02*
X4788858Y-14950850D01*
X4788858Y-14950850D02*
X4817429Y-14950850D01*
X4817429Y-14950850D02*
X4836477Y-14960374D01*
X4836477Y-14960374D02*
X4846001Y-14979422D01*
X4846001Y-14979422D02*
X4846001Y-15084184D01*
X4846001Y-14979422D02*
X4855525Y-14960374D01*
X4855525Y-14960374D02*
X4874572Y-14950850D01*
X4874572Y-14950850D02*
X4903144Y-14950850D01*
X4903144Y-14950850D02*
X4922191Y-14960374D01*
X4922191Y-14960374D02*
X4931715Y-14979422D01*
X4931715Y-14979422D02*
X4931715Y-15084184D01*
X5322191Y-14874660D02*
X5150763Y-15131803D01*
X5579334Y-14884184D02*
X5598382Y-14884184D01*
X5598382Y-14884184D02*
X5617429Y-14893708D01*
X5617429Y-14893708D02*
X5626953Y-14903231D01*
X5626953Y-14903231D02*
X5636477Y-14922279D01*
X5636477Y-14922279D02*
X5646001Y-14960374D01*
X5646001Y-14960374D02*
X5646001Y-15007993D01*
X5646001Y-15007993D02*
X5636477Y-15046088D01*
X5636477Y-15046088D02*
X5626953Y-15065136D01*
X5626953Y-15065136D02*
X5617429Y-15074660D01*
X5617429Y-15074660D02*
X5598382Y-15084184D01*
X5598382Y-15084184D02*
X5579334Y-15084184D01*
X5579334Y-15084184D02*
X5560287Y-15074660D01*
X5560287Y-15074660D02*
X5550763Y-15065136D01*
X5550763Y-15065136D02*
X5541239Y-15046088D01*
X5541239Y-15046088D02*
X5531715Y-15007993D01*
X5531715Y-15007993D02*
X5531715Y-14960374D01*
X5531715Y-14960374D02*
X5541239Y-14922279D01*
X5541239Y-14922279D02*
X5550763Y-14903231D01*
X5550763Y-14903231D02*
X5560287Y-14893708D01*
X5560287Y-14893708D02*
X5579334Y-14884184D01*
X5731715Y-15065136D02*
X5741239Y-15074660D01*
X5741239Y-15074660D02*
X5731715Y-15084184D01*
X5731715Y-15084184D02*
X5722191Y-15074660D01*
X5722191Y-15074660D02*
X5731715Y-15065136D01*
X5731715Y-15065136D02*
X5731715Y-15084184D01*
X5865048Y-14884184D02*
X5884096Y-14884184D01*
X5884096Y-14884184D02*
X5903144Y-14893708D01*
X5903144Y-14893708D02*
X5912667Y-14903231D01*
X5912667Y-14903231D02*
X5922191Y-14922279D01*
X5922191Y-14922279D02*
X5931715Y-14960374D01*
X5931715Y-14960374D02*
X5931715Y-15007993D01*
X5931715Y-15007993D02*
X5922191Y-15046088D01*
X5922191Y-15046088D02*
X5912667Y-15065136D01*
X5912667Y-15065136D02*
X5903144Y-15074660D01*
X5903144Y-15074660D02*
X5884096Y-15084184D01*
X5884096Y-15084184D02*
X5865048Y-15084184D01*
X5865048Y-15084184D02*
X5846001Y-15074660D01*
X5846001Y-15074660D02*
X5836477Y-15065136D01*
X5836477Y-15065136D02*
X5826953Y-15046088D01*
X5826953Y-15046088D02*
X5817429Y-15007993D01*
X5817429Y-15007993D02*
X5817429Y-14960374D01*
X5817429Y-14960374D02*
X5826953Y-14922279D01*
X5826953Y-14922279D02*
X5836477Y-14903231D01*
X5836477Y-14903231D02*
X5846001Y-14893708D01*
X5846001Y-14893708D02*
X5865048Y-14884184D01*
X6103144Y-14950850D02*
X6103144Y-15084184D01*
X6055525Y-14874660D02*
X6007906Y-15017517D01*
X6007906Y-15017517D02*
X6131715Y-15017517D01*
X6188858Y-14884184D02*
X6322191Y-14884184D01*
X6322191Y-14884184D02*
X6236477Y-15084184D01*
X6388858Y-14903231D02*
X6398382Y-14893708D01*
X6398382Y-14893708D02*
X6417429Y-14884184D01*
X6417429Y-14884184D02*
X6465048Y-14884184D01*
X6465048Y-14884184D02*
X6484096Y-14893708D01*
X6484096Y-14893708D02*
X6493620Y-14903231D01*
X6493620Y-14903231D02*
X6503144Y-14922279D01*
X6503144Y-14922279D02*
X6503144Y-14941327D01*
X6503144Y-14941327D02*
X6493620Y-14969898D01*
X6493620Y-14969898D02*
X6379334Y-15084184D01*
X6379334Y-15084184D02*
X6503144Y-15084184D01*
X6579334Y-14884184D02*
X6579334Y-14922279D01*
X6655525Y-14884184D02*
X6655525Y-14922279D01*
X6950763Y-15160374D02*
X6941239Y-15150850D01*
X6941239Y-15150850D02*
X6922191Y-15122279D01*
X6922191Y-15122279D02*
X6912668Y-15103231D01*
X6912668Y-15103231D02*
X6903144Y-15074660D01*
X6903144Y-15074660D02*
X6893620Y-15027041D01*
X6893620Y-15027041D02*
X6893620Y-14988946D01*
X6893620Y-14988946D02*
X6903144Y-14941327D01*
X6903144Y-14941327D02*
X6912668Y-14912755D01*
X6912668Y-14912755D02*
X6922191Y-14893708D01*
X6922191Y-14893708D02*
X6941239Y-14865136D01*
X6941239Y-14865136D02*
X6950763Y-14855612D01*
X7112668Y-14950850D02*
X7112668Y-15084184D01*
X7065048Y-14874660D02*
X7017429Y-15017517D01*
X7017429Y-15017517D02*
X7141239Y-15017517D01*
X7369810Y-15084184D02*
X7369810Y-14884184D01*
X7455525Y-15084184D02*
X7455525Y-14979422D01*
X7455525Y-14979422D02*
X7446001Y-14960374D01*
X7446001Y-14960374D02*
X7426953Y-14950850D01*
X7426953Y-14950850D02*
X7398382Y-14950850D01*
X7398382Y-14950850D02*
X7379334Y-14960374D01*
X7379334Y-14960374D02*
X7369810Y-14969898D01*
X7579334Y-15084184D02*
X7560287Y-15074660D01*
X7560287Y-15074660D02*
X7550763Y-15065136D01*
X7550763Y-15065136D02*
X7541239Y-15046088D01*
X7541239Y-15046088D02*
X7541239Y-14988946D01*
X7541239Y-14988946D02*
X7550763Y-14969898D01*
X7550763Y-14969898D02*
X7560287Y-14960374D01*
X7560287Y-14960374D02*
X7579334Y-14950850D01*
X7579334Y-14950850D02*
X7607906Y-14950850D01*
X7607906Y-14950850D02*
X7626953Y-14960374D01*
X7626953Y-14960374D02*
X7636477Y-14969898D01*
X7636477Y-14969898D02*
X7646001Y-14988946D01*
X7646001Y-14988946D02*
X7646001Y-15046088D01*
X7646001Y-15046088D02*
X7636477Y-15065136D01*
X7636477Y-15065136D02*
X7626953Y-15074660D01*
X7626953Y-15074660D02*
X7607906Y-15084184D01*
X7607906Y-15084184D02*
X7579334Y-15084184D01*
X7760287Y-15084184D02*
X7741239Y-15074660D01*
X7741239Y-15074660D02*
X7731715Y-15055612D01*
X7731715Y-15055612D02*
X7731715Y-14884184D01*
X7912668Y-15074660D02*
X7893620Y-15084184D01*
X7893620Y-15084184D02*
X7855525Y-15084184D01*
X7855525Y-15084184D02*
X7836477Y-15074660D01*
X7836477Y-15074660D02*
X7826953Y-15055612D01*
X7826953Y-15055612D02*
X7826953Y-14979422D01*
X7826953Y-14979422D02*
X7836477Y-14960374D01*
X7836477Y-14960374D02*
X7855525Y-14950850D01*
X7855525Y-14950850D02*
X7893620Y-14950850D01*
X7893620Y-14950850D02*
X7912668Y-14960374D01*
X7912668Y-14960374D02*
X7922191Y-14979422D01*
X7922191Y-14979422D02*
X7922191Y-14998469D01*
X7922191Y-14998469D02*
X7826953Y-15017517D01*
X7998382Y-15074660D02*
X8017430Y-15084184D01*
X8017430Y-15084184D02*
X8055525Y-15084184D01*
X8055525Y-15084184D02*
X8074572Y-15074660D01*
X8074572Y-15074660D02*
X8084096Y-15055612D01*
X8084096Y-15055612D02*
X8084096Y-15046088D01*
X8084096Y-15046088D02*
X8074572Y-15027041D01*
X8074572Y-15027041D02*
X8055525Y-15017517D01*
X8055525Y-15017517D02*
X8026953Y-15017517D01*
X8026953Y-15017517D02*
X8007906Y-15007993D01*
X8007906Y-15007993D02*
X7998382Y-14988946D01*
X7998382Y-14988946D02*
X7998382Y-14979422D01*
X7998382Y-14979422D02*
X8007906Y-14960374D01*
X8007906Y-14960374D02*
X8026953Y-14950850D01*
X8026953Y-14950850D02*
X8055525Y-14950850D01*
X8055525Y-14950850D02*
X8074572Y-14960374D01*
X8150763Y-15160374D02*
X8160287Y-15150850D01*
X8160287Y-15150850D02*
X8179334Y-15122279D01*
X8179334Y-15122279D02*
X8188858Y-15103231D01*
X8188858Y-15103231D02*
X8198382Y-15074660D01*
X8198382Y-15074660D02*
X8207906Y-15027041D01*
X8207906Y-15027041D02*
X8207906Y-14988946D01*
X8207906Y-14988946D02*
X8198382Y-14941327D01*
X8198382Y-14941327D02*
X8188858Y-14912755D01*
X8188858Y-14912755D02*
X8179334Y-14893708D01*
X8179334Y-14893708D02*
X8160287Y-14865136D01*
X8160287Y-14865136D02*
X8150763Y-14855612D01*
D15*
X3248700Y-15193200D02*
X3375700Y-15320200D01*
X3375700Y-15193200D02*
X3248700Y-15320200D01*
X3312200Y-15193200D02*
X3312200Y-15320200D01*
X3248700Y-15256700D02*
X3375700Y-15256700D01*
D11*
X3741239Y-15348184D02*
X3626953Y-15348184D01*
X3684096Y-15348184D02*
X3684096Y-15148184D01*
X3684096Y-15148184D02*
X3665048Y-15176755D01*
X3665048Y-15176755D02*
X3646001Y-15195803D01*
X3646001Y-15195803D02*
X3626953Y-15205327D01*
X3826953Y-15329136D02*
X3836477Y-15338660D01*
X3836477Y-15338660D02*
X3826953Y-15348184D01*
X3826953Y-15348184D02*
X3817429Y-15338660D01*
X3817429Y-15338660D02*
X3826953Y-15329136D01*
X3826953Y-15329136D02*
X3826953Y-15348184D01*
X3912667Y-15167231D02*
X3922191Y-15157708D01*
X3922191Y-15157708D02*
X3941239Y-15148184D01*
X3941239Y-15148184D02*
X3988858Y-15148184D01*
X3988858Y-15148184D02*
X4007905Y-15157708D01*
X4007905Y-15157708D02*
X4017429Y-15167231D01*
X4017429Y-15167231D02*
X4026953Y-15186279D01*
X4026953Y-15186279D02*
X4026953Y-15205327D01*
X4026953Y-15205327D02*
X4017429Y-15233898D01*
X4017429Y-15233898D02*
X3903143Y-15348184D01*
X3903143Y-15348184D02*
X4026953Y-15348184D01*
X4093620Y-15148184D02*
X4226953Y-15148184D01*
X4226953Y-15148184D02*
X4141239Y-15348184D01*
X4341239Y-15148184D02*
X4360286Y-15148184D01*
X4360286Y-15148184D02*
X4379334Y-15157708D01*
X4379334Y-15157708D02*
X4388858Y-15167231D01*
X4388858Y-15167231D02*
X4398382Y-15186279D01*
X4398382Y-15186279D02*
X4407905Y-15224374D01*
X4407905Y-15224374D02*
X4407905Y-15271993D01*
X4407905Y-15271993D02*
X4398382Y-15310088D01*
X4398382Y-15310088D02*
X4388858Y-15329136D01*
X4388858Y-15329136D02*
X4379334Y-15338660D01*
X4379334Y-15338660D02*
X4360286Y-15348184D01*
X4360286Y-15348184D02*
X4341239Y-15348184D01*
X4341239Y-15348184D02*
X4322191Y-15338660D01*
X4322191Y-15338660D02*
X4312667Y-15329136D01*
X4312667Y-15329136D02*
X4303144Y-15310088D01*
X4303144Y-15310088D02*
X4293620Y-15271993D01*
X4293620Y-15271993D02*
X4293620Y-15224374D01*
X4293620Y-15224374D02*
X4303144Y-15186279D01*
X4303144Y-15186279D02*
X4312667Y-15167231D01*
X4312667Y-15167231D02*
X4322191Y-15157708D01*
X4322191Y-15157708D02*
X4341239Y-15148184D01*
X4493620Y-15348184D02*
X4493620Y-15214850D01*
X4493620Y-15233898D02*
X4503144Y-15224374D01*
X4503144Y-15224374D02*
X4522191Y-15214850D01*
X4522191Y-15214850D02*
X4550763Y-15214850D01*
X4550763Y-15214850D02*
X4569810Y-15224374D01*
X4569810Y-15224374D02*
X4579334Y-15243422D01*
X4579334Y-15243422D02*
X4579334Y-15348184D01*
X4579334Y-15243422D02*
X4588858Y-15224374D01*
X4588858Y-15224374D02*
X4607905Y-15214850D01*
X4607905Y-15214850D02*
X4636477Y-15214850D01*
X4636477Y-15214850D02*
X4655525Y-15224374D01*
X4655525Y-15224374D02*
X4665048Y-15243422D01*
X4665048Y-15243422D02*
X4665048Y-15348184D01*
X4760286Y-15348184D02*
X4760286Y-15214850D01*
X4760286Y-15233898D02*
X4769810Y-15224374D01*
X4769810Y-15224374D02*
X4788858Y-15214850D01*
X4788858Y-15214850D02*
X4817429Y-15214850D01*
X4817429Y-15214850D02*
X4836477Y-15224374D01*
X4836477Y-15224374D02*
X4846001Y-15243422D01*
X4846001Y-15243422D02*
X4846001Y-15348184D01*
X4846001Y-15243422D02*
X4855525Y-15224374D01*
X4855525Y-15224374D02*
X4874572Y-15214850D01*
X4874572Y-15214850D02*
X4903144Y-15214850D01*
X4903144Y-15214850D02*
X4922191Y-15224374D01*
X4922191Y-15224374D02*
X4931715Y-15243422D01*
X4931715Y-15243422D02*
X4931715Y-15348184D01*
X5322191Y-15138660D02*
X5150763Y-15395803D01*
X5579334Y-15148184D02*
X5598382Y-15148184D01*
X5598382Y-15148184D02*
X5617429Y-15157708D01*
X5617429Y-15157708D02*
X5626953Y-15167231D01*
X5626953Y-15167231D02*
X5636477Y-15186279D01*
X5636477Y-15186279D02*
X5646001Y-15224374D01*
X5646001Y-15224374D02*
X5646001Y-15271993D01*
X5646001Y-15271993D02*
X5636477Y-15310088D01*
X5636477Y-15310088D02*
X5626953Y-15329136D01*
X5626953Y-15329136D02*
X5617429Y-15338660D01*
X5617429Y-15338660D02*
X5598382Y-15348184D01*
X5598382Y-15348184D02*
X5579334Y-15348184D01*
X5579334Y-15348184D02*
X5560287Y-15338660D01*
X5560287Y-15338660D02*
X5550763Y-15329136D01*
X5550763Y-15329136D02*
X5541239Y-15310088D01*
X5541239Y-15310088D02*
X5531715Y-15271993D01*
X5531715Y-15271993D02*
X5531715Y-15224374D01*
X5531715Y-15224374D02*
X5541239Y-15186279D01*
X5541239Y-15186279D02*
X5550763Y-15167231D01*
X5550763Y-15167231D02*
X5560287Y-15157708D01*
X5560287Y-15157708D02*
X5579334Y-15148184D01*
X5731715Y-15329136D02*
X5741239Y-15338660D01*
X5741239Y-15338660D02*
X5731715Y-15348184D01*
X5731715Y-15348184D02*
X5722191Y-15338660D01*
X5722191Y-15338660D02*
X5731715Y-15329136D01*
X5731715Y-15329136D02*
X5731715Y-15348184D01*
X5865048Y-15148184D02*
X5884096Y-15148184D01*
X5884096Y-15148184D02*
X5903144Y-15157708D01*
X5903144Y-15157708D02*
X5912667Y-15167231D01*
X5912667Y-15167231D02*
X5922191Y-15186279D01*
X5922191Y-15186279D02*
X5931715Y-15224374D01*
X5931715Y-15224374D02*
X5931715Y-15271993D01*
X5931715Y-15271993D02*
X5922191Y-15310088D01*
X5922191Y-15310088D02*
X5912667Y-15329136D01*
X5912667Y-15329136D02*
X5903144Y-15338660D01*
X5903144Y-15338660D02*
X5884096Y-15348184D01*
X5884096Y-15348184D02*
X5865048Y-15348184D01*
X5865048Y-15348184D02*
X5846001Y-15338660D01*
X5846001Y-15338660D02*
X5836477Y-15329136D01*
X5836477Y-15329136D02*
X5826953Y-15310088D01*
X5826953Y-15310088D02*
X5817429Y-15271993D01*
X5817429Y-15271993D02*
X5817429Y-15224374D01*
X5817429Y-15224374D02*
X5826953Y-15186279D01*
X5826953Y-15186279D02*
X5836477Y-15167231D01*
X5836477Y-15167231D02*
X5846001Y-15157708D01*
X5846001Y-15157708D02*
X5865048Y-15148184D01*
X6112667Y-15148184D02*
X6017429Y-15148184D01*
X6017429Y-15148184D02*
X6007906Y-15243422D01*
X6007906Y-15243422D02*
X6017429Y-15233898D01*
X6017429Y-15233898D02*
X6036477Y-15224374D01*
X6036477Y-15224374D02*
X6084096Y-15224374D01*
X6084096Y-15224374D02*
X6103144Y-15233898D01*
X6103144Y-15233898D02*
X6112667Y-15243422D01*
X6112667Y-15243422D02*
X6122191Y-15262469D01*
X6122191Y-15262469D02*
X6122191Y-15310088D01*
X6122191Y-15310088D02*
X6112667Y-15329136D01*
X6112667Y-15329136D02*
X6103144Y-15338660D01*
X6103144Y-15338660D02*
X6084096Y-15348184D01*
X6084096Y-15348184D02*
X6036477Y-15348184D01*
X6036477Y-15348184D02*
X6017429Y-15338660D01*
X6017429Y-15338660D02*
X6007906Y-15329136D01*
X6246001Y-15148184D02*
X6265048Y-15148184D01*
X6265048Y-15148184D02*
X6284096Y-15157708D01*
X6284096Y-15157708D02*
X6293620Y-15167231D01*
X6293620Y-15167231D02*
X6303144Y-15186279D01*
X6303144Y-15186279D02*
X6312667Y-15224374D01*
X6312667Y-15224374D02*
X6312667Y-15271993D01*
X6312667Y-15271993D02*
X6303144Y-15310088D01*
X6303144Y-15310088D02*
X6293620Y-15329136D01*
X6293620Y-15329136D02*
X6284096Y-15338660D01*
X6284096Y-15338660D02*
X6265048Y-15348184D01*
X6265048Y-15348184D02*
X6246001Y-15348184D01*
X6246001Y-15348184D02*
X6226953Y-15338660D01*
X6226953Y-15338660D02*
X6217429Y-15329136D01*
X6217429Y-15329136D02*
X6207906Y-15310088D01*
X6207906Y-15310088D02*
X6198382Y-15271993D01*
X6198382Y-15271993D02*
X6198382Y-15224374D01*
X6198382Y-15224374D02*
X6207906Y-15186279D01*
X6207906Y-15186279D02*
X6217429Y-15167231D01*
X6217429Y-15167231D02*
X6226953Y-15157708D01*
X6226953Y-15157708D02*
X6246001Y-15148184D01*
X6436477Y-15148184D02*
X6455525Y-15148184D01*
X6455525Y-15148184D02*
X6474572Y-15157708D01*
X6474572Y-15157708D02*
X6484096Y-15167231D01*
X6484096Y-15167231D02*
X6493620Y-15186279D01*
X6493620Y-15186279D02*
X6503144Y-15224374D01*
X6503144Y-15224374D02*
X6503144Y-15271993D01*
X6503144Y-15271993D02*
X6493620Y-15310088D01*
X6493620Y-15310088D02*
X6484096Y-15329136D01*
X6484096Y-15329136D02*
X6474572Y-15338660D01*
X6474572Y-15338660D02*
X6455525Y-15348184D01*
X6455525Y-15348184D02*
X6436477Y-15348184D01*
X6436477Y-15348184D02*
X6417429Y-15338660D01*
X6417429Y-15338660D02*
X6407906Y-15329136D01*
X6407906Y-15329136D02*
X6398382Y-15310088D01*
X6398382Y-15310088D02*
X6388858Y-15271993D01*
X6388858Y-15271993D02*
X6388858Y-15224374D01*
X6388858Y-15224374D02*
X6398382Y-15186279D01*
X6398382Y-15186279D02*
X6407906Y-15167231D01*
X6407906Y-15167231D02*
X6417429Y-15157708D01*
X6417429Y-15157708D02*
X6436477Y-15148184D01*
X6579334Y-15148184D02*
X6579334Y-15186279D01*
X6655525Y-15148184D02*
X6655525Y-15186279D01*
X6950763Y-15424374D02*
X6941239Y-15414850D01*
X6941239Y-15414850D02*
X6922191Y-15386279D01*
X6922191Y-15386279D02*
X6912668Y-15367231D01*
X6912668Y-15367231D02*
X6903144Y-15338660D01*
X6903144Y-15338660D02*
X6893620Y-15291041D01*
X6893620Y-15291041D02*
X6893620Y-15252946D01*
X6893620Y-15252946D02*
X6903144Y-15205327D01*
X6903144Y-15205327D02*
X6912668Y-15176755D01*
X6912668Y-15176755D02*
X6922191Y-15157708D01*
X6922191Y-15157708D02*
X6941239Y-15129136D01*
X6941239Y-15129136D02*
X6950763Y-15119612D01*
X7131715Y-15348184D02*
X7017429Y-15348184D01*
X7074572Y-15348184D02*
X7074572Y-15148184D01*
X7074572Y-15148184D02*
X7055525Y-15176755D01*
X7055525Y-15176755D02*
X7036477Y-15195803D01*
X7036477Y-15195803D02*
X7017429Y-15205327D01*
X7207906Y-15167231D02*
X7217429Y-15157708D01*
X7217429Y-15157708D02*
X7236477Y-15148184D01*
X7236477Y-15148184D02*
X7284096Y-15148184D01*
X7284096Y-15148184D02*
X7303144Y-15157708D01*
X7303144Y-15157708D02*
X7312668Y-15167231D01*
X7312668Y-15167231D02*
X7322191Y-15186279D01*
X7322191Y-15186279D02*
X7322191Y-15205327D01*
X7322191Y-15205327D02*
X7312668Y-15233898D01*
X7312668Y-15233898D02*
X7198382Y-15348184D01*
X7198382Y-15348184D02*
X7322191Y-15348184D01*
X7560287Y-15348184D02*
X7560287Y-15148184D01*
X7646001Y-15348184D02*
X7646001Y-15243422D01*
X7646001Y-15243422D02*
X7636477Y-15224374D01*
X7636477Y-15224374D02*
X7617430Y-15214850D01*
X7617430Y-15214850D02*
X7588858Y-15214850D01*
X7588858Y-15214850D02*
X7569810Y-15224374D01*
X7569810Y-15224374D02*
X7560287Y-15233898D01*
X7769810Y-15348184D02*
X7750763Y-15338660D01*
X7750763Y-15338660D02*
X7741239Y-15329136D01*
X7741239Y-15329136D02*
X7731715Y-15310088D01*
X7731715Y-15310088D02*
X7731715Y-15252946D01*
X7731715Y-15252946D02*
X7741239Y-15233898D01*
X7741239Y-15233898D02*
X7750763Y-15224374D01*
X7750763Y-15224374D02*
X7769810Y-15214850D01*
X7769810Y-15214850D02*
X7798382Y-15214850D01*
X7798382Y-15214850D02*
X7817430Y-15224374D01*
X7817430Y-15224374D02*
X7826953Y-15233898D01*
X7826953Y-15233898D02*
X7836477Y-15252946D01*
X7836477Y-15252946D02*
X7836477Y-15310088D01*
X7836477Y-15310088D02*
X7826953Y-15329136D01*
X7826953Y-15329136D02*
X7817430Y-15338660D01*
X7817430Y-15338660D02*
X7798382Y-15348184D01*
X7798382Y-15348184D02*
X7769810Y-15348184D01*
X7950763Y-15348184D02*
X7931715Y-15338660D01*
X7931715Y-15338660D02*
X7922191Y-15319612D01*
X7922191Y-15319612D02*
X7922191Y-15148184D01*
X8103144Y-15338660D02*
X8084096Y-15348184D01*
X8084096Y-15348184D02*
X8046001Y-15348184D01*
X8046001Y-15348184D02*
X8026953Y-15338660D01*
X8026953Y-15338660D02*
X8017430Y-15319612D01*
X8017430Y-15319612D02*
X8017430Y-15243422D01*
X8017430Y-15243422D02*
X8026953Y-15224374D01*
X8026953Y-15224374D02*
X8046001Y-15214850D01*
X8046001Y-15214850D02*
X8084096Y-15214850D01*
X8084096Y-15214850D02*
X8103144Y-15224374D01*
X8103144Y-15224374D02*
X8112668Y-15243422D01*
X8112668Y-15243422D02*
X8112668Y-15262469D01*
X8112668Y-15262469D02*
X8017430Y-15281517D01*
X8188858Y-15338660D02*
X8207906Y-15348184D01*
X8207906Y-15348184D02*
X8246001Y-15348184D01*
X8246001Y-15348184D02*
X8265049Y-15338660D01*
X8265049Y-15338660D02*
X8274572Y-15319612D01*
X8274572Y-15319612D02*
X8274572Y-15310088D01*
X8274572Y-15310088D02*
X8265049Y-15291041D01*
X8265049Y-15291041D02*
X8246001Y-15281517D01*
X8246001Y-15281517D02*
X8217430Y-15281517D01*
X8217430Y-15281517D02*
X8198382Y-15271993D01*
X8198382Y-15271993D02*
X8188858Y-15252946D01*
X8188858Y-15252946D02*
X8188858Y-15243422D01*
X8188858Y-15243422D02*
X8198382Y-15224374D01*
X8198382Y-15224374D02*
X8217430Y-15214850D01*
X8217430Y-15214850D02*
X8246001Y-15214850D01*
X8246001Y-15214850D02*
X8265049Y-15224374D01*
X8341239Y-15424374D02*
X8350763Y-15414850D01*
X8350763Y-15414850D02*
X8369811Y-15386279D01*
X8369811Y-15386279D02*
X8379334Y-15367231D01*
X8379334Y-15367231D02*
X8388858Y-15338660D01*
X8388858Y-15338660D02*
X8398382Y-15291041D01*
X8398382Y-15291041D02*
X8398382Y-15252946D01*
X8398382Y-15252946D02*
X8388858Y-15205327D01*
X8388858Y-15205327D02*
X8379334Y-15176755D01*
X8379334Y-15176755D02*
X8369811Y-15157708D01*
X8369811Y-15157708D02*
X8350763Y-15129136D01*
X8350763Y-15129136D02*
X8341239Y-15119612D01*
X3175700Y-15420700D02*
X3375700Y-15620700D01*
X3375700Y-15420700D02*
X3175700Y-15620700D01*
X3346411Y-15591411D02*
X3346411Y-15449989D01*
X3204989Y-15449989D01*
X3204989Y-15591411D01*
X3346411Y-15591411D01*
X3626953Y-15431231D02*
X3636477Y-15421708D01*
X3636477Y-15421708D02*
X3655524Y-15412184D01*
X3655524Y-15412184D02*
X3703143Y-15412184D01*
X3703143Y-15412184D02*
X3722191Y-15421708D01*
X3722191Y-15421708D02*
X3731715Y-15431231D01*
X3731715Y-15431231D02*
X3741239Y-15450279D01*
X3741239Y-15450279D02*
X3741239Y-15469327D01*
X3741239Y-15469327D02*
X3731715Y-15497898D01*
X3731715Y-15497898D02*
X3617429Y-15612184D01*
X3617429Y-15612184D02*
X3741239Y-15612184D01*
X3826953Y-15593136D02*
X3836477Y-15602660D01*
X3836477Y-15602660D02*
X3826953Y-15612184D01*
X3826953Y-15612184D02*
X3817429Y-15602660D01*
X3817429Y-15602660D02*
X3826953Y-15593136D01*
X3826953Y-15593136D02*
X3826953Y-15612184D01*
X3912667Y-15431231D02*
X3922191Y-15421708D01*
X3922191Y-15421708D02*
X3941239Y-15412184D01*
X3941239Y-15412184D02*
X3988858Y-15412184D01*
X3988858Y-15412184D02*
X4007905Y-15421708D01*
X4007905Y-15421708D02*
X4017429Y-15431231D01*
X4017429Y-15431231D02*
X4026953Y-15450279D01*
X4026953Y-15450279D02*
X4026953Y-15469327D01*
X4026953Y-15469327D02*
X4017429Y-15497898D01*
X4017429Y-15497898D02*
X3903143Y-15612184D01*
X3903143Y-15612184D02*
X4026953Y-15612184D01*
X4150762Y-15412184D02*
X4169810Y-15412184D01*
X4169810Y-15412184D02*
X4188858Y-15421708D01*
X4188858Y-15421708D02*
X4198382Y-15431231D01*
X4198382Y-15431231D02*
X4207905Y-15450279D01*
X4207905Y-15450279D02*
X4217429Y-15488374D01*
X4217429Y-15488374D02*
X4217429Y-15535993D01*
X4217429Y-15535993D02*
X4207905Y-15574088D01*
X4207905Y-15574088D02*
X4198382Y-15593136D01*
X4198382Y-15593136D02*
X4188858Y-15602660D01*
X4188858Y-15602660D02*
X4169810Y-15612184D01*
X4169810Y-15612184D02*
X4150762Y-15612184D01*
X4150762Y-15612184D02*
X4131715Y-15602660D01*
X4131715Y-15602660D02*
X4122191Y-15593136D01*
X4122191Y-15593136D02*
X4112667Y-15574088D01*
X4112667Y-15574088D02*
X4103143Y-15535993D01*
X4103143Y-15535993D02*
X4103143Y-15488374D01*
X4103143Y-15488374D02*
X4112667Y-15450279D01*
X4112667Y-15450279D02*
X4122191Y-15431231D01*
X4122191Y-15431231D02*
X4131715Y-15421708D01*
X4131715Y-15421708D02*
X4150762Y-15412184D01*
X4341239Y-15412184D02*
X4360286Y-15412184D01*
X4360286Y-15412184D02*
X4379334Y-15421708D01*
X4379334Y-15421708D02*
X4388858Y-15431231D01*
X4388858Y-15431231D02*
X4398382Y-15450279D01*
X4398382Y-15450279D02*
X4407905Y-15488374D01*
X4407905Y-15488374D02*
X4407905Y-15535993D01*
X4407905Y-15535993D02*
X4398382Y-15574088D01*
X4398382Y-15574088D02*
X4388858Y-15593136D01*
X4388858Y-15593136D02*
X4379334Y-15602660D01*
X4379334Y-15602660D02*
X4360286Y-15612184D01*
X4360286Y-15612184D02*
X4341239Y-15612184D01*
X4341239Y-15612184D02*
X4322191Y-15602660D01*
X4322191Y-15602660D02*
X4312667Y-15593136D01*
X4312667Y-15593136D02*
X4303144Y-15574088D01*
X4303144Y-15574088D02*
X4293620Y-15535993D01*
X4293620Y-15535993D02*
X4293620Y-15488374D01*
X4293620Y-15488374D02*
X4303144Y-15450279D01*
X4303144Y-15450279D02*
X4312667Y-15431231D01*
X4312667Y-15431231D02*
X4322191Y-15421708D01*
X4322191Y-15421708D02*
X4341239Y-15412184D01*
X4493620Y-15612184D02*
X4493620Y-15478850D01*
X4493620Y-15497898D02*
X4503144Y-15488374D01*
X4503144Y-15488374D02*
X4522191Y-15478850D01*
X4522191Y-15478850D02*
X4550763Y-15478850D01*
X4550763Y-15478850D02*
X4569810Y-15488374D01*
X4569810Y-15488374D02*
X4579334Y-15507422D01*
X4579334Y-15507422D02*
X4579334Y-15612184D01*
X4579334Y-15507422D02*
X4588858Y-15488374D01*
X4588858Y-15488374D02*
X4607905Y-15478850D01*
X4607905Y-15478850D02*
X4636477Y-15478850D01*
X4636477Y-15478850D02*
X4655525Y-15488374D01*
X4655525Y-15488374D02*
X4665048Y-15507422D01*
X4665048Y-15507422D02*
X4665048Y-15612184D01*
X4760286Y-15612184D02*
X4760286Y-15478850D01*
X4760286Y-15497898D02*
X4769810Y-15488374D01*
X4769810Y-15488374D02*
X4788858Y-15478850D01*
X4788858Y-15478850D02*
X4817429Y-15478850D01*
X4817429Y-15478850D02*
X4836477Y-15488374D01*
X4836477Y-15488374D02*
X4846001Y-15507422D01*
X4846001Y-15507422D02*
X4846001Y-15612184D01*
X4846001Y-15507422D02*
X4855525Y-15488374D01*
X4855525Y-15488374D02*
X4874572Y-15478850D01*
X4874572Y-15478850D02*
X4903144Y-15478850D01*
X4903144Y-15478850D02*
X4922191Y-15488374D01*
X4922191Y-15488374D02*
X4931715Y-15507422D01*
X4931715Y-15507422D02*
X4931715Y-15612184D01*
X5322191Y-15402660D02*
X5150763Y-15659803D01*
X5579334Y-15412184D02*
X5598382Y-15412184D01*
X5598382Y-15412184D02*
X5617429Y-15421708D01*
X5617429Y-15421708D02*
X5626953Y-15431231D01*
X5626953Y-15431231D02*
X5636477Y-15450279D01*
X5636477Y-15450279D02*
X5646001Y-15488374D01*
X5646001Y-15488374D02*
X5646001Y-15535993D01*
X5646001Y-15535993D02*
X5636477Y-15574088D01*
X5636477Y-15574088D02*
X5626953Y-15593136D01*
X5626953Y-15593136D02*
X5617429Y-15602660D01*
X5617429Y-15602660D02*
X5598382Y-15612184D01*
X5598382Y-15612184D02*
X5579334Y-15612184D01*
X5579334Y-15612184D02*
X5560287Y-15602660D01*
X5560287Y-15602660D02*
X5550763Y-15593136D01*
X5550763Y-15593136D02*
X5541239Y-15574088D01*
X5541239Y-15574088D02*
X5531715Y-15535993D01*
X5531715Y-15535993D02*
X5531715Y-15488374D01*
X5531715Y-15488374D02*
X5541239Y-15450279D01*
X5541239Y-15450279D02*
X5550763Y-15431231D01*
X5550763Y-15431231D02*
X5560287Y-15421708D01*
X5560287Y-15421708D02*
X5579334Y-15412184D01*
X5731715Y-15593136D02*
X5741239Y-15602660D01*
X5741239Y-15602660D02*
X5731715Y-15612184D01*
X5731715Y-15612184D02*
X5722191Y-15602660D01*
X5722191Y-15602660D02*
X5731715Y-15593136D01*
X5731715Y-15593136D02*
X5731715Y-15612184D01*
X5865048Y-15412184D02*
X5884096Y-15412184D01*
X5884096Y-15412184D02*
X5903144Y-15421708D01*
X5903144Y-15421708D02*
X5912667Y-15431231D01*
X5912667Y-15431231D02*
X5922191Y-15450279D01*
X5922191Y-15450279D02*
X5931715Y-15488374D01*
X5931715Y-15488374D02*
X5931715Y-15535993D01*
X5931715Y-15535993D02*
X5922191Y-15574088D01*
X5922191Y-15574088D02*
X5912667Y-15593136D01*
X5912667Y-15593136D02*
X5903144Y-15602660D01*
X5903144Y-15602660D02*
X5884096Y-15612184D01*
X5884096Y-15612184D02*
X5865048Y-15612184D01*
X5865048Y-15612184D02*
X5846001Y-15602660D01*
X5846001Y-15602660D02*
X5836477Y-15593136D01*
X5836477Y-15593136D02*
X5826953Y-15574088D01*
X5826953Y-15574088D02*
X5817429Y-15535993D01*
X5817429Y-15535993D02*
X5817429Y-15488374D01*
X5817429Y-15488374D02*
X5826953Y-15450279D01*
X5826953Y-15450279D02*
X5836477Y-15431231D01*
X5836477Y-15431231D02*
X5846001Y-15421708D01*
X5846001Y-15421708D02*
X5865048Y-15412184D01*
X6046001Y-15497898D02*
X6026953Y-15488374D01*
X6026953Y-15488374D02*
X6017429Y-15478850D01*
X6017429Y-15478850D02*
X6007906Y-15459803D01*
X6007906Y-15459803D02*
X6007906Y-15450279D01*
X6007906Y-15450279D02*
X6017429Y-15431231D01*
X6017429Y-15431231D02*
X6026953Y-15421708D01*
X6026953Y-15421708D02*
X6046001Y-15412184D01*
X6046001Y-15412184D02*
X6084096Y-15412184D01*
X6084096Y-15412184D02*
X6103144Y-15421708D01*
X6103144Y-15421708D02*
X6112667Y-15431231D01*
X6112667Y-15431231D02*
X6122191Y-15450279D01*
X6122191Y-15450279D02*
X6122191Y-15459803D01*
X6122191Y-15459803D02*
X6112667Y-15478850D01*
X6112667Y-15478850D02*
X6103144Y-15488374D01*
X6103144Y-15488374D02*
X6084096Y-15497898D01*
X6084096Y-15497898D02*
X6046001Y-15497898D01*
X6046001Y-15497898D02*
X6026953Y-15507422D01*
X6026953Y-15507422D02*
X6017429Y-15516946D01*
X6017429Y-15516946D02*
X6007906Y-15535993D01*
X6007906Y-15535993D02*
X6007906Y-15574088D01*
X6007906Y-15574088D02*
X6017429Y-15593136D01*
X6017429Y-15593136D02*
X6026953Y-15602660D01*
X6026953Y-15602660D02*
X6046001Y-15612184D01*
X6046001Y-15612184D02*
X6084096Y-15612184D01*
X6084096Y-15612184D02*
X6103144Y-15602660D01*
X6103144Y-15602660D02*
X6112667Y-15593136D01*
X6112667Y-15593136D02*
X6122191Y-15574088D01*
X6122191Y-15574088D02*
X6122191Y-15535993D01*
X6122191Y-15535993D02*
X6112667Y-15516946D01*
X6112667Y-15516946D02*
X6103144Y-15507422D01*
X6103144Y-15507422D02*
X6084096Y-15497898D01*
X6293620Y-15412184D02*
X6255525Y-15412184D01*
X6255525Y-15412184D02*
X6236477Y-15421708D01*
X6236477Y-15421708D02*
X6226953Y-15431231D01*
X6226953Y-15431231D02*
X6207906Y-15459803D01*
X6207906Y-15459803D02*
X6198382Y-15497898D01*
X6198382Y-15497898D02*
X6198382Y-15574088D01*
X6198382Y-15574088D02*
X6207906Y-15593136D01*
X6207906Y-15593136D02*
X6217429Y-15602660D01*
X6217429Y-15602660D02*
X6236477Y-15612184D01*
X6236477Y-15612184D02*
X6274572Y-15612184D01*
X6274572Y-15612184D02*
X6293620Y-15602660D01*
X6293620Y-15602660D02*
X6303144Y-15593136D01*
X6303144Y-15593136D02*
X6312667Y-15574088D01*
X6312667Y-15574088D02*
X6312667Y-15526469D01*
X6312667Y-15526469D02*
X6303144Y-15507422D01*
X6303144Y-15507422D02*
X6293620Y-15497898D01*
X6293620Y-15497898D02*
X6274572Y-15488374D01*
X6274572Y-15488374D02*
X6236477Y-15488374D01*
X6236477Y-15488374D02*
X6217429Y-15497898D01*
X6217429Y-15497898D02*
X6207906Y-15507422D01*
X6207906Y-15507422D02*
X6198382Y-15526469D01*
X6484096Y-15412184D02*
X6446001Y-15412184D01*
X6446001Y-15412184D02*
X6426953Y-15421708D01*
X6426953Y-15421708D02*
X6417429Y-15431231D01*
X6417429Y-15431231D02*
X6398382Y-15459803D01*
X6398382Y-15459803D02*
X6388858Y-15497898D01*
X6388858Y-15497898D02*
X6388858Y-15574088D01*
X6388858Y-15574088D02*
X6398382Y-15593136D01*
X6398382Y-15593136D02*
X6407906Y-15602660D01*
X6407906Y-15602660D02*
X6426953Y-15612184D01*
X6426953Y-15612184D02*
X6465048Y-15612184D01*
X6465048Y-15612184D02*
X6484096Y-15602660D01*
X6484096Y-15602660D02*
X6493620Y-15593136D01*
X6493620Y-15593136D02*
X6503144Y-15574088D01*
X6503144Y-15574088D02*
X6503144Y-15526469D01*
X6503144Y-15526469D02*
X6493620Y-15507422D01*
X6493620Y-15507422D02*
X6484096Y-15497898D01*
X6484096Y-15497898D02*
X6465048Y-15488374D01*
X6465048Y-15488374D02*
X6426953Y-15488374D01*
X6426953Y-15488374D02*
X6407906Y-15497898D01*
X6407906Y-15497898D02*
X6398382Y-15507422D01*
X6398382Y-15507422D02*
X6388858Y-15526469D01*
X6579334Y-15412184D02*
X6579334Y-15450279D01*
X6655525Y-15412184D02*
X6655525Y-15450279D01*
X6950763Y-15688374D02*
X6941239Y-15678850D01*
X6941239Y-15678850D02*
X6922191Y-15650279D01*
X6922191Y-15650279D02*
X6912668Y-15631231D01*
X6912668Y-15631231D02*
X6903144Y-15602660D01*
X6903144Y-15602660D02*
X6893620Y-15555041D01*
X6893620Y-15555041D02*
X6893620Y-15516946D01*
X6893620Y-15516946D02*
X6903144Y-15469327D01*
X6903144Y-15469327D02*
X6912668Y-15440755D01*
X6912668Y-15440755D02*
X6922191Y-15421708D01*
X6922191Y-15421708D02*
X6941239Y-15393136D01*
X6941239Y-15393136D02*
X6950763Y-15383612D01*
X7112668Y-15478850D02*
X7112668Y-15612184D01*
X7065048Y-15402660D02*
X7017429Y-15545517D01*
X7017429Y-15545517D02*
X7141239Y-15545517D01*
X7369810Y-15612184D02*
X7369810Y-15412184D01*
X7455525Y-15612184D02*
X7455525Y-15507422D01*
X7455525Y-15507422D02*
X7446001Y-15488374D01*
X7446001Y-15488374D02*
X7426953Y-15478850D01*
X7426953Y-15478850D02*
X7398382Y-15478850D01*
X7398382Y-15478850D02*
X7379334Y-15488374D01*
X7379334Y-15488374D02*
X7369810Y-15497898D01*
X7579334Y-15612184D02*
X7560287Y-15602660D01*
X7560287Y-15602660D02*
X7550763Y-15593136D01*
X7550763Y-15593136D02*
X7541239Y-15574088D01*
X7541239Y-15574088D02*
X7541239Y-15516946D01*
X7541239Y-15516946D02*
X7550763Y-15497898D01*
X7550763Y-15497898D02*
X7560287Y-15488374D01*
X7560287Y-15488374D02*
X7579334Y-15478850D01*
X7579334Y-15478850D02*
X7607906Y-15478850D01*
X7607906Y-15478850D02*
X7626953Y-15488374D01*
X7626953Y-15488374D02*
X7636477Y-15497898D01*
X7636477Y-15497898D02*
X7646001Y-15516946D01*
X7646001Y-15516946D02*
X7646001Y-15574088D01*
X7646001Y-15574088D02*
X7636477Y-15593136D01*
X7636477Y-15593136D02*
X7626953Y-15602660D01*
X7626953Y-15602660D02*
X7607906Y-15612184D01*
X7607906Y-15612184D02*
X7579334Y-15612184D01*
X7760287Y-15612184D02*
X7741239Y-15602660D01*
X7741239Y-15602660D02*
X7731715Y-15583612D01*
X7731715Y-15583612D02*
X7731715Y-15412184D01*
X7912668Y-15602660D02*
X7893620Y-15612184D01*
X7893620Y-15612184D02*
X7855525Y-15612184D01*
X7855525Y-15612184D02*
X7836477Y-15602660D01*
X7836477Y-15602660D02*
X7826953Y-15583612D01*
X7826953Y-15583612D02*
X7826953Y-15507422D01*
X7826953Y-15507422D02*
X7836477Y-15488374D01*
X7836477Y-15488374D02*
X7855525Y-15478850D01*
X7855525Y-15478850D02*
X7893620Y-15478850D01*
X7893620Y-15478850D02*
X7912668Y-15488374D01*
X7912668Y-15488374D02*
X7922191Y-15507422D01*
X7922191Y-15507422D02*
X7922191Y-15526469D01*
X7922191Y-15526469D02*
X7826953Y-15545517D01*
X7998382Y-15602660D02*
X8017430Y-15612184D01*
X8017430Y-15612184D02*
X8055525Y-15612184D01*
X8055525Y-15612184D02*
X8074572Y-15602660D01*
X8074572Y-15602660D02*
X8084096Y-15583612D01*
X8084096Y-15583612D02*
X8084096Y-15574088D01*
X8084096Y-15574088D02*
X8074572Y-15555041D01*
X8074572Y-15555041D02*
X8055525Y-15545517D01*
X8055525Y-15545517D02*
X8026953Y-15545517D01*
X8026953Y-15545517D02*
X8007906Y-15535993D01*
X8007906Y-15535993D02*
X7998382Y-15516946D01*
X7998382Y-15516946D02*
X7998382Y-15507422D01*
X7998382Y-15507422D02*
X8007906Y-15488374D01*
X8007906Y-15488374D02*
X8026953Y-15478850D01*
X8026953Y-15478850D02*
X8055525Y-15478850D01*
X8055525Y-15478850D02*
X8074572Y-15488374D01*
X8150763Y-15688374D02*
X8160287Y-15678850D01*
X8160287Y-15678850D02*
X8179334Y-15650279D01*
X8179334Y-15650279D02*
X8188858Y-15631231D01*
X8188858Y-15631231D02*
X8198382Y-15602660D01*
X8198382Y-15602660D02*
X8207906Y-15555041D01*
X8207906Y-15555041D02*
X8207906Y-15516946D01*
X8207906Y-15516946D02*
X8198382Y-15469327D01*
X8198382Y-15469327D02*
X8188858Y-15440755D01*
X8188858Y-15440755D02*
X8179334Y-15421708D01*
X8179334Y-15421708D02*
X8160287Y-15393136D01*
X8160287Y-15393136D02*
X8150763Y-15383612D01*
X3175700Y-15740700D02*
X3375700Y-15940700D01*
X3375700Y-15740700D02*
X3175700Y-15940700D01*
X3275700Y-15940700D02*
X3375700Y-15840700D01*
X3275700Y-15740700D01*
X3175700Y-15840700D01*
X3275700Y-15940700D01*
X3617429Y-15732184D02*
X3741239Y-15732184D01*
X3741239Y-15732184D02*
X3674572Y-15808374D01*
X3674572Y-15808374D02*
X3703143Y-15808374D01*
X3703143Y-15808374D02*
X3722191Y-15817898D01*
X3722191Y-15817898D02*
X3731715Y-15827422D01*
X3731715Y-15827422D02*
X3741239Y-15846469D01*
X3741239Y-15846469D02*
X3741239Y-15894088D01*
X3741239Y-15894088D02*
X3731715Y-15913136D01*
X3731715Y-15913136D02*
X3722191Y-15922660D01*
X3722191Y-15922660D02*
X3703143Y-15932184D01*
X3703143Y-15932184D02*
X3646001Y-15932184D01*
X3646001Y-15932184D02*
X3626953Y-15922660D01*
X3626953Y-15922660D02*
X3617429Y-15913136D01*
X3826953Y-15913136D02*
X3836477Y-15922660D01*
X3836477Y-15922660D02*
X3826953Y-15932184D01*
X3826953Y-15932184D02*
X3817429Y-15922660D01*
X3817429Y-15922660D02*
X3826953Y-15913136D01*
X3826953Y-15913136D02*
X3826953Y-15932184D01*
X3960286Y-15732184D02*
X3979334Y-15732184D01*
X3979334Y-15732184D02*
X3998382Y-15741708D01*
X3998382Y-15741708D02*
X4007905Y-15751231D01*
X4007905Y-15751231D02*
X4017429Y-15770279D01*
X4017429Y-15770279D02*
X4026953Y-15808374D01*
X4026953Y-15808374D02*
X4026953Y-15855993D01*
X4026953Y-15855993D02*
X4017429Y-15894088D01*
X4017429Y-15894088D02*
X4007905Y-15913136D01*
X4007905Y-15913136D02*
X3998382Y-15922660D01*
X3998382Y-15922660D02*
X3979334Y-15932184D01*
X3979334Y-15932184D02*
X3960286Y-15932184D01*
X3960286Y-15932184D02*
X3941239Y-15922660D01*
X3941239Y-15922660D02*
X3931715Y-15913136D01*
X3931715Y-15913136D02*
X3922191Y-15894088D01*
X3922191Y-15894088D02*
X3912667Y-15855993D01*
X3912667Y-15855993D02*
X3912667Y-15808374D01*
X3912667Y-15808374D02*
X3922191Y-15770279D01*
X3922191Y-15770279D02*
X3931715Y-15751231D01*
X3931715Y-15751231D02*
X3941239Y-15741708D01*
X3941239Y-15741708D02*
X3960286Y-15732184D01*
X4198382Y-15798850D02*
X4198382Y-15932184D01*
X4150762Y-15722660D02*
X4103143Y-15865517D01*
X4103143Y-15865517D02*
X4226953Y-15865517D01*
X4331715Y-15817898D02*
X4312667Y-15808374D01*
X4312667Y-15808374D02*
X4303144Y-15798850D01*
X4303144Y-15798850D02*
X4293620Y-15779803D01*
X4293620Y-15779803D02*
X4293620Y-15770279D01*
X4293620Y-15770279D02*
X4303144Y-15751231D01*
X4303144Y-15751231D02*
X4312667Y-15741708D01*
X4312667Y-15741708D02*
X4331715Y-15732184D01*
X4331715Y-15732184D02*
X4369810Y-15732184D01*
X4369810Y-15732184D02*
X4388858Y-15741708D01*
X4388858Y-15741708D02*
X4398382Y-15751231D01*
X4398382Y-15751231D02*
X4407905Y-15770279D01*
X4407905Y-15770279D02*
X4407905Y-15779803D01*
X4407905Y-15779803D02*
X4398382Y-15798850D01*
X4398382Y-15798850D02*
X4388858Y-15808374D01*
X4388858Y-15808374D02*
X4369810Y-15817898D01*
X4369810Y-15817898D02*
X4331715Y-15817898D01*
X4331715Y-15817898D02*
X4312667Y-15827422D01*
X4312667Y-15827422D02*
X4303144Y-15836946D01*
X4303144Y-15836946D02*
X4293620Y-15855993D01*
X4293620Y-15855993D02*
X4293620Y-15894088D01*
X4293620Y-15894088D02*
X4303144Y-15913136D01*
X4303144Y-15913136D02*
X4312667Y-15922660D01*
X4312667Y-15922660D02*
X4331715Y-15932184D01*
X4331715Y-15932184D02*
X4369810Y-15932184D01*
X4369810Y-15932184D02*
X4388858Y-15922660D01*
X4388858Y-15922660D02*
X4398382Y-15913136D01*
X4398382Y-15913136D02*
X4407905Y-15894088D01*
X4407905Y-15894088D02*
X4407905Y-15855993D01*
X4407905Y-15855993D02*
X4398382Y-15836946D01*
X4398382Y-15836946D02*
X4388858Y-15827422D01*
X4388858Y-15827422D02*
X4369810Y-15817898D01*
X4493620Y-15932184D02*
X4493620Y-15798850D01*
X4493620Y-15817898D02*
X4503144Y-15808374D01*
X4503144Y-15808374D02*
X4522191Y-15798850D01*
X4522191Y-15798850D02*
X4550763Y-15798850D01*
X4550763Y-15798850D02*
X4569810Y-15808374D01*
X4569810Y-15808374D02*
X4579334Y-15827422D01*
X4579334Y-15827422D02*
X4579334Y-15932184D01*
X4579334Y-15827422D02*
X4588858Y-15808374D01*
X4588858Y-15808374D02*
X4607905Y-15798850D01*
X4607905Y-15798850D02*
X4636477Y-15798850D01*
X4636477Y-15798850D02*
X4655525Y-15808374D01*
X4655525Y-15808374D02*
X4665048Y-15827422D01*
X4665048Y-15827422D02*
X4665048Y-15932184D01*
X4760286Y-15932184D02*
X4760286Y-15798850D01*
X4760286Y-15817898D02*
X4769810Y-15808374D01*
X4769810Y-15808374D02*
X4788858Y-15798850D01*
X4788858Y-15798850D02*
X4817429Y-15798850D01*
X4817429Y-15798850D02*
X4836477Y-15808374D01*
X4836477Y-15808374D02*
X4846001Y-15827422D01*
X4846001Y-15827422D02*
X4846001Y-15932184D01*
X4846001Y-15827422D02*
X4855525Y-15808374D01*
X4855525Y-15808374D02*
X4874572Y-15798850D01*
X4874572Y-15798850D02*
X4903144Y-15798850D01*
X4903144Y-15798850D02*
X4922191Y-15808374D01*
X4922191Y-15808374D02*
X4931715Y-15827422D01*
X4931715Y-15827422D02*
X4931715Y-15932184D01*
X5322191Y-15722660D02*
X5150763Y-15979803D01*
X5579334Y-15732184D02*
X5598382Y-15732184D01*
X5598382Y-15732184D02*
X5617429Y-15741708D01*
X5617429Y-15741708D02*
X5626953Y-15751231D01*
X5626953Y-15751231D02*
X5636477Y-15770279D01*
X5636477Y-15770279D02*
X5646001Y-15808374D01*
X5646001Y-15808374D02*
X5646001Y-15855993D01*
X5646001Y-15855993D02*
X5636477Y-15894088D01*
X5636477Y-15894088D02*
X5626953Y-15913136D01*
X5626953Y-15913136D02*
X5617429Y-15922660D01*
X5617429Y-15922660D02*
X5598382Y-15932184D01*
X5598382Y-15932184D02*
X5579334Y-15932184D01*
X5579334Y-15932184D02*
X5560287Y-15922660D01*
X5560287Y-15922660D02*
X5550763Y-15913136D01*
X5550763Y-15913136D02*
X5541239Y-15894088D01*
X5541239Y-15894088D02*
X5531715Y-15855993D01*
X5531715Y-15855993D02*
X5531715Y-15808374D01*
X5531715Y-15808374D02*
X5541239Y-15770279D01*
X5541239Y-15770279D02*
X5550763Y-15751231D01*
X5550763Y-15751231D02*
X5560287Y-15741708D01*
X5560287Y-15741708D02*
X5579334Y-15732184D01*
X5731715Y-15913136D02*
X5741239Y-15922660D01*
X5741239Y-15922660D02*
X5731715Y-15932184D01*
X5731715Y-15932184D02*
X5722191Y-15922660D01*
X5722191Y-15922660D02*
X5731715Y-15913136D01*
X5731715Y-15913136D02*
X5731715Y-15932184D01*
X5931715Y-15932184D02*
X5817429Y-15932184D01*
X5874572Y-15932184D02*
X5874572Y-15732184D01*
X5874572Y-15732184D02*
X5855525Y-15760755D01*
X5855525Y-15760755D02*
X5836477Y-15779803D01*
X5836477Y-15779803D02*
X5817429Y-15789327D01*
X6007906Y-15751231D02*
X6017429Y-15741708D01*
X6017429Y-15741708D02*
X6036477Y-15732184D01*
X6036477Y-15732184D02*
X6084096Y-15732184D01*
X6084096Y-15732184D02*
X6103144Y-15741708D01*
X6103144Y-15741708D02*
X6112667Y-15751231D01*
X6112667Y-15751231D02*
X6122191Y-15770279D01*
X6122191Y-15770279D02*
X6122191Y-15789327D01*
X6122191Y-15789327D02*
X6112667Y-15817898D01*
X6112667Y-15817898D02*
X5998382Y-15932184D01*
X5998382Y-15932184D02*
X6122191Y-15932184D01*
X6246001Y-15732184D02*
X6265048Y-15732184D01*
X6265048Y-15732184D02*
X6284096Y-15741708D01*
X6284096Y-15741708D02*
X6293620Y-15751231D01*
X6293620Y-15751231D02*
X6303144Y-15770279D01*
X6303144Y-15770279D02*
X6312667Y-15808374D01*
X6312667Y-15808374D02*
X6312667Y-15855993D01*
X6312667Y-15855993D02*
X6303144Y-15894088D01*
X6303144Y-15894088D02*
X6293620Y-15913136D01*
X6293620Y-15913136D02*
X6284096Y-15922660D01*
X6284096Y-15922660D02*
X6265048Y-15932184D01*
X6265048Y-15932184D02*
X6246001Y-15932184D01*
X6246001Y-15932184D02*
X6226953Y-15922660D01*
X6226953Y-15922660D02*
X6217429Y-15913136D01*
X6217429Y-15913136D02*
X6207906Y-15894088D01*
X6207906Y-15894088D02*
X6198382Y-15855993D01*
X6198382Y-15855993D02*
X6198382Y-15808374D01*
X6198382Y-15808374D02*
X6207906Y-15770279D01*
X6207906Y-15770279D02*
X6217429Y-15751231D01*
X6217429Y-15751231D02*
X6226953Y-15741708D01*
X6226953Y-15741708D02*
X6246001Y-15732184D01*
X6436477Y-15732184D02*
X6455525Y-15732184D01*
X6455525Y-15732184D02*
X6474572Y-15741708D01*
X6474572Y-15741708D02*
X6484096Y-15751231D01*
X6484096Y-15751231D02*
X6493620Y-15770279D01*
X6493620Y-15770279D02*
X6503144Y-15808374D01*
X6503144Y-15808374D02*
X6503144Y-15855993D01*
X6503144Y-15855993D02*
X6493620Y-15894088D01*
X6493620Y-15894088D02*
X6484096Y-15913136D01*
X6484096Y-15913136D02*
X6474572Y-15922660D01*
X6474572Y-15922660D02*
X6455525Y-15932184D01*
X6455525Y-15932184D02*
X6436477Y-15932184D01*
X6436477Y-15932184D02*
X6417429Y-15922660D01*
X6417429Y-15922660D02*
X6407906Y-15913136D01*
X6407906Y-15913136D02*
X6398382Y-15894088D01*
X6398382Y-15894088D02*
X6388858Y-15855993D01*
X6388858Y-15855993D02*
X6388858Y-15808374D01*
X6388858Y-15808374D02*
X6398382Y-15770279D01*
X6398382Y-15770279D02*
X6407906Y-15751231D01*
X6407906Y-15751231D02*
X6417429Y-15741708D01*
X6417429Y-15741708D02*
X6436477Y-15732184D01*
X6579334Y-15732184D02*
X6579334Y-15770279D01*
X6655525Y-15732184D02*
X6655525Y-15770279D01*
X6950763Y-16008374D02*
X6941239Y-15998850D01*
X6941239Y-15998850D02*
X6922191Y-15970279D01*
X6922191Y-15970279D02*
X6912668Y-15951231D01*
X6912668Y-15951231D02*
X6903144Y-15922660D01*
X6903144Y-15922660D02*
X6893620Y-15875041D01*
X6893620Y-15875041D02*
X6893620Y-15836946D01*
X6893620Y-15836946D02*
X6903144Y-15789327D01*
X6903144Y-15789327D02*
X6912668Y-15760755D01*
X6912668Y-15760755D02*
X6922191Y-15741708D01*
X6922191Y-15741708D02*
X6941239Y-15713136D01*
X6941239Y-15713136D02*
X6950763Y-15703612D01*
X7017429Y-15751231D02*
X7026953Y-15741708D01*
X7026953Y-15741708D02*
X7046001Y-15732184D01*
X7046001Y-15732184D02*
X7093620Y-15732184D01*
X7093620Y-15732184D02*
X7112668Y-15741708D01*
X7112668Y-15741708D02*
X7122191Y-15751231D01*
X7122191Y-15751231D02*
X7131715Y-15770279D01*
X7131715Y-15770279D02*
X7131715Y-15789327D01*
X7131715Y-15789327D02*
X7122191Y-15817898D01*
X7122191Y-15817898D02*
X7007906Y-15932184D01*
X7007906Y-15932184D02*
X7131715Y-15932184D01*
X7369810Y-15932184D02*
X7369810Y-15732184D01*
X7455525Y-15932184D02*
X7455525Y-15827422D01*
X7455525Y-15827422D02*
X7446001Y-15808374D01*
X7446001Y-15808374D02*
X7426953Y-15798850D01*
X7426953Y-15798850D02*
X7398382Y-15798850D01*
X7398382Y-15798850D02*
X7379334Y-15808374D01*
X7379334Y-15808374D02*
X7369810Y-15817898D01*
X7579334Y-15932184D02*
X7560287Y-15922660D01*
X7560287Y-15922660D02*
X7550763Y-15913136D01*
X7550763Y-15913136D02*
X7541239Y-15894088D01*
X7541239Y-15894088D02*
X7541239Y-15836946D01*
X7541239Y-15836946D02*
X7550763Y-15817898D01*
X7550763Y-15817898D02*
X7560287Y-15808374D01*
X7560287Y-15808374D02*
X7579334Y-15798850D01*
X7579334Y-15798850D02*
X7607906Y-15798850D01*
X7607906Y-15798850D02*
X7626953Y-15808374D01*
X7626953Y-15808374D02*
X7636477Y-15817898D01*
X7636477Y-15817898D02*
X7646001Y-15836946D01*
X7646001Y-15836946D02*
X7646001Y-15894088D01*
X7646001Y-15894088D02*
X7636477Y-15913136D01*
X7636477Y-15913136D02*
X7626953Y-15922660D01*
X7626953Y-15922660D02*
X7607906Y-15932184D01*
X7607906Y-15932184D02*
X7579334Y-15932184D01*
X7760287Y-15932184D02*
X7741239Y-15922660D01*
X7741239Y-15922660D02*
X7731715Y-15903612D01*
X7731715Y-15903612D02*
X7731715Y-15732184D01*
X7912668Y-15922660D02*
X7893620Y-15932184D01*
X7893620Y-15932184D02*
X7855525Y-15932184D01*
X7855525Y-15932184D02*
X7836477Y-15922660D01*
X7836477Y-15922660D02*
X7826953Y-15903612D01*
X7826953Y-15903612D02*
X7826953Y-15827422D01*
X7826953Y-15827422D02*
X7836477Y-15808374D01*
X7836477Y-15808374D02*
X7855525Y-15798850D01*
X7855525Y-15798850D02*
X7893620Y-15798850D01*
X7893620Y-15798850D02*
X7912668Y-15808374D01*
X7912668Y-15808374D02*
X7922191Y-15827422D01*
X7922191Y-15827422D02*
X7922191Y-15846469D01*
X7922191Y-15846469D02*
X7826953Y-15865517D01*
X7998382Y-15922660D02*
X8017430Y-15932184D01*
X8017430Y-15932184D02*
X8055525Y-15932184D01*
X8055525Y-15932184D02*
X8074572Y-15922660D01*
X8074572Y-15922660D02*
X8084096Y-15903612D01*
X8084096Y-15903612D02*
X8084096Y-15894088D01*
X8084096Y-15894088D02*
X8074572Y-15875041D01*
X8074572Y-15875041D02*
X8055525Y-15865517D01*
X8055525Y-15865517D02*
X8026953Y-15865517D01*
X8026953Y-15865517D02*
X8007906Y-15855993D01*
X8007906Y-15855993D02*
X7998382Y-15836946D01*
X7998382Y-15836946D02*
X7998382Y-15827422D01*
X7998382Y-15827422D02*
X8007906Y-15808374D01*
X8007906Y-15808374D02*
X8026953Y-15798850D01*
X8026953Y-15798850D02*
X8055525Y-15798850D01*
X8055525Y-15798850D02*
X8074572Y-15808374D01*
X8150763Y-16008374D02*
X8160287Y-15998850D01*
X8160287Y-15998850D02*
X8179334Y-15970279D01*
X8179334Y-15970279D02*
X8188858Y-15951231D01*
X8188858Y-15951231D02*
X8198382Y-15922660D01*
X8198382Y-15922660D02*
X8207906Y-15875041D01*
X8207906Y-15875041D02*
X8207906Y-15836946D01*
X8207906Y-15836946D02*
X8198382Y-15789327D01*
X8198382Y-15789327D02*
X8188858Y-15760755D01*
X8188858Y-15760755D02*
X8179334Y-15741708D01*
X8179334Y-15741708D02*
X8160287Y-15713136D01*
X8160287Y-15713136D02*
X8150763Y-15703612D01*
X3275700Y-16060700D02*
X3275700Y-16260700D01*
X3175700Y-16160700D02*
X3375700Y-16160700D01*
X3375700Y-16160700D02*
G75*
G02*
X3175700Y-16160700I-100000J0D01*
G01*
X3175700Y-16160700D02*
G75*
G02*
X3375700Y-16160700I100000J0D01*
G01*
X3617429Y-16052184D02*
X3741239Y-16052184D01*
X3741239Y-16052184D02*
X3674572Y-16128374D01*
X3674572Y-16128374D02*
X3703143Y-16128374D01*
X3703143Y-16128374D02*
X3722191Y-16137898D01*
X3722191Y-16137898D02*
X3731715Y-16147422D01*
X3731715Y-16147422D02*
X3741239Y-16166469D01*
X3741239Y-16166469D02*
X3741239Y-16214088D01*
X3741239Y-16214088D02*
X3731715Y-16233136D01*
X3731715Y-16233136D02*
X3722191Y-16242660D01*
X3722191Y-16242660D02*
X3703143Y-16252184D01*
X3703143Y-16252184D02*
X3646001Y-16252184D01*
X3646001Y-16252184D02*
X3626953Y-16242660D01*
X3626953Y-16242660D02*
X3617429Y-16233136D01*
X3826953Y-16233136D02*
X3836477Y-16242660D01*
X3836477Y-16242660D02*
X3826953Y-16252184D01*
X3826953Y-16252184D02*
X3817429Y-16242660D01*
X3817429Y-16242660D02*
X3826953Y-16233136D01*
X3826953Y-16233136D02*
X3826953Y-16252184D01*
X3912667Y-16071231D02*
X3922191Y-16061708D01*
X3922191Y-16061708D02*
X3941239Y-16052184D01*
X3941239Y-16052184D02*
X3988858Y-16052184D01*
X3988858Y-16052184D02*
X4007905Y-16061708D01*
X4007905Y-16061708D02*
X4017429Y-16071231D01*
X4017429Y-16071231D02*
X4026953Y-16090279D01*
X4026953Y-16090279D02*
X4026953Y-16109327D01*
X4026953Y-16109327D02*
X4017429Y-16137898D01*
X4017429Y-16137898D02*
X3903143Y-16252184D01*
X3903143Y-16252184D02*
X4026953Y-16252184D01*
X4150762Y-16052184D02*
X4169810Y-16052184D01*
X4169810Y-16052184D02*
X4188858Y-16061708D01*
X4188858Y-16061708D02*
X4198382Y-16071231D01*
X4198382Y-16071231D02*
X4207905Y-16090279D01*
X4207905Y-16090279D02*
X4217429Y-16128374D01*
X4217429Y-16128374D02*
X4217429Y-16175993D01*
X4217429Y-16175993D02*
X4207905Y-16214088D01*
X4207905Y-16214088D02*
X4198382Y-16233136D01*
X4198382Y-16233136D02*
X4188858Y-16242660D01*
X4188858Y-16242660D02*
X4169810Y-16252184D01*
X4169810Y-16252184D02*
X4150762Y-16252184D01*
X4150762Y-16252184D02*
X4131715Y-16242660D01*
X4131715Y-16242660D02*
X4122191Y-16233136D01*
X4122191Y-16233136D02*
X4112667Y-16214088D01*
X4112667Y-16214088D02*
X4103143Y-16175993D01*
X4103143Y-16175993D02*
X4103143Y-16128374D01*
X4103143Y-16128374D02*
X4112667Y-16090279D01*
X4112667Y-16090279D02*
X4122191Y-16071231D01*
X4122191Y-16071231D02*
X4131715Y-16061708D01*
X4131715Y-16061708D02*
X4150762Y-16052184D01*
X4341239Y-16052184D02*
X4360286Y-16052184D01*
X4360286Y-16052184D02*
X4379334Y-16061708D01*
X4379334Y-16061708D02*
X4388858Y-16071231D01*
X4388858Y-16071231D02*
X4398382Y-16090279D01*
X4398382Y-16090279D02*
X4407905Y-16128374D01*
X4407905Y-16128374D02*
X4407905Y-16175993D01*
X4407905Y-16175993D02*
X4398382Y-16214088D01*
X4398382Y-16214088D02*
X4388858Y-16233136D01*
X4388858Y-16233136D02*
X4379334Y-16242660D01*
X4379334Y-16242660D02*
X4360286Y-16252184D01*
X4360286Y-16252184D02*
X4341239Y-16252184D01*
X4341239Y-16252184D02*
X4322191Y-16242660D01*
X4322191Y-16242660D02*
X4312667Y-16233136D01*
X4312667Y-16233136D02*
X4303144Y-16214088D01*
X4303144Y-16214088D02*
X4293620Y-16175993D01*
X4293620Y-16175993D02*
X4293620Y-16128374D01*
X4293620Y-16128374D02*
X4303144Y-16090279D01*
X4303144Y-16090279D02*
X4312667Y-16071231D01*
X4312667Y-16071231D02*
X4322191Y-16061708D01*
X4322191Y-16061708D02*
X4341239Y-16052184D01*
X4493620Y-16252184D02*
X4493620Y-16118850D01*
X4493620Y-16137898D02*
X4503144Y-16128374D01*
X4503144Y-16128374D02*
X4522191Y-16118850D01*
X4522191Y-16118850D02*
X4550763Y-16118850D01*
X4550763Y-16118850D02*
X4569810Y-16128374D01*
X4569810Y-16128374D02*
X4579334Y-16147422D01*
X4579334Y-16147422D02*
X4579334Y-16252184D01*
X4579334Y-16147422D02*
X4588858Y-16128374D01*
X4588858Y-16128374D02*
X4607905Y-16118850D01*
X4607905Y-16118850D02*
X4636477Y-16118850D01*
X4636477Y-16118850D02*
X4655525Y-16128374D01*
X4655525Y-16128374D02*
X4665048Y-16147422D01*
X4665048Y-16147422D02*
X4665048Y-16252184D01*
X4760286Y-16252184D02*
X4760286Y-16118850D01*
X4760286Y-16137898D02*
X4769810Y-16128374D01*
X4769810Y-16128374D02*
X4788858Y-16118850D01*
X4788858Y-16118850D02*
X4817429Y-16118850D01*
X4817429Y-16118850D02*
X4836477Y-16128374D01*
X4836477Y-16128374D02*
X4846001Y-16147422D01*
X4846001Y-16147422D02*
X4846001Y-16252184D01*
X4846001Y-16147422D02*
X4855525Y-16128374D01*
X4855525Y-16128374D02*
X4874572Y-16118850D01*
X4874572Y-16118850D02*
X4903144Y-16118850D01*
X4903144Y-16118850D02*
X4922191Y-16128374D01*
X4922191Y-16128374D02*
X4931715Y-16147422D01*
X4931715Y-16147422D02*
X4931715Y-16252184D01*
X5322191Y-16042660D02*
X5150763Y-16299803D01*
X5579334Y-16052184D02*
X5598382Y-16052184D01*
X5598382Y-16052184D02*
X5617429Y-16061708D01*
X5617429Y-16061708D02*
X5626953Y-16071231D01*
X5626953Y-16071231D02*
X5636477Y-16090279D01*
X5636477Y-16090279D02*
X5646001Y-16128374D01*
X5646001Y-16128374D02*
X5646001Y-16175993D01*
X5646001Y-16175993D02*
X5636477Y-16214088D01*
X5636477Y-16214088D02*
X5626953Y-16233136D01*
X5626953Y-16233136D02*
X5617429Y-16242660D01*
X5617429Y-16242660D02*
X5598382Y-16252184D01*
X5598382Y-16252184D02*
X5579334Y-16252184D01*
X5579334Y-16252184D02*
X5560287Y-16242660D01*
X5560287Y-16242660D02*
X5550763Y-16233136D01*
X5550763Y-16233136D02*
X5541239Y-16214088D01*
X5541239Y-16214088D02*
X5531715Y-16175993D01*
X5531715Y-16175993D02*
X5531715Y-16128374D01*
X5531715Y-16128374D02*
X5541239Y-16090279D01*
X5541239Y-16090279D02*
X5550763Y-16071231D01*
X5550763Y-16071231D02*
X5560287Y-16061708D01*
X5560287Y-16061708D02*
X5579334Y-16052184D01*
X5731715Y-16233136D02*
X5741239Y-16242660D01*
X5741239Y-16242660D02*
X5731715Y-16252184D01*
X5731715Y-16252184D02*
X5722191Y-16242660D01*
X5722191Y-16242660D02*
X5731715Y-16233136D01*
X5731715Y-16233136D02*
X5731715Y-16252184D01*
X5931715Y-16252184D02*
X5817429Y-16252184D01*
X5874572Y-16252184D02*
X5874572Y-16052184D01*
X5874572Y-16052184D02*
X5855525Y-16080755D01*
X5855525Y-16080755D02*
X5836477Y-16099803D01*
X5836477Y-16099803D02*
X5817429Y-16109327D01*
X6007906Y-16071231D02*
X6017429Y-16061708D01*
X6017429Y-16061708D02*
X6036477Y-16052184D01*
X6036477Y-16052184D02*
X6084096Y-16052184D01*
X6084096Y-16052184D02*
X6103144Y-16061708D01*
X6103144Y-16061708D02*
X6112667Y-16071231D01*
X6112667Y-16071231D02*
X6122191Y-16090279D01*
X6122191Y-16090279D02*
X6122191Y-16109327D01*
X6122191Y-16109327D02*
X6112667Y-16137898D01*
X6112667Y-16137898D02*
X5998382Y-16252184D01*
X5998382Y-16252184D02*
X6122191Y-16252184D01*
X6293620Y-16052184D02*
X6255525Y-16052184D01*
X6255525Y-16052184D02*
X6236477Y-16061708D01*
X6236477Y-16061708D02*
X6226953Y-16071231D01*
X6226953Y-16071231D02*
X6207906Y-16099803D01*
X6207906Y-16099803D02*
X6198382Y-16137898D01*
X6198382Y-16137898D02*
X6198382Y-16214088D01*
X6198382Y-16214088D02*
X6207906Y-16233136D01*
X6207906Y-16233136D02*
X6217429Y-16242660D01*
X6217429Y-16242660D02*
X6236477Y-16252184D01*
X6236477Y-16252184D02*
X6274572Y-16252184D01*
X6274572Y-16252184D02*
X6293620Y-16242660D01*
X6293620Y-16242660D02*
X6303144Y-16233136D01*
X6303144Y-16233136D02*
X6312667Y-16214088D01*
X6312667Y-16214088D02*
X6312667Y-16166469D01*
X6312667Y-16166469D02*
X6303144Y-16147422D01*
X6303144Y-16147422D02*
X6293620Y-16137898D01*
X6293620Y-16137898D02*
X6274572Y-16128374D01*
X6274572Y-16128374D02*
X6236477Y-16128374D01*
X6236477Y-16128374D02*
X6217429Y-16137898D01*
X6217429Y-16137898D02*
X6207906Y-16147422D01*
X6207906Y-16147422D02*
X6198382Y-16166469D01*
X6436477Y-16052184D02*
X6455525Y-16052184D01*
X6455525Y-16052184D02*
X6474572Y-16061708D01*
X6474572Y-16061708D02*
X6484096Y-16071231D01*
X6484096Y-16071231D02*
X6493620Y-16090279D01*
X6493620Y-16090279D02*
X6503144Y-16128374D01*
X6503144Y-16128374D02*
X6503144Y-16175993D01*
X6503144Y-16175993D02*
X6493620Y-16214088D01*
X6493620Y-16214088D02*
X6484096Y-16233136D01*
X6484096Y-16233136D02*
X6474572Y-16242660D01*
X6474572Y-16242660D02*
X6455525Y-16252184D01*
X6455525Y-16252184D02*
X6436477Y-16252184D01*
X6436477Y-16252184D02*
X6417429Y-16242660D01*
X6417429Y-16242660D02*
X6407906Y-16233136D01*
X6407906Y-16233136D02*
X6398382Y-16214088D01*
X6398382Y-16214088D02*
X6388858Y-16175993D01*
X6388858Y-16175993D02*
X6388858Y-16128374D01*
X6388858Y-16128374D02*
X6398382Y-16090279D01*
X6398382Y-16090279D02*
X6407906Y-16071231D01*
X6407906Y-16071231D02*
X6417429Y-16061708D01*
X6417429Y-16061708D02*
X6436477Y-16052184D01*
X6579334Y-16052184D02*
X6579334Y-16090279D01*
X6655525Y-16052184D02*
X6655525Y-16090279D01*
X6950763Y-16328374D02*
X6941239Y-16318850D01*
X6941239Y-16318850D02*
X6922191Y-16290279D01*
X6922191Y-16290279D02*
X6912668Y-16271231D01*
X6912668Y-16271231D02*
X6903144Y-16242660D01*
X6903144Y-16242660D02*
X6893620Y-16195041D01*
X6893620Y-16195041D02*
X6893620Y-16156946D01*
X6893620Y-16156946D02*
X6903144Y-16109327D01*
X6903144Y-16109327D02*
X6912668Y-16080755D01*
X6912668Y-16080755D02*
X6922191Y-16061708D01*
X6922191Y-16061708D02*
X6941239Y-16033136D01*
X6941239Y-16033136D02*
X6950763Y-16023612D01*
X7112668Y-16118850D02*
X7112668Y-16252184D01*
X7065048Y-16042660D02*
X7017429Y-16185517D01*
X7017429Y-16185517D02*
X7141239Y-16185517D01*
X7369810Y-16252184D02*
X7369810Y-16052184D01*
X7455525Y-16252184D02*
X7455525Y-16147422D01*
X7455525Y-16147422D02*
X7446001Y-16128374D01*
X7446001Y-16128374D02*
X7426953Y-16118850D01*
X7426953Y-16118850D02*
X7398382Y-16118850D01*
X7398382Y-16118850D02*
X7379334Y-16128374D01*
X7379334Y-16128374D02*
X7369810Y-16137898D01*
X7579334Y-16252184D02*
X7560287Y-16242660D01*
X7560287Y-16242660D02*
X7550763Y-16233136D01*
X7550763Y-16233136D02*
X7541239Y-16214088D01*
X7541239Y-16214088D02*
X7541239Y-16156946D01*
X7541239Y-16156946D02*
X7550763Y-16137898D01*
X7550763Y-16137898D02*
X7560287Y-16128374D01*
X7560287Y-16128374D02*
X7579334Y-16118850D01*
X7579334Y-16118850D02*
X7607906Y-16118850D01*
X7607906Y-16118850D02*
X7626953Y-16128374D01*
X7626953Y-16128374D02*
X7636477Y-16137898D01*
X7636477Y-16137898D02*
X7646001Y-16156946D01*
X7646001Y-16156946D02*
X7646001Y-16214088D01*
X7646001Y-16214088D02*
X7636477Y-16233136D01*
X7636477Y-16233136D02*
X7626953Y-16242660D01*
X7626953Y-16242660D02*
X7607906Y-16252184D01*
X7607906Y-16252184D02*
X7579334Y-16252184D01*
X7760287Y-16252184D02*
X7741239Y-16242660D01*
X7741239Y-16242660D02*
X7731715Y-16223612D01*
X7731715Y-16223612D02*
X7731715Y-16052184D01*
X7912668Y-16242660D02*
X7893620Y-16252184D01*
X7893620Y-16252184D02*
X7855525Y-16252184D01*
X7855525Y-16252184D02*
X7836477Y-16242660D01*
X7836477Y-16242660D02*
X7826953Y-16223612D01*
X7826953Y-16223612D02*
X7826953Y-16147422D01*
X7826953Y-16147422D02*
X7836477Y-16128374D01*
X7836477Y-16128374D02*
X7855525Y-16118850D01*
X7855525Y-16118850D02*
X7893620Y-16118850D01*
X7893620Y-16118850D02*
X7912668Y-16128374D01*
X7912668Y-16128374D02*
X7922191Y-16147422D01*
X7922191Y-16147422D02*
X7922191Y-16166469D01*
X7922191Y-16166469D02*
X7826953Y-16185517D01*
X7998382Y-16242660D02*
X8017430Y-16252184D01*
X8017430Y-16252184D02*
X8055525Y-16252184D01*
X8055525Y-16252184D02*
X8074572Y-16242660D01*
X8074572Y-16242660D02*
X8084096Y-16223612D01*
X8084096Y-16223612D02*
X8084096Y-16214088D01*
X8084096Y-16214088D02*
X8074572Y-16195041D01*
X8074572Y-16195041D02*
X8055525Y-16185517D01*
X8055525Y-16185517D02*
X8026953Y-16185517D01*
X8026953Y-16185517D02*
X8007906Y-16175993D01*
X8007906Y-16175993D02*
X7998382Y-16156946D01*
X7998382Y-16156946D02*
X7998382Y-16147422D01*
X7998382Y-16147422D02*
X8007906Y-16128374D01*
X8007906Y-16128374D02*
X8026953Y-16118850D01*
X8026953Y-16118850D02*
X8055525Y-16118850D01*
X8055525Y-16118850D02*
X8074572Y-16128374D01*
X8150763Y-16328374D02*
X8160287Y-16318850D01*
X8160287Y-16318850D02*
X8179334Y-16290279D01*
X8179334Y-16290279D02*
X8188858Y-16271231D01*
X8188858Y-16271231D02*
X8198382Y-16242660D01*
X8198382Y-16242660D02*
X8207906Y-16195041D01*
X8207906Y-16195041D02*
X8207906Y-16156946D01*
X8207906Y-16156946D02*
X8198382Y-16109327D01*
X8198382Y-16109327D02*
X8188858Y-16080755D01*
X8188858Y-16080755D02*
X8179334Y-16061708D01*
X8179334Y-16061708D02*
X8160287Y-16033136D01*
X8160287Y-16033136D02*
X8150763Y-16023612D01*
M02*
