%TF.GenerationSoftware,KiCad,Pcbnew,8.0.8+1*%
%TF.CreationDate,2025-02-28T13:08:22+11:00*%
%TF.ProjectId,mcharger_if,6d636861-7267-4657-925f-69662e6b6963,rev?*%
%TF.SameCoordinates,Original*%
%TF.FileFunction,Copper,L2,Bot*%
%TF.FilePolarity,Positive*%
%FSLAX46Y46*%
G04 Gerber Fmt 4.6, Leading zero omitted, Abs format (unit mm)*
G04 Created by KiCad (PCBNEW 8.0.8+1) date 2025-02-28 13:08:22*
%MOMM*%
%LPD*%
G01*
G04 APERTURE LIST*
G04 Aperture macros list*
%AMRoundRect*
0 Rectangle with rounded corners*
0 $1 Rounding radius*
0 $2 $3 $4 $5 $6 $7 $8 $9 X,Y pos of 4 corners*
0 Add a 4 corners polygon primitive as box body*
4,1,4,$2,$3,$4,$5,$6,$7,$8,$9,$2,$3,0*
0 Add four circle primitives for the rounded corners*
1,1,$1+$1,$2,$3*
1,1,$1+$1,$4,$5*
1,1,$1+$1,$6,$7*
1,1,$1+$1,$8,$9*
0 Add four rect primitives between the rounded corners*
20,1,$1+$1,$2,$3,$4,$5,0*
20,1,$1+$1,$4,$5,$6,$7,0*
20,1,$1+$1,$6,$7,$8,$9,0*
20,1,$1+$1,$8,$9,$2,$3,0*%
G04 Aperture macros list end*
%TA.AperFunction,ComponentPad*%
%ADD10C,3.600000*%
%TD*%
%TA.AperFunction,ConnectorPad*%
%ADD11C,5.600000*%
%TD*%
%TA.AperFunction,ComponentPad*%
%ADD12R,1.600000X1.600000*%
%TD*%
%TA.AperFunction,ComponentPad*%
%ADD13O,1.600000X1.600000*%
%TD*%
%TA.AperFunction,ComponentPad*%
%ADD14C,2.600000*%
%TD*%
%TA.AperFunction,ConnectorPad*%
%ADD15C,3.800000*%
%TD*%
%TA.AperFunction,ComponentPad*%
%ADD16R,2.000000X1.905000*%
%TD*%
%TA.AperFunction,ComponentPad*%
%ADD17O,2.000000X1.905000*%
%TD*%
%TA.AperFunction,ComponentPad*%
%ADD18R,2.200000X2.200000*%
%TD*%
%TA.AperFunction,ComponentPad*%
%ADD19O,2.200000X2.200000*%
%TD*%
%TA.AperFunction,ComponentPad*%
%ADD20RoundRect,0.250000X-0.893000X0.893000X-0.893000X-0.893000X0.893000X-0.893000X0.893000X0.893000X0*%
%TD*%
%TA.AperFunction,ComponentPad*%
%ADD21C,2.286000*%
%TD*%
%TA.AperFunction,ComponentPad*%
%ADD22RoundRect,0.250000X-0.650000X-1.550000X0.650000X-1.550000X0.650000X1.550000X-0.650000X1.550000X0*%
%TD*%
%TA.AperFunction,ComponentPad*%
%ADD23O,1.800000X3.600000*%
%TD*%
%TA.AperFunction,ComponentPad*%
%ADD24RoundRect,0.250000X-0.725000X0.600000X-0.725000X-0.600000X0.725000X-0.600000X0.725000X0.600000X0*%
%TD*%
%TA.AperFunction,ComponentPad*%
%ADD25O,1.950000X1.700000*%
%TD*%
%TA.AperFunction,ComponentPad*%
%ADD26R,2.000000X1.200000*%
%TD*%
%TA.AperFunction,ComponentPad*%
%ADD27O,2.000000X1.200000*%
%TD*%
%TA.AperFunction,ComponentPad*%
%ADD28C,6.350000*%
%TD*%
%TA.AperFunction,ViaPad*%
%ADD29C,1.016000*%
%TD*%
%TA.AperFunction,ViaPad*%
%ADD30C,2.540000*%
%TD*%
%TA.AperFunction,Conductor*%
%ADD31C,1.270000*%
%TD*%
%TA.AperFunction,Conductor*%
%ADD32C,0.254000*%
%TD*%
%TA.AperFunction,Conductor*%
%ADD33C,0.508000*%
%TD*%
%TA.AperFunction,Conductor*%
%ADD34C,2.540000*%
%TD*%
%TA.AperFunction,Conductor*%
%ADD35C,2.286000*%
%TD*%
G04 APERTURE END LIST*
D10*
%TO.P,VOUT+48V1,1,1*%
%TO.N,/VOUT48*%
X64770000Y-124460000D03*
D11*
X64770000Y-124460000D03*
%TD*%
D12*
%TO.P,U5,1,VCC*%
%TO.N,+3.3V*%
X72644000Y-89408000D03*
D13*
%TO.P,U5,2,GND*%
%TO.N,GND*%
X72644000Y-91948000D03*
%TO.P,U5,3,SCL*%
%TO.N,/SCL*%
X72644000Y-94488000D03*
%TO.P,U5,4,SDA*%
%TO.N,/SDA*%
X72644000Y-97028000D03*
%TO.P,U5,5,CSB*%
%TO.N,unconnected-(U5-CSB-Pad5)*%
X72644000Y-99568000D03*
%TO.P,U5,6,SDO*%
%TO.N,unconnected-(U5-SDO-Pad6)*%
X72644000Y-102108000D03*
%TD*%
D14*
%TO.P,SMPS_VOUT_V12VP1,1,1*%
%TO.N,/SMPS_12*%
X102870000Y-63500000D03*
D15*
X102870000Y-63500000D03*
%TD*%
D16*
%TO.P,Q1,1,G*%
%TO.N,/SW_GATE*%
X56388000Y-97790000D03*
D17*
%TO.P,Q1,2,D*%
%TO.N,/VOUT48*%
X56388000Y-95250000D03*
%TO.P,Q1,3,S*%
%TO.N,/VIN48*%
X56388000Y-92710000D03*
%TD*%
D18*
%TO.P,D2,1,K*%
%TO.N,+12V*%
X102870000Y-83820000D03*
D19*
%TO.P,D2,2,A*%
%TO.N,/SMPS_12*%
X102870000Y-73660000D03*
%TD*%
D10*
%TO.P,VIN-48V1,1,1*%
%TO.N,GND*%
X50800000Y-63500000D03*
D11*
X50800000Y-63500000D03*
%TD*%
D20*
%TO.P,U1,1,Vin_p*%
%TO.N,+12V*%
X84052000Y-92160000D03*
D21*
%TO.P,U1,2,Vin_gnd*%
%TO.N,GND*%
X84052000Y-105960000D03*
%TO.P,U1,3,VO_GND*%
X113052000Y-105960000D03*
%TO.P,U1,4,V5V_p*%
%TO.N,+5V*%
X113052000Y-92160000D03*
%TO.P,U1,5,EN*%
%TO.N,unconnected-(U1-EN-Pad5)*%
X92710000Y-92176600D03*
%TD*%
D16*
%TO.P,Q2,1,G*%
%TO.N,/SW_GATE*%
X47244000Y-92710000D03*
D17*
%TO.P,Q2,2,D*%
%TO.N,/VOUT48*%
X47244000Y-95250000D03*
%TO.P,Q2,3,S*%
%TO.N,/VIN48*%
X47244000Y-97790000D03*
%TD*%
D22*
%TO.P,J1,1,Pin_1*%
%TO.N,GND*%
X86360000Y-121920000D03*
D23*
%TO.P,J1,2,Pin_2*%
%TO.N,/12VIN*%
X91440000Y-121920000D03*
%TD*%
D14*
%TO.P,SMPS_VINN1,1,1*%
%TO.N,GND*%
X92710000Y-63500000D03*
D15*
X92710000Y-63500000D03*
%TD*%
D12*
%TO.P,U3,1,3V3*%
%TO.N,+3.3V*%
X160528000Y-107188000D03*
D13*
%TO.P,U3,2,CS*%
%TO.N,/SPI_CS*%
X160528000Y-109728000D03*
%TO.P,U3,3,MOSI*%
%TO.N,/MOSI*%
X160528000Y-112268000D03*
%TO.P,U3,4,CLK*%
%TO.N,/SCLK*%
X160528000Y-114808000D03*
%TO.P,U3,5,MISO*%
%TO.N,/MISO*%
X160528000Y-117348000D03*
%TO.P,U3,6,GND*%
%TO.N,GND*%
X160528000Y-119888000D03*
%TD*%
D14*
%TO.P,SMPS_VOUT_12VN1,1,1*%
%TO.N,GND*%
X109220000Y-63500000D03*
D15*
X109220000Y-63500000D03*
%TD*%
D24*
%TO.P,J4,1,Pin_1*%
%TO.N,/enc_an_unb*%
X163290000Y-90210000D03*
D25*
%TO.P,J4,2,Pin_2*%
%TO.N,GND*%
X163290000Y-92710000D03*
%TO.P,J4,3,Pin_3*%
%TO.N,/enc_bn_unb*%
X163290000Y-95210000D03*
%TO.P,J4,4,Pin_4*%
%TO.N,/push_low_n*%
X163290000Y-97710000D03*
%TO.P,J4,5,Pin_5*%
%TO.N,GND*%
X163290000Y-100210000D03*
%TD*%
D26*
%TO.P,U2,1,EN*%
%TO.N,unconnected-(U2-EN-Pad1)*%
X119380000Y-70104000D03*
D27*
%TO.P,U2,2,VP*%
%TO.N,unconnected-(U2-VP-Pad2)*%
X119380000Y-72644000D03*
%TO.P,U2,3,VN*%
%TO.N,unconnected-(U2-VN-Pad3)*%
X119380000Y-75184000D03*
%TO.P,U2,4,D34*%
%TO.N,/enc_an*%
X119380000Y-77724000D03*
%TO.P,U2,5,D35*%
%TO.N,/enc_bn*%
X119380000Y-80264000D03*
%TO.P,U2,6,D32*%
%TO.N,unconnected-(U2-D32-Pad6)*%
X119380000Y-82804000D03*
%TO.P,U2,7,D33*%
%TO.N,/push_n*%
X119380000Y-85344000D03*
%TO.P,U2,8,D25*%
%TO.N,/48V_EN*%
X119380000Y-87884000D03*
%TO.P,U2,9,D26*%
%TO.N,unconnected-(U2-D26-Pad9)*%
X119380000Y-90424000D03*
%TO.P,U2,10,D27*%
%TO.N,/FAN_EN_L*%
X119380000Y-92964000D03*
%TO.P,U2,11,D14*%
%TO.N,/SCLK*%
X119380000Y-95504000D03*
%TO.P,U2,12,D12*%
%TO.N,/MISO*%
X119380000Y-98044000D03*
%TO.P,U2,13,D13*%
%TO.N,/MOSI*%
X119380000Y-100584000D03*
%TO.P,U2,14,GND*%
%TO.N,GND*%
X119380000Y-103124000D03*
%TO.P,U2,15,VIN*%
%TO.N,+5V*%
X119380000Y-105664000D03*
%TO.P,U2,16,3V3*%
%TO.N,+3.3V*%
X144780000Y-105664000D03*
%TO.P,U2,17,GND*%
%TO.N,GND*%
X144780000Y-103124000D03*
%TO.P,U2,18,D15*%
%TO.N,/SPI_CS*%
X144780000Y-100584000D03*
%TO.P,U2,19,D2*%
%TO.N,unconnected-(U2-D2-Pad19)*%
X144780000Y-98044000D03*
%TO.P,U2,20,D4*%
%TO.N,unconnected-(U2-D4-Pad20)*%
X144780000Y-95504000D03*
%TO.P,U2,21,D16*%
%TO.N,unconnected-(U2-D16-Pad21)*%
X144780000Y-92964000D03*
%TO.P,U2,22,D17*%
%TO.N,unconnected-(U2-D17-Pad22)*%
X144780000Y-90424000D03*
%TO.P,U2,23,D5*%
%TO.N,unconnected-(U2-D5-Pad23)*%
X144780000Y-87884000D03*
%TO.P,U2,24,D18*%
%TO.N,unconnected-(U2-D18-Pad24)*%
X144780000Y-85344000D03*
%TO.P,U2,25,D19*%
%TO.N,unconnected-(U2-D19-Pad25)*%
X144780000Y-82804000D03*
%TO.P,U2,26,D21*%
%TO.N,/SDA*%
X144780000Y-80264000D03*
%TO.P,U2,27,RXD0*%
%TO.N,unconnected-(U2-RXD0-Pad27)*%
X144780000Y-77724000D03*
%TO.P,U2,28,TXD0*%
%TO.N,unconnected-(U2-TXD0-Pad28)*%
X144780000Y-75184000D03*
%TO.P,U2,29,D22*%
%TO.N,/SCL*%
X144780000Y-72644000D03*
%TO.P,U2,30,D23*%
%TO.N,unconnected-(U2-D23-Pad30)*%
X144780000Y-70104000D03*
%TD*%
D10*
%TO.P,VOUT-48V3,1,1*%
%TO.N,GND*%
X50800000Y-127000000D03*
D11*
X50800000Y-127000000D03*
%TD*%
D18*
%TO.P,D3,1,K*%
%TO.N,+12V*%
X97790000Y-115316000D03*
D19*
%TO.P,D3,2,A*%
%TO.N,/12VIN*%
X97790000Y-125476000D03*
%TD*%
D10*
%TO.P,VIN+48V1,1,1*%
%TO.N,/VIN48*%
X64770000Y-66040000D03*
D11*
X64770000Y-66040000D03*
%TD*%
D24*
%TO.P,J3,1,Pin_1*%
%TO.N,GND*%
X163290000Y-73990000D03*
D25*
%TO.P,J3,2,Pin_2*%
%TO.N,+3.3V*%
X163290000Y-76490000D03*
%TO.P,J3,3,Pin_3*%
%TO.N,/SDA*%
X163290000Y-78990000D03*
%TO.P,J3,4,Pin_4*%
%TO.N,/SCL*%
X163290000Y-81490000D03*
%TD*%
D28*
%TO.P,U4,1,MT1*%
%TO.N,unconnected-(U4-MT1-Pad1)*%
X51816000Y-82296000D03*
%TO.P,U4,2,MT2*%
%TO.N,unconnected-(U4-MT2-Pad2)*%
X51816000Y-107696000D03*
%TD*%
D22*
%TO.P,J2,1,Pin_1*%
%TO.N,Net-(D4-A)*%
X105465000Y-121527500D03*
D23*
%TO.P,J2,2,Pin_2*%
%TO.N,+12V*%
X110545000Y-121527500D03*
%TD*%
D14*
%TO.P,SMPS_VINP1,1,1*%
%TO.N,/VIN48*%
X86360000Y-63500000D03*
D15*
X86360000Y-63500000D03*
%TD*%
D29*
%TO.N,GND*%
X160528000Y-86106000D03*
X115443000Y-115443000D03*
X153670000Y-91440000D03*
X153997000Y-86179000D03*
X151892000Y-103632000D03*
X100076000Y-85852000D03*
%TO.N,/SCLK*%
X135382000Y-95250000D03*
X138938000Y-114554000D03*
%TO.N,/SDA*%
X139192000Y-91440000D03*
%TO.N,/SCL*%
X136398000Y-72390000D03*
X135636000Y-89154000D03*
X152400000Y-80264000D03*
%TO.N,/push_n*%
X126492000Y-93980000D03*
%TO.N,/MOSI*%
X130810000Y-100584000D03*
X132334000Y-112014000D03*
%TO.N,+3.3V*%
X156464000Y-85344000D03*
X156464000Y-91694000D03*
X156464000Y-101600000D03*
X107188000Y-89408000D03*
X107696000Y-105664000D03*
X157480000Y-72644000D03*
%TO.N,/MISO*%
X134874000Y-117348000D03*
X132842000Y-98044000D03*
D30*
%TO.N,/VIN48*%
X40640000Y-95504000D03*
X43180000Y-88392000D03*
X61468000Y-84836000D03*
X64770000Y-76708000D03*
X64770000Y-71120000D03*
%TO.N,/VOUT48*%
X56642000Y-103378000D03*
X60960000Y-100076000D03*
X64516000Y-111252000D03*
X53340000Y-100076000D03*
X60960000Y-103124000D03*
X60706000Y-107442000D03*
X64770000Y-118364000D03*
D29*
%TO.N,/FAN_EN_L*%
X123952000Y-110236000D03*
%TD*%
D31*
%TO.N,GND*%
X97536000Y-68580000D02*
X97536000Y-68326000D01*
X118872000Y-118872000D02*
X118872000Y-128524000D01*
X140970000Y-104902000D02*
X142748000Y-103124000D01*
X160528000Y-75252107D02*
X161790107Y-73990000D01*
X160528000Y-100330000D02*
X160528000Y-92710000D01*
X151384000Y-129032000D02*
X160528000Y-119888000D01*
D32*
X151384000Y-103124000D02*
X151892000Y-103632000D01*
D31*
X113052000Y-105960000D02*
X113052000Y-108712000D01*
X160528000Y-92710000D02*
X160528000Y-86106000D01*
X119380000Y-129032000D02*
X151384000Y-129032000D01*
X160528000Y-102362000D02*
X160528000Y-100330000D01*
X118872000Y-128524000D02*
X119380000Y-129032000D01*
D33*
X100076000Y-85852000D02*
X100076000Y-103632000D01*
X100076000Y-103632000D02*
X105156000Y-108712000D01*
D34*
X36576000Y-77724000D02*
X36576000Y-112776000D01*
D31*
X92710000Y-63500000D02*
X89662000Y-60452000D01*
D33*
X80772000Y-102680000D02*
X80772000Y-93980000D01*
D31*
X116332000Y-103632000D02*
X116840000Y-103124000D01*
X86360000Y-108268000D02*
X84052000Y-105960000D01*
X60452000Y-129032000D02*
X79248000Y-129032000D01*
X115443000Y-115443000D02*
X118872000Y-118872000D01*
X161544000Y-119888000D02*
X162560000Y-118872000D01*
X160528000Y-119888000D02*
X161544000Y-119888000D01*
X140970000Y-107696000D02*
X140970000Y-104902000D01*
X142748000Y-103124000D02*
X144780000Y-103124000D01*
D34*
X36576000Y-112776000D02*
X50800000Y-127000000D01*
D31*
X160648000Y-100210000D02*
X160528000Y-100330000D01*
X161790107Y-73990000D02*
X163290000Y-73990000D01*
X160528000Y-119888000D02*
X153162000Y-119888000D01*
D33*
X78740000Y-91948000D02*
X72644000Y-91948000D01*
D31*
X153162000Y-119888000D02*
X140970000Y-107696000D01*
X115380000Y-103632000D02*
X116332000Y-103632000D01*
D33*
X80772000Y-93980000D02*
X78740000Y-91948000D01*
D31*
X86360000Y-121920000D02*
X86360000Y-108268000D01*
X163290000Y-92710000D02*
X160528000Y-92710000D01*
X160528000Y-86106000D02*
X160528000Y-75252107D01*
X116840000Y-103124000D02*
X119380000Y-103124000D01*
X53848000Y-60452000D02*
X50800000Y-63500000D01*
X50800000Y-127000000D02*
X58420000Y-127000000D01*
X58420000Y-127000000D02*
X60452000Y-129032000D01*
D32*
X153670000Y-86506000D02*
X153997000Y-86179000D01*
D31*
X162560000Y-118872000D02*
X162560000Y-104394000D01*
X79248000Y-129032000D02*
X86360000Y-121920000D01*
X104140000Y-68580000D02*
X97536000Y-68580000D01*
X113052000Y-105960000D02*
X115380000Y-103632000D01*
D34*
X50800000Y-63500000D02*
X36576000Y-77724000D01*
D32*
X153670000Y-91440000D02*
X153670000Y-86506000D01*
D31*
X97536000Y-68326000D02*
X92710000Y-63500000D01*
X162560000Y-104394000D02*
X160528000Y-102362000D01*
X79248000Y-129032000D02*
X119380000Y-129032000D01*
X163290000Y-100210000D02*
X160648000Y-100210000D01*
X89662000Y-60452000D02*
X53848000Y-60452000D01*
D33*
X105156000Y-108712000D02*
X113052000Y-108712000D01*
D31*
X109220000Y-63500000D02*
X104140000Y-68580000D01*
X113052000Y-108712000D02*
X113052000Y-113052000D01*
D33*
X84052000Y-105960000D02*
X80772000Y-102680000D01*
D32*
X144780000Y-103124000D02*
X151384000Y-103124000D01*
D31*
X113052000Y-113052000D02*
X115443000Y-115443000D01*
D32*
%TO.N,/SCLK*%
X137668000Y-111506000D02*
X137668000Y-113284000D01*
X137668000Y-113284000D02*
X138938000Y-114554000D01*
X135382000Y-95250000D02*
X135382000Y-109220000D01*
X135382000Y-109220000D02*
X137668000Y-111506000D01*
%TO.N,/SDA*%
X139192000Y-91440000D02*
X141224000Y-89408000D01*
X142494000Y-80264000D02*
X144780000Y-80264000D01*
X141224000Y-89408000D02*
X141224000Y-81534000D01*
X141224000Y-81534000D02*
X142494000Y-80264000D01*
%TO.N,/SCL*%
X135636000Y-89154000D02*
X136144000Y-88646000D01*
X136144000Y-88646000D02*
X136144000Y-72644000D01*
X152400000Y-80264000D02*
X144780000Y-72644000D01*
X136144000Y-72644000D02*
X136398000Y-72390000D01*
%TO.N,/push_n*%
X119380000Y-85344000D02*
X126492000Y-92456000D01*
X126492000Y-92456000D02*
X126492000Y-93980000D01*
%TO.N,/MOSI*%
X130810000Y-100584000D02*
X130810000Y-110490000D01*
X130810000Y-110490000D02*
X132334000Y-112014000D01*
D31*
%TO.N,+3.3V*%
X160528000Y-107188000D02*
X159766000Y-107188000D01*
X156464000Y-73660000D02*
X157480000Y-72644000D01*
D33*
X107188000Y-105156000D02*
X107696000Y-105664000D01*
D31*
X156464000Y-85344000D02*
X156464000Y-73660000D01*
X158242000Y-105664000D02*
X144780000Y-105664000D01*
X156464000Y-91694000D02*
X156464000Y-85344000D01*
X156464000Y-103886000D02*
X156464000Y-101600000D01*
X156464000Y-101600000D02*
X156464000Y-91694000D01*
X159766000Y-107188000D02*
X158242000Y-105664000D01*
X157226000Y-103886000D02*
X156464000Y-103886000D01*
D33*
X107188000Y-89408000D02*
X107188000Y-105156000D01*
D31*
X160528000Y-107188000D02*
X157226000Y-103886000D01*
D32*
%TO.N,/MISO*%
X132842000Y-109728000D02*
X133858000Y-110744000D01*
X134874000Y-111760000D02*
X134874000Y-117348000D01*
X132842000Y-98044000D02*
X132842000Y-109728000D01*
X133858000Y-110744000D02*
X134874000Y-111760000D01*
D31*
%TO.N,+12V*%
X102870000Y-83820000D02*
X92392000Y-83820000D01*
X97790000Y-115316000D02*
X97790000Y-105898000D01*
X97790000Y-105898000D02*
X84052000Y-92160000D01*
X92392000Y-83820000D02*
X84052000Y-92160000D01*
D35*
%TO.N,/VIN48*%
X64770000Y-81534000D02*
X64770000Y-76708000D01*
D34*
X64770000Y-71120000D02*
X64770000Y-66040000D01*
D35*
X61468000Y-84836000D02*
X64770000Y-81534000D01*
X56388000Y-92710000D02*
X56388000Y-88392000D01*
X42672000Y-88392000D02*
X43180000Y-88392000D01*
X40640000Y-95504000D02*
X40640000Y-90424000D01*
X57912000Y-88392000D02*
X61468000Y-84836000D01*
X64770000Y-76708000D02*
X64770000Y-71120000D01*
X56388000Y-88392000D02*
X57912000Y-88392000D01*
X47244000Y-97790000D02*
X42418000Y-97790000D01*
D31*
X78740000Y-71120000D02*
X64770000Y-71120000D01*
D35*
X42418000Y-97790000D02*
X40640000Y-96012000D01*
X40640000Y-96012000D02*
X40640000Y-95504000D01*
D31*
X86360000Y-63500000D02*
X78740000Y-71120000D01*
D35*
X43180000Y-88392000D02*
X56388000Y-88392000D01*
X40640000Y-90424000D02*
X42672000Y-88392000D01*
D34*
%TO.N,/VOUT48*%
X64770000Y-111506000D02*
X64770000Y-118364000D01*
X51816000Y-98552000D02*
X53340000Y-100076000D01*
D35*
X60198000Y-95250000D02*
X56388000Y-95250000D01*
D34*
X64516000Y-111252000D02*
X64770000Y-111506000D01*
X64770000Y-118364000D02*
X64770000Y-124460000D01*
D35*
X47244000Y-95250000D02*
X56388000Y-95250000D01*
D34*
X56642000Y-103378000D02*
X60706000Y-107442000D01*
X60706000Y-107442000D02*
X64516000Y-111252000D01*
D35*
X60706000Y-96266000D02*
X60960000Y-96012000D01*
X60960000Y-96012000D02*
X60198000Y-95250000D01*
D34*
X51816000Y-95250000D02*
X51816000Y-98552000D01*
X53340000Y-100076000D02*
X56642000Y-103378000D01*
D35*
X60706000Y-107442000D02*
X60706000Y-96266000D01*
D31*
%TO.N,/12VIN*%
X91440000Y-121920000D02*
X94234000Y-121920000D01*
X94234000Y-121920000D02*
X97790000Y-125476000D01*
D32*
%TO.N,/FAN_EN_L*%
X123952000Y-110236000D02*
X123952000Y-94996000D01*
X121920000Y-92964000D02*
X119380000Y-92964000D01*
X123952000Y-94996000D02*
X121920000Y-92964000D01*
%TD*%
%TA.AperFunction,Conductor*%
%TO.N,GND*%
G36*
X92907704Y-59455685D02*
G01*
X92953459Y-59508489D01*
X92964663Y-59559333D01*
X92972276Y-60975333D01*
X92952952Y-61042478D01*
X92900395Y-61088516D01*
X92848278Y-61100000D01*
X92558995Y-61100000D01*
X92259399Y-61137849D01*
X91966892Y-61212951D01*
X91966889Y-61212952D01*
X91686117Y-61324117D01*
X91686109Y-61324121D01*
X91421476Y-61469604D01*
X91421471Y-61469607D01*
X91196565Y-61633010D01*
X91196564Y-61633011D01*
X92127262Y-62563709D01*
X91993398Y-62660967D01*
X91870967Y-62783398D01*
X91773709Y-62917262D01*
X90845311Y-61988864D01*
X90764520Y-62086525D01*
X90764518Y-62086528D01*
X90602707Y-62341502D01*
X90602704Y-62341508D01*
X90474127Y-62614747D01*
X90474125Y-62614752D01*
X90380805Y-62901959D01*
X90324216Y-63198609D01*
X90324215Y-63198616D01*
X90305255Y-63499994D01*
X90305255Y-63500005D01*
X90324215Y-63801383D01*
X90324216Y-63801390D01*
X90380805Y-64098040D01*
X90474125Y-64385247D01*
X90474127Y-64385252D01*
X90602704Y-64658491D01*
X90602707Y-64658497D01*
X90764516Y-64913469D01*
X90845311Y-65011133D01*
X91773708Y-64082736D01*
X91870967Y-64216602D01*
X91993398Y-64339033D01*
X92127261Y-64436289D01*
X91196564Y-65366987D01*
X91196565Y-65366989D01*
X91421461Y-65530385D01*
X91421479Y-65530397D01*
X91686109Y-65675878D01*
X91686117Y-65675882D01*
X91966889Y-65787047D01*
X91966892Y-65787048D01*
X92259399Y-65862150D01*
X92558995Y-65899999D01*
X92559007Y-65900000D01*
X92860995Y-65900000D01*
X92864892Y-65899755D01*
X92864968Y-65900970D01*
X92928825Y-65911257D01*
X92980848Y-65957899D01*
X92999411Y-66022497D01*
X93032475Y-72172305D01*
X93086903Y-82296000D01*
X93088322Y-82559833D01*
X93068998Y-82626978D01*
X93016441Y-82673016D01*
X92964324Y-82684500D01*
X92302630Y-82684500D01*
X92126105Y-82712458D01*
X91997805Y-82754146D01*
X91997804Y-82754145D01*
X91956118Y-82767690D01*
X91796867Y-82848833D01*
X91714369Y-82908771D01*
X91652271Y-82953889D01*
X91652269Y-82953891D01*
X91652268Y-82953891D01*
X84125978Y-90480181D01*
X84064655Y-90513666D01*
X84038297Y-90516500D01*
X83108998Y-90516500D01*
X83108980Y-90516501D01*
X83006203Y-90527000D01*
X83006200Y-90527001D01*
X82839668Y-90582185D01*
X82839663Y-90582187D01*
X82690342Y-90674289D01*
X82566289Y-90798342D01*
X82474187Y-90947663D01*
X82474186Y-90947666D01*
X82419001Y-91114203D01*
X82419001Y-91114204D01*
X82419000Y-91114204D01*
X82408500Y-91216983D01*
X82408500Y-93103001D01*
X82408501Y-93103018D01*
X82419000Y-93205796D01*
X82419001Y-93205799D01*
X82437380Y-93261261D01*
X82474186Y-93372334D01*
X82566288Y-93521656D01*
X82690344Y-93645712D01*
X82839666Y-93737814D01*
X83006203Y-93792999D01*
X83108991Y-93803500D01*
X84038298Y-93803499D01*
X84105337Y-93823183D01*
X84125979Y-93839818D01*
X93161696Y-102875535D01*
X93195181Y-102936858D01*
X93198013Y-102962549D01*
X93205709Y-104393999D01*
X93218000Y-106680000D01*
X85496593Y-106747142D01*
X85520450Y-106708213D01*
X85619417Y-106469285D01*
X85679788Y-106217820D01*
X85700079Y-105960000D01*
X85679788Y-105702179D01*
X85619417Y-105450714D01*
X85520450Y-105211786D01*
X85385325Y-104991283D01*
X85380232Y-104985319D01*
X84534962Y-105830589D01*
X84517925Y-105767007D01*
X84452099Y-105652993D01*
X84359007Y-105559901D01*
X84244993Y-105494075D01*
X84181408Y-105477037D01*
X85026679Y-104631767D01*
X85026679Y-104631766D01*
X85020719Y-104626676D01*
X85020714Y-104626673D01*
X84800213Y-104491549D01*
X84561285Y-104392582D01*
X84309820Y-104332211D01*
X84052000Y-104311920D01*
X83794179Y-104332211D01*
X83542714Y-104392582D01*
X83303786Y-104491549D01*
X83083289Y-104626670D01*
X83083273Y-104626682D01*
X83077320Y-104631766D01*
X83922591Y-105477037D01*
X83859007Y-105494075D01*
X83744993Y-105559901D01*
X83651901Y-105652993D01*
X83586075Y-105767007D01*
X83569037Y-105830590D01*
X82723767Y-104985320D01*
X82723766Y-104985320D01*
X82718682Y-104991273D01*
X82718670Y-104991289D01*
X82583549Y-105211786D01*
X82484582Y-105450714D01*
X82424211Y-105702179D01*
X82403920Y-105960000D01*
X82424211Y-106217820D01*
X82484582Y-106469285D01*
X82583547Y-106708208D01*
X82622720Y-106772132D01*
X62713124Y-106945259D01*
X62385819Y-106617954D01*
X62352334Y-106556631D01*
X62349500Y-106530273D01*
X62349500Y-104264673D01*
X62369185Y-104197634D01*
X62376548Y-104187366D01*
X62426958Y-104124155D01*
X62559639Y-103894345D01*
X62656586Y-103647327D01*
X62715635Y-103388619D01*
X62735465Y-103124000D01*
X62735016Y-103118011D01*
X62715636Y-102859390D01*
X62715635Y-102859385D01*
X62715635Y-102859381D01*
X62656586Y-102600673D01*
X62559639Y-102353655D01*
X62426958Y-102123845D01*
X62411303Y-102104214D01*
X62376553Y-102060638D01*
X62350144Y-101995952D01*
X62349500Y-101983326D01*
X62349500Y-101216673D01*
X62369185Y-101149634D01*
X62376548Y-101139366D01*
X62426958Y-101076155D01*
X62559639Y-100846345D01*
X62656586Y-100599327D01*
X62715635Y-100340619D01*
X62735465Y-100076000D01*
X62730855Y-100014488D01*
X62715636Y-99811390D01*
X62715635Y-99811385D01*
X62715635Y-99811381D01*
X62656586Y-99552673D01*
X62559639Y-99305655D01*
X62426958Y-99075845D01*
X62426955Y-99075841D01*
X62376553Y-99012638D01*
X62350144Y-98947952D01*
X62349500Y-98935326D01*
X62349500Y-96934704D01*
X62365319Y-96878682D01*
X62363436Y-96877723D01*
X62365648Y-96873382D01*
X62483091Y-96642885D01*
X62563032Y-96396854D01*
X62594754Y-96196569D01*
X62603500Y-96141352D01*
X62603500Y-95882647D01*
X62563032Y-95627146D01*
X62523020Y-95504004D01*
X62483091Y-95381115D01*
X62365648Y-95150618D01*
X62213592Y-94941332D01*
X61760258Y-94487998D01*
X71338532Y-94487998D01*
X71338532Y-94488001D01*
X71358364Y-94714686D01*
X71358366Y-94714697D01*
X71417258Y-94934488D01*
X71417261Y-94934497D01*
X71513431Y-95140732D01*
X71513432Y-95140734D01*
X71643954Y-95327141D01*
X71804858Y-95488045D01*
X71804861Y-95488047D01*
X71991266Y-95618568D01*
X72049275Y-95645618D01*
X72101714Y-95691791D01*
X72120866Y-95758984D01*
X72100650Y-95825865D01*
X72049275Y-95870382D01*
X71991267Y-95897431D01*
X71991265Y-95897432D01*
X71804858Y-96027954D01*
X71643954Y-96188858D01*
X71513432Y-96375265D01*
X71513431Y-96375267D01*
X71417261Y-96581502D01*
X71417258Y-96581511D01*
X71358366Y-96801302D01*
X71358364Y-96801313D01*
X71338532Y-97027998D01*
X71338532Y-97028001D01*
X71358364Y-97254686D01*
X71358366Y-97254697D01*
X71417258Y-97474488D01*
X71417261Y-97474497D01*
X71513431Y-97680732D01*
X71513432Y-97680734D01*
X71643954Y-97867141D01*
X71804858Y-98028045D01*
X71804861Y-98028047D01*
X71991266Y-98158568D01*
X72049275Y-98185618D01*
X72101714Y-98231791D01*
X72120866Y-98298984D01*
X72100650Y-98365865D01*
X72049275Y-98410382D01*
X71991267Y-98437431D01*
X71991265Y-98437432D01*
X71804858Y-98567954D01*
X71643954Y-98728858D01*
X71513432Y-98915265D01*
X71513431Y-98915267D01*
X71417261Y-99121502D01*
X71417258Y-99121511D01*
X71358366Y-99341302D01*
X71358364Y-99341313D01*
X71338532Y-99567998D01*
X71338532Y-99568001D01*
X71358364Y-99794686D01*
X71358366Y-99794697D01*
X71417258Y-100014488D01*
X71417261Y-100014497D01*
X71513431Y-100220732D01*
X71513432Y-100220734D01*
X71643954Y-100407141D01*
X71804858Y-100568045D01*
X71804861Y-100568047D01*
X71991266Y-100698568D01*
X72049275Y-100725618D01*
X72101714Y-100771791D01*
X72120866Y-100838984D01*
X72100650Y-100905865D01*
X72049275Y-100950382D01*
X71991267Y-100977431D01*
X71991265Y-100977432D01*
X71804858Y-101107954D01*
X71643954Y-101268858D01*
X71513432Y-101455265D01*
X71513431Y-101455267D01*
X71417261Y-101661502D01*
X71417258Y-101661511D01*
X71358366Y-101881302D01*
X71358364Y-101881313D01*
X71338532Y-102107998D01*
X71338532Y-102108001D01*
X71358364Y-102334686D01*
X71358366Y-102334697D01*
X71417258Y-102554488D01*
X71417261Y-102554497D01*
X71513431Y-102760732D01*
X71513432Y-102760734D01*
X71643954Y-102947141D01*
X71804858Y-103108045D01*
X71819091Y-103118011D01*
X71991266Y-103238568D01*
X72197504Y-103334739D01*
X72417308Y-103393635D01*
X72579230Y-103407801D01*
X72643998Y-103413468D01*
X72644000Y-103413468D01*
X72644002Y-103413468D01*
X72700673Y-103408509D01*
X72870692Y-103393635D01*
X73090496Y-103334739D01*
X73296734Y-103238568D01*
X73483139Y-103108047D01*
X73644047Y-102947139D01*
X73774568Y-102760734D01*
X73870739Y-102554496D01*
X73929635Y-102334692D01*
X73949468Y-102108000D01*
X73929635Y-101881308D01*
X73870739Y-101661504D01*
X73774568Y-101455266D01*
X73644047Y-101268861D01*
X73644045Y-101268858D01*
X73483141Y-101107954D01*
X73296734Y-100977432D01*
X73296728Y-100977429D01*
X73238725Y-100950382D01*
X73186285Y-100904210D01*
X73167133Y-100837017D01*
X73187348Y-100770135D01*
X73238725Y-100725618D01*
X73296734Y-100698568D01*
X73483139Y-100568047D01*
X73644047Y-100407139D01*
X73774568Y-100220734D01*
X73870739Y-100014496D01*
X73929635Y-99794692D01*
X73949468Y-99568000D01*
X73929635Y-99341308D01*
X73870739Y-99121504D01*
X73774568Y-98915266D01*
X73644047Y-98728861D01*
X73644045Y-98728858D01*
X73483141Y-98567954D01*
X73296734Y-98437432D01*
X73296728Y-98437429D01*
X73238725Y-98410382D01*
X73186285Y-98364210D01*
X73167133Y-98297017D01*
X73187348Y-98230135D01*
X73238725Y-98185618D01*
X73296734Y-98158568D01*
X73483139Y-98028047D01*
X73644047Y-97867139D01*
X73774568Y-97680734D01*
X73870739Y-97474496D01*
X73929635Y-97254692D01*
X73949468Y-97028000D01*
X73949388Y-97027091D01*
X73938681Y-96904706D01*
X73929635Y-96801308D01*
X73870739Y-96581504D01*
X73774568Y-96375266D01*
X73649442Y-96196566D01*
X73644045Y-96188858D01*
X73483141Y-96027954D01*
X73296734Y-95897432D01*
X73296728Y-95897429D01*
X73269038Y-95884517D01*
X73238724Y-95870381D01*
X73186285Y-95824210D01*
X73167133Y-95757017D01*
X73187348Y-95690135D01*
X73238725Y-95645618D01*
X73296734Y-95618568D01*
X73483139Y-95488047D01*
X73644047Y-95327139D01*
X73774568Y-95140734D01*
X73870739Y-94934496D01*
X73929635Y-94714692D01*
X73949468Y-94488000D01*
X73929635Y-94261308D01*
X73870739Y-94041504D01*
X73774568Y-93835266D01*
X73644047Y-93648861D01*
X73644045Y-93648858D01*
X73483141Y-93487954D01*
X73296734Y-93357432D01*
X73296732Y-93357431D01*
X73261249Y-93340885D01*
X73238132Y-93330105D01*
X73185694Y-93283934D01*
X73166542Y-93216740D01*
X73186758Y-93149859D01*
X73238134Y-93105341D01*
X73296484Y-93078132D01*
X73482820Y-92947657D01*
X73643657Y-92786820D01*
X73774134Y-92600482D01*
X73870265Y-92394326D01*
X73870269Y-92394317D01*
X73922872Y-92198000D01*
X72959686Y-92198000D01*
X72964080Y-92193606D01*
X73016741Y-92102394D01*
X73044000Y-92000661D01*
X73044000Y-91895339D01*
X73016741Y-91793606D01*
X72964080Y-91702394D01*
X72959686Y-91698000D01*
X73922872Y-91698000D01*
X73922872Y-91697999D01*
X73870269Y-91501682D01*
X73870265Y-91501673D01*
X73774134Y-91295517D01*
X73643657Y-91109179D01*
X73482820Y-90948342D01*
X73457779Y-90930808D01*
X73414154Y-90876230D01*
X73406962Y-90806732D01*
X73438484Y-90744377D01*
X73498714Y-90708964D01*
X73515650Y-90705943D01*
X73551483Y-90702091D01*
X73686328Y-90651797D01*
X73686327Y-90651797D01*
X73686331Y-90651796D01*
X73801546Y-90565546D01*
X73887796Y-90450331D01*
X73938091Y-90315483D01*
X73944500Y-90255873D01*
X73944499Y-88560128D01*
X73938091Y-88500517D01*
X73887796Y-88365669D01*
X73887795Y-88365668D01*
X73887793Y-88365664D01*
X73801547Y-88250455D01*
X73801544Y-88250452D01*
X73686335Y-88164206D01*
X73686328Y-88164202D01*
X73551482Y-88113908D01*
X73551483Y-88113908D01*
X73491883Y-88107501D01*
X73491881Y-88107500D01*
X73491873Y-88107500D01*
X73491864Y-88107500D01*
X71796129Y-88107500D01*
X71796123Y-88107501D01*
X71736516Y-88113908D01*
X71601671Y-88164202D01*
X71601664Y-88164206D01*
X71486455Y-88250452D01*
X71486452Y-88250455D01*
X71400206Y-88365664D01*
X71400202Y-88365671D01*
X71349908Y-88500517D01*
X71343501Y-88560116D01*
X71343501Y-88560123D01*
X71343500Y-88560135D01*
X71343500Y-90255870D01*
X71343501Y-90255876D01*
X71349908Y-90315483D01*
X71400202Y-90450328D01*
X71400206Y-90450335D01*
X71486452Y-90565544D01*
X71486455Y-90565547D01*
X71601664Y-90651793D01*
X71601671Y-90651797D01*
X71736513Y-90702090D01*
X71736514Y-90702090D01*
X71736517Y-90702091D01*
X71772353Y-90705944D01*
X71836901Y-90732679D01*
X71876751Y-90790070D01*
X71879246Y-90859896D01*
X71843595Y-90919985D01*
X71830223Y-90930805D01*
X71805182Y-90948339D01*
X71644342Y-91109179D01*
X71513865Y-91295517D01*
X71417734Y-91501673D01*
X71417730Y-91501682D01*
X71365127Y-91697999D01*
X71365128Y-91698000D01*
X72328314Y-91698000D01*
X72323920Y-91702394D01*
X72271259Y-91793606D01*
X72244000Y-91895339D01*
X72244000Y-92000661D01*
X72271259Y-92102394D01*
X72323920Y-92193606D01*
X72328314Y-92198000D01*
X71365128Y-92198000D01*
X71417730Y-92394317D01*
X71417734Y-92394326D01*
X71513865Y-92600482D01*
X71644342Y-92786820D01*
X71805179Y-92947657D01*
X71991518Y-93078134D01*
X71991520Y-93078135D01*
X72049865Y-93105342D01*
X72102305Y-93151514D01*
X72121457Y-93218707D01*
X72101242Y-93285589D01*
X72049867Y-93330105D01*
X72023665Y-93342324D01*
X71991264Y-93357433D01*
X71804858Y-93487954D01*
X71643954Y-93648858D01*
X71513432Y-93835265D01*
X71513431Y-93835267D01*
X71417261Y-94041502D01*
X71417258Y-94041511D01*
X71358366Y-94261302D01*
X71358364Y-94261313D01*
X71338532Y-94487998D01*
X61760258Y-94487998D01*
X61268669Y-93996409D01*
X61059382Y-93844352D01*
X60828885Y-93726909D01*
X60582854Y-93646968D01*
X60582852Y-93646967D01*
X60582851Y-93646967D01*
X60425880Y-93622106D01*
X60406173Y-93618984D01*
X60327351Y-93606500D01*
X60327347Y-93606500D01*
X60327346Y-93606500D01*
X57978103Y-93606500D01*
X57911064Y-93586815D01*
X57865309Y-93534011D01*
X57855365Y-93464853D01*
X57867618Y-93426205D01*
X57911091Y-93340885D01*
X57991032Y-93094854D01*
X58009017Y-92981294D01*
X58031500Y-92839351D01*
X58031500Y-90142965D01*
X58051185Y-90075926D01*
X58103989Y-90030171D01*
X58136094Y-90020493D01*
X58169100Y-90015266D01*
X58296854Y-89995032D01*
X58542885Y-89915091D01*
X58773382Y-89797648D01*
X58937727Y-89678243D01*
X58982668Y-89645592D01*
X59165592Y-89462668D01*
X62145880Y-86482378D01*
X62179748Y-86458346D01*
X62355733Y-86373598D01*
X62574984Y-86224114D01*
X62769508Y-86043623D01*
X62934958Y-85836155D01*
X63067639Y-85606345D01*
X63087726Y-85555164D01*
X63115471Y-85512787D01*
X66023591Y-82604669D01*
X66175648Y-82395382D01*
X66293091Y-82164885D01*
X66293604Y-82163307D01*
X66373032Y-81918854D01*
X66393881Y-81787215D01*
X66413500Y-81663351D01*
X66413500Y-77390048D01*
X66422072Y-77344746D01*
X66466586Y-77231327D01*
X66525635Y-76972619D01*
X66545465Y-76708000D01*
X66525635Y-76443381D01*
X66466586Y-76184673D01*
X66422070Y-76071247D01*
X66413500Y-76025950D01*
X66413500Y-72379500D01*
X66433185Y-72312461D01*
X66485989Y-72266706D01*
X66537500Y-72255500D01*
X78829370Y-72255500D01*
X78907824Y-72243073D01*
X79005897Y-72227541D01*
X79134193Y-72185853D01*
X79175881Y-72172309D01*
X79335132Y-72091167D01*
X79479728Y-71986111D01*
X79606111Y-71859728D01*
X79664670Y-71801169D01*
X79664683Y-71801154D01*
X85615723Y-65850115D01*
X85677044Y-65816632D01*
X85734239Y-65817694D01*
X85909302Y-65862642D01*
X86056039Y-65881179D01*
X86208963Y-65900499D01*
X86208969Y-65900499D01*
X86208973Y-65900500D01*
X86208975Y-65900500D01*
X86511025Y-65900500D01*
X86511027Y-65900500D01*
X86511032Y-65900499D01*
X86511036Y-65900499D01*
X86590591Y-65890448D01*
X86810698Y-65862642D01*
X87103262Y-65787525D01*
X87104467Y-65787048D01*
X87384095Y-65676336D01*
X87384096Y-65676335D01*
X87384094Y-65676335D01*
X87384104Y-65676332D01*
X87648795Y-65530816D01*
X87893162Y-65353274D01*
X88113349Y-65146504D01*
X88305885Y-64913768D01*
X88467733Y-64658736D01*
X88596341Y-64385430D01*
X88689681Y-64098160D01*
X88746280Y-63801457D01*
X88746281Y-63801446D01*
X88765246Y-63500005D01*
X88765246Y-63499994D01*
X88746281Y-63198553D01*
X88746280Y-63198546D01*
X88746280Y-63198543D01*
X88689681Y-62901840D01*
X88596341Y-62614570D01*
X88467733Y-62341264D01*
X88322454Y-62112340D01*
X88305888Y-62086236D01*
X88225335Y-61988864D01*
X88113349Y-61853496D01*
X87893162Y-61646726D01*
X87893159Y-61646724D01*
X87893153Y-61646719D01*
X87648806Y-61469191D01*
X87648799Y-61469186D01*
X87648795Y-61469184D01*
X87384104Y-61323668D01*
X87384101Y-61323666D01*
X87384096Y-61323664D01*
X87384095Y-61323663D01*
X87103265Y-61212475D01*
X87103262Y-61212474D01*
X86810695Y-61137357D01*
X86511036Y-61099500D01*
X86511027Y-61099500D01*
X86208973Y-61099500D01*
X86208963Y-61099500D01*
X85909304Y-61137357D01*
X85616737Y-61212474D01*
X85616734Y-61212475D01*
X85335904Y-61323663D01*
X85335903Y-61323664D01*
X85071205Y-61469184D01*
X85071193Y-61469191D01*
X84826846Y-61646719D01*
X84826836Y-61646727D01*
X84606652Y-61853494D01*
X84414111Y-62086236D01*
X84252268Y-62341261D01*
X84252265Y-62341267D01*
X84123661Y-62614563D01*
X84123659Y-62614568D01*
X84030320Y-62901835D01*
X83973719Y-63198546D01*
X83973718Y-63198553D01*
X83954754Y-63499994D01*
X83954754Y-63500005D01*
X83973718Y-63801446D01*
X83973719Y-63801453D01*
X83985228Y-63861785D01*
X84030319Y-64098160D01*
X84037660Y-64120753D01*
X84039654Y-64190593D01*
X84007409Y-64246749D01*
X78305980Y-69948181D01*
X78244657Y-69981666D01*
X78218299Y-69984500D01*
X66664500Y-69984500D01*
X66597461Y-69964815D01*
X66551706Y-69912011D01*
X66540500Y-69860500D01*
X66540500Y-68896699D01*
X66560185Y-68829660D01*
X66600571Y-68790449D01*
X66624919Y-68775800D01*
X66909837Y-68559211D01*
X67169668Y-68313086D01*
X67401365Y-68040311D01*
X67602211Y-67744085D01*
X67769853Y-67427880D01*
X67902324Y-67095403D01*
X67998071Y-66750552D01*
X68027651Y-66570122D01*
X68055970Y-66397385D01*
X68055970Y-66397382D01*
X68055972Y-66397371D01*
X68075348Y-66040000D01*
X68055972Y-65682629D01*
X68054940Y-65676336D01*
X67998073Y-65329460D01*
X67998072Y-65329459D01*
X67998071Y-65329448D01*
X67902324Y-64984597D01*
X67772489Y-64658736D01*
X67769857Y-64652129D01*
X67769848Y-64652111D01*
X67742220Y-64600000D01*
X67657820Y-64440804D01*
X67602215Y-64335922D01*
X67602213Y-64335919D01*
X67602211Y-64335915D01*
X67401365Y-64039689D01*
X67401361Y-64039684D01*
X67401358Y-64039680D01*
X67169668Y-63766914D01*
X67159818Y-63757584D01*
X66909837Y-63520789D01*
X66909830Y-63520783D01*
X66909827Y-63520781D01*
X66842245Y-63469407D01*
X66624919Y-63304200D01*
X66318253Y-63119685D01*
X66318252Y-63119684D01*
X66318248Y-63119682D01*
X66318244Y-63119680D01*
X65993447Y-62969414D01*
X65993441Y-62969411D01*
X65993435Y-62969409D01*
X65798997Y-62903895D01*
X65654273Y-62855131D01*
X65304744Y-62778194D01*
X64948949Y-62739500D01*
X64948948Y-62739500D01*
X64591052Y-62739500D01*
X64591050Y-62739500D01*
X64235255Y-62778194D01*
X63885726Y-62855131D01*
X63629970Y-62941306D01*
X63546565Y-62969409D01*
X63546563Y-62969410D01*
X63546552Y-62969414D01*
X63221755Y-63119680D01*
X63221751Y-63119682D01*
X63029191Y-63235542D01*
X62915081Y-63304200D01*
X62833052Y-63366557D01*
X62630172Y-63520781D01*
X62630163Y-63520789D01*
X62370331Y-63766914D01*
X62138641Y-64039680D01*
X62138634Y-64039690D01*
X61937790Y-64335913D01*
X61937784Y-64335922D01*
X61770151Y-64652111D01*
X61770142Y-64652129D01*
X61637674Y-64984600D01*
X61637672Y-64984607D01*
X61541932Y-65329434D01*
X61541926Y-65329460D01*
X61484029Y-65682614D01*
X61484028Y-65682631D01*
X61464652Y-66039997D01*
X61464652Y-66040002D01*
X61484028Y-66397368D01*
X61484029Y-66397385D01*
X61541926Y-66750539D01*
X61541932Y-66750565D01*
X61637672Y-67095392D01*
X61637674Y-67095399D01*
X61770142Y-67427870D01*
X61770151Y-67427888D01*
X61937784Y-67744077D01*
X61937790Y-67744086D01*
X62138634Y-68040309D01*
X62138641Y-68040319D01*
X62370331Y-68313085D01*
X62370332Y-68313086D01*
X62630163Y-68559211D01*
X62915081Y-68775800D01*
X62939427Y-68790448D01*
X62986721Y-68841874D01*
X62999500Y-68896699D01*
X62999500Y-71049109D01*
X62999153Y-71058376D01*
X62994535Y-71119996D01*
X62994535Y-71120003D01*
X62999153Y-71181622D01*
X62999500Y-71190889D01*
X62999500Y-71236052D01*
X63007707Y-71298383D01*
X63008421Y-71305303D01*
X63014363Y-71384613D01*
X63014365Y-71384621D01*
X63024167Y-71427568D01*
X63026214Y-71438970D01*
X63029791Y-71466137D01*
X63029793Y-71466145D01*
X63050654Y-71544000D01*
X63051765Y-71548479D01*
X63073414Y-71643327D01*
X63073415Y-71643329D01*
X63083018Y-71667798D01*
X63087362Y-71680997D01*
X63089863Y-71690330D01*
X63089866Y-71690337D01*
X63117061Y-71755991D01*
X63126500Y-71803444D01*
X63126500Y-76025950D01*
X63117929Y-76071247D01*
X63073414Y-76184673D01*
X63073412Y-76184679D01*
X63073410Y-76184686D01*
X63014364Y-76443385D01*
X63014363Y-76443390D01*
X62994535Y-76707995D01*
X62994535Y-76708004D01*
X63014363Y-76972609D01*
X63014364Y-76972614D01*
X63073410Y-77231313D01*
X63073416Y-77231332D01*
X63117928Y-77344746D01*
X63126500Y-77390048D01*
X63126500Y-80801877D01*
X63106815Y-80868916D01*
X63090181Y-80889558D01*
X60790122Y-83189616D01*
X60756244Y-83213655D01*
X60580270Y-83298401D01*
X60580268Y-83298402D01*
X60504012Y-83350392D01*
X60361015Y-83447886D01*
X60166494Y-83628375D01*
X60166492Y-83628377D01*
X60001042Y-83835845D01*
X59868362Y-84065652D01*
X59848274Y-84116834D01*
X59820527Y-84159211D01*
X57267559Y-86712181D01*
X57206236Y-86745666D01*
X57179878Y-86748500D01*
X43875641Y-86748500D01*
X43833138Y-86740457D01*
X43833084Y-86740633D01*
X43831529Y-86740153D01*
X43830338Y-86739928D01*
X43828647Y-86739264D01*
X43575083Y-86661051D01*
X43575073Y-86661048D01*
X43312688Y-86621500D01*
X43312681Y-86621500D01*
X43047319Y-86621500D01*
X43047311Y-86621500D01*
X42784926Y-86661048D01*
X42784916Y-86661051D01*
X42531353Y-86739264D01*
X42513646Y-86747791D01*
X42479250Y-86758541D01*
X42434993Y-86765551D01*
X42414900Y-86768734D01*
X42414899Y-86768734D01*
X42287148Y-86788967D01*
X42085763Y-86854402D01*
X42085762Y-86854402D01*
X42041120Y-86868906D01*
X42041114Y-86868909D01*
X41810617Y-86986352D01*
X41691211Y-87073106D01*
X41601331Y-87138409D01*
X41601329Y-87138411D01*
X41601328Y-87138411D01*
X39569332Y-89170408D01*
X39386414Y-89353324D01*
X39386409Y-89353330D01*
X39353754Y-89398274D01*
X39234352Y-89562616D01*
X39123534Y-89780110D01*
X39123535Y-89780111D01*
X39116906Y-89793120D01*
X39036967Y-90039148D01*
X39036967Y-90039149D01*
X38996500Y-90294648D01*
X38996500Y-94821950D01*
X38987929Y-94867247D01*
X38943414Y-94980673D01*
X38943412Y-94980679D01*
X38943410Y-94980686D01*
X38884364Y-95239385D01*
X38884363Y-95239390D01*
X38864535Y-95503995D01*
X38864535Y-95504004D01*
X38884363Y-95768609D01*
X38884364Y-95768614D01*
X38943412Y-96027323D01*
X38997208Y-96164394D01*
X39001721Y-96180988D01*
X39001750Y-96181032D01*
X39001827Y-96181377D01*
X39004251Y-96190286D01*
X39005245Y-96196558D01*
X39005243Y-96196558D01*
X39005246Y-96196569D01*
X39031983Y-96365382D01*
X39036968Y-96396853D01*
X39116909Y-96642885D01*
X39234352Y-96873382D01*
X39330070Y-97005126D01*
X39346028Y-97027089D01*
X39346029Y-97027092D01*
X39382082Y-97076715D01*
X39386411Y-97082672D01*
X40462307Y-98158567D01*
X41347332Y-99043592D01*
X41454568Y-99121504D01*
X41556619Y-99195649D01*
X41649550Y-99242999D01*
X41771891Y-99305334D01*
X41787115Y-99313091D01*
X42033146Y-99393032D01*
X42160900Y-99413266D01*
X42186450Y-99417312D01*
X42288649Y-99433500D01*
X42288653Y-99433500D01*
X47373351Y-99433500D01*
X47515294Y-99411017D01*
X47628854Y-99393032D01*
X47874885Y-99313091D01*
X48105382Y-99195647D01*
X48314668Y-99043592D01*
X48497592Y-98860668D01*
X48649647Y-98651382D01*
X48767091Y-98420885D01*
X48847032Y-98174854D01*
X48870284Y-98028045D01*
X48887500Y-97919351D01*
X48887500Y-97660648D01*
X48858016Y-97474496D01*
X48847032Y-97405146D01*
X48767091Y-97159115D01*
X48723617Y-97073794D01*
X48710722Y-97005126D01*
X48736998Y-96940386D01*
X48794104Y-96900128D01*
X48834103Y-96893500D01*
X49921500Y-96893500D01*
X49988539Y-96913185D01*
X50034294Y-96965989D01*
X50045500Y-97017500D01*
X50045500Y-98432082D01*
X50045499Y-98432116D01*
X50045499Y-98668052D01*
X50075792Y-98898146D01*
X50111851Y-99032717D01*
X50135863Y-99122330D01*
X50224677Y-99336745D01*
X50224685Y-99336762D01*
X50340720Y-99537743D01*
X50340721Y-99537745D01*
X50482009Y-99721875D01*
X50482015Y-99721882D01*
X50649219Y-99889086D01*
X50649249Y-99889114D01*
X52012829Y-101252694D01*
X52022094Y-101263061D01*
X52038492Y-101283623D01*
X52038496Y-101283627D01*
X52038500Y-101283631D01*
X52109796Y-101349784D01*
X52113136Y-101353001D01*
X55314829Y-104554694D01*
X55324094Y-104565061D01*
X55340492Y-104585623D01*
X55340496Y-104585627D01*
X55340500Y-104585631D01*
X55411796Y-104651784D01*
X55415136Y-104655001D01*
X57748564Y-106988429D01*
X55428442Y-107008603D01*
X55416115Y-106930772D01*
X55316405Y-106558649D01*
X55178344Y-106198988D01*
X55003445Y-105855728D01*
X54945829Y-105767007D01*
X54793628Y-105532637D01*
X54793626Y-105532635D01*
X54734808Y-105460000D01*
X54551177Y-105233235D01*
X54278765Y-104960823D01*
X53979369Y-104718377D01*
X53979368Y-104718376D01*
X53979364Y-104718373D01*
X53979362Y-104718371D01*
X53656276Y-104508557D01*
X53313015Y-104333657D01*
X52953358Y-104195597D01*
X52953351Y-104195595D01*
X52581228Y-104095885D01*
X52581224Y-104095884D01*
X52581223Y-104095884D01*
X52200723Y-104035618D01*
X51816001Y-104015456D01*
X51815999Y-104015456D01*
X51431276Y-104035618D01*
X51050777Y-104095884D01*
X51050775Y-104095884D01*
X50678641Y-104195597D01*
X50318984Y-104333657D01*
X49975723Y-104508557D01*
X49652637Y-104718371D01*
X49652635Y-104718373D01*
X49353239Y-104960819D01*
X49353231Y-104960826D01*
X49080826Y-105233231D01*
X49080819Y-105233239D01*
X48838373Y-105532635D01*
X48838371Y-105532637D01*
X48628557Y-105855723D01*
X48453657Y-106198984D01*
X48315597Y-106558641D01*
X48215884Y-106930775D01*
X48215884Y-106930777D01*
X48193592Y-107071516D01*
X34798000Y-107188000D01*
X34798000Y-82295999D01*
X48135456Y-82295999D01*
X48135456Y-82296000D01*
X48155618Y-82680723D01*
X48198884Y-82953889D01*
X48215885Y-83061228D01*
X48250286Y-83189616D01*
X48315597Y-83433358D01*
X48453657Y-83793015D01*
X48628557Y-84136276D01*
X48838371Y-84459362D01*
X48838373Y-84459364D01*
X48838376Y-84459368D01*
X48838377Y-84459369D01*
X49080823Y-84758765D01*
X49353235Y-85031177D01*
X49412086Y-85078833D01*
X49652635Y-85273626D01*
X49652637Y-85273628D01*
X49975723Y-85483442D01*
X49975728Y-85483445D01*
X50318988Y-85658344D01*
X50678649Y-85796405D01*
X51050772Y-85896115D01*
X51431278Y-85956382D01*
X51794721Y-85975428D01*
X51815999Y-85976544D01*
X51816000Y-85976544D01*
X51816001Y-85976544D01*
X51836163Y-85975487D01*
X52200722Y-85956382D01*
X52581228Y-85896115D01*
X52953351Y-85796405D01*
X53313012Y-85658344D01*
X53656272Y-85483445D01*
X53808054Y-85384876D01*
X53979362Y-85273628D01*
X53979364Y-85273626D01*
X53979369Y-85273623D01*
X54278765Y-85031177D01*
X54551177Y-84758765D01*
X54793623Y-84459369D01*
X55003445Y-84136272D01*
X55178344Y-83793012D01*
X55316405Y-83433351D01*
X55416115Y-83061228D01*
X55476382Y-82680722D01*
X55496544Y-82296000D01*
X55476382Y-81911278D01*
X55416115Y-81530772D01*
X55316405Y-81158649D01*
X55178344Y-80798988D01*
X55003445Y-80455728D01*
X55003442Y-80455723D01*
X54793628Y-80132637D01*
X54793626Y-80132635D01*
X54551180Y-79833239D01*
X54551177Y-79833235D01*
X54278765Y-79560823D01*
X53979369Y-79318377D01*
X53979368Y-79318376D01*
X53979364Y-79318373D01*
X53979362Y-79318371D01*
X53656276Y-79108557D01*
X53313015Y-78933657D01*
X52953358Y-78795597D01*
X52953351Y-78795595D01*
X52581228Y-78695885D01*
X52581224Y-78695884D01*
X52581223Y-78695884D01*
X52200723Y-78635618D01*
X51816001Y-78615456D01*
X51815999Y-78615456D01*
X51431276Y-78635618D01*
X51050777Y-78695884D01*
X51050775Y-78695884D01*
X50678641Y-78795597D01*
X50318984Y-78933657D01*
X49975723Y-79108557D01*
X49652637Y-79318371D01*
X49652635Y-79318373D01*
X49353239Y-79560819D01*
X49353231Y-79560826D01*
X49080826Y-79833231D01*
X49080819Y-79833239D01*
X48838373Y-80132635D01*
X48838371Y-80132637D01*
X48628557Y-80455723D01*
X48453657Y-80798984D01*
X48315597Y-81158641D01*
X48215884Y-81530775D01*
X48215884Y-81530777D01*
X48155618Y-81911276D01*
X48135456Y-82295999D01*
X34798000Y-82295999D01*
X34798000Y-63378711D01*
X36249500Y-63378711D01*
X36249500Y-63621288D01*
X36281161Y-63861785D01*
X36343947Y-64096104D01*
X36436773Y-64320205D01*
X36436777Y-64320214D01*
X36447642Y-64339033D01*
X36558064Y-64530289D01*
X36558066Y-64530292D01*
X36558067Y-64530293D01*
X36705733Y-64722736D01*
X36705739Y-64722743D01*
X36877256Y-64894260D01*
X36877262Y-64894265D01*
X37069711Y-65041936D01*
X37279788Y-65163224D01*
X37503900Y-65256054D01*
X37738211Y-65318838D01*
X37918586Y-65342584D01*
X37978711Y-65350500D01*
X37978712Y-65350500D01*
X38221289Y-65350500D01*
X38269388Y-65344167D01*
X38461789Y-65318838D01*
X38696100Y-65256054D01*
X38920212Y-65163224D01*
X39130289Y-65041936D01*
X39322738Y-64894265D01*
X39494265Y-64722738D01*
X39641936Y-64530289D01*
X39763224Y-64320212D01*
X39856054Y-64096100D01*
X39918838Y-63861789D01*
X39950500Y-63621288D01*
X39950500Y-63499997D01*
X47495153Y-63499997D01*
X47495153Y-63500002D01*
X47514526Y-63857314D01*
X47514527Y-63857331D01*
X47572415Y-64210431D01*
X47572421Y-64210457D01*
X47668147Y-64555232D01*
X47668149Y-64555239D01*
X47800597Y-64887659D01*
X47800606Y-64887677D01*
X47968218Y-65203827D01*
X48169033Y-65500007D01*
X48296441Y-65650003D01*
X48296442Y-65650004D01*
X49505748Y-64440698D01*
X49579588Y-64542330D01*
X49757670Y-64720412D01*
X49859300Y-64794251D01*
X48647255Y-66006295D01*
X48647256Y-66006296D01*
X48660485Y-66018828D01*
X48660486Y-66018829D01*
X48945367Y-66235388D01*
X48945370Y-66235390D01*
X49251990Y-66419876D01*
X49576739Y-66570122D01*
X49576744Y-66570123D01*
X49915855Y-66684383D01*
X50265339Y-66761311D01*
X50621075Y-66799999D01*
X50621085Y-66800000D01*
X50978915Y-66800000D01*
X50978924Y-66799999D01*
X51334660Y-66761311D01*
X51684144Y-66684383D01*
X52023255Y-66570123D01*
X52023260Y-66570122D01*
X52348009Y-66419876D01*
X52654629Y-66235390D01*
X52654632Y-66235388D01*
X52939504Y-66018836D01*
X52952742Y-66006294D01*
X51740698Y-64794251D01*
X51842330Y-64720412D01*
X52020412Y-64542330D01*
X52094251Y-64440698D01*
X53303556Y-65650003D01*
X53430964Y-65500008D01*
X53430975Y-65499994D01*
X53631781Y-65203827D01*
X53799393Y-64887677D01*
X53799402Y-64887659D01*
X53931850Y-64555239D01*
X53931852Y-64555232D01*
X54027578Y-64210457D01*
X54027584Y-64210431D01*
X54085472Y-63857331D01*
X54085473Y-63857314D01*
X54104847Y-63500002D01*
X54104847Y-63499997D01*
X54085473Y-63142685D01*
X54085472Y-63142668D01*
X54027584Y-62789568D01*
X54027578Y-62789542D01*
X53931852Y-62444767D01*
X53931850Y-62444760D01*
X53799402Y-62112340D01*
X53799393Y-62112322D01*
X53631781Y-61796172D01*
X53430966Y-61499992D01*
X53303557Y-61349995D01*
X53303556Y-61349994D01*
X52094250Y-62559300D01*
X52020412Y-62457670D01*
X51842330Y-62279588D01*
X51740697Y-62205747D01*
X52952743Y-60993703D01*
X52952742Y-60993702D01*
X52939514Y-60981171D01*
X52939513Y-60981170D01*
X52654632Y-60764611D01*
X52654629Y-60764609D01*
X52348009Y-60580123D01*
X52023260Y-60429877D01*
X52023255Y-60429876D01*
X51684144Y-60315616D01*
X51334660Y-60238688D01*
X50978924Y-60200000D01*
X50621075Y-60200000D01*
X50265339Y-60238688D01*
X49915855Y-60315616D01*
X49576744Y-60429876D01*
X49576739Y-60429877D01*
X49251990Y-60580123D01*
X48945370Y-60764609D01*
X48945367Y-60764611D01*
X48660491Y-60981166D01*
X48647256Y-60993703D01*
X48647255Y-60993703D01*
X49859301Y-62205748D01*
X49757670Y-62279588D01*
X49579588Y-62457670D01*
X49505748Y-62559301D01*
X48296442Y-61349994D01*
X48296441Y-61349995D01*
X48169040Y-61499983D01*
X48169033Y-61499993D01*
X47968218Y-61796172D01*
X47800606Y-62112322D01*
X47800597Y-62112340D01*
X47668149Y-62444760D01*
X47668147Y-62444767D01*
X47572421Y-62789542D01*
X47572415Y-62789568D01*
X47514527Y-63142668D01*
X47514526Y-63142685D01*
X47495153Y-63499997D01*
X39950500Y-63499997D01*
X39950500Y-63378712D01*
X39918838Y-63138211D01*
X39856054Y-62903900D01*
X39763224Y-62679788D01*
X39641936Y-62469711D01*
X39494265Y-62277262D01*
X39494260Y-62277256D01*
X39322743Y-62105739D01*
X39322736Y-62105733D01*
X39130293Y-61958067D01*
X39130292Y-61958066D01*
X39130289Y-61958064D01*
X38920212Y-61836776D01*
X38920205Y-61836773D01*
X38696104Y-61743947D01*
X38461785Y-61681161D01*
X38221289Y-61649500D01*
X38221288Y-61649500D01*
X37978712Y-61649500D01*
X37978711Y-61649500D01*
X37738214Y-61681161D01*
X37503895Y-61743947D01*
X37279794Y-61836773D01*
X37279785Y-61836777D01*
X37069706Y-61958067D01*
X36877263Y-62105733D01*
X36877256Y-62105739D01*
X36705739Y-62277256D01*
X36705733Y-62277263D01*
X36558067Y-62469706D01*
X36436777Y-62679785D01*
X36436773Y-62679794D01*
X36343947Y-62903895D01*
X36281161Y-63138214D01*
X36249500Y-63378711D01*
X34798000Y-63378711D01*
X34798000Y-59560000D01*
X34817685Y-59492961D01*
X34870489Y-59447206D01*
X34922000Y-59436000D01*
X92840665Y-59436000D01*
X92907704Y-59455685D01*
G37*
%TD.AperFunction*%
%TD*%
%TA.AperFunction,Conductor*%
%TO.N,GND*%
G36*
X34798000Y-107188000D02*
G01*
X48193592Y-107071516D01*
X48155618Y-107311276D01*
X48135456Y-107695999D01*
X48135456Y-107696000D01*
X48155618Y-108080723D01*
X48215884Y-108461222D01*
X48215885Y-108461228D01*
X48284513Y-108717353D01*
X48315597Y-108833358D01*
X48453657Y-109193015D01*
X48628557Y-109536276D01*
X48838371Y-109859362D01*
X48838373Y-109859364D01*
X48838376Y-109859368D01*
X48838377Y-109859369D01*
X49080823Y-110158765D01*
X49353235Y-110431177D01*
X49651897Y-110673028D01*
X49652635Y-110673626D01*
X49652637Y-110673628D01*
X49975723Y-110883442D01*
X49975728Y-110883445D01*
X50318988Y-111058344D01*
X50678649Y-111196405D01*
X51050772Y-111296115D01*
X51431278Y-111356382D01*
X51794721Y-111375428D01*
X51815999Y-111376544D01*
X51816000Y-111376544D01*
X51816001Y-111376544D01*
X51836163Y-111375487D01*
X52200722Y-111356382D01*
X52581228Y-111296115D01*
X52953351Y-111196405D01*
X53313012Y-111058344D01*
X53656272Y-110883445D01*
X53894600Y-110728673D01*
X53979362Y-110673628D01*
X53979364Y-110673626D01*
X53979369Y-110673623D01*
X54278765Y-110431177D01*
X54551177Y-110158765D01*
X54793623Y-109859369D01*
X54800883Y-109848191D01*
X55003442Y-109536276D01*
X55003445Y-109536272D01*
X55178344Y-109193012D01*
X55316405Y-108833351D01*
X55416115Y-108461228D01*
X55476382Y-108080722D01*
X55496544Y-107696000D01*
X55476382Y-107311278D01*
X55428442Y-107008604D01*
X57748564Y-106988429D01*
X59378829Y-108618694D01*
X59388094Y-108629061D01*
X59404492Y-108649623D01*
X59404496Y-108649627D01*
X59404500Y-108649631D01*
X59475796Y-108715784D01*
X59479136Y-108719001D01*
X62963181Y-112203046D01*
X62996666Y-112264369D01*
X62999500Y-112290727D01*
X62999500Y-118293109D01*
X62999153Y-118302376D01*
X62994535Y-118363996D01*
X62994535Y-118364003D01*
X62999153Y-118425622D01*
X62999500Y-118434889D01*
X62999500Y-121603300D01*
X62979815Y-121670339D01*
X62939431Y-121709549D01*
X62915077Y-121724202D01*
X62630172Y-121940781D01*
X62630163Y-121940789D01*
X62370331Y-122186914D01*
X62138641Y-122459680D01*
X62138634Y-122459690D01*
X61937790Y-122755913D01*
X61937784Y-122755922D01*
X61770151Y-123072111D01*
X61770142Y-123072129D01*
X61637674Y-123404600D01*
X61637672Y-123404607D01*
X61541932Y-123749434D01*
X61541926Y-123749460D01*
X61484029Y-124102614D01*
X61484028Y-124102627D01*
X61484028Y-124102629D01*
X61481223Y-124154358D01*
X61464652Y-124459997D01*
X61464652Y-124460002D01*
X61484028Y-124817368D01*
X61484029Y-124817385D01*
X61541926Y-125170539D01*
X61541932Y-125170565D01*
X61637672Y-125515392D01*
X61637674Y-125515399D01*
X61770142Y-125847870D01*
X61770151Y-125847888D01*
X61937784Y-126164077D01*
X61937787Y-126164082D01*
X61937789Y-126164085D01*
X62111072Y-126419659D01*
X62138634Y-126460309D01*
X62138641Y-126460319D01*
X62296739Y-126646446D01*
X62370332Y-126733086D01*
X62630163Y-126979211D01*
X62915081Y-127195800D01*
X63221747Y-127380315D01*
X63221749Y-127380316D01*
X63221751Y-127380317D01*
X63221755Y-127380319D01*
X63546552Y-127530585D01*
X63546565Y-127530591D01*
X63885726Y-127644868D01*
X64235254Y-127721805D01*
X64591052Y-127760500D01*
X64591058Y-127760500D01*
X64948942Y-127760500D01*
X64948948Y-127760500D01*
X65304746Y-127721805D01*
X65654274Y-127644868D01*
X65993435Y-127530591D01*
X66318253Y-127380315D01*
X66624919Y-127195800D01*
X66909837Y-126979211D01*
X67169668Y-126733086D01*
X67401365Y-126460311D01*
X67602211Y-126164085D01*
X67769853Y-125847880D01*
X67902324Y-125515403D01*
X67998071Y-125170552D01*
X68055972Y-124817371D01*
X68075348Y-124460000D01*
X68055972Y-124102629D01*
X68052282Y-124080123D01*
X67998073Y-123749460D01*
X67998072Y-123749459D01*
X67998071Y-123749448D01*
X67943812Y-123554025D01*
X67902327Y-123404607D01*
X67902325Y-123404600D01*
X67769857Y-123072129D01*
X67769848Y-123072111D01*
X67762262Y-123057803D01*
X67602211Y-122755915D01*
X67401365Y-122459689D01*
X67401361Y-122459684D01*
X67401358Y-122459680D01*
X67169668Y-122186914D01*
X67132378Y-122151591D01*
X66909837Y-121940789D01*
X66909830Y-121940783D01*
X66909827Y-121940781D01*
X66624922Y-121724202D01*
X66600569Y-121709549D01*
X66553276Y-121658119D01*
X66540500Y-121603300D01*
X66540500Y-120320013D01*
X84960000Y-120320013D01*
X84960000Y-121670000D01*
X85811518Y-121670000D01*
X85800889Y-121688409D01*
X85760000Y-121841009D01*
X85760000Y-121998991D01*
X85800889Y-122151591D01*
X85811518Y-122170000D01*
X84960001Y-122170000D01*
X84960001Y-123519986D01*
X84970494Y-123622697D01*
X85025641Y-123789119D01*
X85025643Y-123789124D01*
X85117684Y-123938345D01*
X85241654Y-124062315D01*
X85390875Y-124154356D01*
X85390880Y-124154358D01*
X85557302Y-124209505D01*
X85557309Y-124209506D01*
X85660019Y-124219999D01*
X86109999Y-124219999D01*
X86110000Y-124219998D01*
X86110000Y-122468482D01*
X86128409Y-122479111D01*
X86281009Y-122520000D01*
X86438991Y-122520000D01*
X86591591Y-122479111D01*
X86610000Y-122468482D01*
X86610000Y-124219999D01*
X87059972Y-124219999D01*
X87059986Y-124219998D01*
X87162697Y-124209505D01*
X87329119Y-124154358D01*
X87329124Y-124154356D01*
X87478345Y-124062315D01*
X87602315Y-123938345D01*
X87694356Y-123789124D01*
X87694358Y-123789119D01*
X87749505Y-123622697D01*
X87749506Y-123622690D01*
X87759999Y-123519986D01*
X87760000Y-123519973D01*
X87760000Y-122170000D01*
X86908482Y-122170000D01*
X86919111Y-122151591D01*
X86960000Y-121998991D01*
X86960000Y-121841009D01*
X86919111Y-121688409D01*
X86908482Y-121670000D01*
X87759999Y-121670000D01*
X87759999Y-120909778D01*
X90039500Y-120909778D01*
X90039500Y-122930221D01*
X90073985Y-123147952D01*
X90142103Y-123357603D01*
X90142104Y-123357606D01*
X90242187Y-123554025D01*
X90371752Y-123732358D01*
X90371756Y-123732363D01*
X90527636Y-123888243D01*
X90527641Y-123888247D01*
X90683192Y-124001260D01*
X90705978Y-124017815D01*
X90828263Y-124080123D01*
X90902393Y-124117895D01*
X90902396Y-124117896D01*
X91007221Y-124151955D01*
X91112049Y-124186015D01*
X91329778Y-124220500D01*
X91329779Y-124220500D01*
X91550221Y-124220500D01*
X91550222Y-124220500D01*
X91767951Y-124186015D01*
X91977606Y-124117895D01*
X92174022Y-124017815D01*
X92352365Y-123888242D01*
X92508242Y-123732365D01*
X92637815Y-123554022D01*
X92737895Y-123357606D01*
X92806015Y-123147951D01*
X92807521Y-123143317D01*
X92809233Y-123143873D01*
X92840158Y-123089982D01*
X92902177Y-123057803D01*
X92925964Y-123055500D01*
X93712299Y-123055500D01*
X93779338Y-123075185D01*
X93799980Y-123091819D01*
X96152236Y-125444076D01*
X96185721Y-125505399D01*
X96188173Y-125522027D01*
X96204317Y-125727148D01*
X96216907Y-125779588D01*
X96263126Y-125972110D01*
X96359533Y-126204859D01*
X96491160Y-126419653D01*
X96491161Y-126419656D01*
X96491164Y-126419659D01*
X96654776Y-126611224D01*
X96797457Y-126733085D01*
X96846343Y-126774838D01*
X96846346Y-126774839D01*
X97061140Y-126906466D01*
X97286953Y-127000000D01*
X97293889Y-127002873D01*
X97538852Y-127061683D01*
X97790000Y-127081449D01*
X98041148Y-127061683D01*
X98286111Y-127002873D01*
X98518859Y-126906466D01*
X98564151Y-126878711D01*
X161979500Y-126878711D01*
X161979500Y-127121288D01*
X162011161Y-127361785D01*
X162073947Y-127596104D01*
X162166773Y-127820205D01*
X162166777Y-127820214D01*
X162188974Y-127858661D01*
X162288064Y-128030289D01*
X162288066Y-128030292D01*
X162288067Y-128030293D01*
X162435733Y-128222736D01*
X162435739Y-128222743D01*
X162607256Y-128394260D01*
X162607262Y-128394265D01*
X162799711Y-128541936D01*
X163009788Y-128663224D01*
X163233900Y-128756054D01*
X163468211Y-128818838D01*
X163648586Y-128842584D01*
X163708711Y-128850500D01*
X163708712Y-128850500D01*
X163951289Y-128850500D01*
X163999388Y-128844167D01*
X164191789Y-128818838D01*
X164426100Y-128756054D01*
X164650212Y-128663224D01*
X164860289Y-128541936D01*
X165052738Y-128394265D01*
X165224265Y-128222738D01*
X165371936Y-128030289D01*
X165493224Y-127820212D01*
X165586054Y-127596100D01*
X165648838Y-127361789D01*
X165680500Y-127121288D01*
X165680500Y-126878712D01*
X165648838Y-126638211D01*
X165586054Y-126403900D01*
X165493224Y-126179788D01*
X165371936Y-125969711D01*
X165224265Y-125777262D01*
X165224260Y-125777256D01*
X165052743Y-125605739D01*
X165052736Y-125605733D01*
X164860293Y-125458067D01*
X164860292Y-125458066D01*
X164860289Y-125458064D01*
X164650212Y-125336776D01*
X164650205Y-125336773D01*
X164426104Y-125243947D01*
X164191785Y-125181161D01*
X163951289Y-125149500D01*
X163951288Y-125149500D01*
X163708712Y-125149500D01*
X163708711Y-125149500D01*
X163468214Y-125181161D01*
X163233895Y-125243947D01*
X163009794Y-125336773D01*
X163009785Y-125336777D01*
X162799706Y-125458067D01*
X162607263Y-125605733D01*
X162607256Y-125605739D01*
X162435739Y-125777256D01*
X162435733Y-125777263D01*
X162288067Y-125969706D01*
X162166777Y-126179785D01*
X162166773Y-126179794D01*
X162073947Y-126403895D01*
X162011161Y-126638214D01*
X161979500Y-126878711D01*
X98564151Y-126878711D01*
X98733659Y-126774836D01*
X98925224Y-126611224D01*
X99088836Y-126419659D01*
X99220466Y-126204859D01*
X99316873Y-125972111D01*
X99375683Y-125727148D01*
X99395449Y-125476000D01*
X99375683Y-125224852D01*
X99316873Y-124979889D01*
X99220466Y-124747140D01*
X99088839Y-124532346D01*
X99088838Y-124532343D01*
X99045128Y-124481166D01*
X98925224Y-124340776D01*
X98771527Y-124209506D01*
X98733656Y-124177161D01*
X98733653Y-124177160D01*
X98518859Y-124045533D01*
X98286110Y-123949126D01*
X98107066Y-123906142D01*
X98041148Y-123890317D01*
X97868150Y-123876701D01*
X97836027Y-123874173D01*
X97770739Y-123849288D01*
X97758076Y-123838236D01*
X94973730Y-121053891D01*
X94973729Y-121053890D01*
X94829132Y-120948833D01*
X94669881Y-120867691D01*
X94669875Y-120867688D01*
X94628194Y-120854146D01*
X94561453Y-120832460D01*
X94499897Y-120812459D01*
X94499895Y-120812458D01*
X94499894Y-120812458D01*
X94323370Y-120784500D01*
X94323366Y-120784500D01*
X92925964Y-120784500D01*
X92858925Y-120764815D01*
X92813170Y-120712011D01*
X92807850Y-120696575D01*
X92807521Y-120696683D01*
X92737896Y-120482396D01*
X92737895Y-120482393D01*
X92703237Y-120414375D01*
X92637815Y-120285978D01*
X92619479Y-120260741D01*
X92508247Y-120107641D01*
X92508243Y-120107636D01*
X92352363Y-119951756D01*
X92352358Y-119951752D01*
X92318954Y-119927483D01*
X104064500Y-119927483D01*
X104064500Y-123127501D01*
X104064501Y-123127518D01*
X104075000Y-123230296D01*
X104075001Y-123230299D01*
X104111308Y-123339865D01*
X104130186Y-123396834D01*
X104222288Y-123546156D01*
X104346344Y-123670212D01*
X104495666Y-123762314D01*
X104662203Y-123817499D01*
X104764991Y-123828000D01*
X106165008Y-123827999D01*
X106267797Y-123817499D01*
X106434334Y-123762314D01*
X106583656Y-123670212D01*
X106707712Y-123546156D01*
X106799814Y-123396834D01*
X106854999Y-123230297D01*
X106865500Y-123127509D01*
X106865499Y-120517278D01*
X109144500Y-120517278D01*
X109144500Y-122537721D01*
X109178985Y-122755452D01*
X109247103Y-122965103D01*
X109247104Y-122965106D01*
X109310733Y-123089982D01*
X109340270Y-123147951D01*
X109347187Y-123161525D01*
X109476752Y-123339858D01*
X109476756Y-123339863D01*
X109632636Y-123495743D01*
X109632641Y-123495747D01*
X109712851Y-123554022D01*
X109810978Y-123625315D01*
X109939375Y-123690737D01*
X110007393Y-123725395D01*
X110007396Y-123725396D01*
X110112221Y-123759455D01*
X110217049Y-123793515D01*
X110434778Y-123828000D01*
X110434779Y-123828000D01*
X110655221Y-123828000D01*
X110655222Y-123828000D01*
X110872951Y-123793515D01*
X111082606Y-123725395D01*
X111279022Y-123625315D01*
X111457365Y-123495742D01*
X111613242Y-123339865D01*
X111742815Y-123161522D01*
X111842895Y-122965106D01*
X111911015Y-122755451D01*
X111945500Y-122537722D01*
X111945500Y-120517278D01*
X111911015Y-120299549D01*
X111876955Y-120194721D01*
X111842896Y-120089896D01*
X111842895Y-120089893D01*
X111760149Y-119927498D01*
X111742815Y-119893478D01*
X111692848Y-119824704D01*
X111613247Y-119715141D01*
X111613243Y-119715136D01*
X111457363Y-119559256D01*
X111457358Y-119559252D01*
X111279025Y-119429687D01*
X111279024Y-119429686D01*
X111279022Y-119429685D01*
X111190908Y-119384788D01*
X111082606Y-119329604D01*
X111082603Y-119329603D01*
X110872952Y-119261485D01*
X110708996Y-119235517D01*
X110655222Y-119227000D01*
X110434778Y-119227000D01*
X110381004Y-119235517D01*
X110217047Y-119261485D01*
X110007396Y-119329603D01*
X110007393Y-119329604D01*
X109810974Y-119429687D01*
X109632641Y-119559252D01*
X109632636Y-119559256D01*
X109476756Y-119715136D01*
X109476752Y-119715141D01*
X109347187Y-119893474D01*
X109247104Y-120089893D01*
X109247103Y-120089896D01*
X109178985Y-120299547D01*
X109144500Y-120517278D01*
X106865499Y-120517278D01*
X106865499Y-119927492D01*
X106862024Y-119893478D01*
X106854999Y-119824703D01*
X106854998Y-119824700D01*
X106821001Y-119722104D01*
X106799814Y-119658166D01*
X106707712Y-119508844D01*
X106583656Y-119384788D01*
X106434334Y-119292686D01*
X106267797Y-119237501D01*
X106267795Y-119237500D01*
X106165010Y-119227000D01*
X104764998Y-119227000D01*
X104764981Y-119227001D01*
X104662203Y-119237500D01*
X104662200Y-119237501D01*
X104495668Y-119292685D01*
X104495663Y-119292687D01*
X104346342Y-119384789D01*
X104222289Y-119508842D01*
X104130187Y-119658163D01*
X104130185Y-119658168D01*
X104121081Y-119685643D01*
X104075001Y-119824703D01*
X104075001Y-119824704D01*
X104075000Y-119824704D01*
X104064500Y-119927483D01*
X92318954Y-119927483D01*
X92174025Y-119822187D01*
X92174024Y-119822186D01*
X92174022Y-119822185D01*
X92086685Y-119777684D01*
X91977606Y-119722104D01*
X91977603Y-119722103D01*
X91767952Y-119653985D01*
X91619635Y-119630494D01*
X91550222Y-119619500D01*
X91329778Y-119619500D01*
X91260371Y-119630493D01*
X91112047Y-119653985D01*
X90902396Y-119722103D01*
X90902393Y-119722104D01*
X90705974Y-119822187D01*
X90527641Y-119951752D01*
X90527636Y-119951756D01*
X90371756Y-120107636D01*
X90371752Y-120107641D01*
X90242187Y-120285974D01*
X90142104Y-120482393D01*
X90142103Y-120482396D01*
X90073985Y-120692047D01*
X90039500Y-120909778D01*
X87759999Y-120909778D01*
X87759999Y-120320028D01*
X87759998Y-120320013D01*
X87749505Y-120217302D01*
X87694358Y-120050880D01*
X87694356Y-120050875D01*
X87602315Y-119901654D01*
X87478345Y-119777684D01*
X87329124Y-119685643D01*
X87329119Y-119685641D01*
X87162697Y-119630494D01*
X87162690Y-119630493D01*
X87059986Y-119620000D01*
X86610000Y-119620000D01*
X86610000Y-121371517D01*
X86591591Y-121360889D01*
X86438991Y-121320000D01*
X86281009Y-121320000D01*
X86128409Y-121360889D01*
X86110000Y-121371517D01*
X86110000Y-119620000D01*
X85660028Y-119620000D01*
X85660012Y-119620001D01*
X85557302Y-119630494D01*
X85390880Y-119685641D01*
X85390875Y-119685643D01*
X85241654Y-119777684D01*
X85117684Y-119901654D01*
X85025643Y-120050875D01*
X85025641Y-120050880D01*
X84970494Y-120217302D01*
X84970493Y-120217309D01*
X84960000Y-120320013D01*
X66540500Y-120320013D01*
X66540500Y-118434889D01*
X66540847Y-118425622D01*
X66545465Y-118364003D01*
X66545465Y-118363996D01*
X66540847Y-118302376D01*
X66540500Y-118293109D01*
X66540500Y-111389960D01*
X66540499Y-111389948D01*
X66538070Y-111371499D01*
X66538070Y-111371497D01*
X66516647Y-111208773D01*
X66510207Y-111159851D01*
X66472355Y-111018589D01*
X66450137Y-110935670D01*
X66361320Y-110721248D01*
X66333824Y-110673623D01*
X66245279Y-110520256D01*
X66245278Y-110520254D01*
X66103991Y-110336125D01*
X66024455Y-110256589D01*
X65939877Y-110172011D01*
X65939875Y-110172009D01*
X65895874Y-110128008D01*
X65843164Y-110075298D01*
X65833898Y-110064929D01*
X65817508Y-110044376D01*
X65817507Y-110044375D01*
X65746203Y-109978216D01*
X65742863Y-109974998D01*
X62713124Y-106945259D01*
X82622719Y-106772132D01*
X82718673Y-106928714D01*
X82718676Y-106928719D01*
X82723767Y-106934679D01*
X82888625Y-106769820D01*
X83601933Y-106763617D01*
X83077319Y-107288232D01*
X83083283Y-107293325D01*
X83303786Y-107428450D01*
X83542714Y-107527417D01*
X83794179Y-107587788D01*
X84052000Y-107608079D01*
X84309820Y-107587788D01*
X84561285Y-107527417D01*
X84800213Y-107428450D01*
X85020713Y-107293326D01*
X85020723Y-107293319D01*
X85026678Y-107288232D01*
X85026678Y-107288231D01*
X84494305Y-106755858D01*
X85195315Y-106749762D01*
X85380231Y-106934678D01*
X85380232Y-106934678D01*
X85385319Y-106928723D01*
X85385326Y-106928713D01*
X85496593Y-106747142D01*
X93218000Y-106680000D01*
X93205710Y-104394000D01*
X94628799Y-104394000D01*
X94695838Y-104413685D01*
X94716480Y-104430319D01*
X96618181Y-106332020D01*
X96651666Y-106393343D01*
X96654500Y-106419701D01*
X96654500Y-113608965D01*
X96634815Y-113676004D01*
X96582011Y-113721759D01*
X96573833Y-113725147D01*
X96447671Y-113772202D01*
X96447664Y-113772206D01*
X96332455Y-113858452D01*
X96332452Y-113858455D01*
X96246206Y-113973664D01*
X96246202Y-113973671D01*
X96195908Y-114108517D01*
X96189501Y-114168116D01*
X96189501Y-114168123D01*
X96189500Y-114168135D01*
X96189500Y-116463870D01*
X96189501Y-116463876D01*
X96195908Y-116523483D01*
X96246202Y-116658328D01*
X96246206Y-116658335D01*
X96332452Y-116773544D01*
X96332455Y-116773547D01*
X96447664Y-116859793D01*
X96447671Y-116859797D01*
X96582517Y-116910091D01*
X96582516Y-116910091D01*
X96589444Y-116910835D01*
X96642127Y-116916500D01*
X98937872Y-116916499D01*
X98997483Y-116910091D01*
X99132331Y-116859796D01*
X99247546Y-116773546D01*
X99333796Y-116658331D01*
X99384091Y-116523483D01*
X99390500Y-116463873D01*
X99390499Y-114168128D01*
X99384091Y-114108517D01*
X99340260Y-113991001D01*
X99333797Y-113973671D01*
X99333793Y-113973664D01*
X99247547Y-113858455D01*
X99247544Y-113858452D01*
X99132335Y-113772206D01*
X99132328Y-113772202D01*
X99006167Y-113725147D01*
X98950233Y-113683276D01*
X98925816Y-113617811D01*
X98925500Y-113608965D01*
X98925500Y-105808634D01*
X98918092Y-105761863D01*
X98897541Y-105632103D01*
X98855853Y-105503806D01*
X98855853Y-105503805D01*
X98855853Y-105503803D01*
X98842311Y-105462125D01*
X98842310Y-105462124D01*
X98842309Y-105462119D01*
X98761167Y-105302868D01*
X98741788Y-105276196D01*
X98708453Y-105230314D01*
X98656111Y-105158272D01*
X98529728Y-105031889D01*
X98103520Y-104605681D01*
X98070035Y-104544358D01*
X98075019Y-104474666D01*
X98116891Y-104418733D01*
X98182355Y-104394316D01*
X98191201Y-104394000D01*
X106309500Y-104394000D01*
X106376539Y-104413685D01*
X106422294Y-104466489D01*
X106433500Y-104518000D01*
X106433500Y-105076552D01*
X106433499Y-105076578D01*
X106433499Y-105230314D01*
X106435735Y-105241555D01*
X106457684Y-105351894D01*
X106460581Y-105366460D01*
X106462495Y-105376082D01*
X106472954Y-105401328D01*
X106472955Y-105401334D01*
X106472956Y-105401334D01*
X106519366Y-105513381D01*
X106519372Y-105513392D01*
X106601942Y-105636968D01*
X106657106Y-105692132D01*
X106690591Y-105753455D01*
X106692828Y-105767657D01*
X106702091Y-105861699D01*
X106759760Y-106051808D01*
X106853401Y-106226998D01*
X106853405Y-106227005D01*
X106979431Y-106380568D01*
X107132994Y-106506594D01*
X107133001Y-106506598D01*
X107308191Y-106600239D01*
X107308193Y-106600239D01*
X107308196Y-106600241D01*
X107498299Y-106657908D01*
X107498298Y-106657908D01*
X107516024Y-106659653D01*
X107696000Y-106677380D01*
X107893701Y-106657908D01*
X108083804Y-106600241D01*
X108259004Y-106506595D01*
X108412568Y-106380568D01*
X108538595Y-106227004D01*
X108632241Y-106051804D01*
X108689908Y-105861701D01*
X108709380Y-105664000D01*
X108689908Y-105466299D01*
X108632241Y-105276196D01*
X108632239Y-105276193D01*
X108632239Y-105276191D01*
X108538598Y-105101001D01*
X108538594Y-105100994D01*
X108412568Y-104947431D01*
X108259005Y-104821405D01*
X108258998Y-104821401D01*
X108083805Y-104727759D01*
X108030504Y-104711590D01*
X107972066Y-104673293D01*
X107943609Y-104609480D01*
X107942500Y-104592930D01*
X107942500Y-104518000D01*
X107962185Y-104450961D01*
X108014989Y-104405206D01*
X108066500Y-104394000D01*
X112023303Y-104394000D01*
X112090342Y-104413685D01*
X112136097Y-104466489D01*
X112146041Y-104535647D01*
X112117016Y-104599203D01*
X112088094Y-104623727D01*
X112083284Y-104626674D01*
X112083273Y-104626682D01*
X112077320Y-104631766D01*
X112922591Y-105477037D01*
X112859007Y-105494075D01*
X112744993Y-105559901D01*
X112651901Y-105652993D01*
X112586075Y-105767007D01*
X112569037Y-105830590D01*
X111723766Y-104985320D01*
X111718682Y-104991273D01*
X111718670Y-104991289D01*
X111583549Y-105211786D01*
X111484582Y-105450714D01*
X111424211Y-105702179D01*
X111403920Y-105960000D01*
X111424211Y-106217820D01*
X111484582Y-106469285D01*
X111583549Y-106708213D01*
X111718673Y-106928714D01*
X111718676Y-106928719D01*
X111723767Y-106934679D01*
X112569037Y-106089409D01*
X112586075Y-106152993D01*
X112651901Y-106267007D01*
X112744993Y-106360099D01*
X112859007Y-106425925D01*
X112922590Y-106442962D01*
X112077319Y-107288232D01*
X112083283Y-107293325D01*
X112303786Y-107428450D01*
X112542714Y-107527417D01*
X112794179Y-107587788D01*
X113052000Y-107608079D01*
X113309820Y-107587788D01*
X113561285Y-107527417D01*
X113800213Y-107428450D01*
X114020713Y-107293326D01*
X114020723Y-107293319D01*
X114026678Y-107288232D01*
X114026678Y-107288231D01*
X113181409Y-106442962D01*
X113244993Y-106425925D01*
X113359007Y-106360099D01*
X113452099Y-106267007D01*
X113517925Y-106152993D01*
X113534962Y-106089409D01*
X114380231Y-106934678D01*
X114380232Y-106934678D01*
X114385319Y-106928723D01*
X114385326Y-106928713D01*
X114520450Y-106708213D01*
X114619417Y-106469285D01*
X114679788Y-106217820D01*
X114700079Y-105960000D01*
X114679788Y-105702179D01*
X114619417Y-105450714D01*
X114520450Y-105211786D01*
X114385325Y-104991283D01*
X114380232Y-104985319D01*
X113534962Y-105830589D01*
X113517925Y-105767007D01*
X113452099Y-105652993D01*
X113359007Y-105559901D01*
X113244993Y-105494075D01*
X113181408Y-105477037D01*
X114026679Y-104631767D01*
X114026679Y-104631766D01*
X114020719Y-104626676D01*
X114020718Y-104626675D01*
X114015908Y-104623728D01*
X113969032Y-104571917D01*
X113957609Y-104502987D01*
X113985265Y-104438824D01*
X114043220Y-104399799D01*
X114080697Y-104394000D01*
X118544462Y-104394000D01*
X118611501Y-104413685D01*
X118657256Y-104466489D01*
X118667200Y-104535647D01*
X118638175Y-104599203D01*
X118582782Y-104635930D01*
X118571688Y-104639534D01*
X118557550Y-104644128D01*
X118403211Y-104722768D01*
X118323256Y-104780859D01*
X118263072Y-104824586D01*
X118263070Y-104824588D01*
X118263069Y-104824588D01*
X118140588Y-104947069D01*
X118140588Y-104947070D01*
X118140586Y-104947072D01*
X118096859Y-105007256D01*
X118038768Y-105087211D01*
X117960128Y-105241552D01*
X117906597Y-105406302D01*
X117889636Y-105513392D01*
X117879500Y-105577389D01*
X117879500Y-105750611D01*
X117881282Y-105761862D01*
X117897094Y-105861699D01*
X117906598Y-105921701D01*
X117960127Y-106086445D01*
X118038768Y-106240788D01*
X118140586Y-106380928D01*
X118263072Y-106503414D01*
X118403212Y-106605232D01*
X118557555Y-106683873D01*
X118722299Y-106737402D01*
X118893389Y-106764500D01*
X118893390Y-106764500D01*
X119866610Y-106764500D01*
X119866611Y-106764500D01*
X120037701Y-106737402D01*
X120202445Y-106683873D01*
X120356788Y-106605232D01*
X120496928Y-106503414D01*
X120619414Y-106380928D01*
X120721232Y-106240788D01*
X120799873Y-106086445D01*
X120853402Y-105921701D01*
X120880500Y-105750611D01*
X120880500Y-105577389D01*
X120853402Y-105406299D01*
X120799873Y-105241555D01*
X120721232Y-105087212D01*
X120619414Y-104947072D01*
X120496928Y-104824586D01*
X120356788Y-104722768D01*
X120334850Y-104711590D01*
X120202449Y-104644128D01*
X120192874Y-104641017D01*
X120177217Y-104635930D01*
X120119544Y-104596493D01*
X120092346Y-104532134D01*
X120104261Y-104463288D01*
X120151505Y-104411812D01*
X120215538Y-104394000D01*
X123200500Y-104394000D01*
X123267539Y-104413685D01*
X123313294Y-104466489D01*
X123324500Y-104518000D01*
X123324500Y-109387688D01*
X123304815Y-109454727D01*
X123279169Y-109483537D01*
X123235432Y-109519432D01*
X123235429Y-109519434D01*
X123235427Y-109519437D01*
X123109405Y-109672994D01*
X123109401Y-109673001D01*
X123015760Y-109848191D01*
X122958091Y-110038300D01*
X122938620Y-110236000D01*
X122958091Y-110433699D01*
X123015760Y-110623808D01*
X123109401Y-110798998D01*
X123109405Y-110799005D01*
X123235431Y-110952568D01*
X123388994Y-111078594D01*
X123389001Y-111078598D01*
X123564191Y-111172239D01*
X123564193Y-111172239D01*
X123564196Y-111172241D01*
X123754299Y-111229908D01*
X123754298Y-111229908D01*
X123772024Y-111231653D01*
X123952000Y-111249380D01*
X124149701Y-111229908D01*
X124339804Y-111172241D01*
X124515004Y-111078595D01*
X124668568Y-110952568D01*
X124794595Y-110799004D01*
X124888241Y-110623804D01*
X124945908Y-110433701D01*
X124965380Y-110236000D01*
X124945908Y-110038299D01*
X124888241Y-109848196D01*
X124888239Y-109848193D01*
X124888239Y-109848191D01*
X124794598Y-109673001D01*
X124794594Y-109672994D01*
X124668572Y-109519437D01*
X124668568Y-109519432D01*
X124624832Y-109483538D01*
X124585500Y-109425795D01*
X124579500Y-109387688D01*
X124579500Y-104518000D01*
X124599185Y-104450961D01*
X124651989Y-104405206D01*
X124703500Y-104394000D01*
X130058500Y-104394000D01*
X130125539Y-104413685D01*
X130171294Y-104466489D01*
X130182500Y-104518000D01*
X130182500Y-110551807D01*
X130206612Y-110673028D01*
X130206613Y-110673032D01*
X130206614Y-110673035D01*
X130229661Y-110728673D01*
X130253917Y-110787233D01*
X130304877Y-110863500D01*
X130313703Y-110876710D01*
X130322589Y-110890009D01*
X130322591Y-110890011D01*
X131290443Y-111857862D01*
X131323928Y-111919185D01*
X131326165Y-111957696D01*
X131320620Y-112013999D01*
X131340091Y-112211699D01*
X131397760Y-112401808D01*
X131491401Y-112576998D01*
X131491405Y-112577005D01*
X131617431Y-112730568D01*
X131770994Y-112856594D01*
X131771001Y-112856598D01*
X131946191Y-112950239D01*
X131946193Y-112950239D01*
X131946196Y-112950241D01*
X132136299Y-113007908D01*
X132136298Y-113007908D01*
X132154024Y-113009653D01*
X132334000Y-113027380D01*
X132531701Y-113007908D01*
X132721804Y-112950241D01*
X132897004Y-112856595D01*
X133050568Y-112730568D01*
X133176595Y-112577004D01*
X133270241Y-112401804D01*
X133327908Y-112211701D01*
X133347380Y-112014000D01*
X133327908Y-111816299D01*
X133270241Y-111626196D01*
X133270239Y-111626193D01*
X133270239Y-111626191D01*
X133176598Y-111451001D01*
X133176594Y-111450994D01*
X133050568Y-111297431D01*
X132897005Y-111171405D01*
X132896998Y-111171401D01*
X132721808Y-111077760D01*
X132601486Y-111041261D01*
X132531701Y-111020092D01*
X132531699Y-111020091D01*
X132531701Y-111020091D01*
X132351725Y-111002365D01*
X132334000Y-111000620D01*
X132333999Y-111000620D01*
X132277696Y-111006165D01*
X132209050Y-110993146D01*
X132177862Y-110970443D01*
X131473819Y-110266400D01*
X131440334Y-110205077D01*
X131437500Y-110178719D01*
X131437500Y-104518000D01*
X131457185Y-104450961D01*
X131509989Y-104405206D01*
X131561500Y-104394000D01*
X132090500Y-104394000D01*
X132157539Y-104413685D01*
X132203294Y-104466489D01*
X132214500Y-104518000D01*
X132214500Y-109789807D01*
X132238612Y-109911028D01*
X132238615Y-109911038D01*
X132256697Y-109954689D01*
X132256698Y-109954693D01*
X132285914Y-110025228D01*
X132285915Y-110025229D01*
X132285917Y-110025233D01*
X132316081Y-110070376D01*
X132329187Y-110089990D01*
X132329187Y-110089991D01*
X132354590Y-110128010D01*
X132354593Y-110128013D01*
X133370589Y-111144008D01*
X134210181Y-111983600D01*
X134243666Y-112044923D01*
X134246500Y-112071281D01*
X134246500Y-116499688D01*
X134226815Y-116566727D01*
X134201169Y-116595537D01*
X134157432Y-116631432D01*
X134157429Y-116631434D01*
X134157427Y-116631437D01*
X134031405Y-116784994D01*
X134031401Y-116785001D01*
X133937760Y-116960191D01*
X133880091Y-117150300D01*
X133860620Y-117348000D01*
X133880091Y-117545699D01*
X133937760Y-117735808D01*
X134031401Y-117910998D01*
X134031405Y-117911005D01*
X134157431Y-118064568D01*
X134310994Y-118190594D01*
X134311001Y-118190598D01*
X134486191Y-118284239D01*
X134486193Y-118284239D01*
X134486196Y-118284241D01*
X134676299Y-118341908D01*
X134676298Y-118341908D01*
X134694024Y-118343653D01*
X134874000Y-118361380D01*
X135071701Y-118341908D01*
X135261804Y-118284241D01*
X135437004Y-118190595D01*
X135590568Y-118064568D01*
X135716595Y-117911004D01*
X135810241Y-117735804D01*
X135867908Y-117545701D01*
X135887380Y-117348000D01*
X135867908Y-117150299D01*
X135810241Y-116960196D01*
X135810239Y-116960193D01*
X135810239Y-116960191D01*
X135716598Y-116785001D01*
X135716594Y-116784994D01*
X135590572Y-116631437D01*
X135590568Y-116631432D01*
X135546832Y-116595538D01*
X135507500Y-116537795D01*
X135501500Y-116499688D01*
X135501500Y-111698198D01*
X135501500Y-111698197D01*
X135494687Y-111663947D01*
X135477386Y-111576965D01*
X135442611Y-111493013D01*
X135430083Y-111462767D01*
X135422221Y-111451001D01*
X135361414Y-111359996D01*
X135361413Y-111359994D01*
X135324379Y-111322960D01*
X135274008Y-111272589D01*
X134258008Y-110256589D01*
X133505819Y-109504400D01*
X133472334Y-109443077D01*
X133469500Y-109416719D01*
X133469500Y-104518000D01*
X133489185Y-104450961D01*
X133541989Y-104405206D01*
X133593500Y-104394000D01*
X134630500Y-104394000D01*
X134697539Y-104413685D01*
X134743294Y-104466489D01*
X134754500Y-104518000D01*
X134754500Y-109281807D01*
X134778612Y-109403028D01*
X134778613Y-109403032D01*
X134778614Y-109403035D01*
X134790102Y-109430768D01*
X134825915Y-109517231D01*
X134880730Y-109599266D01*
X134880732Y-109599269D01*
X134894586Y-109620005D01*
X137004181Y-111729600D01*
X137037666Y-111790923D01*
X137040500Y-111817281D01*
X137040500Y-113345807D01*
X137064612Y-113467028D01*
X137064613Y-113467032D01*
X137064614Y-113467035D01*
X137076090Y-113494739D01*
X137111916Y-113581231D01*
X137111924Y-113581246D01*
X137112221Y-113581687D01*
X137180590Y-113684010D01*
X137180591Y-113684011D01*
X137894443Y-114397862D01*
X137927928Y-114459185D01*
X137930165Y-114497696D01*
X137924620Y-114553999D01*
X137944091Y-114751699D01*
X138001760Y-114941808D01*
X138095401Y-115116998D01*
X138095405Y-115117005D01*
X138221431Y-115270568D01*
X138374994Y-115396594D01*
X138375001Y-115396598D01*
X138550191Y-115490239D01*
X138550193Y-115490239D01*
X138550196Y-115490241D01*
X138740299Y-115547908D01*
X138740298Y-115547908D01*
X138758024Y-115549653D01*
X138938000Y-115567380D01*
X139135701Y-115547908D01*
X139325804Y-115490241D01*
X139501004Y-115396595D01*
X139654568Y-115270568D01*
X139780595Y-115117004D01*
X139874241Y-114941804D01*
X139931908Y-114751701D01*
X139951380Y-114554000D01*
X139931908Y-114356299D01*
X139874241Y-114166196D01*
X139874239Y-114166193D01*
X139874239Y-114166191D01*
X139780598Y-113991001D01*
X139780594Y-113990994D01*
X139654568Y-113837431D01*
X139501005Y-113711405D01*
X139500998Y-113711401D01*
X139325808Y-113617760D01*
X139205486Y-113581261D01*
X139135701Y-113560092D01*
X139135699Y-113560091D01*
X139135701Y-113560091D01*
X138955725Y-113542365D01*
X138938000Y-113540620D01*
X138937999Y-113540620D01*
X138881696Y-113546165D01*
X138813050Y-113533146D01*
X138781862Y-113510443D01*
X138331819Y-113060400D01*
X138298334Y-112999077D01*
X138295500Y-112972719D01*
X138295500Y-111444194D01*
X138271386Y-111322970D01*
X138271385Y-111322969D01*
X138271385Y-111322965D01*
X138260809Y-111297431D01*
X138224086Y-111208773D01*
X138224079Y-111208760D01*
X138155412Y-111105993D01*
X138113629Y-111064210D01*
X138068008Y-111018589D01*
X136045819Y-108996400D01*
X136012334Y-108935077D01*
X136009500Y-108908719D01*
X136009500Y-104518000D01*
X136029185Y-104450961D01*
X136081989Y-104405206D01*
X136133500Y-104394000D01*
X143944462Y-104394000D01*
X144011501Y-104413685D01*
X144057256Y-104466489D01*
X144067200Y-104535647D01*
X144038175Y-104599203D01*
X143982782Y-104635930D01*
X143971688Y-104639534D01*
X143957550Y-104644128D01*
X143803211Y-104722768D01*
X143723256Y-104780859D01*
X143663072Y-104824586D01*
X143663070Y-104824588D01*
X143663069Y-104824588D01*
X143540588Y-104947069D01*
X143540588Y-104947070D01*
X143540586Y-104947072D01*
X143496859Y-105007256D01*
X143438768Y-105087211D01*
X143360128Y-105241552D01*
X143306597Y-105406302D01*
X143289636Y-105513392D01*
X143279500Y-105577389D01*
X143279500Y-105750611D01*
X143281282Y-105761862D01*
X143297094Y-105861699D01*
X143306598Y-105921701D01*
X143360127Y-106086445D01*
X143438768Y-106240788D01*
X143540586Y-106380928D01*
X143663072Y-106503414D01*
X143803212Y-106605232D01*
X143957555Y-106683873D01*
X144122299Y-106737402D01*
X144293389Y-106764500D01*
X144472796Y-106764500D01*
X144511116Y-106770570D01*
X144513964Y-106771494D01*
X144514103Y-106771540D01*
X144690634Y-106799500D01*
X157720299Y-106799500D01*
X157787338Y-106819185D01*
X157807979Y-106835818D01*
X159026271Y-108054111D01*
X159057826Y-108077037D01*
X159073605Y-108088501D01*
X159170869Y-108159168D01*
X159242274Y-108195550D01*
X159285246Y-108231724D01*
X159370452Y-108345544D01*
X159370455Y-108345547D01*
X159485664Y-108431793D01*
X159485671Y-108431797D01*
X159530618Y-108448561D01*
X159620517Y-108482091D01*
X159655596Y-108485862D01*
X159720144Y-108512599D01*
X159759993Y-108569991D01*
X159762488Y-108639816D01*
X159726836Y-108699905D01*
X159713464Y-108710725D01*
X159688858Y-108727954D01*
X159527954Y-108888858D01*
X159397432Y-109075265D01*
X159397431Y-109075267D01*
X159301261Y-109281502D01*
X159301258Y-109281511D01*
X159242366Y-109501302D01*
X159242364Y-109501313D01*
X159222532Y-109727998D01*
X159222532Y-109728001D01*
X159242364Y-109954686D01*
X159242366Y-109954697D01*
X159301258Y-110174488D01*
X159301261Y-110174497D01*
X159397431Y-110380732D01*
X159397432Y-110380734D01*
X159527954Y-110567141D01*
X159688858Y-110728045D01*
X159688861Y-110728047D01*
X159875266Y-110858568D01*
X159928615Y-110883445D01*
X159933275Y-110885618D01*
X159985714Y-110931791D01*
X160004866Y-110998984D01*
X159984650Y-111065865D01*
X159933275Y-111110382D01*
X159875267Y-111137431D01*
X159875265Y-111137432D01*
X159688858Y-111267954D01*
X159527954Y-111428858D01*
X159397432Y-111615265D01*
X159397431Y-111615267D01*
X159301261Y-111821502D01*
X159301258Y-111821511D01*
X159242366Y-112041302D01*
X159242364Y-112041313D01*
X159222532Y-112267998D01*
X159222532Y-112268001D01*
X159242364Y-112494686D01*
X159242366Y-112494697D01*
X159301258Y-112714488D01*
X159301261Y-112714497D01*
X159397431Y-112920732D01*
X159397432Y-112920734D01*
X159527954Y-113107141D01*
X159688858Y-113268045D01*
X159688861Y-113268047D01*
X159875266Y-113398568D01*
X159933275Y-113425618D01*
X159985714Y-113471791D01*
X160004866Y-113538984D01*
X159984650Y-113605865D01*
X159933275Y-113650382D01*
X159875267Y-113677431D01*
X159875265Y-113677432D01*
X159688858Y-113807954D01*
X159527954Y-113968858D01*
X159397432Y-114155265D01*
X159397431Y-114155267D01*
X159301261Y-114361502D01*
X159301258Y-114361511D01*
X159242366Y-114581302D01*
X159242364Y-114581313D01*
X159222532Y-114807998D01*
X159222532Y-114808001D01*
X159242364Y-115034686D01*
X159242366Y-115034697D01*
X159301258Y-115254488D01*
X159301261Y-115254497D01*
X159397431Y-115460732D01*
X159397432Y-115460734D01*
X159527954Y-115647141D01*
X159688858Y-115808045D01*
X159688861Y-115808047D01*
X159875266Y-115938568D01*
X159933275Y-115965618D01*
X159985714Y-116011791D01*
X160004866Y-116078984D01*
X159984650Y-116145865D01*
X159933275Y-116190382D01*
X159875267Y-116217431D01*
X159875265Y-116217432D01*
X159688858Y-116347954D01*
X159527954Y-116508858D01*
X159397432Y-116695265D01*
X159397431Y-116695267D01*
X159301261Y-116901502D01*
X159301258Y-116901511D01*
X159242366Y-117121302D01*
X159242364Y-117121313D01*
X159222532Y-117347998D01*
X159222532Y-117348001D01*
X159242364Y-117574686D01*
X159242366Y-117574697D01*
X159301258Y-117794488D01*
X159301261Y-117794497D01*
X159397431Y-118000732D01*
X159397432Y-118000734D01*
X159527954Y-118187141D01*
X159688858Y-118348045D01*
X159688861Y-118348047D01*
X159875266Y-118478568D01*
X159933865Y-118505893D01*
X159986305Y-118552065D01*
X160005457Y-118619258D01*
X159985242Y-118686139D01*
X159933867Y-118730657D01*
X159875515Y-118757867D01*
X159689179Y-118888342D01*
X159528342Y-119049179D01*
X159397865Y-119235517D01*
X159301734Y-119441673D01*
X159301730Y-119441682D01*
X159249127Y-119637999D01*
X159249128Y-119638000D01*
X160212314Y-119638000D01*
X160207920Y-119642394D01*
X160155259Y-119733606D01*
X160128000Y-119835339D01*
X160128000Y-119940661D01*
X160155259Y-120042394D01*
X160207920Y-120133606D01*
X160212314Y-120138000D01*
X159249128Y-120138000D01*
X159301730Y-120334317D01*
X159301734Y-120334326D01*
X159397865Y-120540482D01*
X159528342Y-120726820D01*
X159689179Y-120887657D01*
X159875517Y-121018134D01*
X160081673Y-121114265D01*
X160081682Y-121114269D01*
X160277999Y-121166872D01*
X160278000Y-121166871D01*
X160278000Y-120203686D01*
X160282394Y-120208080D01*
X160373606Y-120260741D01*
X160475339Y-120288000D01*
X160580661Y-120288000D01*
X160682394Y-120260741D01*
X160773606Y-120208080D01*
X160778000Y-120203686D01*
X160778000Y-121166872D01*
X160974317Y-121114269D01*
X160974326Y-121114265D01*
X161180482Y-121018134D01*
X161366820Y-120887657D01*
X161527657Y-120726820D01*
X161658134Y-120540482D01*
X161754265Y-120334326D01*
X161754269Y-120334317D01*
X161806872Y-120138000D01*
X160843686Y-120138000D01*
X160848080Y-120133606D01*
X160900741Y-120042394D01*
X160928000Y-119940661D01*
X160928000Y-119835339D01*
X160900741Y-119733606D01*
X160848080Y-119642394D01*
X160843686Y-119638000D01*
X161806872Y-119638000D01*
X161806872Y-119637999D01*
X161754269Y-119441682D01*
X161754265Y-119441673D01*
X161658134Y-119235517D01*
X161527657Y-119049179D01*
X161366820Y-118888342D01*
X161180482Y-118757865D01*
X161122133Y-118730657D01*
X161069694Y-118684484D01*
X161050542Y-118617291D01*
X161070758Y-118550410D01*
X161122129Y-118505895D01*
X161180734Y-118478568D01*
X161367139Y-118348047D01*
X161528047Y-118187139D01*
X161658568Y-118000734D01*
X161754739Y-117794496D01*
X161813635Y-117574692D01*
X161833468Y-117348000D01*
X161813635Y-117121308D01*
X161754739Y-116901504D01*
X161658568Y-116695266D01*
X161528047Y-116508861D01*
X161528045Y-116508858D01*
X161367141Y-116347954D01*
X161180734Y-116217432D01*
X161180728Y-116217429D01*
X161122725Y-116190382D01*
X161070285Y-116144210D01*
X161051133Y-116077017D01*
X161071348Y-116010135D01*
X161122725Y-115965618D01*
X161180734Y-115938568D01*
X161367139Y-115808047D01*
X161528047Y-115647139D01*
X161658568Y-115460734D01*
X161754739Y-115254496D01*
X161813635Y-115034692D01*
X161833468Y-114808000D01*
X161813635Y-114581308D01*
X161754739Y-114361504D01*
X161658568Y-114155266D01*
X161560839Y-114015693D01*
X161528045Y-113968858D01*
X161367141Y-113807954D01*
X161180734Y-113677432D01*
X161180728Y-113677429D01*
X161122725Y-113650382D01*
X161070285Y-113604210D01*
X161051133Y-113537017D01*
X161071348Y-113470135D01*
X161122725Y-113425618D01*
X161180734Y-113398568D01*
X161367139Y-113268047D01*
X161528047Y-113107139D01*
X161658568Y-112920734D01*
X161754739Y-112714496D01*
X161813635Y-112494692D01*
X161833468Y-112268000D01*
X161813635Y-112041308D01*
X161754739Y-111821504D01*
X161658568Y-111615266D01*
X161551780Y-111462756D01*
X161528045Y-111428858D01*
X161367141Y-111267954D01*
X161180734Y-111137432D01*
X161180728Y-111137429D01*
X161122725Y-111110382D01*
X161070285Y-111064210D01*
X161051133Y-110997017D01*
X161071348Y-110930135D01*
X161122725Y-110885618D01*
X161127385Y-110883445D01*
X161180734Y-110858568D01*
X161367139Y-110728047D01*
X161528047Y-110567139D01*
X161658568Y-110380734D01*
X161754739Y-110174496D01*
X161813635Y-109954692D01*
X161833468Y-109728000D01*
X161813635Y-109501308D01*
X161754739Y-109281504D01*
X161658568Y-109075266D01*
X161528047Y-108888861D01*
X161528045Y-108888858D01*
X161367143Y-108727956D01*
X161342536Y-108710726D01*
X161298912Y-108656149D01*
X161291719Y-108586650D01*
X161323241Y-108524296D01*
X161383471Y-108488882D01*
X161400404Y-108485861D01*
X161435483Y-108482091D01*
X161570331Y-108431796D01*
X161685546Y-108345546D01*
X161771796Y-108230331D01*
X161822091Y-108095483D01*
X161828500Y-108035873D01*
X161828499Y-106340128D01*
X161822091Y-106280517D01*
X161802132Y-106227005D01*
X161771797Y-106145671D01*
X161771793Y-106145664D01*
X161685547Y-106030455D01*
X161685544Y-106030452D01*
X161570335Y-105944206D01*
X161570328Y-105944202D01*
X161435482Y-105893908D01*
X161435483Y-105893908D01*
X161375883Y-105887501D01*
X161375881Y-105887500D01*
X161375873Y-105887500D01*
X161375865Y-105887500D01*
X160884702Y-105887500D01*
X160817663Y-105867815D01*
X160797021Y-105851181D01*
X160176152Y-105230312D01*
X159551519Y-104605679D01*
X159518035Y-104544358D01*
X159523019Y-104474666D01*
X159564891Y-104418733D01*
X159630355Y-104394316D01*
X159639201Y-104394000D01*
X166244766Y-104394000D01*
X166311805Y-104413685D01*
X166357560Y-104466489D01*
X166368760Y-104519228D01*
X166349944Y-106419701D01*
X166119656Y-129678730D01*
X166099310Y-129745569D01*
X166046055Y-129790799D01*
X165995663Y-129801500D01*
X52935685Y-129801500D01*
X52868646Y-129781815D01*
X52822891Y-129729011D01*
X52812947Y-129659853D01*
X52841972Y-129596297D01*
X52860643Y-129578785D01*
X52939502Y-129518837D01*
X52952742Y-129506294D01*
X51740698Y-128294251D01*
X51842330Y-128220412D01*
X52020412Y-128042330D01*
X52094251Y-127940698D01*
X53303556Y-129150003D01*
X53430964Y-129000008D01*
X53430975Y-128999994D01*
X53631781Y-128703827D01*
X53799393Y-128387677D01*
X53799402Y-128387659D01*
X53931850Y-128055239D01*
X53931852Y-128055232D01*
X54027578Y-127710457D01*
X54027584Y-127710431D01*
X54085472Y-127357331D01*
X54085473Y-127357314D01*
X54104847Y-127000002D01*
X54104847Y-126999997D01*
X54085473Y-126642685D01*
X54085472Y-126642668D01*
X54027584Y-126289568D01*
X54027578Y-126289542D01*
X53931852Y-125944767D01*
X53931850Y-125944760D01*
X53799402Y-125612340D01*
X53799393Y-125612322D01*
X53631781Y-125296172D01*
X53430966Y-124999992D01*
X53303557Y-124849995D01*
X53303556Y-124849994D01*
X52094250Y-126059300D01*
X52020412Y-125957670D01*
X51842330Y-125779588D01*
X51740697Y-125705747D01*
X52952743Y-124493703D01*
X52952742Y-124493702D01*
X52939514Y-124481171D01*
X52939513Y-124481170D01*
X52654632Y-124264611D01*
X52654629Y-124264609D01*
X52348009Y-124080123D01*
X52023260Y-123929877D01*
X52023255Y-123929876D01*
X51684144Y-123815616D01*
X51334660Y-123738688D01*
X50978924Y-123700000D01*
X50621075Y-123700000D01*
X50265339Y-123738688D01*
X49915855Y-123815616D01*
X49576744Y-123929876D01*
X49576739Y-123929877D01*
X49251990Y-124080123D01*
X48945370Y-124264609D01*
X48945367Y-124264611D01*
X48660491Y-124481166D01*
X48647256Y-124493703D01*
X48647255Y-124493703D01*
X49859301Y-125705748D01*
X49757670Y-125779588D01*
X49579588Y-125957670D01*
X49505748Y-126059301D01*
X48296442Y-124849994D01*
X48296441Y-124849995D01*
X48169040Y-124999983D01*
X48169033Y-124999993D01*
X47968218Y-125296172D01*
X47800606Y-125612322D01*
X47800597Y-125612340D01*
X47668149Y-125944760D01*
X47668147Y-125944767D01*
X47572421Y-126289542D01*
X47572415Y-126289568D01*
X47514527Y-126642668D01*
X47514526Y-126642685D01*
X47495153Y-126999997D01*
X47495153Y-127000002D01*
X47514526Y-127357314D01*
X47514527Y-127357331D01*
X47572415Y-127710431D01*
X47572421Y-127710457D01*
X47668147Y-128055232D01*
X47668149Y-128055239D01*
X47800597Y-128387659D01*
X47800606Y-128387677D01*
X47968218Y-128703827D01*
X48169033Y-129000007D01*
X48296441Y-129150003D01*
X48296442Y-129150004D01*
X49505748Y-127940698D01*
X49579588Y-128042330D01*
X49757670Y-128220412D01*
X49859300Y-128294251D01*
X48647255Y-129506295D01*
X48647256Y-129506296D01*
X48660485Y-129518828D01*
X48660486Y-129518829D01*
X48739356Y-129578784D01*
X48780814Y-129635026D01*
X48785283Y-129704752D01*
X48751346Y-129765826D01*
X48689778Y-129798858D01*
X48664315Y-129801500D01*
X38182598Y-129801500D01*
X34414992Y-129794240D01*
X34347991Y-129774426D01*
X34302338Y-129721534D01*
X34291237Y-129669014D01*
X34318864Y-126878711D01*
X37519500Y-126878711D01*
X37519500Y-127121288D01*
X37551161Y-127361785D01*
X37613947Y-127596104D01*
X37706773Y-127820205D01*
X37706777Y-127820214D01*
X37728974Y-127858661D01*
X37828064Y-128030289D01*
X37828066Y-128030292D01*
X37828067Y-128030293D01*
X37975733Y-128222736D01*
X37975739Y-128222743D01*
X38147256Y-128394260D01*
X38147262Y-128394265D01*
X38339711Y-128541936D01*
X38549788Y-128663224D01*
X38773900Y-128756054D01*
X39008211Y-128818838D01*
X39188586Y-128842584D01*
X39248711Y-128850500D01*
X39248712Y-128850500D01*
X39491289Y-128850500D01*
X39539388Y-128844167D01*
X39731789Y-128818838D01*
X39966100Y-128756054D01*
X40190212Y-128663224D01*
X40400289Y-128541936D01*
X40592738Y-128394265D01*
X40764265Y-128222738D01*
X40911936Y-128030289D01*
X41033224Y-127820212D01*
X41126054Y-127596100D01*
X41188838Y-127361789D01*
X41220500Y-127121288D01*
X41220500Y-126878712D01*
X41188838Y-126638211D01*
X41126054Y-126403900D01*
X41033224Y-126179788D01*
X40911936Y-125969711D01*
X40764265Y-125777262D01*
X40764260Y-125777256D01*
X40592743Y-125605739D01*
X40592736Y-125605733D01*
X40400293Y-125458067D01*
X40400292Y-125458066D01*
X40400289Y-125458064D01*
X40190212Y-125336776D01*
X40190205Y-125336773D01*
X39966104Y-125243947D01*
X39731785Y-125181161D01*
X39491289Y-125149500D01*
X39491288Y-125149500D01*
X39248712Y-125149500D01*
X39248711Y-125149500D01*
X39008214Y-125181161D01*
X38773895Y-125243947D01*
X38549794Y-125336773D01*
X38549785Y-125336777D01*
X38339706Y-125458067D01*
X38147263Y-125605733D01*
X38147256Y-125605739D01*
X37975739Y-125777256D01*
X37975733Y-125777263D01*
X37828067Y-125969706D01*
X37706777Y-126179785D01*
X37706773Y-126179794D01*
X37613947Y-126403895D01*
X37551161Y-126638214D01*
X37519500Y-126878711D01*
X34318864Y-126878711D01*
X34450522Y-113581246D01*
X34540270Y-104516772D01*
X34560617Y-104449931D01*
X34613872Y-104404701D01*
X34664264Y-104394000D01*
X34798000Y-104394000D01*
X34798000Y-107188000D01*
G37*
%TD.AperFunction*%
%TD*%
M02*
