M48
; DRILL file {KiCad 8.0.8+1} date 2025-02-28T11:29:14+1100
; FORMAT={-:-/ absolute / inch / decimal}
; #@! TF.CreationDate,2025-02-28T11:29:14+11:00
; #@! TF.GenerationSoftware,Kicad,Pcbnew,8.0.8+1
; #@! TF.FileFunction,Plated,1,2,PTH
FMAT,2
INCH
; #@! TA.AperFunction,Plated,PTH,ViaDrill
T1C0.0300
; #@! TA.AperFunction,Plated,PTH,ComponentDrill
T2C0.0315
; #@! TA.AperFunction,Plated,PTH,ComponentDrill
T3C0.0374
; #@! TA.AperFunction,Plated,PTH,ComponentDrill
T4C0.0394
; #@! TA.AperFunction,Plated,PTH,ComponentDrill
T5C0.0433
; #@! TA.AperFunction,Plated,PTH,ComponentDrill
T6C0.0472
; #@! TA.AperFunction,Plated,PTH,ViaDrill
T7C0.0500
; #@! TA.AperFunction,Plated,PTH,ComponentDrill
T8C0.0866
; #@! TA.AperFunction,Plated,PTH,ComponentDrill
T9C0.1200
; #@! TA.AperFunction,Plated,PTH,ComponentDrill
T10C0.1260
%
G90
G05
T1
X3.94Y-3.38
X4.22Y-3.52
X4.24Y-4.16
X4.545Y-4.545
X4.88Y-4.34
X4.98Y-3.7
X5.15Y-3.96
X5.21Y-4.41
X5.23Y-3.86
X5.31Y-4.62
X5.33Y-3.75
X5.34Y-3.51
X5.37Y-2.85
X5.47Y-4.51
X5.48Y-3.6
X5.98Y-4.08
X6.0Y-3.16
X6.05Y-3.6
X6.0629Y-3.3929
X6.16Y-3.36
X6.16Y-3.61
X6.16Y-4.0
X6.2Y-2.86
X6.32Y-3.39
T2
X2.86Y-3.52
X2.86Y-3.62
X2.86Y-3.72
X2.86Y-3.82
X2.86Y-3.92
X2.86Y-4.02
X4.7Y-2.76
X4.7Y-2.86
X4.7Y-2.96
X4.7Y-3.06
X4.7Y-3.16
X4.7Y-3.26
X4.7Y-3.36
X4.7Y-3.46
X4.7Y-3.56
X4.7Y-3.66
X4.7Y-3.76
X4.7Y-3.86
X4.7Y-3.96
X4.7Y-4.06
X4.7Y-4.16
X5.7Y-2.76
X5.7Y-2.86
X5.7Y-2.96
X5.7Y-3.06
X5.7Y-3.16
X5.7Y-3.26
X5.7Y-3.36
X5.7Y-3.46
X5.7Y-3.56
X5.7Y-3.66
X5.7Y-3.76
X5.7Y-3.86
X5.7Y-3.96
X5.7Y-4.06
X5.7Y-4.16
X6.32Y-4.22
X6.32Y-4.32
X6.32Y-4.42
X6.32Y-4.52
X6.32Y-4.62
X6.32Y-4.72
T3
X6.4287Y-2.913
X6.4287Y-3.0114
X6.4287Y-3.1098
X6.4287Y-3.2083
X6.4287Y-3.5516
X6.4287Y-3.65
X6.4287Y-3.7484
X6.4287Y-3.8469
X6.4287Y-3.9453
T4
X3.3091Y-3.6283
X3.3091Y-4.1717
X3.65Y-3.629
X4.4509Y-3.6283
X4.4509Y-4.1717
T5
X1.86Y-3.65
X1.86Y-3.75
X1.86Y-3.85
X2.22Y-3.65
X2.22Y-3.75
X2.22Y-3.85
X3.85Y-4.54
X3.85Y-4.94
X4.05Y-2.9
X4.05Y-3.3
T6
X3.4Y-4.8
X3.6Y-4.8
X4.1522Y-4.7845
X4.3522Y-4.7845
T7
X1.6Y-3.76
X1.7Y-3.48
X2.1Y-3.94
X2.23Y-4.07
X2.39Y-4.23
X2.4Y-3.94
X2.4Y-4.06
X2.42Y-3.34
X2.54Y-4.38
X2.55Y-2.8
X2.55Y-3.02
X2.55Y-4.66
T8
X3.4Y-2.5
X3.65Y-2.5
X4.05Y-2.5
X4.3Y-2.5
T9
X2.04Y-3.24
X2.04Y-4.24
T10
X2.0Y-2.5
X2.0Y-5.0
X2.55Y-2.6
X2.55Y-4.9
M30
