%TF.GenerationSoftware,KiCad,Pcbnew,8.0.8+1*%
%TF.CreationDate,2025-02-28T13:08:22+11:00*%
%TF.ProjectId,mcharger_if,6d636861-7267-4657-925f-69662e6b6963,rev?*%
%TF.SameCoordinates,Original*%
%TF.FileFunction,Copper,L1,Top*%
%TF.FilePolarity,Positive*%
%FSLAX46Y46*%
G04 Gerber Fmt 4.6, Leading zero omitted, Abs format (unit mm)*
G04 Created by KiCad (PCBNEW 8.0.8+1) date 2025-02-28 13:08:22*
%MOMM*%
%LPD*%
G01*
G04 APERTURE LIST*
G04 Aperture macros list*
%AMRoundRect*
0 Rectangle with rounded corners*
0 $1 Rounding radius*
0 $2 $3 $4 $5 $6 $7 $8 $9 X,Y pos of 4 corners*
0 Add a 4 corners polygon primitive as box body*
4,1,4,$2,$3,$4,$5,$6,$7,$8,$9,$2,$3,0*
0 Add four circle primitives for the rounded corners*
1,1,$1+$1,$2,$3*
1,1,$1+$1,$4,$5*
1,1,$1+$1,$6,$7*
1,1,$1+$1,$8,$9*
0 Add four rect primitives between the rounded corners*
20,1,$1+$1,$2,$3,$4,$5,0*
20,1,$1+$1,$4,$5,$6,$7,0*
20,1,$1+$1,$6,$7,$8,$9,0*
20,1,$1+$1,$8,$9,$2,$3,0*%
G04 Aperture macros list end*
%TA.AperFunction,ComponentPad*%
%ADD10C,3.600000*%
%TD*%
%TA.AperFunction,ConnectorPad*%
%ADD11C,5.600000*%
%TD*%
%TA.AperFunction,SMDPad,CuDef*%
%ADD12RoundRect,0.250000X0.350000X0.450000X-0.350000X0.450000X-0.350000X-0.450000X0.350000X-0.450000X0*%
%TD*%
%TA.AperFunction,ComponentPad*%
%ADD13R,1.600000X1.600000*%
%TD*%
%TA.AperFunction,ComponentPad*%
%ADD14O,1.600000X1.600000*%
%TD*%
%TA.AperFunction,ComponentPad*%
%ADD15C,2.600000*%
%TD*%
%TA.AperFunction,ConnectorPad*%
%ADD16C,3.800000*%
%TD*%
%TA.AperFunction,SMDPad,CuDef*%
%ADD17RoundRect,0.150000X0.150000X0.200000X-0.150000X0.200000X-0.150000X-0.200000X0.150000X-0.200000X0*%
%TD*%
%TA.AperFunction,SMDPad,CuDef*%
%ADD18RoundRect,0.250000X-0.450000X0.350000X-0.450000X-0.350000X0.450000X-0.350000X0.450000X0.350000X0*%
%TD*%
%TA.AperFunction,SMDPad,CuDef*%
%ADD19RoundRect,0.237500X0.237500X-0.300000X0.237500X0.300000X-0.237500X0.300000X-0.237500X-0.300000X0*%
%TD*%
%TA.AperFunction,SMDPad,CuDef*%
%ADD20RoundRect,0.250000X-0.350000X-0.450000X0.350000X-0.450000X0.350000X0.450000X-0.350000X0.450000X0*%
%TD*%
%TA.AperFunction,SMDPad,CuDef*%
%ADD21RoundRect,0.237500X-0.237500X0.300000X-0.237500X-0.300000X0.237500X-0.300000X0.237500X0.300000X0*%
%TD*%
%TA.AperFunction,SMDPad,CuDef*%
%ADD22RoundRect,0.250000X0.450000X-0.350000X0.450000X0.350000X-0.450000X0.350000X-0.450000X-0.350000X0*%
%TD*%
%TA.AperFunction,SMDPad,CuDef*%
%ADD23RoundRect,0.237500X-0.300000X-0.237500X0.300000X-0.237500X0.300000X0.237500X-0.300000X0.237500X0*%
%TD*%
%TA.AperFunction,ComponentPad*%
%ADD24R,2.000000X1.905000*%
%TD*%
%TA.AperFunction,ComponentPad*%
%ADD25O,2.000000X1.905000*%
%TD*%
%TA.AperFunction,ComponentPad*%
%ADD26R,2.200000X2.200000*%
%TD*%
%TA.AperFunction,ComponentPad*%
%ADD27O,2.200000X2.200000*%
%TD*%
%TA.AperFunction,ComponentPad*%
%ADD28RoundRect,0.250000X-0.893000X0.893000X-0.893000X-0.893000X0.893000X-0.893000X0.893000X0.893000X0*%
%TD*%
%TA.AperFunction,ComponentPad*%
%ADD29C,2.286000*%
%TD*%
%TA.AperFunction,ComponentPad*%
%ADD30RoundRect,0.250000X-0.650000X-1.550000X0.650000X-1.550000X0.650000X1.550000X-0.650000X1.550000X0*%
%TD*%
%TA.AperFunction,ComponentPad*%
%ADD31O,1.800000X3.600000*%
%TD*%
%TA.AperFunction,ComponentPad*%
%ADD32RoundRect,0.250000X-0.725000X0.600000X-0.725000X-0.600000X0.725000X-0.600000X0.725000X0.600000X0*%
%TD*%
%TA.AperFunction,ComponentPad*%
%ADD33O,1.950000X1.700000*%
%TD*%
%TA.AperFunction,ComponentPad*%
%ADD34R,2.000000X1.200000*%
%TD*%
%TA.AperFunction,ComponentPad*%
%ADD35O,2.000000X1.200000*%
%TD*%
%TA.AperFunction,SMDPad,CuDef*%
%ADD36RoundRect,0.150000X-0.587500X-0.150000X0.587500X-0.150000X0.587500X0.150000X-0.587500X0.150000X0*%
%TD*%
%TA.AperFunction,SMDPad,CuDef*%
%ADD37RoundRect,0.250000X-0.325000X-0.450000X0.325000X-0.450000X0.325000X0.450000X-0.325000X0.450000X0*%
%TD*%
%TA.AperFunction,ComponentPad*%
%ADD38C,6.350000*%
%TD*%
%TA.AperFunction,SMDPad,CuDef*%
%ADD39RoundRect,0.150000X0.587500X0.150000X-0.587500X0.150000X-0.587500X-0.150000X0.587500X-0.150000X0*%
%TD*%
%TA.AperFunction,ViaPad*%
%ADD40C,1.016000*%
%TD*%
%TA.AperFunction,ViaPad*%
%ADD41C,2.540000*%
%TD*%
%TA.AperFunction,Conductor*%
%ADD42C,0.254000*%
%TD*%
%TA.AperFunction,Conductor*%
%ADD43C,2.540000*%
%TD*%
%TA.AperFunction,Conductor*%
%ADD44C,0.508000*%
%TD*%
%TA.AperFunction,Conductor*%
%ADD45C,1.270000*%
%TD*%
%TA.AperFunction,Conductor*%
%ADD46C,2.286000*%
%TD*%
G04 APERTURE END LIST*
D10*
%TO.P,VOUT+48V1,1,1*%
%TO.N,/VOUT48*%
X64770000Y-124460000D03*
D11*
X64770000Y-124460000D03*
%TD*%
D12*
%TO.P,R2,1*%
%TO.N,Net-(Q3-D)*%
X82280000Y-78740000D03*
%TO.P,R2,2*%
%TO.N,/SW_GATE*%
X80280000Y-78740000D03*
%TD*%
D13*
%TO.P,U5,1,VCC*%
%TO.N,+3.3V*%
X72644000Y-89408000D03*
D14*
%TO.P,U5,2,GND*%
%TO.N,GND*%
X72644000Y-91948000D03*
%TO.P,U5,3,SCL*%
%TO.N,/SCL*%
X72644000Y-94488000D03*
%TO.P,U5,4,SDA*%
%TO.N,/SDA*%
X72644000Y-97028000D03*
%TO.P,U5,5,CSB*%
%TO.N,unconnected-(U5-CSB-Pad5)*%
X72644000Y-99568000D03*
%TO.P,U5,6,SDO*%
%TO.N,unconnected-(U5-SDO-Pad6)*%
X72644000Y-102108000D03*
%TD*%
D15*
%TO.P,SMPS_VOUT_V12VP1,1,1*%
%TO.N,/SMPS_12*%
X102870000Y-63500000D03*
D16*
X102870000Y-63500000D03*
%TD*%
D17*
%TO.P,D4,1,K*%
%TO.N,+12V*%
X101092000Y-113284000D03*
%TO.P,D4,2,A*%
%TO.N,Net-(D4-A)*%
X102492000Y-113284000D03*
%TD*%
D18*
%TO.P,R3,1*%
%TO.N,GND*%
X91440000Y-77740000D03*
%TO.P,R3,2*%
%TO.N,/48V_EN*%
X91440000Y-79740000D03*
%TD*%
D19*
%TO.P,C1,1*%
%TO.N,/enc_an*%
X149860000Y-85190500D03*
%TO.P,C1,2*%
%TO.N,GND*%
X149860000Y-83465500D03*
%TD*%
D20*
%TO.P,R8,1*%
%TO.N,/enc_an*%
X149860000Y-88392000D03*
%TO.P,R8,2*%
%TO.N,/enc_an_unb*%
X151860000Y-88392000D03*
%TD*%
D21*
%TO.P,C3,1*%
%TO.N,/push_n*%
X149860000Y-101907000D03*
%TO.P,C3,2*%
%TO.N,GND*%
X149860000Y-103632000D03*
%TD*%
D18*
%TO.P,R6,1*%
%TO.N,+3.3V*%
X155956000Y-92964000D03*
%TO.P,R6,2*%
%TO.N,/enc_bn_unb*%
X155956000Y-94964000D03*
%TD*%
D22*
%TO.P,R7,1*%
%TO.N,+3.3V*%
X155956000Y-90408000D03*
%TO.P,R7,2*%
%TO.N,/enc_an_unb*%
X155956000Y-88408000D03*
%TD*%
D23*
%TO.P,C2,1*%
%TO.N,/enc_bn*%
X150167000Y-91440000D03*
%TO.P,C2,2*%
%TO.N,GND*%
X151892000Y-91440000D03*
%TD*%
D22*
%TO.P,R10,1*%
%TO.N,+3.3V*%
X155956000Y-99568000D03*
%TO.P,R10,2*%
%TO.N,/push_low_n*%
X155956000Y-97568000D03*
%TD*%
D24*
%TO.P,Q1,1,G*%
%TO.N,/SW_GATE*%
X56388000Y-97790000D03*
D25*
%TO.P,Q1,2,D*%
%TO.N,/VOUT48*%
X56388000Y-95250000D03*
%TO.P,Q1,3,S*%
%TO.N,/VIN48*%
X56388000Y-92710000D03*
%TD*%
D26*
%TO.P,D2,1,K*%
%TO.N,+12V*%
X102870000Y-83820000D03*
D27*
%TO.P,D2,2,A*%
%TO.N,/SMPS_12*%
X102870000Y-73660000D03*
%TD*%
D10*
%TO.P,VIN-48V1,1,1*%
%TO.N,GND*%
X50800000Y-63500000D03*
D11*
X50800000Y-63500000D03*
%TD*%
D28*
%TO.P,U1,1,Vin_p*%
%TO.N,+12V*%
X84052000Y-92160000D03*
D29*
%TO.P,U1,2,Vin_gnd*%
%TO.N,GND*%
X84052000Y-105960000D03*
%TO.P,U1,3,VO_GND*%
X113052000Y-105960000D03*
%TO.P,U1,4,V5V_p*%
%TO.N,+5V*%
X113052000Y-92160000D03*
%TO.P,U1,5,EN*%
%TO.N,unconnected-(U1-EN-Pad5)*%
X92710000Y-92176600D03*
%TD*%
D24*
%TO.P,Q2,1,G*%
%TO.N,/SW_GATE*%
X47244000Y-92710000D03*
D25*
%TO.P,Q2,2,D*%
%TO.N,/VOUT48*%
X47244000Y-95250000D03*
%TO.P,Q2,3,S*%
%TO.N,/VIN48*%
X47244000Y-97790000D03*
%TD*%
D20*
%TO.P,R11,1*%
%TO.N,/push_n*%
X149860000Y-98552000D03*
%TO.P,R11,2*%
%TO.N,/push_low_n*%
X151860000Y-98552000D03*
%TD*%
D30*
%TO.P,J1,1,Pin_1*%
%TO.N,GND*%
X86360000Y-121920000D03*
D31*
%TO.P,J1,2,Pin_2*%
%TO.N,/12VIN*%
X91440000Y-121920000D03*
%TD*%
D18*
%TO.P,R4,1*%
%TO.N,+3.3V*%
X155956000Y-76708000D03*
%TO.P,R4,2*%
%TO.N,/SDA*%
X155956000Y-78708000D03*
%TD*%
D15*
%TO.P,SMPS_VINN1,1,1*%
%TO.N,GND*%
X92710000Y-63500000D03*
D16*
X92710000Y-63500000D03*
%TD*%
D13*
%TO.P,U3,1,3V3*%
%TO.N,+3.3V*%
X160528000Y-107188000D03*
D14*
%TO.P,U3,2,CS*%
%TO.N,/SPI_CS*%
X160528000Y-109728000D03*
%TO.P,U3,3,MOSI*%
%TO.N,/MOSI*%
X160528000Y-112268000D03*
%TO.P,U3,4,CLK*%
%TO.N,/SCLK*%
X160528000Y-114808000D03*
%TO.P,U3,5,MISO*%
%TO.N,/MISO*%
X160528000Y-117348000D03*
%TO.P,U3,6,GND*%
%TO.N,GND*%
X160528000Y-119888000D03*
%TD*%
D20*
%TO.P,R9,1*%
%TO.N,/enc_bn*%
X149860000Y-93980000D03*
%TO.P,R9,2*%
%TO.N,/enc_bn_unb*%
X151860000Y-93980000D03*
%TD*%
D15*
%TO.P,SMPS_VOUT_12VN1,1,1*%
%TO.N,GND*%
X109220000Y-63500000D03*
D16*
X109220000Y-63500000D03*
%TD*%
D22*
%TO.P,R5,1*%
%TO.N,+3.3V*%
X155956000Y-83312000D03*
%TO.P,R5,2*%
%TO.N,/SCL*%
X155956000Y-81312000D03*
%TD*%
D32*
%TO.P,J4,1,Pin_1*%
%TO.N,/enc_an_unb*%
X163290000Y-90210000D03*
D33*
%TO.P,J4,2,Pin_2*%
%TO.N,GND*%
X163290000Y-92710000D03*
%TO.P,J4,3,Pin_3*%
%TO.N,/enc_bn_unb*%
X163290000Y-95210000D03*
%TO.P,J4,4,Pin_4*%
%TO.N,/push_low_n*%
X163290000Y-97710000D03*
%TO.P,J4,5,Pin_5*%
%TO.N,GND*%
X163290000Y-100210000D03*
%TD*%
D34*
%TO.P,U2,1,EN*%
%TO.N,unconnected-(U2-EN-Pad1)*%
X119380000Y-70104000D03*
D35*
%TO.P,U2,2,VP*%
%TO.N,unconnected-(U2-VP-Pad2)*%
X119380000Y-72644000D03*
%TO.P,U2,3,VN*%
%TO.N,unconnected-(U2-VN-Pad3)*%
X119380000Y-75184000D03*
%TO.P,U2,4,D34*%
%TO.N,/enc_an*%
X119380000Y-77724000D03*
%TO.P,U2,5,D35*%
%TO.N,/enc_bn*%
X119380000Y-80264000D03*
%TO.P,U2,6,D32*%
%TO.N,unconnected-(U2-D32-Pad6)*%
X119380000Y-82804000D03*
%TO.P,U2,7,D33*%
%TO.N,/push_n*%
X119380000Y-85344000D03*
%TO.P,U2,8,D25*%
%TO.N,/48V_EN*%
X119380000Y-87884000D03*
%TO.P,U2,9,D26*%
%TO.N,unconnected-(U2-D26-Pad9)*%
X119380000Y-90424000D03*
%TO.P,U2,10,D27*%
%TO.N,/FAN_EN_L*%
X119380000Y-92964000D03*
%TO.P,U2,11,D14*%
%TO.N,/SCLK*%
X119380000Y-95504000D03*
%TO.P,U2,12,D12*%
%TO.N,/MISO*%
X119380000Y-98044000D03*
%TO.P,U2,13,D13*%
%TO.N,/MOSI*%
X119380000Y-100584000D03*
%TO.P,U2,14,GND*%
%TO.N,GND*%
X119380000Y-103124000D03*
%TO.P,U2,15,VIN*%
%TO.N,+5V*%
X119380000Y-105664000D03*
%TO.P,U2,16,3V3*%
%TO.N,+3.3V*%
X144780000Y-105664000D03*
%TO.P,U2,17,GND*%
%TO.N,GND*%
X144780000Y-103124000D03*
%TO.P,U2,18,D15*%
%TO.N,/SPI_CS*%
X144780000Y-100584000D03*
%TO.P,U2,19,D2*%
%TO.N,unconnected-(U2-D2-Pad19)*%
X144780000Y-98044000D03*
%TO.P,U2,20,D4*%
%TO.N,unconnected-(U2-D4-Pad20)*%
X144780000Y-95504000D03*
%TO.P,U2,21,D16*%
%TO.N,unconnected-(U2-D16-Pad21)*%
X144780000Y-92964000D03*
%TO.P,U2,22,D17*%
%TO.N,unconnected-(U2-D17-Pad22)*%
X144780000Y-90424000D03*
%TO.P,U2,23,D5*%
%TO.N,unconnected-(U2-D5-Pad23)*%
X144780000Y-87884000D03*
%TO.P,U2,24,D18*%
%TO.N,unconnected-(U2-D18-Pad24)*%
X144780000Y-85344000D03*
%TO.P,U2,25,D19*%
%TO.N,unconnected-(U2-D19-Pad25)*%
X144780000Y-82804000D03*
%TO.P,U2,26,D21*%
%TO.N,/SDA*%
X144780000Y-80264000D03*
%TO.P,U2,27,RXD0*%
%TO.N,unconnected-(U2-RXD0-Pad27)*%
X144780000Y-77724000D03*
%TO.P,U2,28,TXD0*%
%TO.N,unconnected-(U2-TXD0-Pad28)*%
X144780000Y-75184000D03*
%TO.P,U2,29,D22*%
%TO.N,/SCL*%
X144780000Y-72644000D03*
%TO.P,U2,30,D23*%
%TO.N,unconnected-(U2-D23-Pad30)*%
X144780000Y-70104000D03*
%TD*%
D36*
%TO.P,Q4,1,G*%
%TO.N,/FAN_EN_L*%
X107345000Y-112334000D03*
%TO.P,Q4,2,S*%
%TO.N,GND*%
X107345000Y-114234000D03*
%TO.P,Q4,3,D*%
%TO.N,Net-(D4-A)*%
X109220000Y-113284000D03*
%TD*%
D10*
%TO.P,VOUT-48V3,1,1*%
%TO.N,GND*%
X50800000Y-127000000D03*
D11*
X50800000Y-127000000D03*
%TD*%
D26*
%TO.P,D3,1,K*%
%TO.N,+12V*%
X97790000Y-115316000D03*
D27*
%TO.P,D3,2,A*%
%TO.N,/12VIN*%
X97790000Y-125476000D03*
%TD*%
D20*
%TO.P,R1,1*%
%TO.N,/VIN48*%
X74692000Y-78740000D03*
%TO.P,R1,2*%
%TO.N,/SW_GATE*%
X76692000Y-78740000D03*
%TD*%
D10*
%TO.P,VIN+48V1,1,1*%
%TO.N,/VIN48*%
X64770000Y-66040000D03*
D11*
X64770000Y-66040000D03*
%TD*%
D32*
%TO.P,J3,1,Pin_1*%
%TO.N,GND*%
X163290000Y-73990000D03*
D33*
%TO.P,J3,2,Pin_2*%
%TO.N,+3.3V*%
X163290000Y-76490000D03*
%TO.P,J3,3,Pin_3*%
%TO.N,/SDA*%
X163290000Y-78990000D03*
%TO.P,J3,4,Pin_4*%
%TO.N,/SCL*%
X163290000Y-81490000D03*
%TD*%
D37*
%TO.P,D1,1,K*%
%TO.N,/VIN48*%
X74676000Y-82804000D03*
%TO.P,D1,2,A*%
%TO.N,/SW_GATE*%
X76726000Y-82804000D03*
%TD*%
D38*
%TO.P,U4,1,MT1*%
%TO.N,unconnected-(U4-MT1-Pad1)*%
X51816000Y-82296000D03*
%TO.P,U4,2,MT2*%
%TO.N,unconnected-(U4-MT2-Pad2)*%
X51816000Y-107696000D03*
%TD*%
D39*
%TO.P,Q3,1,G*%
%TO.N,/48V_EN*%
X87884000Y-79624000D03*
%TO.P,Q3,2,S*%
%TO.N,GND*%
X87884000Y-77724000D03*
%TO.P,Q3,3,D*%
%TO.N,Net-(Q3-D)*%
X86009000Y-78674000D03*
%TD*%
D30*
%TO.P,J2,1,Pin_1*%
%TO.N,Net-(D4-A)*%
X105465000Y-121527500D03*
D31*
%TO.P,J2,2,Pin_2*%
%TO.N,+12V*%
X110545000Y-121527500D03*
%TD*%
D15*
%TO.P,SMPS_VINP1,1,1*%
%TO.N,/VIN48*%
X86360000Y-63500000D03*
D16*
X86360000Y-63500000D03*
%TD*%
D40*
%TO.N,GND*%
X160528000Y-86106000D03*
X115443000Y-115443000D03*
X153670000Y-91440000D03*
X153997000Y-86179000D03*
X151892000Y-103632000D03*
X100076000Y-85852000D03*
%TO.N,/SCLK*%
X135382000Y-95250000D03*
X138938000Y-114554000D03*
%TO.N,/SDA*%
X139192000Y-91440000D03*
%TO.N,/SCL*%
X136398000Y-72390000D03*
X135636000Y-89154000D03*
X152400000Y-80264000D03*
%TO.N,/push_n*%
X126492000Y-93980000D03*
%TO.N,/MOSI*%
X130810000Y-100584000D03*
X132334000Y-112014000D03*
%TO.N,+3.3V*%
X156464000Y-85344000D03*
X156464000Y-91694000D03*
X156464000Y-101600000D03*
X107188000Y-89408000D03*
X107696000Y-105664000D03*
X157480000Y-72644000D03*
%TO.N,/MISO*%
X134874000Y-117348000D03*
X132842000Y-98044000D03*
D41*
%TO.N,/VIN48*%
X40640000Y-95504000D03*
X43180000Y-88392000D03*
X61468000Y-84836000D03*
X64770000Y-76708000D03*
X64770000Y-71120000D03*
%TO.N,/VOUT48*%
X56642000Y-103378000D03*
X60960000Y-100076000D03*
X64516000Y-111252000D03*
X53340000Y-100076000D03*
X60960000Y-103124000D03*
X60706000Y-107442000D03*
X64770000Y-118364000D03*
D40*
%TO.N,/FAN_EN_L*%
X123952000Y-110236000D03*
%TD*%
D42*
%TO.N,GND*%
X87884000Y-77724000D02*
X88392000Y-77724000D01*
X160455000Y-86179000D02*
X160528000Y-86106000D01*
X97536000Y-77724000D02*
X98044000Y-77724000D01*
D43*
X36576000Y-112776000D02*
X50800000Y-127000000D01*
D42*
X97520000Y-77740000D02*
X97536000Y-77724000D01*
X151892000Y-103632000D02*
X149860000Y-103632000D01*
X153162000Y-85344000D02*
X153997000Y-86179000D01*
D44*
X107345000Y-114234000D02*
X107345000Y-115159000D01*
D42*
X91440000Y-77740000D02*
X97520000Y-77740000D01*
D43*
X50800000Y-63500000D02*
X36576000Y-77724000D01*
D42*
X100076000Y-79756000D02*
X100076000Y-85852000D01*
X88392000Y-77724000D02*
X88408000Y-77740000D01*
D44*
X107345000Y-115159000D02*
X108518000Y-116332000D01*
D42*
X153162000Y-84582000D02*
X153162000Y-85344000D01*
X152045500Y-83465500D02*
X153162000Y-84582000D01*
X153997000Y-86179000D02*
X160455000Y-86179000D01*
D44*
X108518000Y-116332000D02*
X114554000Y-116332000D01*
D43*
X36576000Y-77724000D02*
X36576000Y-112776000D01*
D44*
X114554000Y-116332000D02*
X115443000Y-115443000D01*
D42*
X91440000Y-64770000D02*
X92710000Y-63500000D01*
X151892000Y-91440000D02*
X153670000Y-91440000D01*
X88408000Y-77740000D02*
X91440000Y-77740000D01*
X149860000Y-83465500D02*
X152045500Y-83465500D01*
X98044000Y-77724000D02*
X100076000Y-79756000D01*
%TO.N,/SCLK*%
X139192000Y-114808000D02*
X160528000Y-114808000D01*
X138938000Y-114554000D02*
X139192000Y-114808000D01*
X119380000Y-95504000D02*
X135128000Y-95504000D01*
X135128000Y-95504000D02*
X135382000Y-95250000D01*
%TO.N,/48V_EN*%
X91932000Y-79740000D02*
X91440000Y-79740000D01*
X100076000Y-87884000D02*
X91932000Y-79740000D01*
X88000000Y-79740000D02*
X87884000Y-79624000D01*
X119380000Y-87884000D02*
X100076000Y-87884000D01*
X91440000Y-79740000D02*
X88000000Y-79740000D01*
%TO.N,/SDA*%
X115316000Y-90170000D02*
X116840000Y-91694000D01*
X111252000Y-90170000D02*
X115316000Y-90170000D01*
X149860000Y-80264000D02*
X151384000Y-78740000D01*
X151384000Y-78740000D02*
X151892000Y-78740000D01*
X163290000Y-78990000D02*
X156238000Y-78990000D01*
X72644000Y-97028000D02*
X105156000Y-97028000D01*
X118364000Y-91694000D02*
X138684000Y-91694000D01*
X151892000Y-78740000D02*
X151924000Y-78708000D01*
X156238000Y-78990000D02*
X155956000Y-78708000D01*
X138938000Y-91440000D02*
X139192000Y-91440000D01*
X116840000Y-91694000D02*
X118364000Y-91694000D01*
X138684000Y-91694000D02*
X138938000Y-91440000D01*
X105918000Y-96266000D02*
X105918000Y-95504000D01*
X144780000Y-80264000D02*
X149860000Y-80264000D01*
X105156000Y-97028000D02*
X105918000Y-96266000D01*
X151924000Y-78708000D02*
X155956000Y-78708000D01*
X105918000Y-95504000D02*
X111252000Y-90170000D01*
%TO.N,/enc_bn*%
X146558000Y-89154000D02*
X141986000Y-89154000D01*
X122428000Y-80264000D02*
X119380000Y-80264000D01*
X140208000Y-87376000D02*
X129540000Y-87376000D01*
X129540000Y-87376000D02*
X122428000Y-80264000D01*
X148844000Y-91440000D02*
X146558000Y-89154000D01*
X141986000Y-89154000D02*
X140208000Y-87376000D01*
X150167000Y-91440000D02*
X148844000Y-91440000D01*
X149860000Y-91747000D02*
X150167000Y-91440000D01*
X149860000Y-93980000D02*
X149860000Y-91747000D01*
D45*
%TO.N,+5V*%
X119380000Y-105664000D02*
X117602000Y-105664000D01*
X115316000Y-103378000D02*
X115316000Y-94424000D01*
X117602000Y-105664000D02*
X115316000Y-103378000D01*
X115316000Y-94424000D02*
X113052000Y-92160000D01*
D42*
%TO.N,/SCL*%
X163290000Y-81490000D02*
X156134000Y-81490000D01*
X72644000Y-94488000D02*
X104648000Y-94488000D01*
X153448000Y-81312000D02*
X152400000Y-80264000D01*
X155956000Y-81312000D02*
X153448000Y-81312000D01*
X104648000Y-94488000D02*
X109982000Y-89154000D01*
X136398000Y-72390000D02*
X136652000Y-72644000D01*
X136652000Y-72644000D02*
X144780000Y-72644000D01*
X109982000Y-89154000D02*
X135636000Y-89154000D01*
X156134000Y-81490000D02*
X155956000Y-81312000D01*
%TO.N,/SPI_CS*%
X147574000Y-104902000D02*
X147574000Y-101346000D01*
X147574000Y-101346000D02*
X146812000Y-100584000D01*
X146812000Y-100584000D02*
X144780000Y-100584000D01*
X152400000Y-109728000D02*
X147574000Y-104902000D01*
X160528000Y-109728000D02*
X152400000Y-109728000D01*
%TO.N,/push_n*%
X147066000Y-96774000D02*
X141986000Y-96774000D01*
X148844000Y-98552000D02*
X147066000Y-96774000D01*
X138430000Y-93980000D02*
X126492000Y-93980000D01*
X141986000Y-96774000D02*
X141732000Y-96520000D01*
X149860000Y-101907000D02*
X149860000Y-98552000D01*
X140970000Y-96520000D02*
X138430000Y-93980000D01*
X141732000Y-96520000D02*
X140970000Y-96520000D01*
X149860000Y-98552000D02*
X148844000Y-98552000D01*
%TO.N,/MOSI*%
X130302000Y-100584000D02*
X130810000Y-100584000D01*
X132334000Y-112014000D02*
X132588000Y-112268000D01*
X119380000Y-100584000D02*
X130302000Y-100584000D01*
X132588000Y-112268000D02*
X160528000Y-112268000D01*
%TO.N,/enc_an*%
X149860000Y-88392000D02*
X149860000Y-85190500D01*
X148436500Y-85190500D02*
X147320000Y-84074000D01*
X149860000Y-85190500D02*
X148436500Y-85190500D01*
X125984000Y-77724000D02*
X119380000Y-77724000D01*
X147320000Y-84074000D02*
X132334000Y-84074000D01*
X132334000Y-84074000D02*
X125984000Y-77724000D01*
%TO.N,+3.3V*%
X156174000Y-76490000D02*
X155956000Y-76708000D01*
X155956000Y-91186000D02*
X156464000Y-91694000D01*
D44*
X117348000Y-107442000D02*
X122936000Y-107442000D01*
D42*
X155956000Y-90408000D02*
X155956000Y-91186000D01*
D44*
X107696000Y-105664000D02*
X109728000Y-103632000D01*
X72644000Y-89408000D02*
X104140000Y-89408000D01*
D42*
X155956000Y-101092000D02*
X156464000Y-101600000D01*
X155956000Y-92964000D02*
X155956000Y-92202000D01*
X155956000Y-99568000D02*
X155956000Y-101092000D01*
D45*
X163290000Y-76490000D02*
X161326000Y-76490000D01*
D44*
X104140000Y-89408000D02*
X107188000Y-89408000D01*
X113538000Y-103632000D02*
X117348000Y-107442000D01*
D45*
X161326000Y-76490000D02*
X157480000Y-72644000D01*
D42*
X163290000Y-76490000D02*
X156174000Y-76490000D01*
X155956000Y-92202000D02*
X156464000Y-91694000D01*
D44*
X124714000Y-105664000D02*
X144780000Y-105664000D01*
X122936000Y-107442000D02*
X124714000Y-105664000D01*
D42*
X155956000Y-83312000D02*
X155956000Y-84836000D01*
D44*
X109728000Y-103632000D02*
X113538000Y-103632000D01*
D42*
X155956000Y-84836000D02*
X156464000Y-85344000D01*
%TO.N,/MISO*%
X134874000Y-117348000D02*
X160528000Y-117348000D01*
X119380000Y-98044000D02*
X132842000Y-98044000D01*
%TO.N,/enc_an_unb*%
X158496000Y-88392000D02*
X151860000Y-88392000D01*
X163290000Y-90210000D02*
X160314000Y-90210000D01*
X160314000Y-90210000D02*
X158496000Y-88392000D01*
%TO.N,/enc_bn_unb*%
X153924000Y-94996000D02*
X153956000Y-94964000D01*
X163290000Y-95210000D02*
X156202000Y-95210000D01*
X156202000Y-95210000D02*
X155956000Y-94964000D01*
X151860000Y-93980000D02*
X152908000Y-93980000D01*
X152908000Y-93980000D02*
X153924000Y-94996000D01*
X153956000Y-94964000D02*
X155956000Y-94964000D01*
%TO.N,/push_low_n*%
X156098000Y-97710000D02*
X155956000Y-97568000D01*
X151860000Y-98552000D02*
X153416000Y-98552000D01*
X154464000Y-97568000D02*
X155956000Y-97568000D01*
X153416000Y-98552000D02*
X154432000Y-97536000D01*
X163290000Y-97710000D02*
X156098000Y-97710000D01*
X154432000Y-97536000D02*
X154464000Y-97568000D01*
%TO.N,Net-(D4-A)*%
X105664000Y-113284000D02*
X102492000Y-113284000D01*
X109220000Y-113284000D02*
X105664000Y-113284000D01*
X105465000Y-121527500D02*
X105465000Y-113483000D01*
X105465000Y-113483000D02*
X105664000Y-113284000D01*
D44*
%TO.N,+12V*%
X108712000Y-123952000D02*
X102616000Y-123952000D01*
X102616000Y-123952000D02*
X97790000Y-119126000D01*
D42*
X101092000Y-113284000D02*
X99822000Y-113284000D01*
D44*
X110545000Y-121527500D02*
X110545000Y-122119000D01*
D42*
X99822000Y-113284000D02*
X97790000Y-115316000D01*
D44*
X97790000Y-119126000D02*
X97790000Y-115316000D01*
X110545000Y-122119000D02*
X108712000Y-123952000D01*
%TO.N,/SW_GATE*%
X64262000Y-97790000D02*
X56388000Y-97790000D01*
X76726000Y-78774000D02*
X76692000Y-78740000D01*
X51308000Y-93980000D02*
X51308000Y-96012000D01*
X76726000Y-82804000D02*
X76726000Y-80772000D01*
X76726000Y-80772000D02*
X76726000Y-78774000D01*
X69088000Y-85344000D02*
X66548000Y-87884000D01*
X51308000Y-96012000D02*
X53086000Y-97790000D01*
X53086000Y-97790000D02*
X56388000Y-97790000D01*
X66548000Y-95504000D02*
X64262000Y-97790000D01*
X76726000Y-80772000D02*
X78758000Y-78740000D01*
X75184000Y-85344000D02*
X69088000Y-85344000D01*
X76726000Y-83802000D02*
X75184000Y-85344000D01*
X76726000Y-82804000D02*
X76726000Y-83802000D01*
X47244000Y-92710000D02*
X50038000Y-92710000D01*
X78758000Y-78740000D02*
X80280000Y-78740000D01*
X66548000Y-87884000D02*
X66548000Y-95504000D01*
X50038000Y-92710000D02*
X51308000Y-93980000D01*
D42*
%TO.N,Net-(Q3-D)*%
X82280000Y-78740000D02*
X85943000Y-78740000D01*
X85943000Y-78740000D02*
X86009000Y-78674000D01*
D43*
%TO.N,/VIN48*%
X65024000Y-81280000D02*
X64770000Y-81026000D01*
X58420000Y-87884000D02*
X58166000Y-88138000D01*
D44*
X74676000Y-82804000D02*
X74676000Y-80772000D01*
X65024000Y-80772000D02*
X64770000Y-81026000D01*
D43*
X40640000Y-90424000D02*
X40640000Y-96012000D01*
X40640000Y-96012000D02*
X42672000Y-98044000D01*
D44*
X74676000Y-80772000D02*
X65024000Y-80772000D01*
D43*
X42926000Y-97790000D02*
X47244000Y-97790000D01*
D46*
X56388000Y-92710000D02*
X56388000Y-89916000D01*
D43*
X56388000Y-89916000D02*
X58420000Y-87884000D01*
D44*
X74676000Y-80772000D02*
X74676000Y-78756000D01*
D43*
X58420000Y-87884000D02*
X65024000Y-81280000D01*
X43180000Y-87884000D02*
X40640000Y-90424000D01*
X43434000Y-88138000D02*
X43180000Y-87884000D01*
X42672000Y-98044000D02*
X42926000Y-97790000D01*
X58166000Y-88138000D02*
X43434000Y-88138000D01*
D44*
X74676000Y-78756000D02*
X74692000Y-78740000D01*
D43*
X64770000Y-81026000D02*
X64770000Y-66040000D01*
D46*
%TO.N,/VOUT48*%
X60706000Y-107442000D02*
X53340000Y-100076000D01*
D43*
X64516000Y-124206000D02*
X64770000Y-124460000D01*
D46*
X64770000Y-111506000D02*
X60960000Y-107696000D01*
X60960000Y-107696000D02*
X60960000Y-100076000D01*
D43*
X64516000Y-111252000D02*
X64516000Y-124206000D01*
D45*
%TO.N,/SMPS_12*%
X102870000Y-73660000D02*
X102870000Y-63500000D01*
D42*
%TO.N,/FAN_EN_L*%
X123952000Y-110744000D02*
X123952000Y-110236000D01*
X107345000Y-111349000D02*
X107442000Y-111252000D01*
X107950000Y-110744000D02*
X123952000Y-110744000D01*
X107442000Y-111252000D02*
X107950000Y-110744000D01*
X107345000Y-112334000D02*
X107345000Y-111349000D01*
%TD*%
M02*
