%TF.GenerationSoftware,KiCad,Pcbnew,8.0.8+1*%
%TF.CreationDate,2025-02-28T13:08:23+11:00*%
%TF.ProjectId,mcharger_if,6d636861-7267-4657-925f-69662e6b6963,rev?*%
%TF.SameCoordinates,Original*%
%TF.FileFunction,Soldermask,Top*%
%TF.FilePolarity,Negative*%
%FSLAX46Y46*%
G04 Gerber Fmt 4.6, Leading zero omitted, Abs format (unit mm)*
G04 Created by KiCad (PCBNEW 8.0.8+1) date 2025-02-28 13:08:23*
%MOMM*%
%LPD*%
G01*
G04 APERTURE LIST*
G04 Aperture macros list*
%AMRoundRect*
0 Rectangle with rounded corners*
0 $1 Rounding radius*
0 $2 $3 $4 $5 $6 $7 $8 $9 X,Y pos of 4 corners*
0 Add a 4 corners polygon primitive as box body*
4,1,4,$2,$3,$4,$5,$6,$7,$8,$9,$2,$3,0*
0 Add four circle primitives for the rounded corners*
1,1,$1+$1,$2,$3*
1,1,$1+$1,$4,$5*
1,1,$1+$1,$6,$7*
1,1,$1+$1,$8,$9*
0 Add four rect primitives between the rounded corners*
20,1,$1+$1,$2,$3,$4,$5,0*
20,1,$1+$1,$4,$5,$6,$7,0*
20,1,$1+$1,$6,$7,$8,$9,0*
20,1,$1+$1,$8,$9,$2,$3,0*%
G04 Aperture macros list end*
%ADD10C,3.600000*%
%ADD11C,5.600000*%
%ADD12RoundRect,0.250000X0.350000X0.450000X-0.350000X0.450000X-0.350000X-0.450000X0.350000X-0.450000X0*%
%ADD13R,1.600000X1.600000*%
%ADD14O,1.600000X1.600000*%
%ADD15C,2.600000*%
%ADD16C,3.800000*%
%ADD17RoundRect,0.150000X0.150000X0.200000X-0.150000X0.200000X-0.150000X-0.200000X0.150000X-0.200000X0*%
%ADD18RoundRect,0.250000X-0.450000X0.350000X-0.450000X-0.350000X0.450000X-0.350000X0.450000X0.350000X0*%
%ADD19RoundRect,0.237500X0.237500X-0.300000X0.237500X0.300000X-0.237500X0.300000X-0.237500X-0.300000X0*%
%ADD20RoundRect,0.250000X-0.350000X-0.450000X0.350000X-0.450000X0.350000X0.450000X-0.350000X0.450000X0*%
%ADD21C,3.200000*%
%ADD22RoundRect,0.237500X-0.237500X0.300000X-0.237500X-0.300000X0.237500X-0.300000X0.237500X0.300000X0*%
%ADD23RoundRect,0.250000X0.450000X-0.350000X0.450000X0.350000X-0.450000X0.350000X-0.450000X-0.350000X0*%
%ADD24RoundRect,0.237500X-0.300000X-0.237500X0.300000X-0.237500X0.300000X0.237500X-0.300000X0.237500X0*%
%ADD25R,2.000000X1.905000*%
%ADD26O,2.000000X1.905000*%
%ADD27R,2.200000X2.200000*%
%ADD28O,2.200000X2.200000*%
%ADD29RoundRect,0.250000X-0.893000X0.893000X-0.893000X-0.893000X0.893000X-0.893000X0.893000X0.893000X0*%
%ADD30C,2.286000*%
%ADD31RoundRect,0.250000X-0.650000X-1.550000X0.650000X-1.550000X0.650000X1.550000X-0.650000X1.550000X0*%
%ADD32O,1.800000X3.600000*%
%ADD33RoundRect,0.250000X-0.725000X0.600000X-0.725000X-0.600000X0.725000X-0.600000X0.725000X0.600000X0*%
%ADD34O,1.950000X1.700000*%
%ADD35R,2.000000X1.200000*%
%ADD36O,2.000000X1.200000*%
%ADD37RoundRect,0.150000X-0.587500X-0.150000X0.587500X-0.150000X0.587500X0.150000X-0.587500X0.150000X0*%
%ADD38C,1.200000*%
%ADD39RoundRect,0.250000X-0.325000X-0.450000X0.325000X-0.450000X0.325000X0.450000X-0.325000X0.450000X0*%
%ADD40C,6.350000*%
%ADD41RoundRect,0.150000X0.587500X0.150000X-0.587500X0.150000X-0.587500X-0.150000X0.587500X-0.150000X0*%
G04 APERTURE END LIST*
D10*
%TO.C,VOUT+48V1*%
X64770000Y-124460000D03*
D11*
X64770000Y-124460000D03*
%TD*%
D12*
%TO.C,R2*%
X82280000Y-78740000D03*
X80280000Y-78740000D03*
%TD*%
D13*
%TO.C,U5*%
X72644000Y-89408000D03*
D14*
X72644000Y-91948000D03*
X72644000Y-94488000D03*
X72644000Y-97028000D03*
X72644000Y-99568000D03*
X72644000Y-102108000D03*
%TD*%
D15*
%TO.C,SMPS_VOUT_V12VP1*%
X102870000Y-63500000D03*
D16*
X102870000Y-63500000D03*
%TD*%
D17*
%TO.C,D4*%
X101092000Y-113284000D03*
X102492000Y-113284000D03*
%TD*%
D18*
%TO.C,R3*%
X91440000Y-77740000D03*
X91440000Y-79740000D03*
%TD*%
D19*
%TO.C,C1*%
X149860000Y-85190500D03*
X149860000Y-83465500D03*
%TD*%
D20*
%TO.C,R8*%
X149860000Y-88392000D03*
X151860000Y-88392000D03*
%TD*%
D21*
%TO.C,H3*%
X163830000Y-63500000D03*
%TD*%
D22*
%TO.C,C3*%
X149860000Y-101907000D03*
X149860000Y-103632000D03*
%TD*%
D18*
%TO.C,R6*%
X155956000Y-92964000D03*
X155956000Y-94964000D03*
%TD*%
D23*
%TO.C,R7*%
X155956000Y-90408000D03*
X155956000Y-88408000D03*
%TD*%
D21*
%TO.C,H4*%
X163830000Y-127000000D03*
%TD*%
D24*
%TO.C,C2*%
X150167000Y-91440000D03*
X151892000Y-91440000D03*
%TD*%
D23*
%TO.C,R10*%
X155956000Y-99568000D03*
X155956000Y-97568000D03*
%TD*%
D25*
%TO.C,Q1*%
X56388000Y-97790000D03*
D26*
X56388000Y-95250000D03*
X56388000Y-92710000D03*
%TD*%
D27*
%TO.C,D2*%
X102870000Y-83820000D03*
D28*
X102870000Y-73660000D03*
%TD*%
D10*
%TO.C,VIN-48V1*%
X50800000Y-63500000D03*
D11*
X50800000Y-63500000D03*
%TD*%
D29*
%TO.C,U1*%
X84052000Y-92160000D03*
D30*
X84052000Y-105960000D03*
X113052000Y-105960000D03*
X113052000Y-92160000D03*
X92710000Y-92176600D03*
%TD*%
D25*
%TO.C,Q2*%
X47244000Y-92710000D03*
D26*
X47244000Y-95250000D03*
X47244000Y-97790000D03*
%TD*%
D20*
%TO.C,R11*%
X149860000Y-98552000D03*
X151860000Y-98552000D03*
%TD*%
D31*
%TO.C,J1*%
X86360000Y-121920000D03*
D32*
X91440000Y-121920000D03*
%TD*%
D18*
%TO.C,R4*%
X155956000Y-76708000D03*
X155956000Y-78708000D03*
%TD*%
D15*
%TO.C,SMPS_VINN1*%
X92710000Y-63500000D03*
D16*
X92710000Y-63500000D03*
%TD*%
D13*
%TO.C,U3*%
X160528000Y-107188000D03*
D14*
X160528000Y-109728000D03*
X160528000Y-112268000D03*
X160528000Y-114808000D03*
X160528000Y-117348000D03*
X160528000Y-119888000D03*
%TD*%
D20*
%TO.C,R9*%
X149860000Y-93980000D03*
X151860000Y-93980000D03*
%TD*%
D21*
%TO.C,H1*%
X38100000Y-63500000D03*
%TD*%
D15*
%TO.C,SMPS_VOUT_12VN1*%
X109220000Y-63500000D03*
D16*
X109220000Y-63500000D03*
%TD*%
D23*
%TO.C,R5*%
X155956000Y-83312000D03*
X155956000Y-81312000D03*
%TD*%
D33*
%TO.C,J4*%
X163290000Y-90210000D03*
D34*
X163290000Y-92710000D03*
X163290000Y-95210000D03*
X163290000Y-97710000D03*
X163290000Y-100210000D03*
%TD*%
D35*
%TO.C,U2*%
X119380000Y-70104000D03*
D36*
X119380000Y-72644000D03*
X119380000Y-75184000D03*
X119380000Y-77724000D03*
X119380000Y-80264000D03*
X119380000Y-82804000D03*
X119380000Y-85344000D03*
X119380000Y-87884000D03*
X119380000Y-90424000D03*
X119380000Y-92964000D03*
X119380000Y-95504000D03*
X119380000Y-98044000D03*
X119380000Y-100584000D03*
X119380000Y-103124000D03*
X119380000Y-105664000D03*
X144780000Y-105664000D03*
X144780000Y-103124000D03*
X144780000Y-100584000D03*
X144780000Y-98044000D03*
X144780000Y-95504000D03*
X144780000Y-92964000D03*
X144780000Y-90424000D03*
X144780000Y-87884000D03*
X144780000Y-85344000D03*
X144780000Y-82804000D03*
X144780000Y-80264000D03*
X144780000Y-77724000D03*
X144780000Y-75184000D03*
X144780000Y-72644000D03*
X144780000Y-70104000D03*
%TD*%
D37*
%TO.C,Q4*%
X107345000Y-112334000D03*
X107345000Y-114234000D03*
X109220000Y-113284000D03*
%TD*%
D10*
%TO.C,VOUT-48V3*%
X50800000Y-127000000D03*
D11*
X50800000Y-127000000D03*
%TD*%
D27*
%TO.C,D3*%
X97790000Y-115316000D03*
D28*
X97790000Y-125476000D03*
%TD*%
D20*
%TO.C,R1*%
X74692000Y-78740000D03*
X76692000Y-78740000D03*
%TD*%
D10*
%TO.C,VIN+48V1*%
X64770000Y-66040000D03*
D11*
X64770000Y-66040000D03*
%TD*%
D38*
%TO.C,J3*%
X161290000Y-72390000D03*
D33*
X163290000Y-73990000D03*
D34*
X163290000Y-76490000D03*
X163290000Y-78990000D03*
X163290000Y-81490000D03*
%TD*%
D39*
%TO.C,D1*%
X74676000Y-82804000D03*
X76726000Y-82804000D03*
%TD*%
D40*
%TO.C,U4*%
X51816000Y-82296000D03*
X51816000Y-107696000D03*
%TD*%
D41*
%TO.C,Q3*%
X87884000Y-79624000D03*
X87884000Y-77724000D03*
X86009000Y-78674000D03*
%TD*%
D21*
%TO.C,H2*%
X39370000Y-127000000D03*
%TD*%
D31*
%TO.C,J2*%
X105465000Y-121527500D03*
D32*
X110545000Y-121527500D03*
%TD*%
D15*
%TO.C,SMPS_VINP1*%
X86360000Y-63500000D03*
D16*
X86360000Y-63500000D03*
%TD*%
M02*
