%TF.GenerationSoftware,KiCad,Pcbnew,8.0.8+1*%
%TF.CreationDate,2025-02-28T11:29:15+11:00*%
%TF.ProjectId,mcharger_if,6d636861-7267-4657-925f-69662e6b6963,rev?*%
%TF.SameCoordinates,Original*%
%TF.FileFunction,Drillmap*%
%TF.FilePolarity,Positive*%
%FSLAX45Y45*%
G04 Gerber Fmt 4.5, Leading zero omitted, Abs format (unit mm)*
G04 Created by KiCad (PCBNEW 8.0.8+1) date 2025-02-28 11:29:15*
%MOMM*%
%LPD*%
G01*
G04 APERTURE LIST*
%ADD10C,0.050000*%
%ADD11C,0.200000*%
%ADD12C,0.120000*%
%ADD13C,0.320000*%
G04 APERTURE END LIST*
D10*
X3378200Y-5892800D02*
X16738600Y-5892800D01*
X16738600Y-13030200D01*
X3378200Y-13030200D01*
X3378200Y-5892800D01*
D11*
D12*
X16069000Y-7179000D02*
X16189000Y-7299000D01*
X16189000Y-7179000D02*
X16069000Y-7299000D01*
D13*
X3970000Y-6350000D02*
G75*
G02*
X3650000Y-6350000I-160000J0D01*
G01*
X3650000Y-6350000D02*
G75*
G02*
X3970000Y-6350000I160000J0D01*
G01*
X4097000Y-12700000D02*
G75*
G02*
X3777000Y-12700000I-160000J0D01*
G01*
X3777000Y-12700000D02*
G75*
G02*
X4097000Y-12700000I160000J0D01*
G01*
X16543000Y-6350000D02*
G75*
G02*
X16223000Y-6350000I-160000J0D01*
G01*
X16223000Y-6350000D02*
G75*
G02*
X16543000Y-6350000I160000J0D01*
G01*
X16543000Y-12700000D02*
G75*
G02*
X16223000Y-12700000I-160000J0D01*
G01*
X16223000Y-12700000D02*
G75*
G02*
X16543000Y-12700000I160000J0D01*
G01*
D11*
X3636477Y-13344184D02*
X3636477Y-13144184D01*
X3636477Y-13144184D02*
X3684096Y-13144184D01*
X3684096Y-13144184D02*
X3712667Y-13153708D01*
X3712667Y-13153708D02*
X3731715Y-13172755D01*
X3731715Y-13172755D02*
X3741239Y-13191803D01*
X3741239Y-13191803D02*
X3750762Y-13229898D01*
X3750762Y-13229898D02*
X3750762Y-13258469D01*
X3750762Y-13258469D02*
X3741239Y-13296565D01*
X3741239Y-13296565D02*
X3731715Y-13315612D01*
X3731715Y-13315612D02*
X3712667Y-13334660D01*
X3712667Y-13334660D02*
X3684096Y-13344184D01*
X3684096Y-13344184D02*
X3636477Y-13344184D01*
X3836477Y-13344184D02*
X3836477Y-13210850D01*
X3836477Y-13248946D02*
X3846001Y-13229898D01*
X3846001Y-13229898D02*
X3855524Y-13220374D01*
X3855524Y-13220374D02*
X3874572Y-13210850D01*
X3874572Y-13210850D02*
X3893620Y-13210850D01*
X3960286Y-13344184D02*
X3960286Y-13210850D01*
X3960286Y-13144184D02*
X3950762Y-13153708D01*
X3950762Y-13153708D02*
X3960286Y-13163231D01*
X3960286Y-13163231D02*
X3969810Y-13153708D01*
X3969810Y-13153708D02*
X3960286Y-13144184D01*
X3960286Y-13144184D02*
X3960286Y-13163231D01*
X4084096Y-13344184D02*
X4065048Y-13334660D01*
X4065048Y-13334660D02*
X4055524Y-13315612D01*
X4055524Y-13315612D02*
X4055524Y-13144184D01*
X4188858Y-13344184D02*
X4169810Y-13334660D01*
X4169810Y-13334660D02*
X4160286Y-13315612D01*
X4160286Y-13315612D02*
X4160286Y-13144184D01*
X4417429Y-13344184D02*
X4417429Y-13144184D01*
X4417429Y-13144184D02*
X4484096Y-13287041D01*
X4484096Y-13287041D02*
X4550763Y-13144184D01*
X4550763Y-13144184D02*
X4550763Y-13344184D01*
X4731715Y-13344184D02*
X4731715Y-13239422D01*
X4731715Y-13239422D02*
X4722191Y-13220374D01*
X4722191Y-13220374D02*
X4703144Y-13210850D01*
X4703144Y-13210850D02*
X4665048Y-13210850D01*
X4665048Y-13210850D02*
X4646001Y-13220374D01*
X4731715Y-13334660D02*
X4712667Y-13344184D01*
X4712667Y-13344184D02*
X4665048Y-13344184D01*
X4665048Y-13344184D02*
X4646001Y-13334660D01*
X4646001Y-13334660D02*
X4636477Y-13315612D01*
X4636477Y-13315612D02*
X4636477Y-13296565D01*
X4636477Y-13296565D02*
X4646001Y-13277517D01*
X4646001Y-13277517D02*
X4665048Y-13267993D01*
X4665048Y-13267993D02*
X4712667Y-13267993D01*
X4712667Y-13267993D02*
X4731715Y-13258469D01*
X4826953Y-13210850D02*
X4826953Y-13410850D01*
X4826953Y-13220374D02*
X4846001Y-13210850D01*
X4846001Y-13210850D02*
X4884096Y-13210850D01*
X4884096Y-13210850D02*
X4903144Y-13220374D01*
X4903144Y-13220374D02*
X4912667Y-13229898D01*
X4912667Y-13229898D02*
X4922191Y-13248946D01*
X4922191Y-13248946D02*
X4922191Y-13306088D01*
X4922191Y-13306088D02*
X4912667Y-13325136D01*
X4912667Y-13325136D02*
X4903144Y-13334660D01*
X4903144Y-13334660D02*
X4884096Y-13344184D01*
X4884096Y-13344184D02*
X4846001Y-13344184D01*
X4846001Y-13344184D02*
X4826953Y-13334660D01*
X5007905Y-13325136D02*
X5017429Y-13334660D01*
X5017429Y-13334660D02*
X5007905Y-13344184D01*
X5007905Y-13344184D02*
X4998382Y-13334660D01*
X4998382Y-13334660D02*
X5007905Y-13325136D01*
X5007905Y-13325136D02*
X5007905Y-13344184D01*
X5007905Y-13220374D02*
X5017429Y-13229898D01*
X5017429Y-13229898D02*
X5007905Y-13239422D01*
X5007905Y-13239422D02*
X4998382Y-13229898D01*
X4998382Y-13229898D02*
X5007905Y-13220374D01*
X5007905Y-13220374D02*
X5007905Y-13239422D01*
D12*
X3255700Y-13612700D02*
X3375700Y-13732700D01*
X3375700Y-13612700D02*
X3255700Y-13732700D01*
D11*
X3741239Y-13764184D02*
X3626953Y-13764184D01*
X3684096Y-13764184D02*
X3684096Y-13564184D01*
X3684096Y-13564184D02*
X3665048Y-13592755D01*
X3665048Y-13592755D02*
X3646001Y-13611803D01*
X3646001Y-13611803D02*
X3626953Y-13621327D01*
X3826953Y-13745136D02*
X3836477Y-13754660D01*
X3836477Y-13754660D02*
X3826953Y-13764184D01*
X3826953Y-13764184D02*
X3817429Y-13754660D01*
X3817429Y-13754660D02*
X3826953Y-13745136D01*
X3826953Y-13745136D02*
X3826953Y-13764184D01*
X3912667Y-13583231D02*
X3922191Y-13573708D01*
X3922191Y-13573708D02*
X3941239Y-13564184D01*
X3941239Y-13564184D02*
X3988858Y-13564184D01*
X3988858Y-13564184D02*
X4007905Y-13573708D01*
X4007905Y-13573708D02*
X4017429Y-13583231D01*
X4017429Y-13583231D02*
X4026953Y-13602279D01*
X4026953Y-13602279D02*
X4026953Y-13621327D01*
X4026953Y-13621327D02*
X4017429Y-13649898D01*
X4017429Y-13649898D02*
X3903143Y-13764184D01*
X3903143Y-13764184D02*
X4026953Y-13764184D01*
X4150762Y-13564184D02*
X4169810Y-13564184D01*
X4169810Y-13564184D02*
X4188858Y-13573708D01*
X4188858Y-13573708D02*
X4198382Y-13583231D01*
X4198382Y-13583231D02*
X4207905Y-13602279D01*
X4207905Y-13602279D02*
X4217429Y-13640374D01*
X4217429Y-13640374D02*
X4217429Y-13687993D01*
X4217429Y-13687993D02*
X4207905Y-13726088D01*
X4207905Y-13726088D02*
X4198382Y-13745136D01*
X4198382Y-13745136D02*
X4188858Y-13754660D01*
X4188858Y-13754660D02*
X4169810Y-13764184D01*
X4169810Y-13764184D02*
X4150762Y-13764184D01*
X4150762Y-13764184D02*
X4131715Y-13754660D01*
X4131715Y-13754660D02*
X4122191Y-13745136D01*
X4122191Y-13745136D02*
X4112667Y-13726088D01*
X4112667Y-13726088D02*
X4103143Y-13687993D01*
X4103143Y-13687993D02*
X4103143Y-13640374D01*
X4103143Y-13640374D02*
X4112667Y-13602279D01*
X4112667Y-13602279D02*
X4122191Y-13583231D01*
X4122191Y-13583231D02*
X4131715Y-13573708D01*
X4131715Y-13573708D02*
X4150762Y-13564184D01*
X4341239Y-13564184D02*
X4360286Y-13564184D01*
X4360286Y-13564184D02*
X4379334Y-13573708D01*
X4379334Y-13573708D02*
X4388858Y-13583231D01*
X4388858Y-13583231D02*
X4398382Y-13602279D01*
X4398382Y-13602279D02*
X4407905Y-13640374D01*
X4407905Y-13640374D02*
X4407905Y-13687993D01*
X4407905Y-13687993D02*
X4398382Y-13726088D01*
X4398382Y-13726088D02*
X4388858Y-13745136D01*
X4388858Y-13745136D02*
X4379334Y-13754660D01*
X4379334Y-13754660D02*
X4360286Y-13764184D01*
X4360286Y-13764184D02*
X4341239Y-13764184D01*
X4341239Y-13764184D02*
X4322191Y-13754660D01*
X4322191Y-13754660D02*
X4312667Y-13745136D01*
X4312667Y-13745136D02*
X4303144Y-13726088D01*
X4303144Y-13726088D02*
X4293620Y-13687993D01*
X4293620Y-13687993D02*
X4293620Y-13640374D01*
X4293620Y-13640374D02*
X4303144Y-13602279D01*
X4303144Y-13602279D02*
X4312667Y-13583231D01*
X4312667Y-13583231D02*
X4322191Y-13573708D01*
X4322191Y-13573708D02*
X4341239Y-13564184D01*
X4493620Y-13764184D02*
X4493620Y-13630850D01*
X4493620Y-13649898D02*
X4503144Y-13640374D01*
X4503144Y-13640374D02*
X4522191Y-13630850D01*
X4522191Y-13630850D02*
X4550763Y-13630850D01*
X4550763Y-13630850D02*
X4569810Y-13640374D01*
X4569810Y-13640374D02*
X4579334Y-13659422D01*
X4579334Y-13659422D02*
X4579334Y-13764184D01*
X4579334Y-13659422D02*
X4588858Y-13640374D01*
X4588858Y-13640374D02*
X4607905Y-13630850D01*
X4607905Y-13630850D02*
X4636477Y-13630850D01*
X4636477Y-13630850D02*
X4655525Y-13640374D01*
X4655525Y-13640374D02*
X4665048Y-13659422D01*
X4665048Y-13659422D02*
X4665048Y-13764184D01*
X4760286Y-13764184D02*
X4760286Y-13630850D01*
X4760286Y-13649898D02*
X4769810Y-13640374D01*
X4769810Y-13640374D02*
X4788858Y-13630850D01*
X4788858Y-13630850D02*
X4817429Y-13630850D01*
X4817429Y-13630850D02*
X4836477Y-13640374D01*
X4836477Y-13640374D02*
X4846001Y-13659422D01*
X4846001Y-13659422D02*
X4846001Y-13764184D01*
X4846001Y-13659422D02*
X4855525Y-13640374D01*
X4855525Y-13640374D02*
X4874572Y-13630850D01*
X4874572Y-13630850D02*
X4903144Y-13630850D01*
X4903144Y-13630850D02*
X4922191Y-13640374D01*
X4922191Y-13640374D02*
X4931715Y-13659422D01*
X4931715Y-13659422D02*
X4931715Y-13764184D01*
X5322191Y-13554660D02*
X5150763Y-13811803D01*
X5579334Y-13564184D02*
X5598382Y-13564184D01*
X5598382Y-13564184D02*
X5617429Y-13573708D01*
X5617429Y-13573708D02*
X5626953Y-13583231D01*
X5626953Y-13583231D02*
X5636477Y-13602279D01*
X5636477Y-13602279D02*
X5646001Y-13640374D01*
X5646001Y-13640374D02*
X5646001Y-13687993D01*
X5646001Y-13687993D02*
X5636477Y-13726088D01*
X5636477Y-13726088D02*
X5626953Y-13745136D01*
X5626953Y-13745136D02*
X5617429Y-13754660D01*
X5617429Y-13754660D02*
X5598382Y-13764184D01*
X5598382Y-13764184D02*
X5579334Y-13764184D01*
X5579334Y-13764184D02*
X5560287Y-13754660D01*
X5560287Y-13754660D02*
X5550763Y-13745136D01*
X5550763Y-13745136D02*
X5541239Y-13726088D01*
X5541239Y-13726088D02*
X5531715Y-13687993D01*
X5531715Y-13687993D02*
X5531715Y-13640374D01*
X5531715Y-13640374D02*
X5541239Y-13602279D01*
X5541239Y-13602279D02*
X5550763Y-13583231D01*
X5550763Y-13583231D02*
X5560287Y-13573708D01*
X5560287Y-13573708D02*
X5579334Y-13564184D01*
X5731715Y-13745136D02*
X5741239Y-13754660D01*
X5741239Y-13754660D02*
X5731715Y-13764184D01*
X5731715Y-13764184D02*
X5722191Y-13754660D01*
X5722191Y-13754660D02*
X5731715Y-13745136D01*
X5731715Y-13745136D02*
X5731715Y-13764184D01*
X5865048Y-13564184D02*
X5884096Y-13564184D01*
X5884096Y-13564184D02*
X5903144Y-13573708D01*
X5903144Y-13573708D02*
X5912667Y-13583231D01*
X5912667Y-13583231D02*
X5922191Y-13602279D01*
X5922191Y-13602279D02*
X5931715Y-13640374D01*
X5931715Y-13640374D02*
X5931715Y-13687993D01*
X5931715Y-13687993D02*
X5922191Y-13726088D01*
X5922191Y-13726088D02*
X5912667Y-13745136D01*
X5912667Y-13745136D02*
X5903144Y-13754660D01*
X5903144Y-13754660D02*
X5884096Y-13764184D01*
X5884096Y-13764184D02*
X5865048Y-13764184D01*
X5865048Y-13764184D02*
X5846001Y-13754660D01*
X5846001Y-13754660D02*
X5836477Y-13745136D01*
X5836477Y-13745136D02*
X5826953Y-13726088D01*
X5826953Y-13726088D02*
X5817429Y-13687993D01*
X5817429Y-13687993D02*
X5817429Y-13640374D01*
X5817429Y-13640374D02*
X5826953Y-13602279D01*
X5826953Y-13602279D02*
X5836477Y-13583231D01*
X5836477Y-13583231D02*
X5846001Y-13573708D01*
X5846001Y-13573708D02*
X5865048Y-13564184D01*
X6103144Y-13630850D02*
X6103144Y-13764184D01*
X6055525Y-13554660D02*
X6007906Y-13697517D01*
X6007906Y-13697517D02*
X6131715Y-13697517D01*
X6188858Y-13564184D02*
X6322191Y-13564184D01*
X6322191Y-13564184D02*
X6236477Y-13764184D01*
X6388858Y-13583231D02*
X6398382Y-13573708D01*
X6398382Y-13573708D02*
X6417429Y-13564184D01*
X6417429Y-13564184D02*
X6465048Y-13564184D01*
X6465048Y-13564184D02*
X6484096Y-13573708D01*
X6484096Y-13573708D02*
X6493620Y-13583231D01*
X6493620Y-13583231D02*
X6503144Y-13602279D01*
X6503144Y-13602279D02*
X6503144Y-13621327D01*
X6503144Y-13621327D02*
X6493620Y-13649898D01*
X6493620Y-13649898D02*
X6379334Y-13764184D01*
X6379334Y-13764184D02*
X6503144Y-13764184D01*
X6579334Y-13564184D02*
X6579334Y-13602279D01*
X6655525Y-13564184D02*
X6655525Y-13602279D01*
X6950763Y-13840374D02*
X6941239Y-13830850D01*
X6941239Y-13830850D02*
X6922191Y-13802279D01*
X6922191Y-13802279D02*
X6912668Y-13783231D01*
X6912668Y-13783231D02*
X6903144Y-13754660D01*
X6903144Y-13754660D02*
X6893620Y-13707041D01*
X6893620Y-13707041D02*
X6893620Y-13668946D01*
X6893620Y-13668946D02*
X6903144Y-13621327D01*
X6903144Y-13621327D02*
X6912668Y-13592755D01*
X6912668Y-13592755D02*
X6922191Y-13573708D01*
X6922191Y-13573708D02*
X6941239Y-13545136D01*
X6941239Y-13545136D02*
X6950763Y-13535612D01*
X7131715Y-13764184D02*
X7017429Y-13764184D01*
X7074572Y-13764184D02*
X7074572Y-13564184D01*
X7074572Y-13564184D02*
X7055525Y-13592755D01*
X7055525Y-13592755D02*
X7036477Y-13611803D01*
X7036477Y-13611803D02*
X7017429Y-13621327D01*
X7369810Y-13764184D02*
X7369810Y-13564184D01*
X7455525Y-13764184D02*
X7455525Y-13659422D01*
X7455525Y-13659422D02*
X7446001Y-13640374D01*
X7446001Y-13640374D02*
X7426953Y-13630850D01*
X7426953Y-13630850D02*
X7398382Y-13630850D01*
X7398382Y-13630850D02*
X7379334Y-13640374D01*
X7379334Y-13640374D02*
X7369810Y-13649898D01*
X7579334Y-13764184D02*
X7560287Y-13754660D01*
X7560287Y-13754660D02*
X7550763Y-13745136D01*
X7550763Y-13745136D02*
X7541239Y-13726088D01*
X7541239Y-13726088D02*
X7541239Y-13668946D01*
X7541239Y-13668946D02*
X7550763Y-13649898D01*
X7550763Y-13649898D02*
X7560287Y-13640374D01*
X7560287Y-13640374D02*
X7579334Y-13630850D01*
X7579334Y-13630850D02*
X7607906Y-13630850D01*
X7607906Y-13630850D02*
X7626953Y-13640374D01*
X7626953Y-13640374D02*
X7636477Y-13649898D01*
X7636477Y-13649898D02*
X7646001Y-13668946D01*
X7646001Y-13668946D02*
X7646001Y-13726088D01*
X7646001Y-13726088D02*
X7636477Y-13745136D01*
X7636477Y-13745136D02*
X7626953Y-13754660D01*
X7626953Y-13754660D02*
X7607906Y-13764184D01*
X7607906Y-13764184D02*
X7579334Y-13764184D01*
X7760287Y-13764184D02*
X7741239Y-13754660D01*
X7741239Y-13754660D02*
X7731715Y-13735612D01*
X7731715Y-13735612D02*
X7731715Y-13564184D01*
X7912668Y-13754660D02*
X7893620Y-13764184D01*
X7893620Y-13764184D02*
X7855525Y-13764184D01*
X7855525Y-13764184D02*
X7836477Y-13754660D01*
X7836477Y-13754660D02*
X7826953Y-13735612D01*
X7826953Y-13735612D02*
X7826953Y-13659422D01*
X7826953Y-13659422D02*
X7836477Y-13640374D01*
X7836477Y-13640374D02*
X7855525Y-13630850D01*
X7855525Y-13630850D02*
X7893620Y-13630850D01*
X7893620Y-13630850D02*
X7912668Y-13640374D01*
X7912668Y-13640374D02*
X7922191Y-13659422D01*
X7922191Y-13659422D02*
X7922191Y-13678469D01*
X7922191Y-13678469D02*
X7826953Y-13697517D01*
X7988858Y-13840374D02*
X7998382Y-13830850D01*
X7998382Y-13830850D02*
X8017430Y-13802279D01*
X8017430Y-13802279D02*
X8026953Y-13783231D01*
X8026953Y-13783231D02*
X8036477Y-13754660D01*
X8036477Y-13754660D02*
X8046001Y-13707041D01*
X8046001Y-13707041D02*
X8046001Y-13668946D01*
X8046001Y-13668946D02*
X8036477Y-13621327D01*
X8036477Y-13621327D02*
X8026953Y-13592755D01*
X8026953Y-13592755D02*
X8017430Y-13573708D01*
X8017430Y-13573708D02*
X7998382Y-13545136D01*
X7998382Y-13545136D02*
X7988858Y-13535612D01*
X8350763Y-13840374D02*
X8341239Y-13830850D01*
X8341239Y-13830850D02*
X8322191Y-13802279D01*
X8322191Y-13802279D02*
X8312668Y-13783231D01*
X8312668Y-13783231D02*
X8303144Y-13754660D01*
X8303144Y-13754660D02*
X8293620Y-13707041D01*
X8293620Y-13707041D02*
X8293620Y-13668946D01*
X8293620Y-13668946D02*
X8303144Y-13621327D01*
X8303144Y-13621327D02*
X8312668Y-13592755D01*
X8312668Y-13592755D02*
X8322191Y-13573708D01*
X8322191Y-13573708D02*
X8341239Y-13545136D01*
X8341239Y-13545136D02*
X8350763Y-13535612D01*
X8426953Y-13630850D02*
X8426953Y-13764184D01*
X8426953Y-13649898D02*
X8436477Y-13640374D01*
X8436477Y-13640374D02*
X8455525Y-13630850D01*
X8455525Y-13630850D02*
X8484096Y-13630850D01*
X8484096Y-13630850D02*
X8503144Y-13640374D01*
X8503144Y-13640374D02*
X8512668Y-13659422D01*
X8512668Y-13659422D02*
X8512668Y-13764184D01*
X8636477Y-13764184D02*
X8617430Y-13754660D01*
X8617430Y-13754660D02*
X8607906Y-13745136D01*
X8607906Y-13745136D02*
X8598382Y-13726088D01*
X8598382Y-13726088D02*
X8598382Y-13668946D01*
X8598382Y-13668946D02*
X8607906Y-13649898D01*
X8607906Y-13649898D02*
X8617430Y-13640374D01*
X8617430Y-13640374D02*
X8636477Y-13630850D01*
X8636477Y-13630850D02*
X8665049Y-13630850D01*
X8665049Y-13630850D02*
X8684096Y-13640374D01*
X8684096Y-13640374D02*
X8693620Y-13649898D01*
X8693620Y-13649898D02*
X8703144Y-13668946D01*
X8703144Y-13668946D02*
X8703144Y-13726088D01*
X8703144Y-13726088D02*
X8693620Y-13745136D01*
X8693620Y-13745136D02*
X8684096Y-13754660D01*
X8684096Y-13754660D02*
X8665049Y-13764184D01*
X8665049Y-13764184D02*
X8636477Y-13764184D01*
X8760287Y-13630850D02*
X8836477Y-13630850D01*
X8788858Y-13564184D02*
X8788858Y-13735612D01*
X8788858Y-13735612D02*
X8798382Y-13754660D01*
X8798382Y-13754660D02*
X8817430Y-13764184D01*
X8817430Y-13764184D02*
X8836477Y-13764184D01*
X9055525Y-13630850D02*
X9055525Y-13830850D01*
X9055525Y-13640374D02*
X9074573Y-13630850D01*
X9074573Y-13630850D02*
X9112668Y-13630850D01*
X9112668Y-13630850D02*
X9131715Y-13640374D01*
X9131715Y-13640374D02*
X9141239Y-13649898D01*
X9141239Y-13649898D02*
X9150763Y-13668946D01*
X9150763Y-13668946D02*
X9150763Y-13726088D01*
X9150763Y-13726088D02*
X9141239Y-13745136D01*
X9141239Y-13745136D02*
X9131715Y-13754660D01*
X9131715Y-13754660D02*
X9112668Y-13764184D01*
X9112668Y-13764184D02*
X9074573Y-13764184D01*
X9074573Y-13764184D02*
X9055525Y-13754660D01*
X9265049Y-13764184D02*
X9246001Y-13754660D01*
X9246001Y-13754660D02*
X9236477Y-13735612D01*
X9236477Y-13735612D02*
X9236477Y-13564184D01*
X9426954Y-13764184D02*
X9426954Y-13659422D01*
X9426954Y-13659422D02*
X9417430Y-13640374D01*
X9417430Y-13640374D02*
X9398382Y-13630850D01*
X9398382Y-13630850D02*
X9360287Y-13630850D01*
X9360287Y-13630850D02*
X9341239Y-13640374D01*
X9426954Y-13754660D02*
X9407906Y-13764184D01*
X9407906Y-13764184D02*
X9360287Y-13764184D01*
X9360287Y-13764184D02*
X9341239Y-13754660D01*
X9341239Y-13754660D02*
X9331715Y-13735612D01*
X9331715Y-13735612D02*
X9331715Y-13716565D01*
X9331715Y-13716565D02*
X9341239Y-13697517D01*
X9341239Y-13697517D02*
X9360287Y-13687993D01*
X9360287Y-13687993D02*
X9407906Y-13687993D01*
X9407906Y-13687993D02*
X9426954Y-13678469D01*
X9493620Y-13630850D02*
X9569811Y-13630850D01*
X9522192Y-13564184D02*
X9522192Y-13735612D01*
X9522192Y-13735612D02*
X9531715Y-13754660D01*
X9531715Y-13754660D02*
X9550763Y-13764184D01*
X9550763Y-13764184D02*
X9569811Y-13764184D01*
X9712668Y-13754660D02*
X9693620Y-13764184D01*
X9693620Y-13764184D02*
X9655525Y-13764184D01*
X9655525Y-13764184D02*
X9636477Y-13754660D01*
X9636477Y-13754660D02*
X9626954Y-13735612D01*
X9626954Y-13735612D02*
X9626954Y-13659422D01*
X9626954Y-13659422D02*
X9636477Y-13640374D01*
X9636477Y-13640374D02*
X9655525Y-13630850D01*
X9655525Y-13630850D02*
X9693620Y-13630850D01*
X9693620Y-13630850D02*
X9712668Y-13640374D01*
X9712668Y-13640374D02*
X9722192Y-13659422D01*
X9722192Y-13659422D02*
X9722192Y-13678469D01*
X9722192Y-13678469D02*
X9626954Y-13697517D01*
X9893620Y-13764184D02*
X9893620Y-13564184D01*
X9893620Y-13754660D02*
X9874573Y-13764184D01*
X9874573Y-13764184D02*
X9836477Y-13764184D01*
X9836477Y-13764184D02*
X9817430Y-13754660D01*
X9817430Y-13754660D02*
X9807906Y-13745136D01*
X9807906Y-13745136D02*
X9798382Y-13726088D01*
X9798382Y-13726088D02*
X9798382Y-13668946D01*
X9798382Y-13668946D02*
X9807906Y-13649898D01*
X9807906Y-13649898D02*
X9817430Y-13640374D01*
X9817430Y-13640374D02*
X9836477Y-13630850D01*
X9836477Y-13630850D02*
X9874573Y-13630850D01*
X9874573Y-13630850D02*
X9893620Y-13640374D01*
X9969811Y-13840374D02*
X9979335Y-13830850D01*
X9979335Y-13830850D02*
X9998382Y-13802279D01*
X9998382Y-13802279D02*
X10007906Y-13783231D01*
X10007906Y-13783231D02*
X10017430Y-13754660D01*
X10017430Y-13754660D02*
X10026954Y-13707041D01*
X10026954Y-13707041D02*
X10026954Y-13668946D01*
X10026954Y-13668946D02*
X10017430Y-13621327D01*
X10017430Y-13621327D02*
X10007906Y-13592755D01*
X10007906Y-13592755D02*
X9998382Y-13573708D01*
X9998382Y-13573708D02*
X9979335Y-13545136D01*
X9979335Y-13545136D02*
X9969811Y-13535612D01*
X3375700Y-13936700D02*
G75*
G02*
X3175700Y-13936700I-100000J0D01*
G01*
X3175700Y-13936700D02*
G75*
G02*
X3375700Y-13936700I100000J0D01*
G01*
X3617429Y-13828184D02*
X3741239Y-13828184D01*
X3741239Y-13828184D02*
X3674572Y-13904374D01*
X3674572Y-13904374D02*
X3703143Y-13904374D01*
X3703143Y-13904374D02*
X3722191Y-13913898D01*
X3722191Y-13913898D02*
X3731715Y-13923422D01*
X3731715Y-13923422D02*
X3741239Y-13942469D01*
X3741239Y-13942469D02*
X3741239Y-13990088D01*
X3741239Y-13990088D02*
X3731715Y-14009136D01*
X3731715Y-14009136D02*
X3722191Y-14018660D01*
X3722191Y-14018660D02*
X3703143Y-14028184D01*
X3703143Y-14028184D02*
X3646001Y-14028184D01*
X3646001Y-14028184D02*
X3626953Y-14018660D01*
X3626953Y-14018660D02*
X3617429Y-14009136D01*
X3826953Y-14009136D02*
X3836477Y-14018660D01*
X3836477Y-14018660D02*
X3826953Y-14028184D01*
X3826953Y-14028184D02*
X3817429Y-14018660D01*
X3817429Y-14018660D02*
X3826953Y-14009136D01*
X3826953Y-14009136D02*
X3826953Y-14028184D01*
X3912667Y-13847231D02*
X3922191Y-13837708D01*
X3922191Y-13837708D02*
X3941239Y-13828184D01*
X3941239Y-13828184D02*
X3988858Y-13828184D01*
X3988858Y-13828184D02*
X4007905Y-13837708D01*
X4007905Y-13837708D02*
X4017429Y-13847231D01*
X4017429Y-13847231D02*
X4026953Y-13866279D01*
X4026953Y-13866279D02*
X4026953Y-13885327D01*
X4026953Y-13885327D02*
X4017429Y-13913898D01*
X4017429Y-13913898D02*
X3903143Y-14028184D01*
X3903143Y-14028184D02*
X4026953Y-14028184D01*
X4150762Y-13828184D02*
X4169810Y-13828184D01*
X4169810Y-13828184D02*
X4188858Y-13837708D01*
X4188858Y-13837708D02*
X4198382Y-13847231D01*
X4198382Y-13847231D02*
X4207905Y-13866279D01*
X4207905Y-13866279D02*
X4217429Y-13904374D01*
X4217429Y-13904374D02*
X4217429Y-13951993D01*
X4217429Y-13951993D02*
X4207905Y-13990088D01*
X4207905Y-13990088D02*
X4198382Y-14009136D01*
X4198382Y-14009136D02*
X4188858Y-14018660D01*
X4188858Y-14018660D02*
X4169810Y-14028184D01*
X4169810Y-14028184D02*
X4150762Y-14028184D01*
X4150762Y-14028184D02*
X4131715Y-14018660D01*
X4131715Y-14018660D02*
X4122191Y-14009136D01*
X4122191Y-14009136D02*
X4112667Y-13990088D01*
X4112667Y-13990088D02*
X4103143Y-13951993D01*
X4103143Y-13951993D02*
X4103143Y-13904374D01*
X4103143Y-13904374D02*
X4112667Y-13866279D01*
X4112667Y-13866279D02*
X4122191Y-13847231D01*
X4122191Y-13847231D02*
X4131715Y-13837708D01*
X4131715Y-13837708D02*
X4150762Y-13828184D01*
X4341239Y-13828184D02*
X4360286Y-13828184D01*
X4360286Y-13828184D02*
X4379334Y-13837708D01*
X4379334Y-13837708D02*
X4388858Y-13847231D01*
X4388858Y-13847231D02*
X4398382Y-13866279D01*
X4398382Y-13866279D02*
X4407905Y-13904374D01*
X4407905Y-13904374D02*
X4407905Y-13951993D01*
X4407905Y-13951993D02*
X4398382Y-13990088D01*
X4398382Y-13990088D02*
X4388858Y-14009136D01*
X4388858Y-14009136D02*
X4379334Y-14018660D01*
X4379334Y-14018660D02*
X4360286Y-14028184D01*
X4360286Y-14028184D02*
X4341239Y-14028184D01*
X4341239Y-14028184D02*
X4322191Y-14018660D01*
X4322191Y-14018660D02*
X4312667Y-14009136D01*
X4312667Y-14009136D02*
X4303144Y-13990088D01*
X4303144Y-13990088D02*
X4293620Y-13951993D01*
X4293620Y-13951993D02*
X4293620Y-13904374D01*
X4293620Y-13904374D02*
X4303144Y-13866279D01*
X4303144Y-13866279D02*
X4312667Y-13847231D01*
X4312667Y-13847231D02*
X4322191Y-13837708D01*
X4322191Y-13837708D02*
X4341239Y-13828184D01*
X4493620Y-14028184D02*
X4493620Y-13894850D01*
X4493620Y-13913898D02*
X4503144Y-13904374D01*
X4503144Y-13904374D02*
X4522191Y-13894850D01*
X4522191Y-13894850D02*
X4550763Y-13894850D01*
X4550763Y-13894850D02*
X4569810Y-13904374D01*
X4569810Y-13904374D02*
X4579334Y-13923422D01*
X4579334Y-13923422D02*
X4579334Y-14028184D01*
X4579334Y-13923422D02*
X4588858Y-13904374D01*
X4588858Y-13904374D02*
X4607905Y-13894850D01*
X4607905Y-13894850D02*
X4636477Y-13894850D01*
X4636477Y-13894850D02*
X4655525Y-13904374D01*
X4655525Y-13904374D02*
X4665048Y-13923422D01*
X4665048Y-13923422D02*
X4665048Y-14028184D01*
X4760286Y-14028184D02*
X4760286Y-13894850D01*
X4760286Y-13913898D02*
X4769810Y-13904374D01*
X4769810Y-13904374D02*
X4788858Y-13894850D01*
X4788858Y-13894850D02*
X4817429Y-13894850D01*
X4817429Y-13894850D02*
X4836477Y-13904374D01*
X4836477Y-13904374D02*
X4846001Y-13923422D01*
X4846001Y-13923422D02*
X4846001Y-14028184D01*
X4846001Y-13923422D02*
X4855525Y-13904374D01*
X4855525Y-13904374D02*
X4874572Y-13894850D01*
X4874572Y-13894850D02*
X4903144Y-13894850D01*
X4903144Y-13894850D02*
X4922191Y-13904374D01*
X4922191Y-13904374D02*
X4931715Y-13923422D01*
X4931715Y-13923422D02*
X4931715Y-14028184D01*
X5322191Y-13818660D02*
X5150763Y-14075803D01*
X5579334Y-13828184D02*
X5598382Y-13828184D01*
X5598382Y-13828184D02*
X5617429Y-13837708D01*
X5617429Y-13837708D02*
X5626953Y-13847231D01*
X5626953Y-13847231D02*
X5636477Y-13866279D01*
X5636477Y-13866279D02*
X5646001Y-13904374D01*
X5646001Y-13904374D02*
X5646001Y-13951993D01*
X5646001Y-13951993D02*
X5636477Y-13990088D01*
X5636477Y-13990088D02*
X5626953Y-14009136D01*
X5626953Y-14009136D02*
X5617429Y-14018660D01*
X5617429Y-14018660D02*
X5598382Y-14028184D01*
X5598382Y-14028184D02*
X5579334Y-14028184D01*
X5579334Y-14028184D02*
X5560287Y-14018660D01*
X5560287Y-14018660D02*
X5550763Y-14009136D01*
X5550763Y-14009136D02*
X5541239Y-13990088D01*
X5541239Y-13990088D02*
X5531715Y-13951993D01*
X5531715Y-13951993D02*
X5531715Y-13904374D01*
X5531715Y-13904374D02*
X5541239Y-13866279D01*
X5541239Y-13866279D02*
X5550763Y-13847231D01*
X5550763Y-13847231D02*
X5560287Y-13837708D01*
X5560287Y-13837708D02*
X5579334Y-13828184D01*
X5731715Y-14009136D02*
X5741239Y-14018660D01*
X5741239Y-14018660D02*
X5731715Y-14028184D01*
X5731715Y-14028184D02*
X5722191Y-14018660D01*
X5722191Y-14018660D02*
X5731715Y-14009136D01*
X5731715Y-14009136D02*
X5731715Y-14028184D01*
X5931715Y-14028184D02*
X5817429Y-14028184D01*
X5874572Y-14028184D02*
X5874572Y-13828184D01*
X5874572Y-13828184D02*
X5855525Y-13856755D01*
X5855525Y-13856755D02*
X5836477Y-13875803D01*
X5836477Y-13875803D02*
X5817429Y-13885327D01*
X6007906Y-13847231D02*
X6017429Y-13837708D01*
X6017429Y-13837708D02*
X6036477Y-13828184D01*
X6036477Y-13828184D02*
X6084096Y-13828184D01*
X6084096Y-13828184D02*
X6103144Y-13837708D01*
X6103144Y-13837708D02*
X6112667Y-13847231D01*
X6112667Y-13847231D02*
X6122191Y-13866279D01*
X6122191Y-13866279D02*
X6122191Y-13885327D01*
X6122191Y-13885327D02*
X6112667Y-13913898D01*
X6112667Y-13913898D02*
X5998382Y-14028184D01*
X5998382Y-14028184D02*
X6122191Y-14028184D01*
X6293620Y-13828184D02*
X6255525Y-13828184D01*
X6255525Y-13828184D02*
X6236477Y-13837708D01*
X6236477Y-13837708D02*
X6226953Y-13847231D01*
X6226953Y-13847231D02*
X6207906Y-13875803D01*
X6207906Y-13875803D02*
X6198382Y-13913898D01*
X6198382Y-13913898D02*
X6198382Y-13990088D01*
X6198382Y-13990088D02*
X6207906Y-14009136D01*
X6207906Y-14009136D02*
X6217429Y-14018660D01*
X6217429Y-14018660D02*
X6236477Y-14028184D01*
X6236477Y-14028184D02*
X6274572Y-14028184D01*
X6274572Y-14028184D02*
X6293620Y-14018660D01*
X6293620Y-14018660D02*
X6303144Y-14009136D01*
X6303144Y-14009136D02*
X6312667Y-13990088D01*
X6312667Y-13990088D02*
X6312667Y-13942469D01*
X6312667Y-13942469D02*
X6303144Y-13923422D01*
X6303144Y-13923422D02*
X6293620Y-13913898D01*
X6293620Y-13913898D02*
X6274572Y-13904374D01*
X6274572Y-13904374D02*
X6236477Y-13904374D01*
X6236477Y-13904374D02*
X6217429Y-13913898D01*
X6217429Y-13913898D02*
X6207906Y-13923422D01*
X6207906Y-13923422D02*
X6198382Y-13942469D01*
X6436477Y-13828184D02*
X6455525Y-13828184D01*
X6455525Y-13828184D02*
X6474572Y-13837708D01*
X6474572Y-13837708D02*
X6484096Y-13847231D01*
X6484096Y-13847231D02*
X6493620Y-13866279D01*
X6493620Y-13866279D02*
X6503144Y-13904374D01*
X6503144Y-13904374D02*
X6503144Y-13951993D01*
X6503144Y-13951993D02*
X6493620Y-13990088D01*
X6493620Y-13990088D02*
X6484096Y-14009136D01*
X6484096Y-14009136D02*
X6474572Y-14018660D01*
X6474572Y-14018660D02*
X6455525Y-14028184D01*
X6455525Y-14028184D02*
X6436477Y-14028184D01*
X6436477Y-14028184D02*
X6417429Y-14018660D01*
X6417429Y-14018660D02*
X6407906Y-14009136D01*
X6407906Y-14009136D02*
X6398382Y-13990088D01*
X6398382Y-13990088D02*
X6388858Y-13951993D01*
X6388858Y-13951993D02*
X6388858Y-13904374D01*
X6388858Y-13904374D02*
X6398382Y-13866279D01*
X6398382Y-13866279D02*
X6407906Y-13847231D01*
X6407906Y-13847231D02*
X6417429Y-13837708D01*
X6417429Y-13837708D02*
X6436477Y-13828184D01*
X6579334Y-13828184D02*
X6579334Y-13866279D01*
X6655525Y-13828184D02*
X6655525Y-13866279D01*
X6950763Y-14104374D02*
X6941239Y-14094850D01*
X6941239Y-14094850D02*
X6922191Y-14066279D01*
X6922191Y-14066279D02*
X6912668Y-14047231D01*
X6912668Y-14047231D02*
X6903144Y-14018660D01*
X6903144Y-14018660D02*
X6893620Y-13971041D01*
X6893620Y-13971041D02*
X6893620Y-13932946D01*
X6893620Y-13932946D02*
X6903144Y-13885327D01*
X6903144Y-13885327D02*
X6912668Y-13856755D01*
X6912668Y-13856755D02*
X6922191Y-13837708D01*
X6922191Y-13837708D02*
X6941239Y-13809136D01*
X6941239Y-13809136D02*
X6950763Y-13799612D01*
X7112668Y-13894850D02*
X7112668Y-14028184D01*
X7065048Y-13818660D02*
X7017429Y-13961517D01*
X7017429Y-13961517D02*
X7141239Y-13961517D01*
X7369810Y-14028184D02*
X7369810Y-13828184D01*
X7455525Y-14028184D02*
X7455525Y-13923422D01*
X7455525Y-13923422D02*
X7446001Y-13904374D01*
X7446001Y-13904374D02*
X7426953Y-13894850D01*
X7426953Y-13894850D02*
X7398382Y-13894850D01*
X7398382Y-13894850D02*
X7379334Y-13904374D01*
X7379334Y-13904374D02*
X7369810Y-13913898D01*
X7579334Y-14028184D02*
X7560287Y-14018660D01*
X7560287Y-14018660D02*
X7550763Y-14009136D01*
X7550763Y-14009136D02*
X7541239Y-13990088D01*
X7541239Y-13990088D02*
X7541239Y-13932946D01*
X7541239Y-13932946D02*
X7550763Y-13913898D01*
X7550763Y-13913898D02*
X7560287Y-13904374D01*
X7560287Y-13904374D02*
X7579334Y-13894850D01*
X7579334Y-13894850D02*
X7607906Y-13894850D01*
X7607906Y-13894850D02*
X7626953Y-13904374D01*
X7626953Y-13904374D02*
X7636477Y-13913898D01*
X7636477Y-13913898D02*
X7646001Y-13932946D01*
X7646001Y-13932946D02*
X7646001Y-13990088D01*
X7646001Y-13990088D02*
X7636477Y-14009136D01*
X7636477Y-14009136D02*
X7626953Y-14018660D01*
X7626953Y-14018660D02*
X7607906Y-14028184D01*
X7607906Y-14028184D02*
X7579334Y-14028184D01*
X7760287Y-14028184D02*
X7741239Y-14018660D01*
X7741239Y-14018660D02*
X7731715Y-13999612D01*
X7731715Y-13999612D02*
X7731715Y-13828184D01*
X7912668Y-14018660D02*
X7893620Y-14028184D01*
X7893620Y-14028184D02*
X7855525Y-14028184D01*
X7855525Y-14028184D02*
X7836477Y-14018660D01*
X7836477Y-14018660D02*
X7826953Y-13999612D01*
X7826953Y-13999612D02*
X7826953Y-13923422D01*
X7826953Y-13923422D02*
X7836477Y-13904374D01*
X7836477Y-13904374D02*
X7855525Y-13894850D01*
X7855525Y-13894850D02*
X7893620Y-13894850D01*
X7893620Y-13894850D02*
X7912668Y-13904374D01*
X7912668Y-13904374D02*
X7922191Y-13923422D01*
X7922191Y-13923422D02*
X7922191Y-13942469D01*
X7922191Y-13942469D02*
X7826953Y-13961517D01*
X7998382Y-14018660D02*
X8017430Y-14028184D01*
X8017430Y-14028184D02*
X8055525Y-14028184D01*
X8055525Y-14028184D02*
X8074572Y-14018660D01*
X8074572Y-14018660D02*
X8084096Y-13999612D01*
X8084096Y-13999612D02*
X8084096Y-13990088D01*
X8084096Y-13990088D02*
X8074572Y-13971041D01*
X8074572Y-13971041D02*
X8055525Y-13961517D01*
X8055525Y-13961517D02*
X8026953Y-13961517D01*
X8026953Y-13961517D02*
X8007906Y-13951993D01*
X8007906Y-13951993D02*
X7998382Y-13932946D01*
X7998382Y-13932946D02*
X7998382Y-13923422D01*
X7998382Y-13923422D02*
X8007906Y-13904374D01*
X8007906Y-13904374D02*
X8026953Y-13894850D01*
X8026953Y-13894850D02*
X8055525Y-13894850D01*
X8055525Y-13894850D02*
X8074572Y-13904374D01*
X8150763Y-14104374D02*
X8160287Y-14094850D01*
X8160287Y-14094850D02*
X8179334Y-14066279D01*
X8179334Y-14066279D02*
X8188858Y-14047231D01*
X8188858Y-14047231D02*
X8198382Y-14018660D01*
X8198382Y-14018660D02*
X8207906Y-13971041D01*
X8207906Y-13971041D02*
X8207906Y-13932946D01*
X8207906Y-13932946D02*
X8198382Y-13885327D01*
X8198382Y-13885327D02*
X8188858Y-13856755D01*
X8188858Y-13856755D02*
X8179334Y-13837708D01*
X8179334Y-13837708D02*
X8160287Y-13809136D01*
X8160287Y-13809136D02*
X8150763Y-13799612D01*
X8512668Y-14104374D02*
X8503144Y-14094850D01*
X8503144Y-14094850D02*
X8484096Y-14066279D01*
X8484096Y-14066279D02*
X8474573Y-14047231D01*
X8474573Y-14047231D02*
X8465049Y-14018660D01*
X8465049Y-14018660D02*
X8455525Y-13971041D01*
X8455525Y-13971041D02*
X8455525Y-13932946D01*
X8455525Y-13932946D02*
X8465049Y-13885327D01*
X8465049Y-13885327D02*
X8474573Y-13856755D01*
X8474573Y-13856755D02*
X8484096Y-13837708D01*
X8484096Y-13837708D02*
X8503144Y-13809136D01*
X8503144Y-13809136D02*
X8512668Y-13799612D01*
X8588858Y-13894850D02*
X8588858Y-14028184D01*
X8588858Y-13913898D02*
X8598382Y-13904374D01*
X8598382Y-13904374D02*
X8617430Y-13894850D01*
X8617430Y-13894850D02*
X8646001Y-13894850D01*
X8646001Y-13894850D02*
X8665049Y-13904374D01*
X8665049Y-13904374D02*
X8674573Y-13923422D01*
X8674573Y-13923422D02*
X8674573Y-14028184D01*
X8798382Y-14028184D02*
X8779334Y-14018660D01*
X8779334Y-14018660D02*
X8769811Y-14009136D01*
X8769811Y-14009136D02*
X8760287Y-13990088D01*
X8760287Y-13990088D02*
X8760287Y-13932946D01*
X8760287Y-13932946D02*
X8769811Y-13913898D01*
X8769811Y-13913898D02*
X8779334Y-13904374D01*
X8779334Y-13904374D02*
X8798382Y-13894850D01*
X8798382Y-13894850D02*
X8826954Y-13894850D01*
X8826954Y-13894850D02*
X8846001Y-13904374D01*
X8846001Y-13904374D02*
X8855525Y-13913898D01*
X8855525Y-13913898D02*
X8865049Y-13932946D01*
X8865049Y-13932946D02*
X8865049Y-13990088D01*
X8865049Y-13990088D02*
X8855525Y-14009136D01*
X8855525Y-14009136D02*
X8846001Y-14018660D01*
X8846001Y-14018660D02*
X8826954Y-14028184D01*
X8826954Y-14028184D02*
X8798382Y-14028184D01*
X8922192Y-13894850D02*
X8998382Y-13894850D01*
X8950763Y-13828184D02*
X8950763Y-13999612D01*
X8950763Y-13999612D02*
X8960287Y-14018660D01*
X8960287Y-14018660D02*
X8979334Y-14028184D01*
X8979334Y-14028184D02*
X8998382Y-14028184D01*
X9217430Y-13894850D02*
X9217430Y-14094850D01*
X9217430Y-13904374D02*
X9236477Y-13894850D01*
X9236477Y-13894850D02*
X9274573Y-13894850D01*
X9274573Y-13894850D02*
X9293620Y-13904374D01*
X9293620Y-13904374D02*
X9303144Y-13913898D01*
X9303144Y-13913898D02*
X9312668Y-13932946D01*
X9312668Y-13932946D02*
X9312668Y-13990088D01*
X9312668Y-13990088D02*
X9303144Y-14009136D01*
X9303144Y-14009136D02*
X9293620Y-14018660D01*
X9293620Y-14018660D02*
X9274573Y-14028184D01*
X9274573Y-14028184D02*
X9236477Y-14028184D01*
X9236477Y-14028184D02*
X9217430Y-14018660D01*
X9426954Y-14028184D02*
X9407906Y-14018660D01*
X9407906Y-14018660D02*
X9398382Y-13999612D01*
X9398382Y-13999612D02*
X9398382Y-13828184D01*
X9588858Y-14028184D02*
X9588858Y-13923422D01*
X9588858Y-13923422D02*
X9579335Y-13904374D01*
X9579335Y-13904374D02*
X9560287Y-13894850D01*
X9560287Y-13894850D02*
X9522192Y-13894850D01*
X9522192Y-13894850D02*
X9503144Y-13904374D01*
X9588858Y-14018660D02*
X9569811Y-14028184D01*
X9569811Y-14028184D02*
X9522192Y-14028184D01*
X9522192Y-14028184D02*
X9503144Y-14018660D01*
X9503144Y-14018660D02*
X9493620Y-13999612D01*
X9493620Y-13999612D02*
X9493620Y-13980565D01*
X9493620Y-13980565D02*
X9503144Y-13961517D01*
X9503144Y-13961517D02*
X9522192Y-13951993D01*
X9522192Y-13951993D02*
X9569811Y-13951993D01*
X9569811Y-13951993D02*
X9588858Y-13942469D01*
X9655525Y-13894850D02*
X9731715Y-13894850D01*
X9684096Y-13828184D02*
X9684096Y-13999612D01*
X9684096Y-13999612D02*
X9693620Y-14018660D01*
X9693620Y-14018660D02*
X9712668Y-14028184D01*
X9712668Y-14028184D02*
X9731715Y-14028184D01*
X9874573Y-14018660D02*
X9855525Y-14028184D01*
X9855525Y-14028184D02*
X9817430Y-14028184D01*
X9817430Y-14028184D02*
X9798382Y-14018660D01*
X9798382Y-14018660D02*
X9788858Y-13999612D01*
X9788858Y-13999612D02*
X9788858Y-13923422D01*
X9788858Y-13923422D02*
X9798382Y-13904374D01*
X9798382Y-13904374D02*
X9817430Y-13894850D01*
X9817430Y-13894850D02*
X9855525Y-13894850D01*
X9855525Y-13894850D02*
X9874573Y-13904374D01*
X9874573Y-13904374D02*
X9884096Y-13923422D01*
X9884096Y-13923422D02*
X9884096Y-13942469D01*
X9884096Y-13942469D02*
X9788858Y-13961517D01*
X10055525Y-14028184D02*
X10055525Y-13828184D01*
X10055525Y-14018660D02*
X10036477Y-14028184D01*
X10036477Y-14028184D02*
X9998382Y-14028184D01*
X9998382Y-14028184D02*
X9979335Y-14018660D01*
X9979335Y-14018660D02*
X9969811Y-14009136D01*
X9969811Y-14009136D02*
X9960287Y-13990088D01*
X9960287Y-13990088D02*
X9960287Y-13932946D01*
X9960287Y-13932946D02*
X9969811Y-13913898D01*
X9969811Y-13913898D02*
X9979335Y-13904374D01*
X9979335Y-13904374D02*
X9998382Y-13894850D01*
X9998382Y-13894850D02*
X10036477Y-13894850D01*
X10036477Y-13894850D02*
X10055525Y-13904374D01*
X10131716Y-14104374D02*
X10141239Y-14094850D01*
X10141239Y-14094850D02*
X10160287Y-14066279D01*
X10160287Y-14066279D02*
X10169811Y-14047231D01*
X10169811Y-14047231D02*
X10179335Y-14018660D01*
X10179335Y-14018660D02*
X10188858Y-13971041D01*
X10188858Y-13971041D02*
X10188858Y-13932946D01*
X10188858Y-13932946D02*
X10179335Y-13885327D01*
X10179335Y-13885327D02*
X10169811Y-13856755D01*
X10169811Y-13856755D02*
X10160287Y-13837708D01*
X10160287Y-13837708D02*
X10141239Y-13809136D01*
X10141239Y-13809136D02*
X10131716Y-13799612D01*
M02*
