%TF.GenerationSoftware,KiCad,Pcbnew,8.0.8+1*%
%TF.CreationDate,2025-02-28T13:08:23+11:00*%
%TF.ProjectId,mcharger_if,6d636861-7267-4657-925f-69662e6b6963,rev?*%
%TF.SameCoordinates,Original*%
%TF.FileFunction,Soldermask,Bot*%
%TF.FilePolarity,Negative*%
%FSLAX46Y46*%
G04 Gerber Fmt 4.6, Leading zero omitted, Abs format (unit mm)*
G04 Created by KiCad (PCBNEW 8.0.8+1) date 2025-02-28 13:08:23*
%MOMM*%
%LPD*%
G01*
G04 APERTURE LIST*
G04 Aperture macros list*
%AMRoundRect*
0 Rectangle with rounded corners*
0 $1 Rounding radius*
0 $2 $3 $4 $5 $6 $7 $8 $9 X,Y pos of 4 corners*
0 Add a 4 corners polygon primitive as box body*
4,1,4,$2,$3,$4,$5,$6,$7,$8,$9,$2,$3,0*
0 Add four circle primitives for the rounded corners*
1,1,$1+$1,$2,$3*
1,1,$1+$1,$4,$5*
1,1,$1+$1,$6,$7*
1,1,$1+$1,$8,$9*
0 Add four rect primitives between the rounded corners*
20,1,$1+$1,$2,$3,$4,$5,0*
20,1,$1+$1,$4,$5,$6,$7,0*
20,1,$1+$1,$6,$7,$8,$9,0*
20,1,$1+$1,$8,$9,$2,$3,0*%
G04 Aperture macros list end*
%ADD10C,3.600000*%
%ADD11C,5.600000*%
%ADD12R,1.600000X1.600000*%
%ADD13O,1.600000X1.600000*%
%ADD14C,2.600000*%
%ADD15C,3.800000*%
%ADD16C,3.200000*%
%ADD17R,2.000000X1.905000*%
%ADD18O,2.000000X1.905000*%
%ADD19R,2.200000X2.200000*%
%ADD20O,2.200000X2.200000*%
%ADD21RoundRect,0.250000X-0.893000X0.893000X-0.893000X-0.893000X0.893000X-0.893000X0.893000X0.893000X0*%
%ADD22C,2.286000*%
%ADD23RoundRect,0.250000X-0.650000X-1.550000X0.650000X-1.550000X0.650000X1.550000X-0.650000X1.550000X0*%
%ADD24O,1.800000X3.600000*%
%ADD25RoundRect,0.250000X-0.725000X0.600000X-0.725000X-0.600000X0.725000X-0.600000X0.725000X0.600000X0*%
%ADD26O,1.950000X1.700000*%
%ADD27R,2.000000X1.200000*%
%ADD28O,2.000000X1.200000*%
%ADD29C,1.200000*%
%ADD30C,6.350000*%
G04 APERTURE END LIST*
D10*
%TO.C,VOUT+48V1*%
X64770000Y-124460000D03*
D11*
X64770000Y-124460000D03*
%TD*%
D12*
%TO.C,U5*%
X72644000Y-89408000D03*
D13*
X72644000Y-91948000D03*
X72644000Y-94488000D03*
X72644000Y-97028000D03*
X72644000Y-99568000D03*
X72644000Y-102108000D03*
%TD*%
D14*
%TO.C,SMPS_VOUT_V12VP1*%
X102870000Y-63500000D03*
D15*
X102870000Y-63500000D03*
%TD*%
D16*
%TO.C,H3*%
X163830000Y-63500000D03*
%TD*%
%TO.C,H4*%
X163830000Y-127000000D03*
%TD*%
D17*
%TO.C,Q1*%
X56388000Y-97790000D03*
D18*
X56388000Y-95250000D03*
X56388000Y-92710000D03*
%TD*%
D19*
%TO.C,D2*%
X102870000Y-83820000D03*
D20*
X102870000Y-73660000D03*
%TD*%
D10*
%TO.C,VIN-48V1*%
X50800000Y-63500000D03*
D11*
X50800000Y-63500000D03*
%TD*%
D21*
%TO.C,U1*%
X84052000Y-92160000D03*
D22*
X84052000Y-105960000D03*
X113052000Y-105960000D03*
X113052000Y-92160000D03*
X92710000Y-92176600D03*
%TD*%
D17*
%TO.C,Q2*%
X47244000Y-92710000D03*
D18*
X47244000Y-95250000D03*
X47244000Y-97790000D03*
%TD*%
D23*
%TO.C,J1*%
X86360000Y-121920000D03*
D24*
X91440000Y-121920000D03*
%TD*%
D14*
%TO.C,SMPS_VINN1*%
X92710000Y-63500000D03*
D15*
X92710000Y-63500000D03*
%TD*%
D12*
%TO.C,U3*%
X160528000Y-107188000D03*
D13*
X160528000Y-109728000D03*
X160528000Y-112268000D03*
X160528000Y-114808000D03*
X160528000Y-117348000D03*
X160528000Y-119888000D03*
%TD*%
D16*
%TO.C,H1*%
X38100000Y-63500000D03*
%TD*%
D14*
%TO.C,SMPS_VOUT_12VN1*%
X109220000Y-63500000D03*
D15*
X109220000Y-63500000D03*
%TD*%
D25*
%TO.C,J4*%
X163290000Y-90210000D03*
D26*
X163290000Y-92710000D03*
X163290000Y-95210000D03*
X163290000Y-97710000D03*
X163290000Y-100210000D03*
%TD*%
D27*
%TO.C,U2*%
X119380000Y-70104000D03*
D28*
X119380000Y-72644000D03*
X119380000Y-75184000D03*
X119380000Y-77724000D03*
X119380000Y-80264000D03*
X119380000Y-82804000D03*
X119380000Y-85344000D03*
X119380000Y-87884000D03*
X119380000Y-90424000D03*
X119380000Y-92964000D03*
X119380000Y-95504000D03*
X119380000Y-98044000D03*
X119380000Y-100584000D03*
X119380000Y-103124000D03*
X119380000Y-105664000D03*
X144780000Y-105664000D03*
X144780000Y-103124000D03*
X144780000Y-100584000D03*
X144780000Y-98044000D03*
X144780000Y-95504000D03*
X144780000Y-92964000D03*
X144780000Y-90424000D03*
X144780000Y-87884000D03*
X144780000Y-85344000D03*
X144780000Y-82804000D03*
X144780000Y-80264000D03*
X144780000Y-77724000D03*
X144780000Y-75184000D03*
X144780000Y-72644000D03*
X144780000Y-70104000D03*
%TD*%
D10*
%TO.C,VOUT-48V3*%
X50800000Y-127000000D03*
D11*
X50800000Y-127000000D03*
%TD*%
D19*
%TO.C,D3*%
X97790000Y-115316000D03*
D20*
X97790000Y-125476000D03*
%TD*%
D10*
%TO.C,VIN+48V1*%
X64770000Y-66040000D03*
D11*
X64770000Y-66040000D03*
%TD*%
D29*
%TO.C,J3*%
X161290000Y-72390000D03*
D25*
X163290000Y-73990000D03*
D26*
X163290000Y-76490000D03*
X163290000Y-78990000D03*
X163290000Y-81490000D03*
%TD*%
D30*
%TO.C,U4*%
X51816000Y-82296000D03*
X51816000Y-107696000D03*
%TD*%
D16*
%TO.C,H2*%
X39370000Y-127000000D03*
%TD*%
D23*
%TO.C,J2*%
X105465000Y-121527500D03*
D24*
X110545000Y-121527500D03*
%TD*%
D14*
%TO.C,SMPS_VINP1*%
X86360000Y-63500000D03*
D15*
X86360000Y-63500000D03*
%TD*%
M02*
