%TF.GenerationSoftware,KiCad,Pcbnew,8.0.8+1*%
%TF.CreationDate,2025-02-28T13:11:42+11:00*%
%TF.ProjectId,mcomms,6d636f6d-6d73-42e6-9b69-6361645f7063,rev?*%
%TF.SameCoordinates,Original*%
%TF.FileFunction,Soldermask,Top*%
%TF.FilePolarity,Negative*%
%FSLAX46Y46*%
G04 Gerber Fmt 4.6, Leading zero omitted, Abs format (unit mm)*
G04 Created by KiCad (PCBNEW 8.0.8+1) date 2025-02-28 13:11:42*
%MOMM*%
%LPD*%
G01*
G04 APERTURE LIST*
G04 Aperture macros list*
%AMRoundRect*
0 Rectangle with rounded corners*
0 $1 Rounding radius*
0 $2 $3 $4 $5 $6 $7 $8 $9 X,Y pos of 4 corners*
0 Add a 4 corners polygon primitive as box body*
4,1,4,$2,$3,$4,$5,$6,$7,$8,$9,$2,$3,0*
0 Add four circle primitives for the rounded corners*
1,1,$1+$1,$2,$3*
1,1,$1+$1,$4,$5*
1,1,$1+$1,$6,$7*
1,1,$1+$1,$8,$9*
0 Add four rect primitives between the rounded corners*
20,1,$1+$1,$2,$3,$4,$5,0*
20,1,$1+$1,$4,$5,$6,$7,0*
20,1,$1+$1,$6,$7,$8,$9,0*
20,1,$1+$1,$8,$9,$2,$3,0*%
G04 Aperture macros list end*
%ADD10RoundRect,0.250000X0.350000X0.450000X-0.350000X0.450000X-0.350000X-0.450000X0.350000X-0.450000X0*%
%ADD11RoundRect,0.150000X-0.150000X0.587500X-0.150000X-0.587500X0.150000X-0.587500X0.150000X0.587500X0*%
%ADD12C,2.600000*%
%ADD13C,3.800000*%
%ADD14RoundRect,0.250000X-0.650000X-1.550000X0.650000X-1.550000X0.650000X1.550000X-0.650000X1.550000X0*%
%ADD15O,1.800000X3.600000*%
%ADD16RoundRect,0.250000X-0.350000X-0.450000X0.350000X-0.450000X0.350000X0.450000X-0.350000X0.450000X0*%
%ADD17C,1.600000*%
%ADD18O,1.600000X1.600000*%
%ADD19RoundRect,0.250000X-0.450000X0.350000X-0.450000X-0.350000X0.450000X-0.350000X0.450000X0.350000X0*%
%ADD20RoundRect,0.250000X0.893000X0.893000X-0.893000X0.893000X-0.893000X-0.893000X0.893000X-0.893000X0*%
%ADD21C,2.286000*%
%ADD22RoundRect,0.150000X-0.587500X-0.150000X0.587500X-0.150000X0.587500X0.150000X-0.587500X0.150000X0*%
%ADD23C,5.600000*%
%ADD24R,1.450000X1.450000*%
%ADD25C,1.450000*%
%ADD26RoundRect,0.250000X0.450000X-0.350000X0.450000X0.350000X-0.450000X0.350000X-0.450000X-0.350000X0*%
%ADD27R,2.000000X2.000000*%
%ADD28C,2.000000*%
%ADD29R,1.600000X1.600000*%
%ADD30RoundRect,0.250001X-0.462499X-0.624999X0.462499X-0.624999X0.462499X0.624999X-0.462499X0.624999X0*%
%ADD31R,1.800000X1.800000*%
%ADD32O,1.800000X1.800000*%
%ADD33R,2.000000X1.200000*%
%ADD34O,2.000000X1.200000*%
%ADD35RoundRect,0.250001X0.462499X0.624999X-0.462499X0.624999X-0.462499X-0.624999X0.462499X-0.624999X0*%
G04 APERTURE END LIST*
D10*
%TO.C,R14*%
X141700000Y-40640000D03*
X139700000Y-40640000D03*
%TD*%
D11*
%TO.C,Q4*%
X135062000Y-62562500D03*
X133162000Y-62562500D03*
X134112000Y-64437500D03*
%TD*%
D12*
%TO.C,H4*%
X104140000Y-81280000D03*
D13*
X104140000Y-81280000D03*
%TD*%
D12*
%TO.C,H3*%
X99060000Y-81280000D03*
D13*
X99060000Y-81280000D03*
%TD*%
D10*
%TO.C,R15*%
X141700000Y-44450000D03*
X139700000Y-44450000D03*
%TD*%
D14*
%TO.C,J3*%
X165155000Y-75807500D03*
D15*
X170235000Y-75807500D03*
%TD*%
D16*
%TO.C,R20*%
X115840000Y-20730000D03*
X117840000Y-20730000D03*
%TD*%
D17*
%TO.C,R2*%
X168910000Y-20320000D03*
D18*
X156210000Y-20320000D03*
%TD*%
D19*
%TO.C,R7*%
X165100000Y-67310000D03*
X165100000Y-69310000D03*
%TD*%
D20*
%TO.C,U2*%
X76115000Y-26140000D03*
D21*
X62315000Y-26140000D03*
X62315000Y-55140000D03*
X76115000Y-55140000D03*
X76098400Y-34798000D03*
%TD*%
D22*
%TO.C,Q2*%
X148922500Y-57150000D03*
X148922500Y-59050000D03*
X150797500Y-58100000D03*
%TD*%
D10*
%TO.C,R13*%
X141700000Y-36830000D03*
X139700000Y-36830000D03*
%TD*%
%TO.C,R12*%
X124460000Y-36830000D03*
X122460000Y-36830000D03*
%TD*%
D14*
%TO.C,J1*%
X71120000Y-76200000D03*
D15*
X76200000Y-76200000D03*
X81280000Y-76200000D03*
%TD*%
D23*
%TO.C,H5*%
X63500000Y-20320000D03*
%TD*%
D10*
%TO.C,R18*%
X148050000Y-44450000D03*
X146050000Y-44450000D03*
%TD*%
D24*
%TO.C,U4*%
X132080000Y-25400000D03*
D25*
X132080000Y-27940000D03*
X132080000Y-30480000D03*
X132080000Y-33020000D03*
X132080000Y-35560000D03*
X132080000Y-38100000D03*
X132080000Y-40640000D03*
X132080000Y-43180000D03*
%TD*%
D19*
%TO.C,R9*%
X111760000Y-67580000D03*
X111760000Y-69580000D03*
%TD*%
D16*
%TO.C,R19*%
X115840000Y-17780000D03*
X117840000Y-17780000D03*
%TD*%
%TO.C,R11*%
X122428000Y-41402000D03*
X124428000Y-41402000D03*
%TD*%
D26*
%TO.C,R10*%
X116840000Y-69580000D03*
X116840000Y-67580000D03*
%TD*%
D27*
%TO.C,BZ1*%
X149860000Y-22860000D03*
D28*
X142260000Y-22860000D03*
%TD*%
D26*
%TO.C,R4*%
X157890000Y-63500000D03*
X157890000Y-61500000D03*
%TD*%
D10*
%TO.C,R16*%
X148050000Y-36830000D03*
X146050000Y-36830000D03*
%TD*%
D29*
%TO.C,U3*%
X116840000Y-25400000D03*
D18*
X116840000Y-27940000D03*
X116840000Y-30480000D03*
X116840000Y-33020000D03*
X116840000Y-35560000D03*
X116840000Y-38100000D03*
X116840000Y-40640000D03*
X116840000Y-43180000D03*
X116840000Y-45720000D03*
X116840000Y-48260000D03*
%TD*%
D12*
%TO.C,H1*%
X88900000Y-81280000D03*
D13*
X88900000Y-81280000D03*
%TD*%
D22*
%TO.C,Q1*%
X129540000Y-18420000D03*
X129540000Y-20320000D03*
X131415000Y-19370000D03*
%TD*%
%TO.C,Q3*%
X148922500Y-63820000D03*
X148922500Y-65720000D03*
X150797500Y-64770000D03*
%TD*%
D29*
%TO.C,U5*%
X160020000Y-37338000D03*
D18*
X160020000Y-39878000D03*
X160020000Y-42418000D03*
X160020000Y-44958000D03*
X160020000Y-47498000D03*
X160020000Y-50038000D03*
%TD*%
D26*
%TO.C,R3*%
X154940000Y-63500000D03*
X154940000Y-61500000D03*
%TD*%
D30*
%TO.C,F2*%
X121485000Y-69850000D03*
X124460000Y-69850000D03*
%TD*%
D23*
%TO.C,H7*%
X177800000Y-20320000D03*
%TD*%
D14*
%TO.C,J4*%
X111815000Y-75807500D03*
D15*
X116895000Y-75807500D03*
%TD*%
D31*
%TO.C,D2*%
X75565000Y-59690000D03*
D32*
X62865000Y-59690000D03*
%TD*%
D26*
%TO.C,R5*%
X144145000Y-63595000D03*
X144145000Y-61595000D03*
%TD*%
D17*
%TO.C,R1*%
X168910000Y-25070000D03*
D18*
X156210000Y-25070000D03*
%TD*%
D19*
%TO.C,R8*%
X129540000Y-66580000D03*
X129540000Y-68580000D03*
%TD*%
D33*
%TO.C,U1*%
X81534000Y-25400000D03*
D34*
X81534000Y-27940000D03*
X81534000Y-30480000D03*
X81534000Y-33020000D03*
X81534000Y-35560000D03*
X81534000Y-38100000D03*
X81534000Y-40640000D03*
X81534000Y-43180000D03*
X81534000Y-45720000D03*
X81534000Y-48260000D03*
X81534000Y-50800000D03*
X81534000Y-53340000D03*
X81534000Y-55880000D03*
X81534000Y-58420000D03*
X81534000Y-60960000D03*
X106934000Y-60960000D03*
X106934000Y-58420000D03*
X106934000Y-55880000D03*
X106934000Y-53340000D03*
X106934000Y-50800000D03*
X106934000Y-48260000D03*
X106934000Y-45720000D03*
X106934000Y-43180000D03*
X106934000Y-40640000D03*
X106934000Y-38100000D03*
X106934000Y-35560000D03*
X106934000Y-33020000D03*
X106934000Y-30480000D03*
X106934000Y-27940000D03*
X106934000Y-25400000D03*
%TD*%
D14*
%TO.C,J5*%
X124515000Y-75807500D03*
D15*
X129595000Y-75807500D03*
X134675000Y-75807500D03*
%TD*%
D12*
%TO.C,H2*%
X93980000Y-81280000D03*
D13*
X93980000Y-81280000D03*
%TD*%
D19*
%TO.C,R6*%
X142240000Y-66580000D03*
X142240000Y-68580000D03*
%TD*%
D35*
%TO.C,F1*%
X78105000Y-68580000D03*
X75130000Y-68580000D03*
%TD*%
D23*
%TO.C,H6*%
X63500000Y-81280000D03*
%TD*%
D14*
%TO.C,J2*%
X142295000Y-75807500D03*
D15*
X147375000Y-75807500D03*
X152455000Y-75807500D03*
X157535000Y-75807500D03*
%TD*%
D10*
%TO.C,R17*%
X148050000Y-40640000D03*
X146050000Y-40640000D03*
%TD*%
D23*
%TO.C,H8*%
X177800000Y-81280000D03*
%TD*%
D31*
%TO.C,D1*%
X75565000Y-64770000D03*
D32*
X62865000Y-64770000D03*
%TD*%
M02*
