%TF.GenerationSoftware,KiCad,Pcbnew,8.0.8+1*%
%TF.CreationDate,2025-02-28T13:11:42+11:00*%
%TF.ProjectId,mcomms,6d636f6d-6d73-42e6-9b69-6361645f7063,rev?*%
%TF.SameCoordinates,Original*%
%TF.FileFunction,Copper,L2,Bot*%
%TF.FilePolarity,Positive*%
%FSLAX46Y46*%
G04 Gerber Fmt 4.6, Leading zero omitted, Abs format (unit mm)*
G04 Created by KiCad (PCBNEW 8.0.8+1) date 2025-02-28 13:11:42*
%MOMM*%
%LPD*%
G01*
G04 APERTURE LIST*
G04 Aperture macros list*
%AMRoundRect*
0 Rectangle with rounded corners*
0 $1 Rounding radius*
0 $2 $3 $4 $5 $6 $7 $8 $9 X,Y pos of 4 corners*
0 Add a 4 corners polygon primitive as box body*
4,1,4,$2,$3,$4,$5,$6,$7,$8,$9,$2,$3,0*
0 Add four circle primitives for the rounded corners*
1,1,$1+$1,$2,$3*
1,1,$1+$1,$4,$5*
1,1,$1+$1,$6,$7*
1,1,$1+$1,$8,$9*
0 Add four rect primitives between the rounded corners*
20,1,$1+$1,$2,$3,$4,$5,0*
20,1,$1+$1,$4,$5,$6,$7,0*
20,1,$1+$1,$6,$7,$8,$9,0*
20,1,$1+$1,$8,$9,$2,$3,0*%
G04 Aperture macros list end*
%TA.AperFunction,ComponentPad*%
%ADD10C,2.600000*%
%TD*%
%TA.AperFunction,ConnectorPad*%
%ADD11C,3.800000*%
%TD*%
%TA.AperFunction,ComponentPad*%
%ADD12RoundRect,0.250000X-0.650000X-1.550000X0.650000X-1.550000X0.650000X1.550000X-0.650000X1.550000X0*%
%TD*%
%TA.AperFunction,ComponentPad*%
%ADD13O,1.800000X3.600000*%
%TD*%
%TA.AperFunction,ComponentPad*%
%ADD14C,1.600000*%
%TD*%
%TA.AperFunction,ComponentPad*%
%ADD15O,1.600000X1.600000*%
%TD*%
%TA.AperFunction,ComponentPad*%
%ADD16RoundRect,0.250000X0.893000X0.893000X-0.893000X0.893000X-0.893000X-0.893000X0.893000X-0.893000X0*%
%TD*%
%TA.AperFunction,ComponentPad*%
%ADD17C,2.286000*%
%TD*%
%TA.AperFunction,ComponentPad*%
%ADD18C,5.600000*%
%TD*%
%TA.AperFunction,ComponentPad*%
%ADD19R,1.450000X1.450000*%
%TD*%
%TA.AperFunction,ComponentPad*%
%ADD20C,1.450000*%
%TD*%
%TA.AperFunction,ComponentPad*%
%ADD21R,2.000000X2.000000*%
%TD*%
%TA.AperFunction,ComponentPad*%
%ADD22C,2.000000*%
%TD*%
%TA.AperFunction,ComponentPad*%
%ADD23R,1.600000X1.600000*%
%TD*%
%TA.AperFunction,ComponentPad*%
%ADD24R,1.800000X1.800000*%
%TD*%
%TA.AperFunction,ComponentPad*%
%ADD25O,1.800000X1.800000*%
%TD*%
%TA.AperFunction,ComponentPad*%
%ADD26R,2.000000X1.200000*%
%TD*%
%TA.AperFunction,ComponentPad*%
%ADD27O,2.000000X1.200000*%
%TD*%
%TA.AperFunction,ViaPad*%
%ADD28C,1.270000*%
%TD*%
%TA.AperFunction,ViaPad*%
%ADD29C,1.016000*%
%TD*%
%TA.AperFunction,ViaPad*%
%ADD30C,2.540000*%
%TD*%
%TA.AperFunction,Conductor*%
%ADD31C,0.254000*%
%TD*%
%TA.AperFunction,Conductor*%
%ADD32C,1.270000*%
%TD*%
%TA.AperFunction,Conductor*%
%ADD33C,2.540000*%
%TD*%
%TA.AperFunction,Conductor*%
%ADD34C,0.508000*%
%TD*%
G04 APERTURE END LIST*
D10*
%TO.P,H4,1,1*%
%TO.N,+12V*%
X104140000Y-81280000D03*
D11*
X104140000Y-81280000D03*
%TD*%
D10*
%TO.P,H3,1,1*%
%TO.N,GND*%
X99060000Y-81280000D03*
D11*
X99060000Y-81280000D03*
%TD*%
D12*
%TO.P,J3,1,Pin_1*%
%TO.N,/VMONEN*%
X165155000Y-75807500D03*
D13*
%TO.P,J3,2,Pin_2*%
%TO.N,GND*%
X170235000Y-75807500D03*
%TD*%
D14*
%TO.P,R2,1*%
%TO.N,+12V*%
X168910000Y-20320000D03*
D15*
%TO.P,R2,2*%
%TO.N,/BUZ+*%
X156210000Y-20320000D03*
%TD*%
D16*
%TO.P,U2,1,Vin_p*%
%TO.N,+12V*%
X76115000Y-26140000D03*
D17*
%TO.P,U2,2,Vin_gnd*%
%TO.N,GND*%
X62315000Y-26140000D03*
%TO.P,U2,3,VO_GND*%
X62315000Y-55140000D03*
%TO.P,U2,4,V5V_p*%
%TO.N,+5V*%
X76115000Y-55140000D03*
%TO.P,U2,5,EN*%
%TO.N,unconnected-(U2-EN-Pad5)*%
X76098400Y-34798000D03*
%TD*%
D12*
%TO.P,J1,1,Pin_1*%
%TO.N,Net-(D1-A)*%
X71120000Y-76200000D03*
D13*
%TO.P,J1,2,Pin_2*%
%TO.N,Net-(D2-A)*%
X76200000Y-76200000D03*
%TO.P,J1,3,Pin_3*%
%TO.N,GND*%
X81280000Y-76200000D03*
%TD*%
D18*
%TO.P,H5,1*%
%TO.N,N/C*%
X63500000Y-20320000D03*
%TD*%
D19*
%TO.P,U4,1,VCC*%
%TO.N,+3.3V*%
X132080000Y-25400000D03*
D20*
%TO.P,U4,2,GND*%
%TO.N,GND*%
X132080000Y-27940000D03*
%TO.P,U4,3,WP*%
%TO.N,/WP*%
X132080000Y-30480000D03*
%TO.P,U4,4,SCL*%
%TO.N,/SCL*%
X132080000Y-33020000D03*
%TO.P,U4,5,SDA*%
%TO.N,/SDA*%
X132080000Y-35560000D03*
%TO.P,U4,6,A2*%
%TO.N,/A2*%
X132080000Y-38100000D03*
%TO.P,U4,7,A1*%
%TO.N,/A1*%
X132080000Y-40640000D03*
%TO.P,U4,8,A0*%
%TO.N,/A0*%
X132080000Y-43180000D03*
%TD*%
D21*
%TO.P,BZ1,1,+*%
%TO.N,/BUZ+*%
X149860000Y-22860000D03*
D22*
%TO.P,BZ1,2,-*%
%TO.N,/BUZ-*%
X142260000Y-22860000D03*
%TD*%
D23*
%TO.P,U3,1,VDD*%
%TO.N,+3.3V*%
X116840000Y-25400000D03*
D15*
%TO.P,U3,2,GND*%
%TO.N,GND*%
X116840000Y-27940000D03*
%TO.P,U3,3,SCL*%
%TO.N,/SCL*%
X116840000Y-30480000D03*
%TO.P,U3,4,SDA*%
%TO.N,/SDA*%
X116840000Y-33020000D03*
%TO.P,U3,5,ADDR*%
%TO.N,Net-(U3-ADDR)*%
X116840000Y-35560000D03*
%TO.P,U3,6,ALRT*%
%TO.N,/ADC_ALRT*%
X116840000Y-38100000D03*
%TO.P,U3,7,AN0*%
%TO.N,/SH+R*%
X116840000Y-40640000D03*
%TO.P,U3,8,AN1*%
%TO.N,/SH-R*%
X116840000Y-43180000D03*
%TO.P,U3,9,AN2*%
%TO.N,unconnected-(U3-AN2-Pad9)*%
X116840000Y-45720000D03*
%TO.P,U3,10,AN3*%
%TO.N,unconnected-(U3-AN3-Pad10)*%
X116840000Y-48260000D03*
%TD*%
D10*
%TO.P,H1,1,1*%
%TO.N,Net-(F1-Pad1)*%
X88900000Y-81280000D03*
D11*
X88900000Y-81280000D03*
%TD*%
D23*
%TO.P,U5,1,3V3*%
%TO.N,+3.3V*%
X160020000Y-37338000D03*
D15*
%TO.P,U5,2,CS*%
%TO.N,Net-(U1-D15)*%
X160020000Y-39878000D03*
%TO.P,U5,3,MOSI*%
%TO.N,Net-(U1-D13)*%
X160020000Y-42418000D03*
%TO.P,U5,4,CLK*%
%TO.N,Net-(U1-D14)*%
X160020000Y-44958000D03*
%TO.P,U5,5,MISO*%
%TO.N,Net-(U1-D12)*%
X160020000Y-47498000D03*
%TO.P,U5,6,GND*%
%TO.N,GND*%
X160020000Y-50038000D03*
%TD*%
D18*
%TO.P,H7,1*%
%TO.N,N/C*%
X177800000Y-20320000D03*
%TD*%
D12*
%TO.P,J4,1,Pin_1*%
%TO.N,/SHUNT+*%
X111815000Y-75807500D03*
D13*
%TO.P,J4,2,Pin_2*%
%TO.N,/SHUNT-*%
X116895000Y-75807500D03*
%TD*%
D24*
%TO.P,D2,1,K*%
%TO.N,Net-(D1-K)*%
X75565000Y-59690000D03*
D25*
%TO.P,D2,2,A*%
%TO.N,Net-(D2-A)*%
X62865000Y-59690000D03*
%TD*%
D14*
%TO.P,R1,1*%
%TO.N,+5V*%
X168910000Y-25070000D03*
D15*
%TO.P,R1,2*%
%TO.N,/BUZ+*%
X156210000Y-25070000D03*
%TD*%
D26*
%TO.P,U1,1,EN*%
%TO.N,unconnected-(U1-EN-Pad1)*%
X81534000Y-25400000D03*
D27*
%TO.P,U1,2,VP*%
%TO.N,unconnected-(U1-VP-Pad2)*%
X81534000Y-27940000D03*
%TO.P,U1,3,VN*%
%TO.N,unconnected-(U1-VN-Pad3)*%
X81534000Y-30480000D03*
%TO.P,U1,4,D34*%
%TO.N,/ADC_ALRT*%
X81534000Y-33020000D03*
%TO.P,U1,5,D35*%
%TO.N,unconnected-(U1-D35-Pad5)*%
X81534000Y-35560000D03*
%TO.P,U1,6,D32*%
%TO.N,unconnected-(U1-D32-Pad6)*%
X81534000Y-38100000D03*
%TO.P,U1,7,D33*%
%TO.N,unconnected-(U1-D33-Pad7)*%
X81534000Y-40640000D03*
%TO.P,U1,8,D25*%
%TO.N,/WP*%
X81534000Y-43180000D03*
%TO.P,U1,9,D26*%
%TO.N,unconnected-(U1-D26-Pad9)*%
X81534000Y-45720000D03*
%TO.P,U1,10,D27*%
%TO.N,/SOC_PPS*%
X81534000Y-48260000D03*
%TO.P,U1,11,D14*%
%TO.N,Net-(U1-D14)*%
X81534000Y-50800000D03*
%TO.P,U1,12,D12*%
%TO.N,Net-(U1-D12)*%
X81534000Y-53340000D03*
%TO.P,U1,13,D13*%
%TO.N,Net-(U1-D13)*%
X81534000Y-55880000D03*
%TO.P,U1,14,GND*%
%TO.N,GND*%
X81534000Y-58420000D03*
%TO.P,U1,15,VIN*%
%TO.N,+5V*%
X81534000Y-60960000D03*
%TO.P,U1,16,3V3*%
%TO.N,+3.3V*%
X106934000Y-60960000D03*
%TO.P,U1,17,GND*%
%TO.N,GND*%
X106934000Y-58420000D03*
%TO.P,U1,18,D15*%
%TO.N,Net-(U1-D15)*%
X106934000Y-55880000D03*
%TO.P,U1,19,D2*%
%TO.N,unconnected-(U1-D2-Pad19)*%
X106934000Y-53340000D03*
%TO.P,U1,20,D4*%
%TO.N,unconnected-(U1-D4-Pad20)*%
X106934000Y-50800000D03*
%TO.P,U1,21,D16*%
%TO.N,/RXD2*%
X106934000Y-48260000D03*
%TO.P,U1,22,D17*%
%TO.N,/TXD2*%
X106934000Y-45720000D03*
%TO.P,U1,23,D5*%
%TO.N,unconnected-(U1-D5-Pad23)*%
X106934000Y-43180000D03*
%TO.P,U1,24,D18*%
%TO.N,unconnected-(U1-D18-Pad24)*%
X106934000Y-40640000D03*
%TO.P,U1,25,D19*%
%TO.N,unconnected-(U1-D19-Pad25)*%
X106934000Y-38100000D03*
%TO.P,U1,26,D21*%
%TO.N,/SDA*%
X106934000Y-35560000D03*
%TO.P,U1,27,RXD0*%
%TO.N,unconnected-(U1-RXD0-Pad27)*%
X106934000Y-33020000D03*
%TO.P,U1,28,TXD0*%
%TO.N,unconnected-(U1-TXD0-Pad28)*%
X106934000Y-30480000D03*
%TO.P,U1,29,D22*%
%TO.N,/SCL*%
X106934000Y-27940000D03*
%TO.P,U1,30,D23*%
%TO.N,/BUZ*%
X106934000Y-25400000D03*
%TD*%
D12*
%TO.P,J5,1,Pin_1*%
%TO.N,Net-(J5-Pin_1)*%
X124515000Y-75807500D03*
D13*
%TO.P,J5,2,Pin_2*%
%TO.N,/SOC_PPSG*%
X129595000Y-75807500D03*
%TO.P,J5,3,Pin_3*%
%TO.N,GND*%
X134675000Y-75807500D03*
%TD*%
D10*
%TO.P,H2,1,1*%
%TO.N,GND*%
X93980000Y-81280000D03*
D11*
X93980000Y-81280000D03*
%TD*%
D18*
%TO.P,H6,1*%
%TO.N,N/C*%
X63500000Y-81280000D03*
%TD*%
D12*
%TO.P,J2,1,Pin_1*%
%TO.N,/MOSI+*%
X142295000Y-75807500D03*
D13*
%TO.P,J2,2,Pin_2*%
%TO.N,/MOSI-*%
X147375000Y-75807500D03*
%TO.P,J2,3,Pin_3*%
%TO.N,/MISO+*%
X152455000Y-75807500D03*
%TO.P,J2,4,Pin_4*%
%TO.N,GND*%
X157535000Y-75807500D03*
%TD*%
D18*
%TO.P,H8,1*%
%TO.N,N/C*%
X177800000Y-81280000D03*
%TD*%
D24*
%TO.P,D1,1,K*%
%TO.N,Net-(D1-K)*%
X75565000Y-64770000D03*
D25*
%TO.P,D1,2,A*%
%TO.N,Net-(D1-A)*%
X62865000Y-64770000D03*
%TD*%
D28*
%TO.N,/WP*%
X120396000Y-34544000D03*
D29*
%TO.N,GND*%
X138938000Y-69088000D03*
X148590000Y-69088000D03*
D28*
X148844000Y-31496000D03*
X137922000Y-27940000D03*
D29*
X129540000Y-61976000D03*
X175260000Y-50038000D03*
D28*
%TO.N,+3.3V*%
X110490000Y-54102000D03*
X126746000Y-38100000D03*
X154940000Y-54102000D03*
D29*
X162560000Y-47244000D03*
D28*
X154940000Y-59690000D03*
X141732000Y-60198000D03*
D29*
%TO.N,/BUZ*%
X113538000Y-22860000D03*
X118618000Y-22606000D03*
X120904000Y-22352000D03*
D28*
%TO.N,/RXD2*%
X127254000Y-48514000D03*
D29*
%TO.N,/SOC_PPS*%
X90170000Y-55880000D03*
X89916000Y-48260000D03*
X125984000Y-60452000D03*
%TO.N,Net-(U1-D13)*%
X156972000Y-49276000D03*
%TO.N,/TXD2*%
X103886000Y-54610000D03*
X125222000Y-56896000D03*
X103378000Y-45720000D03*
%TO.N,+12V*%
X119888000Y-65024000D03*
D28*
X140970000Y-63754000D03*
X165608000Y-53848000D03*
D30*
X100584000Y-66040000D03*
D28*
X126746000Y-19050000D03*
X165100000Y-63754000D03*
D30*
X70104000Y-62992000D03*
D28*
X121666000Y-19050000D03*
X113030000Y-28448000D03*
D29*
%TO.N,/SH+R*%
X119634000Y-44196000D03*
D28*
%TO.N,/A1*%
X144272000Y-40640000D03*
%TD*%
D31*
%TO.N,/WP*%
X118364000Y-39370000D02*
X112268000Y-39370000D01*
X86360000Y-43180000D02*
X81280000Y-43180000D01*
X109728000Y-41910000D02*
X87630000Y-41910000D01*
X118872000Y-39116000D02*
X118618000Y-39116000D01*
X87630000Y-41910000D02*
X86360000Y-43180000D01*
X120396000Y-37592000D02*
X118872000Y-39116000D01*
X112268000Y-39370000D02*
X109728000Y-41910000D01*
X118618000Y-39116000D02*
X118364000Y-39370000D01*
X120396000Y-34544000D02*
X120396000Y-37592000D01*
D32*
%TO.N,GND*%
X170235000Y-75807500D02*
X170235000Y-69270000D01*
X60825000Y-70985000D02*
X60825000Y-56630000D01*
X123952000Y-23368000D02*
X119380000Y-27940000D01*
X62315000Y-55140000D02*
X62315000Y-26140000D01*
D33*
X86360000Y-74295000D02*
X93980000Y-74295000D01*
X175260000Y-27305000D02*
X172466000Y-24511000D01*
X169672000Y-15740000D02*
X123952000Y-15740000D01*
D32*
X157535000Y-75807500D02*
X157535000Y-69270000D01*
X70485000Y-80645000D02*
X60825000Y-70985000D01*
X60825000Y-56630000D02*
X62315000Y-55140000D01*
D33*
X93980000Y-74295000D02*
X99060000Y-74295000D01*
X134620000Y-69215000D02*
X157480000Y-69215000D01*
D32*
X81280000Y-76200000D02*
X77470000Y-80010000D01*
X77470000Y-80010000D02*
X77470000Y-80645000D01*
D31*
X124460000Y-66040000D02*
X124460000Y-69215000D01*
D33*
X172466000Y-19304000D02*
X172466000Y-18288000D01*
X172466000Y-24511000D02*
X172466000Y-19304000D01*
X175260000Y-69215000D02*
X175260000Y-27305000D01*
D31*
X141478000Y-31496000D02*
X137922000Y-27940000D01*
X148844000Y-31496000D02*
X141478000Y-31496000D01*
D33*
X169918000Y-15740000D02*
X169672000Y-15740000D01*
X157480000Y-69215000D02*
X170180000Y-69215000D01*
X93980000Y-81280000D02*
X93980000Y-74295000D01*
X81280000Y-76200000D02*
X83185000Y-74295000D01*
D32*
X77470000Y-80645000D02*
X70485000Y-80645000D01*
X134675000Y-69270000D02*
X134620000Y-69215000D01*
D33*
X99060000Y-81280000D02*
X99060000Y-74295000D01*
X99060000Y-74295000D02*
X100965000Y-74295000D01*
X170180000Y-69215000D02*
X175260000Y-69215000D01*
D32*
X123952000Y-15740000D02*
X123952000Y-23368000D01*
D31*
X128524000Y-61976000D02*
X124460000Y-66040000D01*
D32*
X134675000Y-75807500D02*
X134675000Y-69270000D01*
D33*
X100965000Y-74295000D02*
X106045000Y-69215000D01*
X124460000Y-69215000D02*
X134620000Y-69215000D01*
X106045000Y-69215000D02*
X124460000Y-69215000D01*
D32*
X119380000Y-27940000D02*
X116840000Y-27940000D01*
D33*
X172466000Y-18288000D02*
X169918000Y-15740000D01*
D32*
X157535000Y-69270000D02*
X157480000Y-69215000D01*
D33*
X83185000Y-74295000D02*
X86360000Y-74295000D01*
D31*
X129540000Y-61976000D02*
X128524000Y-61976000D01*
%TO.N,/ADC_ALRT*%
X110236000Y-38100000D02*
X116840000Y-38100000D01*
X81280000Y-33020000D02*
X96774000Y-33020000D01*
X108966000Y-39370000D02*
X110236000Y-38100000D01*
X96774000Y-33020000D02*
X103124000Y-39370000D01*
X103124000Y-39370000D02*
X108966000Y-39370000D01*
%TO.N,/SDA*%
X121920000Y-33020000D02*
X116840000Y-33020000D01*
X106680000Y-35560000D02*
X108966000Y-35560000D01*
X124460000Y-35560000D02*
X121920000Y-33020000D01*
X111506000Y-33020000D02*
X116840000Y-33020000D01*
X108966000Y-35560000D02*
X111506000Y-33020000D01*
X132080000Y-35560000D02*
X124460000Y-35560000D01*
%TO.N,+3.3V*%
X136398000Y-27178000D02*
X134620000Y-25400000D01*
D34*
X162560000Y-52070000D02*
X162560000Y-47244000D01*
X154940000Y-54102000D02*
X160528000Y-54102000D01*
D31*
X128016000Y-39370000D02*
X134620000Y-39370000D01*
X154432000Y-60198000D02*
X154940000Y-59690000D01*
X126746000Y-38100000D02*
X128016000Y-39370000D01*
X141732000Y-60198000D02*
X154432000Y-60198000D01*
X134620000Y-25400000D02*
X132080000Y-25400000D01*
X136398000Y-37592000D02*
X136398000Y-27178000D01*
D34*
X160528000Y-54102000D02*
X162560000Y-52070000D01*
D32*
X110490000Y-54102000D02*
X154940000Y-54102000D01*
D31*
X134620000Y-39370000D02*
X136398000Y-37592000D01*
%TO.N,Net-(U1-D15)*%
X162560000Y-39878000D02*
X160020000Y-39878000D01*
X117094000Y-58166000D02*
X127254000Y-58166000D01*
X108204000Y-55880000D02*
X108712000Y-56388000D01*
X163830000Y-52578000D02*
X163830000Y-41148000D01*
X127254000Y-58166000D02*
X129540000Y-55880000D01*
X108712000Y-56388000D02*
X115316000Y-56388000D01*
X129540000Y-55880000D02*
X160528000Y-55880000D01*
X115316000Y-56388000D02*
X117094000Y-58166000D01*
X163830000Y-41148000D02*
X162560000Y-39878000D01*
X160528000Y-55880000D02*
X163830000Y-52578000D01*
X106934000Y-55880000D02*
X108204000Y-55880000D01*
%TO.N,Net-(U1-D12)*%
X133858000Y-48514000D02*
X154940000Y-48514000D01*
X100584000Y-53340000D02*
X104394000Y-49530000D01*
X115062000Y-50800000D02*
X131572000Y-50800000D01*
X154940000Y-48514000D02*
X155956000Y-47498000D01*
X113792000Y-49530000D02*
X115062000Y-50800000D01*
X131572000Y-50800000D02*
X133858000Y-48514000D01*
X104394000Y-49530000D02*
X113792000Y-49530000D01*
X155956000Y-47498000D02*
X160020000Y-47498000D01*
X81534000Y-53340000D02*
X100584000Y-53340000D01*
%TO.N,/SCL*%
X109220000Y-27940000D02*
X106680000Y-27940000D01*
X116840000Y-30480000D02*
X124968000Y-30480000D01*
X124968000Y-30480000D02*
X127508000Y-33020000D01*
X111760000Y-30480000D02*
X109220000Y-27940000D01*
X127508000Y-33020000D02*
X132080000Y-33020000D01*
X116840000Y-30480000D02*
X111760000Y-30480000D01*
%TO.N,/BUZ*%
X106680000Y-25400000D02*
X110998000Y-25400000D01*
X120650000Y-22606000D02*
X120904000Y-22352000D01*
X118618000Y-22606000D02*
X120650000Y-22606000D01*
X110998000Y-25400000D02*
X113538000Y-22860000D01*
D32*
%TO.N,+5V*%
X172466000Y-29972000D02*
X168910000Y-26416000D01*
X102870000Y-61976000D02*
X104394000Y-63500000D01*
X96520000Y-62992000D02*
X97536000Y-61976000D01*
X104394000Y-63500000D02*
X118364000Y-63500000D01*
X85090000Y-62992000D02*
X96520000Y-62992000D01*
X119126000Y-62738000D02*
X126238000Y-62738000D01*
X126238000Y-62738000D02*
X130810000Y-58166000D01*
X172466000Y-56134000D02*
X172466000Y-29972000D01*
X97536000Y-61976000D02*
X102870000Y-61976000D01*
X130810000Y-58166000D02*
X170434000Y-58166000D01*
X81280000Y-60960000D02*
X83058000Y-60960000D01*
X83058000Y-60960000D02*
X85090000Y-62992000D01*
X118364000Y-63500000D02*
X119126000Y-62738000D01*
X168910000Y-26416000D02*
X168910000Y-25070000D01*
X170434000Y-58166000D02*
X172466000Y-56134000D01*
D31*
%TO.N,/RXD2*%
X125730000Y-46990000D02*
X127254000Y-48514000D01*
X106680000Y-48260000D02*
X108712000Y-48260000D01*
X108712000Y-48260000D02*
X109982000Y-46990000D01*
X109982000Y-46990000D02*
X125730000Y-46990000D01*
%TO.N,/SOC_PPS*%
X88138000Y-48260000D02*
X89408000Y-48260000D01*
X97028000Y-57150000D02*
X114554000Y-57150000D01*
X89408000Y-48260000D02*
X89916000Y-48260000D01*
X90170000Y-55880000D02*
X95758000Y-55880000D01*
X95758000Y-55880000D02*
X97028000Y-57150000D01*
X114554000Y-57150000D02*
X117856000Y-60452000D01*
X117856000Y-60452000D02*
X125984000Y-60452000D01*
X81280000Y-48260000D02*
X88138000Y-48260000D01*
%TO.N,Net-(U1-D13)*%
X134874000Y-50546000D02*
X155702000Y-50546000D01*
X101600000Y-54610000D02*
X101854000Y-54356000D01*
X133350000Y-52070000D02*
X134874000Y-50546000D01*
X156718000Y-49530000D02*
X156972000Y-49276000D01*
X101854000Y-54356000D02*
X104140000Y-52070000D01*
X104140000Y-52070000D02*
X105664000Y-52070000D01*
X87630000Y-55880000D02*
X88900000Y-54610000D01*
X112014000Y-52070000D02*
X133350000Y-52070000D01*
X88900000Y-54610000D02*
X101600000Y-54610000D01*
X105664000Y-52070000D02*
X112014000Y-52070000D01*
X81534000Y-55880000D02*
X87630000Y-55880000D01*
X155702000Y-50546000D02*
X156718000Y-49530000D01*
%TO.N,Net-(U1-D14)*%
X108966000Y-46990000D02*
X111506000Y-44450000D01*
X100838000Y-50800000D02*
X104648000Y-46990000D01*
X119126000Y-45212000D02*
X127508000Y-45212000D01*
X127508000Y-45212000D02*
X129540000Y-47244000D01*
X111506000Y-44450000D02*
X118364000Y-44450000D01*
X129540000Y-47244000D02*
X150876000Y-47244000D01*
X118364000Y-44450000D02*
X119126000Y-45212000D01*
X104648000Y-46990000D02*
X108966000Y-46990000D01*
X81534000Y-50800000D02*
X100838000Y-50800000D01*
X153162000Y-44958000D02*
X160020000Y-44958000D01*
X150876000Y-47244000D02*
X153162000Y-44958000D01*
%TO.N,/TXD2*%
X108204000Y-54610000D02*
X103886000Y-54610000D01*
X106934000Y-45720000D02*
X103886000Y-45720000D01*
X117348000Y-56896000D02*
X116078000Y-55626000D01*
X109220000Y-55626000D02*
X108204000Y-54610000D01*
X106172000Y-45720000D02*
X106680000Y-45720000D01*
X103886000Y-45720000D02*
X103378000Y-45720000D01*
X107442000Y-45720000D02*
X106680000Y-45720000D01*
X125222000Y-56896000D02*
X117348000Y-56896000D01*
X116078000Y-55626000D02*
X109220000Y-55626000D01*
D32*
%TO.N,+12V*%
X79756000Y-64008000D02*
X81788000Y-66040000D01*
X73152000Y-62992000D02*
X73660000Y-62484000D01*
X154178000Y-22606000D02*
X151892000Y-20320000D01*
X73660000Y-62484000D02*
X78232000Y-62484000D01*
X160782000Y-22860000D02*
X160528000Y-22606000D01*
X168910000Y-20320000D02*
X164338000Y-20320000D01*
D34*
X165100000Y-63754000D02*
X140970000Y-63754000D01*
D32*
X99060000Y-66040000D02*
X100584000Y-66040000D01*
X121666000Y-19050000D02*
X119920000Y-19050000D01*
X78232000Y-62484000D02*
X79756000Y-64008000D01*
X160528000Y-22606000D02*
X154178000Y-22606000D01*
X81788000Y-66040000D02*
X99060000Y-66040000D01*
X166370000Y-26924000D02*
X166116000Y-27178000D01*
X168402000Y-53848000D02*
X165608000Y-53848000D01*
X161798000Y-22860000D02*
X160782000Y-22860000D01*
X119920000Y-19050000D02*
X113030000Y-25940000D01*
D31*
X119888000Y-65024000D02*
X101600000Y-65024000D01*
X101600000Y-65024000D02*
X100584000Y-66040000D01*
D32*
X113030000Y-25940000D02*
X113030000Y-28448000D01*
X168910000Y-20320000D02*
X166370000Y-22860000D01*
X70104000Y-62992000D02*
X73152000Y-62992000D01*
X166370000Y-23368000D02*
X166370000Y-26924000D01*
X151892000Y-19050000D02*
X126746000Y-19050000D01*
X164338000Y-20320000D02*
X161798000Y-22860000D01*
X151892000Y-20320000D02*
X151892000Y-19050000D01*
X169672000Y-52578000D02*
X168402000Y-53848000D01*
X166116000Y-27178000D02*
X166116000Y-27686000D01*
X166370000Y-22860000D02*
X166370000Y-23368000D01*
X169672000Y-31242000D02*
X169672000Y-52578000D01*
X166116000Y-27686000D02*
X169672000Y-31242000D01*
D31*
%TO.N,/SH+R*%
X118110000Y-40640000D02*
X119634000Y-42164000D01*
X119634000Y-42164000D02*
X119634000Y-44196000D01*
X116840000Y-40640000D02*
X118110000Y-40640000D01*
%TO.N,/A1*%
X132080000Y-40640000D02*
X144272000Y-40640000D01*
%TD*%
M02*
