%TF.GenerationSoftware,KiCad,Pcbnew,8.0.8+1*%
%TF.CreationDate,2025-02-28T11:26:12+11:00*%
%TF.ProjectId,mcomms,6d636f6d-6d73-42e6-9b69-6361645f7063,rev?*%
%TF.SameCoordinates,Original*%
%TF.FileFunction,Drillmap*%
%TF.FilePolarity,Positive*%
%FSLAX45Y45*%
G04 Gerber Fmt 4.5, Leading zero omitted, Abs format (unit mm)*
G04 Created by KiCad (PCBNEW 8.0.8+1) date 2025-02-28 11:26:12*
%MOMM*%
%LPD*%
G01*
G04 APERTURE LIST*
%ADD10C,0.050000*%
%ADD11C,0.200000*%
%ADD12C,0.100000*%
%ADD13C,0.101600*%
%ADD14C,0.120000*%
%ADD15C,0.220000*%
%ADD16C,0.320000*%
G04 APERTURE END LIST*
D10*
X5969000Y-8509000D02*
X5969000Y-1397000D01*
X18161000Y-1397000D02*
X18161000Y-8509000D01*
X5969000Y-1397000D02*
X18161000Y-1397000D01*
X18161000Y-8509000D02*
X5969000Y-8509000D01*
D11*
D12*
X8953500Y-4787900D02*
X9029700Y-4864100D01*
X9029700Y-4787900D02*
X8953500Y-4864100D01*
X8978900Y-5549900D02*
X9055100Y-5626100D01*
X9055100Y-5549900D02*
X8978900Y-5626100D01*
X10299700Y-4533900D02*
X10375900Y-4610100D01*
X10375900Y-4533900D02*
X10299700Y-4610100D01*
X10350500Y-5422900D02*
X10426700Y-5499100D01*
X10426700Y-5422900D02*
X10350500Y-5499100D01*
X11010900Y-5372100D02*
X11087100Y-5448300D01*
X11087100Y-5372100D02*
X11010900Y-5448300D01*
X11264900Y-2806700D02*
X11341100Y-2882900D01*
X11341100Y-2806700D02*
X11264900Y-2882900D01*
X11315700Y-2247900D02*
X11391900Y-2324100D01*
X11391900Y-2247900D02*
X11315700Y-2324100D01*
X11823700Y-2222500D02*
X11899900Y-2298700D01*
X11899900Y-2222500D02*
X11823700Y-2298700D01*
X11925300Y-4381500D02*
X12001500Y-4457700D01*
X12001500Y-4381500D02*
X11925300Y-4457700D01*
X11950700Y-6464300D02*
X12026900Y-6540500D01*
X12026900Y-6464300D02*
X11950700Y-6540500D01*
X12001500Y-3416300D02*
X12077700Y-3492500D01*
X12077700Y-3416300D02*
X12001500Y-3492500D01*
X12052300Y-2197100D02*
X12128500Y-2273300D01*
X12128500Y-2197100D02*
X12052300Y-2273300D01*
X12128500Y-1866900D02*
X12204700Y-1943100D01*
X12204700Y-1866900D02*
X12128500Y-1943100D01*
X12484100Y-5651500D02*
X12560300Y-5727700D01*
X12560300Y-5651500D02*
X12484100Y-5727700D01*
X12560300Y-6007100D02*
X12636500Y-6083300D01*
X12636500Y-6007100D02*
X12560300Y-6083300D01*
X12636500Y-1866900D02*
X12712700Y-1943100D01*
X12712700Y-1866900D02*
X12636500Y-1943100D01*
X12636500Y-3771900D02*
X12712700Y-3848100D01*
X12712700Y-3771900D02*
X12636500Y-3848100D01*
X12687300Y-4813300D02*
X12763500Y-4889500D01*
X12763500Y-4813300D02*
X12687300Y-4889500D01*
X12915900Y-6159500D02*
X12992100Y-6235700D01*
X12992100Y-6159500D02*
X12915900Y-6235700D01*
X13754100Y-2755900D02*
X13830300Y-2832100D01*
X13830300Y-2755900D02*
X13754100Y-2832100D01*
X13855700Y-6870700D02*
X13931900Y-6946900D01*
X13931900Y-6870700D02*
X13855700Y-6946900D01*
X14058900Y-6337300D02*
X14135100Y-6413500D01*
X14135100Y-6337300D02*
X14058900Y-6413500D01*
X14135100Y-5981700D02*
X14211300Y-6057900D01*
X14211300Y-5981700D02*
X14135100Y-6057900D01*
X14389100Y-4025900D02*
X14465300Y-4102100D01*
X14465300Y-4025900D02*
X14389100Y-4102100D01*
X14820900Y-6870700D02*
X14897100Y-6946900D01*
X14897100Y-6870700D02*
X14820900Y-6946900D01*
X14846300Y-3111500D02*
X14922500Y-3187700D01*
X14922500Y-3111500D02*
X14846300Y-3187700D01*
X15455900Y-5372100D02*
X15532100Y-5448300D01*
X15532100Y-5372100D02*
X15455900Y-5448300D01*
X15455900Y-5930900D02*
X15532100Y-6007100D01*
X15532100Y-5930900D02*
X15455900Y-6007100D01*
X15659100Y-4889500D02*
X15735300Y-4965700D01*
X15735300Y-4889500D02*
X15659100Y-4965700D01*
X16217900Y-4686300D02*
X16294100Y-4762500D01*
X16294100Y-4686300D02*
X16217900Y-4762500D01*
X16471900Y-6337300D02*
X16548100Y-6413500D01*
X16548100Y-6337300D02*
X16471900Y-6413500D01*
X16522700Y-5346700D02*
X16598900Y-5422900D01*
X16598900Y-5346700D02*
X16522700Y-5422900D01*
X17487900Y-4965700D02*
X17564100Y-5041900D01*
X17564100Y-4965700D02*
X17487900Y-5041900D01*
X8193400Y-2540000D02*
G75*
G02*
X8113400Y-2540000I-40000J0D01*
G01*
X8113400Y-2540000D02*
G75*
G02*
X8193400Y-2540000I40000J0D01*
G01*
X8193400Y-2794000D02*
G75*
G02*
X8113400Y-2794000I-40000J0D01*
G01*
X8113400Y-2794000D02*
G75*
G02*
X8193400Y-2794000I40000J0D01*
G01*
X8193400Y-3048000D02*
G75*
G02*
X8113400Y-3048000I-40000J0D01*
G01*
X8113400Y-3048000D02*
G75*
G02*
X8193400Y-3048000I40000J0D01*
G01*
X8193400Y-3302000D02*
G75*
G02*
X8113400Y-3302000I-40000J0D01*
G01*
X8113400Y-3302000D02*
G75*
G02*
X8193400Y-3302000I40000J0D01*
G01*
X8193400Y-3556000D02*
G75*
G02*
X8113400Y-3556000I-40000J0D01*
G01*
X8113400Y-3556000D02*
G75*
G02*
X8193400Y-3556000I40000J0D01*
G01*
X8193400Y-3810000D02*
G75*
G02*
X8113400Y-3810000I-40000J0D01*
G01*
X8113400Y-3810000D02*
G75*
G02*
X8193400Y-3810000I40000J0D01*
G01*
X8193400Y-4064000D02*
G75*
G02*
X8113400Y-4064000I-40000J0D01*
G01*
X8113400Y-4064000D02*
G75*
G02*
X8193400Y-4064000I40000J0D01*
G01*
X8193400Y-4318000D02*
G75*
G02*
X8113400Y-4318000I-40000J0D01*
G01*
X8113400Y-4318000D02*
G75*
G02*
X8193400Y-4318000I40000J0D01*
G01*
X8193400Y-4572000D02*
G75*
G02*
X8113400Y-4572000I-40000J0D01*
G01*
X8113400Y-4572000D02*
G75*
G02*
X8193400Y-4572000I40000J0D01*
G01*
X8193400Y-4826000D02*
G75*
G02*
X8113400Y-4826000I-40000J0D01*
G01*
X8113400Y-4826000D02*
G75*
G02*
X8193400Y-4826000I40000J0D01*
G01*
X8193400Y-5080000D02*
G75*
G02*
X8113400Y-5080000I-40000J0D01*
G01*
X8113400Y-5080000D02*
G75*
G02*
X8193400Y-5080000I40000J0D01*
G01*
X8193400Y-5334000D02*
G75*
G02*
X8113400Y-5334000I-40000J0D01*
G01*
X8113400Y-5334000D02*
G75*
G02*
X8193400Y-5334000I40000J0D01*
G01*
X8193400Y-5588000D02*
G75*
G02*
X8113400Y-5588000I-40000J0D01*
G01*
X8113400Y-5588000D02*
G75*
G02*
X8193400Y-5588000I40000J0D01*
G01*
X8193400Y-5842000D02*
G75*
G02*
X8113400Y-5842000I-40000J0D01*
G01*
X8113400Y-5842000D02*
G75*
G02*
X8193400Y-5842000I40000J0D01*
G01*
X8193400Y-6096000D02*
G75*
G02*
X8113400Y-6096000I-40000J0D01*
G01*
X8113400Y-6096000D02*
G75*
G02*
X8193400Y-6096000I40000J0D01*
G01*
X10733400Y-2540000D02*
G75*
G02*
X10653400Y-2540000I-40000J0D01*
G01*
X10653400Y-2540000D02*
G75*
G02*
X10733400Y-2540000I40000J0D01*
G01*
X10733400Y-2794000D02*
G75*
G02*
X10653400Y-2794000I-40000J0D01*
G01*
X10653400Y-2794000D02*
G75*
G02*
X10733400Y-2794000I40000J0D01*
G01*
X10733400Y-3048000D02*
G75*
G02*
X10653400Y-3048000I-40000J0D01*
G01*
X10653400Y-3048000D02*
G75*
G02*
X10733400Y-3048000I40000J0D01*
G01*
X10733400Y-3302000D02*
G75*
G02*
X10653400Y-3302000I-40000J0D01*
G01*
X10653400Y-3302000D02*
G75*
G02*
X10733400Y-3302000I40000J0D01*
G01*
X10733400Y-3556000D02*
G75*
G02*
X10653400Y-3556000I-40000J0D01*
G01*
X10653400Y-3556000D02*
G75*
G02*
X10733400Y-3556000I40000J0D01*
G01*
X10733400Y-3810000D02*
G75*
G02*
X10653400Y-3810000I-40000J0D01*
G01*
X10653400Y-3810000D02*
G75*
G02*
X10733400Y-3810000I40000J0D01*
G01*
X10733400Y-4064000D02*
G75*
G02*
X10653400Y-4064000I-40000J0D01*
G01*
X10653400Y-4064000D02*
G75*
G02*
X10733400Y-4064000I40000J0D01*
G01*
X10733400Y-4318000D02*
G75*
G02*
X10653400Y-4318000I-40000J0D01*
G01*
X10653400Y-4318000D02*
G75*
G02*
X10733400Y-4318000I40000J0D01*
G01*
X10733400Y-4572000D02*
G75*
G02*
X10653400Y-4572000I-40000J0D01*
G01*
X10653400Y-4572000D02*
G75*
G02*
X10733400Y-4572000I40000J0D01*
G01*
X10733400Y-4826000D02*
G75*
G02*
X10653400Y-4826000I-40000J0D01*
G01*
X10653400Y-4826000D02*
G75*
G02*
X10733400Y-4826000I40000J0D01*
G01*
X10733400Y-5080000D02*
G75*
G02*
X10653400Y-5080000I-40000J0D01*
G01*
X10653400Y-5080000D02*
G75*
G02*
X10733400Y-5080000I40000J0D01*
G01*
X10733400Y-5334000D02*
G75*
G02*
X10653400Y-5334000I-40000J0D01*
G01*
X10653400Y-5334000D02*
G75*
G02*
X10733400Y-5334000I40000J0D01*
G01*
X10733400Y-5588000D02*
G75*
G02*
X10653400Y-5588000I-40000J0D01*
G01*
X10653400Y-5588000D02*
G75*
G02*
X10733400Y-5588000I40000J0D01*
G01*
X10733400Y-5842000D02*
G75*
G02*
X10653400Y-5842000I-40000J0D01*
G01*
X10653400Y-5842000D02*
G75*
G02*
X10733400Y-5842000I40000J0D01*
G01*
X10733400Y-6096000D02*
G75*
G02*
X10653400Y-6096000I-40000J0D01*
G01*
X10653400Y-6096000D02*
G75*
G02*
X10733400Y-6096000I40000J0D01*
G01*
X11724000Y-2540000D02*
G75*
G02*
X11644000Y-2540000I-40000J0D01*
G01*
X11644000Y-2540000D02*
G75*
G02*
X11724000Y-2540000I40000J0D01*
G01*
X11724000Y-2794000D02*
G75*
G02*
X11644000Y-2794000I-40000J0D01*
G01*
X11644000Y-2794000D02*
G75*
G02*
X11724000Y-2794000I40000J0D01*
G01*
X11724000Y-3048000D02*
G75*
G02*
X11644000Y-3048000I-40000J0D01*
G01*
X11644000Y-3048000D02*
G75*
G02*
X11724000Y-3048000I40000J0D01*
G01*
X11724000Y-3302000D02*
G75*
G02*
X11644000Y-3302000I-40000J0D01*
G01*
X11644000Y-3302000D02*
G75*
G02*
X11724000Y-3302000I40000J0D01*
G01*
X11724000Y-3556000D02*
G75*
G02*
X11644000Y-3556000I-40000J0D01*
G01*
X11644000Y-3556000D02*
G75*
G02*
X11724000Y-3556000I40000J0D01*
G01*
X11724000Y-3810000D02*
G75*
G02*
X11644000Y-3810000I-40000J0D01*
G01*
X11644000Y-3810000D02*
G75*
G02*
X11724000Y-3810000I40000J0D01*
G01*
X11724000Y-4064000D02*
G75*
G02*
X11644000Y-4064000I-40000J0D01*
G01*
X11644000Y-4064000D02*
G75*
G02*
X11724000Y-4064000I40000J0D01*
G01*
X11724000Y-4318000D02*
G75*
G02*
X11644000Y-4318000I-40000J0D01*
G01*
X11644000Y-4318000D02*
G75*
G02*
X11724000Y-4318000I40000J0D01*
G01*
X11724000Y-4572000D02*
G75*
G02*
X11644000Y-4572000I-40000J0D01*
G01*
X11644000Y-4572000D02*
G75*
G02*
X11724000Y-4572000I40000J0D01*
G01*
X11724000Y-4826000D02*
G75*
G02*
X11644000Y-4826000I-40000J0D01*
G01*
X11644000Y-4826000D02*
G75*
G02*
X11724000Y-4826000I40000J0D01*
G01*
X15661000Y-2032000D02*
G75*
G02*
X15581000Y-2032000I-40000J0D01*
G01*
X15581000Y-2032000D02*
G75*
G02*
X15661000Y-2032000I40000J0D01*
G01*
X15661000Y-2507000D02*
G75*
G02*
X15581000Y-2507000I-40000J0D01*
G01*
X15581000Y-2507000D02*
G75*
G02*
X15661000Y-2507000I40000J0D01*
G01*
X16042000Y-3733800D02*
G75*
G02*
X15962000Y-3733800I-40000J0D01*
G01*
X15962000Y-3733800D02*
G75*
G02*
X16042000Y-3733800I40000J0D01*
G01*
X16042000Y-3987800D02*
G75*
G02*
X15962000Y-3987800I-40000J0D01*
G01*
X15962000Y-3987800D02*
G75*
G02*
X16042000Y-3987800I40000J0D01*
G01*
X16042000Y-4241800D02*
G75*
G02*
X15962000Y-4241800I-40000J0D01*
G01*
X15962000Y-4241800D02*
G75*
G02*
X16042000Y-4241800I40000J0D01*
G01*
X16042000Y-4495800D02*
G75*
G02*
X15962000Y-4495800I-40000J0D01*
G01*
X15962000Y-4495800D02*
G75*
G02*
X16042000Y-4495800I40000J0D01*
G01*
X16042000Y-4749800D02*
G75*
G02*
X15962000Y-4749800I-40000J0D01*
G01*
X15962000Y-4749800D02*
G75*
G02*
X16042000Y-4749800I40000J0D01*
G01*
X16042000Y-5003800D02*
G75*
G02*
X15962000Y-5003800I-40000J0D01*
G01*
X15962000Y-5003800D02*
G75*
G02*
X16042000Y-5003800I40000J0D01*
G01*
X16931000Y-2032000D02*
G75*
G02*
X16851000Y-2032000I-40000J0D01*
G01*
X16851000Y-2032000D02*
G75*
G02*
X16931000Y-2032000I40000J0D01*
G01*
X16931000Y-2507000D02*
G75*
G02*
X16851000Y-2507000I-40000J0D01*
G01*
X16851000Y-2507000D02*
G75*
G02*
X16931000Y-2507000I40000J0D01*
G01*
X13208000Y-2497500D02*
X13208000Y-2582500D01*
X13165500Y-2540000D02*
X13250500Y-2540000D01*
X13208000Y-2751500D02*
X13208000Y-2836500D01*
X13165500Y-2794000D02*
X13250500Y-2794000D01*
X13208000Y-3005500D02*
X13208000Y-3090500D01*
X13165500Y-3048000D02*
X13250500Y-3048000D01*
X13208000Y-3259500D02*
X13208000Y-3344500D01*
X13165500Y-3302000D02*
X13250500Y-3302000D01*
X13208000Y-3513500D02*
X13208000Y-3598500D01*
X13165500Y-3556000D02*
X13250500Y-3556000D01*
X13208000Y-3767500D02*
X13208000Y-3852500D01*
X13165500Y-3810000D02*
X13250500Y-3810000D01*
X13208000Y-4021500D02*
X13208000Y-4106500D01*
X13165500Y-4064000D02*
X13250500Y-4064000D01*
X13208000Y-4275500D02*
X13208000Y-4360500D01*
X13165500Y-4318000D02*
X13250500Y-4318000D01*
X6318320Y-6000820D02*
X6318320Y-5937180D01*
X6254680Y-5937180D01*
X6254680Y-6000820D01*
X6318320Y-6000820D01*
X6318320Y-6508820D02*
X6318320Y-6445180D01*
X6254680Y-6445180D01*
X6254680Y-6508820D01*
X6318320Y-6508820D01*
X7588320Y-6000820D02*
X7588320Y-5937180D01*
X7524680Y-5937180D01*
X7524680Y-6000820D01*
X7588320Y-6000820D01*
X7588320Y-6508820D02*
X7588320Y-6445180D01*
X7524680Y-6445180D01*
X7524680Y-6508820D01*
X7588320Y-6508820D01*
X6231500Y-2664000D02*
X6281500Y-2614000D01*
X6231500Y-2564000D01*
X6181500Y-2614000D01*
X6231500Y-2664000D01*
X6231500Y-5564000D02*
X6281500Y-5514000D01*
X6231500Y-5464000D01*
X6181500Y-5514000D01*
X6231500Y-5564000D01*
X7609840Y-3529800D02*
X7659840Y-3479800D01*
X7609840Y-3429800D01*
X7559840Y-3479800D01*
X7609840Y-3529800D01*
X7611500Y-2664000D02*
X7661500Y-2614000D01*
X7611500Y-2564000D01*
X7561500Y-2614000D01*
X7611500Y-2664000D01*
X7611500Y-5564000D02*
X7661500Y-5514000D01*
X7611500Y-5464000D01*
X7561500Y-5514000D01*
X7611500Y-5564000D01*
X14226000Y-2336000D02*
X14276000Y-2286000D01*
X14226000Y-2236000D01*
X14176000Y-2286000D01*
X14226000Y-2336000D01*
X14986000Y-2336000D02*
X15036000Y-2286000D01*
X14986000Y-2236000D01*
X14936000Y-2286000D01*
X14986000Y-2336000D01*
D13*
X6959600Y-6248400D02*
X7061200Y-6350000D01*
X7061200Y-6248400D02*
X6959600Y-6350000D01*
X7061200Y-6299200D02*
G75*
G02*
X6959600Y-6299200I-50800J0D01*
G01*
X6959600Y-6299200D02*
G75*
G02*
X7061200Y-6299200I50800J0D01*
G01*
X10007600Y-6553200D02*
X10109200Y-6654800D01*
X10109200Y-6553200D02*
X10007600Y-6654800D01*
X10109200Y-6604000D02*
G75*
G02*
X10007600Y-6604000I-50800J0D01*
G01*
X10007600Y-6604000D02*
G75*
G02*
X10109200Y-6604000I50800J0D01*
G01*
D14*
X7052000Y-7560000D02*
X7172000Y-7680000D01*
X7172000Y-7560000D02*
X7052000Y-7680000D01*
X7112000Y-7560000D02*
X7112000Y-7680000D01*
X7052000Y-7620000D02*
X7172000Y-7620000D01*
X7560000Y-7560000D02*
X7680000Y-7680000D01*
X7680000Y-7560000D02*
X7560000Y-7680000D01*
X7620000Y-7560000D02*
X7620000Y-7680000D01*
X7560000Y-7620000D02*
X7680000Y-7620000D01*
X8068000Y-7560000D02*
X8188000Y-7680000D01*
X8188000Y-7560000D02*
X8068000Y-7680000D01*
X8128000Y-7560000D02*
X8128000Y-7680000D01*
X8068000Y-7620000D02*
X8188000Y-7620000D01*
X11121500Y-7520750D02*
X11241500Y-7640750D01*
X11241500Y-7520750D02*
X11121500Y-7640750D01*
X11181500Y-7520750D02*
X11181500Y-7640750D01*
X11121500Y-7580750D02*
X11241500Y-7580750D01*
X11629500Y-7520750D02*
X11749500Y-7640750D01*
X11749500Y-7520750D02*
X11629500Y-7640750D01*
X11689500Y-7520750D02*
X11689500Y-7640750D01*
X11629500Y-7580750D02*
X11749500Y-7580750D01*
X12391500Y-7520750D02*
X12511500Y-7640750D01*
X12511500Y-7520750D02*
X12391500Y-7640750D01*
X12451500Y-7520750D02*
X12451500Y-7640750D01*
X12391500Y-7580750D02*
X12511500Y-7580750D01*
X12899500Y-7520750D02*
X13019500Y-7640750D01*
X13019500Y-7520750D02*
X12899500Y-7640750D01*
X12959500Y-7520750D02*
X12959500Y-7640750D01*
X12899500Y-7580750D02*
X13019500Y-7580750D01*
X13407500Y-7520750D02*
X13527500Y-7640750D01*
X13527500Y-7520750D02*
X13407500Y-7640750D01*
X13467500Y-7520750D02*
X13467500Y-7640750D01*
X13407500Y-7580750D02*
X13527500Y-7580750D01*
X14169500Y-7520750D02*
X14289500Y-7640750D01*
X14289500Y-7520750D02*
X14169500Y-7640750D01*
X14229500Y-7520750D02*
X14229500Y-7640750D01*
X14169500Y-7580750D02*
X14289500Y-7580750D01*
X14677500Y-7520750D02*
X14797500Y-7640750D01*
X14797500Y-7520750D02*
X14677500Y-7640750D01*
X14737500Y-7520750D02*
X14737500Y-7640750D01*
X14677500Y-7580750D02*
X14797500Y-7580750D01*
X15185500Y-7520750D02*
X15305500Y-7640750D01*
X15305500Y-7520750D02*
X15185500Y-7640750D01*
X15245500Y-7520750D02*
X15245500Y-7640750D01*
X15185500Y-7580750D02*
X15305500Y-7580750D01*
X15693500Y-7520750D02*
X15813500Y-7640750D01*
X15813500Y-7520750D02*
X15693500Y-7640750D01*
X15753500Y-7520750D02*
X15753500Y-7640750D01*
X15693500Y-7580750D02*
X15813500Y-7580750D01*
X16455500Y-7520750D02*
X16575500Y-7640750D01*
X16575500Y-7520750D02*
X16455500Y-7640750D01*
X16515500Y-7520750D02*
X16515500Y-7640750D01*
X16455500Y-7580750D02*
X16575500Y-7580750D01*
X16963500Y-7520750D02*
X17083500Y-7640750D01*
X17083500Y-7520750D02*
X16963500Y-7640750D01*
X17023500Y-7520750D02*
X17023500Y-7640750D01*
X16963500Y-7580750D02*
X17083500Y-7580750D01*
D15*
X8780000Y-8018000D02*
X9000000Y-8238000D01*
X9000000Y-8018000D02*
X8780000Y-8238000D01*
X8967783Y-8205782D02*
X8967783Y-8050217D01*
X8812218Y-8050217D01*
X8812218Y-8205782D01*
X8967783Y-8205782D01*
X9288000Y-8018000D02*
X9508000Y-8238000D01*
X9508000Y-8018000D02*
X9288000Y-8238000D01*
X9475783Y-8205782D02*
X9475783Y-8050217D01*
X9320218Y-8050217D01*
X9320218Y-8205782D01*
X9475783Y-8205782D01*
X9796000Y-8018000D02*
X10016000Y-8238000D01*
X10016000Y-8018000D02*
X9796000Y-8238000D01*
X9983783Y-8205782D02*
X9983783Y-8050217D01*
X9828218Y-8050217D01*
X9828218Y-8205782D01*
X9983783Y-8205782D01*
X10304000Y-8018000D02*
X10524000Y-8238000D01*
X10524000Y-8018000D02*
X10304000Y-8238000D01*
X10491783Y-8205782D02*
X10491783Y-8050217D01*
X10336218Y-8050217D01*
X10336218Y-8205782D01*
X10491783Y-8205782D01*
D16*
X6190000Y-1872000D02*
X6510000Y-2192000D01*
X6510000Y-1872000D02*
X6190000Y-2192000D01*
X6350000Y-2192000D02*
X6510000Y-2032000D01*
X6350000Y-1872000D01*
X6190000Y-2032000D01*
X6350000Y-2192000D01*
X6190000Y-7968000D02*
X6510000Y-8288000D01*
X6510000Y-7968000D02*
X6190000Y-8288000D01*
X6350000Y-8288000D02*
X6510000Y-8128000D01*
X6350000Y-7968000D01*
X6190000Y-8128000D01*
X6350000Y-8288000D01*
X17620000Y-1872000D02*
X17940000Y-2192000D01*
X17940000Y-1872000D02*
X17620000Y-2192000D01*
X17780000Y-2192000D02*
X17940000Y-2032000D01*
X17780000Y-1872000D01*
X17620000Y-2032000D01*
X17780000Y-2192000D01*
X17620000Y-7968000D02*
X17940000Y-8288000D01*
X17940000Y-7968000D02*
X17620000Y-8288000D01*
X17780000Y-8288000D02*
X17940000Y-8128000D01*
X17780000Y-7968000D01*
X17620000Y-8128000D01*
X17780000Y-8288000D01*
D11*
X6227277Y-8822984D02*
X6227277Y-8622984D01*
X6227277Y-8622984D02*
X6274896Y-8622984D01*
X6274896Y-8622984D02*
X6303467Y-8632508D01*
X6303467Y-8632508D02*
X6322515Y-8651555D01*
X6322515Y-8651555D02*
X6332039Y-8670603D01*
X6332039Y-8670603D02*
X6341562Y-8708698D01*
X6341562Y-8708698D02*
X6341562Y-8737270D01*
X6341562Y-8737270D02*
X6332039Y-8775365D01*
X6332039Y-8775365D02*
X6322515Y-8794412D01*
X6322515Y-8794412D02*
X6303467Y-8813460D01*
X6303467Y-8813460D02*
X6274896Y-8822984D01*
X6274896Y-8822984D02*
X6227277Y-8822984D01*
X6427277Y-8822984D02*
X6427277Y-8689650D01*
X6427277Y-8727746D02*
X6436801Y-8708698D01*
X6436801Y-8708698D02*
X6446324Y-8699174D01*
X6446324Y-8699174D02*
X6465372Y-8689650D01*
X6465372Y-8689650D02*
X6484420Y-8689650D01*
X6551086Y-8822984D02*
X6551086Y-8689650D01*
X6551086Y-8622984D02*
X6541562Y-8632508D01*
X6541562Y-8632508D02*
X6551086Y-8642031D01*
X6551086Y-8642031D02*
X6560610Y-8632508D01*
X6560610Y-8632508D02*
X6551086Y-8622984D01*
X6551086Y-8622984D02*
X6551086Y-8642031D01*
X6674896Y-8822984D02*
X6655848Y-8813460D01*
X6655848Y-8813460D02*
X6646324Y-8794412D01*
X6646324Y-8794412D02*
X6646324Y-8622984D01*
X6779658Y-8822984D02*
X6760610Y-8813460D01*
X6760610Y-8813460D02*
X6751086Y-8794412D01*
X6751086Y-8794412D02*
X6751086Y-8622984D01*
X7008229Y-8822984D02*
X7008229Y-8622984D01*
X7008229Y-8622984D02*
X7074896Y-8765841D01*
X7074896Y-8765841D02*
X7141562Y-8622984D01*
X7141562Y-8622984D02*
X7141562Y-8822984D01*
X7322515Y-8822984D02*
X7322515Y-8718222D01*
X7322515Y-8718222D02*
X7312991Y-8699174D01*
X7312991Y-8699174D02*
X7293943Y-8689650D01*
X7293943Y-8689650D02*
X7255848Y-8689650D01*
X7255848Y-8689650D02*
X7236801Y-8699174D01*
X7322515Y-8813460D02*
X7303467Y-8822984D01*
X7303467Y-8822984D02*
X7255848Y-8822984D01*
X7255848Y-8822984D02*
X7236801Y-8813460D01*
X7236801Y-8813460D02*
X7227277Y-8794412D01*
X7227277Y-8794412D02*
X7227277Y-8775365D01*
X7227277Y-8775365D02*
X7236801Y-8756317D01*
X7236801Y-8756317D02*
X7255848Y-8746793D01*
X7255848Y-8746793D02*
X7303467Y-8746793D01*
X7303467Y-8746793D02*
X7322515Y-8737270D01*
X7417753Y-8689650D02*
X7417753Y-8889650D01*
X7417753Y-8699174D02*
X7436801Y-8689650D01*
X7436801Y-8689650D02*
X7474896Y-8689650D01*
X7474896Y-8689650D02*
X7493943Y-8699174D01*
X7493943Y-8699174D02*
X7503467Y-8708698D01*
X7503467Y-8708698D02*
X7512991Y-8727746D01*
X7512991Y-8727746D02*
X7512991Y-8784889D01*
X7512991Y-8784889D02*
X7503467Y-8803936D01*
X7503467Y-8803936D02*
X7493943Y-8813460D01*
X7493943Y-8813460D02*
X7474896Y-8822984D01*
X7474896Y-8822984D02*
X7436801Y-8822984D01*
X7436801Y-8822984D02*
X7417753Y-8813460D01*
X7598705Y-8803936D02*
X7608229Y-8813460D01*
X7608229Y-8813460D02*
X7598705Y-8822984D01*
X7598705Y-8822984D02*
X7589182Y-8813460D01*
X7589182Y-8813460D02*
X7598705Y-8803936D01*
X7598705Y-8803936D02*
X7598705Y-8822984D01*
X7598705Y-8699174D02*
X7608229Y-8708698D01*
X7608229Y-8708698D02*
X7598705Y-8718222D01*
X7598705Y-8718222D02*
X7589182Y-8708698D01*
X7589182Y-8708698D02*
X7598705Y-8699174D01*
X7598705Y-8699174D02*
X7598705Y-8718222D01*
D12*
X5890300Y-9113400D02*
X5966500Y-9189600D01*
X5966500Y-9113400D02*
X5890300Y-9189600D01*
D11*
X6265372Y-9042984D02*
X6284420Y-9042984D01*
X6284420Y-9042984D02*
X6303467Y-9052508D01*
X6303467Y-9052508D02*
X6312991Y-9062031D01*
X6312991Y-9062031D02*
X6322515Y-9081079D01*
X6322515Y-9081079D02*
X6332039Y-9119174D01*
X6332039Y-9119174D02*
X6332039Y-9166793D01*
X6332039Y-9166793D02*
X6322515Y-9204889D01*
X6322515Y-9204889D02*
X6312991Y-9223936D01*
X6312991Y-9223936D02*
X6303467Y-9233460D01*
X6303467Y-9233460D02*
X6284420Y-9242984D01*
X6284420Y-9242984D02*
X6265372Y-9242984D01*
X6265372Y-9242984D02*
X6246324Y-9233460D01*
X6246324Y-9233460D02*
X6236801Y-9223936D01*
X6236801Y-9223936D02*
X6227277Y-9204889D01*
X6227277Y-9204889D02*
X6217753Y-9166793D01*
X6217753Y-9166793D02*
X6217753Y-9119174D01*
X6217753Y-9119174D02*
X6227277Y-9081079D01*
X6227277Y-9081079D02*
X6236801Y-9062031D01*
X6236801Y-9062031D02*
X6246324Y-9052508D01*
X6246324Y-9052508D02*
X6265372Y-9042984D01*
X6417753Y-9223936D02*
X6427277Y-9233460D01*
X6427277Y-9233460D02*
X6417753Y-9242984D01*
X6417753Y-9242984D02*
X6408229Y-9233460D01*
X6408229Y-9233460D02*
X6417753Y-9223936D01*
X6417753Y-9223936D02*
X6417753Y-9242984D01*
X6493943Y-9042984D02*
X6627277Y-9042984D01*
X6627277Y-9042984D02*
X6541562Y-9242984D01*
X6789182Y-9042984D02*
X6751086Y-9042984D01*
X6751086Y-9042984D02*
X6732039Y-9052508D01*
X6732039Y-9052508D02*
X6722515Y-9062031D01*
X6722515Y-9062031D02*
X6703467Y-9090603D01*
X6703467Y-9090603D02*
X6693943Y-9128698D01*
X6693943Y-9128698D02*
X6693943Y-9204889D01*
X6693943Y-9204889D02*
X6703467Y-9223936D01*
X6703467Y-9223936D02*
X6712991Y-9233460D01*
X6712991Y-9233460D02*
X6732039Y-9242984D01*
X6732039Y-9242984D02*
X6770134Y-9242984D01*
X6770134Y-9242984D02*
X6789182Y-9233460D01*
X6789182Y-9233460D02*
X6798705Y-9223936D01*
X6798705Y-9223936D02*
X6808229Y-9204889D01*
X6808229Y-9204889D02*
X6808229Y-9157270D01*
X6808229Y-9157270D02*
X6798705Y-9138222D01*
X6798705Y-9138222D02*
X6789182Y-9128698D01*
X6789182Y-9128698D02*
X6770134Y-9119174D01*
X6770134Y-9119174D02*
X6732039Y-9119174D01*
X6732039Y-9119174D02*
X6712991Y-9128698D01*
X6712991Y-9128698D02*
X6703467Y-9138222D01*
X6703467Y-9138222D02*
X6693943Y-9157270D01*
X6884420Y-9062031D02*
X6893943Y-9052508D01*
X6893943Y-9052508D02*
X6912991Y-9042984D01*
X6912991Y-9042984D02*
X6960610Y-9042984D01*
X6960610Y-9042984D02*
X6979658Y-9052508D01*
X6979658Y-9052508D02*
X6989182Y-9062031D01*
X6989182Y-9062031D02*
X6998705Y-9081079D01*
X6998705Y-9081079D02*
X6998705Y-9100127D01*
X6998705Y-9100127D02*
X6989182Y-9128698D01*
X6989182Y-9128698D02*
X6874896Y-9242984D01*
X6874896Y-9242984D02*
X6998705Y-9242984D01*
X7084420Y-9242984D02*
X7084420Y-9109650D01*
X7084420Y-9128698D02*
X7093943Y-9119174D01*
X7093943Y-9119174D02*
X7112991Y-9109650D01*
X7112991Y-9109650D02*
X7141563Y-9109650D01*
X7141563Y-9109650D02*
X7160610Y-9119174D01*
X7160610Y-9119174D02*
X7170134Y-9138222D01*
X7170134Y-9138222D02*
X7170134Y-9242984D01*
X7170134Y-9138222D02*
X7179658Y-9119174D01*
X7179658Y-9119174D02*
X7198705Y-9109650D01*
X7198705Y-9109650D02*
X7227277Y-9109650D01*
X7227277Y-9109650D02*
X7246324Y-9119174D01*
X7246324Y-9119174D02*
X7255848Y-9138222D01*
X7255848Y-9138222D02*
X7255848Y-9242984D01*
X7351086Y-9242984D02*
X7351086Y-9109650D01*
X7351086Y-9128698D02*
X7360610Y-9119174D01*
X7360610Y-9119174D02*
X7379658Y-9109650D01*
X7379658Y-9109650D02*
X7408229Y-9109650D01*
X7408229Y-9109650D02*
X7427277Y-9119174D01*
X7427277Y-9119174D02*
X7436801Y-9138222D01*
X7436801Y-9138222D02*
X7436801Y-9242984D01*
X7436801Y-9138222D02*
X7446324Y-9119174D01*
X7446324Y-9119174D02*
X7465372Y-9109650D01*
X7465372Y-9109650D02*
X7493943Y-9109650D01*
X7493943Y-9109650D02*
X7512991Y-9119174D01*
X7512991Y-9119174D02*
X7522515Y-9138222D01*
X7522515Y-9138222D02*
X7522515Y-9242984D01*
X7912991Y-9033460D02*
X7741563Y-9290603D01*
X8170134Y-9042984D02*
X8189182Y-9042984D01*
X8189182Y-9042984D02*
X8208229Y-9052508D01*
X8208229Y-9052508D02*
X8217753Y-9062031D01*
X8217753Y-9062031D02*
X8227277Y-9081079D01*
X8227277Y-9081079D02*
X8236801Y-9119174D01*
X8236801Y-9119174D02*
X8236801Y-9166793D01*
X8236801Y-9166793D02*
X8227277Y-9204889D01*
X8227277Y-9204889D02*
X8217753Y-9223936D01*
X8217753Y-9223936D02*
X8208229Y-9233460D01*
X8208229Y-9233460D02*
X8189182Y-9242984D01*
X8189182Y-9242984D02*
X8170134Y-9242984D01*
X8170134Y-9242984D02*
X8151086Y-9233460D01*
X8151086Y-9233460D02*
X8141563Y-9223936D01*
X8141563Y-9223936D02*
X8132039Y-9204889D01*
X8132039Y-9204889D02*
X8122515Y-9166793D01*
X8122515Y-9166793D02*
X8122515Y-9119174D01*
X8122515Y-9119174D02*
X8132039Y-9081079D01*
X8132039Y-9081079D02*
X8141563Y-9062031D01*
X8141563Y-9062031D02*
X8151086Y-9052508D01*
X8151086Y-9052508D02*
X8170134Y-9042984D01*
X8322515Y-9223936D02*
X8332039Y-9233460D01*
X8332039Y-9233460D02*
X8322515Y-9242984D01*
X8322515Y-9242984D02*
X8312991Y-9233460D01*
X8312991Y-9233460D02*
X8322515Y-9223936D01*
X8322515Y-9223936D02*
X8322515Y-9242984D01*
X8455848Y-9042984D02*
X8474896Y-9042984D01*
X8474896Y-9042984D02*
X8493944Y-9052508D01*
X8493944Y-9052508D02*
X8503468Y-9062031D01*
X8503468Y-9062031D02*
X8512991Y-9081079D01*
X8512991Y-9081079D02*
X8522515Y-9119174D01*
X8522515Y-9119174D02*
X8522515Y-9166793D01*
X8522515Y-9166793D02*
X8512991Y-9204889D01*
X8512991Y-9204889D02*
X8503468Y-9223936D01*
X8503468Y-9223936D02*
X8493944Y-9233460D01*
X8493944Y-9233460D02*
X8474896Y-9242984D01*
X8474896Y-9242984D02*
X8455848Y-9242984D01*
X8455848Y-9242984D02*
X8436801Y-9233460D01*
X8436801Y-9233460D02*
X8427277Y-9223936D01*
X8427277Y-9223936D02*
X8417753Y-9204889D01*
X8417753Y-9204889D02*
X8408229Y-9166793D01*
X8408229Y-9166793D02*
X8408229Y-9119174D01*
X8408229Y-9119174D02*
X8417753Y-9081079D01*
X8417753Y-9081079D02*
X8427277Y-9062031D01*
X8427277Y-9062031D02*
X8436801Y-9052508D01*
X8436801Y-9052508D02*
X8455848Y-9042984D01*
X8589182Y-9042984D02*
X8712991Y-9042984D01*
X8712991Y-9042984D02*
X8646325Y-9119174D01*
X8646325Y-9119174D02*
X8674896Y-9119174D01*
X8674896Y-9119174D02*
X8693944Y-9128698D01*
X8693944Y-9128698D02*
X8703468Y-9138222D01*
X8703468Y-9138222D02*
X8712991Y-9157270D01*
X8712991Y-9157270D02*
X8712991Y-9204889D01*
X8712991Y-9204889D02*
X8703468Y-9223936D01*
X8703468Y-9223936D02*
X8693944Y-9233460D01*
X8693944Y-9233460D02*
X8674896Y-9242984D01*
X8674896Y-9242984D02*
X8617753Y-9242984D01*
X8617753Y-9242984D02*
X8598706Y-9233460D01*
X8598706Y-9233460D02*
X8589182Y-9223936D01*
X8836801Y-9042984D02*
X8855849Y-9042984D01*
X8855849Y-9042984D02*
X8874896Y-9052508D01*
X8874896Y-9052508D02*
X8884420Y-9062031D01*
X8884420Y-9062031D02*
X8893944Y-9081079D01*
X8893944Y-9081079D02*
X8903468Y-9119174D01*
X8903468Y-9119174D02*
X8903468Y-9166793D01*
X8903468Y-9166793D02*
X8893944Y-9204889D01*
X8893944Y-9204889D02*
X8884420Y-9223936D01*
X8884420Y-9223936D02*
X8874896Y-9233460D01*
X8874896Y-9233460D02*
X8855849Y-9242984D01*
X8855849Y-9242984D02*
X8836801Y-9242984D01*
X8836801Y-9242984D02*
X8817753Y-9233460D01*
X8817753Y-9233460D02*
X8808229Y-9223936D01*
X8808229Y-9223936D02*
X8798706Y-9204889D01*
X8798706Y-9204889D02*
X8789182Y-9166793D01*
X8789182Y-9166793D02*
X8789182Y-9119174D01*
X8789182Y-9119174D02*
X8798706Y-9081079D01*
X8798706Y-9081079D02*
X8808229Y-9062031D01*
X8808229Y-9062031D02*
X8817753Y-9052508D01*
X8817753Y-9052508D02*
X8836801Y-9042984D01*
X9027277Y-9042984D02*
X9046325Y-9042984D01*
X9046325Y-9042984D02*
X9065372Y-9052508D01*
X9065372Y-9052508D02*
X9074896Y-9062031D01*
X9074896Y-9062031D02*
X9084420Y-9081079D01*
X9084420Y-9081079D02*
X9093944Y-9119174D01*
X9093944Y-9119174D02*
X9093944Y-9166793D01*
X9093944Y-9166793D02*
X9084420Y-9204889D01*
X9084420Y-9204889D02*
X9074896Y-9223936D01*
X9074896Y-9223936D02*
X9065372Y-9233460D01*
X9065372Y-9233460D02*
X9046325Y-9242984D01*
X9046325Y-9242984D02*
X9027277Y-9242984D01*
X9027277Y-9242984D02*
X9008229Y-9233460D01*
X9008229Y-9233460D02*
X8998706Y-9223936D01*
X8998706Y-9223936D02*
X8989182Y-9204889D01*
X8989182Y-9204889D02*
X8979658Y-9166793D01*
X8979658Y-9166793D02*
X8979658Y-9119174D01*
X8979658Y-9119174D02*
X8989182Y-9081079D01*
X8989182Y-9081079D02*
X8998706Y-9062031D01*
X8998706Y-9062031D02*
X9008229Y-9052508D01*
X9008229Y-9052508D02*
X9027277Y-9042984D01*
X9170134Y-9042984D02*
X9170134Y-9081079D01*
X9246325Y-9042984D02*
X9246325Y-9081079D01*
X9541563Y-9319174D02*
X9532039Y-9309650D01*
X9532039Y-9309650D02*
X9512991Y-9281079D01*
X9512991Y-9281079D02*
X9503468Y-9262031D01*
X9503468Y-9262031D02*
X9493944Y-9233460D01*
X9493944Y-9233460D02*
X9484420Y-9185841D01*
X9484420Y-9185841D02*
X9484420Y-9147746D01*
X9484420Y-9147746D02*
X9493944Y-9100127D01*
X9493944Y-9100127D02*
X9503468Y-9071555D01*
X9503468Y-9071555D02*
X9512991Y-9052508D01*
X9512991Y-9052508D02*
X9532039Y-9023936D01*
X9532039Y-9023936D02*
X9541563Y-9014412D01*
X9598706Y-9042984D02*
X9722515Y-9042984D01*
X9722515Y-9042984D02*
X9655849Y-9119174D01*
X9655849Y-9119174D02*
X9684420Y-9119174D01*
X9684420Y-9119174D02*
X9703468Y-9128698D01*
X9703468Y-9128698D02*
X9712991Y-9138222D01*
X9712991Y-9138222D02*
X9722515Y-9157270D01*
X9722515Y-9157270D02*
X9722515Y-9204889D01*
X9722515Y-9204889D02*
X9712991Y-9223936D01*
X9712991Y-9223936D02*
X9703468Y-9233460D01*
X9703468Y-9233460D02*
X9684420Y-9242984D01*
X9684420Y-9242984D02*
X9627277Y-9242984D01*
X9627277Y-9242984D02*
X9608230Y-9233460D01*
X9608230Y-9233460D02*
X9598706Y-9223936D01*
X9789182Y-9042984D02*
X9912991Y-9042984D01*
X9912991Y-9042984D02*
X9846325Y-9119174D01*
X9846325Y-9119174D02*
X9874896Y-9119174D01*
X9874896Y-9119174D02*
X9893944Y-9128698D01*
X9893944Y-9128698D02*
X9903468Y-9138222D01*
X9903468Y-9138222D02*
X9912991Y-9157270D01*
X9912991Y-9157270D02*
X9912991Y-9204889D01*
X9912991Y-9204889D02*
X9903468Y-9223936D01*
X9903468Y-9223936D02*
X9893944Y-9233460D01*
X9893944Y-9233460D02*
X9874896Y-9242984D01*
X9874896Y-9242984D02*
X9817753Y-9242984D01*
X9817753Y-9242984D02*
X9798706Y-9233460D01*
X9798706Y-9233460D02*
X9789182Y-9223936D01*
X10151087Y-9242984D02*
X10151087Y-9042984D01*
X10236801Y-9242984D02*
X10236801Y-9138222D01*
X10236801Y-9138222D02*
X10227277Y-9119174D01*
X10227277Y-9119174D02*
X10208230Y-9109650D01*
X10208230Y-9109650D02*
X10179658Y-9109650D01*
X10179658Y-9109650D02*
X10160611Y-9119174D01*
X10160611Y-9119174D02*
X10151087Y-9128698D01*
X10360611Y-9242984D02*
X10341563Y-9233460D01*
X10341563Y-9233460D02*
X10332039Y-9223936D01*
X10332039Y-9223936D02*
X10322515Y-9204889D01*
X10322515Y-9204889D02*
X10322515Y-9147746D01*
X10322515Y-9147746D02*
X10332039Y-9128698D01*
X10332039Y-9128698D02*
X10341563Y-9119174D01*
X10341563Y-9119174D02*
X10360611Y-9109650D01*
X10360611Y-9109650D02*
X10389182Y-9109650D01*
X10389182Y-9109650D02*
X10408230Y-9119174D01*
X10408230Y-9119174D02*
X10417753Y-9128698D01*
X10417753Y-9128698D02*
X10427277Y-9147746D01*
X10427277Y-9147746D02*
X10427277Y-9204889D01*
X10427277Y-9204889D02*
X10417753Y-9223936D01*
X10417753Y-9223936D02*
X10408230Y-9233460D01*
X10408230Y-9233460D02*
X10389182Y-9242984D01*
X10389182Y-9242984D02*
X10360611Y-9242984D01*
X10541563Y-9242984D02*
X10522515Y-9233460D01*
X10522515Y-9233460D02*
X10512992Y-9214412D01*
X10512992Y-9214412D02*
X10512992Y-9042984D01*
X10693944Y-9233460D02*
X10674896Y-9242984D01*
X10674896Y-9242984D02*
X10636801Y-9242984D01*
X10636801Y-9242984D02*
X10617753Y-9233460D01*
X10617753Y-9233460D02*
X10608230Y-9214412D01*
X10608230Y-9214412D02*
X10608230Y-9138222D01*
X10608230Y-9138222D02*
X10617753Y-9119174D01*
X10617753Y-9119174D02*
X10636801Y-9109650D01*
X10636801Y-9109650D02*
X10674896Y-9109650D01*
X10674896Y-9109650D02*
X10693944Y-9119174D01*
X10693944Y-9119174D02*
X10703468Y-9138222D01*
X10703468Y-9138222D02*
X10703468Y-9157270D01*
X10703468Y-9157270D02*
X10608230Y-9176317D01*
X10779658Y-9233460D02*
X10798706Y-9242984D01*
X10798706Y-9242984D02*
X10836801Y-9242984D01*
X10836801Y-9242984D02*
X10855849Y-9233460D01*
X10855849Y-9233460D02*
X10865373Y-9214412D01*
X10865373Y-9214412D02*
X10865373Y-9204889D01*
X10865373Y-9204889D02*
X10855849Y-9185841D01*
X10855849Y-9185841D02*
X10836801Y-9176317D01*
X10836801Y-9176317D02*
X10808230Y-9176317D01*
X10808230Y-9176317D02*
X10789182Y-9166793D01*
X10789182Y-9166793D02*
X10779658Y-9147746D01*
X10779658Y-9147746D02*
X10779658Y-9138222D01*
X10779658Y-9138222D02*
X10789182Y-9119174D01*
X10789182Y-9119174D02*
X10808230Y-9109650D01*
X10808230Y-9109650D02*
X10836801Y-9109650D01*
X10836801Y-9109650D02*
X10855849Y-9119174D01*
X10932039Y-9319174D02*
X10941563Y-9309650D01*
X10941563Y-9309650D02*
X10960611Y-9281079D01*
X10960611Y-9281079D02*
X10970134Y-9262031D01*
X10970134Y-9262031D02*
X10979658Y-9233460D01*
X10979658Y-9233460D02*
X10989182Y-9185841D01*
X10989182Y-9185841D02*
X10989182Y-9147746D01*
X10989182Y-9147746D02*
X10979658Y-9100127D01*
X10979658Y-9100127D02*
X10970134Y-9071555D01*
X10970134Y-9071555D02*
X10960611Y-9052508D01*
X10960611Y-9052508D02*
X10941563Y-9023936D01*
X10941563Y-9023936D02*
X10932039Y-9014412D01*
D12*
X5966500Y-9415500D02*
G75*
G02*
X5886500Y-9415500I-40000J0D01*
G01*
X5886500Y-9415500D02*
G75*
G02*
X5966500Y-9415500I40000J0D01*
G01*
D11*
X6265372Y-9306984D02*
X6284420Y-9306984D01*
X6284420Y-9306984D02*
X6303467Y-9316508D01*
X6303467Y-9316508D02*
X6312991Y-9326031D01*
X6312991Y-9326031D02*
X6322515Y-9345079D01*
X6322515Y-9345079D02*
X6332039Y-9383174D01*
X6332039Y-9383174D02*
X6332039Y-9430793D01*
X6332039Y-9430793D02*
X6322515Y-9468889D01*
X6322515Y-9468889D02*
X6312991Y-9487936D01*
X6312991Y-9487936D02*
X6303467Y-9497460D01*
X6303467Y-9497460D02*
X6284420Y-9506984D01*
X6284420Y-9506984D02*
X6265372Y-9506984D01*
X6265372Y-9506984D02*
X6246324Y-9497460D01*
X6246324Y-9497460D02*
X6236801Y-9487936D01*
X6236801Y-9487936D02*
X6227277Y-9468889D01*
X6227277Y-9468889D02*
X6217753Y-9430793D01*
X6217753Y-9430793D02*
X6217753Y-9383174D01*
X6217753Y-9383174D02*
X6227277Y-9345079D01*
X6227277Y-9345079D02*
X6236801Y-9326031D01*
X6236801Y-9326031D02*
X6246324Y-9316508D01*
X6246324Y-9316508D02*
X6265372Y-9306984D01*
X6417753Y-9487936D02*
X6427277Y-9497460D01*
X6427277Y-9497460D02*
X6417753Y-9506984D01*
X6417753Y-9506984D02*
X6408229Y-9497460D01*
X6408229Y-9497460D02*
X6417753Y-9487936D01*
X6417753Y-9487936D02*
X6417753Y-9506984D01*
X6541562Y-9392698D02*
X6522515Y-9383174D01*
X6522515Y-9383174D02*
X6512991Y-9373650D01*
X6512991Y-9373650D02*
X6503467Y-9354603D01*
X6503467Y-9354603D02*
X6503467Y-9345079D01*
X6503467Y-9345079D02*
X6512991Y-9326031D01*
X6512991Y-9326031D02*
X6522515Y-9316508D01*
X6522515Y-9316508D02*
X6541562Y-9306984D01*
X6541562Y-9306984D02*
X6579658Y-9306984D01*
X6579658Y-9306984D02*
X6598705Y-9316508D01*
X6598705Y-9316508D02*
X6608229Y-9326031D01*
X6608229Y-9326031D02*
X6617753Y-9345079D01*
X6617753Y-9345079D02*
X6617753Y-9354603D01*
X6617753Y-9354603D02*
X6608229Y-9373650D01*
X6608229Y-9373650D02*
X6598705Y-9383174D01*
X6598705Y-9383174D02*
X6579658Y-9392698D01*
X6579658Y-9392698D02*
X6541562Y-9392698D01*
X6541562Y-9392698D02*
X6522515Y-9402222D01*
X6522515Y-9402222D02*
X6512991Y-9411746D01*
X6512991Y-9411746D02*
X6503467Y-9430793D01*
X6503467Y-9430793D02*
X6503467Y-9468889D01*
X6503467Y-9468889D02*
X6512991Y-9487936D01*
X6512991Y-9487936D02*
X6522515Y-9497460D01*
X6522515Y-9497460D02*
X6541562Y-9506984D01*
X6541562Y-9506984D02*
X6579658Y-9506984D01*
X6579658Y-9506984D02*
X6598705Y-9497460D01*
X6598705Y-9497460D02*
X6608229Y-9487936D01*
X6608229Y-9487936D02*
X6617753Y-9468889D01*
X6617753Y-9468889D02*
X6617753Y-9430793D01*
X6617753Y-9430793D02*
X6608229Y-9411746D01*
X6608229Y-9411746D02*
X6598705Y-9402222D01*
X6598705Y-9402222D02*
X6579658Y-9392698D01*
X6741562Y-9306984D02*
X6760610Y-9306984D01*
X6760610Y-9306984D02*
X6779658Y-9316508D01*
X6779658Y-9316508D02*
X6789182Y-9326031D01*
X6789182Y-9326031D02*
X6798705Y-9345079D01*
X6798705Y-9345079D02*
X6808229Y-9383174D01*
X6808229Y-9383174D02*
X6808229Y-9430793D01*
X6808229Y-9430793D02*
X6798705Y-9468889D01*
X6798705Y-9468889D02*
X6789182Y-9487936D01*
X6789182Y-9487936D02*
X6779658Y-9497460D01*
X6779658Y-9497460D02*
X6760610Y-9506984D01*
X6760610Y-9506984D02*
X6741562Y-9506984D01*
X6741562Y-9506984D02*
X6722515Y-9497460D01*
X6722515Y-9497460D02*
X6712991Y-9487936D01*
X6712991Y-9487936D02*
X6703467Y-9468889D01*
X6703467Y-9468889D02*
X6693943Y-9430793D01*
X6693943Y-9430793D02*
X6693943Y-9383174D01*
X6693943Y-9383174D02*
X6703467Y-9345079D01*
X6703467Y-9345079D02*
X6712991Y-9326031D01*
X6712991Y-9326031D02*
X6722515Y-9316508D01*
X6722515Y-9316508D02*
X6741562Y-9306984D01*
X6932039Y-9306984D02*
X6951086Y-9306984D01*
X6951086Y-9306984D02*
X6970134Y-9316508D01*
X6970134Y-9316508D02*
X6979658Y-9326031D01*
X6979658Y-9326031D02*
X6989182Y-9345079D01*
X6989182Y-9345079D02*
X6998705Y-9383174D01*
X6998705Y-9383174D02*
X6998705Y-9430793D01*
X6998705Y-9430793D02*
X6989182Y-9468889D01*
X6989182Y-9468889D02*
X6979658Y-9487936D01*
X6979658Y-9487936D02*
X6970134Y-9497460D01*
X6970134Y-9497460D02*
X6951086Y-9506984D01*
X6951086Y-9506984D02*
X6932039Y-9506984D01*
X6932039Y-9506984D02*
X6912991Y-9497460D01*
X6912991Y-9497460D02*
X6903467Y-9487936D01*
X6903467Y-9487936D02*
X6893943Y-9468889D01*
X6893943Y-9468889D02*
X6884420Y-9430793D01*
X6884420Y-9430793D02*
X6884420Y-9383174D01*
X6884420Y-9383174D02*
X6893943Y-9345079D01*
X6893943Y-9345079D02*
X6903467Y-9326031D01*
X6903467Y-9326031D02*
X6912991Y-9316508D01*
X6912991Y-9316508D02*
X6932039Y-9306984D01*
X7084420Y-9506984D02*
X7084420Y-9373650D01*
X7084420Y-9392698D02*
X7093943Y-9383174D01*
X7093943Y-9383174D02*
X7112991Y-9373650D01*
X7112991Y-9373650D02*
X7141563Y-9373650D01*
X7141563Y-9373650D02*
X7160610Y-9383174D01*
X7160610Y-9383174D02*
X7170134Y-9402222D01*
X7170134Y-9402222D02*
X7170134Y-9506984D01*
X7170134Y-9402222D02*
X7179658Y-9383174D01*
X7179658Y-9383174D02*
X7198705Y-9373650D01*
X7198705Y-9373650D02*
X7227277Y-9373650D01*
X7227277Y-9373650D02*
X7246324Y-9383174D01*
X7246324Y-9383174D02*
X7255848Y-9402222D01*
X7255848Y-9402222D02*
X7255848Y-9506984D01*
X7351086Y-9506984D02*
X7351086Y-9373650D01*
X7351086Y-9392698D02*
X7360610Y-9383174D01*
X7360610Y-9383174D02*
X7379658Y-9373650D01*
X7379658Y-9373650D02*
X7408229Y-9373650D01*
X7408229Y-9373650D02*
X7427277Y-9383174D01*
X7427277Y-9383174D02*
X7436801Y-9402222D01*
X7436801Y-9402222D02*
X7436801Y-9506984D01*
X7436801Y-9402222D02*
X7446324Y-9383174D01*
X7446324Y-9383174D02*
X7465372Y-9373650D01*
X7465372Y-9373650D02*
X7493943Y-9373650D01*
X7493943Y-9373650D02*
X7512991Y-9383174D01*
X7512991Y-9383174D02*
X7522515Y-9402222D01*
X7522515Y-9402222D02*
X7522515Y-9506984D01*
X7912991Y-9297460D02*
X7741563Y-9554603D01*
X8170134Y-9306984D02*
X8189182Y-9306984D01*
X8189182Y-9306984D02*
X8208229Y-9316508D01*
X8208229Y-9316508D02*
X8217753Y-9326031D01*
X8217753Y-9326031D02*
X8227277Y-9345079D01*
X8227277Y-9345079D02*
X8236801Y-9383174D01*
X8236801Y-9383174D02*
X8236801Y-9430793D01*
X8236801Y-9430793D02*
X8227277Y-9468889D01*
X8227277Y-9468889D02*
X8217753Y-9487936D01*
X8217753Y-9487936D02*
X8208229Y-9497460D01*
X8208229Y-9497460D02*
X8189182Y-9506984D01*
X8189182Y-9506984D02*
X8170134Y-9506984D01*
X8170134Y-9506984D02*
X8151086Y-9497460D01*
X8151086Y-9497460D02*
X8141563Y-9487936D01*
X8141563Y-9487936D02*
X8132039Y-9468889D01*
X8132039Y-9468889D02*
X8122515Y-9430793D01*
X8122515Y-9430793D02*
X8122515Y-9383174D01*
X8122515Y-9383174D02*
X8132039Y-9345079D01*
X8132039Y-9345079D02*
X8141563Y-9326031D01*
X8141563Y-9326031D02*
X8151086Y-9316508D01*
X8151086Y-9316508D02*
X8170134Y-9306984D01*
X8322515Y-9487936D02*
X8332039Y-9497460D01*
X8332039Y-9497460D02*
X8322515Y-9506984D01*
X8322515Y-9506984D02*
X8312991Y-9497460D01*
X8312991Y-9497460D02*
X8322515Y-9487936D01*
X8322515Y-9487936D02*
X8322515Y-9506984D01*
X8455848Y-9306984D02*
X8474896Y-9306984D01*
X8474896Y-9306984D02*
X8493944Y-9316508D01*
X8493944Y-9316508D02*
X8503468Y-9326031D01*
X8503468Y-9326031D02*
X8512991Y-9345079D01*
X8512991Y-9345079D02*
X8522515Y-9383174D01*
X8522515Y-9383174D02*
X8522515Y-9430793D01*
X8522515Y-9430793D02*
X8512991Y-9468889D01*
X8512991Y-9468889D02*
X8503468Y-9487936D01*
X8503468Y-9487936D02*
X8493944Y-9497460D01*
X8493944Y-9497460D02*
X8474896Y-9506984D01*
X8474896Y-9506984D02*
X8455848Y-9506984D01*
X8455848Y-9506984D02*
X8436801Y-9497460D01*
X8436801Y-9497460D02*
X8427277Y-9487936D01*
X8427277Y-9487936D02*
X8417753Y-9468889D01*
X8417753Y-9468889D02*
X8408229Y-9430793D01*
X8408229Y-9430793D02*
X8408229Y-9383174D01*
X8408229Y-9383174D02*
X8417753Y-9345079D01*
X8417753Y-9345079D02*
X8427277Y-9326031D01*
X8427277Y-9326031D02*
X8436801Y-9316508D01*
X8436801Y-9316508D02*
X8455848Y-9306984D01*
X8589182Y-9306984D02*
X8712991Y-9306984D01*
X8712991Y-9306984D02*
X8646325Y-9383174D01*
X8646325Y-9383174D02*
X8674896Y-9383174D01*
X8674896Y-9383174D02*
X8693944Y-9392698D01*
X8693944Y-9392698D02*
X8703468Y-9402222D01*
X8703468Y-9402222D02*
X8712991Y-9421270D01*
X8712991Y-9421270D02*
X8712991Y-9468889D01*
X8712991Y-9468889D02*
X8703468Y-9487936D01*
X8703468Y-9487936D02*
X8693944Y-9497460D01*
X8693944Y-9497460D02*
X8674896Y-9506984D01*
X8674896Y-9506984D02*
X8617753Y-9506984D01*
X8617753Y-9506984D02*
X8598706Y-9497460D01*
X8598706Y-9497460D02*
X8589182Y-9487936D01*
X8903468Y-9506984D02*
X8789182Y-9506984D01*
X8846325Y-9506984D02*
X8846325Y-9306984D01*
X8846325Y-9306984D02*
X8827277Y-9335555D01*
X8827277Y-9335555D02*
X8808229Y-9354603D01*
X8808229Y-9354603D02*
X8789182Y-9364127D01*
X9084420Y-9306984D02*
X8989182Y-9306984D01*
X8989182Y-9306984D02*
X8979658Y-9402222D01*
X8979658Y-9402222D02*
X8989182Y-9392698D01*
X8989182Y-9392698D02*
X9008229Y-9383174D01*
X9008229Y-9383174D02*
X9055849Y-9383174D01*
X9055849Y-9383174D02*
X9074896Y-9392698D01*
X9074896Y-9392698D02*
X9084420Y-9402222D01*
X9084420Y-9402222D02*
X9093944Y-9421270D01*
X9093944Y-9421270D02*
X9093944Y-9468889D01*
X9093944Y-9468889D02*
X9084420Y-9487936D01*
X9084420Y-9487936D02*
X9074896Y-9497460D01*
X9074896Y-9497460D02*
X9055849Y-9506984D01*
X9055849Y-9506984D02*
X9008229Y-9506984D01*
X9008229Y-9506984D02*
X8989182Y-9497460D01*
X8989182Y-9497460D02*
X8979658Y-9487936D01*
X9170134Y-9306984D02*
X9170134Y-9345079D01*
X9246325Y-9306984D02*
X9246325Y-9345079D01*
X9541563Y-9583174D02*
X9532039Y-9573650D01*
X9532039Y-9573650D02*
X9512991Y-9545079D01*
X9512991Y-9545079D02*
X9503468Y-9526031D01*
X9503468Y-9526031D02*
X9493944Y-9497460D01*
X9493944Y-9497460D02*
X9484420Y-9449841D01*
X9484420Y-9449841D02*
X9484420Y-9411746D01*
X9484420Y-9411746D02*
X9493944Y-9364127D01*
X9493944Y-9364127D02*
X9503468Y-9335555D01*
X9503468Y-9335555D02*
X9512991Y-9316508D01*
X9512991Y-9316508D02*
X9532039Y-9287936D01*
X9532039Y-9287936D02*
X9541563Y-9278412D01*
X9712991Y-9306984D02*
X9617753Y-9306984D01*
X9617753Y-9306984D02*
X9608230Y-9402222D01*
X9608230Y-9402222D02*
X9617753Y-9392698D01*
X9617753Y-9392698D02*
X9636801Y-9383174D01*
X9636801Y-9383174D02*
X9684420Y-9383174D01*
X9684420Y-9383174D02*
X9703468Y-9392698D01*
X9703468Y-9392698D02*
X9712991Y-9402222D01*
X9712991Y-9402222D02*
X9722515Y-9421270D01*
X9722515Y-9421270D02*
X9722515Y-9468889D01*
X9722515Y-9468889D02*
X9712991Y-9487936D01*
X9712991Y-9487936D02*
X9703468Y-9497460D01*
X9703468Y-9497460D02*
X9684420Y-9506984D01*
X9684420Y-9506984D02*
X9636801Y-9506984D01*
X9636801Y-9506984D02*
X9617753Y-9497460D01*
X9617753Y-9497460D02*
X9608230Y-9487936D01*
X9846325Y-9306984D02*
X9865372Y-9306984D01*
X9865372Y-9306984D02*
X9884420Y-9316508D01*
X9884420Y-9316508D02*
X9893944Y-9326031D01*
X9893944Y-9326031D02*
X9903468Y-9345079D01*
X9903468Y-9345079D02*
X9912991Y-9383174D01*
X9912991Y-9383174D02*
X9912991Y-9430793D01*
X9912991Y-9430793D02*
X9903468Y-9468889D01*
X9903468Y-9468889D02*
X9893944Y-9487936D01*
X9893944Y-9487936D02*
X9884420Y-9497460D01*
X9884420Y-9497460D02*
X9865372Y-9506984D01*
X9865372Y-9506984D02*
X9846325Y-9506984D01*
X9846325Y-9506984D02*
X9827277Y-9497460D01*
X9827277Y-9497460D02*
X9817753Y-9487936D01*
X9817753Y-9487936D02*
X9808230Y-9468889D01*
X9808230Y-9468889D02*
X9798706Y-9430793D01*
X9798706Y-9430793D02*
X9798706Y-9383174D01*
X9798706Y-9383174D02*
X9808230Y-9345079D01*
X9808230Y-9345079D02*
X9817753Y-9326031D01*
X9817753Y-9326031D02*
X9827277Y-9316508D01*
X9827277Y-9316508D02*
X9846325Y-9306984D01*
X10151087Y-9506984D02*
X10151087Y-9306984D01*
X10236801Y-9506984D02*
X10236801Y-9402222D01*
X10236801Y-9402222D02*
X10227277Y-9383174D01*
X10227277Y-9383174D02*
X10208230Y-9373650D01*
X10208230Y-9373650D02*
X10179658Y-9373650D01*
X10179658Y-9373650D02*
X10160611Y-9383174D01*
X10160611Y-9383174D02*
X10151087Y-9392698D01*
X10360611Y-9506984D02*
X10341563Y-9497460D01*
X10341563Y-9497460D02*
X10332039Y-9487936D01*
X10332039Y-9487936D02*
X10322515Y-9468889D01*
X10322515Y-9468889D02*
X10322515Y-9411746D01*
X10322515Y-9411746D02*
X10332039Y-9392698D01*
X10332039Y-9392698D02*
X10341563Y-9383174D01*
X10341563Y-9383174D02*
X10360611Y-9373650D01*
X10360611Y-9373650D02*
X10389182Y-9373650D01*
X10389182Y-9373650D02*
X10408230Y-9383174D01*
X10408230Y-9383174D02*
X10417753Y-9392698D01*
X10417753Y-9392698D02*
X10427277Y-9411746D01*
X10427277Y-9411746D02*
X10427277Y-9468889D01*
X10427277Y-9468889D02*
X10417753Y-9487936D01*
X10417753Y-9487936D02*
X10408230Y-9497460D01*
X10408230Y-9497460D02*
X10389182Y-9506984D01*
X10389182Y-9506984D02*
X10360611Y-9506984D01*
X10541563Y-9506984D02*
X10522515Y-9497460D01*
X10522515Y-9497460D02*
X10512992Y-9478412D01*
X10512992Y-9478412D02*
X10512992Y-9306984D01*
X10693944Y-9497460D02*
X10674896Y-9506984D01*
X10674896Y-9506984D02*
X10636801Y-9506984D01*
X10636801Y-9506984D02*
X10617753Y-9497460D01*
X10617753Y-9497460D02*
X10608230Y-9478412D01*
X10608230Y-9478412D02*
X10608230Y-9402222D01*
X10608230Y-9402222D02*
X10617753Y-9383174D01*
X10617753Y-9383174D02*
X10636801Y-9373650D01*
X10636801Y-9373650D02*
X10674896Y-9373650D01*
X10674896Y-9373650D02*
X10693944Y-9383174D01*
X10693944Y-9383174D02*
X10703468Y-9402222D01*
X10703468Y-9402222D02*
X10703468Y-9421270D01*
X10703468Y-9421270D02*
X10608230Y-9440317D01*
X10779658Y-9497460D02*
X10798706Y-9506984D01*
X10798706Y-9506984D02*
X10836801Y-9506984D01*
X10836801Y-9506984D02*
X10855849Y-9497460D01*
X10855849Y-9497460D02*
X10865373Y-9478412D01*
X10865373Y-9478412D02*
X10865373Y-9468889D01*
X10865373Y-9468889D02*
X10855849Y-9449841D01*
X10855849Y-9449841D02*
X10836801Y-9440317D01*
X10836801Y-9440317D02*
X10808230Y-9440317D01*
X10808230Y-9440317D02*
X10789182Y-9430793D01*
X10789182Y-9430793D02*
X10779658Y-9411746D01*
X10779658Y-9411746D02*
X10779658Y-9402222D01*
X10779658Y-9402222D02*
X10789182Y-9383174D01*
X10789182Y-9383174D02*
X10808230Y-9373650D01*
X10808230Y-9373650D02*
X10836801Y-9373650D01*
X10836801Y-9373650D02*
X10855849Y-9383174D01*
X10932039Y-9583174D02*
X10941563Y-9573650D01*
X10941563Y-9573650D02*
X10960611Y-9545079D01*
X10960611Y-9545079D02*
X10970134Y-9526031D01*
X10970134Y-9526031D02*
X10979658Y-9497460D01*
X10979658Y-9497460D02*
X10989182Y-9449841D01*
X10989182Y-9449841D02*
X10989182Y-9411746D01*
X10989182Y-9411746D02*
X10979658Y-9364127D01*
X10979658Y-9364127D02*
X10970134Y-9335555D01*
X10970134Y-9335555D02*
X10960611Y-9316508D01*
X10960611Y-9316508D02*
X10941563Y-9287936D01*
X10941563Y-9287936D02*
X10932039Y-9278412D01*
D12*
X5924000Y-9637000D02*
X5924000Y-9722000D01*
X5881500Y-9679500D02*
X5966500Y-9679500D01*
D11*
X6265372Y-9570984D02*
X6284420Y-9570984D01*
X6284420Y-9570984D02*
X6303467Y-9580508D01*
X6303467Y-9580508D02*
X6312991Y-9590031D01*
X6312991Y-9590031D02*
X6322515Y-9609079D01*
X6322515Y-9609079D02*
X6332039Y-9647174D01*
X6332039Y-9647174D02*
X6332039Y-9694793D01*
X6332039Y-9694793D02*
X6322515Y-9732889D01*
X6322515Y-9732889D02*
X6312991Y-9751936D01*
X6312991Y-9751936D02*
X6303467Y-9761460D01*
X6303467Y-9761460D02*
X6284420Y-9770984D01*
X6284420Y-9770984D02*
X6265372Y-9770984D01*
X6265372Y-9770984D02*
X6246324Y-9761460D01*
X6246324Y-9761460D02*
X6236801Y-9751936D01*
X6236801Y-9751936D02*
X6227277Y-9732889D01*
X6227277Y-9732889D02*
X6217753Y-9694793D01*
X6217753Y-9694793D02*
X6217753Y-9647174D01*
X6217753Y-9647174D02*
X6227277Y-9609079D01*
X6227277Y-9609079D02*
X6236801Y-9590031D01*
X6236801Y-9590031D02*
X6246324Y-9580508D01*
X6246324Y-9580508D02*
X6265372Y-9570984D01*
X6417753Y-9751936D02*
X6427277Y-9761460D01*
X6427277Y-9761460D02*
X6417753Y-9770984D01*
X6417753Y-9770984D02*
X6408229Y-9761460D01*
X6408229Y-9761460D02*
X6417753Y-9751936D01*
X6417753Y-9751936D02*
X6417753Y-9770984D01*
X6541562Y-9656698D02*
X6522515Y-9647174D01*
X6522515Y-9647174D02*
X6512991Y-9637650D01*
X6512991Y-9637650D02*
X6503467Y-9618603D01*
X6503467Y-9618603D02*
X6503467Y-9609079D01*
X6503467Y-9609079D02*
X6512991Y-9590031D01*
X6512991Y-9590031D02*
X6522515Y-9580508D01*
X6522515Y-9580508D02*
X6541562Y-9570984D01*
X6541562Y-9570984D02*
X6579658Y-9570984D01*
X6579658Y-9570984D02*
X6598705Y-9580508D01*
X6598705Y-9580508D02*
X6608229Y-9590031D01*
X6608229Y-9590031D02*
X6617753Y-9609079D01*
X6617753Y-9609079D02*
X6617753Y-9618603D01*
X6617753Y-9618603D02*
X6608229Y-9637650D01*
X6608229Y-9637650D02*
X6598705Y-9647174D01*
X6598705Y-9647174D02*
X6579658Y-9656698D01*
X6579658Y-9656698D02*
X6541562Y-9656698D01*
X6541562Y-9656698D02*
X6522515Y-9666222D01*
X6522515Y-9666222D02*
X6512991Y-9675746D01*
X6512991Y-9675746D02*
X6503467Y-9694793D01*
X6503467Y-9694793D02*
X6503467Y-9732889D01*
X6503467Y-9732889D02*
X6512991Y-9751936D01*
X6512991Y-9751936D02*
X6522515Y-9761460D01*
X6522515Y-9761460D02*
X6541562Y-9770984D01*
X6541562Y-9770984D02*
X6579658Y-9770984D01*
X6579658Y-9770984D02*
X6598705Y-9761460D01*
X6598705Y-9761460D02*
X6608229Y-9751936D01*
X6608229Y-9751936D02*
X6617753Y-9732889D01*
X6617753Y-9732889D02*
X6617753Y-9694793D01*
X6617753Y-9694793D02*
X6608229Y-9675746D01*
X6608229Y-9675746D02*
X6598705Y-9666222D01*
X6598705Y-9666222D02*
X6579658Y-9656698D01*
X6798705Y-9570984D02*
X6703467Y-9570984D01*
X6703467Y-9570984D02*
X6693943Y-9666222D01*
X6693943Y-9666222D02*
X6703467Y-9656698D01*
X6703467Y-9656698D02*
X6722515Y-9647174D01*
X6722515Y-9647174D02*
X6770134Y-9647174D01*
X6770134Y-9647174D02*
X6789182Y-9656698D01*
X6789182Y-9656698D02*
X6798705Y-9666222D01*
X6798705Y-9666222D02*
X6808229Y-9685270D01*
X6808229Y-9685270D02*
X6808229Y-9732889D01*
X6808229Y-9732889D02*
X6798705Y-9751936D01*
X6798705Y-9751936D02*
X6789182Y-9761460D01*
X6789182Y-9761460D02*
X6770134Y-9770984D01*
X6770134Y-9770984D02*
X6722515Y-9770984D01*
X6722515Y-9770984D02*
X6703467Y-9761460D01*
X6703467Y-9761460D02*
X6693943Y-9751936D01*
X6932039Y-9570984D02*
X6951086Y-9570984D01*
X6951086Y-9570984D02*
X6970134Y-9580508D01*
X6970134Y-9580508D02*
X6979658Y-9590031D01*
X6979658Y-9590031D02*
X6989182Y-9609079D01*
X6989182Y-9609079D02*
X6998705Y-9647174D01*
X6998705Y-9647174D02*
X6998705Y-9694793D01*
X6998705Y-9694793D02*
X6989182Y-9732889D01*
X6989182Y-9732889D02*
X6979658Y-9751936D01*
X6979658Y-9751936D02*
X6970134Y-9761460D01*
X6970134Y-9761460D02*
X6951086Y-9770984D01*
X6951086Y-9770984D02*
X6932039Y-9770984D01*
X6932039Y-9770984D02*
X6912991Y-9761460D01*
X6912991Y-9761460D02*
X6903467Y-9751936D01*
X6903467Y-9751936D02*
X6893943Y-9732889D01*
X6893943Y-9732889D02*
X6884420Y-9694793D01*
X6884420Y-9694793D02*
X6884420Y-9647174D01*
X6884420Y-9647174D02*
X6893943Y-9609079D01*
X6893943Y-9609079D02*
X6903467Y-9590031D01*
X6903467Y-9590031D02*
X6912991Y-9580508D01*
X6912991Y-9580508D02*
X6932039Y-9570984D01*
X7084420Y-9770984D02*
X7084420Y-9637650D01*
X7084420Y-9656698D02*
X7093943Y-9647174D01*
X7093943Y-9647174D02*
X7112991Y-9637650D01*
X7112991Y-9637650D02*
X7141563Y-9637650D01*
X7141563Y-9637650D02*
X7160610Y-9647174D01*
X7160610Y-9647174D02*
X7170134Y-9666222D01*
X7170134Y-9666222D02*
X7170134Y-9770984D01*
X7170134Y-9666222D02*
X7179658Y-9647174D01*
X7179658Y-9647174D02*
X7198705Y-9637650D01*
X7198705Y-9637650D02*
X7227277Y-9637650D01*
X7227277Y-9637650D02*
X7246324Y-9647174D01*
X7246324Y-9647174D02*
X7255848Y-9666222D01*
X7255848Y-9666222D02*
X7255848Y-9770984D01*
X7351086Y-9770984D02*
X7351086Y-9637650D01*
X7351086Y-9656698D02*
X7360610Y-9647174D01*
X7360610Y-9647174D02*
X7379658Y-9637650D01*
X7379658Y-9637650D02*
X7408229Y-9637650D01*
X7408229Y-9637650D02*
X7427277Y-9647174D01*
X7427277Y-9647174D02*
X7436801Y-9666222D01*
X7436801Y-9666222D02*
X7436801Y-9770984D01*
X7436801Y-9666222D02*
X7446324Y-9647174D01*
X7446324Y-9647174D02*
X7465372Y-9637650D01*
X7465372Y-9637650D02*
X7493943Y-9637650D01*
X7493943Y-9637650D02*
X7512991Y-9647174D01*
X7512991Y-9647174D02*
X7522515Y-9666222D01*
X7522515Y-9666222D02*
X7522515Y-9770984D01*
X7912991Y-9561460D02*
X7741563Y-9818603D01*
X8170134Y-9570984D02*
X8189182Y-9570984D01*
X8189182Y-9570984D02*
X8208229Y-9580508D01*
X8208229Y-9580508D02*
X8217753Y-9590031D01*
X8217753Y-9590031D02*
X8227277Y-9609079D01*
X8227277Y-9609079D02*
X8236801Y-9647174D01*
X8236801Y-9647174D02*
X8236801Y-9694793D01*
X8236801Y-9694793D02*
X8227277Y-9732889D01*
X8227277Y-9732889D02*
X8217753Y-9751936D01*
X8217753Y-9751936D02*
X8208229Y-9761460D01*
X8208229Y-9761460D02*
X8189182Y-9770984D01*
X8189182Y-9770984D02*
X8170134Y-9770984D01*
X8170134Y-9770984D02*
X8151086Y-9761460D01*
X8151086Y-9761460D02*
X8141563Y-9751936D01*
X8141563Y-9751936D02*
X8132039Y-9732889D01*
X8132039Y-9732889D02*
X8122515Y-9694793D01*
X8122515Y-9694793D02*
X8122515Y-9647174D01*
X8122515Y-9647174D02*
X8132039Y-9609079D01*
X8132039Y-9609079D02*
X8141563Y-9590031D01*
X8141563Y-9590031D02*
X8151086Y-9580508D01*
X8151086Y-9580508D02*
X8170134Y-9570984D01*
X8322515Y-9751936D02*
X8332039Y-9761460D01*
X8332039Y-9761460D02*
X8322515Y-9770984D01*
X8322515Y-9770984D02*
X8312991Y-9761460D01*
X8312991Y-9761460D02*
X8322515Y-9751936D01*
X8322515Y-9751936D02*
X8322515Y-9770984D01*
X8455848Y-9570984D02*
X8474896Y-9570984D01*
X8474896Y-9570984D02*
X8493944Y-9580508D01*
X8493944Y-9580508D02*
X8503468Y-9590031D01*
X8503468Y-9590031D02*
X8512991Y-9609079D01*
X8512991Y-9609079D02*
X8522515Y-9647174D01*
X8522515Y-9647174D02*
X8522515Y-9694793D01*
X8522515Y-9694793D02*
X8512991Y-9732889D01*
X8512991Y-9732889D02*
X8503468Y-9751936D01*
X8503468Y-9751936D02*
X8493944Y-9761460D01*
X8493944Y-9761460D02*
X8474896Y-9770984D01*
X8474896Y-9770984D02*
X8455848Y-9770984D01*
X8455848Y-9770984D02*
X8436801Y-9761460D01*
X8436801Y-9761460D02*
X8427277Y-9751936D01*
X8427277Y-9751936D02*
X8417753Y-9732889D01*
X8417753Y-9732889D02*
X8408229Y-9694793D01*
X8408229Y-9694793D02*
X8408229Y-9647174D01*
X8408229Y-9647174D02*
X8417753Y-9609079D01*
X8417753Y-9609079D02*
X8427277Y-9590031D01*
X8427277Y-9590031D02*
X8436801Y-9580508D01*
X8436801Y-9580508D02*
X8455848Y-9570984D01*
X8589182Y-9570984D02*
X8712991Y-9570984D01*
X8712991Y-9570984D02*
X8646325Y-9647174D01*
X8646325Y-9647174D02*
X8674896Y-9647174D01*
X8674896Y-9647174D02*
X8693944Y-9656698D01*
X8693944Y-9656698D02*
X8703468Y-9666222D01*
X8703468Y-9666222D02*
X8712991Y-9685270D01*
X8712991Y-9685270D02*
X8712991Y-9732889D01*
X8712991Y-9732889D02*
X8703468Y-9751936D01*
X8703468Y-9751936D02*
X8693944Y-9761460D01*
X8693944Y-9761460D02*
X8674896Y-9770984D01*
X8674896Y-9770984D02*
X8617753Y-9770984D01*
X8617753Y-9770984D02*
X8598706Y-9761460D01*
X8598706Y-9761460D02*
X8589182Y-9751936D01*
X8779658Y-9570984D02*
X8903468Y-9570984D01*
X8903468Y-9570984D02*
X8836801Y-9647174D01*
X8836801Y-9647174D02*
X8865372Y-9647174D01*
X8865372Y-9647174D02*
X8884420Y-9656698D01*
X8884420Y-9656698D02*
X8893944Y-9666222D01*
X8893944Y-9666222D02*
X8903468Y-9685270D01*
X8903468Y-9685270D02*
X8903468Y-9732889D01*
X8903468Y-9732889D02*
X8893944Y-9751936D01*
X8893944Y-9751936D02*
X8884420Y-9761460D01*
X8884420Y-9761460D02*
X8865372Y-9770984D01*
X8865372Y-9770984D02*
X8808229Y-9770984D01*
X8808229Y-9770984D02*
X8789182Y-9761460D01*
X8789182Y-9761460D02*
X8779658Y-9751936D01*
X9084420Y-9570984D02*
X8989182Y-9570984D01*
X8989182Y-9570984D02*
X8979658Y-9666222D01*
X8979658Y-9666222D02*
X8989182Y-9656698D01*
X8989182Y-9656698D02*
X9008229Y-9647174D01*
X9008229Y-9647174D02*
X9055849Y-9647174D01*
X9055849Y-9647174D02*
X9074896Y-9656698D01*
X9074896Y-9656698D02*
X9084420Y-9666222D01*
X9084420Y-9666222D02*
X9093944Y-9685270D01*
X9093944Y-9685270D02*
X9093944Y-9732889D01*
X9093944Y-9732889D02*
X9084420Y-9751936D01*
X9084420Y-9751936D02*
X9074896Y-9761460D01*
X9074896Y-9761460D02*
X9055849Y-9770984D01*
X9055849Y-9770984D02*
X9008229Y-9770984D01*
X9008229Y-9770984D02*
X8989182Y-9761460D01*
X8989182Y-9761460D02*
X8979658Y-9751936D01*
X9170134Y-9570984D02*
X9170134Y-9609079D01*
X9246325Y-9570984D02*
X9246325Y-9609079D01*
X9541563Y-9847174D02*
X9532039Y-9837650D01*
X9532039Y-9837650D02*
X9512991Y-9809079D01*
X9512991Y-9809079D02*
X9503468Y-9790031D01*
X9503468Y-9790031D02*
X9493944Y-9761460D01*
X9493944Y-9761460D02*
X9484420Y-9713841D01*
X9484420Y-9713841D02*
X9484420Y-9675746D01*
X9484420Y-9675746D02*
X9493944Y-9628127D01*
X9493944Y-9628127D02*
X9503468Y-9599555D01*
X9503468Y-9599555D02*
X9512991Y-9580508D01*
X9512991Y-9580508D02*
X9532039Y-9551936D01*
X9532039Y-9551936D02*
X9541563Y-9542412D01*
X9646325Y-9656698D02*
X9627277Y-9647174D01*
X9627277Y-9647174D02*
X9617753Y-9637650D01*
X9617753Y-9637650D02*
X9608230Y-9618603D01*
X9608230Y-9618603D02*
X9608230Y-9609079D01*
X9608230Y-9609079D02*
X9617753Y-9590031D01*
X9617753Y-9590031D02*
X9627277Y-9580508D01*
X9627277Y-9580508D02*
X9646325Y-9570984D01*
X9646325Y-9570984D02*
X9684420Y-9570984D01*
X9684420Y-9570984D02*
X9703468Y-9580508D01*
X9703468Y-9580508D02*
X9712991Y-9590031D01*
X9712991Y-9590031D02*
X9722515Y-9609079D01*
X9722515Y-9609079D02*
X9722515Y-9618603D01*
X9722515Y-9618603D02*
X9712991Y-9637650D01*
X9712991Y-9637650D02*
X9703468Y-9647174D01*
X9703468Y-9647174D02*
X9684420Y-9656698D01*
X9684420Y-9656698D02*
X9646325Y-9656698D01*
X9646325Y-9656698D02*
X9627277Y-9666222D01*
X9627277Y-9666222D02*
X9617753Y-9675746D01*
X9617753Y-9675746D02*
X9608230Y-9694793D01*
X9608230Y-9694793D02*
X9608230Y-9732889D01*
X9608230Y-9732889D02*
X9617753Y-9751936D01*
X9617753Y-9751936D02*
X9627277Y-9761460D01*
X9627277Y-9761460D02*
X9646325Y-9770984D01*
X9646325Y-9770984D02*
X9684420Y-9770984D01*
X9684420Y-9770984D02*
X9703468Y-9761460D01*
X9703468Y-9761460D02*
X9712991Y-9751936D01*
X9712991Y-9751936D02*
X9722515Y-9732889D01*
X9722515Y-9732889D02*
X9722515Y-9694793D01*
X9722515Y-9694793D02*
X9712991Y-9675746D01*
X9712991Y-9675746D02*
X9703468Y-9666222D01*
X9703468Y-9666222D02*
X9684420Y-9656698D01*
X9960611Y-9770984D02*
X9960611Y-9570984D01*
X10046325Y-9770984D02*
X10046325Y-9666222D01*
X10046325Y-9666222D02*
X10036801Y-9647174D01*
X10036801Y-9647174D02*
X10017753Y-9637650D01*
X10017753Y-9637650D02*
X9989182Y-9637650D01*
X9989182Y-9637650D02*
X9970134Y-9647174D01*
X9970134Y-9647174D02*
X9960611Y-9656698D01*
X10170134Y-9770984D02*
X10151087Y-9761460D01*
X10151087Y-9761460D02*
X10141563Y-9751936D01*
X10141563Y-9751936D02*
X10132039Y-9732889D01*
X10132039Y-9732889D02*
X10132039Y-9675746D01*
X10132039Y-9675746D02*
X10141563Y-9656698D01*
X10141563Y-9656698D02*
X10151087Y-9647174D01*
X10151087Y-9647174D02*
X10170134Y-9637650D01*
X10170134Y-9637650D02*
X10198706Y-9637650D01*
X10198706Y-9637650D02*
X10217753Y-9647174D01*
X10217753Y-9647174D02*
X10227277Y-9656698D01*
X10227277Y-9656698D02*
X10236801Y-9675746D01*
X10236801Y-9675746D02*
X10236801Y-9732889D01*
X10236801Y-9732889D02*
X10227277Y-9751936D01*
X10227277Y-9751936D02*
X10217753Y-9761460D01*
X10217753Y-9761460D02*
X10198706Y-9770984D01*
X10198706Y-9770984D02*
X10170134Y-9770984D01*
X10351087Y-9770984D02*
X10332039Y-9761460D01*
X10332039Y-9761460D02*
X10322515Y-9742412D01*
X10322515Y-9742412D02*
X10322515Y-9570984D01*
X10503468Y-9761460D02*
X10484420Y-9770984D01*
X10484420Y-9770984D02*
X10446325Y-9770984D01*
X10446325Y-9770984D02*
X10427277Y-9761460D01*
X10427277Y-9761460D02*
X10417753Y-9742412D01*
X10417753Y-9742412D02*
X10417753Y-9666222D01*
X10417753Y-9666222D02*
X10427277Y-9647174D01*
X10427277Y-9647174D02*
X10446325Y-9637650D01*
X10446325Y-9637650D02*
X10484420Y-9637650D01*
X10484420Y-9637650D02*
X10503468Y-9647174D01*
X10503468Y-9647174D02*
X10512992Y-9666222D01*
X10512992Y-9666222D02*
X10512992Y-9685270D01*
X10512992Y-9685270D02*
X10417753Y-9704317D01*
X10589182Y-9761460D02*
X10608230Y-9770984D01*
X10608230Y-9770984D02*
X10646325Y-9770984D01*
X10646325Y-9770984D02*
X10665373Y-9761460D01*
X10665373Y-9761460D02*
X10674896Y-9742412D01*
X10674896Y-9742412D02*
X10674896Y-9732889D01*
X10674896Y-9732889D02*
X10665373Y-9713841D01*
X10665373Y-9713841D02*
X10646325Y-9704317D01*
X10646325Y-9704317D02*
X10617753Y-9704317D01*
X10617753Y-9704317D02*
X10598706Y-9694793D01*
X10598706Y-9694793D02*
X10589182Y-9675746D01*
X10589182Y-9675746D02*
X10589182Y-9666222D01*
X10589182Y-9666222D02*
X10598706Y-9647174D01*
X10598706Y-9647174D02*
X10617753Y-9637650D01*
X10617753Y-9637650D02*
X10646325Y-9637650D01*
X10646325Y-9637650D02*
X10665373Y-9647174D01*
X10741563Y-9847174D02*
X10751087Y-9837650D01*
X10751087Y-9837650D02*
X10770134Y-9809079D01*
X10770134Y-9809079D02*
X10779658Y-9790031D01*
X10779658Y-9790031D02*
X10789182Y-9761460D01*
X10789182Y-9761460D02*
X10798706Y-9713841D01*
X10798706Y-9713841D02*
X10798706Y-9675746D01*
X10798706Y-9675746D02*
X10789182Y-9628127D01*
X10789182Y-9628127D02*
X10779658Y-9599555D01*
X10779658Y-9599555D02*
X10770134Y-9580508D01*
X10770134Y-9580508D02*
X10751087Y-9551936D01*
X10751087Y-9551936D02*
X10741563Y-9542412D01*
D12*
X5953320Y-9975320D02*
X5953320Y-9911680D01*
X5889680Y-9911680D01*
X5889680Y-9975320D01*
X5953320Y-9975320D01*
D11*
X6265372Y-9834984D02*
X6284420Y-9834984D01*
X6284420Y-9834984D02*
X6303467Y-9844508D01*
X6303467Y-9844508D02*
X6312991Y-9854031D01*
X6312991Y-9854031D02*
X6322515Y-9873079D01*
X6322515Y-9873079D02*
X6332039Y-9911174D01*
X6332039Y-9911174D02*
X6332039Y-9958793D01*
X6332039Y-9958793D02*
X6322515Y-9996889D01*
X6322515Y-9996889D02*
X6312991Y-10015936D01*
X6312991Y-10015936D02*
X6303467Y-10025460D01*
X6303467Y-10025460D02*
X6284420Y-10034984D01*
X6284420Y-10034984D02*
X6265372Y-10034984D01*
X6265372Y-10034984D02*
X6246324Y-10025460D01*
X6246324Y-10025460D02*
X6236801Y-10015936D01*
X6236801Y-10015936D02*
X6227277Y-9996889D01*
X6227277Y-9996889D02*
X6217753Y-9958793D01*
X6217753Y-9958793D02*
X6217753Y-9911174D01*
X6217753Y-9911174D02*
X6227277Y-9873079D01*
X6227277Y-9873079D02*
X6236801Y-9854031D01*
X6236801Y-9854031D02*
X6246324Y-9844508D01*
X6246324Y-9844508D02*
X6265372Y-9834984D01*
X6417753Y-10015936D02*
X6427277Y-10025460D01*
X6427277Y-10025460D02*
X6417753Y-10034984D01*
X6417753Y-10034984D02*
X6408229Y-10025460D01*
X6408229Y-10025460D02*
X6417753Y-10015936D01*
X6417753Y-10015936D02*
X6417753Y-10034984D01*
X6522515Y-10034984D02*
X6560610Y-10034984D01*
X6560610Y-10034984D02*
X6579658Y-10025460D01*
X6579658Y-10025460D02*
X6589182Y-10015936D01*
X6589182Y-10015936D02*
X6608229Y-9987365D01*
X6608229Y-9987365D02*
X6617753Y-9949270D01*
X6617753Y-9949270D02*
X6617753Y-9873079D01*
X6617753Y-9873079D02*
X6608229Y-9854031D01*
X6608229Y-9854031D02*
X6598705Y-9844508D01*
X6598705Y-9844508D02*
X6579658Y-9834984D01*
X6579658Y-9834984D02*
X6541562Y-9834984D01*
X6541562Y-9834984D02*
X6522515Y-9844508D01*
X6522515Y-9844508D02*
X6512991Y-9854031D01*
X6512991Y-9854031D02*
X6503467Y-9873079D01*
X6503467Y-9873079D02*
X6503467Y-9920698D01*
X6503467Y-9920698D02*
X6512991Y-9939746D01*
X6512991Y-9939746D02*
X6522515Y-9949270D01*
X6522515Y-9949270D02*
X6541562Y-9958793D01*
X6541562Y-9958793D02*
X6579658Y-9958793D01*
X6579658Y-9958793D02*
X6598705Y-9949270D01*
X6598705Y-9949270D02*
X6608229Y-9939746D01*
X6608229Y-9939746D02*
X6617753Y-9920698D01*
X6741562Y-9834984D02*
X6760610Y-9834984D01*
X6760610Y-9834984D02*
X6779658Y-9844508D01*
X6779658Y-9844508D02*
X6789182Y-9854031D01*
X6789182Y-9854031D02*
X6798705Y-9873079D01*
X6798705Y-9873079D02*
X6808229Y-9911174D01*
X6808229Y-9911174D02*
X6808229Y-9958793D01*
X6808229Y-9958793D02*
X6798705Y-9996889D01*
X6798705Y-9996889D02*
X6789182Y-10015936D01*
X6789182Y-10015936D02*
X6779658Y-10025460D01*
X6779658Y-10025460D02*
X6760610Y-10034984D01*
X6760610Y-10034984D02*
X6741562Y-10034984D01*
X6741562Y-10034984D02*
X6722515Y-10025460D01*
X6722515Y-10025460D02*
X6712991Y-10015936D01*
X6712991Y-10015936D02*
X6703467Y-9996889D01*
X6703467Y-9996889D02*
X6693943Y-9958793D01*
X6693943Y-9958793D02*
X6693943Y-9911174D01*
X6693943Y-9911174D02*
X6703467Y-9873079D01*
X6703467Y-9873079D02*
X6712991Y-9854031D01*
X6712991Y-9854031D02*
X6722515Y-9844508D01*
X6722515Y-9844508D02*
X6741562Y-9834984D01*
X6932039Y-9834984D02*
X6951086Y-9834984D01*
X6951086Y-9834984D02*
X6970134Y-9844508D01*
X6970134Y-9844508D02*
X6979658Y-9854031D01*
X6979658Y-9854031D02*
X6989182Y-9873079D01*
X6989182Y-9873079D02*
X6998705Y-9911174D01*
X6998705Y-9911174D02*
X6998705Y-9958793D01*
X6998705Y-9958793D02*
X6989182Y-9996889D01*
X6989182Y-9996889D02*
X6979658Y-10015936D01*
X6979658Y-10015936D02*
X6970134Y-10025460D01*
X6970134Y-10025460D02*
X6951086Y-10034984D01*
X6951086Y-10034984D02*
X6932039Y-10034984D01*
X6932039Y-10034984D02*
X6912991Y-10025460D01*
X6912991Y-10025460D02*
X6903467Y-10015936D01*
X6903467Y-10015936D02*
X6893943Y-9996889D01*
X6893943Y-9996889D02*
X6884420Y-9958793D01*
X6884420Y-9958793D02*
X6884420Y-9911174D01*
X6884420Y-9911174D02*
X6893943Y-9873079D01*
X6893943Y-9873079D02*
X6903467Y-9854031D01*
X6903467Y-9854031D02*
X6912991Y-9844508D01*
X6912991Y-9844508D02*
X6932039Y-9834984D01*
X7084420Y-10034984D02*
X7084420Y-9901650D01*
X7084420Y-9920698D02*
X7093943Y-9911174D01*
X7093943Y-9911174D02*
X7112991Y-9901650D01*
X7112991Y-9901650D02*
X7141563Y-9901650D01*
X7141563Y-9901650D02*
X7160610Y-9911174D01*
X7160610Y-9911174D02*
X7170134Y-9930222D01*
X7170134Y-9930222D02*
X7170134Y-10034984D01*
X7170134Y-9930222D02*
X7179658Y-9911174D01*
X7179658Y-9911174D02*
X7198705Y-9901650D01*
X7198705Y-9901650D02*
X7227277Y-9901650D01*
X7227277Y-9901650D02*
X7246324Y-9911174D01*
X7246324Y-9911174D02*
X7255848Y-9930222D01*
X7255848Y-9930222D02*
X7255848Y-10034984D01*
X7351086Y-10034984D02*
X7351086Y-9901650D01*
X7351086Y-9920698D02*
X7360610Y-9911174D01*
X7360610Y-9911174D02*
X7379658Y-9901650D01*
X7379658Y-9901650D02*
X7408229Y-9901650D01*
X7408229Y-9901650D02*
X7427277Y-9911174D01*
X7427277Y-9911174D02*
X7436801Y-9930222D01*
X7436801Y-9930222D02*
X7436801Y-10034984D01*
X7436801Y-9930222D02*
X7446324Y-9911174D01*
X7446324Y-9911174D02*
X7465372Y-9901650D01*
X7465372Y-9901650D02*
X7493943Y-9901650D01*
X7493943Y-9901650D02*
X7512991Y-9911174D01*
X7512991Y-9911174D02*
X7522515Y-9930222D01*
X7522515Y-9930222D02*
X7522515Y-10034984D01*
X7912991Y-9825460D02*
X7741563Y-10082603D01*
X8170134Y-9834984D02*
X8189182Y-9834984D01*
X8189182Y-9834984D02*
X8208229Y-9844508D01*
X8208229Y-9844508D02*
X8217753Y-9854031D01*
X8217753Y-9854031D02*
X8227277Y-9873079D01*
X8227277Y-9873079D02*
X8236801Y-9911174D01*
X8236801Y-9911174D02*
X8236801Y-9958793D01*
X8236801Y-9958793D02*
X8227277Y-9996889D01*
X8227277Y-9996889D02*
X8217753Y-10015936D01*
X8217753Y-10015936D02*
X8208229Y-10025460D01*
X8208229Y-10025460D02*
X8189182Y-10034984D01*
X8189182Y-10034984D02*
X8170134Y-10034984D01*
X8170134Y-10034984D02*
X8151086Y-10025460D01*
X8151086Y-10025460D02*
X8141563Y-10015936D01*
X8141563Y-10015936D02*
X8132039Y-9996889D01*
X8132039Y-9996889D02*
X8122515Y-9958793D01*
X8122515Y-9958793D02*
X8122515Y-9911174D01*
X8122515Y-9911174D02*
X8132039Y-9873079D01*
X8132039Y-9873079D02*
X8141563Y-9854031D01*
X8141563Y-9854031D02*
X8151086Y-9844508D01*
X8151086Y-9844508D02*
X8170134Y-9834984D01*
X8322515Y-10015936D02*
X8332039Y-10025460D01*
X8332039Y-10025460D02*
X8322515Y-10034984D01*
X8322515Y-10034984D02*
X8312991Y-10025460D01*
X8312991Y-10025460D02*
X8322515Y-10015936D01*
X8322515Y-10015936D02*
X8322515Y-10034984D01*
X8455848Y-9834984D02*
X8474896Y-9834984D01*
X8474896Y-9834984D02*
X8493944Y-9844508D01*
X8493944Y-9844508D02*
X8503468Y-9854031D01*
X8503468Y-9854031D02*
X8512991Y-9873079D01*
X8512991Y-9873079D02*
X8522515Y-9911174D01*
X8522515Y-9911174D02*
X8522515Y-9958793D01*
X8522515Y-9958793D02*
X8512991Y-9996889D01*
X8512991Y-9996889D02*
X8503468Y-10015936D01*
X8503468Y-10015936D02*
X8493944Y-10025460D01*
X8493944Y-10025460D02*
X8474896Y-10034984D01*
X8474896Y-10034984D02*
X8455848Y-10034984D01*
X8455848Y-10034984D02*
X8436801Y-10025460D01*
X8436801Y-10025460D02*
X8427277Y-10015936D01*
X8427277Y-10015936D02*
X8417753Y-9996889D01*
X8417753Y-9996889D02*
X8408229Y-9958793D01*
X8408229Y-9958793D02*
X8408229Y-9911174D01*
X8408229Y-9911174D02*
X8417753Y-9873079D01*
X8417753Y-9873079D02*
X8427277Y-9854031D01*
X8427277Y-9854031D02*
X8436801Y-9844508D01*
X8436801Y-9844508D02*
X8455848Y-9834984D01*
X8589182Y-9834984D02*
X8712991Y-9834984D01*
X8712991Y-9834984D02*
X8646325Y-9911174D01*
X8646325Y-9911174D02*
X8674896Y-9911174D01*
X8674896Y-9911174D02*
X8693944Y-9920698D01*
X8693944Y-9920698D02*
X8703468Y-9930222D01*
X8703468Y-9930222D02*
X8712991Y-9949270D01*
X8712991Y-9949270D02*
X8712991Y-9996889D01*
X8712991Y-9996889D02*
X8703468Y-10015936D01*
X8703468Y-10015936D02*
X8693944Y-10025460D01*
X8693944Y-10025460D02*
X8674896Y-10034984D01*
X8674896Y-10034984D02*
X8617753Y-10034984D01*
X8617753Y-10034984D02*
X8598706Y-10025460D01*
X8598706Y-10025460D02*
X8589182Y-10015936D01*
X8893944Y-9834984D02*
X8798706Y-9834984D01*
X8798706Y-9834984D02*
X8789182Y-9930222D01*
X8789182Y-9930222D02*
X8798706Y-9920698D01*
X8798706Y-9920698D02*
X8817753Y-9911174D01*
X8817753Y-9911174D02*
X8865372Y-9911174D01*
X8865372Y-9911174D02*
X8884420Y-9920698D01*
X8884420Y-9920698D02*
X8893944Y-9930222D01*
X8893944Y-9930222D02*
X8903468Y-9949270D01*
X8903468Y-9949270D02*
X8903468Y-9996889D01*
X8903468Y-9996889D02*
X8893944Y-10015936D01*
X8893944Y-10015936D02*
X8884420Y-10025460D01*
X8884420Y-10025460D02*
X8865372Y-10034984D01*
X8865372Y-10034984D02*
X8817753Y-10034984D01*
X8817753Y-10034984D02*
X8798706Y-10025460D01*
X8798706Y-10025460D02*
X8789182Y-10015936D01*
X9074896Y-9901650D02*
X9074896Y-10034984D01*
X9027277Y-9825460D02*
X8979658Y-9968317D01*
X8979658Y-9968317D02*
X9103468Y-9968317D01*
X9170134Y-9834984D02*
X9170134Y-9873079D01*
X9246325Y-9834984D02*
X9246325Y-9873079D01*
X9541563Y-10111174D02*
X9532039Y-10101650D01*
X9532039Y-10101650D02*
X9512991Y-10073079D01*
X9512991Y-10073079D02*
X9503468Y-10054031D01*
X9503468Y-10054031D02*
X9493944Y-10025460D01*
X9493944Y-10025460D02*
X9484420Y-9977841D01*
X9484420Y-9977841D02*
X9484420Y-9939746D01*
X9484420Y-9939746D02*
X9493944Y-9892127D01*
X9493944Y-9892127D02*
X9503468Y-9863555D01*
X9503468Y-9863555D02*
X9512991Y-9844508D01*
X9512991Y-9844508D02*
X9532039Y-9815936D01*
X9532039Y-9815936D02*
X9541563Y-9806412D01*
X9703468Y-9901650D02*
X9703468Y-10034984D01*
X9655849Y-9825460D02*
X9608230Y-9968317D01*
X9608230Y-9968317D02*
X9732039Y-9968317D01*
X9960611Y-10034984D02*
X9960611Y-9834984D01*
X10046325Y-10034984D02*
X10046325Y-9930222D01*
X10046325Y-9930222D02*
X10036801Y-9911174D01*
X10036801Y-9911174D02*
X10017753Y-9901650D01*
X10017753Y-9901650D02*
X9989182Y-9901650D01*
X9989182Y-9901650D02*
X9970134Y-9911174D01*
X9970134Y-9911174D02*
X9960611Y-9920698D01*
X10170134Y-10034984D02*
X10151087Y-10025460D01*
X10151087Y-10025460D02*
X10141563Y-10015936D01*
X10141563Y-10015936D02*
X10132039Y-9996889D01*
X10132039Y-9996889D02*
X10132039Y-9939746D01*
X10132039Y-9939746D02*
X10141563Y-9920698D01*
X10141563Y-9920698D02*
X10151087Y-9911174D01*
X10151087Y-9911174D02*
X10170134Y-9901650D01*
X10170134Y-9901650D02*
X10198706Y-9901650D01*
X10198706Y-9901650D02*
X10217753Y-9911174D01*
X10217753Y-9911174D02*
X10227277Y-9920698D01*
X10227277Y-9920698D02*
X10236801Y-9939746D01*
X10236801Y-9939746D02*
X10236801Y-9996889D01*
X10236801Y-9996889D02*
X10227277Y-10015936D01*
X10227277Y-10015936D02*
X10217753Y-10025460D01*
X10217753Y-10025460D02*
X10198706Y-10034984D01*
X10198706Y-10034984D02*
X10170134Y-10034984D01*
X10351087Y-10034984D02*
X10332039Y-10025460D01*
X10332039Y-10025460D02*
X10322515Y-10006412D01*
X10322515Y-10006412D02*
X10322515Y-9834984D01*
X10503468Y-10025460D02*
X10484420Y-10034984D01*
X10484420Y-10034984D02*
X10446325Y-10034984D01*
X10446325Y-10034984D02*
X10427277Y-10025460D01*
X10427277Y-10025460D02*
X10417753Y-10006412D01*
X10417753Y-10006412D02*
X10417753Y-9930222D01*
X10417753Y-9930222D02*
X10427277Y-9911174D01*
X10427277Y-9911174D02*
X10446325Y-9901650D01*
X10446325Y-9901650D02*
X10484420Y-9901650D01*
X10484420Y-9901650D02*
X10503468Y-9911174D01*
X10503468Y-9911174D02*
X10512992Y-9930222D01*
X10512992Y-9930222D02*
X10512992Y-9949270D01*
X10512992Y-9949270D02*
X10417753Y-9968317D01*
X10589182Y-10025460D02*
X10608230Y-10034984D01*
X10608230Y-10034984D02*
X10646325Y-10034984D01*
X10646325Y-10034984D02*
X10665373Y-10025460D01*
X10665373Y-10025460D02*
X10674896Y-10006412D01*
X10674896Y-10006412D02*
X10674896Y-9996889D01*
X10674896Y-9996889D02*
X10665373Y-9977841D01*
X10665373Y-9977841D02*
X10646325Y-9968317D01*
X10646325Y-9968317D02*
X10617753Y-9968317D01*
X10617753Y-9968317D02*
X10598706Y-9958793D01*
X10598706Y-9958793D02*
X10589182Y-9939746D01*
X10589182Y-9939746D02*
X10589182Y-9930222D01*
X10589182Y-9930222D02*
X10598706Y-9911174D01*
X10598706Y-9911174D02*
X10617753Y-9901650D01*
X10617753Y-9901650D02*
X10646325Y-9901650D01*
X10646325Y-9901650D02*
X10665373Y-9911174D01*
X10741563Y-10111174D02*
X10751087Y-10101650D01*
X10751087Y-10101650D02*
X10770134Y-10073079D01*
X10770134Y-10073079D02*
X10779658Y-10054031D01*
X10779658Y-10054031D02*
X10789182Y-10025460D01*
X10789182Y-10025460D02*
X10798706Y-9977841D01*
X10798706Y-9977841D02*
X10798706Y-9939746D01*
X10798706Y-9939746D02*
X10789182Y-9892127D01*
X10789182Y-9892127D02*
X10779658Y-9863555D01*
X10779658Y-9863555D02*
X10770134Y-9844508D01*
X10770134Y-9844508D02*
X10751087Y-9815936D01*
X10751087Y-9815936D02*
X10741563Y-9806412D01*
D12*
X5916500Y-10257500D02*
X5966500Y-10207500D01*
X5916500Y-10157500D01*
X5866500Y-10207500D01*
X5916500Y-10257500D01*
D11*
X6332039Y-10298984D02*
X6217753Y-10298984D01*
X6274896Y-10298984D02*
X6274896Y-10098984D01*
X6274896Y-10098984D02*
X6255848Y-10127555D01*
X6255848Y-10127555D02*
X6236801Y-10146603D01*
X6236801Y-10146603D02*
X6217753Y-10156127D01*
X6417753Y-10279936D02*
X6427277Y-10289460D01*
X6427277Y-10289460D02*
X6417753Y-10298984D01*
X6417753Y-10298984D02*
X6408229Y-10289460D01*
X6408229Y-10289460D02*
X6417753Y-10279936D01*
X6417753Y-10279936D02*
X6417753Y-10298984D01*
X6551086Y-10098984D02*
X6570134Y-10098984D01*
X6570134Y-10098984D02*
X6589182Y-10108508D01*
X6589182Y-10108508D02*
X6598705Y-10118031D01*
X6598705Y-10118031D02*
X6608229Y-10137079D01*
X6608229Y-10137079D02*
X6617753Y-10175174D01*
X6617753Y-10175174D02*
X6617753Y-10222793D01*
X6617753Y-10222793D02*
X6608229Y-10260889D01*
X6608229Y-10260889D02*
X6598705Y-10279936D01*
X6598705Y-10279936D02*
X6589182Y-10289460D01*
X6589182Y-10289460D02*
X6570134Y-10298984D01*
X6570134Y-10298984D02*
X6551086Y-10298984D01*
X6551086Y-10298984D02*
X6532039Y-10289460D01*
X6532039Y-10289460D02*
X6522515Y-10279936D01*
X6522515Y-10279936D02*
X6512991Y-10260889D01*
X6512991Y-10260889D02*
X6503467Y-10222793D01*
X6503467Y-10222793D02*
X6503467Y-10175174D01*
X6503467Y-10175174D02*
X6512991Y-10137079D01*
X6512991Y-10137079D02*
X6522515Y-10118031D01*
X6522515Y-10118031D02*
X6532039Y-10108508D01*
X6532039Y-10108508D02*
X6551086Y-10098984D01*
X6741562Y-10098984D02*
X6760610Y-10098984D01*
X6760610Y-10098984D02*
X6779658Y-10108508D01*
X6779658Y-10108508D02*
X6789182Y-10118031D01*
X6789182Y-10118031D02*
X6798705Y-10137079D01*
X6798705Y-10137079D02*
X6808229Y-10175174D01*
X6808229Y-10175174D02*
X6808229Y-10222793D01*
X6808229Y-10222793D02*
X6798705Y-10260889D01*
X6798705Y-10260889D02*
X6789182Y-10279936D01*
X6789182Y-10279936D02*
X6779658Y-10289460D01*
X6779658Y-10289460D02*
X6760610Y-10298984D01*
X6760610Y-10298984D02*
X6741562Y-10298984D01*
X6741562Y-10298984D02*
X6722515Y-10289460D01*
X6722515Y-10289460D02*
X6712991Y-10279936D01*
X6712991Y-10279936D02*
X6703467Y-10260889D01*
X6703467Y-10260889D02*
X6693943Y-10222793D01*
X6693943Y-10222793D02*
X6693943Y-10175174D01*
X6693943Y-10175174D02*
X6703467Y-10137079D01*
X6703467Y-10137079D02*
X6712991Y-10118031D01*
X6712991Y-10118031D02*
X6722515Y-10108508D01*
X6722515Y-10108508D02*
X6741562Y-10098984D01*
X6932039Y-10098984D02*
X6951086Y-10098984D01*
X6951086Y-10098984D02*
X6970134Y-10108508D01*
X6970134Y-10108508D02*
X6979658Y-10118031D01*
X6979658Y-10118031D02*
X6989182Y-10137079D01*
X6989182Y-10137079D02*
X6998705Y-10175174D01*
X6998705Y-10175174D02*
X6998705Y-10222793D01*
X6998705Y-10222793D02*
X6989182Y-10260889D01*
X6989182Y-10260889D02*
X6979658Y-10279936D01*
X6979658Y-10279936D02*
X6970134Y-10289460D01*
X6970134Y-10289460D02*
X6951086Y-10298984D01*
X6951086Y-10298984D02*
X6932039Y-10298984D01*
X6932039Y-10298984D02*
X6912991Y-10289460D01*
X6912991Y-10289460D02*
X6903467Y-10279936D01*
X6903467Y-10279936D02*
X6893943Y-10260889D01*
X6893943Y-10260889D02*
X6884420Y-10222793D01*
X6884420Y-10222793D02*
X6884420Y-10175174D01*
X6884420Y-10175174D02*
X6893943Y-10137079D01*
X6893943Y-10137079D02*
X6903467Y-10118031D01*
X6903467Y-10118031D02*
X6912991Y-10108508D01*
X6912991Y-10108508D02*
X6932039Y-10098984D01*
X7084420Y-10298984D02*
X7084420Y-10165650D01*
X7084420Y-10184698D02*
X7093943Y-10175174D01*
X7093943Y-10175174D02*
X7112991Y-10165650D01*
X7112991Y-10165650D02*
X7141563Y-10165650D01*
X7141563Y-10165650D02*
X7160610Y-10175174D01*
X7160610Y-10175174D02*
X7170134Y-10194222D01*
X7170134Y-10194222D02*
X7170134Y-10298984D01*
X7170134Y-10194222D02*
X7179658Y-10175174D01*
X7179658Y-10175174D02*
X7198705Y-10165650D01*
X7198705Y-10165650D02*
X7227277Y-10165650D01*
X7227277Y-10165650D02*
X7246324Y-10175174D01*
X7246324Y-10175174D02*
X7255848Y-10194222D01*
X7255848Y-10194222D02*
X7255848Y-10298984D01*
X7351086Y-10298984D02*
X7351086Y-10165650D01*
X7351086Y-10184698D02*
X7360610Y-10175174D01*
X7360610Y-10175174D02*
X7379658Y-10165650D01*
X7379658Y-10165650D02*
X7408229Y-10165650D01*
X7408229Y-10165650D02*
X7427277Y-10175174D01*
X7427277Y-10175174D02*
X7436801Y-10194222D01*
X7436801Y-10194222D02*
X7436801Y-10298984D01*
X7436801Y-10194222D02*
X7446324Y-10175174D01*
X7446324Y-10175174D02*
X7465372Y-10165650D01*
X7465372Y-10165650D02*
X7493943Y-10165650D01*
X7493943Y-10165650D02*
X7512991Y-10175174D01*
X7512991Y-10175174D02*
X7522515Y-10194222D01*
X7522515Y-10194222D02*
X7522515Y-10298984D01*
X7912991Y-10089460D02*
X7741563Y-10346603D01*
X8170134Y-10098984D02*
X8189182Y-10098984D01*
X8189182Y-10098984D02*
X8208229Y-10108508D01*
X8208229Y-10108508D02*
X8217753Y-10118031D01*
X8217753Y-10118031D02*
X8227277Y-10137079D01*
X8227277Y-10137079D02*
X8236801Y-10175174D01*
X8236801Y-10175174D02*
X8236801Y-10222793D01*
X8236801Y-10222793D02*
X8227277Y-10260889D01*
X8227277Y-10260889D02*
X8217753Y-10279936D01*
X8217753Y-10279936D02*
X8208229Y-10289460D01*
X8208229Y-10289460D02*
X8189182Y-10298984D01*
X8189182Y-10298984D02*
X8170134Y-10298984D01*
X8170134Y-10298984D02*
X8151086Y-10289460D01*
X8151086Y-10289460D02*
X8141563Y-10279936D01*
X8141563Y-10279936D02*
X8132039Y-10260889D01*
X8132039Y-10260889D02*
X8122515Y-10222793D01*
X8122515Y-10222793D02*
X8122515Y-10175174D01*
X8122515Y-10175174D02*
X8132039Y-10137079D01*
X8132039Y-10137079D02*
X8141563Y-10118031D01*
X8141563Y-10118031D02*
X8151086Y-10108508D01*
X8151086Y-10108508D02*
X8170134Y-10098984D01*
X8322515Y-10279936D02*
X8332039Y-10289460D01*
X8332039Y-10289460D02*
X8322515Y-10298984D01*
X8322515Y-10298984D02*
X8312991Y-10289460D01*
X8312991Y-10289460D02*
X8322515Y-10279936D01*
X8322515Y-10279936D02*
X8322515Y-10298984D01*
X8455848Y-10098984D02*
X8474896Y-10098984D01*
X8474896Y-10098984D02*
X8493944Y-10108508D01*
X8493944Y-10108508D02*
X8503468Y-10118031D01*
X8503468Y-10118031D02*
X8512991Y-10137079D01*
X8512991Y-10137079D02*
X8522515Y-10175174D01*
X8522515Y-10175174D02*
X8522515Y-10222793D01*
X8522515Y-10222793D02*
X8512991Y-10260889D01*
X8512991Y-10260889D02*
X8503468Y-10279936D01*
X8503468Y-10279936D02*
X8493944Y-10289460D01*
X8493944Y-10289460D02*
X8474896Y-10298984D01*
X8474896Y-10298984D02*
X8455848Y-10298984D01*
X8455848Y-10298984D02*
X8436801Y-10289460D01*
X8436801Y-10289460D02*
X8427277Y-10279936D01*
X8427277Y-10279936D02*
X8417753Y-10260889D01*
X8417753Y-10260889D02*
X8408229Y-10222793D01*
X8408229Y-10222793D02*
X8408229Y-10175174D01*
X8408229Y-10175174D02*
X8417753Y-10137079D01*
X8417753Y-10137079D02*
X8427277Y-10118031D01*
X8427277Y-10118031D02*
X8436801Y-10108508D01*
X8436801Y-10108508D02*
X8455848Y-10098984D01*
X8589182Y-10098984D02*
X8712991Y-10098984D01*
X8712991Y-10098984D02*
X8646325Y-10175174D01*
X8646325Y-10175174D02*
X8674896Y-10175174D01*
X8674896Y-10175174D02*
X8693944Y-10184698D01*
X8693944Y-10184698D02*
X8703468Y-10194222D01*
X8703468Y-10194222D02*
X8712991Y-10213270D01*
X8712991Y-10213270D02*
X8712991Y-10260889D01*
X8712991Y-10260889D02*
X8703468Y-10279936D01*
X8703468Y-10279936D02*
X8693944Y-10289460D01*
X8693944Y-10289460D02*
X8674896Y-10298984D01*
X8674896Y-10298984D02*
X8617753Y-10298984D01*
X8617753Y-10298984D02*
X8598706Y-10289460D01*
X8598706Y-10289460D02*
X8589182Y-10279936D01*
X8808229Y-10298984D02*
X8846325Y-10298984D01*
X8846325Y-10298984D02*
X8865372Y-10289460D01*
X8865372Y-10289460D02*
X8874896Y-10279936D01*
X8874896Y-10279936D02*
X8893944Y-10251365D01*
X8893944Y-10251365D02*
X8903468Y-10213270D01*
X8903468Y-10213270D02*
X8903468Y-10137079D01*
X8903468Y-10137079D02*
X8893944Y-10118031D01*
X8893944Y-10118031D02*
X8884420Y-10108508D01*
X8884420Y-10108508D02*
X8865372Y-10098984D01*
X8865372Y-10098984D02*
X8827277Y-10098984D01*
X8827277Y-10098984D02*
X8808229Y-10108508D01*
X8808229Y-10108508D02*
X8798706Y-10118031D01*
X8798706Y-10118031D02*
X8789182Y-10137079D01*
X8789182Y-10137079D02*
X8789182Y-10184698D01*
X8789182Y-10184698D02*
X8798706Y-10203746D01*
X8798706Y-10203746D02*
X8808229Y-10213270D01*
X8808229Y-10213270D02*
X8827277Y-10222793D01*
X8827277Y-10222793D02*
X8865372Y-10222793D01*
X8865372Y-10222793D02*
X8884420Y-10213270D01*
X8884420Y-10213270D02*
X8893944Y-10203746D01*
X8893944Y-10203746D02*
X8903468Y-10184698D01*
X9074896Y-10165650D02*
X9074896Y-10298984D01*
X9027277Y-10089460D02*
X8979658Y-10232317D01*
X8979658Y-10232317D02*
X9103468Y-10232317D01*
X9170134Y-10098984D02*
X9170134Y-10137079D01*
X9246325Y-10098984D02*
X9246325Y-10137079D01*
X9541563Y-10375174D02*
X9532039Y-10365650D01*
X9532039Y-10365650D02*
X9512991Y-10337079D01*
X9512991Y-10337079D02*
X9503468Y-10318031D01*
X9503468Y-10318031D02*
X9493944Y-10289460D01*
X9493944Y-10289460D02*
X9484420Y-10241841D01*
X9484420Y-10241841D02*
X9484420Y-10203746D01*
X9484420Y-10203746D02*
X9493944Y-10156127D01*
X9493944Y-10156127D02*
X9503468Y-10127555D01*
X9503468Y-10127555D02*
X9512991Y-10108508D01*
X9512991Y-10108508D02*
X9532039Y-10079936D01*
X9532039Y-10079936D02*
X9541563Y-10070412D01*
X9598706Y-10098984D02*
X9732039Y-10098984D01*
X9732039Y-10098984D02*
X9646325Y-10298984D01*
X9960611Y-10298984D02*
X9960611Y-10098984D01*
X10046325Y-10298984D02*
X10046325Y-10194222D01*
X10046325Y-10194222D02*
X10036801Y-10175174D01*
X10036801Y-10175174D02*
X10017753Y-10165650D01*
X10017753Y-10165650D02*
X9989182Y-10165650D01*
X9989182Y-10165650D02*
X9970134Y-10175174D01*
X9970134Y-10175174D02*
X9960611Y-10184698D01*
X10170134Y-10298984D02*
X10151087Y-10289460D01*
X10151087Y-10289460D02*
X10141563Y-10279936D01*
X10141563Y-10279936D02*
X10132039Y-10260889D01*
X10132039Y-10260889D02*
X10132039Y-10203746D01*
X10132039Y-10203746D02*
X10141563Y-10184698D01*
X10141563Y-10184698D02*
X10151087Y-10175174D01*
X10151087Y-10175174D02*
X10170134Y-10165650D01*
X10170134Y-10165650D02*
X10198706Y-10165650D01*
X10198706Y-10165650D02*
X10217753Y-10175174D01*
X10217753Y-10175174D02*
X10227277Y-10184698D01*
X10227277Y-10184698D02*
X10236801Y-10203746D01*
X10236801Y-10203746D02*
X10236801Y-10260889D01*
X10236801Y-10260889D02*
X10227277Y-10279936D01*
X10227277Y-10279936D02*
X10217753Y-10289460D01*
X10217753Y-10289460D02*
X10198706Y-10298984D01*
X10198706Y-10298984D02*
X10170134Y-10298984D01*
X10351087Y-10298984D02*
X10332039Y-10289460D01*
X10332039Y-10289460D02*
X10322515Y-10270412D01*
X10322515Y-10270412D02*
X10322515Y-10098984D01*
X10503468Y-10289460D02*
X10484420Y-10298984D01*
X10484420Y-10298984D02*
X10446325Y-10298984D01*
X10446325Y-10298984D02*
X10427277Y-10289460D01*
X10427277Y-10289460D02*
X10417753Y-10270412D01*
X10417753Y-10270412D02*
X10417753Y-10194222D01*
X10417753Y-10194222D02*
X10427277Y-10175174D01*
X10427277Y-10175174D02*
X10446325Y-10165650D01*
X10446325Y-10165650D02*
X10484420Y-10165650D01*
X10484420Y-10165650D02*
X10503468Y-10175174D01*
X10503468Y-10175174D02*
X10512992Y-10194222D01*
X10512992Y-10194222D02*
X10512992Y-10213270D01*
X10512992Y-10213270D02*
X10417753Y-10232317D01*
X10589182Y-10289460D02*
X10608230Y-10298984D01*
X10608230Y-10298984D02*
X10646325Y-10298984D01*
X10646325Y-10298984D02*
X10665373Y-10289460D01*
X10665373Y-10289460D02*
X10674896Y-10270412D01*
X10674896Y-10270412D02*
X10674896Y-10260889D01*
X10674896Y-10260889D02*
X10665373Y-10241841D01*
X10665373Y-10241841D02*
X10646325Y-10232317D01*
X10646325Y-10232317D02*
X10617753Y-10232317D01*
X10617753Y-10232317D02*
X10598706Y-10222793D01*
X10598706Y-10222793D02*
X10589182Y-10203746D01*
X10589182Y-10203746D02*
X10589182Y-10194222D01*
X10589182Y-10194222D02*
X10598706Y-10175174D01*
X10598706Y-10175174D02*
X10617753Y-10165650D01*
X10617753Y-10165650D02*
X10646325Y-10165650D01*
X10646325Y-10165650D02*
X10665373Y-10175174D01*
X10741563Y-10375174D02*
X10751087Y-10365650D01*
X10751087Y-10365650D02*
X10770134Y-10337079D01*
X10770134Y-10337079D02*
X10779658Y-10318031D01*
X10779658Y-10318031D02*
X10789182Y-10289460D01*
X10789182Y-10289460D02*
X10798706Y-10241841D01*
X10798706Y-10241841D02*
X10798706Y-10203746D01*
X10798706Y-10203746D02*
X10789182Y-10156127D01*
X10789182Y-10156127D02*
X10779658Y-10127555D01*
X10779658Y-10127555D02*
X10770134Y-10108508D01*
X10770134Y-10108508D02*
X10751087Y-10079936D01*
X10751087Y-10079936D02*
X10741563Y-10070412D01*
D13*
X5864900Y-10420700D02*
X5966500Y-10522300D01*
X5966500Y-10420700D02*
X5864900Y-10522300D01*
X5966500Y-10471500D02*
G75*
G02*
X5864900Y-10471500I-50800J0D01*
G01*
X5864900Y-10471500D02*
G75*
G02*
X5966500Y-10471500I50800J0D01*
G01*
D11*
X6332039Y-10562984D02*
X6217753Y-10562984D01*
X6274896Y-10562984D02*
X6274896Y-10362984D01*
X6274896Y-10362984D02*
X6255848Y-10391555D01*
X6255848Y-10391555D02*
X6236801Y-10410603D01*
X6236801Y-10410603D02*
X6217753Y-10420127D01*
X6417753Y-10543936D02*
X6427277Y-10553460D01*
X6427277Y-10553460D02*
X6417753Y-10562984D01*
X6417753Y-10562984D02*
X6408229Y-10553460D01*
X6408229Y-10553460D02*
X6417753Y-10543936D01*
X6417753Y-10543936D02*
X6417753Y-10562984D01*
X6551086Y-10362984D02*
X6570134Y-10362984D01*
X6570134Y-10362984D02*
X6589182Y-10372508D01*
X6589182Y-10372508D02*
X6598705Y-10382031D01*
X6598705Y-10382031D02*
X6608229Y-10401079D01*
X6608229Y-10401079D02*
X6617753Y-10439174D01*
X6617753Y-10439174D02*
X6617753Y-10486793D01*
X6617753Y-10486793D02*
X6608229Y-10524889D01*
X6608229Y-10524889D02*
X6598705Y-10543936D01*
X6598705Y-10543936D02*
X6589182Y-10553460D01*
X6589182Y-10553460D02*
X6570134Y-10562984D01*
X6570134Y-10562984D02*
X6551086Y-10562984D01*
X6551086Y-10562984D02*
X6532039Y-10553460D01*
X6532039Y-10553460D02*
X6522515Y-10543936D01*
X6522515Y-10543936D02*
X6512991Y-10524889D01*
X6512991Y-10524889D02*
X6503467Y-10486793D01*
X6503467Y-10486793D02*
X6503467Y-10439174D01*
X6503467Y-10439174D02*
X6512991Y-10401079D01*
X6512991Y-10401079D02*
X6522515Y-10382031D01*
X6522515Y-10382031D02*
X6532039Y-10372508D01*
X6532039Y-10372508D02*
X6551086Y-10362984D01*
X6808229Y-10562984D02*
X6693943Y-10562984D01*
X6751086Y-10562984D02*
X6751086Y-10362984D01*
X6751086Y-10362984D02*
X6732039Y-10391555D01*
X6732039Y-10391555D02*
X6712991Y-10410603D01*
X6712991Y-10410603D02*
X6693943Y-10420127D01*
X6979658Y-10362984D02*
X6941562Y-10362984D01*
X6941562Y-10362984D02*
X6922515Y-10372508D01*
X6922515Y-10372508D02*
X6912991Y-10382031D01*
X6912991Y-10382031D02*
X6893943Y-10410603D01*
X6893943Y-10410603D02*
X6884420Y-10448698D01*
X6884420Y-10448698D02*
X6884420Y-10524889D01*
X6884420Y-10524889D02*
X6893943Y-10543936D01*
X6893943Y-10543936D02*
X6903467Y-10553460D01*
X6903467Y-10553460D02*
X6922515Y-10562984D01*
X6922515Y-10562984D02*
X6960610Y-10562984D01*
X6960610Y-10562984D02*
X6979658Y-10553460D01*
X6979658Y-10553460D02*
X6989182Y-10543936D01*
X6989182Y-10543936D02*
X6998705Y-10524889D01*
X6998705Y-10524889D02*
X6998705Y-10477270D01*
X6998705Y-10477270D02*
X6989182Y-10458222D01*
X6989182Y-10458222D02*
X6979658Y-10448698D01*
X6979658Y-10448698D02*
X6960610Y-10439174D01*
X6960610Y-10439174D02*
X6922515Y-10439174D01*
X6922515Y-10439174D02*
X6903467Y-10448698D01*
X6903467Y-10448698D02*
X6893943Y-10458222D01*
X6893943Y-10458222D02*
X6884420Y-10477270D01*
X7084420Y-10562984D02*
X7084420Y-10429650D01*
X7084420Y-10448698D02*
X7093943Y-10439174D01*
X7093943Y-10439174D02*
X7112991Y-10429650D01*
X7112991Y-10429650D02*
X7141563Y-10429650D01*
X7141563Y-10429650D02*
X7160610Y-10439174D01*
X7160610Y-10439174D02*
X7170134Y-10458222D01*
X7170134Y-10458222D02*
X7170134Y-10562984D01*
X7170134Y-10458222D02*
X7179658Y-10439174D01*
X7179658Y-10439174D02*
X7198705Y-10429650D01*
X7198705Y-10429650D02*
X7227277Y-10429650D01*
X7227277Y-10429650D02*
X7246324Y-10439174D01*
X7246324Y-10439174D02*
X7255848Y-10458222D01*
X7255848Y-10458222D02*
X7255848Y-10562984D01*
X7351086Y-10562984D02*
X7351086Y-10429650D01*
X7351086Y-10448698D02*
X7360610Y-10439174D01*
X7360610Y-10439174D02*
X7379658Y-10429650D01*
X7379658Y-10429650D02*
X7408229Y-10429650D01*
X7408229Y-10429650D02*
X7427277Y-10439174D01*
X7427277Y-10439174D02*
X7436801Y-10458222D01*
X7436801Y-10458222D02*
X7436801Y-10562984D01*
X7436801Y-10458222D02*
X7446324Y-10439174D01*
X7446324Y-10439174D02*
X7465372Y-10429650D01*
X7465372Y-10429650D02*
X7493943Y-10429650D01*
X7493943Y-10429650D02*
X7512991Y-10439174D01*
X7512991Y-10439174D02*
X7522515Y-10458222D01*
X7522515Y-10458222D02*
X7522515Y-10562984D01*
X7912991Y-10353460D02*
X7741563Y-10610603D01*
X8170134Y-10362984D02*
X8189182Y-10362984D01*
X8189182Y-10362984D02*
X8208229Y-10372508D01*
X8208229Y-10372508D02*
X8217753Y-10382031D01*
X8217753Y-10382031D02*
X8227277Y-10401079D01*
X8227277Y-10401079D02*
X8236801Y-10439174D01*
X8236801Y-10439174D02*
X8236801Y-10486793D01*
X8236801Y-10486793D02*
X8227277Y-10524889D01*
X8227277Y-10524889D02*
X8217753Y-10543936D01*
X8217753Y-10543936D02*
X8208229Y-10553460D01*
X8208229Y-10553460D02*
X8189182Y-10562984D01*
X8189182Y-10562984D02*
X8170134Y-10562984D01*
X8170134Y-10562984D02*
X8151086Y-10553460D01*
X8151086Y-10553460D02*
X8141563Y-10543936D01*
X8141563Y-10543936D02*
X8132039Y-10524889D01*
X8132039Y-10524889D02*
X8122515Y-10486793D01*
X8122515Y-10486793D02*
X8122515Y-10439174D01*
X8122515Y-10439174D02*
X8132039Y-10401079D01*
X8132039Y-10401079D02*
X8141563Y-10382031D01*
X8141563Y-10382031D02*
X8151086Y-10372508D01*
X8151086Y-10372508D02*
X8170134Y-10362984D01*
X8322515Y-10543936D02*
X8332039Y-10553460D01*
X8332039Y-10553460D02*
X8322515Y-10562984D01*
X8322515Y-10562984D02*
X8312991Y-10553460D01*
X8312991Y-10553460D02*
X8322515Y-10543936D01*
X8322515Y-10543936D02*
X8322515Y-10562984D01*
X8455848Y-10362984D02*
X8474896Y-10362984D01*
X8474896Y-10362984D02*
X8493944Y-10372508D01*
X8493944Y-10372508D02*
X8503468Y-10382031D01*
X8503468Y-10382031D02*
X8512991Y-10401079D01*
X8512991Y-10401079D02*
X8522515Y-10439174D01*
X8522515Y-10439174D02*
X8522515Y-10486793D01*
X8522515Y-10486793D02*
X8512991Y-10524889D01*
X8512991Y-10524889D02*
X8503468Y-10543936D01*
X8503468Y-10543936D02*
X8493944Y-10553460D01*
X8493944Y-10553460D02*
X8474896Y-10562984D01*
X8474896Y-10562984D02*
X8455848Y-10562984D01*
X8455848Y-10562984D02*
X8436801Y-10553460D01*
X8436801Y-10553460D02*
X8427277Y-10543936D01*
X8427277Y-10543936D02*
X8417753Y-10524889D01*
X8417753Y-10524889D02*
X8408229Y-10486793D01*
X8408229Y-10486793D02*
X8408229Y-10439174D01*
X8408229Y-10439174D02*
X8417753Y-10401079D01*
X8417753Y-10401079D02*
X8427277Y-10382031D01*
X8427277Y-10382031D02*
X8436801Y-10372508D01*
X8436801Y-10372508D02*
X8455848Y-10362984D01*
X8693944Y-10429650D02*
X8693944Y-10562984D01*
X8646325Y-10353460D02*
X8598706Y-10496317D01*
X8598706Y-10496317D02*
X8722515Y-10496317D01*
X8836801Y-10362984D02*
X8855849Y-10362984D01*
X8855849Y-10362984D02*
X8874896Y-10372508D01*
X8874896Y-10372508D02*
X8884420Y-10382031D01*
X8884420Y-10382031D02*
X8893944Y-10401079D01*
X8893944Y-10401079D02*
X8903468Y-10439174D01*
X8903468Y-10439174D02*
X8903468Y-10486793D01*
X8903468Y-10486793D02*
X8893944Y-10524889D01*
X8893944Y-10524889D02*
X8884420Y-10543936D01*
X8884420Y-10543936D02*
X8874896Y-10553460D01*
X8874896Y-10553460D02*
X8855849Y-10562984D01*
X8855849Y-10562984D02*
X8836801Y-10562984D01*
X8836801Y-10562984D02*
X8817753Y-10553460D01*
X8817753Y-10553460D02*
X8808229Y-10543936D01*
X8808229Y-10543936D02*
X8798706Y-10524889D01*
X8798706Y-10524889D02*
X8789182Y-10486793D01*
X8789182Y-10486793D02*
X8789182Y-10439174D01*
X8789182Y-10439174D02*
X8798706Y-10401079D01*
X8798706Y-10401079D02*
X8808229Y-10382031D01*
X8808229Y-10382031D02*
X8817753Y-10372508D01*
X8817753Y-10372508D02*
X8836801Y-10362984D01*
X9027277Y-10362984D02*
X9046325Y-10362984D01*
X9046325Y-10362984D02*
X9065372Y-10372508D01*
X9065372Y-10372508D02*
X9074896Y-10382031D01*
X9074896Y-10382031D02*
X9084420Y-10401079D01*
X9084420Y-10401079D02*
X9093944Y-10439174D01*
X9093944Y-10439174D02*
X9093944Y-10486793D01*
X9093944Y-10486793D02*
X9084420Y-10524889D01*
X9084420Y-10524889D02*
X9074896Y-10543936D01*
X9074896Y-10543936D02*
X9065372Y-10553460D01*
X9065372Y-10553460D02*
X9046325Y-10562984D01*
X9046325Y-10562984D02*
X9027277Y-10562984D01*
X9027277Y-10562984D02*
X9008229Y-10553460D01*
X9008229Y-10553460D02*
X8998706Y-10543936D01*
X8998706Y-10543936D02*
X8989182Y-10524889D01*
X8989182Y-10524889D02*
X8979658Y-10486793D01*
X8979658Y-10486793D02*
X8979658Y-10439174D01*
X8979658Y-10439174D02*
X8989182Y-10401079D01*
X8989182Y-10401079D02*
X8998706Y-10382031D01*
X8998706Y-10382031D02*
X9008229Y-10372508D01*
X9008229Y-10372508D02*
X9027277Y-10362984D01*
X9170134Y-10362984D02*
X9170134Y-10401079D01*
X9246325Y-10362984D02*
X9246325Y-10401079D01*
X9541563Y-10639174D02*
X9532039Y-10629650D01*
X9532039Y-10629650D02*
X9512991Y-10601079D01*
X9512991Y-10601079D02*
X9503468Y-10582031D01*
X9503468Y-10582031D02*
X9493944Y-10553460D01*
X9493944Y-10553460D02*
X9484420Y-10505841D01*
X9484420Y-10505841D02*
X9484420Y-10467746D01*
X9484420Y-10467746D02*
X9493944Y-10420127D01*
X9493944Y-10420127D02*
X9503468Y-10391555D01*
X9503468Y-10391555D02*
X9512991Y-10372508D01*
X9512991Y-10372508D02*
X9532039Y-10343936D01*
X9532039Y-10343936D02*
X9541563Y-10334412D01*
X9608230Y-10382031D02*
X9617753Y-10372508D01*
X9617753Y-10372508D02*
X9636801Y-10362984D01*
X9636801Y-10362984D02*
X9684420Y-10362984D01*
X9684420Y-10362984D02*
X9703468Y-10372508D01*
X9703468Y-10372508D02*
X9712991Y-10382031D01*
X9712991Y-10382031D02*
X9722515Y-10401079D01*
X9722515Y-10401079D02*
X9722515Y-10420127D01*
X9722515Y-10420127D02*
X9712991Y-10448698D01*
X9712991Y-10448698D02*
X9598706Y-10562984D01*
X9598706Y-10562984D02*
X9722515Y-10562984D01*
X9960611Y-10562984D02*
X9960611Y-10362984D01*
X10046325Y-10562984D02*
X10046325Y-10458222D01*
X10046325Y-10458222D02*
X10036801Y-10439174D01*
X10036801Y-10439174D02*
X10017753Y-10429650D01*
X10017753Y-10429650D02*
X9989182Y-10429650D01*
X9989182Y-10429650D02*
X9970134Y-10439174D01*
X9970134Y-10439174D02*
X9960611Y-10448698D01*
X10170134Y-10562984D02*
X10151087Y-10553460D01*
X10151087Y-10553460D02*
X10141563Y-10543936D01*
X10141563Y-10543936D02*
X10132039Y-10524889D01*
X10132039Y-10524889D02*
X10132039Y-10467746D01*
X10132039Y-10467746D02*
X10141563Y-10448698D01*
X10141563Y-10448698D02*
X10151087Y-10439174D01*
X10151087Y-10439174D02*
X10170134Y-10429650D01*
X10170134Y-10429650D02*
X10198706Y-10429650D01*
X10198706Y-10429650D02*
X10217753Y-10439174D01*
X10217753Y-10439174D02*
X10227277Y-10448698D01*
X10227277Y-10448698D02*
X10236801Y-10467746D01*
X10236801Y-10467746D02*
X10236801Y-10524889D01*
X10236801Y-10524889D02*
X10227277Y-10543936D01*
X10227277Y-10543936D02*
X10217753Y-10553460D01*
X10217753Y-10553460D02*
X10198706Y-10562984D01*
X10198706Y-10562984D02*
X10170134Y-10562984D01*
X10351087Y-10562984D02*
X10332039Y-10553460D01*
X10332039Y-10553460D02*
X10322515Y-10534412D01*
X10322515Y-10534412D02*
X10322515Y-10362984D01*
X10503468Y-10553460D02*
X10484420Y-10562984D01*
X10484420Y-10562984D02*
X10446325Y-10562984D01*
X10446325Y-10562984D02*
X10427277Y-10553460D01*
X10427277Y-10553460D02*
X10417753Y-10534412D01*
X10417753Y-10534412D02*
X10417753Y-10458222D01*
X10417753Y-10458222D02*
X10427277Y-10439174D01*
X10427277Y-10439174D02*
X10446325Y-10429650D01*
X10446325Y-10429650D02*
X10484420Y-10429650D01*
X10484420Y-10429650D02*
X10503468Y-10439174D01*
X10503468Y-10439174D02*
X10512992Y-10458222D01*
X10512992Y-10458222D02*
X10512992Y-10477270D01*
X10512992Y-10477270D02*
X10417753Y-10496317D01*
X10589182Y-10553460D02*
X10608230Y-10562984D01*
X10608230Y-10562984D02*
X10646325Y-10562984D01*
X10646325Y-10562984D02*
X10665373Y-10553460D01*
X10665373Y-10553460D02*
X10674896Y-10534412D01*
X10674896Y-10534412D02*
X10674896Y-10524889D01*
X10674896Y-10524889D02*
X10665373Y-10505841D01*
X10665373Y-10505841D02*
X10646325Y-10496317D01*
X10646325Y-10496317D02*
X10617753Y-10496317D01*
X10617753Y-10496317D02*
X10598706Y-10486793D01*
X10598706Y-10486793D02*
X10589182Y-10467746D01*
X10589182Y-10467746D02*
X10589182Y-10458222D01*
X10589182Y-10458222D02*
X10598706Y-10439174D01*
X10598706Y-10439174D02*
X10617753Y-10429650D01*
X10617753Y-10429650D02*
X10646325Y-10429650D01*
X10646325Y-10429650D02*
X10665373Y-10439174D01*
X10741563Y-10639174D02*
X10751087Y-10629650D01*
X10751087Y-10629650D02*
X10770134Y-10601079D01*
X10770134Y-10601079D02*
X10779658Y-10582031D01*
X10779658Y-10582031D02*
X10789182Y-10553460D01*
X10789182Y-10553460D02*
X10798706Y-10505841D01*
X10798706Y-10505841D02*
X10798706Y-10467746D01*
X10798706Y-10467746D02*
X10789182Y-10420127D01*
X10789182Y-10420127D02*
X10779658Y-10391555D01*
X10779658Y-10391555D02*
X10770134Y-10372508D01*
X10770134Y-10372508D02*
X10751087Y-10343936D01*
X10751087Y-10343936D02*
X10741563Y-10334412D01*
D14*
X5846500Y-10675500D02*
X5966500Y-10795500D01*
X5966500Y-10675500D02*
X5846500Y-10795500D01*
X5906500Y-10675500D02*
X5906500Y-10795500D01*
X5846500Y-10735500D02*
X5966500Y-10735500D01*
D11*
X6332039Y-10826984D02*
X6217753Y-10826984D01*
X6274896Y-10826984D02*
X6274896Y-10626984D01*
X6274896Y-10626984D02*
X6255848Y-10655555D01*
X6255848Y-10655555D02*
X6236801Y-10674603D01*
X6236801Y-10674603D02*
X6217753Y-10684127D01*
X6417753Y-10807936D02*
X6427277Y-10817460D01*
X6427277Y-10817460D02*
X6417753Y-10826984D01*
X6417753Y-10826984D02*
X6408229Y-10817460D01*
X6408229Y-10817460D02*
X6417753Y-10807936D01*
X6417753Y-10807936D02*
X6417753Y-10826984D01*
X6503467Y-10646031D02*
X6512991Y-10636508D01*
X6512991Y-10636508D02*
X6532039Y-10626984D01*
X6532039Y-10626984D02*
X6579658Y-10626984D01*
X6579658Y-10626984D02*
X6598705Y-10636508D01*
X6598705Y-10636508D02*
X6608229Y-10646031D01*
X6608229Y-10646031D02*
X6617753Y-10665079D01*
X6617753Y-10665079D02*
X6617753Y-10684127D01*
X6617753Y-10684127D02*
X6608229Y-10712698D01*
X6608229Y-10712698D02*
X6493943Y-10826984D01*
X6493943Y-10826984D02*
X6617753Y-10826984D01*
X6741562Y-10626984D02*
X6760610Y-10626984D01*
X6760610Y-10626984D02*
X6779658Y-10636508D01*
X6779658Y-10636508D02*
X6789182Y-10646031D01*
X6789182Y-10646031D02*
X6798705Y-10665079D01*
X6798705Y-10665079D02*
X6808229Y-10703174D01*
X6808229Y-10703174D02*
X6808229Y-10750793D01*
X6808229Y-10750793D02*
X6798705Y-10788889D01*
X6798705Y-10788889D02*
X6789182Y-10807936D01*
X6789182Y-10807936D02*
X6779658Y-10817460D01*
X6779658Y-10817460D02*
X6760610Y-10826984D01*
X6760610Y-10826984D02*
X6741562Y-10826984D01*
X6741562Y-10826984D02*
X6722515Y-10817460D01*
X6722515Y-10817460D02*
X6712991Y-10807936D01*
X6712991Y-10807936D02*
X6703467Y-10788889D01*
X6703467Y-10788889D02*
X6693943Y-10750793D01*
X6693943Y-10750793D02*
X6693943Y-10703174D01*
X6693943Y-10703174D02*
X6703467Y-10665079D01*
X6703467Y-10665079D02*
X6712991Y-10646031D01*
X6712991Y-10646031D02*
X6722515Y-10636508D01*
X6722515Y-10636508D02*
X6741562Y-10626984D01*
X6932039Y-10626984D02*
X6951086Y-10626984D01*
X6951086Y-10626984D02*
X6970134Y-10636508D01*
X6970134Y-10636508D02*
X6979658Y-10646031D01*
X6979658Y-10646031D02*
X6989182Y-10665079D01*
X6989182Y-10665079D02*
X6998705Y-10703174D01*
X6998705Y-10703174D02*
X6998705Y-10750793D01*
X6998705Y-10750793D02*
X6989182Y-10788889D01*
X6989182Y-10788889D02*
X6979658Y-10807936D01*
X6979658Y-10807936D02*
X6970134Y-10817460D01*
X6970134Y-10817460D02*
X6951086Y-10826984D01*
X6951086Y-10826984D02*
X6932039Y-10826984D01*
X6932039Y-10826984D02*
X6912991Y-10817460D01*
X6912991Y-10817460D02*
X6903467Y-10807936D01*
X6903467Y-10807936D02*
X6893943Y-10788889D01*
X6893943Y-10788889D02*
X6884420Y-10750793D01*
X6884420Y-10750793D02*
X6884420Y-10703174D01*
X6884420Y-10703174D02*
X6893943Y-10665079D01*
X6893943Y-10665079D02*
X6903467Y-10646031D01*
X6903467Y-10646031D02*
X6912991Y-10636508D01*
X6912991Y-10636508D02*
X6932039Y-10626984D01*
X7084420Y-10826984D02*
X7084420Y-10693650D01*
X7084420Y-10712698D02*
X7093943Y-10703174D01*
X7093943Y-10703174D02*
X7112991Y-10693650D01*
X7112991Y-10693650D02*
X7141563Y-10693650D01*
X7141563Y-10693650D02*
X7160610Y-10703174D01*
X7160610Y-10703174D02*
X7170134Y-10722222D01*
X7170134Y-10722222D02*
X7170134Y-10826984D01*
X7170134Y-10722222D02*
X7179658Y-10703174D01*
X7179658Y-10703174D02*
X7198705Y-10693650D01*
X7198705Y-10693650D02*
X7227277Y-10693650D01*
X7227277Y-10693650D02*
X7246324Y-10703174D01*
X7246324Y-10703174D02*
X7255848Y-10722222D01*
X7255848Y-10722222D02*
X7255848Y-10826984D01*
X7351086Y-10826984D02*
X7351086Y-10693650D01*
X7351086Y-10712698D02*
X7360610Y-10703174D01*
X7360610Y-10703174D02*
X7379658Y-10693650D01*
X7379658Y-10693650D02*
X7408229Y-10693650D01*
X7408229Y-10693650D02*
X7427277Y-10703174D01*
X7427277Y-10703174D02*
X7436801Y-10722222D01*
X7436801Y-10722222D02*
X7436801Y-10826984D01*
X7436801Y-10722222D02*
X7446324Y-10703174D01*
X7446324Y-10703174D02*
X7465372Y-10693650D01*
X7465372Y-10693650D02*
X7493943Y-10693650D01*
X7493943Y-10693650D02*
X7512991Y-10703174D01*
X7512991Y-10703174D02*
X7522515Y-10722222D01*
X7522515Y-10722222D02*
X7522515Y-10826984D01*
X7912991Y-10617460D02*
X7741563Y-10874603D01*
X8170134Y-10626984D02*
X8189182Y-10626984D01*
X8189182Y-10626984D02*
X8208229Y-10636508D01*
X8208229Y-10636508D02*
X8217753Y-10646031D01*
X8217753Y-10646031D02*
X8227277Y-10665079D01*
X8227277Y-10665079D02*
X8236801Y-10703174D01*
X8236801Y-10703174D02*
X8236801Y-10750793D01*
X8236801Y-10750793D02*
X8227277Y-10788889D01*
X8227277Y-10788889D02*
X8217753Y-10807936D01*
X8217753Y-10807936D02*
X8208229Y-10817460D01*
X8208229Y-10817460D02*
X8189182Y-10826984D01*
X8189182Y-10826984D02*
X8170134Y-10826984D01*
X8170134Y-10826984D02*
X8151086Y-10817460D01*
X8151086Y-10817460D02*
X8141563Y-10807936D01*
X8141563Y-10807936D02*
X8132039Y-10788889D01*
X8132039Y-10788889D02*
X8122515Y-10750793D01*
X8122515Y-10750793D02*
X8122515Y-10703174D01*
X8122515Y-10703174D02*
X8132039Y-10665079D01*
X8132039Y-10665079D02*
X8141563Y-10646031D01*
X8141563Y-10646031D02*
X8151086Y-10636508D01*
X8151086Y-10636508D02*
X8170134Y-10626984D01*
X8322515Y-10807936D02*
X8332039Y-10817460D01*
X8332039Y-10817460D02*
X8322515Y-10826984D01*
X8322515Y-10826984D02*
X8312991Y-10817460D01*
X8312991Y-10817460D02*
X8322515Y-10807936D01*
X8322515Y-10807936D02*
X8322515Y-10826984D01*
X8455848Y-10626984D02*
X8474896Y-10626984D01*
X8474896Y-10626984D02*
X8493944Y-10636508D01*
X8493944Y-10636508D02*
X8503468Y-10646031D01*
X8503468Y-10646031D02*
X8512991Y-10665079D01*
X8512991Y-10665079D02*
X8522515Y-10703174D01*
X8522515Y-10703174D02*
X8522515Y-10750793D01*
X8522515Y-10750793D02*
X8512991Y-10788889D01*
X8512991Y-10788889D02*
X8503468Y-10807936D01*
X8503468Y-10807936D02*
X8493944Y-10817460D01*
X8493944Y-10817460D02*
X8474896Y-10826984D01*
X8474896Y-10826984D02*
X8455848Y-10826984D01*
X8455848Y-10826984D02*
X8436801Y-10817460D01*
X8436801Y-10817460D02*
X8427277Y-10807936D01*
X8427277Y-10807936D02*
X8417753Y-10788889D01*
X8417753Y-10788889D02*
X8408229Y-10750793D01*
X8408229Y-10750793D02*
X8408229Y-10703174D01*
X8408229Y-10703174D02*
X8417753Y-10665079D01*
X8417753Y-10665079D02*
X8427277Y-10646031D01*
X8427277Y-10646031D02*
X8436801Y-10636508D01*
X8436801Y-10636508D02*
X8455848Y-10626984D01*
X8693944Y-10693650D02*
X8693944Y-10826984D01*
X8646325Y-10617460D02*
X8598706Y-10760317D01*
X8598706Y-10760317D02*
X8722515Y-10760317D01*
X8779658Y-10626984D02*
X8912991Y-10626984D01*
X8912991Y-10626984D02*
X8827277Y-10826984D01*
X8979658Y-10646031D02*
X8989182Y-10636508D01*
X8989182Y-10636508D02*
X9008229Y-10626984D01*
X9008229Y-10626984D02*
X9055849Y-10626984D01*
X9055849Y-10626984D02*
X9074896Y-10636508D01*
X9074896Y-10636508D02*
X9084420Y-10646031D01*
X9084420Y-10646031D02*
X9093944Y-10665079D01*
X9093944Y-10665079D02*
X9093944Y-10684127D01*
X9093944Y-10684127D02*
X9084420Y-10712698D01*
X9084420Y-10712698D02*
X8970134Y-10826984D01*
X8970134Y-10826984D02*
X9093944Y-10826984D01*
X9170134Y-10626984D02*
X9170134Y-10665079D01*
X9246325Y-10626984D02*
X9246325Y-10665079D01*
X9541563Y-10903174D02*
X9532039Y-10893650D01*
X9532039Y-10893650D02*
X9512991Y-10865079D01*
X9512991Y-10865079D02*
X9503468Y-10846031D01*
X9503468Y-10846031D02*
X9493944Y-10817460D01*
X9493944Y-10817460D02*
X9484420Y-10769841D01*
X9484420Y-10769841D02*
X9484420Y-10731746D01*
X9484420Y-10731746D02*
X9493944Y-10684127D01*
X9493944Y-10684127D02*
X9503468Y-10655555D01*
X9503468Y-10655555D02*
X9512991Y-10636508D01*
X9512991Y-10636508D02*
X9532039Y-10607936D01*
X9532039Y-10607936D02*
X9541563Y-10598412D01*
X9722515Y-10826984D02*
X9608230Y-10826984D01*
X9665372Y-10826984D02*
X9665372Y-10626984D01*
X9665372Y-10626984D02*
X9646325Y-10655555D01*
X9646325Y-10655555D02*
X9627277Y-10674603D01*
X9627277Y-10674603D02*
X9608230Y-10684127D01*
X9893944Y-10693650D02*
X9893944Y-10826984D01*
X9846325Y-10617460D02*
X9798706Y-10760317D01*
X9798706Y-10760317D02*
X9922515Y-10760317D01*
X10151087Y-10826984D02*
X10151087Y-10626984D01*
X10236801Y-10826984D02*
X10236801Y-10722222D01*
X10236801Y-10722222D02*
X10227277Y-10703174D01*
X10227277Y-10703174D02*
X10208230Y-10693650D01*
X10208230Y-10693650D02*
X10179658Y-10693650D01*
X10179658Y-10693650D02*
X10160611Y-10703174D01*
X10160611Y-10703174D02*
X10151087Y-10712698D01*
X10360611Y-10826984D02*
X10341563Y-10817460D01*
X10341563Y-10817460D02*
X10332039Y-10807936D01*
X10332039Y-10807936D02*
X10322515Y-10788889D01*
X10322515Y-10788889D02*
X10322515Y-10731746D01*
X10322515Y-10731746D02*
X10332039Y-10712698D01*
X10332039Y-10712698D02*
X10341563Y-10703174D01*
X10341563Y-10703174D02*
X10360611Y-10693650D01*
X10360611Y-10693650D02*
X10389182Y-10693650D01*
X10389182Y-10693650D02*
X10408230Y-10703174D01*
X10408230Y-10703174D02*
X10417753Y-10712698D01*
X10417753Y-10712698D02*
X10427277Y-10731746D01*
X10427277Y-10731746D02*
X10427277Y-10788889D01*
X10427277Y-10788889D02*
X10417753Y-10807936D01*
X10417753Y-10807936D02*
X10408230Y-10817460D01*
X10408230Y-10817460D02*
X10389182Y-10826984D01*
X10389182Y-10826984D02*
X10360611Y-10826984D01*
X10541563Y-10826984D02*
X10522515Y-10817460D01*
X10522515Y-10817460D02*
X10512992Y-10798412D01*
X10512992Y-10798412D02*
X10512992Y-10626984D01*
X10693944Y-10817460D02*
X10674896Y-10826984D01*
X10674896Y-10826984D02*
X10636801Y-10826984D01*
X10636801Y-10826984D02*
X10617753Y-10817460D01*
X10617753Y-10817460D02*
X10608230Y-10798412D01*
X10608230Y-10798412D02*
X10608230Y-10722222D01*
X10608230Y-10722222D02*
X10617753Y-10703174D01*
X10617753Y-10703174D02*
X10636801Y-10693650D01*
X10636801Y-10693650D02*
X10674896Y-10693650D01*
X10674896Y-10693650D02*
X10693944Y-10703174D01*
X10693944Y-10703174D02*
X10703468Y-10722222D01*
X10703468Y-10722222D02*
X10703468Y-10741270D01*
X10703468Y-10741270D02*
X10608230Y-10760317D01*
X10779658Y-10817460D02*
X10798706Y-10826984D01*
X10798706Y-10826984D02*
X10836801Y-10826984D01*
X10836801Y-10826984D02*
X10855849Y-10817460D01*
X10855849Y-10817460D02*
X10865373Y-10798412D01*
X10865373Y-10798412D02*
X10865373Y-10788889D01*
X10865373Y-10788889D02*
X10855849Y-10769841D01*
X10855849Y-10769841D02*
X10836801Y-10760317D01*
X10836801Y-10760317D02*
X10808230Y-10760317D01*
X10808230Y-10760317D02*
X10789182Y-10750793D01*
X10789182Y-10750793D02*
X10779658Y-10731746D01*
X10779658Y-10731746D02*
X10779658Y-10722222D01*
X10779658Y-10722222D02*
X10789182Y-10703174D01*
X10789182Y-10703174D02*
X10808230Y-10693650D01*
X10808230Y-10693650D02*
X10836801Y-10693650D01*
X10836801Y-10693650D02*
X10855849Y-10703174D01*
X10932039Y-10903174D02*
X10941563Y-10893650D01*
X10941563Y-10893650D02*
X10960611Y-10865079D01*
X10960611Y-10865079D02*
X10970134Y-10846031D01*
X10970134Y-10846031D02*
X10979658Y-10817460D01*
X10979658Y-10817460D02*
X10989182Y-10769841D01*
X10989182Y-10769841D02*
X10989182Y-10731746D01*
X10989182Y-10731746D02*
X10979658Y-10684127D01*
X10979658Y-10684127D02*
X10970134Y-10655555D01*
X10970134Y-10655555D02*
X10960611Y-10636508D01*
X10960611Y-10636508D02*
X10941563Y-10607936D01*
X10941563Y-10607936D02*
X10932039Y-10598412D01*
X5766500Y-10899500D02*
X5966500Y-11099500D01*
X5966500Y-10899500D02*
X5766500Y-11099500D01*
X5937211Y-11070211D02*
X5937211Y-10928789D01*
X5795789Y-10928789D01*
X5795789Y-11070211D01*
X5937211Y-11070211D01*
X6217753Y-10910031D02*
X6227277Y-10900508D01*
X6227277Y-10900508D02*
X6246324Y-10890984D01*
X6246324Y-10890984D02*
X6293943Y-10890984D01*
X6293943Y-10890984D02*
X6312991Y-10900508D01*
X6312991Y-10900508D02*
X6322515Y-10910031D01*
X6322515Y-10910031D02*
X6332039Y-10929079D01*
X6332039Y-10929079D02*
X6332039Y-10948127D01*
X6332039Y-10948127D02*
X6322515Y-10976698D01*
X6322515Y-10976698D02*
X6208229Y-11090984D01*
X6208229Y-11090984D02*
X6332039Y-11090984D01*
X6417753Y-11071936D02*
X6427277Y-11081460D01*
X6427277Y-11081460D02*
X6417753Y-11090984D01*
X6417753Y-11090984D02*
X6408229Y-11081460D01*
X6408229Y-11081460D02*
X6417753Y-11071936D01*
X6417753Y-11071936D02*
X6417753Y-11090984D01*
X6503467Y-10910031D02*
X6512991Y-10900508D01*
X6512991Y-10900508D02*
X6532039Y-10890984D01*
X6532039Y-10890984D02*
X6579658Y-10890984D01*
X6579658Y-10890984D02*
X6598705Y-10900508D01*
X6598705Y-10900508D02*
X6608229Y-10910031D01*
X6608229Y-10910031D02*
X6617753Y-10929079D01*
X6617753Y-10929079D02*
X6617753Y-10948127D01*
X6617753Y-10948127D02*
X6608229Y-10976698D01*
X6608229Y-10976698D02*
X6493943Y-11090984D01*
X6493943Y-11090984D02*
X6617753Y-11090984D01*
X6741562Y-10890984D02*
X6760610Y-10890984D01*
X6760610Y-10890984D02*
X6779658Y-10900508D01*
X6779658Y-10900508D02*
X6789182Y-10910031D01*
X6789182Y-10910031D02*
X6798705Y-10929079D01*
X6798705Y-10929079D02*
X6808229Y-10967174D01*
X6808229Y-10967174D02*
X6808229Y-11014793D01*
X6808229Y-11014793D02*
X6798705Y-11052889D01*
X6798705Y-11052889D02*
X6789182Y-11071936D01*
X6789182Y-11071936D02*
X6779658Y-11081460D01*
X6779658Y-11081460D02*
X6760610Y-11090984D01*
X6760610Y-11090984D02*
X6741562Y-11090984D01*
X6741562Y-11090984D02*
X6722515Y-11081460D01*
X6722515Y-11081460D02*
X6712991Y-11071936D01*
X6712991Y-11071936D02*
X6703467Y-11052889D01*
X6703467Y-11052889D02*
X6693943Y-11014793D01*
X6693943Y-11014793D02*
X6693943Y-10967174D01*
X6693943Y-10967174D02*
X6703467Y-10929079D01*
X6703467Y-10929079D02*
X6712991Y-10910031D01*
X6712991Y-10910031D02*
X6722515Y-10900508D01*
X6722515Y-10900508D02*
X6741562Y-10890984D01*
X6932039Y-10890984D02*
X6951086Y-10890984D01*
X6951086Y-10890984D02*
X6970134Y-10900508D01*
X6970134Y-10900508D02*
X6979658Y-10910031D01*
X6979658Y-10910031D02*
X6989182Y-10929079D01*
X6989182Y-10929079D02*
X6998705Y-10967174D01*
X6998705Y-10967174D02*
X6998705Y-11014793D01*
X6998705Y-11014793D02*
X6989182Y-11052889D01*
X6989182Y-11052889D02*
X6979658Y-11071936D01*
X6979658Y-11071936D02*
X6970134Y-11081460D01*
X6970134Y-11081460D02*
X6951086Y-11090984D01*
X6951086Y-11090984D02*
X6932039Y-11090984D01*
X6932039Y-11090984D02*
X6912991Y-11081460D01*
X6912991Y-11081460D02*
X6903467Y-11071936D01*
X6903467Y-11071936D02*
X6893943Y-11052889D01*
X6893943Y-11052889D02*
X6884420Y-11014793D01*
X6884420Y-11014793D02*
X6884420Y-10967174D01*
X6884420Y-10967174D02*
X6893943Y-10929079D01*
X6893943Y-10929079D02*
X6903467Y-10910031D01*
X6903467Y-10910031D02*
X6912991Y-10900508D01*
X6912991Y-10900508D02*
X6932039Y-10890984D01*
X7084420Y-11090984D02*
X7084420Y-10957650D01*
X7084420Y-10976698D02*
X7093943Y-10967174D01*
X7093943Y-10967174D02*
X7112991Y-10957650D01*
X7112991Y-10957650D02*
X7141563Y-10957650D01*
X7141563Y-10957650D02*
X7160610Y-10967174D01*
X7160610Y-10967174D02*
X7170134Y-10986222D01*
X7170134Y-10986222D02*
X7170134Y-11090984D01*
X7170134Y-10986222D02*
X7179658Y-10967174D01*
X7179658Y-10967174D02*
X7198705Y-10957650D01*
X7198705Y-10957650D02*
X7227277Y-10957650D01*
X7227277Y-10957650D02*
X7246324Y-10967174D01*
X7246324Y-10967174D02*
X7255848Y-10986222D01*
X7255848Y-10986222D02*
X7255848Y-11090984D01*
X7351086Y-11090984D02*
X7351086Y-10957650D01*
X7351086Y-10976698D02*
X7360610Y-10967174D01*
X7360610Y-10967174D02*
X7379658Y-10957650D01*
X7379658Y-10957650D02*
X7408229Y-10957650D01*
X7408229Y-10957650D02*
X7427277Y-10967174D01*
X7427277Y-10967174D02*
X7436801Y-10986222D01*
X7436801Y-10986222D02*
X7436801Y-11090984D01*
X7436801Y-10986222D02*
X7446324Y-10967174D01*
X7446324Y-10967174D02*
X7465372Y-10957650D01*
X7465372Y-10957650D02*
X7493943Y-10957650D01*
X7493943Y-10957650D02*
X7512991Y-10967174D01*
X7512991Y-10967174D02*
X7522515Y-10986222D01*
X7522515Y-10986222D02*
X7522515Y-11090984D01*
X7912991Y-10881460D02*
X7741563Y-11138603D01*
X8170134Y-10890984D02*
X8189182Y-10890984D01*
X8189182Y-10890984D02*
X8208229Y-10900508D01*
X8208229Y-10900508D02*
X8217753Y-10910031D01*
X8217753Y-10910031D02*
X8227277Y-10929079D01*
X8227277Y-10929079D02*
X8236801Y-10967174D01*
X8236801Y-10967174D02*
X8236801Y-11014793D01*
X8236801Y-11014793D02*
X8227277Y-11052889D01*
X8227277Y-11052889D02*
X8217753Y-11071936D01*
X8217753Y-11071936D02*
X8208229Y-11081460D01*
X8208229Y-11081460D02*
X8189182Y-11090984D01*
X8189182Y-11090984D02*
X8170134Y-11090984D01*
X8170134Y-11090984D02*
X8151086Y-11081460D01*
X8151086Y-11081460D02*
X8141563Y-11071936D01*
X8141563Y-11071936D02*
X8132039Y-11052889D01*
X8132039Y-11052889D02*
X8122515Y-11014793D01*
X8122515Y-11014793D02*
X8122515Y-10967174D01*
X8122515Y-10967174D02*
X8132039Y-10929079D01*
X8132039Y-10929079D02*
X8141563Y-10910031D01*
X8141563Y-10910031D02*
X8151086Y-10900508D01*
X8151086Y-10900508D02*
X8170134Y-10890984D01*
X8322515Y-11071936D02*
X8332039Y-11081460D01*
X8332039Y-11081460D02*
X8322515Y-11090984D01*
X8322515Y-11090984D02*
X8312991Y-11081460D01*
X8312991Y-11081460D02*
X8322515Y-11071936D01*
X8322515Y-11071936D02*
X8322515Y-11090984D01*
X8455848Y-10890984D02*
X8474896Y-10890984D01*
X8474896Y-10890984D02*
X8493944Y-10900508D01*
X8493944Y-10900508D02*
X8503468Y-10910031D01*
X8503468Y-10910031D02*
X8512991Y-10929079D01*
X8512991Y-10929079D02*
X8522515Y-10967174D01*
X8522515Y-10967174D02*
X8522515Y-11014793D01*
X8522515Y-11014793D02*
X8512991Y-11052889D01*
X8512991Y-11052889D02*
X8503468Y-11071936D01*
X8503468Y-11071936D02*
X8493944Y-11081460D01*
X8493944Y-11081460D02*
X8474896Y-11090984D01*
X8474896Y-11090984D02*
X8455848Y-11090984D01*
X8455848Y-11090984D02*
X8436801Y-11081460D01*
X8436801Y-11081460D02*
X8427277Y-11071936D01*
X8427277Y-11071936D02*
X8417753Y-11052889D01*
X8417753Y-11052889D02*
X8408229Y-11014793D01*
X8408229Y-11014793D02*
X8408229Y-10967174D01*
X8408229Y-10967174D02*
X8417753Y-10929079D01*
X8417753Y-10929079D02*
X8427277Y-10910031D01*
X8427277Y-10910031D02*
X8436801Y-10900508D01*
X8436801Y-10900508D02*
X8455848Y-10890984D01*
X8636801Y-10976698D02*
X8617753Y-10967174D01*
X8617753Y-10967174D02*
X8608229Y-10957650D01*
X8608229Y-10957650D02*
X8598706Y-10938603D01*
X8598706Y-10938603D02*
X8598706Y-10929079D01*
X8598706Y-10929079D02*
X8608229Y-10910031D01*
X8608229Y-10910031D02*
X8617753Y-10900508D01*
X8617753Y-10900508D02*
X8636801Y-10890984D01*
X8636801Y-10890984D02*
X8674896Y-10890984D01*
X8674896Y-10890984D02*
X8693944Y-10900508D01*
X8693944Y-10900508D02*
X8703468Y-10910031D01*
X8703468Y-10910031D02*
X8712991Y-10929079D01*
X8712991Y-10929079D02*
X8712991Y-10938603D01*
X8712991Y-10938603D02*
X8703468Y-10957650D01*
X8703468Y-10957650D02*
X8693944Y-10967174D01*
X8693944Y-10967174D02*
X8674896Y-10976698D01*
X8674896Y-10976698D02*
X8636801Y-10976698D01*
X8636801Y-10976698D02*
X8617753Y-10986222D01*
X8617753Y-10986222D02*
X8608229Y-10995746D01*
X8608229Y-10995746D02*
X8598706Y-11014793D01*
X8598706Y-11014793D02*
X8598706Y-11052889D01*
X8598706Y-11052889D02*
X8608229Y-11071936D01*
X8608229Y-11071936D02*
X8617753Y-11081460D01*
X8617753Y-11081460D02*
X8636801Y-11090984D01*
X8636801Y-11090984D02*
X8674896Y-11090984D01*
X8674896Y-11090984D02*
X8693944Y-11081460D01*
X8693944Y-11081460D02*
X8703468Y-11071936D01*
X8703468Y-11071936D02*
X8712991Y-11052889D01*
X8712991Y-11052889D02*
X8712991Y-11014793D01*
X8712991Y-11014793D02*
X8703468Y-10995746D01*
X8703468Y-10995746D02*
X8693944Y-10986222D01*
X8693944Y-10986222D02*
X8674896Y-10976698D01*
X8884420Y-10890984D02*
X8846325Y-10890984D01*
X8846325Y-10890984D02*
X8827277Y-10900508D01*
X8827277Y-10900508D02*
X8817753Y-10910031D01*
X8817753Y-10910031D02*
X8798706Y-10938603D01*
X8798706Y-10938603D02*
X8789182Y-10976698D01*
X8789182Y-10976698D02*
X8789182Y-11052889D01*
X8789182Y-11052889D02*
X8798706Y-11071936D01*
X8798706Y-11071936D02*
X8808229Y-11081460D01*
X8808229Y-11081460D02*
X8827277Y-11090984D01*
X8827277Y-11090984D02*
X8865372Y-11090984D01*
X8865372Y-11090984D02*
X8884420Y-11081460D01*
X8884420Y-11081460D02*
X8893944Y-11071936D01*
X8893944Y-11071936D02*
X8903468Y-11052889D01*
X8903468Y-11052889D02*
X8903468Y-11005270D01*
X8903468Y-11005270D02*
X8893944Y-10986222D01*
X8893944Y-10986222D02*
X8884420Y-10976698D01*
X8884420Y-10976698D02*
X8865372Y-10967174D01*
X8865372Y-10967174D02*
X8827277Y-10967174D01*
X8827277Y-10967174D02*
X8808229Y-10976698D01*
X8808229Y-10976698D02*
X8798706Y-10986222D01*
X8798706Y-10986222D02*
X8789182Y-11005270D01*
X9074896Y-10890984D02*
X9036801Y-10890984D01*
X9036801Y-10890984D02*
X9017753Y-10900508D01*
X9017753Y-10900508D02*
X9008229Y-10910031D01*
X9008229Y-10910031D02*
X8989182Y-10938603D01*
X8989182Y-10938603D02*
X8979658Y-10976698D01*
X8979658Y-10976698D02*
X8979658Y-11052889D01*
X8979658Y-11052889D02*
X8989182Y-11071936D01*
X8989182Y-11071936D02*
X8998706Y-11081460D01*
X8998706Y-11081460D02*
X9017753Y-11090984D01*
X9017753Y-11090984D02*
X9055849Y-11090984D01*
X9055849Y-11090984D02*
X9074896Y-11081460D01*
X9074896Y-11081460D02*
X9084420Y-11071936D01*
X9084420Y-11071936D02*
X9093944Y-11052889D01*
X9093944Y-11052889D02*
X9093944Y-11005270D01*
X9093944Y-11005270D02*
X9084420Y-10986222D01*
X9084420Y-10986222D02*
X9074896Y-10976698D01*
X9074896Y-10976698D02*
X9055849Y-10967174D01*
X9055849Y-10967174D02*
X9017753Y-10967174D01*
X9017753Y-10967174D02*
X8998706Y-10976698D01*
X8998706Y-10976698D02*
X8989182Y-10986222D01*
X8989182Y-10986222D02*
X8979658Y-11005270D01*
X9170134Y-10890984D02*
X9170134Y-10929079D01*
X9246325Y-10890984D02*
X9246325Y-10929079D01*
X9541563Y-11167174D02*
X9532039Y-11157650D01*
X9532039Y-11157650D02*
X9512991Y-11129079D01*
X9512991Y-11129079D02*
X9503468Y-11110031D01*
X9503468Y-11110031D02*
X9493944Y-11081460D01*
X9493944Y-11081460D02*
X9484420Y-11033841D01*
X9484420Y-11033841D02*
X9484420Y-10995746D01*
X9484420Y-10995746D02*
X9493944Y-10948127D01*
X9493944Y-10948127D02*
X9503468Y-10919555D01*
X9503468Y-10919555D02*
X9512991Y-10900508D01*
X9512991Y-10900508D02*
X9532039Y-10871936D01*
X9532039Y-10871936D02*
X9541563Y-10862412D01*
X9703468Y-10957650D02*
X9703468Y-11090984D01*
X9655849Y-10881460D02*
X9608230Y-11024317D01*
X9608230Y-11024317D02*
X9732039Y-11024317D01*
X9960611Y-11090984D02*
X9960611Y-10890984D01*
X10046325Y-11090984D02*
X10046325Y-10986222D01*
X10046325Y-10986222D02*
X10036801Y-10967174D01*
X10036801Y-10967174D02*
X10017753Y-10957650D01*
X10017753Y-10957650D02*
X9989182Y-10957650D01*
X9989182Y-10957650D02*
X9970134Y-10967174D01*
X9970134Y-10967174D02*
X9960611Y-10976698D01*
X10170134Y-11090984D02*
X10151087Y-11081460D01*
X10151087Y-11081460D02*
X10141563Y-11071936D01*
X10141563Y-11071936D02*
X10132039Y-11052889D01*
X10132039Y-11052889D02*
X10132039Y-10995746D01*
X10132039Y-10995746D02*
X10141563Y-10976698D01*
X10141563Y-10976698D02*
X10151087Y-10967174D01*
X10151087Y-10967174D02*
X10170134Y-10957650D01*
X10170134Y-10957650D02*
X10198706Y-10957650D01*
X10198706Y-10957650D02*
X10217753Y-10967174D01*
X10217753Y-10967174D02*
X10227277Y-10976698D01*
X10227277Y-10976698D02*
X10236801Y-10995746D01*
X10236801Y-10995746D02*
X10236801Y-11052889D01*
X10236801Y-11052889D02*
X10227277Y-11071936D01*
X10227277Y-11071936D02*
X10217753Y-11081460D01*
X10217753Y-11081460D02*
X10198706Y-11090984D01*
X10198706Y-11090984D02*
X10170134Y-11090984D01*
X10351087Y-11090984D02*
X10332039Y-11081460D01*
X10332039Y-11081460D02*
X10322515Y-11062412D01*
X10322515Y-11062412D02*
X10322515Y-10890984D01*
X10503468Y-11081460D02*
X10484420Y-11090984D01*
X10484420Y-11090984D02*
X10446325Y-11090984D01*
X10446325Y-11090984D02*
X10427277Y-11081460D01*
X10427277Y-11081460D02*
X10417753Y-11062412D01*
X10417753Y-11062412D02*
X10417753Y-10986222D01*
X10417753Y-10986222D02*
X10427277Y-10967174D01*
X10427277Y-10967174D02*
X10446325Y-10957650D01*
X10446325Y-10957650D02*
X10484420Y-10957650D01*
X10484420Y-10957650D02*
X10503468Y-10967174D01*
X10503468Y-10967174D02*
X10512992Y-10986222D01*
X10512992Y-10986222D02*
X10512992Y-11005270D01*
X10512992Y-11005270D02*
X10417753Y-11024317D01*
X10589182Y-11081460D02*
X10608230Y-11090984D01*
X10608230Y-11090984D02*
X10646325Y-11090984D01*
X10646325Y-11090984D02*
X10665373Y-11081460D01*
X10665373Y-11081460D02*
X10674896Y-11062412D01*
X10674896Y-11062412D02*
X10674896Y-11052889D01*
X10674896Y-11052889D02*
X10665373Y-11033841D01*
X10665373Y-11033841D02*
X10646325Y-11024317D01*
X10646325Y-11024317D02*
X10617753Y-11024317D01*
X10617753Y-11024317D02*
X10598706Y-11014793D01*
X10598706Y-11014793D02*
X10589182Y-10995746D01*
X10589182Y-10995746D02*
X10589182Y-10986222D01*
X10589182Y-10986222D02*
X10598706Y-10967174D01*
X10598706Y-10967174D02*
X10617753Y-10957650D01*
X10617753Y-10957650D02*
X10646325Y-10957650D01*
X10646325Y-10957650D02*
X10665373Y-10967174D01*
X10741563Y-11167174D02*
X10751087Y-11157650D01*
X10751087Y-11157650D02*
X10770134Y-11129079D01*
X10770134Y-11129079D02*
X10779658Y-11110031D01*
X10779658Y-11110031D02*
X10789182Y-11081460D01*
X10789182Y-11081460D02*
X10798706Y-11033841D01*
X10798706Y-11033841D02*
X10798706Y-10995746D01*
X10798706Y-10995746D02*
X10789182Y-10948127D01*
X10789182Y-10948127D02*
X10779658Y-10919555D01*
X10779658Y-10919555D02*
X10770134Y-10900508D01*
X10770134Y-10900508D02*
X10751087Y-10871936D01*
X10751087Y-10871936D02*
X10741563Y-10862412D01*
X5766500Y-11219500D02*
X5966500Y-11419500D01*
X5966500Y-11219500D02*
X5766500Y-11419500D01*
X5866500Y-11419500D02*
X5966500Y-11319500D01*
X5866500Y-11219500D01*
X5766500Y-11319500D01*
X5866500Y-11419500D01*
X6208229Y-11210984D02*
X6332039Y-11210984D01*
X6332039Y-11210984D02*
X6265372Y-11287174D01*
X6265372Y-11287174D02*
X6293943Y-11287174D01*
X6293943Y-11287174D02*
X6312991Y-11296698D01*
X6312991Y-11296698D02*
X6322515Y-11306222D01*
X6322515Y-11306222D02*
X6332039Y-11325269D01*
X6332039Y-11325269D02*
X6332039Y-11372888D01*
X6332039Y-11372888D02*
X6322515Y-11391936D01*
X6322515Y-11391936D02*
X6312991Y-11401460D01*
X6312991Y-11401460D02*
X6293943Y-11410984D01*
X6293943Y-11410984D02*
X6236801Y-11410984D01*
X6236801Y-11410984D02*
X6217753Y-11401460D01*
X6217753Y-11401460D02*
X6208229Y-11391936D01*
X6417753Y-11391936D02*
X6427277Y-11401460D01*
X6427277Y-11401460D02*
X6417753Y-11410984D01*
X6417753Y-11410984D02*
X6408229Y-11401460D01*
X6408229Y-11401460D02*
X6417753Y-11391936D01*
X6417753Y-11391936D02*
X6417753Y-11410984D01*
X6503467Y-11230031D02*
X6512991Y-11220508D01*
X6512991Y-11220508D02*
X6532039Y-11210984D01*
X6532039Y-11210984D02*
X6579658Y-11210984D01*
X6579658Y-11210984D02*
X6598705Y-11220508D01*
X6598705Y-11220508D02*
X6608229Y-11230031D01*
X6608229Y-11230031D02*
X6617753Y-11249079D01*
X6617753Y-11249079D02*
X6617753Y-11268127D01*
X6617753Y-11268127D02*
X6608229Y-11296698D01*
X6608229Y-11296698D02*
X6493943Y-11410984D01*
X6493943Y-11410984D02*
X6617753Y-11410984D01*
X6741562Y-11210984D02*
X6760610Y-11210984D01*
X6760610Y-11210984D02*
X6779658Y-11220508D01*
X6779658Y-11220508D02*
X6789182Y-11230031D01*
X6789182Y-11230031D02*
X6798705Y-11249079D01*
X6798705Y-11249079D02*
X6808229Y-11287174D01*
X6808229Y-11287174D02*
X6808229Y-11334793D01*
X6808229Y-11334793D02*
X6798705Y-11372888D01*
X6798705Y-11372888D02*
X6789182Y-11391936D01*
X6789182Y-11391936D02*
X6779658Y-11401460D01*
X6779658Y-11401460D02*
X6760610Y-11410984D01*
X6760610Y-11410984D02*
X6741562Y-11410984D01*
X6741562Y-11410984D02*
X6722515Y-11401460D01*
X6722515Y-11401460D02*
X6712991Y-11391936D01*
X6712991Y-11391936D02*
X6703467Y-11372888D01*
X6703467Y-11372888D02*
X6693943Y-11334793D01*
X6693943Y-11334793D02*
X6693943Y-11287174D01*
X6693943Y-11287174D02*
X6703467Y-11249079D01*
X6703467Y-11249079D02*
X6712991Y-11230031D01*
X6712991Y-11230031D02*
X6722515Y-11220508D01*
X6722515Y-11220508D02*
X6741562Y-11210984D01*
X6932039Y-11210984D02*
X6951086Y-11210984D01*
X6951086Y-11210984D02*
X6970134Y-11220508D01*
X6970134Y-11220508D02*
X6979658Y-11230031D01*
X6979658Y-11230031D02*
X6989182Y-11249079D01*
X6989182Y-11249079D02*
X6998705Y-11287174D01*
X6998705Y-11287174D02*
X6998705Y-11334793D01*
X6998705Y-11334793D02*
X6989182Y-11372888D01*
X6989182Y-11372888D02*
X6979658Y-11391936D01*
X6979658Y-11391936D02*
X6970134Y-11401460D01*
X6970134Y-11401460D02*
X6951086Y-11410984D01*
X6951086Y-11410984D02*
X6932039Y-11410984D01*
X6932039Y-11410984D02*
X6912991Y-11401460D01*
X6912991Y-11401460D02*
X6903467Y-11391936D01*
X6903467Y-11391936D02*
X6893943Y-11372888D01*
X6893943Y-11372888D02*
X6884420Y-11334793D01*
X6884420Y-11334793D02*
X6884420Y-11287174D01*
X6884420Y-11287174D02*
X6893943Y-11249079D01*
X6893943Y-11249079D02*
X6903467Y-11230031D01*
X6903467Y-11230031D02*
X6912991Y-11220508D01*
X6912991Y-11220508D02*
X6932039Y-11210984D01*
X7084420Y-11410984D02*
X7084420Y-11277650D01*
X7084420Y-11296698D02*
X7093943Y-11287174D01*
X7093943Y-11287174D02*
X7112991Y-11277650D01*
X7112991Y-11277650D02*
X7141563Y-11277650D01*
X7141563Y-11277650D02*
X7160610Y-11287174D01*
X7160610Y-11287174D02*
X7170134Y-11306222D01*
X7170134Y-11306222D02*
X7170134Y-11410984D01*
X7170134Y-11306222D02*
X7179658Y-11287174D01*
X7179658Y-11287174D02*
X7198705Y-11277650D01*
X7198705Y-11277650D02*
X7227277Y-11277650D01*
X7227277Y-11277650D02*
X7246324Y-11287174D01*
X7246324Y-11287174D02*
X7255848Y-11306222D01*
X7255848Y-11306222D02*
X7255848Y-11410984D01*
X7351086Y-11410984D02*
X7351086Y-11277650D01*
X7351086Y-11296698D02*
X7360610Y-11287174D01*
X7360610Y-11287174D02*
X7379658Y-11277650D01*
X7379658Y-11277650D02*
X7408229Y-11277650D01*
X7408229Y-11277650D02*
X7427277Y-11287174D01*
X7427277Y-11287174D02*
X7436801Y-11306222D01*
X7436801Y-11306222D02*
X7436801Y-11410984D01*
X7436801Y-11306222D02*
X7446324Y-11287174D01*
X7446324Y-11287174D02*
X7465372Y-11277650D01*
X7465372Y-11277650D02*
X7493943Y-11277650D01*
X7493943Y-11277650D02*
X7512991Y-11287174D01*
X7512991Y-11287174D02*
X7522515Y-11306222D01*
X7522515Y-11306222D02*
X7522515Y-11410984D01*
X7912991Y-11201460D02*
X7741563Y-11458603D01*
X8170134Y-11210984D02*
X8189182Y-11210984D01*
X8189182Y-11210984D02*
X8208229Y-11220508D01*
X8208229Y-11220508D02*
X8217753Y-11230031D01*
X8217753Y-11230031D02*
X8227277Y-11249079D01*
X8227277Y-11249079D02*
X8236801Y-11287174D01*
X8236801Y-11287174D02*
X8236801Y-11334793D01*
X8236801Y-11334793D02*
X8227277Y-11372888D01*
X8227277Y-11372888D02*
X8217753Y-11391936D01*
X8217753Y-11391936D02*
X8208229Y-11401460D01*
X8208229Y-11401460D02*
X8189182Y-11410984D01*
X8189182Y-11410984D02*
X8170134Y-11410984D01*
X8170134Y-11410984D02*
X8151086Y-11401460D01*
X8151086Y-11401460D02*
X8141563Y-11391936D01*
X8141563Y-11391936D02*
X8132039Y-11372888D01*
X8132039Y-11372888D02*
X8122515Y-11334793D01*
X8122515Y-11334793D02*
X8122515Y-11287174D01*
X8122515Y-11287174D02*
X8132039Y-11249079D01*
X8132039Y-11249079D02*
X8141563Y-11230031D01*
X8141563Y-11230031D02*
X8151086Y-11220508D01*
X8151086Y-11220508D02*
X8170134Y-11210984D01*
X8322515Y-11391936D02*
X8332039Y-11401460D01*
X8332039Y-11401460D02*
X8322515Y-11410984D01*
X8322515Y-11410984D02*
X8312991Y-11401460D01*
X8312991Y-11401460D02*
X8322515Y-11391936D01*
X8322515Y-11391936D02*
X8322515Y-11410984D01*
X8522515Y-11410984D02*
X8408229Y-11410984D01*
X8465372Y-11410984D02*
X8465372Y-11210984D01*
X8465372Y-11210984D02*
X8446325Y-11239555D01*
X8446325Y-11239555D02*
X8427277Y-11258603D01*
X8427277Y-11258603D02*
X8408229Y-11268127D01*
X8598706Y-11230031D02*
X8608229Y-11220508D01*
X8608229Y-11220508D02*
X8627277Y-11210984D01*
X8627277Y-11210984D02*
X8674896Y-11210984D01*
X8674896Y-11210984D02*
X8693944Y-11220508D01*
X8693944Y-11220508D02*
X8703468Y-11230031D01*
X8703468Y-11230031D02*
X8712991Y-11249079D01*
X8712991Y-11249079D02*
X8712991Y-11268127D01*
X8712991Y-11268127D02*
X8703468Y-11296698D01*
X8703468Y-11296698D02*
X8589182Y-11410984D01*
X8589182Y-11410984D02*
X8712991Y-11410984D01*
X8884420Y-11210984D02*
X8846325Y-11210984D01*
X8846325Y-11210984D02*
X8827277Y-11220508D01*
X8827277Y-11220508D02*
X8817753Y-11230031D01*
X8817753Y-11230031D02*
X8798706Y-11258603D01*
X8798706Y-11258603D02*
X8789182Y-11296698D01*
X8789182Y-11296698D02*
X8789182Y-11372888D01*
X8789182Y-11372888D02*
X8798706Y-11391936D01*
X8798706Y-11391936D02*
X8808229Y-11401460D01*
X8808229Y-11401460D02*
X8827277Y-11410984D01*
X8827277Y-11410984D02*
X8865372Y-11410984D01*
X8865372Y-11410984D02*
X8884420Y-11401460D01*
X8884420Y-11401460D02*
X8893944Y-11391936D01*
X8893944Y-11391936D02*
X8903468Y-11372888D01*
X8903468Y-11372888D02*
X8903468Y-11325269D01*
X8903468Y-11325269D02*
X8893944Y-11306222D01*
X8893944Y-11306222D02*
X8884420Y-11296698D01*
X8884420Y-11296698D02*
X8865372Y-11287174D01*
X8865372Y-11287174D02*
X8827277Y-11287174D01*
X8827277Y-11287174D02*
X8808229Y-11296698D01*
X8808229Y-11296698D02*
X8798706Y-11306222D01*
X8798706Y-11306222D02*
X8789182Y-11325269D01*
X9027277Y-11210984D02*
X9046325Y-11210984D01*
X9046325Y-11210984D02*
X9065372Y-11220508D01*
X9065372Y-11220508D02*
X9074896Y-11230031D01*
X9074896Y-11230031D02*
X9084420Y-11249079D01*
X9084420Y-11249079D02*
X9093944Y-11287174D01*
X9093944Y-11287174D02*
X9093944Y-11334793D01*
X9093944Y-11334793D02*
X9084420Y-11372888D01*
X9084420Y-11372888D02*
X9074896Y-11391936D01*
X9074896Y-11391936D02*
X9065372Y-11401460D01*
X9065372Y-11401460D02*
X9046325Y-11410984D01*
X9046325Y-11410984D02*
X9027277Y-11410984D01*
X9027277Y-11410984D02*
X9008229Y-11401460D01*
X9008229Y-11401460D02*
X8998706Y-11391936D01*
X8998706Y-11391936D02*
X8989182Y-11372888D01*
X8989182Y-11372888D02*
X8979658Y-11334793D01*
X8979658Y-11334793D02*
X8979658Y-11287174D01*
X8979658Y-11287174D02*
X8989182Y-11249079D01*
X8989182Y-11249079D02*
X8998706Y-11230031D01*
X8998706Y-11230031D02*
X9008229Y-11220508D01*
X9008229Y-11220508D02*
X9027277Y-11210984D01*
X9170134Y-11210984D02*
X9170134Y-11249079D01*
X9246325Y-11210984D02*
X9246325Y-11249079D01*
X9541563Y-11487174D02*
X9532039Y-11477650D01*
X9532039Y-11477650D02*
X9512991Y-11449079D01*
X9512991Y-11449079D02*
X9503468Y-11430031D01*
X9503468Y-11430031D02*
X9493944Y-11401460D01*
X9493944Y-11401460D02*
X9484420Y-11353841D01*
X9484420Y-11353841D02*
X9484420Y-11315746D01*
X9484420Y-11315746D02*
X9493944Y-11268127D01*
X9493944Y-11268127D02*
X9503468Y-11239555D01*
X9503468Y-11239555D02*
X9512991Y-11220508D01*
X9512991Y-11220508D02*
X9532039Y-11191936D01*
X9532039Y-11191936D02*
X9541563Y-11182412D01*
X9703468Y-11277650D02*
X9703468Y-11410984D01*
X9655849Y-11201460D02*
X9608230Y-11344317D01*
X9608230Y-11344317D02*
X9732039Y-11344317D01*
X9960611Y-11410984D02*
X9960611Y-11210984D01*
X10046325Y-11410984D02*
X10046325Y-11306222D01*
X10046325Y-11306222D02*
X10036801Y-11287174D01*
X10036801Y-11287174D02*
X10017753Y-11277650D01*
X10017753Y-11277650D02*
X9989182Y-11277650D01*
X9989182Y-11277650D02*
X9970134Y-11287174D01*
X9970134Y-11287174D02*
X9960611Y-11296698D01*
X10170134Y-11410984D02*
X10151087Y-11401460D01*
X10151087Y-11401460D02*
X10141563Y-11391936D01*
X10141563Y-11391936D02*
X10132039Y-11372888D01*
X10132039Y-11372888D02*
X10132039Y-11315746D01*
X10132039Y-11315746D02*
X10141563Y-11296698D01*
X10141563Y-11296698D02*
X10151087Y-11287174D01*
X10151087Y-11287174D02*
X10170134Y-11277650D01*
X10170134Y-11277650D02*
X10198706Y-11277650D01*
X10198706Y-11277650D02*
X10217753Y-11287174D01*
X10217753Y-11287174D02*
X10227277Y-11296698D01*
X10227277Y-11296698D02*
X10236801Y-11315746D01*
X10236801Y-11315746D02*
X10236801Y-11372888D01*
X10236801Y-11372888D02*
X10227277Y-11391936D01*
X10227277Y-11391936D02*
X10217753Y-11401460D01*
X10217753Y-11401460D02*
X10198706Y-11410984D01*
X10198706Y-11410984D02*
X10170134Y-11410984D01*
X10351087Y-11410984D02*
X10332039Y-11401460D01*
X10332039Y-11401460D02*
X10322515Y-11382412D01*
X10322515Y-11382412D02*
X10322515Y-11210984D01*
X10503468Y-11401460D02*
X10484420Y-11410984D01*
X10484420Y-11410984D02*
X10446325Y-11410984D01*
X10446325Y-11410984D02*
X10427277Y-11401460D01*
X10427277Y-11401460D02*
X10417753Y-11382412D01*
X10417753Y-11382412D02*
X10417753Y-11306222D01*
X10417753Y-11306222D02*
X10427277Y-11287174D01*
X10427277Y-11287174D02*
X10446325Y-11277650D01*
X10446325Y-11277650D02*
X10484420Y-11277650D01*
X10484420Y-11277650D02*
X10503468Y-11287174D01*
X10503468Y-11287174D02*
X10512992Y-11306222D01*
X10512992Y-11306222D02*
X10512992Y-11325269D01*
X10512992Y-11325269D02*
X10417753Y-11344317D01*
X10589182Y-11401460D02*
X10608230Y-11410984D01*
X10608230Y-11410984D02*
X10646325Y-11410984D01*
X10646325Y-11410984D02*
X10665373Y-11401460D01*
X10665373Y-11401460D02*
X10674896Y-11382412D01*
X10674896Y-11382412D02*
X10674896Y-11372888D01*
X10674896Y-11372888D02*
X10665373Y-11353841D01*
X10665373Y-11353841D02*
X10646325Y-11344317D01*
X10646325Y-11344317D02*
X10617753Y-11344317D01*
X10617753Y-11344317D02*
X10598706Y-11334793D01*
X10598706Y-11334793D02*
X10589182Y-11315746D01*
X10589182Y-11315746D02*
X10589182Y-11306222D01*
X10589182Y-11306222D02*
X10598706Y-11287174D01*
X10598706Y-11287174D02*
X10617753Y-11277650D01*
X10617753Y-11277650D02*
X10646325Y-11277650D01*
X10646325Y-11277650D02*
X10665373Y-11287174D01*
X10741563Y-11487174D02*
X10751087Y-11477650D01*
X10751087Y-11477650D02*
X10770134Y-11449079D01*
X10770134Y-11449079D02*
X10779658Y-11430031D01*
X10779658Y-11430031D02*
X10789182Y-11401460D01*
X10789182Y-11401460D02*
X10798706Y-11353841D01*
X10798706Y-11353841D02*
X10798706Y-11315746D01*
X10798706Y-11315746D02*
X10789182Y-11268127D01*
X10789182Y-11268127D02*
X10779658Y-11239555D01*
X10779658Y-11239555D02*
X10770134Y-11220508D01*
X10770134Y-11220508D02*
X10751087Y-11191936D01*
X10751087Y-11191936D02*
X10741563Y-11182412D01*
M02*
