M48
; DRILL file {KiCad 8.0.8+1} date 2025-02-28T11:26:10+1100
; FORMAT={-:-/ absolute / inch / decimal}
; #@! TF.CreationDate,2025-02-28T11:26:10+11:00
; #@! TF.GenerationSoftware,Kicad,Pcbnew,8.0.8+1
; #@! TF.FileFunction,Plated,1,2,PTH
FMAT,2
INCH
; #@! TA.AperFunction,Plated,PTH,ViaDrill
T1C0.0300
; #@! TA.AperFunction,Plated,PTH,ComponentDrill
T2C0.0315
; #@! TA.AperFunction,Plated,PTH,ComponentDrill
T3C0.0335
; #@! TA.AperFunction,Plated,PTH,ComponentDrill
T4C0.0354
; #@! TA.AperFunction,Plated,PTH,ComponentDrill
T5C0.0394
; #@! TA.AperFunction,Plated,PTH,ViaDrill
T6C0.0400
; #@! TA.AperFunction,Plated,PTH,ComponentDrill
T7C0.0472
; #@! TA.AperFunction,Plated,PTH,ComponentDrill
T8C0.0866
; #@! TA.AperFunction,Plated,PTH,ComponentDrill
T9C0.1260
%
G90
G05
T1
X3.54Y-1.9
X3.55Y-2.2
X4.07Y-1.8
X4.09Y-2.15
X4.35Y-2.13
X4.45Y-1.12
X4.47Y-0.9
X4.67Y-0.89
X4.71Y-1.74
X4.72Y-2.56
X4.74Y-1.36
X4.76Y-0.88
X4.79Y-0.75
X4.93Y-2.24
X4.96Y-2.38
X4.99Y-0.75
X4.99Y-1.5
X5.01Y-1.91
X5.1Y-2.44
X5.43Y-1.1
X5.47Y-2.72
X5.55Y-2.51
X5.58Y-2.37
X5.68Y-1.6
X5.85Y-2.72
X5.86Y-1.24
X6.1Y-2.13
X6.1Y-2.35
X6.18Y-1.94
X6.4Y-1.86
X6.5Y-2.51
X6.52Y-2.12
X6.9Y-1.97
T2
X3.21Y-1.0
X3.21Y-1.1
X3.21Y-1.2
X3.21Y-1.3
X3.21Y-1.4
X3.21Y-1.5
X3.21Y-1.6
X3.21Y-1.7
X3.21Y-1.8
X3.21Y-1.9
X3.21Y-2.0
X3.21Y-2.1
X3.21Y-2.2
X3.21Y-2.3
X3.21Y-2.4
X4.21Y-1.0
X4.21Y-1.1
X4.21Y-1.2
X4.21Y-1.3
X4.21Y-1.4
X4.21Y-1.5
X4.21Y-1.6
X4.21Y-1.7
X4.21Y-1.8
X4.21Y-1.9
X4.21Y-2.0
X4.21Y-2.1
X4.21Y-2.2
X4.21Y-2.3
X4.21Y-2.4
X4.6Y-1.0
X4.6Y-1.1
X4.6Y-1.2
X4.6Y-1.3
X4.6Y-1.4
X4.6Y-1.5
X4.6Y-1.6
X4.6Y-1.7
X4.6Y-1.8
X4.6Y-1.9
X6.15Y-0.8
X6.15Y-0.987
X6.3Y-1.47
X6.3Y-1.57
X6.3Y-1.67
X6.3Y-1.77
X6.3Y-1.87
X6.3Y-1.97
X6.65Y-0.8
X6.65Y-0.987
T3
X5.2Y-1.0
X5.2Y-1.1
X5.2Y-1.2
X5.2Y-1.3
X5.2Y-1.4
X5.2Y-1.5
X5.2Y-1.6
X5.2Y-1.7
T4
X2.475Y-2.35
X2.475Y-2.55
X2.975Y-2.35
X2.975Y-2.55
T5
X2.4533Y-1.0291
X2.4533Y-2.1709
X2.996Y-1.37
X2.9967Y-1.0291
X2.9967Y-2.1709
X5.6008Y-0.9
X5.9Y-0.9
T6
X2.76Y-2.48
X3.96Y-2.6
T7
X2.8Y-3.0
X3.0Y-3.0
X3.2Y-3.0
X4.4022Y-2.9845
X4.6022Y-2.9845
X4.9022Y-2.9845
X5.1022Y-2.9845
X5.3022Y-2.9845
X5.6022Y-2.9845
X5.8022Y-2.9845
X6.0022Y-2.9845
X6.2022Y-2.9845
X6.5022Y-2.9845
X6.7022Y-2.9845
T8
X3.5Y-3.2
X3.7Y-3.2
X3.9Y-3.2
X4.1Y-3.2
T9
X2.5Y-0.8
X2.5Y-3.2
X7.0Y-0.8
X7.0Y-3.2
M30
