%TF.GenerationSoftware,KiCad,Pcbnew,8.0.8+1*%
%TF.CreationDate,2025-02-28T13:11:42+11:00*%
%TF.ProjectId,mcomms,6d636f6d-6d73-42e6-9b69-6361645f7063,rev?*%
%TF.SameCoordinates,Original*%
%TF.FileFunction,Legend,Top*%
%TF.FilePolarity,Positive*%
%FSLAX46Y46*%
G04 Gerber Fmt 4.6, Leading zero omitted, Abs format (unit mm)*
G04 Created by KiCad (PCBNEW 8.0.8+1) date 2025-02-28 13:11:42*
%MOMM*%
%LPD*%
G01*
G04 APERTURE LIST*
%ADD10C,0.100000*%
%ADD11C,0.152400*%
%ADD12C,0.254000*%
%ADD13C,0.127000*%
%ADD14C,0.150000*%
%ADD15C,0.120000*%
G04 APERTURE END LIST*
D10*
X111508265Y-71960800D02*
X111651122Y-72008419D01*
X111651122Y-72008419D02*
X111889217Y-72008419D01*
X111889217Y-72008419D02*
X111984455Y-71960800D01*
X111984455Y-71960800D02*
X112032074Y-71913180D01*
X112032074Y-71913180D02*
X112079693Y-71817942D01*
X112079693Y-71817942D02*
X112079693Y-71722704D01*
X112079693Y-71722704D02*
X112032074Y-71627466D01*
X112032074Y-71627466D02*
X111984455Y-71579847D01*
X111984455Y-71579847D02*
X111889217Y-71532228D01*
X111889217Y-71532228D02*
X111698741Y-71484609D01*
X111698741Y-71484609D02*
X111603503Y-71436990D01*
X111603503Y-71436990D02*
X111555884Y-71389371D01*
X111555884Y-71389371D02*
X111508265Y-71294133D01*
X111508265Y-71294133D02*
X111508265Y-71198895D01*
X111508265Y-71198895D02*
X111555884Y-71103657D01*
X111555884Y-71103657D02*
X111603503Y-71056038D01*
X111603503Y-71056038D02*
X111698741Y-71008419D01*
X111698741Y-71008419D02*
X111936836Y-71008419D01*
X111936836Y-71008419D02*
X112079693Y-71056038D01*
X112508265Y-71627466D02*
X113270170Y-71627466D01*
X112889217Y-72008419D02*
X112889217Y-71246514D01*
D11*
X168901405Y-68980011D02*
X169409405Y-70504011D01*
X169409405Y-70504011D02*
X169917405Y-68980011D01*
X170425406Y-70504011D02*
X170425406Y-68980011D01*
X170425406Y-68980011D02*
X170933406Y-70068582D01*
X170933406Y-70068582D02*
X171441406Y-68980011D01*
X171441406Y-68980011D02*
X171441406Y-70504011D01*
X172457405Y-68980011D02*
X172747691Y-68980011D01*
X172747691Y-68980011D02*
X172892834Y-69052582D01*
X172892834Y-69052582D02*
X173037977Y-69197725D01*
X173037977Y-69197725D02*
X173110548Y-69488011D01*
X173110548Y-69488011D02*
X173110548Y-69996011D01*
X173110548Y-69996011D02*
X173037977Y-70286297D01*
X173037977Y-70286297D02*
X172892834Y-70431440D01*
X172892834Y-70431440D02*
X172747691Y-70504011D01*
X172747691Y-70504011D02*
X172457405Y-70504011D01*
X172457405Y-70504011D02*
X172312263Y-70431440D01*
X172312263Y-70431440D02*
X172167120Y-70286297D01*
X172167120Y-70286297D02*
X172094548Y-69996011D01*
X172094548Y-69996011D02*
X172094548Y-69488011D01*
X172094548Y-69488011D02*
X172167120Y-69197725D01*
X172167120Y-69197725D02*
X172312263Y-69052582D01*
X172312263Y-69052582D02*
X172457405Y-68980011D01*
X173763691Y-70504011D02*
X173763691Y-68980011D01*
X173763691Y-68980011D02*
X174634548Y-70504011D01*
X174634548Y-70504011D02*
X174634548Y-68980011D01*
X169119120Y-72159280D02*
X169627120Y-72159280D01*
X169844834Y-72957566D02*
X169119120Y-72957566D01*
X169119120Y-72957566D02*
X169119120Y-71433566D01*
X169119120Y-71433566D02*
X169844834Y-71433566D01*
X170497977Y-72957566D02*
X170497977Y-71433566D01*
X170497977Y-71433566D02*
X171368834Y-72957566D01*
X171368834Y-72957566D02*
X171368834Y-71433566D01*
X172021976Y-72522137D02*
X172747691Y-72522137D01*
X171876833Y-72957566D02*
X172384833Y-71433566D01*
X172384833Y-71433566D02*
X172892833Y-72957566D01*
X173908834Y-72159280D02*
X174126548Y-72231852D01*
X174126548Y-72231852D02*
X174199119Y-72304423D01*
X174199119Y-72304423D02*
X174271691Y-72449566D01*
X174271691Y-72449566D02*
X174271691Y-72667280D01*
X174271691Y-72667280D02*
X174199119Y-72812423D01*
X174199119Y-72812423D02*
X174126548Y-72884995D01*
X174126548Y-72884995D02*
X173981405Y-72957566D01*
X173981405Y-72957566D02*
X173400834Y-72957566D01*
X173400834Y-72957566D02*
X173400834Y-71433566D01*
X173400834Y-71433566D02*
X173908834Y-71433566D01*
X173908834Y-71433566D02*
X174053977Y-71506137D01*
X174053977Y-71506137D02*
X174126548Y-71578709D01*
X174126548Y-71578709D02*
X174199119Y-71723852D01*
X174199119Y-71723852D02*
X174199119Y-71868995D01*
X174199119Y-71868995D02*
X174126548Y-72014137D01*
X174126548Y-72014137D02*
X174053977Y-72086709D01*
X174053977Y-72086709D02*
X173908834Y-72159280D01*
X173908834Y-72159280D02*
X173400834Y-72159280D01*
X175650548Y-72957566D02*
X174924834Y-72957566D01*
X174924834Y-72957566D02*
X174924834Y-71433566D01*
X176158548Y-72159280D02*
X176666548Y-72159280D01*
X176884262Y-72957566D02*
X176158548Y-72957566D01*
X176158548Y-72957566D02*
X176158548Y-71433566D01*
X176158548Y-71433566D02*
X176884262Y-71433566D01*
D10*
X168007312Y-62864419D02*
X167673979Y-62388228D01*
X167435884Y-62864419D02*
X167435884Y-61864419D01*
X167435884Y-61864419D02*
X167816836Y-61864419D01*
X167816836Y-61864419D02*
X167912074Y-61912038D01*
X167912074Y-61912038D02*
X167959693Y-61959657D01*
X167959693Y-61959657D02*
X168007312Y-62054895D01*
X168007312Y-62054895D02*
X168007312Y-62197752D01*
X168007312Y-62197752D02*
X167959693Y-62292990D01*
X167959693Y-62292990D02*
X167912074Y-62340609D01*
X167912074Y-62340609D02*
X167816836Y-62388228D01*
X167816836Y-62388228D02*
X167435884Y-62388228D01*
X168435884Y-62340609D02*
X168769217Y-62340609D01*
X168912074Y-62864419D02*
X168435884Y-62864419D01*
X168435884Y-62864419D02*
X168435884Y-61864419D01*
X168435884Y-61864419D02*
X168912074Y-61864419D01*
X169197789Y-61864419D02*
X169531122Y-62864419D01*
X169531122Y-62864419D02*
X169864455Y-61864419D01*
X170721598Y-62864419D02*
X170150170Y-62864419D01*
X170435884Y-62864419D02*
X170435884Y-61864419D01*
X170435884Y-61864419D02*
X170340646Y-62007276D01*
X170340646Y-62007276D02*
X170245408Y-62102514D01*
X170245408Y-62102514D02*
X170150170Y-62150133D01*
X73789217Y-71738609D02*
X73932074Y-71786228D01*
X73932074Y-71786228D02*
X73979693Y-71833847D01*
X73979693Y-71833847D02*
X74027312Y-71929085D01*
X74027312Y-71929085D02*
X74027312Y-72071942D01*
X74027312Y-72071942D02*
X73979693Y-72167180D01*
X73979693Y-72167180D02*
X73932074Y-72214800D01*
X73932074Y-72214800D02*
X73836836Y-72262419D01*
X73836836Y-72262419D02*
X73455884Y-72262419D01*
X73455884Y-72262419D02*
X73455884Y-71262419D01*
X73455884Y-71262419D02*
X73789217Y-71262419D01*
X73789217Y-71262419D02*
X73884455Y-71310038D01*
X73884455Y-71310038D02*
X73932074Y-71357657D01*
X73932074Y-71357657D02*
X73979693Y-71452895D01*
X73979693Y-71452895D02*
X73979693Y-71548133D01*
X73979693Y-71548133D02*
X73932074Y-71643371D01*
X73932074Y-71643371D02*
X73884455Y-71690990D01*
X73884455Y-71690990D02*
X73789217Y-71738609D01*
X73789217Y-71738609D02*
X73455884Y-71738609D01*
X74408265Y-71976704D02*
X74884455Y-71976704D01*
X74313027Y-72262419D02*
X74646360Y-71262419D01*
X74646360Y-71262419D02*
X74979693Y-72262419D01*
X75170170Y-71262419D02*
X75741598Y-71262419D01*
X75455884Y-72262419D02*
X75455884Y-71262419D01*
X75932075Y-71262419D02*
X76503503Y-71262419D01*
X76217789Y-72262419D02*
X76217789Y-71262419D01*
X76598742Y-72357657D02*
X77360646Y-72357657D01*
X77551123Y-72214800D02*
X77693980Y-72262419D01*
X77693980Y-72262419D02*
X77932075Y-72262419D01*
X77932075Y-72262419D02*
X78027313Y-72214800D01*
X78027313Y-72214800D02*
X78074932Y-72167180D01*
X78074932Y-72167180D02*
X78122551Y-72071942D01*
X78122551Y-72071942D02*
X78122551Y-71976704D01*
X78122551Y-71976704D02*
X78074932Y-71881466D01*
X78074932Y-71881466D02*
X78027313Y-71833847D01*
X78027313Y-71833847D02*
X77932075Y-71786228D01*
X77932075Y-71786228D02*
X77741599Y-71738609D01*
X77741599Y-71738609D02*
X77646361Y-71690990D01*
X77646361Y-71690990D02*
X77598742Y-71643371D01*
X77598742Y-71643371D02*
X77551123Y-71548133D01*
X77551123Y-71548133D02*
X77551123Y-71452895D01*
X77551123Y-71452895D02*
X77598742Y-71357657D01*
X77598742Y-71357657D02*
X77646361Y-71310038D01*
X77646361Y-71310038D02*
X77741599Y-71262419D01*
X77741599Y-71262419D02*
X77979694Y-71262419D01*
X77979694Y-71262419D02*
X78122551Y-71310038D01*
X78455885Y-71262419D02*
X78693980Y-72262419D01*
X78693980Y-72262419D02*
X78884456Y-71548133D01*
X78884456Y-71548133D02*
X79074932Y-72262419D01*
X79074932Y-72262419D02*
X79313028Y-71262419D01*
X129399312Y-73786419D02*
X129065979Y-73310228D01*
X128827884Y-73786419D02*
X128827884Y-72786419D01*
X128827884Y-72786419D02*
X129208836Y-72786419D01*
X129208836Y-72786419D02*
X129304074Y-72834038D01*
X129304074Y-72834038D02*
X129351693Y-72881657D01*
X129351693Y-72881657D02*
X129399312Y-72976895D01*
X129399312Y-72976895D02*
X129399312Y-73119752D01*
X129399312Y-73119752D02*
X129351693Y-73214990D01*
X129351693Y-73214990D02*
X129304074Y-73262609D01*
X129304074Y-73262609D02*
X129208836Y-73310228D01*
X129208836Y-73310228D02*
X128827884Y-73310228D01*
X129827884Y-73786419D02*
X129827884Y-72786419D01*
X129827884Y-72786419D02*
X130208836Y-72786419D01*
X130208836Y-72786419D02*
X130304074Y-72834038D01*
X130304074Y-72834038D02*
X130351693Y-72881657D01*
X130351693Y-72881657D02*
X130399312Y-72976895D01*
X130399312Y-72976895D02*
X130399312Y-73119752D01*
X130399312Y-73119752D02*
X130351693Y-73214990D01*
X130351693Y-73214990D02*
X130304074Y-73262609D01*
X130304074Y-73262609D02*
X130208836Y-73310228D01*
X130208836Y-73310228D02*
X129827884Y-73310228D01*
X130827884Y-73786419D02*
X130827884Y-72786419D01*
X130827884Y-72786419D02*
X131161217Y-73500704D01*
X131161217Y-73500704D02*
X131494550Y-72786419D01*
X131494550Y-72786419D02*
X131494550Y-73786419D01*
X87600455Y-83787752D02*
X87600455Y-84454419D01*
X87362360Y-83406800D02*
X87124265Y-84121085D01*
X87124265Y-84121085D02*
X87743312Y-84121085D01*
X88267122Y-83882990D02*
X88171884Y-83835371D01*
X88171884Y-83835371D02*
X88124265Y-83787752D01*
X88124265Y-83787752D02*
X88076646Y-83692514D01*
X88076646Y-83692514D02*
X88076646Y-83644895D01*
X88076646Y-83644895D02*
X88124265Y-83549657D01*
X88124265Y-83549657D02*
X88171884Y-83502038D01*
X88171884Y-83502038D02*
X88267122Y-83454419D01*
X88267122Y-83454419D02*
X88457598Y-83454419D01*
X88457598Y-83454419D02*
X88552836Y-83502038D01*
X88552836Y-83502038D02*
X88600455Y-83549657D01*
X88600455Y-83549657D02*
X88648074Y-83644895D01*
X88648074Y-83644895D02*
X88648074Y-83692514D01*
X88648074Y-83692514D02*
X88600455Y-83787752D01*
X88600455Y-83787752D02*
X88552836Y-83835371D01*
X88552836Y-83835371D02*
X88457598Y-83882990D01*
X88457598Y-83882990D02*
X88267122Y-83882990D01*
X88267122Y-83882990D02*
X88171884Y-83930609D01*
X88171884Y-83930609D02*
X88124265Y-83978228D01*
X88124265Y-83978228D02*
X88076646Y-84073466D01*
X88076646Y-84073466D02*
X88076646Y-84263942D01*
X88076646Y-84263942D02*
X88124265Y-84359180D01*
X88124265Y-84359180D02*
X88171884Y-84406800D01*
X88171884Y-84406800D02*
X88267122Y-84454419D01*
X88267122Y-84454419D02*
X88457598Y-84454419D01*
X88457598Y-84454419D02*
X88552836Y-84406800D01*
X88552836Y-84406800D02*
X88600455Y-84359180D01*
X88600455Y-84359180D02*
X88648074Y-84263942D01*
X88648074Y-84263942D02*
X88648074Y-84073466D01*
X88648074Y-84073466D02*
X88600455Y-83978228D01*
X88600455Y-83978228D02*
X88552836Y-83930609D01*
X88552836Y-83930609D02*
X88457598Y-83882990D01*
X88933789Y-83454419D02*
X89267122Y-84454419D01*
X89267122Y-84454419D02*
X89600455Y-83454419D01*
X89933789Y-84073466D02*
X90695694Y-84073466D01*
X90314741Y-84454419D02*
X90314741Y-83692514D01*
D12*
X167274914Y-61206113D02*
X167274914Y-59174113D01*
X167274914Y-59174113D02*
X167952247Y-60625542D01*
X167952247Y-60625542D02*
X168629581Y-59174113D01*
X168629581Y-59174113D02*
X168629581Y-61206113D01*
X170758343Y-61012590D02*
X170661581Y-61109352D01*
X170661581Y-61109352D02*
X170371295Y-61206113D01*
X170371295Y-61206113D02*
X170177771Y-61206113D01*
X170177771Y-61206113D02*
X169887486Y-61109352D01*
X169887486Y-61109352D02*
X169693962Y-60915828D01*
X169693962Y-60915828D02*
X169597200Y-60722304D01*
X169597200Y-60722304D02*
X169500438Y-60335256D01*
X169500438Y-60335256D02*
X169500438Y-60044971D01*
X169500438Y-60044971D02*
X169597200Y-59657923D01*
X169597200Y-59657923D02*
X169693962Y-59464399D01*
X169693962Y-59464399D02*
X169887486Y-59270875D01*
X169887486Y-59270875D02*
X170177771Y-59174113D01*
X170177771Y-59174113D02*
X170371295Y-59174113D01*
X170371295Y-59174113D02*
X170661581Y-59270875D01*
X170661581Y-59270875D02*
X170758343Y-59367637D01*
X172016248Y-59174113D02*
X172403295Y-59174113D01*
X172403295Y-59174113D02*
X172596819Y-59270875D01*
X172596819Y-59270875D02*
X172790343Y-59464399D01*
X172790343Y-59464399D02*
X172887105Y-59851447D01*
X172887105Y-59851447D02*
X172887105Y-60528780D01*
X172887105Y-60528780D02*
X172790343Y-60915828D01*
X172790343Y-60915828D02*
X172596819Y-61109352D01*
X172596819Y-61109352D02*
X172403295Y-61206113D01*
X172403295Y-61206113D02*
X172016248Y-61206113D01*
X172016248Y-61206113D02*
X171822724Y-61109352D01*
X171822724Y-61109352D02*
X171629200Y-60915828D01*
X171629200Y-60915828D02*
X171532438Y-60528780D01*
X171532438Y-60528780D02*
X171532438Y-59851447D01*
X171532438Y-59851447D02*
X171629200Y-59464399D01*
X171629200Y-59464399D02*
X171822724Y-59270875D01*
X171822724Y-59270875D02*
X172016248Y-59174113D01*
X173757962Y-61206113D02*
X173757962Y-59174113D01*
X173757962Y-59174113D02*
X174435295Y-60625542D01*
X174435295Y-60625542D02*
X175112629Y-59174113D01*
X175112629Y-59174113D02*
X175112629Y-61206113D01*
X176080248Y-61206113D02*
X176080248Y-59174113D01*
X176080248Y-59174113D02*
X176757581Y-60625542D01*
X176757581Y-60625542D02*
X177434915Y-59174113D01*
X177434915Y-59174113D02*
X177434915Y-61206113D01*
X178305772Y-61109352D02*
X178596058Y-61206113D01*
X178596058Y-61206113D02*
X179079867Y-61206113D01*
X179079867Y-61206113D02*
X179273391Y-61109352D01*
X179273391Y-61109352D02*
X179370153Y-61012590D01*
X179370153Y-61012590D02*
X179466915Y-60819066D01*
X179466915Y-60819066D02*
X179466915Y-60625542D01*
X179466915Y-60625542D02*
X179370153Y-60432018D01*
X179370153Y-60432018D02*
X179273391Y-60335256D01*
X179273391Y-60335256D02*
X179079867Y-60238494D01*
X179079867Y-60238494D02*
X178692820Y-60141732D01*
X178692820Y-60141732D02*
X178499296Y-60044971D01*
X178499296Y-60044971D02*
X178402534Y-59948209D01*
X178402534Y-59948209D02*
X178305772Y-59754685D01*
X178305772Y-59754685D02*
X178305772Y-59561161D01*
X178305772Y-59561161D02*
X178402534Y-59367637D01*
X178402534Y-59367637D02*
X178499296Y-59270875D01*
X178499296Y-59270875D02*
X178692820Y-59174113D01*
X178692820Y-59174113D02*
X179176629Y-59174113D01*
X179176629Y-59174113D02*
X179466915Y-59270875D01*
D13*
X106837390Y-79495852D02*
X106897867Y-79556328D01*
X106897867Y-79556328D02*
X106958343Y-79737757D01*
X106958343Y-79737757D02*
X106958343Y-79858709D01*
X106958343Y-79858709D02*
X106897867Y-80040138D01*
X106897867Y-80040138D02*
X106776914Y-80161090D01*
X106776914Y-80161090D02*
X106655962Y-80221567D01*
X106655962Y-80221567D02*
X106414057Y-80282043D01*
X106414057Y-80282043D02*
X106232628Y-80282043D01*
X106232628Y-80282043D02*
X105990724Y-80221567D01*
X105990724Y-80221567D02*
X105869771Y-80161090D01*
X105869771Y-80161090D02*
X105748819Y-80040138D01*
X105748819Y-80040138D02*
X105688343Y-79858709D01*
X105688343Y-79858709D02*
X105688343Y-79737757D01*
X105688343Y-79737757D02*
X105748819Y-79556328D01*
X105748819Y-79556328D02*
X105809295Y-79495852D01*
X105688343Y-78951567D02*
X106716438Y-78951567D01*
X106716438Y-78951567D02*
X106837390Y-78891090D01*
X106837390Y-78891090D02*
X106897867Y-78830614D01*
X106897867Y-78830614D02*
X106958343Y-78709662D01*
X106958343Y-78709662D02*
X106958343Y-78467757D01*
X106958343Y-78467757D02*
X106897867Y-78346805D01*
X106897867Y-78346805D02*
X106837390Y-78286328D01*
X106837390Y-78286328D02*
X106716438Y-78225852D01*
X106716438Y-78225852D02*
X105688343Y-78225852D01*
X106958343Y-76895376D02*
X106353581Y-77318710D01*
X106958343Y-77621091D02*
X105688343Y-77621091D01*
X105688343Y-77621091D02*
X105688343Y-77137281D01*
X105688343Y-77137281D02*
X105748819Y-77016329D01*
X105748819Y-77016329D02*
X105809295Y-76955852D01*
X105809295Y-76955852D02*
X105930247Y-76895376D01*
X105930247Y-76895376D02*
X106111676Y-76895376D01*
X106111676Y-76895376D02*
X106232628Y-76955852D01*
X106232628Y-76955852D02*
X106293105Y-77016329D01*
X106293105Y-77016329D02*
X106353581Y-77137281D01*
X106353581Y-77137281D02*
X106353581Y-77621091D01*
X106958343Y-75625376D02*
X106353581Y-76048710D01*
X106958343Y-76351091D02*
X105688343Y-76351091D01*
X105688343Y-76351091D02*
X105688343Y-75867281D01*
X105688343Y-75867281D02*
X105748819Y-75746329D01*
X105748819Y-75746329D02*
X105809295Y-75685852D01*
X105809295Y-75685852D02*
X105930247Y-75625376D01*
X105930247Y-75625376D02*
X106111676Y-75625376D01*
X106111676Y-75625376D02*
X106232628Y-75685852D01*
X106232628Y-75685852D02*
X106293105Y-75746329D01*
X106293105Y-75746329D02*
X106353581Y-75867281D01*
X106353581Y-75867281D02*
X106353581Y-76351091D01*
X106293105Y-75081091D02*
X106293105Y-74657757D01*
X106958343Y-74476329D02*
X106958343Y-75081091D01*
X106958343Y-75081091D02*
X105688343Y-75081091D01*
X105688343Y-75081091D02*
X105688343Y-74476329D01*
X106958343Y-73932043D02*
X105688343Y-73932043D01*
X105688343Y-73932043D02*
X106958343Y-73206328D01*
X106958343Y-73206328D02*
X105688343Y-73206328D01*
X105688343Y-72782995D02*
X105688343Y-72057281D01*
X106958343Y-72420138D02*
X105688343Y-72420138D01*
X108942496Y-80282043D02*
X109002972Y-80100614D01*
X109002972Y-80100614D02*
X109002972Y-79798233D01*
X109002972Y-79798233D02*
X108942496Y-79677281D01*
X108942496Y-79677281D02*
X108882019Y-79616805D01*
X108882019Y-79616805D02*
X108761067Y-79556328D01*
X108761067Y-79556328D02*
X108640115Y-79556328D01*
X108640115Y-79556328D02*
X108519162Y-79616805D01*
X108519162Y-79616805D02*
X108458686Y-79677281D01*
X108458686Y-79677281D02*
X108398210Y-79798233D01*
X108398210Y-79798233D02*
X108337734Y-80040138D01*
X108337734Y-80040138D02*
X108277257Y-80161090D01*
X108277257Y-80161090D02*
X108216781Y-80221567D01*
X108216781Y-80221567D02*
X108095829Y-80282043D01*
X108095829Y-80282043D02*
X107974876Y-80282043D01*
X107974876Y-80282043D02*
X107853924Y-80221567D01*
X107853924Y-80221567D02*
X107793448Y-80161090D01*
X107793448Y-80161090D02*
X107732972Y-80040138D01*
X107732972Y-80040138D02*
X107732972Y-79737757D01*
X107732972Y-79737757D02*
X107793448Y-79556328D01*
X109002972Y-79012043D02*
X107732972Y-79012043D01*
X108337734Y-79012043D02*
X108337734Y-78286328D01*
X109002972Y-78286328D02*
X107732972Y-78286328D01*
X107732972Y-77681567D02*
X108761067Y-77681567D01*
X108761067Y-77681567D02*
X108882019Y-77621090D01*
X108882019Y-77621090D02*
X108942496Y-77560614D01*
X108942496Y-77560614D02*
X109002972Y-77439662D01*
X109002972Y-77439662D02*
X109002972Y-77197757D01*
X109002972Y-77197757D02*
X108942496Y-77076805D01*
X108942496Y-77076805D02*
X108882019Y-77016328D01*
X108882019Y-77016328D02*
X108761067Y-76955852D01*
X108761067Y-76955852D02*
X107732972Y-76955852D01*
X109002972Y-76351091D02*
X107732972Y-76351091D01*
X107732972Y-76351091D02*
X109002972Y-75625376D01*
X109002972Y-75625376D02*
X107732972Y-75625376D01*
X107732972Y-75202043D02*
X107732972Y-74476329D01*
X109002972Y-74839186D02*
X107732972Y-74839186D01*
D10*
X133923693Y-72834038D02*
X133828455Y-72786419D01*
X133828455Y-72786419D02*
X133685598Y-72786419D01*
X133685598Y-72786419D02*
X133542741Y-72834038D01*
X133542741Y-72834038D02*
X133447503Y-72929276D01*
X133447503Y-72929276D02*
X133399884Y-73024514D01*
X133399884Y-73024514D02*
X133352265Y-73214990D01*
X133352265Y-73214990D02*
X133352265Y-73357847D01*
X133352265Y-73357847D02*
X133399884Y-73548323D01*
X133399884Y-73548323D02*
X133447503Y-73643561D01*
X133447503Y-73643561D02*
X133542741Y-73738800D01*
X133542741Y-73738800D02*
X133685598Y-73786419D01*
X133685598Y-73786419D02*
X133780836Y-73786419D01*
X133780836Y-73786419D02*
X133923693Y-73738800D01*
X133923693Y-73738800D02*
X133971312Y-73691180D01*
X133971312Y-73691180D02*
X133971312Y-73357847D01*
X133971312Y-73357847D02*
X133780836Y-73357847D01*
X134399884Y-73786419D02*
X134399884Y-72786419D01*
X134399884Y-72786419D02*
X134971312Y-73786419D01*
X134971312Y-73786419D02*
X134971312Y-72786419D01*
X135447503Y-73786419D02*
X135447503Y-72786419D01*
X135447503Y-72786419D02*
X135685598Y-72786419D01*
X135685598Y-72786419D02*
X135828455Y-72834038D01*
X135828455Y-72834038D02*
X135923693Y-72929276D01*
X135923693Y-72929276D02*
X135971312Y-73024514D01*
X135971312Y-73024514D02*
X136018931Y-73214990D01*
X136018931Y-73214990D02*
X136018931Y-73357847D01*
X136018931Y-73357847D02*
X135971312Y-73548323D01*
X135971312Y-73548323D02*
X135923693Y-73643561D01*
X135923693Y-73643561D02*
X135828455Y-73738800D01*
X135828455Y-73738800D02*
X135685598Y-73786419D01*
X135685598Y-73786419D02*
X135447503Y-73786419D01*
D11*
X60407120Y-76513566D02*
X60407120Y-74989566D01*
X60407120Y-74989566D02*
X60987691Y-74989566D01*
X60987691Y-74989566D02*
X61132834Y-75062137D01*
X61132834Y-75062137D02*
X61205405Y-75134709D01*
X61205405Y-75134709D02*
X61277977Y-75279852D01*
X61277977Y-75279852D02*
X61277977Y-75497566D01*
X61277977Y-75497566D02*
X61205405Y-75642709D01*
X61205405Y-75642709D02*
X61132834Y-75715280D01*
X61132834Y-75715280D02*
X60987691Y-75787852D01*
X60987691Y-75787852D02*
X60407120Y-75787852D01*
X62221405Y-74989566D02*
X62511691Y-74989566D01*
X62511691Y-74989566D02*
X62656834Y-75062137D01*
X62656834Y-75062137D02*
X62801977Y-75207280D01*
X62801977Y-75207280D02*
X62874548Y-75497566D01*
X62874548Y-75497566D02*
X62874548Y-76005566D01*
X62874548Y-76005566D02*
X62801977Y-76295852D01*
X62801977Y-76295852D02*
X62656834Y-76440995D01*
X62656834Y-76440995D02*
X62511691Y-76513566D01*
X62511691Y-76513566D02*
X62221405Y-76513566D01*
X62221405Y-76513566D02*
X62076263Y-76440995D01*
X62076263Y-76440995D02*
X61931120Y-76295852D01*
X61931120Y-76295852D02*
X61858548Y-76005566D01*
X61858548Y-76005566D02*
X61858548Y-75497566D01*
X61858548Y-75497566D02*
X61931120Y-75207280D01*
X61931120Y-75207280D02*
X62076263Y-75062137D01*
X62076263Y-75062137D02*
X62221405Y-74989566D01*
X63382548Y-74989566D02*
X63745405Y-76513566D01*
X63745405Y-76513566D02*
X64035691Y-75424995D01*
X64035691Y-75424995D02*
X64325976Y-76513566D01*
X64325976Y-76513566D02*
X64688834Y-74989566D01*
X65269405Y-75715280D02*
X65777405Y-75715280D01*
X65995119Y-76513566D02*
X65269405Y-76513566D01*
X65269405Y-76513566D02*
X65269405Y-74989566D01*
X65269405Y-74989566D02*
X65995119Y-74989566D01*
X67519119Y-76513566D02*
X67011119Y-75787852D01*
X66648262Y-76513566D02*
X66648262Y-74989566D01*
X66648262Y-74989566D02*
X67228833Y-74989566D01*
X67228833Y-74989566D02*
X67373976Y-75062137D01*
X67373976Y-75062137D02*
X67446547Y-75134709D01*
X67446547Y-75134709D02*
X67519119Y-75279852D01*
X67519119Y-75279852D02*
X67519119Y-75497566D01*
X67519119Y-75497566D02*
X67446547Y-75642709D01*
X67446547Y-75642709D02*
X67373976Y-75715280D01*
X67373976Y-75715280D02*
X67228833Y-75787852D01*
X67228833Y-75787852D02*
X66648262Y-75787852D01*
X125866548Y-71360995D02*
X126084263Y-71433566D01*
X126084263Y-71433566D02*
X126447120Y-71433566D01*
X126447120Y-71433566D02*
X126592263Y-71360995D01*
X126592263Y-71360995D02*
X126664834Y-71288423D01*
X126664834Y-71288423D02*
X126737405Y-71143280D01*
X126737405Y-71143280D02*
X126737405Y-70998137D01*
X126737405Y-70998137D02*
X126664834Y-70852995D01*
X126664834Y-70852995D02*
X126592263Y-70780423D01*
X126592263Y-70780423D02*
X126447120Y-70707852D01*
X126447120Y-70707852D02*
X126156834Y-70635280D01*
X126156834Y-70635280D02*
X126011691Y-70562709D01*
X126011691Y-70562709D02*
X125939120Y-70490137D01*
X125939120Y-70490137D02*
X125866548Y-70344995D01*
X125866548Y-70344995D02*
X125866548Y-70199852D01*
X125866548Y-70199852D02*
X125939120Y-70054709D01*
X125939120Y-70054709D02*
X126011691Y-69982137D01*
X126011691Y-69982137D02*
X126156834Y-69909566D01*
X126156834Y-69909566D02*
X126519691Y-69909566D01*
X126519691Y-69909566D02*
X126737405Y-69982137D01*
X127680834Y-69909566D02*
X127971120Y-69909566D01*
X127971120Y-69909566D02*
X128116263Y-69982137D01*
X128116263Y-69982137D02*
X128261406Y-70127280D01*
X128261406Y-70127280D02*
X128333977Y-70417566D01*
X128333977Y-70417566D02*
X128333977Y-70925566D01*
X128333977Y-70925566D02*
X128261406Y-71215852D01*
X128261406Y-71215852D02*
X128116263Y-71360995D01*
X128116263Y-71360995D02*
X127971120Y-71433566D01*
X127971120Y-71433566D02*
X127680834Y-71433566D01*
X127680834Y-71433566D02*
X127535692Y-71360995D01*
X127535692Y-71360995D02*
X127390549Y-71215852D01*
X127390549Y-71215852D02*
X127317977Y-70925566D01*
X127317977Y-70925566D02*
X127317977Y-70417566D01*
X127317977Y-70417566D02*
X127390549Y-70127280D01*
X127390549Y-70127280D02*
X127535692Y-69982137D01*
X127535692Y-69982137D02*
X127680834Y-69909566D01*
X129857977Y-71288423D02*
X129785405Y-71360995D01*
X129785405Y-71360995D02*
X129567691Y-71433566D01*
X129567691Y-71433566D02*
X129422548Y-71433566D01*
X129422548Y-71433566D02*
X129204834Y-71360995D01*
X129204834Y-71360995D02*
X129059691Y-71215852D01*
X129059691Y-71215852D02*
X128987120Y-71070709D01*
X128987120Y-71070709D02*
X128914548Y-70780423D01*
X128914548Y-70780423D02*
X128914548Y-70562709D01*
X128914548Y-70562709D02*
X128987120Y-70272423D01*
X128987120Y-70272423D02*
X129059691Y-70127280D01*
X129059691Y-70127280D02*
X129204834Y-69982137D01*
X129204834Y-69982137D02*
X129422548Y-69909566D01*
X129422548Y-69909566D02*
X129567691Y-69909566D01*
X129567691Y-69909566D02*
X129785405Y-69982137D01*
X129785405Y-69982137D02*
X129857977Y-70054709D01*
X132470548Y-69982137D02*
X132325406Y-69909566D01*
X132325406Y-69909566D02*
X132107691Y-69909566D01*
X132107691Y-69909566D02*
X131889977Y-69982137D01*
X131889977Y-69982137D02*
X131744834Y-70127280D01*
X131744834Y-70127280D02*
X131672263Y-70272423D01*
X131672263Y-70272423D02*
X131599691Y-70562709D01*
X131599691Y-70562709D02*
X131599691Y-70780423D01*
X131599691Y-70780423D02*
X131672263Y-71070709D01*
X131672263Y-71070709D02*
X131744834Y-71215852D01*
X131744834Y-71215852D02*
X131889977Y-71360995D01*
X131889977Y-71360995D02*
X132107691Y-71433566D01*
X132107691Y-71433566D02*
X132252834Y-71433566D01*
X132252834Y-71433566D02*
X132470548Y-71360995D01*
X132470548Y-71360995D02*
X132543120Y-71288423D01*
X132543120Y-71288423D02*
X132543120Y-70780423D01*
X132543120Y-70780423D02*
X132252834Y-70780423D01*
X133123691Y-70998137D02*
X133849406Y-70998137D01*
X132978548Y-71433566D02*
X133486548Y-69909566D01*
X133486548Y-69909566D02*
X133994548Y-71433566D01*
X134502549Y-69909566D02*
X134502549Y-71143280D01*
X134502549Y-71143280D02*
X134575120Y-71288423D01*
X134575120Y-71288423D02*
X134647692Y-71360995D01*
X134647692Y-71360995D02*
X134792834Y-71433566D01*
X134792834Y-71433566D02*
X135083120Y-71433566D01*
X135083120Y-71433566D02*
X135228263Y-71360995D01*
X135228263Y-71360995D02*
X135300834Y-71288423D01*
X135300834Y-71288423D02*
X135373406Y-71143280D01*
X135373406Y-71143280D02*
X135373406Y-69909566D01*
X136897405Y-69982137D02*
X136752263Y-69909566D01*
X136752263Y-69909566D02*
X136534548Y-69909566D01*
X136534548Y-69909566D02*
X136316834Y-69982137D01*
X136316834Y-69982137D02*
X136171691Y-70127280D01*
X136171691Y-70127280D02*
X136099120Y-70272423D01*
X136099120Y-70272423D02*
X136026548Y-70562709D01*
X136026548Y-70562709D02*
X136026548Y-70780423D01*
X136026548Y-70780423D02*
X136099120Y-71070709D01*
X136099120Y-71070709D02*
X136171691Y-71215852D01*
X136171691Y-71215852D02*
X136316834Y-71360995D01*
X136316834Y-71360995D02*
X136534548Y-71433566D01*
X136534548Y-71433566D02*
X136679691Y-71433566D01*
X136679691Y-71433566D02*
X136897405Y-71360995D01*
X136897405Y-71360995D02*
X136969977Y-71288423D01*
X136969977Y-71288423D02*
X136969977Y-70780423D01*
X136969977Y-70780423D02*
X136679691Y-70780423D01*
X137623120Y-70635280D02*
X138131120Y-70635280D01*
X138348834Y-71433566D02*
X137623120Y-71433566D01*
X137623120Y-71433566D02*
X137623120Y-69909566D01*
X137623120Y-69909566D02*
X138348834Y-69909566D01*
D10*
X89124455Y-75913752D02*
X89124455Y-76580419D01*
X88886360Y-75532800D02*
X88648265Y-76247085D01*
X88648265Y-76247085D02*
X89267312Y-76247085D01*
X89791122Y-76008990D02*
X89695884Y-75961371D01*
X89695884Y-75961371D02*
X89648265Y-75913752D01*
X89648265Y-75913752D02*
X89600646Y-75818514D01*
X89600646Y-75818514D02*
X89600646Y-75770895D01*
X89600646Y-75770895D02*
X89648265Y-75675657D01*
X89648265Y-75675657D02*
X89695884Y-75628038D01*
X89695884Y-75628038D02*
X89791122Y-75580419D01*
X89791122Y-75580419D02*
X89981598Y-75580419D01*
X89981598Y-75580419D02*
X90076836Y-75628038D01*
X90076836Y-75628038D02*
X90124455Y-75675657D01*
X90124455Y-75675657D02*
X90172074Y-75770895D01*
X90172074Y-75770895D02*
X90172074Y-75818514D01*
X90172074Y-75818514D02*
X90124455Y-75913752D01*
X90124455Y-75913752D02*
X90076836Y-75961371D01*
X90076836Y-75961371D02*
X89981598Y-76008990D01*
X89981598Y-76008990D02*
X89791122Y-76008990D01*
X89791122Y-76008990D02*
X89695884Y-76056609D01*
X89695884Y-76056609D02*
X89648265Y-76104228D01*
X89648265Y-76104228D02*
X89600646Y-76199466D01*
X89600646Y-76199466D02*
X89600646Y-76389942D01*
X89600646Y-76389942D02*
X89648265Y-76485180D01*
X89648265Y-76485180D02*
X89695884Y-76532800D01*
X89695884Y-76532800D02*
X89791122Y-76580419D01*
X89791122Y-76580419D02*
X89981598Y-76580419D01*
X89981598Y-76580419D02*
X90076836Y-76532800D01*
X90076836Y-76532800D02*
X90124455Y-76485180D01*
X90124455Y-76485180D02*
X90172074Y-76389942D01*
X90172074Y-76389942D02*
X90172074Y-76199466D01*
X90172074Y-76199466D02*
X90124455Y-76104228D01*
X90124455Y-76104228D02*
X90076836Y-76056609D01*
X90076836Y-76056609D02*
X89981598Y-76008990D01*
X90457789Y-75580419D02*
X90791122Y-76580419D01*
X90791122Y-76580419D02*
X91124455Y-75580419D01*
X92076837Y-75913752D02*
X92457789Y-75913752D01*
X92219694Y-75580419D02*
X92219694Y-76437561D01*
X92219694Y-76437561D02*
X92267313Y-76532800D01*
X92267313Y-76532800D02*
X92362551Y-76580419D01*
X92362551Y-76580419D02*
X92457789Y-76580419D01*
X92933980Y-76580419D02*
X92838742Y-76532800D01*
X92838742Y-76532800D02*
X92791123Y-76485180D01*
X92791123Y-76485180D02*
X92743504Y-76389942D01*
X92743504Y-76389942D02*
X92743504Y-76104228D01*
X92743504Y-76104228D02*
X92791123Y-76008990D01*
X92791123Y-76008990D02*
X92838742Y-75961371D01*
X92838742Y-75961371D02*
X92933980Y-75913752D01*
X92933980Y-75913752D02*
X93076837Y-75913752D01*
X93076837Y-75913752D02*
X93172075Y-75961371D01*
X93172075Y-75961371D02*
X93219694Y-76008990D01*
X93219694Y-76008990D02*
X93267313Y-76104228D01*
X93267313Y-76104228D02*
X93267313Y-76389942D01*
X93267313Y-76389942D02*
X93219694Y-76485180D01*
X93219694Y-76485180D02*
X93172075Y-76532800D01*
X93172075Y-76532800D02*
X93076837Y-76580419D01*
X93076837Y-76580419D02*
X92933980Y-76580419D01*
X94981599Y-76580419D02*
X94410171Y-76580419D01*
X94695885Y-76580419D02*
X94695885Y-75580419D01*
X94695885Y-75580419D02*
X94600647Y-75723276D01*
X94600647Y-75723276D02*
X94505409Y-75818514D01*
X94505409Y-75818514D02*
X94410171Y-75866133D01*
X95362552Y-75675657D02*
X95410171Y-75628038D01*
X95410171Y-75628038D02*
X95505409Y-75580419D01*
X95505409Y-75580419D02*
X95743504Y-75580419D01*
X95743504Y-75580419D02*
X95838742Y-75628038D01*
X95838742Y-75628038D02*
X95886361Y-75675657D01*
X95886361Y-75675657D02*
X95933980Y-75770895D01*
X95933980Y-75770895D02*
X95933980Y-75866133D01*
X95933980Y-75866133D02*
X95886361Y-76008990D01*
X95886361Y-76008990D02*
X95314933Y-76580419D01*
X95314933Y-76580419D02*
X95933980Y-76580419D01*
X96219695Y-75580419D02*
X96553028Y-76580419D01*
X96553028Y-76580419D02*
X96886361Y-75580419D01*
X97981600Y-76580419D02*
X97981600Y-75913752D01*
X97981600Y-76008990D02*
X98029219Y-75961371D01*
X98029219Y-75961371D02*
X98124457Y-75913752D01*
X98124457Y-75913752D02*
X98267314Y-75913752D01*
X98267314Y-75913752D02*
X98362552Y-75961371D01*
X98362552Y-75961371D02*
X98410171Y-76056609D01*
X98410171Y-76056609D02*
X98410171Y-76580419D01*
X98410171Y-76056609D02*
X98457790Y-75961371D01*
X98457790Y-75961371D02*
X98553028Y-75913752D01*
X98553028Y-75913752D02*
X98695885Y-75913752D01*
X98695885Y-75913752D02*
X98791124Y-75961371D01*
X98791124Y-75961371D02*
X98838743Y-76056609D01*
X98838743Y-76056609D02*
X98838743Y-76580419D01*
X99457790Y-76580419D02*
X99362552Y-76532800D01*
X99362552Y-76532800D02*
X99314933Y-76485180D01*
X99314933Y-76485180D02*
X99267314Y-76389942D01*
X99267314Y-76389942D02*
X99267314Y-76104228D01*
X99267314Y-76104228D02*
X99314933Y-76008990D01*
X99314933Y-76008990D02*
X99362552Y-75961371D01*
X99362552Y-75961371D02*
X99457790Y-75913752D01*
X99457790Y-75913752D02*
X99600647Y-75913752D01*
X99600647Y-75913752D02*
X99695885Y-75961371D01*
X99695885Y-75961371D02*
X99743504Y-76008990D01*
X99743504Y-76008990D02*
X99791123Y-76104228D01*
X99791123Y-76104228D02*
X99791123Y-76389942D01*
X99791123Y-76389942D02*
X99743504Y-76485180D01*
X99743504Y-76485180D02*
X99695885Y-76532800D01*
X99695885Y-76532800D02*
X99600647Y-76580419D01*
X99600647Y-76580419D02*
X99457790Y-76580419D01*
X100648266Y-76580419D02*
X100648266Y-75580419D01*
X100648266Y-76532800D02*
X100553028Y-76580419D01*
X100553028Y-76580419D02*
X100362552Y-76580419D01*
X100362552Y-76580419D02*
X100267314Y-76532800D01*
X100267314Y-76532800D02*
X100219695Y-76485180D01*
X100219695Y-76485180D02*
X100172076Y-76389942D01*
X100172076Y-76389942D02*
X100172076Y-76104228D01*
X100172076Y-76104228D02*
X100219695Y-76008990D01*
X100219695Y-76008990D02*
X100267314Y-75961371D01*
X100267314Y-75961371D02*
X100362552Y-75913752D01*
X100362552Y-75913752D02*
X100553028Y-75913752D01*
X100553028Y-75913752D02*
X100648266Y-75961371D01*
X101553028Y-75913752D02*
X101553028Y-76580419D01*
X101124457Y-75913752D02*
X101124457Y-76437561D01*
X101124457Y-76437561D02*
X101172076Y-76532800D01*
X101172076Y-76532800D02*
X101267314Y-76580419D01*
X101267314Y-76580419D02*
X101410171Y-76580419D01*
X101410171Y-76580419D02*
X101505409Y-76532800D01*
X101505409Y-76532800D02*
X101553028Y-76485180D01*
X102172076Y-76580419D02*
X102076838Y-76532800D01*
X102076838Y-76532800D02*
X102029219Y-76437561D01*
X102029219Y-76437561D02*
X102029219Y-75580419D01*
X102933981Y-76532800D02*
X102838743Y-76580419D01*
X102838743Y-76580419D02*
X102648267Y-76580419D01*
X102648267Y-76580419D02*
X102553029Y-76532800D01*
X102553029Y-76532800D02*
X102505410Y-76437561D01*
X102505410Y-76437561D02*
X102505410Y-76056609D01*
X102505410Y-76056609D02*
X102553029Y-75961371D01*
X102553029Y-75961371D02*
X102648267Y-75913752D01*
X102648267Y-75913752D02*
X102838743Y-75913752D01*
X102838743Y-75913752D02*
X102933981Y-75961371D01*
X102933981Y-75961371D02*
X102981600Y-76056609D01*
X102981600Y-76056609D02*
X102981600Y-76151847D01*
X102981600Y-76151847D02*
X102505410Y-76247085D01*
X80329693Y-72580038D02*
X80234455Y-72532419D01*
X80234455Y-72532419D02*
X80091598Y-72532419D01*
X80091598Y-72532419D02*
X79948741Y-72580038D01*
X79948741Y-72580038D02*
X79853503Y-72675276D01*
X79853503Y-72675276D02*
X79805884Y-72770514D01*
X79805884Y-72770514D02*
X79758265Y-72960990D01*
X79758265Y-72960990D02*
X79758265Y-73103847D01*
X79758265Y-73103847D02*
X79805884Y-73294323D01*
X79805884Y-73294323D02*
X79853503Y-73389561D01*
X79853503Y-73389561D02*
X79948741Y-73484800D01*
X79948741Y-73484800D02*
X80091598Y-73532419D01*
X80091598Y-73532419D02*
X80186836Y-73532419D01*
X80186836Y-73532419D02*
X80329693Y-73484800D01*
X80329693Y-73484800D02*
X80377312Y-73437180D01*
X80377312Y-73437180D02*
X80377312Y-73103847D01*
X80377312Y-73103847D02*
X80186836Y-73103847D01*
X80805884Y-73532419D02*
X80805884Y-72532419D01*
X80805884Y-72532419D02*
X81377312Y-73532419D01*
X81377312Y-73532419D02*
X81377312Y-72532419D01*
X81853503Y-73532419D02*
X81853503Y-72532419D01*
X81853503Y-72532419D02*
X82091598Y-72532419D01*
X82091598Y-72532419D02*
X82234455Y-72580038D01*
X82234455Y-72580038D02*
X82329693Y-72675276D01*
X82329693Y-72675276D02*
X82377312Y-72770514D01*
X82377312Y-72770514D02*
X82424931Y-72960990D01*
X82424931Y-72960990D02*
X82424931Y-73103847D01*
X82424931Y-73103847D02*
X82377312Y-73294323D01*
X82377312Y-73294323D02*
X82329693Y-73389561D01*
X82329693Y-73389561D02*
X82234455Y-73484800D01*
X82234455Y-73484800D02*
X82091598Y-73532419D01*
X82091598Y-73532419D02*
X81853503Y-73532419D01*
X66153312Y-72929180D02*
X66105693Y-72976800D01*
X66105693Y-72976800D02*
X65962836Y-73024419D01*
X65962836Y-73024419D02*
X65867598Y-73024419D01*
X65867598Y-73024419D02*
X65724741Y-72976800D01*
X65724741Y-72976800D02*
X65629503Y-72881561D01*
X65629503Y-72881561D02*
X65581884Y-72786323D01*
X65581884Y-72786323D02*
X65534265Y-72595847D01*
X65534265Y-72595847D02*
X65534265Y-72452990D01*
X65534265Y-72452990D02*
X65581884Y-72262514D01*
X65581884Y-72262514D02*
X65629503Y-72167276D01*
X65629503Y-72167276D02*
X65724741Y-72072038D01*
X65724741Y-72072038D02*
X65867598Y-72024419D01*
X65867598Y-72024419D02*
X65962836Y-72024419D01*
X65962836Y-72024419D02*
X66105693Y-72072038D01*
X66105693Y-72072038D02*
X66153312Y-72119657D01*
X66581884Y-73024419D02*
X66581884Y-72024419D01*
X66581884Y-72500609D02*
X67153312Y-72500609D01*
X67153312Y-73024419D02*
X67153312Y-72024419D01*
X67581884Y-72738704D02*
X68058074Y-72738704D01*
X67486646Y-73024419D02*
X67819979Y-72024419D01*
X67819979Y-72024419D02*
X68153312Y-73024419D01*
X69058074Y-73024419D02*
X68724741Y-72548228D01*
X68486646Y-73024419D02*
X68486646Y-72024419D01*
X68486646Y-72024419D02*
X68867598Y-72024419D01*
X68867598Y-72024419D02*
X68962836Y-72072038D01*
X68962836Y-72072038D02*
X69010455Y-72119657D01*
X69010455Y-72119657D02*
X69058074Y-72214895D01*
X69058074Y-72214895D02*
X69058074Y-72357752D01*
X69058074Y-72357752D02*
X69010455Y-72452990D01*
X69010455Y-72452990D02*
X68962836Y-72500609D01*
X68962836Y-72500609D02*
X68867598Y-72548228D01*
X68867598Y-72548228D02*
X68486646Y-72548228D01*
X70010455Y-72072038D02*
X69915217Y-72024419D01*
X69915217Y-72024419D02*
X69772360Y-72024419D01*
X69772360Y-72024419D02*
X69629503Y-72072038D01*
X69629503Y-72072038D02*
X69534265Y-72167276D01*
X69534265Y-72167276D02*
X69486646Y-72262514D01*
X69486646Y-72262514D02*
X69439027Y-72452990D01*
X69439027Y-72452990D02*
X69439027Y-72595847D01*
X69439027Y-72595847D02*
X69486646Y-72786323D01*
X69486646Y-72786323D02*
X69534265Y-72881561D01*
X69534265Y-72881561D02*
X69629503Y-72976800D01*
X69629503Y-72976800D02*
X69772360Y-73024419D01*
X69772360Y-73024419D02*
X69867598Y-73024419D01*
X69867598Y-73024419D02*
X70010455Y-72976800D01*
X70010455Y-72976800D02*
X70058074Y-72929180D01*
X70058074Y-72929180D02*
X70058074Y-72595847D01*
X70058074Y-72595847D02*
X69867598Y-72595847D01*
X70486646Y-72500609D02*
X70819979Y-72500609D01*
X70962836Y-73024419D02*
X70486646Y-73024419D01*
X70486646Y-73024419D02*
X70486646Y-72024419D01*
X70486646Y-72024419D02*
X70962836Y-72024419D01*
X71962836Y-73024419D02*
X71629503Y-72548228D01*
X71391408Y-73024419D02*
X71391408Y-72024419D01*
X71391408Y-72024419D02*
X71772360Y-72024419D01*
X71772360Y-72024419D02*
X71867598Y-72072038D01*
X71867598Y-72072038D02*
X71915217Y-72119657D01*
X71915217Y-72119657D02*
X71962836Y-72214895D01*
X71962836Y-72214895D02*
X71962836Y-72357752D01*
X71962836Y-72357752D02*
X71915217Y-72452990D01*
X71915217Y-72452990D02*
X71867598Y-72500609D01*
X71867598Y-72500609D02*
X71772360Y-72548228D01*
X71772360Y-72548228D02*
X71391408Y-72548228D01*
X98109693Y-84708419D02*
X97538265Y-84708419D01*
X97823979Y-84708419D02*
X97823979Y-83708419D01*
X97823979Y-83708419D02*
X97728741Y-83851276D01*
X97728741Y-83851276D02*
X97633503Y-83946514D01*
X97633503Y-83946514D02*
X97538265Y-83994133D01*
X98490646Y-83803657D02*
X98538265Y-83756038D01*
X98538265Y-83756038D02*
X98633503Y-83708419D01*
X98633503Y-83708419D02*
X98871598Y-83708419D01*
X98871598Y-83708419D02*
X98966836Y-83756038D01*
X98966836Y-83756038D02*
X99014455Y-83803657D01*
X99014455Y-83803657D02*
X99062074Y-83898895D01*
X99062074Y-83898895D02*
X99062074Y-83994133D01*
X99062074Y-83994133D02*
X99014455Y-84136990D01*
X99014455Y-84136990D02*
X98443027Y-84708419D01*
X98443027Y-84708419D02*
X99062074Y-84708419D01*
X99347789Y-83708419D02*
X99681122Y-84708419D01*
X99681122Y-84708419D02*
X100014455Y-83708419D01*
X100347789Y-84327466D02*
X101109694Y-84327466D01*
X122985884Y-72389466D02*
X123747789Y-72389466D01*
X123366836Y-72770419D02*
X123366836Y-72008514D01*
X124747788Y-72770419D02*
X124176360Y-72770419D01*
X124462074Y-72770419D02*
X124462074Y-71770419D01*
X124462074Y-71770419D02*
X124366836Y-71913276D01*
X124366836Y-71913276D02*
X124271598Y-72008514D01*
X124271598Y-72008514D02*
X124176360Y-72056133D01*
X125128741Y-71865657D02*
X125176360Y-71818038D01*
X125176360Y-71818038D02*
X125271598Y-71770419D01*
X125271598Y-71770419D02*
X125509693Y-71770419D01*
X125509693Y-71770419D02*
X125604931Y-71818038D01*
X125604931Y-71818038D02*
X125652550Y-71865657D01*
X125652550Y-71865657D02*
X125700169Y-71960895D01*
X125700169Y-71960895D02*
X125700169Y-72056133D01*
X125700169Y-72056133D02*
X125652550Y-72198990D01*
X125652550Y-72198990D02*
X125081122Y-72770419D01*
X125081122Y-72770419D02*
X125700169Y-72770419D01*
X125985884Y-71770419D02*
X126319217Y-72770419D01*
X126319217Y-72770419D02*
X126652550Y-71770419D01*
D11*
X143501405Y-71179566D02*
X144009405Y-72703566D01*
X144009405Y-72703566D02*
X144517405Y-71179566D01*
X145025406Y-72703566D02*
X145025406Y-71179566D01*
X145025406Y-71179566D02*
X145533406Y-72268137D01*
X145533406Y-72268137D02*
X146041406Y-71179566D01*
X146041406Y-71179566D02*
X146041406Y-72703566D01*
X147057405Y-71179566D02*
X147347691Y-71179566D01*
X147347691Y-71179566D02*
X147492834Y-71252137D01*
X147492834Y-71252137D02*
X147637977Y-71397280D01*
X147637977Y-71397280D02*
X147710548Y-71687566D01*
X147710548Y-71687566D02*
X147710548Y-72195566D01*
X147710548Y-72195566D02*
X147637977Y-72485852D01*
X147637977Y-72485852D02*
X147492834Y-72630995D01*
X147492834Y-72630995D02*
X147347691Y-72703566D01*
X147347691Y-72703566D02*
X147057405Y-72703566D01*
X147057405Y-72703566D02*
X146912263Y-72630995D01*
X146912263Y-72630995D02*
X146767120Y-72485852D01*
X146767120Y-72485852D02*
X146694548Y-72195566D01*
X146694548Y-72195566D02*
X146694548Y-71687566D01*
X146694548Y-71687566D02*
X146767120Y-71397280D01*
X146767120Y-71397280D02*
X146912263Y-71252137D01*
X146912263Y-71252137D02*
X147057405Y-71179566D01*
X148363691Y-72703566D02*
X148363691Y-71179566D01*
X148363691Y-71179566D02*
X149234548Y-72703566D01*
X149234548Y-72703566D02*
X149234548Y-71179566D01*
X151048833Y-72630995D02*
X151266548Y-72703566D01*
X151266548Y-72703566D02*
X151629405Y-72703566D01*
X151629405Y-72703566D02*
X151774548Y-72630995D01*
X151774548Y-72630995D02*
X151847119Y-72558423D01*
X151847119Y-72558423D02*
X151919690Y-72413280D01*
X151919690Y-72413280D02*
X151919690Y-72268137D01*
X151919690Y-72268137D02*
X151847119Y-72122995D01*
X151847119Y-72122995D02*
X151774548Y-72050423D01*
X151774548Y-72050423D02*
X151629405Y-71977852D01*
X151629405Y-71977852D02*
X151339119Y-71905280D01*
X151339119Y-71905280D02*
X151193976Y-71832709D01*
X151193976Y-71832709D02*
X151121405Y-71760137D01*
X151121405Y-71760137D02*
X151048833Y-71614995D01*
X151048833Y-71614995D02*
X151048833Y-71469852D01*
X151048833Y-71469852D02*
X151121405Y-71324709D01*
X151121405Y-71324709D02*
X151193976Y-71252137D01*
X151193976Y-71252137D02*
X151339119Y-71179566D01*
X151339119Y-71179566D02*
X151701976Y-71179566D01*
X151701976Y-71179566D02*
X151919690Y-71252137D01*
X152572834Y-71905280D02*
X153080834Y-71905280D01*
X153298548Y-72703566D02*
X152572834Y-72703566D01*
X152572834Y-72703566D02*
X152572834Y-71179566D01*
X152572834Y-71179566D02*
X153298548Y-71179566D01*
X154822548Y-72703566D02*
X154314548Y-71977852D01*
X153951691Y-72703566D02*
X153951691Y-71179566D01*
X153951691Y-71179566D02*
X154532262Y-71179566D01*
X154532262Y-71179566D02*
X154677405Y-71252137D01*
X154677405Y-71252137D02*
X154749976Y-71324709D01*
X154749976Y-71324709D02*
X154822548Y-71469852D01*
X154822548Y-71469852D02*
X154822548Y-71687566D01*
X154822548Y-71687566D02*
X154749976Y-71832709D01*
X154749976Y-71832709D02*
X154677405Y-71905280D01*
X154677405Y-71905280D02*
X154532262Y-71977852D01*
X154532262Y-71977852D02*
X153951691Y-71977852D01*
X155475691Y-72703566D02*
X155475691Y-71179566D01*
X156128833Y-72268137D02*
X156854548Y-72268137D01*
X155983690Y-72703566D02*
X156491690Y-71179566D01*
X156491690Y-71179566D02*
X156999690Y-72703566D01*
X158233405Y-72703566D02*
X157507691Y-72703566D01*
X157507691Y-72703566D02*
X157507691Y-71179566D01*
D10*
X103189693Y-84454419D02*
X102618265Y-84454419D01*
X102903979Y-84454419D02*
X102903979Y-83454419D01*
X102903979Y-83454419D02*
X102808741Y-83597276D01*
X102808741Y-83597276D02*
X102713503Y-83692514D01*
X102713503Y-83692514D02*
X102618265Y-83740133D01*
X103570646Y-83549657D02*
X103618265Y-83502038D01*
X103618265Y-83502038D02*
X103713503Y-83454419D01*
X103713503Y-83454419D02*
X103951598Y-83454419D01*
X103951598Y-83454419D02*
X104046836Y-83502038D01*
X104046836Y-83502038D02*
X104094455Y-83549657D01*
X104094455Y-83549657D02*
X104142074Y-83644895D01*
X104142074Y-83644895D02*
X104142074Y-83740133D01*
X104142074Y-83740133D02*
X104094455Y-83882990D01*
X104094455Y-83882990D02*
X103523027Y-84454419D01*
X103523027Y-84454419D02*
X104142074Y-84454419D01*
X104427789Y-83454419D02*
X104761122Y-84454419D01*
X104761122Y-84454419D02*
X105094455Y-83454419D01*
X105427789Y-84073466D02*
X106189694Y-84073466D01*
X105808741Y-84454419D02*
X105808741Y-83692514D01*
X92934455Y-84041752D02*
X92934455Y-84708419D01*
X92696360Y-83660800D02*
X92458265Y-84375085D01*
X92458265Y-84375085D02*
X93077312Y-84375085D01*
X93601122Y-84136990D02*
X93505884Y-84089371D01*
X93505884Y-84089371D02*
X93458265Y-84041752D01*
X93458265Y-84041752D02*
X93410646Y-83946514D01*
X93410646Y-83946514D02*
X93410646Y-83898895D01*
X93410646Y-83898895D02*
X93458265Y-83803657D01*
X93458265Y-83803657D02*
X93505884Y-83756038D01*
X93505884Y-83756038D02*
X93601122Y-83708419D01*
X93601122Y-83708419D02*
X93791598Y-83708419D01*
X93791598Y-83708419D02*
X93886836Y-83756038D01*
X93886836Y-83756038D02*
X93934455Y-83803657D01*
X93934455Y-83803657D02*
X93982074Y-83898895D01*
X93982074Y-83898895D02*
X93982074Y-83946514D01*
X93982074Y-83946514D02*
X93934455Y-84041752D01*
X93934455Y-84041752D02*
X93886836Y-84089371D01*
X93886836Y-84089371D02*
X93791598Y-84136990D01*
X93791598Y-84136990D02*
X93601122Y-84136990D01*
X93601122Y-84136990D02*
X93505884Y-84184609D01*
X93505884Y-84184609D02*
X93458265Y-84232228D01*
X93458265Y-84232228D02*
X93410646Y-84327466D01*
X93410646Y-84327466D02*
X93410646Y-84517942D01*
X93410646Y-84517942D02*
X93458265Y-84613180D01*
X93458265Y-84613180D02*
X93505884Y-84660800D01*
X93505884Y-84660800D02*
X93601122Y-84708419D01*
X93601122Y-84708419D02*
X93791598Y-84708419D01*
X93791598Y-84708419D02*
X93886836Y-84660800D01*
X93886836Y-84660800D02*
X93934455Y-84613180D01*
X93934455Y-84613180D02*
X93982074Y-84517942D01*
X93982074Y-84517942D02*
X93982074Y-84327466D01*
X93982074Y-84327466D02*
X93934455Y-84232228D01*
X93934455Y-84232228D02*
X93886836Y-84184609D01*
X93886836Y-84184609D02*
X93791598Y-84136990D01*
X94267789Y-83708419D02*
X94601122Y-84708419D01*
X94601122Y-84708419D02*
X94934455Y-83708419D01*
X95267789Y-84327466D02*
X96029694Y-84327466D01*
X116334265Y-71960800D02*
X116477122Y-72008419D01*
X116477122Y-72008419D02*
X116715217Y-72008419D01*
X116715217Y-72008419D02*
X116810455Y-71960800D01*
X116810455Y-71960800D02*
X116858074Y-71913180D01*
X116858074Y-71913180D02*
X116905693Y-71817942D01*
X116905693Y-71817942D02*
X116905693Y-71722704D01*
X116905693Y-71722704D02*
X116858074Y-71627466D01*
X116858074Y-71627466D02*
X116810455Y-71579847D01*
X116810455Y-71579847D02*
X116715217Y-71532228D01*
X116715217Y-71532228D02*
X116524741Y-71484609D01*
X116524741Y-71484609D02*
X116429503Y-71436990D01*
X116429503Y-71436990D02*
X116381884Y-71389371D01*
X116381884Y-71389371D02*
X116334265Y-71294133D01*
X116334265Y-71294133D02*
X116334265Y-71198895D01*
X116334265Y-71198895D02*
X116381884Y-71103657D01*
X116381884Y-71103657D02*
X116429503Y-71056038D01*
X116429503Y-71056038D02*
X116524741Y-71008419D01*
X116524741Y-71008419D02*
X116762836Y-71008419D01*
X116762836Y-71008419D02*
X116905693Y-71056038D01*
X117334265Y-71627466D02*
X118096170Y-71627466D01*
D14*
X136517142Y-41094819D02*
X136183809Y-40618628D01*
X135945714Y-41094819D02*
X135945714Y-40094819D01*
X135945714Y-40094819D02*
X136326666Y-40094819D01*
X136326666Y-40094819D02*
X136421904Y-40142438D01*
X136421904Y-40142438D02*
X136469523Y-40190057D01*
X136469523Y-40190057D02*
X136517142Y-40285295D01*
X136517142Y-40285295D02*
X136517142Y-40428152D01*
X136517142Y-40428152D02*
X136469523Y-40523390D01*
X136469523Y-40523390D02*
X136421904Y-40571009D01*
X136421904Y-40571009D02*
X136326666Y-40618628D01*
X136326666Y-40618628D02*
X135945714Y-40618628D01*
X137469523Y-41094819D02*
X136898095Y-41094819D01*
X137183809Y-41094819D02*
X137183809Y-40094819D01*
X137183809Y-40094819D02*
X137088571Y-40237676D01*
X137088571Y-40237676D02*
X136993333Y-40332914D01*
X136993333Y-40332914D02*
X136898095Y-40380533D01*
X138326666Y-40428152D02*
X138326666Y-41094819D01*
X138088571Y-40047200D02*
X137850476Y-40761485D01*
X137850476Y-40761485D02*
X138469523Y-40761485D01*
X137062057Y-63595238D02*
X137014438Y-63690476D01*
X137014438Y-63690476D02*
X136919200Y-63785714D01*
X136919200Y-63785714D02*
X136776342Y-63928571D01*
X136776342Y-63928571D02*
X136728723Y-64023809D01*
X136728723Y-64023809D02*
X136728723Y-64119047D01*
X136966819Y-64071428D02*
X136919200Y-64166666D01*
X136919200Y-64166666D02*
X136823961Y-64261904D01*
X136823961Y-64261904D02*
X136633485Y-64309523D01*
X136633485Y-64309523D02*
X136300152Y-64309523D01*
X136300152Y-64309523D02*
X136109676Y-64261904D01*
X136109676Y-64261904D02*
X136014438Y-64166666D01*
X136014438Y-64166666D02*
X135966819Y-64071428D01*
X135966819Y-64071428D02*
X135966819Y-63880952D01*
X135966819Y-63880952D02*
X136014438Y-63785714D01*
X136014438Y-63785714D02*
X136109676Y-63690476D01*
X136109676Y-63690476D02*
X136300152Y-63642857D01*
X136300152Y-63642857D02*
X136633485Y-63642857D01*
X136633485Y-63642857D02*
X136823961Y-63690476D01*
X136823961Y-63690476D02*
X136919200Y-63785714D01*
X136919200Y-63785714D02*
X136966819Y-63880952D01*
X136966819Y-63880952D02*
X136966819Y-64071428D01*
X136300152Y-62785714D02*
X136966819Y-62785714D01*
X135919200Y-63023809D02*
X136633485Y-63261904D01*
X136633485Y-63261904D02*
X136633485Y-62642857D01*
X103378095Y-78834819D02*
X103378095Y-77834819D01*
X103378095Y-78311009D02*
X103949523Y-78311009D01*
X103949523Y-78834819D02*
X103949523Y-77834819D01*
X104854285Y-78168152D02*
X104854285Y-78834819D01*
X104616190Y-77787200D02*
X104378095Y-78501485D01*
X104378095Y-78501485D02*
X104997142Y-78501485D01*
X98298095Y-78834819D02*
X98298095Y-77834819D01*
X98298095Y-78311009D02*
X98869523Y-78311009D01*
X98869523Y-78834819D02*
X98869523Y-77834819D01*
X99250476Y-77834819D02*
X99869523Y-77834819D01*
X99869523Y-77834819D02*
X99536190Y-78215771D01*
X99536190Y-78215771D02*
X99679047Y-78215771D01*
X99679047Y-78215771D02*
X99774285Y-78263390D01*
X99774285Y-78263390D02*
X99821904Y-78311009D01*
X99821904Y-78311009D02*
X99869523Y-78406247D01*
X99869523Y-78406247D02*
X99869523Y-78644342D01*
X99869523Y-78644342D02*
X99821904Y-78739580D01*
X99821904Y-78739580D02*
X99774285Y-78787200D01*
X99774285Y-78787200D02*
X99679047Y-78834819D01*
X99679047Y-78834819D02*
X99393333Y-78834819D01*
X99393333Y-78834819D02*
X99298095Y-78787200D01*
X99298095Y-78787200D02*
X99250476Y-78739580D01*
X136517142Y-44904819D02*
X136183809Y-44428628D01*
X135945714Y-44904819D02*
X135945714Y-43904819D01*
X135945714Y-43904819D02*
X136326666Y-43904819D01*
X136326666Y-43904819D02*
X136421904Y-43952438D01*
X136421904Y-43952438D02*
X136469523Y-44000057D01*
X136469523Y-44000057D02*
X136517142Y-44095295D01*
X136517142Y-44095295D02*
X136517142Y-44238152D01*
X136517142Y-44238152D02*
X136469523Y-44333390D01*
X136469523Y-44333390D02*
X136421904Y-44381009D01*
X136421904Y-44381009D02*
X136326666Y-44428628D01*
X136326666Y-44428628D02*
X135945714Y-44428628D01*
X137469523Y-44904819D02*
X136898095Y-44904819D01*
X137183809Y-44904819D02*
X137183809Y-43904819D01*
X137183809Y-43904819D02*
X137088571Y-44047676D01*
X137088571Y-44047676D02*
X136993333Y-44142914D01*
X136993333Y-44142914D02*
X136898095Y-44190533D01*
X138374285Y-43904819D02*
X137898095Y-43904819D01*
X137898095Y-43904819D02*
X137850476Y-44381009D01*
X137850476Y-44381009D02*
X137898095Y-44333390D01*
X137898095Y-44333390D02*
X137993333Y-44285771D01*
X137993333Y-44285771D02*
X138231428Y-44285771D01*
X138231428Y-44285771D02*
X138326666Y-44333390D01*
X138326666Y-44333390D02*
X138374285Y-44381009D01*
X138374285Y-44381009D02*
X138421904Y-44476247D01*
X138421904Y-44476247D02*
X138421904Y-44714342D01*
X138421904Y-44714342D02*
X138374285Y-44809580D01*
X138374285Y-44809580D02*
X138326666Y-44857200D01*
X138326666Y-44857200D02*
X138231428Y-44904819D01*
X138231428Y-44904819D02*
X137993333Y-44904819D01*
X137993333Y-44904819D02*
X137898095Y-44857200D01*
X137898095Y-44857200D02*
X137850476Y-44809580D01*
X167361666Y-72262319D02*
X167361666Y-72976604D01*
X167361666Y-72976604D02*
X167314047Y-73119461D01*
X167314047Y-73119461D02*
X167218809Y-73214700D01*
X167218809Y-73214700D02*
X167075952Y-73262319D01*
X167075952Y-73262319D02*
X166980714Y-73262319D01*
X167742619Y-72262319D02*
X168361666Y-72262319D01*
X168361666Y-72262319D02*
X168028333Y-72643271D01*
X168028333Y-72643271D02*
X168171190Y-72643271D01*
X168171190Y-72643271D02*
X168266428Y-72690890D01*
X168266428Y-72690890D02*
X168314047Y-72738509D01*
X168314047Y-72738509D02*
X168361666Y-72833747D01*
X168361666Y-72833747D02*
X168361666Y-73071842D01*
X168361666Y-73071842D02*
X168314047Y-73167080D01*
X168314047Y-73167080D02*
X168266428Y-73214700D01*
X168266428Y-73214700D02*
X168171190Y-73262319D01*
X168171190Y-73262319D02*
X167885476Y-73262319D01*
X167885476Y-73262319D02*
X167790238Y-73214700D01*
X167790238Y-73214700D02*
X167742619Y-73167080D01*
X112895142Y-20012819D02*
X112561809Y-19536628D01*
X112323714Y-20012819D02*
X112323714Y-19012819D01*
X112323714Y-19012819D02*
X112704666Y-19012819D01*
X112704666Y-19012819D02*
X112799904Y-19060438D01*
X112799904Y-19060438D02*
X112847523Y-19108057D01*
X112847523Y-19108057D02*
X112895142Y-19203295D01*
X112895142Y-19203295D02*
X112895142Y-19346152D01*
X112895142Y-19346152D02*
X112847523Y-19441390D01*
X112847523Y-19441390D02*
X112799904Y-19489009D01*
X112799904Y-19489009D02*
X112704666Y-19536628D01*
X112704666Y-19536628D02*
X112323714Y-19536628D01*
X113276095Y-19108057D02*
X113323714Y-19060438D01*
X113323714Y-19060438D02*
X113418952Y-19012819D01*
X113418952Y-19012819D02*
X113657047Y-19012819D01*
X113657047Y-19012819D02*
X113752285Y-19060438D01*
X113752285Y-19060438D02*
X113799904Y-19108057D01*
X113799904Y-19108057D02*
X113847523Y-19203295D01*
X113847523Y-19203295D02*
X113847523Y-19298533D01*
X113847523Y-19298533D02*
X113799904Y-19441390D01*
X113799904Y-19441390D02*
X113228476Y-20012819D01*
X113228476Y-20012819D02*
X113847523Y-20012819D01*
X114466571Y-19012819D02*
X114561809Y-19012819D01*
X114561809Y-19012819D02*
X114657047Y-19060438D01*
X114657047Y-19060438D02*
X114704666Y-19108057D01*
X114704666Y-19108057D02*
X114752285Y-19203295D01*
X114752285Y-19203295D02*
X114799904Y-19393771D01*
X114799904Y-19393771D02*
X114799904Y-19631866D01*
X114799904Y-19631866D02*
X114752285Y-19822342D01*
X114752285Y-19822342D02*
X114704666Y-19917580D01*
X114704666Y-19917580D02*
X114657047Y-19965200D01*
X114657047Y-19965200D02*
X114561809Y-20012819D01*
X114561809Y-20012819D02*
X114466571Y-20012819D01*
X114466571Y-20012819D02*
X114371333Y-19965200D01*
X114371333Y-19965200D02*
X114323714Y-19917580D01*
X114323714Y-19917580D02*
X114276095Y-19822342D01*
X114276095Y-19822342D02*
X114228476Y-19631866D01*
X114228476Y-19631866D02*
X114228476Y-19393771D01*
X114228476Y-19393771D02*
X114276095Y-19203295D01*
X114276095Y-19203295D02*
X114323714Y-19108057D01*
X114323714Y-19108057D02*
X114371333Y-19060438D01*
X114371333Y-19060438D02*
X114466571Y-19012819D01*
X159599333Y-17980819D02*
X159266000Y-17504628D01*
X159027905Y-17980819D02*
X159027905Y-16980819D01*
X159027905Y-16980819D02*
X159408857Y-16980819D01*
X159408857Y-16980819D02*
X159504095Y-17028438D01*
X159504095Y-17028438D02*
X159551714Y-17076057D01*
X159551714Y-17076057D02*
X159599333Y-17171295D01*
X159599333Y-17171295D02*
X159599333Y-17314152D01*
X159599333Y-17314152D02*
X159551714Y-17409390D01*
X159551714Y-17409390D02*
X159504095Y-17457009D01*
X159504095Y-17457009D02*
X159408857Y-17504628D01*
X159408857Y-17504628D02*
X159027905Y-17504628D01*
X159980286Y-17076057D02*
X160027905Y-17028438D01*
X160027905Y-17028438D02*
X160123143Y-16980819D01*
X160123143Y-16980819D02*
X160361238Y-16980819D01*
X160361238Y-16980819D02*
X160456476Y-17028438D01*
X160456476Y-17028438D02*
X160504095Y-17076057D01*
X160504095Y-17076057D02*
X160551714Y-17171295D01*
X160551714Y-17171295D02*
X160551714Y-17266533D01*
X160551714Y-17266533D02*
X160504095Y-17409390D01*
X160504095Y-17409390D02*
X159932667Y-17980819D01*
X159932667Y-17980819D02*
X160551714Y-17980819D01*
X167204819Y-68476666D02*
X166728628Y-68809999D01*
X167204819Y-69048094D02*
X166204819Y-69048094D01*
X166204819Y-69048094D02*
X166204819Y-68667142D01*
X166204819Y-68667142D02*
X166252438Y-68571904D01*
X166252438Y-68571904D02*
X166300057Y-68524285D01*
X166300057Y-68524285D02*
X166395295Y-68476666D01*
X166395295Y-68476666D02*
X166538152Y-68476666D01*
X166538152Y-68476666D02*
X166633390Y-68524285D01*
X166633390Y-68524285D02*
X166681009Y-68571904D01*
X166681009Y-68571904D02*
X166728628Y-68667142D01*
X166728628Y-68667142D02*
X166728628Y-69048094D01*
X166204819Y-68143332D02*
X166204819Y-67476666D01*
X166204819Y-67476666D02*
X167204819Y-67905237D01*
X77669819Y-41401904D02*
X78479342Y-41401904D01*
X78479342Y-41401904D02*
X78574580Y-41354285D01*
X78574580Y-41354285D02*
X78622200Y-41306666D01*
X78622200Y-41306666D02*
X78669819Y-41211428D01*
X78669819Y-41211428D02*
X78669819Y-41020952D01*
X78669819Y-41020952D02*
X78622200Y-40925714D01*
X78622200Y-40925714D02*
X78574580Y-40878095D01*
X78574580Y-40878095D02*
X78479342Y-40830476D01*
X78479342Y-40830476D02*
X77669819Y-40830476D01*
X77765057Y-40401904D02*
X77717438Y-40354285D01*
X77717438Y-40354285D02*
X77669819Y-40259047D01*
X77669819Y-40259047D02*
X77669819Y-40020952D01*
X77669819Y-40020952D02*
X77717438Y-39925714D01*
X77717438Y-39925714D02*
X77765057Y-39878095D01*
X77765057Y-39878095D02*
X77860295Y-39830476D01*
X77860295Y-39830476D02*
X77955533Y-39830476D01*
X77955533Y-39830476D02*
X78098390Y-39878095D01*
X78098390Y-39878095D02*
X78669819Y-40449523D01*
X78669819Y-40449523D02*
X78669819Y-39830476D01*
X149764761Y-56250057D02*
X149669523Y-56202438D01*
X149669523Y-56202438D02*
X149574285Y-56107200D01*
X149574285Y-56107200D02*
X149431428Y-55964342D01*
X149431428Y-55964342D02*
X149336190Y-55916723D01*
X149336190Y-55916723D02*
X149240952Y-55916723D01*
X149288571Y-56154819D02*
X149193333Y-56107200D01*
X149193333Y-56107200D02*
X149098095Y-56011961D01*
X149098095Y-56011961D02*
X149050476Y-55821485D01*
X149050476Y-55821485D02*
X149050476Y-55488152D01*
X149050476Y-55488152D02*
X149098095Y-55297676D01*
X149098095Y-55297676D02*
X149193333Y-55202438D01*
X149193333Y-55202438D02*
X149288571Y-55154819D01*
X149288571Y-55154819D02*
X149479047Y-55154819D01*
X149479047Y-55154819D02*
X149574285Y-55202438D01*
X149574285Y-55202438D02*
X149669523Y-55297676D01*
X149669523Y-55297676D02*
X149717142Y-55488152D01*
X149717142Y-55488152D02*
X149717142Y-55821485D01*
X149717142Y-55821485D02*
X149669523Y-56011961D01*
X149669523Y-56011961D02*
X149574285Y-56107200D01*
X149574285Y-56107200D02*
X149479047Y-56154819D01*
X149479047Y-56154819D02*
X149288571Y-56154819D01*
X150098095Y-55250057D02*
X150145714Y-55202438D01*
X150145714Y-55202438D02*
X150240952Y-55154819D01*
X150240952Y-55154819D02*
X150479047Y-55154819D01*
X150479047Y-55154819D02*
X150574285Y-55202438D01*
X150574285Y-55202438D02*
X150621904Y-55250057D01*
X150621904Y-55250057D02*
X150669523Y-55345295D01*
X150669523Y-55345295D02*
X150669523Y-55440533D01*
X150669523Y-55440533D02*
X150621904Y-55583390D01*
X150621904Y-55583390D02*
X150050476Y-56154819D01*
X150050476Y-56154819D02*
X150669523Y-56154819D01*
X136517142Y-37284819D02*
X136183809Y-36808628D01*
X135945714Y-37284819D02*
X135945714Y-36284819D01*
X135945714Y-36284819D02*
X136326666Y-36284819D01*
X136326666Y-36284819D02*
X136421904Y-36332438D01*
X136421904Y-36332438D02*
X136469523Y-36380057D01*
X136469523Y-36380057D02*
X136517142Y-36475295D01*
X136517142Y-36475295D02*
X136517142Y-36618152D01*
X136517142Y-36618152D02*
X136469523Y-36713390D01*
X136469523Y-36713390D02*
X136421904Y-36761009D01*
X136421904Y-36761009D02*
X136326666Y-36808628D01*
X136326666Y-36808628D02*
X135945714Y-36808628D01*
X137469523Y-37284819D02*
X136898095Y-37284819D01*
X137183809Y-37284819D02*
X137183809Y-36284819D01*
X137183809Y-36284819D02*
X137088571Y-36427676D01*
X137088571Y-36427676D02*
X136993333Y-36522914D01*
X136993333Y-36522914D02*
X136898095Y-36570533D01*
X137802857Y-36284819D02*
X138421904Y-36284819D01*
X138421904Y-36284819D02*
X138088571Y-36665771D01*
X138088571Y-36665771D02*
X138231428Y-36665771D01*
X138231428Y-36665771D02*
X138326666Y-36713390D01*
X138326666Y-36713390D02*
X138374285Y-36761009D01*
X138374285Y-36761009D02*
X138421904Y-36856247D01*
X138421904Y-36856247D02*
X138421904Y-37094342D01*
X138421904Y-37094342D02*
X138374285Y-37189580D01*
X138374285Y-37189580D02*
X138326666Y-37237200D01*
X138326666Y-37237200D02*
X138231428Y-37284819D01*
X138231428Y-37284819D02*
X137945714Y-37284819D01*
X137945714Y-37284819D02*
X137850476Y-37237200D01*
X137850476Y-37237200D02*
X137802857Y-37189580D01*
X122817142Y-38934819D02*
X122483809Y-38458628D01*
X122245714Y-38934819D02*
X122245714Y-37934819D01*
X122245714Y-37934819D02*
X122626666Y-37934819D01*
X122626666Y-37934819D02*
X122721904Y-37982438D01*
X122721904Y-37982438D02*
X122769523Y-38030057D01*
X122769523Y-38030057D02*
X122817142Y-38125295D01*
X122817142Y-38125295D02*
X122817142Y-38268152D01*
X122817142Y-38268152D02*
X122769523Y-38363390D01*
X122769523Y-38363390D02*
X122721904Y-38411009D01*
X122721904Y-38411009D02*
X122626666Y-38458628D01*
X122626666Y-38458628D02*
X122245714Y-38458628D01*
X123769523Y-38934819D02*
X123198095Y-38934819D01*
X123483809Y-38934819D02*
X123483809Y-37934819D01*
X123483809Y-37934819D02*
X123388571Y-38077676D01*
X123388571Y-38077676D02*
X123293333Y-38172914D01*
X123293333Y-38172914D02*
X123198095Y-38220533D01*
X124150476Y-38030057D02*
X124198095Y-37982438D01*
X124198095Y-37982438D02*
X124293333Y-37934819D01*
X124293333Y-37934819D02*
X124531428Y-37934819D01*
X124531428Y-37934819D02*
X124626666Y-37982438D01*
X124626666Y-37982438D02*
X124674285Y-38030057D01*
X124674285Y-38030057D02*
X124721904Y-38125295D01*
X124721904Y-38125295D02*
X124721904Y-38220533D01*
X124721904Y-38220533D02*
X124674285Y-38363390D01*
X124674285Y-38363390D02*
X124102857Y-38934819D01*
X124102857Y-38934819D02*
X124721904Y-38934819D01*
X75866666Y-72654819D02*
X75866666Y-73369104D01*
X75866666Y-73369104D02*
X75819047Y-73511961D01*
X75819047Y-73511961D02*
X75723809Y-73607200D01*
X75723809Y-73607200D02*
X75580952Y-73654819D01*
X75580952Y-73654819D02*
X75485714Y-73654819D01*
X76866666Y-73654819D02*
X76295238Y-73654819D01*
X76580952Y-73654819D02*
X76580952Y-72654819D01*
X76580952Y-72654819D02*
X76485714Y-72797676D01*
X76485714Y-72797676D02*
X76390476Y-72892914D01*
X76390476Y-72892914D02*
X76295238Y-72940533D01*
X62738095Y-16974819D02*
X62738095Y-15974819D01*
X62738095Y-16451009D02*
X63309523Y-16451009D01*
X63309523Y-16974819D02*
X63309523Y-15974819D01*
X64261904Y-15974819D02*
X63785714Y-15974819D01*
X63785714Y-15974819D02*
X63738095Y-16451009D01*
X63738095Y-16451009D02*
X63785714Y-16403390D01*
X63785714Y-16403390D02*
X63880952Y-16355771D01*
X63880952Y-16355771D02*
X64119047Y-16355771D01*
X64119047Y-16355771D02*
X64214285Y-16403390D01*
X64214285Y-16403390D02*
X64261904Y-16451009D01*
X64261904Y-16451009D02*
X64309523Y-16546247D01*
X64309523Y-16546247D02*
X64309523Y-16784342D01*
X64309523Y-16784342D02*
X64261904Y-16879580D01*
X64261904Y-16879580D02*
X64214285Y-16927200D01*
X64214285Y-16927200D02*
X64119047Y-16974819D01*
X64119047Y-16974819D02*
X63880952Y-16974819D01*
X63880952Y-16974819D02*
X63785714Y-16927200D01*
X63785714Y-16927200D02*
X63738095Y-16879580D01*
X150487142Y-44904819D02*
X150153809Y-44428628D01*
X149915714Y-44904819D02*
X149915714Y-43904819D01*
X149915714Y-43904819D02*
X150296666Y-43904819D01*
X150296666Y-43904819D02*
X150391904Y-43952438D01*
X150391904Y-43952438D02*
X150439523Y-44000057D01*
X150439523Y-44000057D02*
X150487142Y-44095295D01*
X150487142Y-44095295D02*
X150487142Y-44238152D01*
X150487142Y-44238152D02*
X150439523Y-44333390D01*
X150439523Y-44333390D02*
X150391904Y-44381009D01*
X150391904Y-44381009D02*
X150296666Y-44428628D01*
X150296666Y-44428628D02*
X149915714Y-44428628D01*
X151439523Y-44904819D02*
X150868095Y-44904819D01*
X151153809Y-44904819D02*
X151153809Y-43904819D01*
X151153809Y-43904819D02*
X151058571Y-44047676D01*
X151058571Y-44047676D02*
X150963333Y-44142914D01*
X150963333Y-44142914D02*
X150868095Y-44190533D01*
X152010952Y-44333390D02*
X151915714Y-44285771D01*
X151915714Y-44285771D02*
X151868095Y-44238152D01*
X151868095Y-44238152D02*
X151820476Y-44142914D01*
X151820476Y-44142914D02*
X151820476Y-44095295D01*
X151820476Y-44095295D02*
X151868095Y-44000057D01*
X151868095Y-44000057D02*
X151915714Y-43952438D01*
X151915714Y-43952438D02*
X152010952Y-43904819D01*
X152010952Y-43904819D02*
X152201428Y-43904819D01*
X152201428Y-43904819D02*
X152296666Y-43952438D01*
X152296666Y-43952438D02*
X152344285Y-44000057D01*
X152344285Y-44000057D02*
X152391904Y-44095295D01*
X152391904Y-44095295D02*
X152391904Y-44142914D01*
X152391904Y-44142914D02*
X152344285Y-44238152D01*
X152344285Y-44238152D02*
X152296666Y-44285771D01*
X152296666Y-44285771D02*
X152201428Y-44333390D01*
X152201428Y-44333390D02*
X152010952Y-44333390D01*
X152010952Y-44333390D02*
X151915714Y-44381009D01*
X151915714Y-44381009D02*
X151868095Y-44428628D01*
X151868095Y-44428628D02*
X151820476Y-44523866D01*
X151820476Y-44523866D02*
X151820476Y-44714342D01*
X151820476Y-44714342D02*
X151868095Y-44809580D01*
X151868095Y-44809580D02*
X151915714Y-44857200D01*
X151915714Y-44857200D02*
X152010952Y-44904819D01*
X152010952Y-44904819D02*
X152201428Y-44904819D01*
X152201428Y-44904819D02*
X152296666Y-44857200D01*
X152296666Y-44857200D02*
X152344285Y-44809580D01*
X152344285Y-44809580D02*
X152391904Y-44714342D01*
X152391904Y-44714342D02*
X152391904Y-44523866D01*
X152391904Y-44523866D02*
X152344285Y-44428628D01*
X152344285Y-44428628D02*
X152296666Y-44381009D01*
X152296666Y-44381009D02*
X152201428Y-44333390D01*
X133934819Y-35051904D02*
X134744342Y-35051904D01*
X134744342Y-35051904D02*
X134839580Y-35004285D01*
X134839580Y-35004285D02*
X134887200Y-34956666D01*
X134887200Y-34956666D02*
X134934819Y-34861428D01*
X134934819Y-34861428D02*
X134934819Y-34670952D01*
X134934819Y-34670952D02*
X134887200Y-34575714D01*
X134887200Y-34575714D02*
X134839580Y-34528095D01*
X134839580Y-34528095D02*
X134744342Y-34480476D01*
X134744342Y-34480476D02*
X133934819Y-34480476D01*
X134268152Y-33575714D02*
X134934819Y-33575714D01*
X133887200Y-33813809D02*
X134601485Y-34051904D01*
X134601485Y-34051904D02*
X134601485Y-33432857D01*
X113864819Y-68746666D02*
X113388628Y-69079999D01*
X113864819Y-69318094D02*
X112864819Y-69318094D01*
X112864819Y-69318094D02*
X112864819Y-68937142D01*
X112864819Y-68937142D02*
X112912438Y-68841904D01*
X112912438Y-68841904D02*
X112960057Y-68794285D01*
X112960057Y-68794285D02*
X113055295Y-68746666D01*
X113055295Y-68746666D02*
X113198152Y-68746666D01*
X113198152Y-68746666D02*
X113293390Y-68794285D01*
X113293390Y-68794285D02*
X113341009Y-68841904D01*
X113341009Y-68841904D02*
X113388628Y-68937142D01*
X113388628Y-68937142D02*
X113388628Y-69318094D01*
X113864819Y-68270475D02*
X113864819Y-68079999D01*
X113864819Y-68079999D02*
X113817200Y-67984761D01*
X113817200Y-67984761D02*
X113769580Y-67937142D01*
X113769580Y-67937142D02*
X113626723Y-67841904D01*
X113626723Y-67841904D02*
X113436247Y-67794285D01*
X113436247Y-67794285D02*
X113055295Y-67794285D01*
X113055295Y-67794285D02*
X112960057Y-67841904D01*
X112960057Y-67841904D02*
X112912438Y-67889523D01*
X112912438Y-67889523D02*
X112864819Y-67984761D01*
X112864819Y-67984761D02*
X112864819Y-68175237D01*
X112864819Y-68175237D02*
X112912438Y-68270475D01*
X112912438Y-68270475D02*
X112960057Y-68318094D01*
X112960057Y-68318094D02*
X113055295Y-68365713D01*
X113055295Y-68365713D02*
X113293390Y-68365713D01*
X113293390Y-68365713D02*
X113388628Y-68318094D01*
X113388628Y-68318094D02*
X113436247Y-68270475D01*
X113436247Y-68270475D02*
X113483866Y-68175237D01*
X113483866Y-68175237D02*
X113483866Y-67984761D01*
X113483866Y-67984761D02*
X113436247Y-67889523D01*
X113436247Y-67889523D02*
X113388628Y-67841904D01*
X113388628Y-67841904D02*
X113293390Y-67794285D01*
X116197142Y-16584819D02*
X115863809Y-16108628D01*
X115625714Y-16584819D02*
X115625714Y-15584819D01*
X115625714Y-15584819D02*
X116006666Y-15584819D01*
X116006666Y-15584819D02*
X116101904Y-15632438D01*
X116101904Y-15632438D02*
X116149523Y-15680057D01*
X116149523Y-15680057D02*
X116197142Y-15775295D01*
X116197142Y-15775295D02*
X116197142Y-15918152D01*
X116197142Y-15918152D02*
X116149523Y-16013390D01*
X116149523Y-16013390D02*
X116101904Y-16061009D01*
X116101904Y-16061009D02*
X116006666Y-16108628D01*
X116006666Y-16108628D02*
X115625714Y-16108628D01*
X117149523Y-16584819D02*
X116578095Y-16584819D01*
X116863809Y-16584819D02*
X116863809Y-15584819D01*
X116863809Y-15584819D02*
X116768571Y-15727676D01*
X116768571Y-15727676D02*
X116673333Y-15822914D01*
X116673333Y-15822914D02*
X116578095Y-15870533D01*
X117625714Y-16584819D02*
X117816190Y-16584819D01*
X117816190Y-16584819D02*
X117911428Y-16537200D01*
X117911428Y-16537200D02*
X117959047Y-16489580D01*
X117959047Y-16489580D02*
X118054285Y-16346723D01*
X118054285Y-16346723D02*
X118101904Y-16156247D01*
X118101904Y-16156247D02*
X118101904Y-15775295D01*
X118101904Y-15775295D02*
X118054285Y-15680057D01*
X118054285Y-15680057D02*
X118006666Y-15632438D01*
X118006666Y-15632438D02*
X117911428Y-15584819D01*
X117911428Y-15584819D02*
X117720952Y-15584819D01*
X117720952Y-15584819D02*
X117625714Y-15632438D01*
X117625714Y-15632438D02*
X117578095Y-15680057D01*
X117578095Y-15680057D02*
X117530476Y-15775295D01*
X117530476Y-15775295D02*
X117530476Y-16013390D01*
X117530476Y-16013390D02*
X117578095Y-16108628D01*
X117578095Y-16108628D02*
X117625714Y-16156247D01*
X117625714Y-16156247D02*
X117720952Y-16203866D01*
X117720952Y-16203866D02*
X117911428Y-16203866D01*
X117911428Y-16203866D02*
X118006666Y-16156247D01*
X118006666Y-16156247D02*
X118054285Y-16108628D01*
X118054285Y-16108628D02*
X118101904Y-16013390D01*
X122785142Y-40206819D02*
X122451809Y-39730628D01*
X122213714Y-40206819D02*
X122213714Y-39206819D01*
X122213714Y-39206819D02*
X122594666Y-39206819D01*
X122594666Y-39206819D02*
X122689904Y-39254438D01*
X122689904Y-39254438D02*
X122737523Y-39302057D01*
X122737523Y-39302057D02*
X122785142Y-39397295D01*
X122785142Y-39397295D02*
X122785142Y-39540152D01*
X122785142Y-39540152D02*
X122737523Y-39635390D01*
X122737523Y-39635390D02*
X122689904Y-39683009D01*
X122689904Y-39683009D02*
X122594666Y-39730628D01*
X122594666Y-39730628D02*
X122213714Y-39730628D01*
X123737523Y-40206819D02*
X123166095Y-40206819D01*
X123451809Y-40206819D02*
X123451809Y-39206819D01*
X123451809Y-39206819D02*
X123356571Y-39349676D01*
X123356571Y-39349676D02*
X123261333Y-39444914D01*
X123261333Y-39444914D02*
X123166095Y-39492533D01*
X124689904Y-40206819D02*
X124118476Y-40206819D01*
X124404190Y-40206819D02*
X124404190Y-39206819D01*
X124404190Y-39206819D02*
X124308952Y-39349676D01*
X124308952Y-39349676D02*
X124213714Y-39444914D01*
X124213714Y-39444914D02*
X124118476Y-39492533D01*
X115644819Y-69222857D02*
X115168628Y-69556190D01*
X115644819Y-69794285D02*
X114644819Y-69794285D01*
X114644819Y-69794285D02*
X114644819Y-69413333D01*
X114644819Y-69413333D02*
X114692438Y-69318095D01*
X114692438Y-69318095D02*
X114740057Y-69270476D01*
X114740057Y-69270476D02*
X114835295Y-69222857D01*
X114835295Y-69222857D02*
X114978152Y-69222857D01*
X114978152Y-69222857D02*
X115073390Y-69270476D01*
X115073390Y-69270476D02*
X115121009Y-69318095D01*
X115121009Y-69318095D02*
X115168628Y-69413333D01*
X115168628Y-69413333D02*
X115168628Y-69794285D01*
X115644819Y-68270476D02*
X115644819Y-68841904D01*
X115644819Y-68556190D02*
X114644819Y-68556190D01*
X114644819Y-68556190D02*
X114787676Y-68651428D01*
X114787676Y-68651428D02*
X114882914Y-68746666D01*
X114882914Y-68746666D02*
X114930533Y-68841904D01*
X114644819Y-67651428D02*
X114644819Y-67556190D01*
X114644819Y-67556190D02*
X114692438Y-67460952D01*
X114692438Y-67460952D02*
X114740057Y-67413333D01*
X114740057Y-67413333D02*
X114835295Y-67365714D01*
X114835295Y-67365714D02*
X115025771Y-67318095D01*
X115025771Y-67318095D02*
X115263866Y-67318095D01*
X115263866Y-67318095D02*
X115454342Y-67365714D01*
X115454342Y-67365714D02*
X115549580Y-67413333D01*
X115549580Y-67413333D02*
X115597200Y-67460952D01*
X115597200Y-67460952D02*
X115644819Y-67556190D01*
X115644819Y-67556190D02*
X115644819Y-67651428D01*
X115644819Y-67651428D02*
X115597200Y-67746666D01*
X115597200Y-67746666D02*
X115549580Y-67794285D01*
X115549580Y-67794285D02*
X115454342Y-67841904D01*
X115454342Y-67841904D02*
X115263866Y-67889523D01*
X115263866Y-67889523D02*
X115025771Y-67889523D01*
X115025771Y-67889523D02*
X114835295Y-67841904D01*
X114835295Y-67841904D02*
X114740057Y-67794285D01*
X114740057Y-67794285D02*
X114692438Y-67746666D01*
X114692438Y-67746666D02*
X114644819Y-67651428D01*
X145179047Y-29991009D02*
X145321904Y-30038628D01*
X145321904Y-30038628D02*
X145369523Y-30086247D01*
X145369523Y-30086247D02*
X145417142Y-30181485D01*
X145417142Y-30181485D02*
X145417142Y-30324342D01*
X145417142Y-30324342D02*
X145369523Y-30419580D01*
X145369523Y-30419580D02*
X145321904Y-30467200D01*
X145321904Y-30467200D02*
X145226666Y-30514819D01*
X145226666Y-30514819D02*
X144845714Y-30514819D01*
X144845714Y-30514819D02*
X144845714Y-29514819D01*
X144845714Y-29514819D02*
X145179047Y-29514819D01*
X145179047Y-29514819D02*
X145274285Y-29562438D01*
X145274285Y-29562438D02*
X145321904Y-29610057D01*
X145321904Y-29610057D02*
X145369523Y-29705295D01*
X145369523Y-29705295D02*
X145369523Y-29800533D01*
X145369523Y-29800533D02*
X145321904Y-29895771D01*
X145321904Y-29895771D02*
X145274285Y-29943390D01*
X145274285Y-29943390D02*
X145179047Y-29991009D01*
X145179047Y-29991009D02*
X144845714Y-29991009D01*
X145750476Y-29514819D02*
X146417142Y-29514819D01*
X146417142Y-29514819D02*
X145750476Y-30514819D01*
X145750476Y-30514819D02*
X146417142Y-30514819D01*
X147321904Y-30514819D02*
X146750476Y-30514819D01*
X147036190Y-30514819D02*
X147036190Y-29514819D01*
X147036190Y-29514819D02*
X146940952Y-29657676D01*
X146940952Y-29657676D02*
X146845714Y-29752914D01*
X146845714Y-29752914D02*
X146750476Y-29800533D01*
X149489048Y-25473866D02*
X150250953Y-25473866D01*
X149870000Y-25854819D02*
X149870000Y-25092914D01*
X161236819Y-62904666D02*
X160760628Y-63237999D01*
X161236819Y-63476094D02*
X160236819Y-63476094D01*
X160236819Y-63476094D02*
X160236819Y-63095142D01*
X160236819Y-63095142D02*
X160284438Y-62999904D01*
X160284438Y-62999904D02*
X160332057Y-62952285D01*
X160332057Y-62952285D02*
X160427295Y-62904666D01*
X160427295Y-62904666D02*
X160570152Y-62904666D01*
X160570152Y-62904666D02*
X160665390Y-62952285D01*
X160665390Y-62952285D02*
X160713009Y-62999904D01*
X160713009Y-62999904D02*
X160760628Y-63095142D01*
X160760628Y-63095142D02*
X160760628Y-63476094D01*
X160570152Y-62047523D02*
X161236819Y-62047523D01*
X160189200Y-62285618D02*
X160903485Y-62523713D01*
X160903485Y-62523713D02*
X160903485Y-61904666D01*
X150487142Y-37284819D02*
X150153809Y-36808628D01*
X149915714Y-37284819D02*
X149915714Y-36284819D01*
X149915714Y-36284819D02*
X150296666Y-36284819D01*
X150296666Y-36284819D02*
X150391904Y-36332438D01*
X150391904Y-36332438D02*
X150439523Y-36380057D01*
X150439523Y-36380057D02*
X150487142Y-36475295D01*
X150487142Y-36475295D02*
X150487142Y-36618152D01*
X150487142Y-36618152D02*
X150439523Y-36713390D01*
X150439523Y-36713390D02*
X150391904Y-36761009D01*
X150391904Y-36761009D02*
X150296666Y-36808628D01*
X150296666Y-36808628D02*
X149915714Y-36808628D01*
X151439523Y-37284819D02*
X150868095Y-37284819D01*
X151153809Y-37284819D02*
X151153809Y-36284819D01*
X151153809Y-36284819D02*
X151058571Y-36427676D01*
X151058571Y-36427676D02*
X150963333Y-36522914D01*
X150963333Y-36522914D02*
X150868095Y-36570533D01*
X152296666Y-36284819D02*
X152106190Y-36284819D01*
X152106190Y-36284819D02*
X152010952Y-36332438D01*
X152010952Y-36332438D02*
X151963333Y-36380057D01*
X151963333Y-36380057D02*
X151868095Y-36522914D01*
X151868095Y-36522914D02*
X151820476Y-36713390D01*
X151820476Y-36713390D02*
X151820476Y-37094342D01*
X151820476Y-37094342D02*
X151868095Y-37189580D01*
X151868095Y-37189580D02*
X151915714Y-37237200D01*
X151915714Y-37237200D02*
X152010952Y-37284819D01*
X152010952Y-37284819D02*
X152201428Y-37284819D01*
X152201428Y-37284819D02*
X152296666Y-37237200D01*
X152296666Y-37237200D02*
X152344285Y-37189580D01*
X152344285Y-37189580D02*
X152391904Y-37094342D01*
X152391904Y-37094342D02*
X152391904Y-36856247D01*
X152391904Y-36856247D02*
X152344285Y-36761009D01*
X152344285Y-36761009D02*
X152296666Y-36713390D01*
X152296666Y-36713390D02*
X152201428Y-36665771D01*
X152201428Y-36665771D02*
X152010952Y-36665771D01*
X152010952Y-36665771D02*
X151915714Y-36713390D01*
X151915714Y-36713390D02*
X151868095Y-36761009D01*
X151868095Y-36761009D02*
X151820476Y-36856247D01*
X118694819Y-38861904D02*
X119504342Y-38861904D01*
X119504342Y-38861904D02*
X119599580Y-38814285D01*
X119599580Y-38814285D02*
X119647200Y-38766666D01*
X119647200Y-38766666D02*
X119694819Y-38671428D01*
X119694819Y-38671428D02*
X119694819Y-38480952D01*
X119694819Y-38480952D02*
X119647200Y-38385714D01*
X119647200Y-38385714D02*
X119599580Y-38338095D01*
X119599580Y-38338095D02*
X119504342Y-38290476D01*
X119504342Y-38290476D02*
X118694819Y-38290476D01*
X118694819Y-37909523D02*
X118694819Y-37290476D01*
X118694819Y-37290476D02*
X119075771Y-37623809D01*
X119075771Y-37623809D02*
X119075771Y-37480952D01*
X119075771Y-37480952D02*
X119123390Y-37385714D01*
X119123390Y-37385714D02*
X119171009Y-37338095D01*
X119171009Y-37338095D02*
X119266247Y-37290476D01*
X119266247Y-37290476D02*
X119504342Y-37290476D01*
X119504342Y-37290476D02*
X119599580Y-37338095D01*
X119599580Y-37338095D02*
X119647200Y-37385714D01*
X119647200Y-37385714D02*
X119694819Y-37480952D01*
X119694819Y-37480952D02*
X119694819Y-37766666D01*
X119694819Y-37766666D02*
X119647200Y-37861904D01*
X119647200Y-37861904D02*
X119599580Y-37909523D01*
X88138095Y-78834819D02*
X88138095Y-77834819D01*
X88138095Y-78311009D02*
X88709523Y-78311009D01*
X88709523Y-78834819D02*
X88709523Y-77834819D01*
X89709523Y-78834819D02*
X89138095Y-78834819D01*
X89423809Y-78834819D02*
X89423809Y-77834819D01*
X89423809Y-77834819D02*
X89328571Y-77977676D01*
X89328571Y-77977676D02*
X89233333Y-78072914D01*
X89233333Y-78072914D02*
X89138095Y-78120533D01*
X130382261Y-17520057D02*
X130287023Y-17472438D01*
X130287023Y-17472438D02*
X130191785Y-17377200D01*
X130191785Y-17377200D02*
X130048928Y-17234342D01*
X130048928Y-17234342D02*
X129953690Y-17186723D01*
X129953690Y-17186723D02*
X129858452Y-17186723D01*
X129906071Y-17424819D02*
X129810833Y-17377200D01*
X129810833Y-17377200D02*
X129715595Y-17281961D01*
X129715595Y-17281961D02*
X129667976Y-17091485D01*
X129667976Y-17091485D02*
X129667976Y-16758152D01*
X129667976Y-16758152D02*
X129715595Y-16567676D01*
X129715595Y-16567676D02*
X129810833Y-16472438D01*
X129810833Y-16472438D02*
X129906071Y-16424819D01*
X129906071Y-16424819D02*
X130096547Y-16424819D01*
X130096547Y-16424819D02*
X130191785Y-16472438D01*
X130191785Y-16472438D02*
X130287023Y-16567676D01*
X130287023Y-16567676D02*
X130334642Y-16758152D01*
X130334642Y-16758152D02*
X130334642Y-17091485D01*
X130334642Y-17091485D02*
X130287023Y-17281961D01*
X130287023Y-17281961D02*
X130191785Y-17377200D01*
X130191785Y-17377200D02*
X130096547Y-17424819D01*
X130096547Y-17424819D02*
X129906071Y-17424819D01*
X131287023Y-17424819D02*
X130715595Y-17424819D01*
X131001309Y-17424819D02*
X131001309Y-16424819D01*
X131001309Y-16424819D02*
X130906071Y-16567676D01*
X130906071Y-16567676D02*
X130810833Y-16662914D01*
X130810833Y-16662914D02*
X130715595Y-16710533D01*
X149764761Y-62920057D02*
X149669523Y-62872438D01*
X149669523Y-62872438D02*
X149574285Y-62777200D01*
X149574285Y-62777200D02*
X149431428Y-62634342D01*
X149431428Y-62634342D02*
X149336190Y-62586723D01*
X149336190Y-62586723D02*
X149240952Y-62586723D01*
X149288571Y-62824819D02*
X149193333Y-62777200D01*
X149193333Y-62777200D02*
X149098095Y-62681961D01*
X149098095Y-62681961D02*
X149050476Y-62491485D01*
X149050476Y-62491485D02*
X149050476Y-62158152D01*
X149050476Y-62158152D02*
X149098095Y-61967676D01*
X149098095Y-61967676D02*
X149193333Y-61872438D01*
X149193333Y-61872438D02*
X149288571Y-61824819D01*
X149288571Y-61824819D02*
X149479047Y-61824819D01*
X149479047Y-61824819D02*
X149574285Y-61872438D01*
X149574285Y-61872438D02*
X149669523Y-61967676D01*
X149669523Y-61967676D02*
X149717142Y-62158152D01*
X149717142Y-62158152D02*
X149717142Y-62491485D01*
X149717142Y-62491485D02*
X149669523Y-62681961D01*
X149669523Y-62681961D02*
X149574285Y-62777200D01*
X149574285Y-62777200D02*
X149479047Y-62824819D01*
X149479047Y-62824819D02*
X149288571Y-62824819D01*
X150050476Y-61824819D02*
X150669523Y-61824819D01*
X150669523Y-61824819D02*
X150336190Y-62205771D01*
X150336190Y-62205771D02*
X150479047Y-62205771D01*
X150479047Y-62205771D02*
X150574285Y-62253390D01*
X150574285Y-62253390D02*
X150621904Y-62301009D01*
X150621904Y-62301009D02*
X150669523Y-62396247D01*
X150669523Y-62396247D02*
X150669523Y-62634342D01*
X150669523Y-62634342D02*
X150621904Y-62729580D01*
X150621904Y-62729580D02*
X150574285Y-62777200D01*
X150574285Y-62777200D02*
X150479047Y-62824819D01*
X150479047Y-62824819D02*
X150193333Y-62824819D01*
X150193333Y-62824819D02*
X150098095Y-62777200D01*
X150098095Y-62777200D02*
X150050476Y-62729580D01*
X161874819Y-45719904D02*
X162684342Y-45719904D01*
X162684342Y-45719904D02*
X162779580Y-45672285D01*
X162779580Y-45672285D02*
X162827200Y-45624666D01*
X162827200Y-45624666D02*
X162874819Y-45529428D01*
X162874819Y-45529428D02*
X162874819Y-45338952D01*
X162874819Y-45338952D02*
X162827200Y-45243714D01*
X162827200Y-45243714D02*
X162779580Y-45196095D01*
X162779580Y-45196095D02*
X162684342Y-45148476D01*
X162684342Y-45148476D02*
X161874819Y-45148476D01*
X161874819Y-44196095D02*
X161874819Y-44672285D01*
X161874819Y-44672285D02*
X162351009Y-44719904D01*
X162351009Y-44719904D02*
X162303390Y-44672285D01*
X162303390Y-44672285D02*
X162255771Y-44577047D01*
X162255771Y-44577047D02*
X162255771Y-44338952D01*
X162255771Y-44338952D02*
X162303390Y-44243714D01*
X162303390Y-44243714D02*
X162351009Y-44196095D01*
X162351009Y-44196095D02*
X162446247Y-44148476D01*
X162446247Y-44148476D02*
X162684342Y-44148476D01*
X162684342Y-44148476D02*
X162779580Y-44196095D01*
X162779580Y-44196095D02*
X162827200Y-44243714D01*
X162827200Y-44243714D02*
X162874819Y-44338952D01*
X162874819Y-44338952D02*
X162874819Y-44577047D01*
X162874819Y-44577047D02*
X162827200Y-44672285D01*
X162827200Y-44672285D02*
X162779580Y-44719904D01*
X153744819Y-62666666D02*
X153268628Y-62999999D01*
X153744819Y-63238094D02*
X152744819Y-63238094D01*
X152744819Y-63238094D02*
X152744819Y-62857142D01*
X152744819Y-62857142D02*
X152792438Y-62761904D01*
X152792438Y-62761904D02*
X152840057Y-62714285D01*
X152840057Y-62714285D02*
X152935295Y-62666666D01*
X152935295Y-62666666D02*
X153078152Y-62666666D01*
X153078152Y-62666666D02*
X153173390Y-62714285D01*
X153173390Y-62714285D02*
X153221009Y-62761904D01*
X153221009Y-62761904D02*
X153268628Y-62857142D01*
X153268628Y-62857142D02*
X153268628Y-63238094D01*
X152744819Y-62333332D02*
X152744819Y-61714285D01*
X152744819Y-61714285D02*
X153125771Y-62047618D01*
X153125771Y-62047618D02*
X153125771Y-61904761D01*
X153125771Y-61904761D02*
X153173390Y-61809523D01*
X153173390Y-61809523D02*
X153221009Y-61761904D01*
X153221009Y-61761904D02*
X153316247Y-61714285D01*
X153316247Y-61714285D02*
X153554342Y-61714285D01*
X153554342Y-61714285D02*
X153649580Y-61761904D01*
X153649580Y-61761904D02*
X153697200Y-61809523D01*
X153697200Y-61809523D02*
X153744819Y-61904761D01*
X153744819Y-61904761D02*
X153744819Y-62190475D01*
X153744819Y-62190475D02*
X153697200Y-62285713D01*
X153697200Y-62285713D02*
X153649580Y-62333332D01*
X122639166Y-67961009D02*
X122305833Y-67961009D01*
X122305833Y-68484819D02*
X122305833Y-67484819D01*
X122305833Y-67484819D02*
X122782023Y-67484819D01*
X123115357Y-67580057D02*
X123162976Y-67532438D01*
X123162976Y-67532438D02*
X123258214Y-67484819D01*
X123258214Y-67484819D02*
X123496309Y-67484819D01*
X123496309Y-67484819D02*
X123591547Y-67532438D01*
X123591547Y-67532438D02*
X123639166Y-67580057D01*
X123639166Y-67580057D02*
X123686785Y-67675295D01*
X123686785Y-67675295D02*
X123686785Y-67770533D01*
X123686785Y-67770533D02*
X123639166Y-67913390D01*
X123639166Y-67913390D02*
X123067738Y-68484819D01*
X123067738Y-68484819D02*
X123686785Y-68484819D01*
X177038095Y-16974819D02*
X177038095Y-15974819D01*
X177038095Y-16451009D02*
X177609523Y-16451009D01*
X177609523Y-16974819D02*
X177609523Y-15974819D01*
X177990476Y-15974819D02*
X178657142Y-15974819D01*
X178657142Y-15974819D02*
X178228571Y-16974819D01*
X114021666Y-72262319D02*
X114021666Y-72976604D01*
X114021666Y-72976604D02*
X113974047Y-73119461D01*
X113974047Y-73119461D02*
X113878809Y-73214700D01*
X113878809Y-73214700D02*
X113735952Y-73262319D01*
X113735952Y-73262319D02*
X113640714Y-73262319D01*
X114926428Y-72595652D02*
X114926428Y-73262319D01*
X114688333Y-72214700D02*
X114450238Y-72928985D01*
X114450238Y-72928985D02*
X115069285Y-72928985D01*
X68476905Y-62614819D02*
X68476905Y-61614819D01*
X68476905Y-61614819D02*
X68715000Y-61614819D01*
X68715000Y-61614819D02*
X68857857Y-61662438D01*
X68857857Y-61662438D02*
X68953095Y-61757676D01*
X68953095Y-61757676D02*
X69000714Y-61852914D01*
X69000714Y-61852914D02*
X69048333Y-62043390D01*
X69048333Y-62043390D02*
X69048333Y-62186247D01*
X69048333Y-62186247D02*
X69000714Y-62376723D01*
X69000714Y-62376723D02*
X68953095Y-62471961D01*
X68953095Y-62471961D02*
X68857857Y-62567200D01*
X68857857Y-62567200D02*
X68715000Y-62614819D01*
X68715000Y-62614819D02*
X68476905Y-62614819D01*
X69429286Y-61710057D02*
X69476905Y-61662438D01*
X69476905Y-61662438D02*
X69572143Y-61614819D01*
X69572143Y-61614819D02*
X69810238Y-61614819D01*
X69810238Y-61614819D02*
X69905476Y-61662438D01*
X69905476Y-61662438D02*
X69953095Y-61710057D01*
X69953095Y-61710057D02*
X70000714Y-61805295D01*
X70000714Y-61805295D02*
X70000714Y-61900533D01*
X70000714Y-61900533D02*
X69953095Y-62043390D01*
X69953095Y-62043390D02*
X69381667Y-62614819D01*
X69381667Y-62614819D02*
X70000714Y-62614819D01*
X142949819Y-62761666D02*
X142473628Y-63094999D01*
X142949819Y-63333094D02*
X141949819Y-63333094D01*
X141949819Y-63333094D02*
X141949819Y-62952142D01*
X141949819Y-62952142D02*
X141997438Y-62856904D01*
X141997438Y-62856904D02*
X142045057Y-62809285D01*
X142045057Y-62809285D02*
X142140295Y-62761666D01*
X142140295Y-62761666D02*
X142283152Y-62761666D01*
X142283152Y-62761666D02*
X142378390Y-62809285D01*
X142378390Y-62809285D02*
X142426009Y-62856904D01*
X142426009Y-62856904D02*
X142473628Y-62952142D01*
X142473628Y-62952142D02*
X142473628Y-63333094D01*
X141949819Y-61856904D02*
X141949819Y-62333094D01*
X141949819Y-62333094D02*
X142426009Y-62380713D01*
X142426009Y-62380713D02*
X142378390Y-62333094D01*
X142378390Y-62333094D02*
X142330771Y-62237856D01*
X142330771Y-62237856D02*
X142330771Y-61999761D01*
X142330771Y-61999761D02*
X142378390Y-61904523D01*
X142378390Y-61904523D02*
X142426009Y-61856904D01*
X142426009Y-61856904D02*
X142521247Y-61809285D01*
X142521247Y-61809285D02*
X142759342Y-61809285D01*
X142759342Y-61809285D02*
X142854580Y-61856904D01*
X142854580Y-61856904D02*
X142902200Y-61904523D01*
X142902200Y-61904523D02*
X142949819Y-61999761D01*
X142949819Y-61999761D02*
X142949819Y-62237856D01*
X142949819Y-62237856D02*
X142902200Y-62333094D01*
X142902200Y-62333094D02*
X142854580Y-62380713D01*
X162393333Y-28244819D02*
X162060000Y-27768628D01*
X161821905Y-28244819D02*
X161821905Y-27244819D01*
X161821905Y-27244819D02*
X162202857Y-27244819D01*
X162202857Y-27244819D02*
X162298095Y-27292438D01*
X162298095Y-27292438D02*
X162345714Y-27340057D01*
X162345714Y-27340057D02*
X162393333Y-27435295D01*
X162393333Y-27435295D02*
X162393333Y-27578152D01*
X162393333Y-27578152D02*
X162345714Y-27673390D01*
X162345714Y-27673390D02*
X162298095Y-27721009D01*
X162298095Y-27721009D02*
X162202857Y-27768628D01*
X162202857Y-27768628D02*
X161821905Y-27768628D01*
X163345714Y-28244819D02*
X162774286Y-28244819D01*
X163060000Y-28244819D02*
X163060000Y-27244819D01*
X163060000Y-27244819D02*
X162964762Y-27387676D01*
X162964762Y-27387676D02*
X162869524Y-27482914D01*
X162869524Y-27482914D02*
X162774286Y-27530533D01*
X131644819Y-67746666D02*
X131168628Y-68079999D01*
X131644819Y-68318094D02*
X130644819Y-68318094D01*
X130644819Y-68318094D02*
X130644819Y-67937142D01*
X130644819Y-67937142D02*
X130692438Y-67841904D01*
X130692438Y-67841904D02*
X130740057Y-67794285D01*
X130740057Y-67794285D02*
X130835295Y-67746666D01*
X130835295Y-67746666D02*
X130978152Y-67746666D01*
X130978152Y-67746666D02*
X131073390Y-67794285D01*
X131073390Y-67794285D02*
X131121009Y-67841904D01*
X131121009Y-67841904D02*
X131168628Y-67937142D01*
X131168628Y-67937142D02*
X131168628Y-68318094D01*
X131073390Y-67175237D02*
X131025771Y-67270475D01*
X131025771Y-67270475D02*
X130978152Y-67318094D01*
X130978152Y-67318094D02*
X130882914Y-67365713D01*
X130882914Y-67365713D02*
X130835295Y-67365713D01*
X130835295Y-67365713D02*
X130740057Y-67318094D01*
X130740057Y-67318094D02*
X130692438Y-67270475D01*
X130692438Y-67270475D02*
X130644819Y-67175237D01*
X130644819Y-67175237D02*
X130644819Y-66984761D01*
X130644819Y-66984761D02*
X130692438Y-66889523D01*
X130692438Y-66889523D02*
X130740057Y-66841904D01*
X130740057Y-66841904D02*
X130835295Y-66794285D01*
X130835295Y-66794285D02*
X130882914Y-66794285D01*
X130882914Y-66794285D02*
X130978152Y-66841904D01*
X130978152Y-66841904D02*
X131025771Y-66889523D01*
X131025771Y-66889523D02*
X131073390Y-66984761D01*
X131073390Y-66984761D02*
X131073390Y-67175237D01*
X131073390Y-67175237D02*
X131121009Y-67270475D01*
X131121009Y-67270475D02*
X131168628Y-67318094D01*
X131168628Y-67318094D02*
X131263866Y-67365713D01*
X131263866Y-67365713D02*
X131454342Y-67365713D01*
X131454342Y-67365713D02*
X131549580Y-67318094D01*
X131549580Y-67318094D02*
X131597200Y-67270475D01*
X131597200Y-67270475D02*
X131644819Y-67175237D01*
X131644819Y-67175237D02*
X131644819Y-66984761D01*
X131644819Y-66984761D02*
X131597200Y-66889523D01*
X131597200Y-66889523D02*
X131549580Y-66841904D01*
X131549580Y-66841904D02*
X131454342Y-66794285D01*
X131454342Y-66794285D02*
X131263866Y-66794285D01*
X131263866Y-66794285D02*
X131168628Y-66841904D01*
X131168628Y-66841904D02*
X131121009Y-66889523D01*
X131121009Y-66889523D02*
X131073390Y-66984761D01*
X77978095Y-19266819D02*
X77978095Y-20076342D01*
X77978095Y-20076342D02*
X78025714Y-20171580D01*
X78025714Y-20171580D02*
X78073333Y-20219200D01*
X78073333Y-20219200D02*
X78168571Y-20266819D01*
X78168571Y-20266819D02*
X78359047Y-20266819D01*
X78359047Y-20266819D02*
X78454285Y-20219200D01*
X78454285Y-20219200D02*
X78501904Y-20171580D01*
X78501904Y-20171580D02*
X78549523Y-20076342D01*
X78549523Y-20076342D02*
X78549523Y-19266819D01*
X79549523Y-20266819D02*
X78978095Y-20266819D01*
X79263809Y-20266819D02*
X79263809Y-19266819D01*
X79263809Y-19266819D02*
X79168571Y-19409676D01*
X79168571Y-19409676D02*
X79073333Y-19504914D01*
X79073333Y-19504914D02*
X78978095Y-19552533D01*
D10*
X91997884Y-67452419D02*
X91997884Y-68261942D01*
X91997884Y-68261942D02*
X92045503Y-68357180D01*
X92045503Y-68357180D02*
X92093122Y-68404800D01*
X92093122Y-68404800D02*
X92188360Y-68452419D01*
X92188360Y-68452419D02*
X92378836Y-68452419D01*
X92378836Y-68452419D02*
X92474074Y-68404800D01*
X92474074Y-68404800D02*
X92521693Y-68357180D01*
X92521693Y-68357180D02*
X92569312Y-68261942D01*
X92569312Y-68261942D02*
X92569312Y-67452419D01*
X92997884Y-68404800D02*
X93140741Y-68452419D01*
X93140741Y-68452419D02*
X93378836Y-68452419D01*
X93378836Y-68452419D02*
X93474074Y-68404800D01*
X93474074Y-68404800D02*
X93521693Y-68357180D01*
X93521693Y-68357180D02*
X93569312Y-68261942D01*
X93569312Y-68261942D02*
X93569312Y-68166704D01*
X93569312Y-68166704D02*
X93521693Y-68071466D01*
X93521693Y-68071466D02*
X93474074Y-68023847D01*
X93474074Y-68023847D02*
X93378836Y-67976228D01*
X93378836Y-67976228D02*
X93188360Y-67928609D01*
X93188360Y-67928609D02*
X93093122Y-67880990D01*
X93093122Y-67880990D02*
X93045503Y-67833371D01*
X93045503Y-67833371D02*
X92997884Y-67738133D01*
X92997884Y-67738133D02*
X92997884Y-67642895D01*
X92997884Y-67642895D02*
X93045503Y-67547657D01*
X93045503Y-67547657D02*
X93093122Y-67500038D01*
X93093122Y-67500038D02*
X93188360Y-67452419D01*
X93188360Y-67452419D02*
X93426455Y-67452419D01*
X93426455Y-67452419D02*
X93569312Y-67500038D01*
X94331217Y-67928609D02*
X94474074Y-67976228D01*
X94474074Y-67976228D02*
X94521693Y-68023847D01*
X94521693Y-68023847D02*
X94569312Y-68119085D01*
X94569312Y-68119085D02*
X94569312Y-68261942D01*
X94569312Y-68261942D02*
X94521693Y-68357180D01*
X94521693Y-68357180D02*
X94474074Y-68404800D01*
X94474074Y-68404800D02*
X94378836Y-68452419D01*
X94378836Y-68452419D02*
X93997884Y-68452419D01*
X93997884Y-68452419D02*
X93997884Y-67452419D01*
X93997884Y-67452419D02*
X94331217Y-67452419D01*
X94331217Y-67452419D02*
X94426455Y-67500038D01*
X94426455Y-67500038D02*
X94474074Y-67547657D01*
X94474074Y-67547657D02*
X94521693Y-67642895D01*
X94521693Y-67642895D02*
X94521693Y-67738133D01*
X94521693Y-67738133D02*
X94474074Y-67833371D01*
X94474074Y-67833371D02*
X94426455Y-67880990D01*
X94426455Y-67880990D02*
X94331217Y-67928609D01*
X94331217Y-67928609D02*
X93997884Y-67928609D01*
X94997884Y-68071466D02*
X95759789Y-68071466D01*
X96807407Y-68357180D02*
X96759788Y-68404800D01*
X96759788Y-68404800D02*
X96616931Y-68452419D01*
X96616931Y-68452419D02*
X96521693Y-68452419D01*
X96521693Y-68452419D02*
X96378836Y-68404800D01*
X96378836Y-68404800D02*
X96283598Y-68309561D01*
X96283598Y-68309561D02*
X96235979Y-68214323D01*
X96235979Y-68214323D02*
X96188360Y-68023847D01*
X96188360Y-68023847D02*
X96188360Y-67880990D01*
X96188360Y-67880990D02*
X96235979Y-67690514D01*
X96235979Y-67690514D02*
X96283598Y-67595276D01*
X96283598Y-67595276D02*
X96378836Y-67500038D01*
X96378836Y-67500038D02*
X96521693Y-67452419D01*
X96521693Y-67452419D02*
X96616931Y-67452419D01*
X96616931Y-67452419D02*
X96759788Y-67500038D01*
X96759788Y-67500038D02*
X96807407Y-67547657D01*
D14*
X120824666Y-73114819D02*
X120824666Y-73829104D01*
X120824666Y-73829104D02*
X120777047Y-73971961D01*
X120777047Y-73971961D02*
X120681809Y-74067200D01*
X120681809Y-74067200D02*
X120538952Y-74114819D01*
X120538952Y-74114819D02*
X120443714Y-74114819D01*
X121777047Y-73114819D02*
X121300857Y-73114819D01*
X121300857Y-73114819D02*
X121253238Y-73591009D01*
X121253238Y-73591009D02*
X121300857Y-73543390D01*
X121300857Y-73543390D02*
X121396095Y-73495771D01*
X121396095Y-73495771D02*
X121634190Y-73495771D01*
X121634190Y-73495771D02*
X121729428Y-73543390D01*
X121729428Y-73543390D02*
X121777047Y-73591009D01*
X121777047Y-73591009D02*
X121824666Y-73686247D01*
X121824666Y-73686247D02*
X121824666Y-73924342D01*
X121824666Y-73924342D02*
X121777047Y-74019580D01*
X121777047Y-74019580D02*
X121729428Y-74067200D01*
X121729428Y-74067200D02*
X121634190Y-74114819D01*
X121634190Y-74114819D02*
X121396095Y-74114819D01*
X121396095Y-74114819D02*
X121300857Y-74067200D01*
X121300857Y-74067200D02*
X121253238Y-74019580D01*
X93218095Y-78834819D02*
X93218095Y-77834819D01*
X93218095Y-78311009D02*
X93789523Y-78311009D01*
X93789523Y-78834819D02*
X93789523Y-77834819D01*
X94218095Y-77930057D02*
X94265714Y-77882438D01*
X94265714Y-77882438D02*
X94360952Y-77834819D01*
X94360952Y-77834819D02*
X94599047Y-77834819D01*
X94599047Y-77834819D02*
X94694285Y-77882438D01*
X94694285Y-77882438D02*
X94741904Y-77930057D01*
X94741904Y-77930057D02*
X94789523Y-78025295D01*
X94789523Y-78025295D02*
X94789523Y-78120533D01*
X94789523Y-78120533D02*
X94741904Y-78263390D01*
X94741904Y-78263390D02*
X94170476Y-78834819D01*
X94170476Y-78834819D02*
X94789523Y-78834819D01*
X144344819Y-67746666D02*
X143868628Y-68079999D01*
X144344819Y-68318094D02*
X143344819Y-68318094D01*
X143344819Y-68318094D02*
X143344819Y-67937142D01*
X143344819Y-67937142D02*
X143392438Y-67841904D01*
X143392438Y-67841904D02*
X143440057Y-67794285D01*
X143440057Y-67794285D02*
X143535295Y-67746666D01*
X143535295Y-67746666D02*
X143678152Y-67746666D01*
X143678152Y-67746666D02*
X143773390Y-67794285D01*
X143773390Y-67794285D02*
X143821009Y-67841904D01*
X143821009Y-67841904D02*
X143868628Y-67937142D01*
X143868628Y-67937142D02*
X143868628Y-68318094D01*
X143344819Y-66889523D02*
X143344819Y-67079999D01*
X143344819Y-67079999D02*
X143392438Y-67175237D01*
X143392438Y-67175237D02*
X143440057Y-67222856D01*
X143440057Y-67222856D02*
X143582914Y-67318094D01*
X143582914Y-67318094D02*
X143773390Y-67365713D01*
X143773390Y-67365713D02*
X144154342Y-67365713D01*
X144154342Y-67365713D02*
X144249580Y-67318094D01*
X144249580Y-67318094D02*
X144297200Y-67270475D01*
X144297200Y-67270475D02*
X144344819Y-67175237D01*
X144344819Y-67175237D02*
X144344819Y-66984761D01*
X144344819Y-66984761D02*
X144297200Y-66889523D01*
X144297200Y-66889523D02*
X144249580Y-66841904D01*
X144249580Y-66841904D02*
X144154342Y-66794285D01*
X144154342Y-66794285D02*
X143916247Y-66794285D01*
X143916247Y-66794285D02*
X143821009Y-66841904D01*
X143821009Y-66841904D02*
X143773390Y-66889523D01*
X143773390Y-66889523D02*
X143725771Y-66984761D01*
X143725771Y-66984761D02*
X143725771Y-67175237D01*
X143725771Y-67175237D02*
X143773390Y-67270475D01*
X143773390Y-67270475D02*
X143821009Y-67318094D01*
X143821009Y-67318094D02*
X143916247Y-67365713D01*
X77136666Y-66733009D02*
X76803333Y-66733009D01*
X76803333Y-67256819D02*
X76803333Y-66256819D01*
X76803333Y-66256819D02*
X77279523Y-66256819D01*
X78184285Y-67256819D02*
X77612857Y-67256819D01*
X77898571Y-67256819D02*
X77898571Y-66256819D01*
X77898571Y-66256819D02*
X77803333Y-66399676D01*
X77803333Y-66399676D02*
X77708095Y-66494914D01*
X77708095Y-66494914D02*
X77612857Y-66542533D01*
X62738095Y-77934819D02*
X62738095Y-76934819D01*
X62738095Y-77411009D02*
X63309523Y-77411009D01*
X63309523Y-77934819D02*
X63309523Y-76934819D01*
X64214285Y-76934819D02*
X64023809Y-76934819D01*
X64023809Y-76934819D02*
X63928571Y-76982438D01*
X63928571Y-76982438D02*
X63880952Y-77030057D01*
X63880952Y-77030057D02*
X63785714Y-77172914D01*
X63785714Y-77172914D02*
X63738095Y-77363390D01*
X63738095Y-77363390D02*
X63738095Y-77744342D01*
X63738095Y-77744342D02*
X63785714Y-77839580D01*
X63785714Y-77839580D02*
X63833333Y-77887200D01*
X63833333Y-77887200D02*
X63928571Y-77934819D01*
X63928571Y-77934819D02*
X64119047Y-77934819D01*
X64119047Y-77934819D02*
X64214285Y-77887200D01*
X64214285Y-77887200D02*
X64261904Y-77839580D01*
X64261904Y-77839580D02*
X64309523Y-77744342D01*
X64309523Y-77744342D02*
X64309523Y-77506247D01*
X64309523Y-77506247D02*
X64261904Y-77411009D01*
X64261904Y-77411009D02*
X64214285Y-77363390D01*
X64214285Y-77363390D02*
X64119047Y-77315771D01*
X64119047Y-77315771D02*
X63928571Y-77315771D01*
X63928571Y-77315771D02*
X63833333Y-77363390D01*
X63833333Y-77363390D02*
X63785714Y-77411009D01*
X63785714Y-77411009D02*
X63738095Y-77506247D01*
X139620666Y-72352819D02*
X139620666Y-73067104D01*
X139620666Y-73067104D02*
X139573047Y-73209961D01*
X139573047Y-73209961D02*
X139477809Y-73305200D01*
X139477809Y-73305200D02*
X139334952Y-73352819D01*
X139334952Y-73352819D02*
X139239714Y-73352819D01*
X140049238Y-72448057D02*
X140096857Y-72400438D01*
X140096857Y-72400438D02*
X140192095Y-72352819D01*
X140192095Y-72352819D02*
X140430190Y-72352819D01*
X140430190Y-72352819D02*
X140525428Y-72400438D01*
X140525428Y-72400438D02*
X140573047Y-72448057D01*
X140573047Y-72448057D02*
X140620666Y-72543295D01*
X140620666Y-72543295D02*
X140620666Y-72638533D01*
X140620666Y-72638533D02*
X140573047Y-72781390D01*
X140573047Y-72781390D02*
X140001619Y-73352819D01*
X140001619Y-73352819D02*
X140620666Y-73352819D01*
X150487142Y-41094819D02*
X150153809Y-40618628D01*
X149915714Y-41094819D02*
X149915714Y-40094819D01*
X149915714Y-40094819D02*
X150296666Y-40094819D01*
X150296666Y-40094819D02*
X150391904Y-40142438D01*
X150391904Y-40142438D02*
X150439523Y-40190057D01*
X150439523Y-40190057D02*
X150487142Y-40285295D01*
X150487142Y-40285295D02*
X150487142Y-40428152D01*
X150487142Y-40428152D02*
X150439523Y-40523390D01*
X150439523Y-40523390D02*
X150391904Y-40571009D01*
X150391904Y-40571009D02*
X150296666Y-40618628D01*
X150296666Y-40618628D02*
X149915714Y-40618628D01*
X151439523Y-41094819D02*
X150868095Y-41094819D01*
X151153809Y-41094819D02*
X151153809Y-40094819D01*
X151153809Y-40094819D02*
X151058571Y-40237676D01*
X151058571Y-40237676D02*
X150963333Y-40332914D01*
X150963333Y-40332914D02*
X150868095Y-40380533D01*
X151772857Y-40094819D02*
X152439523Y-40094819D01*
X152439523Y-40094819D02*
X152010952Y-41094819D01*
X177038095Y-77934819D02*
X177038095Y-76934819D01*
X177038095Y-77411009D02*
X177609523Y-77411009D01*
X177609523Y-77934819D02*
X177609523Y-76934819D01*
X178228571Y-77363390D02*
X178133333Y-77315771D01*
X178133333Y-77315771D02*
X178085714Y-77268152D01*
X178085714Y-77268152D02*
X178038095Y-77172914D01*
X178038095Y-77172914D02*
X178038095Y-77125295D01*
X178038095Y-77125295D02*
X178085714Y-77030057D01*
X178085714Y-77030057D02*
X178133333Y-76982438D01*
X178133333Y-76982438D02*
X178228571Y-76934819D01*
X178228571Y-76934819D02*
X178419047Y-76934819D01*
X178419047Y-76934819D02*
X178514285Y-76982438D01*
X178514285Y-76982438D02*
X178561904Y-77030057D01*
X178561904Y-77030057D02*
X178609523Y-77125295D01*
X178609523Y-77125295D02*
X178609523Y-77172914D01*
X178609523Y-77172914D02*
X178561904Y-77268152D01*
X178561904Y-77268152D02*
X178514285Y-77315771D01*
X178514285Y-77315771D02*
X178419047Y-77363390D01*
X178419047Y-77363390D02*
X178228571Y-77363390D01*
X178228571Y-77363390D02*
X178133333Y-77411009D01*
X178133333Y-77411009D02*
X178085714Y-77458628D01*
X178085714Y-77458628D02*
X178038095Y-77553866D01*
X178038095Y-77553866D02*
X178038095Y-77744342D01*
X178038095Y-77744342D02*
X178085714Y-77839580D01*
X178085714Y-77839580D02*
X178133333Y-77887200D01*
X178133333Y-77887200D02*
X178228571Y-77934819D01*
X178228571Y-77934819D02*
X178419047Y-77934819D01*
X178419047Y-77934819D02*
X178514285Y-77887200D01*
X178514285Y-77887200D02*
X178561904Y-77839580D01*
X178561904Y-77839580D02*
X178609523Y-77744342D01*
X178609523Y-77744342D02*
X178609523Y-77553866D01*
X178609523Y-77553866D02*
X178561904Y-77458628D01*
X178561904Y-77458628D02*
X178514285Y-77411009D01*
X178514285Y-77411009D02*
X178419047Y-77363390D01*
X68476905Y-67694819D02*
X68476905Y-66694819D01*
X68476905Y-66694819D02*
X68715000Y-66694819D01*
X68715000Y-66694819D02*
X68857857Y-66742438D01*
X68857857Y-66742438D02*
X68953095Y-66837676D01*
X68953095Y-66837676D02*
X69000714Y-66932914D01*
X69000714Y-66932914D02*
X69048333Y-67123390D01*
X69048333Y-67123390D02*
X69048333Y-67266247D01*
X69048333Y-67266247D02*
X69000714Y-67456723D01*
X69000714Y-67456723D02*
X68953095Y-67551961D01*
X68953095Y-67551961D02*
X68857857Y-67647200D01*
X68857857Y-67647200D02*
X68715000Y-67694819D01*
X68715000Y-67694819D02*
X68476905Y-67694819D01*
X70000714Y-67694819D02*
X69429286Y-67694819D01*
X69715000Y-67694819D02*
X69715000Y-66694819D01*
X69715000Y-66694819D02*
X69619762Y-66837676D01*
X69619762Y-66837676D02*
X69524524Y-66932914D01*
X69524524Y-66932914D02*
X69429286Y-66980533D01*
D15*
%TO.C,R14*%
X140927064Y-39905000D02*
X140472936Y-39905000D01*
X140927064Y-41375000D02*
X140472936Y-41375000D01*
%TO.C,Q4*%
X132552000Y-63500000D02*
X132552000Y-62850000D01*
X132552000Y-63500000D02*
X132552000Y-64150000D01*
X135672000Y-63500000D02*
X135672000Y-62850000D01*
X135672000Y-63500000D02*
X135672000Y-64150000D01*
X135952000Y-62577500D02*
X135622000Y-62337500D01*
X135952000Y-62097500D01*
X135952000Y-62577500D01*
G36*
X135952000Y-62577500D02*
G01*
X135622000Y-62337500D01*
X135952000Y-62097500D01*
X135952000Y-62577500D01*
G37*
%TO.C,R15*%
X140927064Y-43715000D02*
X140472936Y-43715000D01*
X140927064Y-45185000D02*
X140472936Y-45185000D01*
%TO.C,J3*%
X162505000Y-74497500D02*
X162505000Y-83917500D01*
X162505000Y-74497500D02*
X164105000Y-74497500D01*
X162505000Y-80607500D02*
X172885000Y-80607500D01*
X162505000Y-83917500D02*
X172885000Y-83917500D01*
X164855000Y-73207500D02*
X165455000Y-73207500D01*
X165155000Y-73807500D02*
X164855000Y-73207500D01*
X165455000Y-73207500D02*
X165155000Y-73807500D01*
X166205000Y-74497500D02*
X169185000Y-74497500D01*
X172885000Y-74497500D02*
X171285000Y-74497500D01*
X172885000Y-83917500D02*
X172885000Y-74497500D01*
%TO.C,R20*%
X116612936Y-19995000D02*
X117067064Y-19995000D01*
X116612936Y-21465000D02*
X117067064Y-21465000D01*
%TO.C,R2*%
X157250000Y-20320000D02*
X157940000Y-20320000D01*
X157940000Y-18600000D02*
X157940000Y-22040000D01*
X157940000Y-22040000D02*
X167180000Y-22040000D01*
X167180000Y-18600000D02*
X157940000Y-18600000D01*
X167180000Y-22040000D02*
X167180000Y-18600000D01*
X167870000Y-20320000D02*
X167180000Y-20320000D01*
%TO.C,R7*%
X164365000Y-68082936D02*
X164365000Y-68537064D01*
X165835000Y-68082936D02*
X165835000Y-68537064D01*
%TO.C,U2*%
X61215000Y-56640000D02*
X77214999Y-56640000D01*
X61215001Y-24640000D02*
X61215000Y-56640000D01*
X76855000Y-35306667D02*
X77215000Y-35306667D01*
X76855000Y-45973333D02*
X76855000Y-35306667D01*
X77214999Y-56640000D02*
X77215000Y-45973333D01*
X77215000Y-24640000D02*
X61215001Y-24640000D01*
X77215000Y-35306667D02*
X77215000Y-24640000D01*
X77215000Y-45973333D02*
X76855000Y-45973333D01*
%TO.C,Q2*%
X149860000Y-56540000D02*
X149210000Y-56540000D01*
X149860000Y-56540000D02*
X150510000Y-56540000D01*
X149860000Y-59660000D02*
X149210000Y-59660000D01*
X149860000Y-59660000D02*
X150510000Y-59660000D01*
X148697500Y-56590000D02*
X148457500Y-56260000D01*
X148937500Y-56260000D01*
X148697500Y-56590000D01*
G36*
X148697500Y-56590000D02*
G01*
X148457500Y-56260000D01*
X148937500Y-56260000D01*
X148697500Y-56590000D01*
G37*
%TO.C,R13*%
X140927064Y-36095000D02*
X140472936Y-36095000D01*
X140927064Y-37565000D02*
X140472936Y-37565000D01*
%TO.C,R12*%
X123687064Y-36095000D02*
X123232936Y-36095000D01*
X123687064Y-37565000D02*
X123232936Y-37565000D01*
%TO.C,J1*%
X68470000Y-74890000D02*
X68470000Y-84310000D01*
X68470000Y-74890000D02*
X70070000Y-74890000D01*
X68470000Y-81000000D02*
X83930000Y-81000000D01*
X68470000Y-84310000D02*
X83930000Y-84310000D01*
X70820000Y-73600000D02*
X71420000Y-73600000D01*
X71120000Y-74200000D02*
X70820000Y-73600000D01*
X71420000Y-73600000D02*
X71120000Y-74200000D01*
X72170000Y-74890000D02*
X75150000Y-74890000D01*
X77250000Y-74890000D02*
X80230000Y-74890000D01*
X83930000Y-74890000D02*
X82330000Y-74890000D01*
X83930000Y-84310000D02*
X83930000Y-74890000D01*
%TO.C,R18*%
X147277064Y-43715000D02*
X146822936Y-43715000D01*
X147277064Y-45185000D02*
X146822936Y-45185000D01*
%TO.C,U4*%
X130490000Y-24670000D02*
X131080000Y-24670000D01*
X130490000Y-26670000D02*
X133730000Y-26670000D01*
X130490000Y-43910000D02*
X130490000Y-24670000D01*
X130490000Y-43910000D02*
X131380000Y-43910000D01*
X133730000Y-24670000D02*
X133080000Y-24670000D01*
X133730000Y-43910000D02*
X132780000Y-43910000D01*
X133730000Y-43910000D02*
X133730000Y-24670000D01*
%TO.C,R9*%
X111025000Y-68352936D02*
X111025000Y-68807064D01*
X112495000Y-68352936D02*
X112495000Y-68807064D01*
%TO.C,R19*%
X116612936Y-17045000D02*
X117067064Y-17045000D01*
X116612936Y-18515000D02*
X117067064Y-18515000D01*
%TO.C,R11*%
X123200936Y-40667000D02*
X123655064Y-40667000D01*
X123200936Y-42137000D02*
X123655064Y-42137000D01*
%TO.C,R10*%
X116105000Y-68807064D02*
X116105000Y-68352936D01*
X117575000Y-68807064D02*
X117575000Y-68352936D01*
%TO.C,BZ1*%
X152160000Y-22860000D02*
G75*
G02*
X139960000Y-22860000I-6100000J0D01*
G01*
X139960000Y-22860000D02*
G75*
G02*
X152160000Y-22860000I6100000J0D01*
G01*
%TO.C,R4*%
X157155000Y-62727064D02*
X157155000Y-62272936D01*
X158625000Y-62727064D02*
X158625000Y-62272936D01*
%TO.C,R16*%
X147277064Y-36095000D02*
X146822936Y-36095000D01*
X147277064Y-37565000D02*
X146822936Y-37565000D01*
%TO.C,U3*%
X115440000Y-23960000D02*
X115440000Y-49700000D01*
X115440000Y-49700000D02*
X118240000Y-49700000D01*
X118240000Y-23960000D02*
X115440000Y-23960000D01*
X118240000Y-26670000D02*
X115440000Y-26670000D01*
X118240000Y-49700000D02*
X118240000Y-23960000D01*
%TO.C,Q1*%
X130477500Y-17810000D02*
X129827500Y-17810000D01*
X130477500Y-17810000D02*
X131127500Y-17810000D01*
X130477500Y-20930000D02*
X129827500Y-20930000D01*
X130477500Y-20930000D02*
X131127500Y-20930000D01*
X129315000Y-17860000D02*
X129075000Y-17530000D01*
X129555000Y-17530000D01*
X129315000Y-17860000D01*
G36*
X129315000Y-17860000D02*
G01*
X129075000Y-17530000D01*
X129555000Y-17530000D01*
X129315000Y-17860000D01*
G37*
%TO.C,Q3*%
X149860000Y-63210000D02*
X149210000Y-63210000D01*
X149860000Y-63210000D02*
X150510000Y-63210000D01*
X149860000Y-66330000D02*
X149210000Y-66330000D01*
X149860000Y-66330000D02*
X150510000Y-66330000D01*
X148697500Y-63260000D02*
X148457500Y-62930000D01*
X148937500Y-62930000D01*
X148697500Y-63260000D01*
G36*
X148697500Y-63260000D02*
G01*
X148457500Y-62930000D01*
X148937500Y-62930000D01*
X148697500Y-63260000D01*
G37*
%TO.C,U5*%
X158620000Y-35898000D02*
X158620000Y-51478000D01*
X158620000Y-51478000D02*
X161420000Y-51478000D01*
X161420000Y-35898000D02*
X158620000Y-35898000D01*
X161420000Y-38608000D02*
X158620000Y-38608000D01*
X161420000Y-51478000D02*
X161420000Y-35898000D01*
%TO.C,R3*%
X154205000Y-62727064D02*
X154205000Y-62272936D01*
X155675000Y-62727064D02*
X155675000Y-62272936D01*
%TO.C,F2*%
X122370436Y-68940000D02*
X123574564Y-68940000D01*
X122370436Y-70760000D02*
X123574564Y-70760000D01*
%TO.C,J4*%
X109165000Y-74497500D02*
X109165000Y-83917500D01*
X109165000Y-74497500D02*
X110765000Y-74497500D01*
X109165000Y-80607500D02*
X119545000Y-80607500D01*
X109165000Y-83917500D02*
X119545000Y-83917500D01*
X111515000Y-73207500D02*
X112115000Y-73207500D01*
X111815000Y-73807500D02*
X111515000Y-73207500D01*
X112115000Y-73207500D02*
X111815000Y-73807500D01*
X112865000Y-74497500D02*
X115845000Y-74497500D01*
X119545000Y-74497500D02*
X117945000Y-74497500D01*
X119545000Y-83917500D02*
X119545000Y-74497500D01*
%TO.C,D2*%
X64005000Y-59690000D02*
X66495000Y-59690000D01*
X66495000Y-58220000D02*
X66495000Y-61160000D01*
X66495000Y-61160000D02*
X71935000Y-61160000D01*
X70915000Y-61160000D02*
X70915000Y-58220000D01*
X71035000Y-61160000D02*
X71035000Y-58220000D01*
X71155000Y-61160000D02*
X71155000Y-58220000D01*
X71935000Y-58220000D02*
X66495000Y-58220000D01*
X71935000Y-61160000D02*
X71935000Y-58220000D01*
X74425000Y-59690000D02*
X71935000Y-59690000D01*
%TO.C,R5*%
X143410000Y-62822064D02*
X143410000Y-62367936D01*
X144880000Y-62822064D02*
X144880000Y-62367936D01*
%TO.C,R1*%
X157250000Y-25070000D02*
X157940000Y-25070000D01*
X157940000Y-23350000D02*
X157940000Y-26790000D01*
X157940000Y-26790000D02*
X167180000Y-26790000D01*
X167180000Y-23350000D02*
X157940000Y-23350000D01*
X167180000Y-26790000D02*
X167180000Y-23350000D01*
X167870000Y-25070000D02*
X167180000Y-25070000D01*
%TO.C,R8*%
X128805000Y-67352936D02*
X128805000Y-67807064D01*
X130275000Y-67352936D02*
X130275000Y-67807064D01*
%TO.C,U1*%
X80034000Y-71560000D02*
X108433999Y-71560000D01*
X80034001Y-14800000D02*
X80034000Y-71560000D01*
X89500667Y-14800000D02*
X80034001Y-14800000D01*
X89500667Y-15160000D02*
X89500667Y-14800000D01*
X98967333Y-14800000D02*
X98967333Y-15160000D01*
X98967333Y-15160000D02*
X89500667Y-15160000D01*
X108433999Y-71560000D02*
X108434000Y-14800000D01*
X108434000Y-14800000D02*
X98967333Y-14800000D01*
D10*
X99314000Y-63500000D02*
X89154000Y-63500000D01*
X89154000Y-71120000D01*
X99314000Y-71120000D01*
X99314000Y-63500000D01*
D15*
%TO.C,J5*%
X121865000Y-74497500D02*
X121865000Y-83917500D01*
X121865000Y-74497500D02*
X123465000Y-74497500D01*
X121865000Y-80607500D02*
X137325000Y-80607500D01*
X121865000Y-83917500D02*
X137325000Y-83917500D01*
X124215000Y-73207500D02*
X124815000Y-73207500D01*
X124515000Y-73807500D02*
X124215000Y-73207500D01*
X124815000Y-73207500D02*
X124515000Y-73807500D01*
X125565000Y-74497500D02*
X128545000Y-74497500D01*
X130645000Y-74497500D02*
X133625000Y-74497500D01*
X137325000Y-74497500D02*
X135725000Y-74497500D01*
X137325000Y-83917500D02*
X137325000Y-74497500D01*
%TO.C,R6*%
X141505000Y-67352936D02*
X141505000Y-67807064D01*
X142975000Y-67352936D02*
X142975000Y-67807064D01*
%TO.C,F1*%
X77219564Y-67670000D02*
X76015436Y-67670000D01*
X77219564Y-69490000D02*
X76015436Y-69490000D01*
%TO.C,J2*%
X139645000Y-74497500D02*
X139645000Y-83917500D01*
X139645000Y-74497500D02*
X141245000Y-74497500D01*
X139645000Y-80607500D02*
X160185000Y-80607500D01*
X139645000Y-83917500D02*
X160185000Y-83917500D01*
X141995000Y-73207500D02*
X142595000Y-73207500D01*
X142295000Y-73807500D02*
X141995000Y-73207500D01*
X142595000Y-73207500D02*
X142295000Y-73807500D01*
X143345000Y-74497500D02*
X146325000Y-74497500D01*
X148425000Y-74497500D02*
X151405000Y-74497500D01*
X153505000Y-74497500D02*
X156485000Y-74497500D01*
X160185000Y-74497500D02*
X158585000Y-74497500D01*
X160185000Y-83917500D02*
X160185000Y-74497500D01*
%TO.C,R17*%
X147277064Y-39905000D02*
X146822936Y-39905000D01*
X147277064Y-41375000D02*
X146822936Y-41375000D01*
%TO.C,D1*%
X64005000Y-64770000D02*
X66495000Y-64770000D01*
X66495000Y-63300000D02*
X66495000Y-66240000D01*
X66495000Y-66240000D02*
X71935000Y-66240000D01*
X70915000Y-66240000D02*
X70915000Y-63300000D01*
X71035000Y-66240000D02*
X71035000Y-63300000D01*
X71155000Y-66240000D02*
X71155000Y-63300000D01*
X71935000Y-63300000D02*
X66495000Y-63300000D01*
X71935000Y-66240000D02*
X71935000Y-63300000D01*
X74425000Y-64770000D02*
X71935000Y-64770000D01*
%TD*%
M02*
