%TF.GenerationSoftware,KiCad,Pcbnew,8.0.8+1*%
%TF.CreationDate,2025-02-28T11:26:12+11:00*%
%TF.ProjectId,mcomms,6d636f6d-6d73-42e6-9b69-6361645f7063,rev?*%
%TF.SameCoordinates,Original*%
%TF.FileFunction,Drillmap*%
%TF.FilePolarity,Positive*%
%FSLAX45Y45*%
G04 Gerber Fmt 4.5, Leading zero omitted, Abs format (unit mm)*
G04 Created by KiCad (PCBNEW 8.0.8+1) date 2025-02-28 11:26:12*
%MOMM*%
%LPD*%
G01*
G04 APERTURE LIST*
%ADD10C,0.050000*%
%ADD11C,0.200000*%
G04 APERTURE END LIST*
D10*
X5969000Y-8509000D02*
X5969000Y-1397000D01*
X18161000Y-1397000D02*
X18161000Y-8509000D01*
X5969000Y-1397000D02*
X18161000Y-1397000D01*
X18161000Y-8509000D02*
X5969000Y-8509000D01*
D11*
X6227277Y-8822984D02*
X6227277Y-8622984D01*
X6227277Y-8622984D02*
X6274896Y-8622984D01*
X6274896Y-8622984D02*
X6303467Y-8632508D01*
X6303467Y-8632508D02*
X6322515Y-8651555D01*
X6322515Y-8651555D02*
X6332039Y-8670603D01*
X6332039Y-8670603D02*
X6341562Y-8708698D01*
X6341562Y-8708698D02*
X6341562Y-8737270D01*
X6341562Y-8737270D02*
X6332039Y-8775365D01*
X6332039Y-8775365D02*
X6322515Y-8794412D01*
X6322515Y-8794412D02*
X6303467Y-8813460D01*
X6303467Y-8813460D02*
X6274896Y-8822984D01*
X6274896Y-8822984D02*
X6227277Y-8822984D01*
X6427277Y-8822984D02*
X6427277Y-8689650D01*
X6427277Y-8727746D02*
X6436801Y-8708698D01*
X6436801Y-8708698D02*
X6446324Y-8699174D01*
X6446324Y-8699174D02*
X6465372Y-8689650D01*
X6465372Y-8689650D02*
X6484420Y-8689650D01*
X6551086Y-8822984D02*
X6551086Y-8689650D01*
X6551086Y-8622984D02*
X6541562Y-8632508D01*
X6541562Y-8632508D02*
X6551086Y-8642031D01*
X6551086Y-8642031D02*
X6560610Y-8632508D01*
X6560610Y-8632508D02*
X6551086Y-8622984D01*
X6551086Y-8622984D02*
X6551086Y-8642031D01*
X6674896Y-8822984D02*
X6655848Y-8813460D01*
X6655848Y-8813460D02*
X6646324Y-8794412D01*
X6646324Y-8794412D02*
X6646324Y-8622984D01*
X6779658Y-8822984D02*
X6760610Y-8813460D01*
X6760610Y-8813460D02*
X6751086Y-8794412D01*
X6751086Y-8794412D02*
X6751086Y-8622984D01*
X7008229Y-8822984D02*
X7008229Y-8622984D01*
X7008229Y-8622984D02*
X7074896Y-8765841D01*
X7074896Y-8765841D02*
X7141562Y-8622984D01*
X7141562Y-8622984D02*
X7141562Y-8822984D01*
X7322515Y-8822984D02*
X7322515Y-8718222D01*
X7322515Y-8718222D02*
X7312991Y-8699174D01*
X7312991Y-8699174D02*
X7293943Y-8689650D01*
X7293943Y-8689650D02*
X7255848Y-8689650D01*
X7255848Y-8689650D02*
X7236801Y-8699174D01*
X7322515Y-8813460D02*
X7303467Y-8822984D01*
X7303467Y-8822984D02*
X7255848Y-8822984D01*
X7255848Y-8822984D02*
X7236801Y-8813460D01*
X7236801Y-8813460D02*
X7227277Y-8794412D01*
X7227277Y-8794412D02*
X7227277Y-8775365D01*
X7227277Y-8775365D02*
X7236801Y-8756317D01*
X7236801Y-8756317D02*
X7255848Y-8746793D01*
X7255848Y-8746793D02*
X7303467Y-8746793D01*
X7303467Y-8746793D02*
X7322515Y-8737270D01*
X7417753Y-8689650D02*
X7417753Y-8889650D01*
X7417753Y-8699174D02*
X7436801Y-8689650D01*
X7436801Y-8689650D02*
X7474896Y-8689650D01*
X7474896Y-8689650D02*
X7493943Y-8699174D01*
X7493943Y-8699174D02*
X7503467Y-8708698D01*
X7503467Y-8708698D02*
X7512991Y-8727746D01*
X7512991Y-8727746D02*
X7512991Y-8784889D01*
X7512991Y-8784889D02*
X7503467Y-8803936D01*
X7503467Y-8803936D02*
X7493943Y-8813460D01*
X7493943Y-8813460D02*
X7474896Y-8822984D01*
X7474896Y-8822984D02*
X7436801Y-8822984D01*
X7436801Y-8822984D02*
X7417753Y-8813460D01*
X7598705Y-8803936D02*
X7608229Y-8813460D01*
X7608229Y-8813460D02*
X7598705Y-8822984D01*
X7598705Y-8822984D02*
X7589182Y-8813460D01*
X7589182Y-8813460D02*
X7598705Y-8803936D01*
X7598705Y-8803936D02*
X7598705Y-8822984D01*
X7598705Y-8699174D02*
X7608229Y-8708698D01*
X7608229Y-8708698D02*
X7598705Y-8718222D01*
X7598705Y-8718222D02*
X7589182Y-8708698D01*
X7589182Y-8708698D02*
X7598705Y-8699174D01*
X7598705Y-8699174D02*
X7598705Y-8718222D01*
M02*
