M48
; DRILL file {KiCad 8.0.8+1} date 2025-02-28T11:12:47+1100
; FORMAT={-:-/ absolute / inch / decimal}
; #@! TF.CreationDate,2025-02-28T11:12:47+11:00
; #@! TF.GenerationSoftware,Kicad,Pcbnew,8.0.8+1
; #@! TF.FileFunction,Plated,1,2,PTH
FMAT,2
INCH
; #@! TA.AperFunction,Plated,PTH,ViaDrill
T1C0.0300
; #@! TA.AperFunction,Plated,PTH,ComponentDrill
T2C0.0315
; #@! TA.AperFunction,Plated,PTH,ComponentDrill
T3C0.0354
; #@! TA.AperFunction,Plated,PTH,ComponentDrill
T4C0.0374
; #@! TA.AperFunction,Plated,PTH,ComponentDrill
T5C0.0394
; #@! TA.AperFunction,Plated,PTH,ComponentDrill
T6C0.0472
%
G90
G05
T1
X4.86Y-3.41
X4.99Y-2.77
X5.01Y-2.86
X5.11Y-2.94
X5.34Y-2.58
X5.43Y-2.94
X5.57Y-3.32
X5.66Y-2.84
T2
X4.78Y-2.06
X4.78Y-2.16
X4.78Y-2.26
X4.78Y-2.36
X4.78Y-2.46
X4.78Y-2.56
X4.78Y-2.66
X4.78Y-2.76
X4.78Y-2.86
X4.78Y-2.96
X4.78Y-3.06
X4.78Y-3.16
X4.78Y-3.26
X4.78Y-3.36
X4.78Y-3.46
X5.78Y-2.06
X5.78Y-2.16
X5.78Y-2.26
X5.78Y-2.36
X5.78Y-2.46
X5.78Y-2.56
X5.78Y-2.66
X5.78Y-2.76
X5.78Y-2.86
X5.78Y-2.96
X5.78Y-3.06
X5.78Y-3.16
X5.78Y-3.26
X5.78Y-3.36
X5.78Y-3.46
T3
X5.62Y-2.1426
X5.62Y-2.2276
X5.62Y-2.3126
X5.62Y-2.3976
T4
X5.2347Y-3.71
X5.3331Y-3.71
X5.4316Y-3.71
X5.53Y-3.71
T5
X4.8983Y-2.1591
X4.8983Y-3.3009
X4.899Y-2.96
X5.4417Y-2.1591
X5.4417Y-3.3009
T6
X5.08Y-3.5258
X5.28Y-3.5258
X5.48Y-3.5258
X5.68Y-3.5258
M30
