%TF.GenerationSoftware,KiCad,Pcbnew,8.0.8+1*%
%TF.CreationDate,2025-02-28T13:13:44+11:00*%
%TF.ProjectId,vichyctl,76696368-7963-4746-9c2e-6b696361645f,rev?*%
%TF.SameCoordinates,Original*%
%TF.FileFunction,Copper,L1,Top*%
%TF.FilePolarity,Positive*%
%FSLAX46Y46*%
G04 Gerber Fmt 4.6, Leading zero omitted, Abs format (unit mm)*
G04 Created by KiCad (PCBNEW 8.0.8+1) date 2025-02-28 13:13:44*
%MOMM*%
%LPD*%
G01*
G04 APERTURE LIST*
G04 Aperture macros list*
%AMRoundRect*
0 Rectangle with rounded corners*
0 $1 Rounding radius*
0 $2 $3 $4 $5 $6 $7 $8 $9 X,Y pos of 4 corners*
0 Add a 4 corners polygon primitive as box body*
4,1,4,$2,$3,$4,$5,$6,$7,$8,$9,$2,$3,0*
0 Add four circle primitives for the rounded corners*
1,1,$1+$1,$2,$3*
1,1,$1+$1,$4,$5*
1,1,$1+$1,$6,$7*
1,1,$1+$1,$8,$9*
0 Add four rect primitives between the rounded corners*
20,1,$1+$1,$2,$3,$4,$5,0*
20,1,$1+$1,$4,$5,$6,$7,0*
20,1,$1+$1,$6,$7,$8,$9,0*
20,1,$1+$1,$8,$9,$2,$3,0*%
G04 Aperture macros list end*
%TA.AperFunction,ComponentPad*%
%ADD10RoundRect,0.250000X-0.600000X-0.725000X0.600000X-0.725000X0.600000X0.725000X-0.600000X0.725000X0*%
%TD*%
%TA.AperFunction,ComponentPad*%
%ADD11O,1.700000X1.950000*%
%TD*%
%TA.AperFunction,ComponentPad*%
%ADD12RoundRect,0.250000X-0.650000X-1.550000X0.650000X-1.550000X0.650000X1.550000X-0.650000X1.550000X0*%
%TD*%
%TA.AperFunction,ComponentPad*%
%ADD13O,1.800000X3.600000*%
%TD*%
%TA.AperFunction,SMDPad,CuDef*%
%ADD14RoundRect,0.250000X0.450000X-0.350000X0.450000X0.350000X-0.450000X0.350000X-0.450000X-0.350000X0*%
%TD*%
%TA.AperFunction,SMDPad,CuDef*%
%ADD15RoundRect,0.150000X-0.587500X-0.150000X0.587500X-0.150000X0.587500X0.150000X-0.587500X0.150000X0*%
%TD*%
%TA.AperFunction,ComponentPad*%
%ADD16RoundRect,0.250000X-0.893000X-0.893000X0.893000X-0.893000X0.893000X0.893000X-0.893000X0.893000X0*%
%TD*%
%TA.AperFunction,ComponentPad*%
%ADD17C,2.286000*%
%TD*%
%TA.AperFunction,ComponentPad*%
%ADD18R,1.800000X1.800000*%
%TD*%
%TA.AperFunction,ComponentPad*%
%ADD19C,1.800000*%
%TD*%
%TA.AperFunction,SMDPad,CuDef*%
%ADD20RoundRect,0.237500X0.237500X-0.287500X0.237500X0.287500X-0.237500X0.287500X-0.237500X-0.287500X0*%
%TD*%
%TA.AperFunction,SMDPad,CuDef*%
%ADD21RoundRect,0.250000X-0.450000X0.350000X-0.450000X-0.350000X0.450000X-0.350000X0.450000X0.350000X0*%
%TD*%
%TA.AperFunction,ComponentPad*%
%ADD22R,2.000000X1.200000*%
%TD*%
%TA.AperFunction,ComponentPad*%
%ADD23O,2.000000X1.200000*%
%TD*%
%TA.AperFunction,ViaPad*%
%ADD24C,1.016000*%
%TD*%
%TA.AperFunction,Conductor*%
%ADD25C,1.270000*%
%TD*%
%TA.AperFunction,Conductor*%
%ADD26C,0.508000*%
%TD*%
%TA.AperFunction,Conductor*%
%ADD27C,0.254000*%
%TD*%
G04 APERTURE END LIST*
D10*
%TO.P,J1,1,Pin_1*%
%TO.N,Net-(J1-Pin_1)*%
X132962000Y-94234000D03*
D11*
%TO.P,J1,2,Pin_2*%
%TO.N,Net-(J1-Pin_2)*%
X135462000Y-94234000D03*
%TO.P,J1,3,Pin_3*%
%TO.N,Net-(J1-Pin_3)*%
X137962000Y-94234000D03*
%TO.P,J1,4,Pin_4*%
%TO.N,GND*%
X140462000Y-94234000D03*
%TD*%
D12*
%TO.P,J2,1,Pin_1*%
%TO.N,Net-(J1-Pin_1)*%
X129032000Y-89555000D03*
D13*
%TO.P,J2,2,Pin_2*%
%TO.N,Net-(J1-Pin_2)*%
X134112000Y-89555000D03*
%TO.P,J2,3,Pin_3*%
%TO.N,Net-(J1-Pin_3)*%
X139192000Y-89555000D03*
%TO.P,J2,4,Pin_4*%
%TO.N,GND*%
X144272000Y-89555000D03*
%TD*%
D14*
%TO.P,R2,1*%
%TO.N,Net-(U1-D16)*%
X141224000Y-69850000D03*
%TO.P,R2,2*%
%TO.N,Net-(D3-BA)*%
X141224000Y-67850000D03*
%TD*%
D15*
%TO.P,Q1,1,B*%
%TO.N,Net-(Q2-B)*%
X141048500Y-77790000D03*
%TO.P,Q1,2,E*%
%TO.N,Net-(Q2-E)*%
X141048500Y-79690000D03*
%TO.P,Q1,3,C*%
%TO.N,Net-(J1-Pin_2)*%
X142923500Y-78740000D03*
%TD*%
D14*
%TO.P,R4,1*%
%TO.N,Net-(Q2-B)*%
X141224000Y-74644000D03*
%TO.P,R4,2*%
%TO.N,Net-(U1-3V3)*%
X141224000Y-72644000D03*
%TD*%
D16*
%TO.P,U1,1,Vin_p*%
%TO.N,Net-(J1-Pin_1)*%
X124418000Y-83842000D03*
D17*
%TO.P,U1,2,Vin_gnd*%
%TO.N,GND*%
X138218000Y-83842000D03*
%TO.P,U1,3,VO_GND*%
X138218000Y-54842000D03*
%TO.P,U1,4,V5V_p*%
%TO.N,Net-(U1-VIN)*%
X124418000Y-54842000D03*
%TO.P,U1,5,EN*%
%TO.N,unconnected-(U2-EN-Pad5)*%
X124434600Y-75184000D03*
%TD*%
D18*
%TO.P,D2,1,BA*%
%TO.N,Net-(D3-BA)*%
X142748000Y-60898000D03*
D19*
%TO.P,D2,2,GA*%
%TO.N,unconnected-(D3-GA-Pad2)*%
X142748000Y-58739000D03*
%TO.P,D2,3,K*%
%TO.N,Net-(D1-A)*%
X142748000Y-56580000D03*
%TO.P,D2,4,RA*%
%TO.N,unconnected-(D3-RA-Pad4)*%
X142748000Y-54421000D03*
%TD*%
D20*
%TO.P,D1,1,K*%
%TO.N,GND*%
X141224000Y-65504000D03*
%TO.P,D1,2,A*%
%TO.N,Net-(D1-A)*%
X141224000Y-63754000D03*
%TD*%
D14*
%TO.P,R3,1*%
%TO.N,Net-(U1-VIN)*%
X143256000Y-84312000D03*
%TO.P,R3,2*%
%TO.N,Net-(J1-Pin_2)*%
X143256000Y-82312000D03*
%TD*%
D21*
%TO.P,R1,1*%
%TO.N,Net-(D3-BA)*%
X143764000Y-67850000D03*
%TO.P,R1,2*%
%TO.N,Net-(J1-Pin_3)*%
X143764000Y-69850000D03*
%TD*%
D22*
%TO.P,U2,1,EN*%
%TO.N,unconnected-(U1-EN-Pad1)*%
X146812000Y-52324000D03*
D23*
%TO.P,U2,2,VP*%
%TO.N,unconnected-(U1-VP-Pad2)*%
X146812000Y-54864000D03*
%TO.P,U2,3,VN*%
%TO.N,unconnected-(U1-VN-Pad3)*%
X146812000Y-57404000D03*
%TO.P,U2,4,D34*%
%TO.N,unconnected-(U1-D34-Pad4)*%
X146812000Y-59944000D03*
%TO.P,U2,5,D35*%
%TO.N,unconnected-(U1-D35-Pad5)*%
X146812000Y-62484000D03*
%TO.P,U2,6,D32*%
%TO.N,unconnected-(U1-D32-Pad6)*%
X146812000Y-65024000D03*
%TO.P,U2,7,D33*%
%TO.N,unconnected-(U1-D33-Pad7)*%
X146812000Y-67564000D03*
%TO.P,U2,8,D25*%
%TO.N,unconnected-(U1-D25-Pad8)*%
X146812000Y-70104000D03*
%TO.P,U2,9,D26*%
%TO.N,unconnected-(U1-D26-Pad9)*%
X146812000Y-72644000D03*
%TO.P,U2,10,D27*%
%TO.N,unconnected-(U1-D27-Pad10)*%
X146812000Y-75184000D03*
%TO.P,U2,11,D14*%
%TO.N,unconnected-(U1-D14-Pad11)*%
X146812000Y-77724000D03*
%TO.P,U2,12,D12*%
%TO.N,unconnected-(U1-D12-Pad12)*%
X146812000Y-80264000D03*
%TO.P,U2,13,D13*%
%TO.N,unconnected-(U1-D13-Pad13)*%
X146812000Y-82804000D03*
%TO.P,U2,14,GND*%
%TO.N,GND*%
X146812000Y-85344000D03*
%TO.P,U2,15,VIN*%
%TO.N,Net-(U1-VIN)*%
X146812000Y-87884000D03*
%TO.P,U2,16,3V3*%
%TO.N,Net-(U1-3V3)*%
X121412000Y-87884000D03*
%TO.P,U2,17,GND*%
%TO.N,GND*%
X121412000Y-85344000D03*
%TO.P,U2,18,D15*%
%TO.N,unconnected-(U1-D15-Pad18)*%
X121412000Y-82804000D03*
%TO.P,U2,19,D2*%
%TO.N,unconnected-(U1-D2-Pad19)*%
X121412000Y-80264000D03*
%TO.P,U2,20,D4*%
%TO.N,unconnected-(U1-D4-Pad20)*%
X121412000Y-77724000D03*
%TO.P,U2,21,D16*%
%TO.N,Net-(U1-D16)*%
X121412000Y-75184000D03*
%TO.P,U2,22,D17*%
%TO.N,Net-(Q2-E)*%
X121412000Y-72644000D03*
%TO.P,U2,23,D5*%
%TO.N,unconnected-(U1-D5-Pad23)*%
X121412000Y-70104000D03*
%TO.P,U2,24,D18*%
%TO.N,unconnected-(U1-D18-Pad24)*%
X121412000Y-67564000D03*
%TO.P,U2,25,D19*%
%TO.N,unconnected-(U1-D19-Pad25)*%
X121412000Y-65024000D03*
%TO.P,U2,26,D21*%
%TO.N,unconnected-(U1-D21-Pad26)*%
X121412000Y-62484000D03*
%TO.P,U2,27,RXD0*%
%TO.N,unconnected-(U1-RXD0-Pad27)*%
X121412000Y-59944000D03*
%TO.P,U2,28,TXD0*%
%TO.N,unconnected-(U1-TXD0-Pad28)*%
X121412000Y-57404000D03*
%TO.P,U2,29,D22*%
%TO.N,unconnected-(U1-D22-Pad29)*%
X121412000Y-54864000D03*
%TO.P,U2,30,D23*%
%TO.N,unconnected-(U1-D23-Pad30)*%
X121412000Y-52324000D03*
%TD*%
D24*
%TO.N,GND*%
X123444000Y-86614000D03*
X135636000Y-65532000D03*
%TO.N,Net-(U1-D16)*%
X126746000Y-70358000D03*
%TO.N,Net-(U1-3V3)*%
X127254000Y-72644000D03*
%TO.N,Net-(U1-VIN)*%
X141478000Y-84328000D03*
%TO.N,Net-(J1-Pin_3)*%
X143764000Y-72136000D03*
X129794000Y-74676000D03*
X137922000Y-74676000D03*
%TD*%
D25*
%TO.N,GND*%
X143931000Y-89555000D02*
X138218000Y-83842000D01*
X140462000Y-94234000D02*
X140462000Y-93365000D01*
X140462000Y-93365000D02*
X144272000Y-89555000D01*
D26*
X140462000Y-95504000D02*
X140462000Y-94234000D01*
X123444000Y-86614000D02*
X123444000Y-88900000D01*
X129540000Y-96520000D02*
X139446000Y-96520000D01*
D25*
X145796000Y-85344000D02*
X144272000Y-86868000D01*
D27*
X141224000Y-65504000D02*
X135664000Y-65504000D01*
D26*
X123444000Y-88900000D02*
X127762000Y-93218000D01*
X127762000Y-93218000D02*
X127762000Y-94742000D01*
X139446000Y-96520000D02*
X140462000Y-95504000D01*
D25*
X146812000Y-85344000D02*
X145796000Y-85344000D01*
D27*
X135664000Y-65504000D02*
X135636000Y-65532000D01*
D25*
X144272000Y-89555000D02*
X143931000Y-89555000D01*
X144272000Y-86868000D02*
X144272000Y-89555000D01*
D26*
X127762000Y-94742000D02*
X129540000Y-96520000D01*
D27*
%TO.N,Net-(Q2-E)*%
X141048500Y-79690000D02*
X132014000Y-79690000D01*
X132014000Y-79690000D02*
X124968000Y-72644000D01*
X124968000Y-72644000D02*
X121412000Y-72644000D01*
%TO.N,Net-(U1-D16)*%
X126746000Y-69850000D02*
X126746000Y-70358000D01*
X141224000Y-69850000D02*
X126746000Y-69850000D01*
%TO.N,Net-(U1-3V3)*%
X127508000Y-72898000D02*
X127254000Y-72644000D01*
X140970000Y-72898000D02*
X127508000Y-72898000D01*
X141224000Y-72644000D02*
X140970000Y-72898000D01*
D26*
%TO.N,Net-(U1-VIN)*%
X141494000Y-84312000D02*
X141478000Y-84328000D01*
X143256000Y-84312000D02*
X141494000Y-84312000D01*
X143256000Y-84312000D02*
X143256000Y-84328000D01*
D27*
%TO.N,Net-(Q2-B)*%
X141048500Y-77790000D02*
X141048500Y-74819500D01*
X141048500Y-74819500D02*
X141224000Y-74644000D01*
%TO.N,Net-(J1-Pin_2)*%
X143256000Y-82312000D02*
X143256000Y-80772000D01*
X137160000Y-80772000D02*
X134112000Y-83820000D01*
X143256000Y-79072500D02*
X142923500Y-78740000D01*
X134112000Y-83820000D02*
X134112000Y-89555000D01*
D25*
X135462000Y-90905000D02*
X134112000Y-89555000D01*
D27*
X143256000Y-80772000D02*
X137160000Y-80772000D01*
X143256000Y-80772000D02*
X143256000Y-79072500D01*
D25*
X135462000Y-94234000D02*
X135462000Y-90905000D01*
D27*
%TO.N,Net-(D3-BA)*%
X141224000Y-67850000D02*
X142494000Y-67850000D01*
X142748000Y-62484000D02*
X142748000Y-60898000D01*
X142494000Y-67850000D02*
X143764000Y-67850000D01*
X142494000Y-62738000D02*
X142748000Y-62484000D01*
X142494000Y-67850000D02*
X142494000Y-62738000D01*
%TO.N,Net-(J1-Pin_3)*%
X137922000Y-74676000D02*
X129794000Y-74676000D01*
D26*
X137374000Y-94234000D02*
X137374000Y-93518000D01*
D25*
X137962000Y-90785000D02*
X139192000Y-89555000D01*
D27*
X143764000Y-69850000D02*
X143764000Y-72136000D01*
D25*
X137962000Y-94234000D02*
X137962000Y-90785000D01*
D27*
%TO.N,Net-(D1-A)*%
X139954000Y-58166000D02*
X141540000Y-56580000D01*
X140716000Y-62992000D02*
X140970000Y-62992000D01*
X141540000Y-56580000D02*
X142748000Y-56580000D01*
X140716000Y-62992000D02*
X139954000Y-62230000D01*
X139954000Y-62230000D02*
X139954000Y-58166000D01*
X141224000Y-63246000D02*
X141224000Y-63754000D01*
X140970000Y-62992000D02*
X141224000Y-63246000D01*
D25*
%TO.N,Net-(J1-Pin_1)*%
X129032000Y-88456000D02*
X124418000Y-83842000D01*
X132962000Y-93485000D02*
X129032000Y-89555000D01*
X132962000Y-94234000D02*
X132962000Y-93485000D01*
X129032000Y-89555000D02*
X129032000Y-88456000D01*
%TD*%
M02*
