%TF.GenerationSoftware,KiCad,Pcbnew,8.0.8+1*%
%TF.CreationDate,2025-02-28T11:12:55+11:00*%
%TF.ProjectId,vichyctl,76696368-7963-4746-9c2e-6b696361645f,rev?*%
%TF.SameCoordinates,Original*%
%TF.FileFunction,Drillmap*%
%TF.FilePolarity,Positive*%
%FSLAX45Y45*%
G04 Gerber Fmt 4.5, Leading zero omitted, Abs format (unit mm)*
G04 Created by KiCad (PCBNEW 8.0.8+1) date 2025-02-28 11:12:55*
%MOMM*%
%LPD*%
G01*
G04 APERTURE LIST*
%ADD10C,0.050000*%
%ADD11C,0.200000*%
%ADD12C,0.100000*%
%ADD13C,0.120000*%
G04 APERTURE END LIST*
D10*
X11963400Y-4140200D02*
X14859000Y-4140200D01*
X14859000Y-9880600D01*
X11963400Y-9880600D01*
X11963400Y-4140200D01*
D11*
D12*
X12306300Y-8623300D02*
X12382500Y-8699500D01*
X12382500Y-8623300D02*
X12306300Y-8699500D01*
X12636500Y-6997700D02*
X12712700Y-7073900D01*
X12712700Y-6997700D02*
X12636500Y-7073900D01*
X12687300Y-7226300D02*
X12763500Y-7302500D01*
X12763500Y-7226300D02*
X12687300Y-7302500D01*
X12941300Y-7429500D02*
X13017500Y-7505700D01*
X13017500Y-7429500D02*
X12941300Y-7505700D01*
X13525500Y-6515100D02*
X13601700Y-6591300D01*
X13601700Y-6515100D02*
X13525500Y-6591300D01*
X13754100Y-7429500D02*
X13830300Y-7505700D01*
X13830300Y-7429500D02*
X13754100Y-7505700D01*
X14109700Y-8394700D02*
X14185900Y-8470900D01*
X14185900Y-8394700D02*
X14109700Y-8470900D01*
X14338300Y-7175500D02*
X14414500Y-7251700D01*
X14414500Y-7175500D02*
X14338300Y-7251700D01*
X12181200Y-5232400D02*
G75*
G02*
X12101200Y-5232400I-40000J0D01*
G01*
X12101200Y-5232400D02*
G75*
G02*
X12181200Y-5232400I40000J0D01*
G01*
X12181200Y-5486400D02*
G75*
G02*
X12101200Y-5486400I-40000J0D01*
G01*
X12101200Y-5486400D02*
G75*
G02*
X12181200Y-5486400I40000J0D01*
G01*
X12181200Y-5740400D02*
G75*
G02*
X12101200Y-5740400I-40000J0D01*
G01*
X12101200Y-5740400D02*
G75*
G02*
X12181200Y-5740400I40000J0D01*
G01*
X12181200Y-5994400D02*
G75*
G02*
X12101200Y-5994400I-40000J0D01*
G01*
X12101200Y-5994400D02*
G75*
G02*
X12181200Y-5994400I40000J0D01*
G01*
X12181200Y-6248400D02*
G75*
G02*
X12101200Y-6248400I-40000J0D01*
G01*
X12101200Y-6248400D02*
G75*
G02*
X12181200Y-6248400I40000J0D01*
G01*
X12181200Y-6502400D02*
G75*
G02*
X12101200Y-6502400I-40000J0D01*
G01*
X12101200Y-6502400D02*
G75*
G02*
X12181200Y-6502400I40000J0D01*
G01*
X12181200Y-6756400D02*
G75*
G02*
X12101200Y-6756400I-40000J0D01*
G01*
X12101200Y-6756400D02*
G75*
G02*
X12181200Y-6756400I40000J0D01*
G01*
X12181200Y-7010400D02*
G75*
G02*
X12101200Y-7010400I-40000J0D01*
G01*
X12101200Y-7010400D02*
G75*
G02*
X12181200Y-7010400I40000J0D01*
G01*
X12181200Y-7264400D02*
G75*
G02*
X12101200Y-7264400I-40000J0D01*
G01*
X12101200Y-7264400D02*
G75*
G02*
X12181200Y-7264400I40000J0D01*
G01*
X12181200Y-7518400D02*
G75*
G02*
X12101200Y-7518400I-40000J0D01*
G01*
X12101200Y-7518400D02*
G75*
G02*
X12181200Y-7518400I40000J0D01*
G01*
X12181200Y-7772400D02*
G75*
G02*
X12101200Y-7772400I-40000J0D01*
G01*
X12101200Y-7772400D02*
G75*
G02*
X12181200Y-7772400I40000J0D01*
G01*
X12181200Y-8026400D02*
G75*
G02*
X12101200Y-8026400I-40000J0D01*
G01*
X12101200Y-8026400D02*
G75*
G02*
X12181200Y-8026400I40000J0D01*
G01*
X12181200Y-8280400D02*
G75*
G02*
X12101200Y-8280400I-40000J0D01*
G01*
X12101200Y-8280400D02*
G75*
G02*
X12181200Y-8280400I40000J0D01*
G01*
X12181200Y-8534400D02*
G75*
G02*
X12101200Y-8534400I-40000J0D01*
G01*
X12101200Y-8534400D02*
G75*
G02*
X12181200Y-8534400I40000J0D01*
G01*
X12181200Y-8788400D02*
G75*
G02*
X12101200Y-8788400I-40000J0D01*
G01*
X12101200Y-8788400D02*
G75*
G02*
X12181200Y-8788400I40000J0D01*
G01*
X14721200Y-5232400D02*
G75*
G02*
X14641200Y-5232400I-40000J0D01*
G01*
X14641200Y-5232400D02*
G75*
G02*
X14721200Y-5232400I40000J0D01*
G01*
X14721200Y-5486400D02*
G75*
G02*
X14641200Y-5486400I-40000J0D01*
G01*
X14641200Y-5486400D02*
G75*
G02*
X14721200Y-5486400I40000J0D01*
G01*
X14721200Y-5740400D02*
G75*
G02*
X14641200Y-5740400I-40000J0D01*
G01*
X14641200Y-5740400D02*
G75*
G02*
X14721200Y-5740400I40000J0D01*
G01*
X14721200Y-5994400D02*
G75*
G02*
X14641200Y-5994400I-40000J0D01*
G01*
X14641200Y-5994400D02*
G75*
G02*
X14721200Y-5994400I40000J0D01*
G01*
X14721200Y-6248400D02*
G75*
G02*
X14641200Y-6248400I-40000J0D01*
G01*
X14641200Y-6248400D02*
G75*
G02*
X14721200Y-6248400I40000J0D01*
G01*
X14721200Y-6502400D02*
G75*
G02*
X14641200Y-6502400I-40000J0D01*
G01*
X14641200Y-6502400D02*
G75*
G02*
X14721200Y-6502400I40000J0D01*
G01*
X14721200Y-6756400D02*
G75*
G02*
X14641200Y-6756400I-40000J0D01*
G01*
X14641200Y-6756400D02*
G75*
G02*
X14721200Y-6756400I40000J0D01*
G01*
X14721200Y-7010400D02*
G75*
G02*
X14641200Y-7010400I-40000J0D01*
G01*
X14641200Y-7010400D02*
G75*
G02*
X14721200Y-7010400I40000J0D01*
G01*
X14721200Y-7264400D02*
G75*
G02*
X14641200Y-7264400I-40000J0D01*
G01*
X14641200Y-7264400D02*
G75*
G02*
X14721200Y-7264400I40000J0D01*
G01*
X14721200Y-7518400D02*
G75*
G02*
X14641200Y-7518400I-40000J0D01*
G01*
X14641200Y-7518400D02*
G75*
G02*
X14721200Y-7518400I40000J0D01*
G01*
X14721200Y-7772400D02*
G75*
G02*
X14641200Y-7772400I-40000J0D01*
G01*
X14641200Y-7772400D02*
G75*
G02*
X14721200Y-7772400I40000J0D01*
G01*
X14721200Y-8026400D02*
G75*
G02*
X14641200Y-8026400I-40000J0D01*
G01*
X14641200Y-8026400D02*
G75*
G02*
X14721200Y-8026400I40000J0D01*
G01*
X14721200Y-8280400D02*
G75*
G02*
X14641200Y-8280400I-40000J0D01*
G01*
X14641200Y-8280400D02*
G75*
G02*
X14721200Y-8280400I40000J0D01*
G01*
X14721200Y-8534400D02*
G75*
G02*
X14641200Y-8534400I-40000J0D01*
G01*
X14641200Y-8534400D02*
G75*
G02*
X14721200Y-8534400I40000J0D01*
G01*
X14721200Y-8788400D02*
G75*
G02*
X14641200Y-8788400I-40000J0D01*
G01*
X14641200Y-8788400D02*
G75*
G02*
X14721200Y-8788400I40000J0D01*
G01*
X14274800Y-5397100D02*
X14274800Y-5487100D01*
X14229800Y-5442100D02*
X14319800Y-5442100D01*
X14274800Y-5613000D02*
X14274800Y-5703000D01*
X14229800Y-5658000D02*
X14319800Y-5658000D01*
X14274800Y-5828900D02*
X14274800Y-5918900D01*
X14229800Y-5873900D02*
X14319800Y-5873900D01*
X14274800Y-6044800D02*
X14274800Y-6134800D01*
X14229800Y-6089800D02*
X14319800Y-6089800D01*
X13329788Y-9456988D02*
X13329788Y-9389812D01*
X13262612Y-9389812D01*
X13262612Y-9456988D01*
X13329788Y-9456988D01*
X13579788Y-9456988D02*
X13579788Y-9389812D01*
X13512612Y-9389812D01*
X13512612Y-9456988D01*
X13579788Y-9456988D01*
X13829788Y-9456988D02*
X13829788Y-9389812D01*
X13762612Y-9389812D01*
X13762612Y-9456988D01*
X13829788Y-9456988D01*
X14079788Y-9456988D02*
X14079788Y-9389812D01*
X14012612Y-9389812D01*
X14012612Y-9456988D01*
X14079788Y-9456988D01*
X12441800Y-5534200D02*
X12491800Y-5484200D01*
X12441800Y-5434200D01*
X12391800Y-5484200D01*
X12441800Y-5534200D01*
X12441800Y-8434200D02*
X12491800Y-8384200D01*
X12441800Y-8334200D01*
X12391800Y-8384200D01*
X12441800Y-8434200D01*
X12443460Y-7568400D02*
X12493460Y-7518400D01*
X12443460Y-7468400D01*
X12393460Y-7518400D01*
X12443460Y-7568400D01*
X13821800Y-5534200D02*
X13871800Y-5484200D01*
X13821800Y-5434200D01*
X13771800Y-5484200D01*
X13821800Y-5534200D01*
X13821800Y-8434200D02*
X13871800Y-8384200D01*
X13821800Y-8334200D01*
X13771800Y-8384200D01*
X13821800Y-8434200D01*
D13*
X12843200Y-8895500D02*
X12963200Y-9015500D01*
X12963200Y-8895500D02*
X12843200Y-9015500D01*
X12963200Y-8955500D02*
G75*
G02*
X12843200Y-8955500I-60000J0D01*
G01*
X12843200Y-8955500D02*
G75*
G02*
X12963200Y-8955500I60000J0D01*
G01*
X13351200Y-8895500D02*
X13471200Y-9015500D01*
X13471200Y-8895500D02*
X13351200Y-9015500D01*
X13471200Y-8955500D02*
G75*
G02*
X13351200Y-8955500I-60000J0D01*
G01*
X13351200Y-8955500D02*
G75*
G02*
X13471200Y-8955500I60000J0D01*
G01*
X13859200Y-8895500D02*
X13979200Y-9015500D01*
X13979200Y-8895500D02*
X13859200Y-9015500D01*
X13979200Y-8955500D02*
G75*
G02*
X13859200Y-8955500I-60000J0D01*
G01*
X13859200Y-8955500D02*
G75*
G02*
X13979200Y-8955500I60000J0D01*
G01*
X14367200Y-8895500D02*
X14487200Y-9015500D01*
X14487200Y-8895500D02*
X14367200Y-9015500D01*
X14487200Y-8955500D02*
G75*
G02*
X14367200Y-8955500I-60000J0D01*
G01*
X14367200Y-8955500D02*
G75*
G02*
X14487200Y-8955500I60000J0D01*
G01*
D11*
X12221677Y-10194584D02*
X12221677Y-9994584D01*
X12221677Y-9994584D02*
X12269296Y-9994584D01*
X12269296Y-9994584D02*
X12297867Y-10004108D01*
X12297867Y-10004108D02*
X12316915Y-10023155D01*
X12316915Y-10023155D02*
X12326439Y-10042203D01*
X12326439Y-10042203D02*
X12335962Y-10080298D01*
X12335962Y-10080298D02*
X12335962Y-10108870D01*
X12335962Y-10108870D02*
X12326439Y-10146965D01*
X12326439Y-10146965D02*
X12316915Y-10166012D01*
X12316915Y-10166012D02*
X12297867Y-10185060D01*
X12297867Y-10185060D02*
X12269296Y-10194584D01*
X12269296Y-10194584D02*
X12221677Y-10194584D01*
X12421677Y-10194584D02*
X12421677Y-10061250D01*
X12421677Y-10099346D02*
X12431201Y-10080298D01*
X12431201Y-10080298D02*
X12440724Y-10070774D01*
X12440724Y-10070774D02*
X12459772Y-10061250D01*
X12459772Y-10061250D02*
X12478820Y-10061250D01*
X12545486Y-10194584D02*
X12545486Y-10061250D01*
X12545486Y-9994584D02*
X12535962Y-10004108D01*
X12535962Y-10004108D02*
X12545486Y-10013631D01*
X12545486Y-10013631D02*
X12555010Y-10004108D01*
X12555010Y-10004108D02*
X12545486Y-9994584D01*
X12545486Y-9994584D02*
X12545486Y-10013631D01*
X12669296Y-10194584D02*
X12650248Y-10185060D01*
X12650248Y-10185060D02*
X12640724Y-10166012D01*
X12640724Y-10166012D02*
X12640724Y-9994584D01*
X12774058Y-10194584D02*
X12755010Y-10185060D01*
X12755010Y-10185060D02*
X12745486Y-10166012D01*
X12745486Y-10166012D02*
X12745486Y-9994584D01*
X13002629Y-10194584D02*
X13002629Y-9994584D01*
X13002629Y-9994584D02*
X13069296Y-10137441D01*
X13069296Y-10137441D02*
X13135962Y-9994584D01*
X13135962Y-9994584D02*
X13135962Y-10194584D01*
X13316915Y-10194584D02*
X13316915Y-10089822D01*
X13316915Y-10089822D02*
X13307391Y-10070774D01*
X13307391Y-10070774D02*
X13288343Y-10061250D01*
X13288343Y-10061250D02*
X13250248Y-10061250D01*
X13250248Y-10061250D02*
X13231201Y-10070774D01*
X13316915Y-10185060D02*
X13297867Y-10194584D01*
X13297867Y-10194584D02*
X13250248Y-10194584D01*
X13250248Y-10194584D02*
X13231201Y-10185060D01*
X13231201Y-10185060D02*
X13221677Y-10166012D01*
X13221677Y-10166012D02*
X13221677Y-10146965D01*
X13221677Y-10146965D02*
X13231201Y-10127917D01*
X13231201Y-10127917D02*
X13250248Y-10118393D01*
X13250248Y-10118393D02*
X13297867Y-10118393D01*
X13297867Y-10118393D02*
X13316915Y-10108870D01*
X13412153Y-10061250D02*
X13412153Y-10261250D01*
X13412153Y-10070774D02*
X13431201Y-10061250D01*
X13431201Y-10061250D02*
X13469296Y-10061250D01*
X13469296Y-10061250D02*
X13488343Y-10070774D01*
X13488343Y-10070774D02*
X13497867Y-10080298D01*
X13497867Y-10080298D02*
X13507391Y-10099346D01*
X13507391Y-10099346D02*
X13507391Y-10156489D01*
X13507391Y-10156489D02*
X13497867Y-10175536D01*
X13497867Y-10175536D02*
X13488343Y-10185060D01*
X13488343Y-10185060D02*
X13469296Y-10194584D01*
X13469296Y-10194584D02*
X13431201Y-10194584D01*
X13431201Y-10194584D02*
X13412153Y-10185060D01*
X13593105Y-10175536D02*
X13602629Y-10185060D01*
X13602629Y-10185060D02*
X13593105Y-10194584D01*
X13593105Y-10194584D02*
X13583582Y-10185060D01*
X13583582Y-10185060D02*
X13593105Y-10175536D01*
X13593105Y-10175536D02*
X13593105Y-10194584D01*
X13593105Y-10070774D02*
X13602629Y-10080298D01*
X13602629Y-10080298D02*
X13593105Y-10089822D01*
X13593105Y-10089822D02*
X13583582Y-10080298D01*
X13583582Y-10080298D02*
X13593105Y-10070774D01*
X13593105Y-10070774D02*
X13593105Y-10089822D01*
D12*
X11884700Y-10485000D02*
X11960900Y-10561200D01*
X11960900Y-10485000D02*
X11884700Y-10561200D01*
D11*
X12259772Y-10414584D02*
X12278820Y-10414584D01*
X12278820Y-10414584D02*
X12297867Y-10424108D01*
X12297867Y-10424108D02*
X12307391Y-10433631D01*
X12307391Y-10433631D02*
X12316915Y-10452679D01*
X12316915Y-10452679D02*
X12326439Y-10490774D01*
X12326439Y-10490774D02*
X12326439Y-10538393D01*
X12326439Y-10538393D02*
X12316915Y-10576489D01*
X12316915Y-10576489D02*
X12307391Y-10595536D01*
X12307391Y-10595536D02*
X12297867Y-10605060D01*
X12297867Y-10605060D02*
X12278820Y-10614584D01*
X12278820Y-10614584D02*
X12259772Y-10614584D01*
X12259772Y-10614584D02*
X12240724Y-10605060D01*
X12240724Y-10605060D02*
X12231201Y-10595536D01*
X12231201Y-10595536D02*
X12221677Y-10576489D01*
X12221677Y-10576489D02*
X12212153Y-10538393D01*
X12212153Y-10538393D02*
X12212153Y-10490774D01*
X12212153Y-10490774D02*
X12221677Y-10452679D01*
X12221677Y-10452679D02*
X12231201Y-10433631D01*
X12231201Y-10433631D02*
X12240724Y-10424108D01*
X12240724Y-10424108D02*
X12259772Y-10414584D01*
X12412153Y-10595536D02*
X12421677Y-10605060D01*
X12421677Y-10605060D02*
X12412153Y-10614584D01*
X12412153Y-10614584D02*
X12402629Y-10605060D01*
X12402629Y-10605060D02*
X12412153Y-10595536D01*
X12412153Y-10595536D02*
X12412153Y-10614584D01*
X12488343Y-10414584D02*
X12621677Y-10414584D01*
X12621677Y-10414584D02*
X12535962Y-10614584D01*
X12783582Y-10414584D02*
X12745486Y-10414584D01*
X12745486Y-10414584D02*
X12726439Y-10424108D01*
X12726439Y-10424108D02*
X12716915Y-10433631D01*
X12716915Y-10433631D02*
X12697867Y-10462203D01*
X12697867Y-10462203D02*
X12688343Y-10500298D01*
X12688343Y-10500298D02*
X12688343Y-10576489D01*
X12688343Y-10576489D02*
X12697867Y-10595536D01*
X12697867Y-10595536D02*
X12707391Y-10605060D01*
X12707391Y-10605060D02*
X12726439Y-10614584D01*
X12726439Y-10614584D02*
X12764534Y-10614584D01*
X12764534Y-10614584D02*
X12783582Y-10605060D01*
X12783582Y-10605060D02*
X12793105Y-10595536D01*
X12793105Y-10595536D02*
X12802629Y-10576489D01*
X12802629Y-10576489D02*
X12802629Y-10528870D01*
X12802629Y-10528870D02*
X12793105Y-10509822D01*
X12793105Y-10509822D02*
X12783582Y-10500298D01*
X12783582Y-10500298D02*
X12764534Y-10490774D01*
X12764534Y-10490774D02*
X12726439Y-10490774D01*
X12726439Y-10490774D02*
X12707391Y-10500298D01*
X12707391Y-10500298D02*
X12697867Y-10509822D01*
X12697867Y-10509822D02*
X12688343Y-10528870D01*
X12878820Y-10433631D02*
X12888343Y-10424108D01*
X12888343Y-10424108D02*
X12907391Y-10414584D01*
X12907391Y-10414584D02*
X12955010Y-10414584D01*
X12955010Y-10414584D02*
X12974058Y-10424108D01*
X12974058Y-10424108D02*
X12983582Y-10433631D01*
X12983582Y-10433631D02*
X12993105Y-10452679D01*
X12993105Y-10452679D02*
X12993105Y-10471727D01*
X12993105Y-10471727D02*
X12983582Y-10500298D01*
X12983582Y-10500298D02*
X12869296Y-10614584D01*
X12869296Y-10614584D02*
X12993105Y-10614584D01*
X13078820Y-10614584D02*
X13078820Y-10481250D01*
X13078820Y-10500298D02*
X13088343Y-10490774D01*
X13088343Y-10490774D02*
X13107391Y-10481250D01*
X13107391Y-10481250D02*
X13135963Y-10481250D01*
X13135963Y-10481250D02*
X13155010Y-10490774D01*
X13155010Y-10490774D02*
X13164534Y-10509822D01*
X13164534Y-10509822D02*
X13164534Y-10614584D01*
X13164534Y-10509822D02*
X13174058Y-10490774D01*
X13174058Y-10490774D02*
X13193105Y-10481250D01*
X13193105Y-10481250D02*
X13221677Y-10481250D01*
X13221677Y-10481250D02*
X13240724Y-10490774D01*
X13240724Y-10490774D02*
X13250248Y-10509822D01*
X13250248Y-10509822D02*
X13250248Y-10614584D01*
X13345486Y-10614584D02*
X13345486Y-10481250D01*
X13345486Y-10500298D02*
X13355010Y-10490774D01*
X13355010Y-10490774D02*
X13374058Y-10481250D01*
X13374058Y-10481250D02*
X13402629Y-10481250D01*
X13402629Y-10481250D02*
X13421677Y-10490774D01*
X13421677Y-10490774D02*
X13431201Y-10509822D01*
X13431201Y-10509822D02*
X13431201Y-10614584D01*
X13431201Y-10509822D02*
X13440724Y-10490774D01*
X13440724Y-10490774D02*
X13459772Y-10481250D01*
X13459772Y-10481250D02*
X13488343Y-10481250D01*
X13488343Y-10481250D02*
X13507391Y-10490774D01*
X13507391Y-10490774D02*
X13516915Y-10509822D01*
X13516915Y-10509822D02*
X13516915Y-10614584D01*
X13907391Y-10405060D02*
X13735963Y-10662203D01*
X14164534Y-10414584D02*
X14183582Y-10414584D01*
X14183582Y-10414584D02*
X14202629Y-10424108D01*
X14202629Y-10424108D02*
X14212153Y-10433631D01*
X14212153Y-10433631D02*
X14221677Y-10452679D01*
X14221677Y-10452679D02*
X14231201Y-10490774D01*
X14231201Y-10490774D02*
X14231201Y-10538393D01*
X14231201Y-10538393D02*
X14221677Y-10576489D01*
X14221677Y-10576489D02*
X14212153Y-10595536D01*
X14212153Y-10595536D02*
X14202629Y-10605060D01*
X14202629Y-10605060D02*
X14183582Y-10614584D01*
X14183582Y-10614584D02*
X14164534Y-10614584D01*
X14164534Y-10614584D02*
X14145486Y-10605060D01*
X14145486Y-10605060D02*
X14135963Y-10595536D01*
X14135963Y-10595536D02*
X14126439Y-10576489D01*
X14126439Y-10576489D02*
X14116915Y-10538393D01*
X14116915Y-10538393D02*
X14116915Y-10490774D01*
X14116915Y-10490774D02*
X14126439Y-10452679D01*
X14126439Y-10452679D02*
X14135963Y-10433631D01*
X14135963Y-10433631D02*
X14145486Y-10424108D01*
X14145486Y-10424108D02*
X14164534Y-10414584D01*
X14316915Y-10595536D02*
X14326439Y-10605060D01*
X14326439Y-10605060D02*
X14316915Y-10614584D01*
X14316915Y-10614584D02*
X14307391Y-10605060D01*
X14307391Y-10605060D02*
X14316915Y-10595536D01*
X14316915Y-10595536D02*
X14316915Y-10614584D01*
X14450248Y-10414584D02*
X14469296Y-10414584D01*
X14469296Y-10414584D02*
X14488344Y-10424108D01*
X14488344Y-10424108D02*
X14497867Y-10433631D01*
X14497867Y-10433631D02*
X14507391Y-10452679D01*
X14507391Y-10452679D02*
X14516915Y-10490774D01*
X14516915Y-10490774D02*
X14516915Y-10538393D01*
X14516915Y-10538393D02*
X14507391Y-10576489D01*
X14507391Y-10576489D02*
X14497867Y-10595536D01*
X14497867Y-10595536D02*
X14488344Y-10605060D01*
X14488344Y-10605060D02*
X14469296Y-10614584D01*
X14469296Y-10614584D02*
X14450248Y-10614584D01*
X14450248Y-10614584D02*
X14431201Y-10605060D01*
X14431201Y-10605060D02*
X14421677Y-10595536D01*
X14421677Y-10595536D02*
X14412153Y-10576489D01*
X14412153Y-10576489D02*
X14402629Y-10538393D01*
X14402629Y-10538393D02*
X14402629Y-10490774D01*
X14402629Y-10490774D02*
X14412153Y-10452679D01*
X14412153Y-10452679D02*
X14421677Y-10433631D01*
X14421677Y-10433631D02*
X14431201Y-10424108D01*
X14431201Y-10424108D02*
X14450248Y-10414584D01*
X14583582Y-10414584D02*
X14707391Y-10414584D01*
X14707391Y-10414584D02*
X14640725Y-10490774D01*
X14640725Y-10490774D02*
X14669296Y-10490774D01*
X14669296Y-10490774D02*
X14688344Y-10500298D01*
X14688344Y-10500298D02*
X14697867Y-10509822D01*
X14697867Y-10509822D02*
X14707391Y-10528870D01*
X14707391Y-10528870D02*
X14707391Y-10576489D01*
X14707391Y-10576489D02*
X14697867Y-10595536D01*
X14697867Y-10595536D02*
X14688344Y-10605060D01*
X14688344Y-10605060D02*
X14669296Y-10614584D01*
X14669296Y-10614584D02*
X14612153Y-10614584D01*
X14612153Y-10614584D02*
X14593106Y-10605060D01*
X14593106Y-10605060D02*
X14583582Y-10595536D01*
X14831201Y-10414584D02*
X14850248Y-10414584D01*
X14850248Y-10414584D02*
X14869296Y-10424108D01*
X14869296Y-10424108D02*
X14878820Y-10433631D01*
X14878820Y-10433631D02*
X14888344Y-10452679D01*
X14888344Y-10452679D02*
X14897867Y-10490774D01*
X14897867Y-10490774D02*
X14897867Y-10538393D01*
X14897867Y-10538393D02*
X14888344Y-10576489D01*
X14888344Y-10576489D02*
X14878820Y-10595536D01*
X14878820Y-10595536D02*
X14869296Y-10605060D01*
X14869296Y-10605060D02*
X14850248Y-10614584D01*
X14850248Y-10614584D02*
X14831201Y-10614584D01*
X14831201Y-10614584D02*
X14812153Y-10605060D01*
X14812153Y-10605060D02*
X14802629Y-10595536D01*
X14802629Y-10595536D02*
X14793106Y-10576489D01*
X14793106Y-10576489D02*
X14783582Y-10538393D01*
X14783582Y-10538393D02*
X14783582Y-10490774D01*
X14783582Y-10490774D02*
X14793106Y-10452679D01*
X14793106Y-10452679D02*
X14802629Y-10433631D01*
X14802629Y-10433631D02*
X14812153Y-10424108D01*
X14812153Y-10424108D02*
X14831201Y-10414584D01*
X15021677Y-10414584D02*
X15040725Y-10414584D01*
X15040725Y-10414584D02*
X15059772Y-10424108D01*
X15059772Y-10424108D02*
X15069296Y-10433631D01*
X15069296Y-10433631D02*
X15078820Y-10452679D01*
X15078820Y-10452679D02*
X15088344Y-10490774D01*
X15088344Y-10490774D02*
X15088344Y-10538393D01*
X15088344Y-10538393D02*
X15078820Y-10576489D01*
X15078820Y-10576489D02*
X15069296Y-10595536D01*
X15069296Y-10595536D02*
X15059772Y-10605060D01*
X15059772Y-10605060D02*
X15040725Y-10614584D01*
X15040725Y-10614584D02*
X15021677Y-10614584D01*
X15021677Y-10614584D02*
X15002629Y-10605060D01*
X15002629Y-10605060D02*
X14993106Y-10595536D01*
X14993106Y-10595536D02*
X14983582Y-10576489D01*
X14983582Y-10576489D02*
X14974058Y-10538393D01*
X14974058Y-10538393D02*
X14974058Y-10490774D01*
X14974058Y-10490774D02*
X14983582Y-10452679D01*
X14983582Y-10452679D02*
X14993106Y-10433631D01*
X14993106Y-10433631D02*
X15002629Y-10424108D01*
X15002629Y-10424108D02*
X15021677Y-10414584D01*
X15164534Y-10414584D02*
X15164534Y-10452679D01*
X15240725Y-10414584D02*
X15240725Y-10452679D01*
X15535963Y-10690774D02*
X15526439Y-10681250D01*
X15526439Y-10681250D02*
X15507391Y-10652679D01*
X15507391Y-10652679D02*
X15497868Y-10633631D01*
X15497868Y-10633631D02*
X15488344Y-10605060D01*
X15488344Y-10605060D02*
X15478820Y-10557441D01*
X15478820Y-10557441D02*
X15478820Y-10519346D01*
X15478820Y-10519346D02*
X15488344Y-10471727D01*
X15488344Y-10471727D02*
X15497868Y-10443155D01*
X15497868Y-10443155D02*
X15507391Y-10424108D01*
X15507391Y-10424108D02*
X15526439Y-10395536D01*
X15526439Y-10395536D02*
X15535963Y-10386012D01*
X15640725Y-10500298D02*
X15621677Y-10490774D01*
X15621677Y-10490774D02*
X15612153Y-10481250D01*
X15612153Y-10481250D02*
X15602629Y-10462203D01*
X15602629Y-10462203D02*
X15602629Y-10452679D01*
X15602629Y-10452679D02*
X15612153Y-10433631D01*
X15612153Y-10433631D02*
X15621677Y-10424108D01*
X15621677Y-10424108D02*
X15640725Y-10414584D01*
X15640725Y-10414584D02*
X15678820Y-10414584D01*
X15678820Y-10414584D02*
X15697868Y-10424108D01*
X15697868Y-10424108D02*
X15707391Y-10433631D01*
X15707391Y-10433631D02*
X15716915Y-10452679D01*
X15716915Y-10452679D02*
X15716915Y-10462203D01*
X15716915Y-10462203D02*
X15707391Y-10481250D01*
X15707391Y-10481250D02*
X15697868Y-10490774D01*
X15697868Y-10490774D02*
X15678820Y-10500298D01*
X15678820Y-10500298D02*
X15640725Y-10500298D01*
X15640725Y-10500298D02*
X15621677Y-10509822D01*
X15621677Y-10509822D02*
X15612153Y-10519346D01*
X15612153Y-10519346D02*
X15602629Y-10538393D01*
X15602629Y-10538393D02*
X15602629Y-10576489D01*
X15602629Y-10576489D02*
X15612153Y-10595536D01*
X15612153Y-10595536D02*
X15621677Y-10605060D01*
X15621677Y-10605060D02*
X15640725Y-10614584D01*
X15640725Y-10614584D02*
X15678820Y-10614584D01*
X15678820Y-10614584D02*
X15697868Y-10605060D01*
X15697868Y-10605060D02*
X15707391Y-10595536D01*
X15707391Y-10595536D02*
X15716915Y-10576489D01*
X15716915Y-10576489D02*
X15716915Y-10538393D01*
X15716915Y-10538393D02*
X15707391Y-10519346D01*
X15707391Y-10519346D02*
X15697868Y-10509822D01*
X15697868Y-10509822D02*
X15678820Y-10500298D01*
X15955010Y-10614584D02*
X15955010Y-10414584D01*
X16040725Y-10614584D02*
X16040725Y-10509822D01*
X16040725Y-10509822D02*
X16031201Y-10490774D01*
X16031201Y-10490774D02*
X16012153Y-10481250D01*
X16012153Y-10481250D02*
X15983582Y-10481250D01*
X15983582Y-10481250D02*
X15964534Y-10490774D01*
X15964534Y-10490774D02*
X15955010Y-10500298D01*
X16164534Y-10614584D02*
X16145487Y-10605060D01*
X16145487Y-10605060D02*
X16135963Y-10595536D01*
X16135963Y-10595536D02*
X16126439Y-10576489D01*
X16126439Y-10576489D02*
X16126439Y-10519346D01*
X16126439Y-10519346D02*
X16135963Y-10500298D01*
X16135963Y-10500298D02*
X16145487Y-10490774D01*
X16145487Y-10490774D02*
X16164534Y-10481250D01*
X16164534Y-10481250D02*
X16193106Y-10481250D01*
X16193106Y-10481250D02*
X16212153Y-10490774D01*
X16212153Y-10490774D02*
X16221677Y-10500298D01*
X16221677Y-10500298D02*
X16231201Y-10519346D01*
X16231201Y-10519346D02*
X16231201Y-10576489D01*
X16231201Y-10576489D02*
X16221677Y-10595536D01*
X16221677Y-10595536D02*
X16212153Y-10605060D01*
X16212153Y-10605060D02*
X16193106Y-10614584D01*
X16193106Y-10614584D02*
X16164534Y-10614584D01*
X16345487Y-10614584D02*
X16326439Y-10605060D01*
X16326439Y-10605060D02*
X16316915Y-10586012D01*
X16316915Y-10586012D02*
X16316915Y-10414584D01*
X16497868Y-10605060D02*
X16478820Y-10614584D01*
X16478820Y-10614584D02*
X16440725Y-10614584D01*
X16440725Y-10614584D02*
X16421677Y-10605060D01*
X16421677Y-10605060D02*
X16412153Y-10586012D01*
X16412153Y-10586012D02*
X16412153Y-10509822D01*
X16412153Y-10509822D02*
X16421677Y-10490774D01*
X16421677Y-10490774D02*
X16440725Y-10481250D01*
X16440725Y-10481250D02*
X16478820Y-10481250D01*
X16478820Y-10481250D02*
X16497868Y-10490774D01*
X16497868Y-10490774D02*
X16507391Y-10509822D01*
X16507391Y-10509822D02*
X16507391Y-10528870D01*
X16507391Y-10528870D02*
X16412153Y-10547917D01*
X16583582Y-10605060D02*
X16602630Y-10614584D01*
X16602630Y-10614584D02*
X16640725Y-10614584D01*
X16640725Y-10614584D02*
X16659772Y-10605060D01*
X16659772Y-10605060D02*
X16669296Y-10586012D01*
X16669296Y-10586012D02*
X16669296Y-10576489D01*
X16669296Y-10576489D02*
X16659772Y-10557441D01*
X16659772Y-10557441D02*
X16640725Y-10547917D01*
X16640725Y-10547917D02*
X16612153Y-10547917D01*
X16612153Y-10547917D02*
X16593106Y-10538393D01*
X16593106Y-10538393D02*
X16583582Y-10519346D01*
X16583582Y-10519346D02*
X16583582Y-10509822D01*
X16583582Y-10509822D02*
X16593106Y-10490774D01*
X16593106Y-10490774D02*
X16612153Y-10481250D01*
X16612153Y-10481250D02*
X16640725Y-10481250D01*
X16640725Y-10481250D02*
X16659772Y-10490774D01*
X16735963Y-10690774D02*
X16745487Y-10681250D01*
X16745487Y-10681250D02*
X16764534Y-10652679D01*
X16764534Y-10652679D02*
X16774058Y-10633631D01*
X16774058Y-10633631D02*
X16783582Y-10605060D01*
X16783582Y-10605060D02*
X16793106Y-10557441D01*
X16793106Y-10557441D02*
X16793106Y-10519346D01*
X16793106Y-10519346D02*
X16783582Y-10471727D01*
X16783582Y-10471727D02*
X16774058Y-10443155D01*
X16774058Y-10443155D02*
X16764534Y-10424108D01*
X16764534Y-10424108D02*
X16745487Y-10395536D01*
X16745487Y-10395536D02*
X16735963Y-10386012D01*
D12*
X11960900Y-10787100D02*
G75*
G02*
X11880900Y-10787100I-40000J0D01*
G01*
X11880900Y-10787100D02*
G75*
G02*
X11960900Y-10787100I40000J0D01*
G01*
D11*
X12259772Y-10678584D02*
X12278820Y-10678584D01*
X12278820Y-10678584D02*
X12297867Y-10688108D01*
X12297867Y-10688108D02*
X12307391Y-10697631D01*
X12307391Y-10697631D02*
X12316915Y-10716679D01*
X12316915Y-10716679D02*
X12326439Y-10754774D01*
X12326439Y-10754774D02*
X12326439Y-10802393D01*
X12326439Y-10802393D02*
X12316915Y-10840489D01*
X12316915Y-10840489D02*
X12307391Y-10859536D01*
X12307391Y-10859536D02*
X12297867Y-10869060D01*
X12297867Y-10869060D02*
X12278820Y-10878584D01*
X12278820Y-10878584D02*
X12259772Y-10878584D01*
X12259772Y-10878584D02*
X12240724Y-10869060D01*
X12240724Y-10869060D02*
X12231201Y-10859536D01*
X12231201Y-10859536D02*
X12221677Y-10840489D01*
X12221677Y-10840489D02*
X12212153Y-10802393D01*
X12212153Y-10802393D02*
X12212153Y-10754774D01*
X12212153Y-10754774D02*
X12221677Y-10716679D01*
X12221677Y-10716679D02*
X12231201Y-10697631D01*
X12231201Y-10697631D02*
X12240724Y-10688108D01*
X12240724Y-10688108D02*
X12259772Y-10678584D01*
X12412153Y-10859536D02*
X12421677Y-10869060D01*
X12421677Y-10869060D02*
X12412153Y-10878584D01*
X12412153Y-10878584D02*
X12402629Y-10869060D01*
X12402629Y-10869060D02*
X12412153Y-10859536D01*
X12412153Y-10859536D02*
X12412153Y-10878584D01*
X12535962Y-10764298D02*
X12516915Y-10754774D01*
X12516915Y-10754774D02*
X12507391Y-10745250D01*
X12507391Y-10745250D02*
X12497867Y-10726203D01*
X12497867Y-10726203D02*
X12497867Y-10716679D01*
X12497867Y-10716679D02*
X12507391Y-10697631D01*
X12507391Y-10697631D02*
X12516915Y-10688108D01*
X12516915Y-10688108D02*
X12535962Y-10678584D01*
X12535962Y-10678584D02*
X12574058Y-10678584D01*
X12574058Y-10678584D02*
X12593105Y-10688108D01*
X12593105Y-10688108D02*
X12602629Y-10697631D01*
X12602629Y-10697631D02*
X12612153Y-10716679D01*
X12612153Y-10716679D02*
X12612153Y-10726203D01*
X12612153Y-10726203D02*
X12602629Y-10745250D01*
X12602629Y-10745250D02*
X12593105Y-10754774D01*
X12593105Y-10754774D02*
X12574058Y-10764298D01*
X12574058Y-10764298D02*
X12535962Y-10764298D01*
X12535962Y-10764298D02*
X12516915Y-10773822D01*
X12516915Y-10773822D02*
X12507391Y-10783346D01*
X12507391Y-10783346D02*
X12497867Y-10802393D01*
X12497867Y-10802393D02*
X12497867Y-10840489D01*
X12497867Y-10840489D02*
X12507391Y-10859536D01*
X12507391Y-10859536D02*
X12516915Y-10869060D01*
X12516915Y-10869060D02*
X12535962Y-10878584D01*
X12535962Y-10878584D02*
X12574058Y-10878584D01*
X12574058Y-10878584D02*
X12593105Y-10869060D01*
X12593105Y-10869060D02*
X12602629Y-10859536D01*
X12602629Y-10859536D02*
X12612153Y-10840489D01*
X12612153Y-10840489D02*
X12612153Y-10802393D01*
X12612153Y-10802393D02*
X12602629Y-10783346D01*
X12602629Y-10783346D02*
X12593105Y-10773822D01*
X12593105Y-10773822D02*
X12574058Y-10764298D01*
X12735962Y-10678584D02*
X12755010Y-10678584D01*
X12755010Y-10678584D02*
X12774058Y-10688108D01*
X12774058Y-10688108D02*
X12783582Y-10697631D01*
X12783582Y-10697631D02*
X12793105Y-10716679D01*
X12793105Y-10716679D02*
X12802629Y-10754774D01*
X12802629Y-10754774D02*
X12802629Y-10802393D01*
X12802629Y-10802393D02*
X12793105Y-10840489D01*
X12793105Y-10840489D02*
X12783582Y-10859536D01*
X12783582Y-10859536D02*
X12774058Y-10869060D01*
X12774058Y-10869060D02*
X12755010Y-10878584D01*
X12755010Y-10878584D02*
X12735962Y-10878584D01*
X12735962Y-10878584D02*
X12716915Y-10869060D01*
X12716915Y-10869060D02*
X12707391Y-10859536D01*
X12707391Y-10859536D02*
X12697867Y-10840489D01*
X12697867Y-10840489D02*
X12688343Y-10802393D01*
X12688343Y-10802393D02*
X12688343Y-10754774D01*
X12688343Y-10754774D02*
X12697867Y-10716679D01*
X12697867Y-10716679D02*
X12707391Y-10697631D01*
X12707391Y-10697631D02*
X12716915Y-10688108D01*
X12716915Y-10688108D02*
X12735962Y-10678584D01*
X12926439Y-10678584D02*
X12945486Y-10678584D01*
X12945486Y-10678584D02*
X12964534Y-10688108D01*
X12964534Y-10688108D02*
X12974058Y-10697631D01*
X12974058Y-10697631D02*
X12983582Y-10716679D01*
X12983582Y-10716679D02*
X12993105Y-10754774D01*
X12993105Y-10754774D02*
X12993105Y-10802393D01*
X12993105Y-10802393D02*
X12983582Y-10840489D01*
X12983582Y-10840489D02*
X12974058Y-10859536D01*
X12974058Y-10859536D02*
X12964534Y-10869060D01*
X12964534Y-10869060D02*
X12945486Y-10878584D01*
X12945486Y-10878584D02*
X12926439Y-10878584D01*
X12926439Y-10878584D02*
X12907391Y-10869060D01*
X12907391Y-10869060D02*
X12897867Y-10859536D01*
X12897867Y-10859536D02*
X12888343Y-10840489D01*
X12888343Y-10840489D02*
X12878820Y-10802393D01*
X12878820Y-10802393D02*
X12878820Y-10754774D01*
X12878820Y-10754774D02*
X12888343Y-10716679D01*
X12888343Y-10716679D02*
X12897867Y-10697631D01*
X12897867Y-10697631D02*
X12907391Y-10688108D01*
X12907391Y-10688108D02*
X12926439Y-10678584D01*
X13078820Y-10878584D02*
X13078820Y-10745250D01*
X13078820Y-10764298D02*
X13088343Y-10754774D01*
X13088343Y-10754774D02*
X13107391Y-10745250D01*
X13107391Y-10745250D02*
X13135963Y-10745250D01*
X13135963Y-10745250D02*
X13155010Y-10754774D01*
X13155010Y-10754774D02*
X13164534Y-10773822D01*
X13164534Y-10773822D02*
X13164534Y-10878584D01*
X13164534Y-10773822D02*
X13174058Y-10754774D01*
X13174058Y-10754774D02*
X13193105Y-10745250D01*
X13193105Y-10745250D02*
X13221677Y-10745250D01*
X13221677Y-10745250D02*
X13240724Y-10754774D01*
X13240724Y-10754774D02*
X13250248Y-10773822D01*
X13250248Y-10773822D02*
X13250248Y-10878584D01*
X13345486Y-10878584D02*
X13345486Y-10745250D01*
X13345486Y-10764298D02*
X13355010Y-10754774D01*
X13355010Y-10754774D02*
X13374058Y-10745250D01*
X13374058Y-10745250D02*
X13402629Y-10745250D01*
X13402629Y-10745250D02*
X13421677Y-10754774D01*
X13421677Y-10754774D02*
X13431201Y-10773822D01*
X13431201Y-10773822D02*
X13431201Y-10878584D01*
X13431201Y-10773822D02*
X13440724Y-10754774D01*
X13440724Y-10754774D02*
X13459772Y-10745250D01*
X13459772Y-10745250D02*
X13488343Y-10745250D01*
X13488343Y-10745250D02*
X13507391Y-10754774D01*
X13507391Y-10754774D02*
X13516915Y-10773822D01*
X13516915Y-10773822D02*
X13516915Y-10878584D01*
X13907391Y-10669060D02*
X13735963Y-10926203D01*
X14164534Y-10678584D02*
X14183582Y-10678584D01*
X14183582Y-10678584D02*
X14202629Y-10688108D01*
X14202629Y-10688108D02*
X14212153Y-10697631D01*
X14212153Y-10697631D02*
X14221677Y-10716679D01*
X14221677Y-10716679D02*
X14231201Y-10754774D01*
X14231201Y-10754774D02*
X14231201Y-10802393D01*
X14231201Y-10802393D02*
X14221677Y-10840489D01*
X14221677Y-10840489D02*
X14212153Y-10859536D01*
X14212153Y-10859536D02*
X14202629Y-10869060D01*
X14202629Y-10869060D02*
X14183582Y-10878584D01*
X14183582Y-10878584D02*
X14164534Y-10878584D01*
X14164534Y-10878584D02*
X14145486Y-10869060D01*
X14145486Y-10869060D02*
X14135963Y-10859536D01*
X14135963Y-10859536D02*
X14126439Y-10840489D01*
X14126439Y-10840489D02*
X14116915Y-10802393D01*
X14116915Y-10802393D02*
X14116915Y-10754774D01*
X14116915Y-10754774D02*
X14126439Y-10716679D01*
X14126439Y-10716679D02*
X14135963Y-10697631D01*
X14135963Y-10697631D02*
X14145486Y-10688108D01*
X14145486Y-10688108D02*
X14164534Y-10678584D01*
X14316915Y-10859536D02*
X14326439Y-10869060D01*
X14326439Y-10869060D02*
X14316915Y-10878584D01*
X14316915Y-10878584D02*
X14307391Y-10869060D01*
X14307391Y-10869060D02*
X14316915Y-10859536D01*
X14316915Y-10859536D02*
X14316915Y-10878584D01*
X14450248Y-10678584D02*
X14469296Y-10678584D01*
X14469296Y-10678584D02*
X14488344Y-10688108D01*
X14488344Y-10688108D02*
X14497867Y-10697631D01*
X14497867Y-10697631D02*
X14507391Y-10716679D01*
X14507391Y-10716679D02*
X14516915Y-10754774D01*
X14516915Y-10754774D02*
X14516915Y-10802393D01*
X14516915Y-10802393D02*
X14507391Y-10840489D01*
X14507391Y-10840489D02*
X14497867Y-10859536D01*
X14497867Y-10859536D02*
X14488344Y-10869060D01*
X14488344Y-10869060D02*
X14469296Y-10878584D01*
X14469296Y-10878584D02*
X14450248Y-10878584D01*
X14450248Y-10878584D02*
X14431201Y-10869060D01*
X14431201Y-10869060D02*
X14421677Y-10859536D01*
X14421677Y-10859536D02*
X14412153Y-10840489D01*
X14412153Y-10840489D02*
X14402629Y-10802393D01*
X14402629Y-10802393D02*
X14402629Y-10754774D01*
X14402629Y-10754774D02*
X14412153Y-10716679D01*
X14412153Y-10716679D02*
X14421677Y-10697631D01*
X14421677Y-10697631D02*
X14431201Y-10688108D01*
X14431201Y-10688108D02*
X14450248Y-10678584D01*
X14583582Y-10678584D02*
X14707391Y-10678584D01*
X14707391Y-10678584D02*
X14640725Y-10754774D01*
X14640725Y-10754774D02*
X14669296Y-10754774D01*
X14669296Y-10754774D02*
X14688344Y-10764298D01*
X14688344Y-10764298D02*
X14697867Y-10773822D01*
X14697867Y-10773822D02*
X14707391Y-10792870D01*
X14707391Y-10792870D02*
X14707391Y-10840489D01*
X14707391Y-10840489D02*
X14697867Y-10859536D01*
X14697867Y-10859536D02*
X14688344Y-10869060D01*
X14688344Y-10869060D02*
X14669296Y-10878584D01*
X14669296Y-10878584D02*
X14612153Y-10878584D01*
X14612153Y-10878584D02*
X14593106Y-10869060D01*
X14593106Y-10869060D02*
X14583582Y-10859536D01*
X14897867Y-10878584D02*
X14783582Y-10878584D01*
X14840725Y-10878584D02*
X14840725Y-10678584D01*
X14840725Y-10678584D02*
X14821677Y-10707155D01*
X14821677Y-10707155D02*
X14802629Y-10726203D01*
X14802629Y-10726203D02*
X14783582Y-10735727D01*
X15078820Y-10678584D02*
X14983582Y-10678584D01*
X14983582Y-10678584D02*
X14974058Y-10773822D01*
X14974058Y-10773822D02*
X14983582Y-10764298D01*
X14983582Y-10764298D02*
X15002629Y-10754774D01*
X15002629Y-10754774D02*
X15050248Y-10754774D01*
X15050248Y-10754774D02*
X15069296Y-10764298D01*
X15069296Y-10764298D02*
X15078820Y-10773822D01*
X15078820Y-10773822D02*
X15088344Y-10792870D01*
X15088344Y-10792870D02*
X15088344Y-10840489D01*
X15088344Y-10840489D02*
X15078820Y-10859536D01*
X15078820Y-10859536D02*
X15069296Y-10869060D01*
X15069296Y-10869060D02*
X15050248Y-10878584D01*
X15050248Y-10878584D02*
X15002629Y-10878584D01*
X15002629Y-10878584D02*
X14983582Y-10869060D01*
X14983582Y-10869060D02*
X14974058Y-10859536D01*
X15164534Y-10678584D02*
X15164534Y-10716679D01*
X15240725Y-10678584D02*
X15240725Y-10716679D01*
X15535963Y-10954774D02*
X15526439Y-10945250D01*
X15526439Y-10945250D02*
X15507391Y-10916679D01*
X15507391Y-10916679D02*
X15497868Y-10897631D01*
X15497868Y-10897631D02*
X15488344Y-10869060D01*
X15488344Y-10869060D02*
X15478820Y-10821441D01*
X15478820Y-10821441D02*
X15478820Y-10783346D01*
X15478820Y-10783346D02*
X15488344Y-10735727D01*
X15488344Y-10735727D02*
X15497868Y-10707155D01*
X15497868Y-10707155D02*
X15507391Y-10688108D01*
X15507391Y-10688108D02*
X15526439Y-10659536D01*
X15526439Y-10659536D02*
X15535963Y-10650012D01*
X15593106Y-10678584D02*
X15716915Y-10678584D01*
X15716915Y-10678584D02*
X15650248Y-10754774D01*
X15650248Y-10754774D02*
X15678820Y-10754774D01*
X15678820Y-10754774D02*
X15697868Y-10764298D01*
X15697868Y-10764298D02*
X15707391Y-10773822D01*
X15707391Y-10773822D02*
X15716915Y-10792870D01*
X15716915Y-10792870D02*
X15716915Y-10840489D01*
X15716915Y-10840489D02*
X15707391Y-10859536D01*
X15707391Y-10859536D02*
X15697868Y-10869060D01*
X15697868Y-10869060D02*
X15678820Y-10878584D01*
X15678820Y-10878584D02*
X15621677Y-10878584D01*
X15621677Y-10878584D02*
X15602629Y-10869060D01*
X15602629Y-10869060D02*
X15593106Y-10859536D01*
X15840725Y-10678584D02*
X15859772Y-10678584D01*
X15859772Y-10678584D02*
X15878820Y-10688108D01*
X15878820Y-10688108D02*
X15888344Y-10697631D01*
X15888344Y-10697631D02*
X15897868Y-10716679D01*
X15897868Y-10716679D02*
X15907391Y-10754774D01*
X15907391Y-10754774D02*
X15907391Y-10802393D01*
X15907391Y-10802393D02*
X15897868Y-10840489D01*
X15897868Y-10840489D02*
X15888344Y-10859536D01*
X15888344Y-10859536D02*
X15878820Y-10869060D01*
X15878820Y-10869060D02*
X15859772Y-10878584D01*
X15859772Y-10878584D02*
X15840725Y-10878584D01*
X15840725Y-10878584D02*
X15821677Y-10869060D01*
X15821677Y-10869060D02*
X15812153Y-10859536D01*
X15812153Y-10859536D02*
X15802629Y-10840489D01*
X15802629Y-10840489D02*
X15793106Y-10802393D01*
X15793106Y-10802393D02*
X15793106Y-10754774D01*
X15793106Y-10754774D02*
X15802629Y-10716679D01*
X15802629Y-10716679D02*
X15812153Y-10697631D01*
X15812153Y-10697631D02*
X15821677Y-10688108D01*
X15821677Y-10688108D02*
X15840725Y-10678584D01*
X16145487Y-10878584D02*
X16145487Y-10678584D01*
X16231201Y-10878584D02*
X16231201Y-10773822D01*
X16231201Y-10773822D02*
X16221677Y-10754774D01*
X16221677Y-10754774D02*
X16202630Y-10745250D01*
X16202630Y-10745250D02*
X16174058Y-10745250D01*
X16174058Y-10745250D02*
X16155010Y-10754774D01*
X16155010Y-10754774D02*
X16145487Y-10764298D01*
X16355010Y-10878584D02*
X16335963Y-10869060D01*
X16335963Y-10869060D02*
X16326439Y-10859536D01*
X16326439Y-10859536D02*
X16316915Y-10840489D01*
X16316915Y-10840489D02*
X16316915Y-10783346D01*
X16316915Y-10783346D02*
X16326439Y-10764298D01*
X16326439Y-10764298D02*
X16335963Y-10754774D01*
X16335963Y-10754774D02*
X16355010Y-10745250D01*
X16355010Y-10745250D02*
X16383582Y-10745250D01*
X16383582Y-10745250D02*
X16402630Y-10754774D01*
X16402630Y-10754774D02*
X16412153Y-10764298D01*
X16412153Y-10764298D02*
X16421677Y-10783346D01*
X16421677Y-10783346D02*
X16421677Y-10840489D01*
X16421677Y-10840489D02*
X16412153Y-10859536D01*
X16412153Y-10859536D02*
X16402630Y-10869060D01*
X16402630Y-10869060D02*
X16383582Y-10878584D01*
X16383582Y-10878584D02*
X16355010Y-10878584D01*
X16535963Y-10878584D02*
X16516915Y-10869060D01*
X16516915Y-10869060D02*
X16507391Y-10850012D01*
X16507391Y-10850012D02*
X16507391Y-10678584D01*
X16688344Y-10869060D02*
X16669296Y-10878584D01*
X16669296Y-10878584D02*
X16631201Y-10878584D01*
X16631201Y-10878584D02*
X16612153Y-10869060D01*
X16612153Y-10869060D02*
X16602630Y-10850012D01*
X16602630Y-10850012D02*
X16602630Y-10773822D01*
X16602630Y-10773822D02*
X16612153Y-10754774D01*
X16612153Y-10754774D02*
X16631201Y-10745250D01*
X16631201Y-10745250D02*
X16669296Y-10745250D01*
X16669296Y-10745250D02*
X16688344Y-10754774D01*
X16688344Y-10754774D02*
X16697868Y-10773822D01*
X16697868Y-10773822D02*
X16697868Y-10792870D01*
X16697868Y-10792870D02*
X16602630Y-10811917D01*
X16774058Y-10869060D02*
X16793106Y-10878584D01*
X16793106Y-10878584D02*
X16831201Y-10878584D01*
X16831201Y-10878584D02*
X16850249Y-10869060D01*
X16850249Y-10869060D02*
X16859773Y-10850012D01*
X16859773Y-10850012D02*
X16859773Y-10840489D01*
X16859773Y-10840489D02*
X16850249Y-10821441D01*
X16850249Y-10821441D02*
X16831201Y-10811917D01*
X16831201Y-10811917D02*
X16802630Y-10811917D01*
X16802630Y-10811917D02*
X16783582Y-10802393D01*
X16783582Y-10802393D02*
X16774058Y-10783346D01*
X16774058Y-10783346D02*
X16774058Y-10773822D01*
X16774058Y-10773822D02*
X16783582Y-10754774D01*
X16783582Y-10754774D02*
X16802630Y-10745250D01*
X16802630Y-10745250D02*
X16831201Y-10745250D01*
X16831201Y-10745250D02*
X16850249Y-10754774D01*
X16926439Y-10954774D02*
X16935963Y-10945250D01*
X16935963Y-10945250D02*
X16955011Y-10916679D01*
X16955011Y-10916679D02*
X16964534Y-10897631D01*
X16964534Y-10897631D02*
X16974058Y-10869060D01*
X16974058Y-10869060D02*
X16983582Y-10821441D01*
X16983582Y-10821441D02*
X16983582Y-10783346D01*
X16983582Y-10783346D02*
X16974058Y-10735727D01*
X16974058Y-10735727D02*
X16964534Y-10707155D01*
X16964534Y-10707155D02*
X16955011Y-10688108D01*
X16955011Y-10688108D02*
X16935963Y-10659536D01*
X16935963Y-10659536D02*
X16926439Y-10650012D01*
D12*
X11915900Y-11006100D02*
X11915900Y-11096100D01*
X11870900Y-11051100D02*
X11960900Y-11051100D01*
D11*
X12259772Y-10942584D02*
X12278820Y-10942584D01*
X12278820Y-10942584D02*
X12297867Y-10952108D01*
X12297867Y-10952108D02*
X12307391Y-10961631D01*
X12307391Y-10961631D02*
X12316915Y-10980679D01*
X12316915Y-10980679D02*
X12326439Y-11018774D01*
X12326439Y-11018774D02*
X12326439Y-11066393D01*
X12326439Y-11066393D02*
X12316915Y-11104489D01*
X12316915Y-11104489D02*
X12307391Y-11123536D01*
X12307391Y-11123536D02*
X12297867Y-11133060D01*
X12297867Y-11133060D02*
X12278820Y-11142584D01*
X12278820Y-11142584D02*
X12259772Y-11142584D01*
X12259772Y-11142584D02*
X12240724Y-11133060D01*
X12240724Y-11133060D02*
X12231201Y-11123536D01*
X12231201Y-11123536D02*
X12221677Y-11104489D01*
X12221677Y-11104489D02*
X12212153Y-11066393D01*
X12212153Y-11066393D02*
X12212153Y-11018774D01*
X12212153Y-11018774D02*
X12221677Y-10980679D01*
X12221677Y-10980679D02*
X12231201Y-10961631D01*
X12231201Y-10961631D02*
X12240724Y-10952108D01*
X12240724Y-10952108D02*
X12259772Y-10942584D01*
X12412153Y-11123536D02*
X12421677Y-11133060D01*
X12421677Y-11133060D02*
X12412153Y-11142584D01*
X12412153Y-11142584D02*
X12402629Y-11133060D01*
X12402629Y-11133060D02*
X12412153Y-11123536D01*
X12412153Y-11123536D02*
X12412153Y-11142584D01*
X12516915Y-11142584D02*
X12555010Y-11142584D01*
X12555010Y-11142584D02*
X12574058Y-11133060D01*
X12574058Y-11133060D02*
X12583582Y-11123536D01*
X12583582Y-11123536D02*
X12602629Y-11094965D01*
X12602629Y-11094965D02*
X12612153Y-11056870D01*
X12612153Y-11056870D02*
X12612153Y-10980679D01*
X12612153Y-10980679D02*
X12602629Y-10961631D01*
X12602629Y-10961631D02*
X12593105Y-10952108D01*
X12593105Y-10952108D02*
X12574058Y-10942584D01*
X12574058Y-10942584D02*
X12535962Y-10942584D01*
X12535962Y-10942584D02*
X12516915Y-10952108D01*
X12516915Y-10952108D02*
X12507391Y-10961631D01*
X12507391Y-10961631D02*
X12497867Y-10980679D01*
X12497867Y-10980679D02*
X12497867Y-11028298D01*
X12497867Y-11028298D02*
X12507391Y-11047346D01*
X12507391Y-11047346D02*
X12516915Y-11056870D01*
X12516915Y-11056870D02*
X12535962Y-11066393D01*
X12535962Y-11066393D02*
X12574058Y-11066393D01*
X12574058Y-11066393D02*
X12593105Y-11056870D01*
X12593105Y-11056870D02*
X12602629Y-11047346D01*
X12602629Y-11047346D02*
X12612153Y-11028298D01*
X12735962Y-10942584D02*
X12755010Y-10942584D01*
X12755010Y-10942584D02*
X12774058Y-10952108D01*
X12774058Y-10952108D02*
X12783582Y-10961631D01*
X12783582Y-10961631D02*
X12793105Y-10980679D01*
X12793105Y-10980679D02*
X12802629Y-11018774D01*
X12802629Y-11018774D02*
X12802629Y-11066393D01*
X12802629Y-11066393D02*
X12793105Y-11104489D01*
X12793105Y-11104489D02*
X12783582Y-11123536D01*
X12783582Y-11123536D02*
X12774058Y-11133060D01*
X12774058Y-11133060D02*
X12755010Y-11142584D01*
X12755010Y-11142584D02*
X12735962Y-11142584D01*
X12735962Y-11142584D02*
X12716915Y-11133060D01*
X12716915Y-11133060D02*
X12707391Y-11123536D01*
X12707391Y-11123536D02*
X12697867Y-11104489D01*
X12697867Y-11104489D02*
X12688343Y-11066393D01*
X12688343Y-11066393D02*
X12688343Y-11018774D01*
X12688343Y-11018774D02*
X12697867Y-10980679D01*
X12697867Y-10980679D02*
X12707391Y-10961631D01*
X12707391Y-10961631D02*
X12716915Y-10952108D01*
X12716915Y-10952108D02*
X12735962Y-10942584D01*
X12926439Y-10942584D02*
X12945486Y-10942584D01*
X12945486Y-10942584D02*
X12964534Y-10952108D01*
X12964534Y-10952108D02*
X12974058Y-10961631D01*
X12974058Y-10961631D02*
X12983582Y-10980679D01*
X12983582Y-10980679D02*
X12993105Y-11018774D01*
X12993105Y-11018774D02*
X12993105Y-11066393D01*
X12993105Y-11066393D02*
X12983582Y-11104489D01*
X12983582Y-11104489D02*
X12974058Y-11123536D01*
X12974058Y-11123536D02*
X12964534Y-11133060D01*
X12964534Y-11133060D02*
X12945486Y-11142584D01*
X12945486Y-11142584D02*
X12926439Y-11142584D01*
X12926439Y-11142584D02*
X12907391Y-11133060D01*
X12907391Y-11133060D02*
X12897867Y-11123536D01*
X12897867Y-11123536D02*
X12888343Y-11104489D01*
X12888343Y-11104489D02*
X12878820Y-11066393D01*
X12878820Y-11066393D02*
X12878820Y-11018774D01*
X12878820Y-11018774D02*
X12888343Y-10980679D01*
X12888343Y-10980679D02*
X12897867Y-10961631D01*
X12897867Y-10961631D02*
X12907391Y-10952108D01*
X12907391Y-10952108D02*
X12926439Y-10942584D01*
X13078820Y-11142584D02*
X13078820Y-11009250D01*
X13078820Y-11028298D02*
X13088343Y-11018774D01*
X13088343Y-11018774D02*
X13107391Y-11009250D01*
X13107391Y-11009250D02*
X13135963Y-11009250D01*
X13135963Y-11009250D02*
X13155010Y-11018774D01*
X13155010Y-11018774D02*
X13164534Y-11037822D01*
X13164534Y-11037822D02*
X13164534Y-11142584D01*
X13164534Y-11037822D02*
X13174058Y-11018774D01*
X13174058Y-11018774D02*
X13193105Y-11009250D01*
X13193105Y-11009250D02*
X13221677Y-11009250D01*
X13221677Y-11009250D02*
X13240724Y-11018774D01*
X13240724Y-11018774D02*
X13250248Y-11037822D01*
X13250248Y-11037822D02*
X13250248Y-11142584D01*
X13345486Y-11142584D02*
X13345486Y-11009250D01*
X13345486Y-11028298D02*
X13355010Y-11018774D01*
X13355010Y-11018774D02*
X13374058Y-11009250D01*
X13374058Y-11009250D02*
X13402629Y-11009250D01*
X13402629Y-11009250D02*
X13421677Y-11018774D01*
X13421677Y-11018774D02*
X13431201Y-11037822D01*
X13431201Y-11037822D02*
X13431201Y-11142584D01*
X13431201Y-11037822D02*
X13440724Y-11018774D01*
X13440724Y-11018774D02*
X13459772Y-11009250D01*
X13459772Y-11009250D02*
X13488343Y-11009250D01*
X13488343Y-11009250D02*
X13507391Y-11018774D01*
X13507391Y-11018774D02*
X13516915Y-11037822D01*
X13516915Y-11037822D02*
X13516915Y-11142584D01*
X13907391Y-10933060D02*
X13735963Y-11190203D01*
X14164534Y-10942584D02*
X14183582Y-10942584D01*
X14183582Y-10942584D02*
X14202629Y-10952108D01*
X14202629Y-10952108D02*
X14212153Y-10961631D01*
X14212153Y-10961631D02*
X14221677Y-10980679D01*
X14221677Y-10980679D02*
X14231201Y-11018774D01*
X14231201Y-11018774D02*
X14231201Y-11066393D01*
X14231201Y-11066393D02*
X14221677Y-11104489D01*
X14221677Y-11104489D02*
X14212153Y-11123536D01*
X14212153Y-11123536D02*
X14202629Y-11133060D01*
X14202629Y-11133060D02*
X14183582Y-11142584D01*
X14183582Y-11142584D02*
X14164534Y-11142584D01*
X14164534Y-11142584D02*
X14145486Y-11133060D01*
X14145486Y-11133060D02*
X14135963Y-11123536D01*
X14135963Y-11123536D02*
X14126439Y-11104489D01*
X14126439Y-11104489D02*
X14116915Y-11066393D01*
X14116915Y-11066393D02*
X14116915Y-11018774D01*
X14116915Y-11018774D02*
X14126439Y-10980679D01*
X14126439Y-10980679D02*
X14135963Y-10961631D01*
X14135963Y-10961631D02*
X14145486Y-10952108D01*
X14145486Y-10952108D02*
X14164534Y-10942584D01*
X14316915Y-11123536D02*
X14326439Y-11133060D01*
X14326439Y-11133060D02*
X14316915Y-11142584D01*
X14316915Y-11142584D02*
X14307391Y-11133060D01*
X14307391Y-11133060D02*
X14316915Y-11123536D01*
X14316915Y-11123536D02*
X14316915Y-11142584D01*
X14450248Y-10942584D02*
X14469296Y-10942584D01*
X14469296Y-10942584D02*
X14488344Y-10952108D01*
X14488344Y-10952108D02*
X14497867Y-10961631D01*
X14497867Y-10961631D02*
X14507391Y-10980679D01*
X14507391Y-10980679D02*
X14516915Y-11018774D01*
X14516915Y-11018774D02*
X14516915Y-11066393D01*
X14516915Y-11066393D02*
X14507391Y-11104489D01*
X14507391Y-11104489D02*
X14497867Y-11123536D01*
X14497867Y-11123536D02*
X14488344Y-11133060D01*
X14488344Y-11133060D02*
X14469296Y-11142584D01*
X14469296Y-11142584D02*
X14450248Y-11142584D01*
X14450248Y-11142584D02*
X14431201Y-11133060D01*
X14431201Y-11133060D02*
X14421677Y-11123536D01*
X14421677Y-11123536D02*
X14412153Y-11104489D01*
X14412153Y-11104489D02*
X14402629Y-11066393D01*
X14402629Y-11066393D02*
X14402629Y-11018774D01*
X14402629Y-11018774D02*
X14412153Y-10980679D01*
X14412153Y-10980679D02*
X14421677Y-10961631D01*
X14421677Y-10961631D02*
X14431201Y-10952108D01*
X14431201Y-10952108D02*
X14450248Y-10942584D01*
X14583582Y-10942584D02*
X14707391Y-10942584D01*
X14707391Y-10942584D02*
X14640725Y-11018774D01*
X14640725Y-11018774D02*
X14669296Y-11018774D01*
X14669296Y-11018774D02*
X14688344Y-11028298D01*
X14688344Y-11028298D02*
X14697867Y-11037822D01*
X14697867Y-11037822D02*
X14707391Y-11056870D01*
X14707391Y-11056870D02*
X14707391Y-11104489D01*
X14707391Y-11104489D02*
X14697867Y-11123536D01*
X14697867Y-11123536D02*
X14688344Y-11133060D01*
X14688344Y-11133060D02*
X14669296Y-11142584D01*
X14669296Y-11142584D02*
X14612153Y-11142584D01*
X14612153Y-11142584D02*
X14593106Y-11133060D01*
X14593106Y-11133060D02*
X14583582Y-11123536D01*
X14888344Y-10942584D02*
X14793106Y-10942584D01*
X14793106Y-10942584D02*
X14783582Y-11037822D01*
X14783582Y-11037822D02*
X14793106Y-11028298D01*
X14793106Y-11028298D02*
X14812153Y-11018774D01*
X14812153Y-11018774D02*
X14859772Y-11018774D01*
X14859772Y-11018774D02*
X14878820Y-11028298D01*
X14878820Y-11028298D02*
X14888344Y-11037822D01*
X14888344Y-11037822D02*
X14897867Y-11056870D01*
X14897867Y-11056870D02*
X14897867Y-11104489D01*
X14897867Y-11104489D02*
X14888344Y-11123536D01*
X14888344Y-11123536D02*
X14878820Y-11133060D01*
X14878820Y-11133060D02*
X14859772Y-11142584D01*
X14859772Y-11142584D02*
X14812153Y-11142584D01*
X14812153Y-11142584D02*
X14793106Y-11133060D01*
X14793106Y-11133060D02*
X14783582Y-11123536D01*
X15069296Y-11009250D02*
X15069296Y-11142584D01*
X15021677Y-10933060D02*
X14974058Y-11075917D01*
X14974058Y-11075917D02*
X15097867Y-11075917D01*
X15164534Y-10942584D02*
X15164534Y-10980679D01*
X15240725Y-10942584D02*
X15240725Y-10980679D01*
X15535963Y-11218774D02*
X15526439Y-11209250D01*
X15526439Y-11209250D02*
X15507391Y-11180679D01*
X15507391Y-11180679D02*
X15497868Y-11161631D01*
X15497868Y-11161631D02*
X15488344Y-11133060D01*
X15488344Y-11133060D02*
X15478820Y-11085441D01*
X15478820Y-11085441D02*
X15478820Y-11047346D01*
X15478820Y-11047346D02*
X15488344Y-10999727D01*
X15488344Y-10999727D02*
X15497868Y-10971155D01*
X15497868Y-10971155D02*
X15507391Y-10952108D01*
X15507391Y-10952108D02*
X15526439Y-10923536D01*
X15526439Y-10923536D02*
X15535963Y-10914012D01*
X15697868Y-11009250D02*
X15697868Y-11142584D01*
X15650248Y-10933060D02*
X15602629Y-11075917D01*
X15602629Y-11075917D02*
X15726439Y-11075917D01*
X15955010Y-11142584D02*
X15955010Y-10942584D01*
X16040725Y-11142584D02*
X16040725Y-11037822D01*
X16040725Y-11037822D02*
X16031201Y-11018774D01*
X16031201Y-11018774D02*
X16012153Y-11009250D01*
X16012153Y-11009250D02*
X15983582Y-11009250D01*
X15983582Y-11009250D02*
X15964534Y-11018774D01*
X15964534Y-11018774D02*
X15955010Y-11028298D01*
X16164534Y-11142584D02*
X16145487Y-11133060D01*
X16145487Y-11133060D02*
X16135963Y-11123536D01*
X16135963Y-11123536D02*
X16126439Y-11104489D01*
X16126439Y-11104489D02*
X16126439Y-11047346D01*
X16126439Y-11047346D02*
X16135963Y-11028298D01*
X16135963Y-11028298D02*
X16145487Y-11018774D01*
X16145487Y-11018774D02*
X16164534Y-11009250D01*
X16164534Y-11009250D02*
X16193106Y-11009250D01*
X16193106Y-11009250D02*
X16212153Y-11018774D01*
X16212153Y-11018774D02*
X16221677Y-11028298D01*
X16221677Y-11028298D02*
X16231201Y-11047346D01*
X16231201Y-11047346D02*
X16231201Y-11104489D01*
X16231201Y-11104489D02*
X16221677Y-11123536D01*
X16221677Y-11123536D02*
X16212153Y-11133060D01*
X16212153Y-11133060D02*
X16193106Y-11142584D01*
X16193106Y-11142584D02*
X16164534Y-11142584D01*
X16345487Y-11142584D02*
X16326439Y-11133060D01*
X16326439Y-11133060D02*
X16316915Y-11114012D01*
X16316915Y-11114012D02*
X16316915Y-10942584D01*
X16497868Y-11133060D02*
X16478820Y-11142584D01*
X16478820Y-11142584D02*
X16440725Y-11142584D01*
X16440725Y-11142584D02*
X16421677Y-11133060D01*
X16421677Y-11133060D02*
X16412153Y-11114012D01*
X16412153Y-11114012D02*
X16412153Y-11037822D01*
X16412153Y-11037822D02*
X16421677Y-11018774D01*
X16421677Y-11018774D02*
X16440725Y-11009250D01*
X16440725Y-11009250D02*
X16478820Y-11009250D01*
X16478820Y-11009250D02*
X16497868Y-11018774D01*
X16497868Y-11018774D02*
X16507391Y-11037822D01*
X16507391Y-11037822D02*
X16507391Y-11056870D01*
X16507391Y-11056870D02*
X16412153Y-11075917D01*
X16583582Y-11133060D02*
X16602630Y-11142584D01*
X16602630Y-11142584D02*
X16640725Y-11142584D01*
X16640725Y-11142584D02*
X16659772Y-11133060D01*
X16659772Y-11133060D02*
X16669296Y-11114012D01*
X16669296Y-11114012D02*
X16669296Y-11104489D01*
X16669296Y-11104489D02*
X16659772Y-11085441D01*
X16659772Y-11085441D02*
X16640725Y-11075917D01*
X16640725Y-11075917D02*
X16612153Y-11075917D01*
X16612153Y-11075917D02*
X16593106Y-11066393D01*
X16593106Y-11066393D02*
X16583582Y-11047346D01*
X16583582Y-11047346D02*
X16583582Y-11037822D01*
X16583582Y-11037822D02*
X16593106Y-11018774D01*
X16593106Y-11018774D02*
X16612153Y-11009250D01*
X16612153Y-11009250D02*
X16640725Y-11009250D01*
X16640725Y-11009250D02*
X16659772Y-11018774D01*
X16735963Y-11218774D02*
X16745487Y-11209250D01*
X16745487Y-11209250D02*
X16764534Y-11180679D01*
X16764534Y-11180679D02*
X16774058Y-11161631D01*
X16774058Y-11161631D02*
X16783582Y-11133060D01*
X16783582Y-11133060D02*
X16793106Y-11085441D01*
X16793106Y-11085441D02*
X16793106Y-11047346D01*
X16793106Y-11047346D02*
X16783582Y-10999727D01*
X16783582Y-10999727D02*
X16774058Y-10971155D01*
X16774058Y-10971155D02*
X16764534Y-10952108D01*
X16764534Y-10952108D02*
X16745487Y-10923536D01*
X16745487Y-10923536D02*
X16735963Y-10914012D01*
D12*
X11946988Y-11348688D02*
X11946988Y-11281512D01*
X11879812Y-11281512D01*
X11879812Y-11348688D01*
X11946988Y-11348688D01*
D11*
X12259772Y-11206584D02*
X12278820Y-11206584D01*
X12278820Y-11206584D02*
X12297867Y-11216108D01*
X12297867Y-11216108D02*
X12307391Y-11225631D01*
X12307391Y-11225631D02*
X12316915Y-11244679D01*
X12316915Y-11244679D02*
X12326439Y-11282774D01*
X12326439Y-11282774D02*
X12326439Y-11330393D01*
X12326439Y-11330393D02*
X12316915Y-11368488D01*
X12316915Y-11368488D02*
X12307391Y-11387536D01*
X12307391Y-11387536D02*
X12297867Y-11397060D01*
X12297867Y-11397060D02*
X12278820Y-11406584D01*
X12278820Y-11406584D02*
X12259772Y-11406584D01*
X12259772Y-11406584D02*
X12240724Y-11397060D01*
X12240724Y-11397060D02*
X12231201Y-11387536D01*
X12231201Y-11387536D02*
X12221677Y-11368488D01*
X12221677Y-11368488D02*
X12212153Y-11330393D01*
X12212153Y-11330393D02*
X12212153Y-11282774D01*
X12212153Y-11282774D02*
X12221677Y-11244679D01*
X12221677Y-11244679D02*
X12231201Y-11225631D01*
X12231201Y-11225631D02*
X12240724Y-11216108D01*
X12240724Y-11216108D02*
X12259772Y-11206584D01*
X12412153Y-11387536D02*
X12421677Y-11397060D01*
X12421677Y-11397060D02*
X12412153Y-11406584D01*
X12412153Y-11406584D02*
X12402629Y-11397060D01*
X12402629Y-11397060D02*
X12412153Y-11387536D01*
X12412153Y-11387536D02*
X12412153Y-11406584D01*
X12516915Y-11406584D02*
X12555010Y-11406584D01*
X12555010Y-11406584D02*
X12574058Y-11397060D01*
X12574058Y-11397060D02*
X12583582Y-11387536D01*
X12583582Y-11387536D02*
X12602629Y-11358965D01*
X12602629Y-11358965D02*
X12612153Y-11320869D01*
X12612153Y-11320869D02*
X12612153Y-11244679D01*
X12612153Y-11244679D02*
X12602629Y-11225631D01*
X12602629Y-11225631D02*
X12593105Y-11216108D01*
X12593105Y-11216108D02*
X12574058Y-11206584D01*
X12574058Y-11206584D02*
X12535962Y-11206584D01*
X12535962Y-11206584D02*
X12516915Y-11216108D01*
X12516915Y-11216108D02*
X12507391Y-11225631D01*
X12507391Y-11225631D02*
X12497867Y-11244679D01*
X12497867Y-11244679D02*
X12497867Y-11292298D01*
X12497867Y-11292298D02*
X12507391Y-11311346D01*
X12507391Y-11311346D02*
X12516915Y-11320869D01*
X12516915Y-11320869D02*
X12535962Y-11330393D01*
X12535962Y-11330393D02*
X12574058Y-11330393D01*
X12574058Y-11330393D02*
X12593105Y-11320869D01*
X12593105Y-11320869D02*
X12602629Y-11311346D01*
X12602629Y-11311346D02*
X12612153Y-11292298D01*
X12793105Y-11206584D02*
X12697867Y-11206584D01*
X12697867Y-11206584D02*
X12688343Y-11301822D01*
X12688343Y-11301822D02*
X12697867Y-11292298D01*
X12697867Y-11292298D02*
X12716915Y-11282774D01*
X12716915Y-11282774D02*
X12764534Y-11282774D01*
X12764534Y-11282774D02*
X12783582Y-11292298D01*
X12783582Y-11292298D02*
X12793105Y-11301822D01*
X12793105Y-11301822D02*
X12802629Y-11320869D01*
X12802629Y-11320869D02*
X12802629Y-11368488D01*
X12802629Y-11368488D02*
X12793105Y-11387536D01*
X12793105Y-11387536D02*
X12783582Y-11397060D01*
X12783582Y-11397060D02*
X12764534Y-11406584D01*
X12764534Y-11406584D02*
X12716915Y-11406584D01*
X12716915Y-11406584D02*
X12697867Y-11397060D01*
X12697867Y-11397060D02*
X12688343Y-11387536D01*
X12926439Y-11206584D02*
X12945486Y-11206584D01*
X12945486Y-11206584D02*
X12964534Y-11216108D01*
X12964534Y-11216108D02*
X12974058Y-11225631D01*
X12974058Y-11225631D02*
X12983582Y-11244679D01*
X12983582Y-11244679D02*
X12993105Y-11282774D01*
X12993105Y-11282774D02*
X12993105Y-11330393D01*
X12993105Y-11330393D02*
X12983582Y-11368488D01*
X12983582Y-11368488D02*
X12974058Y-11387536D01*
X12974058Y-11387536D02*
X12964534Y-11397060D01*
X12964534Y-11397060D02*
X12945486Y-11406584D01*
X12945486Y-11406584D02*
X12926439Y-11406584D01*
X12926439Y-11406584D02*
X12907391Y-11397060D01*
X12907391Y-11397060D02*
X12897867Y-11387536D01*
X12897867Y-11387536D02*
X12888343Y-11368488D01*
X12888343Y-11368488D02*
X12878820Y-11330393D01*
X12878820Y-11330393D02*
X12878820Y-11282774D01*
X12878820Y-11282774D02*
X12888343Y-11244679D01*
X12888343Y-11244679D02*
X12897867Y-11225631D01*
X12897867Y-11225631D02*
X12907391Y-11216108D01*
X12907391Y-11216108D02*
X12926439Y-11206584D01*
X13078820Y-11406584D02*
X13078820Y-11273250D01*
X13078820Y-11292298D02*
X13088343Y-11282774D01*
X13088343Y-11282774D02*
X13107391Y-11273250D01*
X13107391Y-11273250D02*
X13135963Y-11273250D01*
X13135963Y-11273250D02*
X13155010Y-11282774D01*
X13155010Y-11282774D02*
X13164534Y-11301822D01*
X13164534Y-11301822D02*
X13164534Y-11406584D01*
X13164534Y-11301822D02*
X13174058Y-11282774D01*
X13174058Y-11282774D02*
X13193105Y-11273250D01*
X13193105Y-11273250D02*
X13221677Y-11273250D01*
X13221677Y-11273250D02*
X13240724Y-11282774D01*
X13240724Y-11282774D02*
X13250248Y-11301822D01*
X13250248Y-11301822D02*
X13250248Y-11406584D01*
X13345486Y-11406584D02*
X13345486Y-11273250D01*
X13345486Y-11292298D02*
X13355010Y-11282774D01*
X13355010Y-11282774D02*
X13374058Y-11273250D01*
X13374058Y-11273250D02*
X13402629Y-11273250D01*
X13402629Y-11273250D02*
X13421677Y-11282774D01*
X13421677Y-11282774D02*
X13431201Y-11301822D01*
X13431201Y-11301822D02*
X13431201Y-11406584D01*
X13431201Y-11301822D02*
X13440724Y-11282774D01*
X13440724Y-11282774D02*
X13459772Y-11273250D01*
X13459772Y-11273250D02*
X13488343Y-11273250D01*
X13488343Y-11273250D02*
X13507391Y-11282774D01*
X13507391Y-11282774D02*
X13516915Y-11301822D01*
X13516915Y-11301822D02*
X13516915Y-11406584D01*
X13907391Y-11197060D02*
X13735963Y-11454203D01*
X14164534Y-11206584D02*
X14183582Y-11206584D01*
X14183582Y-11206584D02*
X14202629Y-11216108D01*
X14202629Y-11216108D02*
X14212153Y-11225631D01*
X14212153Y-11225631D02*
X14221677Y-11244679D01*
X14221677Y-11244679D02*
X14231201Y-11282774D01*
X14231201Y-11282774D02*
X14231201Y-11330393D01*
X14231201Y-11330393D02*
X14221677Y-11368488D01*
X14221677Y-11368488D02*
X14212153Y-11387536D01*
X14212153Y-11387536D02*
X14202629Y-11397060D01*
X14202629Y-11397060D02*
X14183582Y-11406584D01*
X14183582Y-11406584D02*
X14164534Y-11406584D01*
X14164534Y-11406584D02*
X14145486Y-11397060D01*
X14145486Y-11397060D02*
X14135963Y-11387536D01*
X14135963Y-11387536D02*
X14126439Y-11368488D01*
X14126439Y-11368488D02*
X14116915Y-11330393D01*
X14116915Y-11330393D02*
X14116915Y-11282774D01*
X14116915Y-11282774D02*
X14126439Y-11244679D01*
X14126439Y-11244679D02*
X14135963Y-11225631D01*
X14135963Y-11225631D02*
X14145486Y-11216108D01*
X14145486Y-11216108D02*
X14164534Y-11206584D01*
X14316915Y-11387536D02*
X14326439Y-11397060D01*
X14326439Y-11397060D02*
X14316915Y-11406584D01*
X14316915Y-11406584D02*
X14307391Y-11397060D01*
X14307391Y-11397060D02*
X14316915Y-11387536D01*
X14316915Y-11387536D02*
X14316915Y-11406584D01*
X14450248Y-11206584D02*
X14469296Y-11206584D01*
X14469296Y-11206584D02*
X14488344Y-11216108D01*
X14488344Y-11216108D02*
X14497867Y-11225631D01*
X14497867Y-11225631D02*
X14507391Y-11244679D01*
X14507391Y-11244679D02*
X14516915Y-11282774D01*
X14516915Y-11282774D02*
X14516915Y-11330393D01*
X14516915Y-11330393D02*
X14507391Y-11368488D01*
X14507391Y-11368488D02*
X14497867Y-11387536D01*
X14497867Y-11387536D02*
X14488344Y-11397060D01*
X14488344Y-11397060D02*
X14469296Y-11406584D01*
X14469296Y-11406584D02*
X14450248Y-11406584D01*
X14450248Y-11406584D02*
X14431201Y-11397060D01*
X14431201Y-11397060D02*
X14421677Y-11387536D01*
X14421677Y-11387536D02*
X14412153Y-11368488D01*
X14412153Y-11368488D02*
X14402629Y-11330393D01*
X14402629Y-11330393D02*
X14402629Y-11282774D01*
X14402629Y-11282774D02*
X14412153Y-11244679D01*
X14412153Y-11244679D02*
X14421677Y-11225631D01*
X14421677Y-11225631D02*
X14431201Y-11216108D01*
X14431201Y-11216108D02*
X14450248Y-11206584D01*
X14583582Y-11206584D02*
X14707391Y-11206584D01*
X14707391Y-11206584D02*
X14640725Y-11282774D01*
X14640725Y-11282774D02*
X14669296Y-11282774D01*
X14669296Y-11282774D02*
X14688344Y-11292298D01*
X14688344Y-11292298D02*
X14697867Y-11301822D01*
X14697867Y-11301822D02*
X14707391Y-11320869D01*
X14707391Y-11320869D02*
X14707391Y-11368488D01*
X14707391Y-11368488D02*
X14697867Y-11387536D01*
X14697867Y-11387536D02*
X14688344Y-11397060D01*
X14688344Y-11397060D02*
X14669296Y-11406584D01*
X14669296Y-11406584D02*
X14612153Y-11406584D01*
X14612153Y-11406584D02*
X14593106Y-11397060D01*
X14593106Y-11397060D02*
X14583582Y-11387536D01*
X14774058Y-11206584D02*
X14907391Y-11206584D01*
X14907391Y-11206584D02*
X14821677Y-11406584D01*
X15069296Y-11273250D02*
X15069296Y-11406584D01*
X15021677Y-11197060D02*
X14974058Y-11339917D01*
X14974058Y-11339917D02*
X15097867Y-11339917D01*
X15164534Y-11206584D02*
X15164534Y-11244679D01*
X15240725Y-11206584D02*
X15240725Y-11244679D01*
X15535963Y-11482774D02*
X15526439Y-11473250D01*
X15526439Y-11473250D02*
X15507391Y-11444679D01*
X15507391Y-11444679D02*
X15497868Y-11425631D01*
X15497868Y-11425631D02*
X15488344Y-11397060D01*
X15488344Y-11397060D02*
X15478820Y-11349441D01*
X15478820Y-11349441D02*
X15478820Y-11311346D01*
X15478820Y-11311346D02*
X15488344Y-11263727D01*
X15488344Y-11263727D02*
X15497868Y-11235155D01*
X15497868Y-11235155D02*
X15507391Y-11216108D01*
X15507391Y-11216108D02*
X15526439Y-11187536D01*
X15526439Y-11187536D02*
X15535963Y-11178012D01*
X15697868Y-11273250D02*
X15697868Y-11406584D01*
X15650248Y-11197060D02*
X15602629Y-11339917D01*
X15602629Y-11339917D02*
X15726439Y-11339917D01*
X15955010Y-11406584D02*
X15955010Y-11206584D01*
X16040725Y-11406584D02*
X16040725Y-11301822D01*
X16040725Y-11301822D02*
X16031201Y-11282774D01*
X16031201Y-11282774D02*
X16012153Y-11273250D01*
X16012153Y-11273250D02*
X15983582Y-11273250D01*
X15983582Y-11273250D02*
X15964534Y-11282774D01*
X15964534Y-11282774D02*
X15955010Y-11292298D01*
X16164534Y-11406584D02*
X16145487Y-11397060D01*
X16145487Y-11397060D02*
X16135963Y-11387536D01*
X16135963Y-11387536D02*
X16126439Y-11368488D01*
X16126439Y-11368488D02*
X16126439Y-11311346D01*
X16126439Y-11311346D02*
X16135963Y-11292298D01*
X16135963Y-11292298D02*
X16145487Y-11282774D01*
X16145487Y-11282774D02*
X16164534Y-11273250D01*
X16164534Y-11273250D02*
X16193106Y-11273250D01*
X16193106Y-11273250D02*
X16212153Y-11282774D01*
X16212153Y-11282774D02*
X16221677Y-11292298D01*
X16221677Y-11292298D02*
X16231201Y-11311346D01*
X16231201Y-11311346D02*
X16231201Y-11368488D01*
X16231201Y-11368488D02*
X16221677Y-11387536D01*
X16221677Y-11387536D02*
X16212153Y-11397060D01*
X16212153Y-11397060D02*
X16193106Y-11406584D01*
X16193106Y-11406584D02*
X16164534Y-11406584D01*
X16345487Y-11406584D02*
X16326439Y-11397060D01*
X16326439Y-11397060D02*
X16316915Y-11378012D01*
X16316915Y-11378012D02*
X16316915Y-11206584D01*
X16497868Y-11397060D02*
X16478820Y-11406584D01*
X16478820Y-11406584D02*
X16440725Y-11406584D01*
X16440725Y-11406584D02*
X16421677Y-11397060D01*
X16421677Y-11397060D02*
X16412153Y-11378012D01*
X16412153Y-11378012D02*
X16412153Y-11301822D01*
X16412153Y-11301822D02*
X16421677Y-11282774D01*
X16421677Y-11282774D02*
X16440725Y-11273250D01*
X16440725Y-11273250D02*
X16478820Y-11273250D01*
X16478820Y-11273250D02*
X16497868Y-11282774D01*
X16497868Y-11282774D02*
X16507391Y-11301822D01*
X16507391Y-11301822D02*
X16507391Y-11320869D01*
X16507391Y-11320869D02*
X16412153Y-11339917D01*
X16583582Y-11397060D02*
X16602630Y-11406584D01*
X16602630Y-11406584D02*
X16640725Y-11406584D01*
X16640725Y-11406584D02*
X16659772Y-11397060D01*
X16659772Y-11397060D02*
X16669296Y-11378012D01*
X16669296Y-11378012D02*
X16669296Y-11368488D01*
X16669296Y-11368488D02*
X16659772Y-11349441D01*
X16659772Y-11349441D02*
X16640725Y-11339917D01*
X16640725Y-11339917D02*
X16612153Y-11339917D01*
X16612153Y-11339917D02*
X16593106Y-11330393D01*
X16593106Y-11330393D02*
X16583582Y-11311346D01*
X16583582Y-11311346D02*
X16583582Y-11301822D01*
X16583582Y-11301822D02*
X16593106Y-11282774D01*
X16593106Y-11282774D02*
X16612153Y-11273250D01*
X16612153Y-11273250D02*
X16640725Y-11273250D01*
X16640725Y-11273250D02*
X16659772Y-11282774D01*
X16735963Y-11482774D02*
X16745487Y-11473250D01*
X16745487Y-11473250D02*
X16764534Y-11444679D01*
X16764534Y-11444679D02*
X16774058Y-11425631D01*
X16774058Y-11425631D02*
X16783582Y-11397060D01*
X16783582Y-11397060D02*
X16793106Y-11349441D01*
X16793106Y-11349441D02*
X16793106Y-11311346D01*
X16793106Y-11311346D02*
X16783582Y-11263727D01*
X16783582Y-11263727D02*
X16774058Y-11235155D01*
X16774058Y-11235155D02*
X16764534Y-11216108D01*
X16764534Y-11216108D02*
X16745487Y-11187536D01*
X16745487Y-11187536D02*
X16735963Y-11178012D01*
D12*
X11910900Y-11629100D02*
X11960900Y-11579100D01*
X11910900Y-11529100D01*
X11860900Y-11579100D01*
X11910900Y-11629100D01*
D11*
X12326439Y-11670584D02*
X12212153Y-11670584D01*
X12269296Y-11670584D02*
X12269296Y-11470584D01*
X12269296Y-11470584D02*
X12250248Y-11499155D01*
X12250248Y-11499155D02*
X12231201Y-11518203D01*
X12231201Y-11518203D02*
X12212153Y-11527727D01*
X12412153Y-11651536D02*
X12421677Y-11661060D01*
X12421677Y-11661060D02*
X12412153Y-11670584D01*
X12412153Y-11670584D02*
X12402629Y-11661060D01*
X12402629Y-11661060D02*
X12412153Y-11651536D01*
X12412153Y-11651536D02*
X12412153Y-11670584D01*
X12545486Y-11470584D02*
X12564534Y-11470584D01*
X12564534Y-11470584D02*
X12583582Y-11480108D01*
X12583582Y-11480108D02*
X12593105Y-11489631D01*
X12593105Y-11489631D02*
X12602629Y-11508679D01*
X12602629Y-11508679D02*
X12612153Y-11546774D01*
X12612153Y-11546774D02*
X12612153Y-11594393D01*
X12612153Y-11594393D02*
X12602629Y-11632488D01*
X12602629Y-11632488D02*
X12593105Y-11651536D01*
X12593105Y-11651536D02*
X12583582Y-11661060D01*
X12583582Y-11661060D02*
X12564534Y-11670584D01*
X12564534Y-11670584D02*
X12545486Y-11670584D01*
X12545486Y-11670584D02*
X12526439Y-11661060D01*
X12526439Y-11661060D02*
X12516915Y-11651536D01*
X12516915Y-11651536D02*
X12507391Y-11632488D01*
X12507391Y-11632488D02*
X12497867Y-11594393D01*
X12497867Y-11594393D02*
X12497867Y-11546774D01*
X12497867Y-11546774D02*
X12507391Y-11508679D01*
X12507391Y-11508679D02*
X12516915Y-11489631D01*
X12516915Y-11489631D02*
X12526439Y-11480108D01*
X12526439Y-11480108D02*
X12545486Y-11470584D01*
X12735962Y-11470584D02*
X12755010Y-11470584D01*
X12755010Y-11470584D02*
X12774058Y-11480108D01*
X12774058Y-11480108D02*
X12783582Y-11489631D01*
X12783582Y-11489631D02*
X12793105Y-11508679D01*
X12793105Y-11508679D02*
X12802629Y-11546774D01*
X12802629Y-11546774D02*
X12802629Y-11594393D01*
X12802629Y-11594393D02*
X12793105Y-11632488D01*
X12793105Y-11632488D02*
X12783582Y-11651536D01*
X12783582Y-11651536D02*
X12774058Y-11661060D01*
X12774058Y-11661060D02*
X12755010Y-11670584D01*
X12755010Y-11670584D02*
X12735962Y-11670584D01*
X12735962Y-11670584D02*
X12716915Y-11661060D01*
X12716915Y-11661060D02*
X12707391Y-11651536D01*
X12707391Y-11651536D02*
X12697867Y-11632488D01*
X12697867Y-11632488D02*
X12688343Y-11594393D01*
X12688343Y-11594393D02*
X12688343Y-11546774D01*
X12688343Y-11546774D02*
X12697867Y-11508679D01*
X12697867Y-11508679D02*
X12707391Y-11489631D01*
X12707391Y-11489631D02*
X12716915Y-11480108D01*
X12716915Y-11480108D02*
X12735962Y-11470584D01*
X12926439Y-11470584D02*
X12945486Y-11470584D01*
X12945486Y-11470584D02*
X12964534Y-11480108D01*
X12964534Y-11480108D02*
X12974058Y-11489631D01*
X12974058Y-11489631D02*
X12983582Y-11508679D01*
X12983582Y-11508679D02*
X12993105Y-11546774D01*
X12993105Y-11546774D02*
X12993105Y-11594393D01*
X12993105Y-11594393D02*
X12983582Y-11632488D01*
X12983582Y-11632488D02*
X12974058Y-11651536D01*
X12974058Y-11651536D02*
X12964534Y-11661060D01*
X12964534Y-11661060D02*
X12945486Y-11670584D01*
X12945486Y-11670584D02*
X12926439Y-11670584D01*
X12926439Y-11670584D02*
X12907391Y-11661060D01*
X12907391Y-11661060D02*
X12897867Y-11651536D01*
X12897867Y-11651536D02*
X12888343Y-11632488D01*
X12888343Y-11632488D02*
X12878820Y-11594393D01*
X12878820Y-11594393D02*
X12878820Y-11546774D01*
X12878820Y-11546774D02*
X12888343Y-11508679D01*
X12888343Y-11508679D02*
X12897867Y-11489631D01*
X12897867Y-11489631D02*
X12907391Y-11480108D01*
X12907391Y-11480108D02*
X12926439Y-11470584D01*
X13078820Y-11670584D02*
X13078820Y-11537250D01*
X13078820Y-11556298D02*
X13088343Y-11546774D01*
X13088343Y-11546774D02*
X13107391Y-11537250D01*
X13107391Y-11537250D02*
X13135963Y-11537250D01*
X13135963Y-11537250D02*
X13155010Y-11546774D01*
X13155010Y-11546774D02*
X13164534Y-11565822D01*
X13164534Y-11565822D02*
X13164534Y-11670584D01*
X13164534Y-11565822D02*
X13174058Y-11546774D01*
X13174058Y-11546774D02*
X13193105Y-11537250D01*
X13193105Y-11537250D02*
X13221677Y-11537250D01*
X13221677Y-11537250D02*
X13240724Y-11546774D01*
X13240724Y-11546774D02*
X13250248Y-11565822D01*
X13250248Y-11565822D02*
X13250248Y-11670584D01*
X13345486Y-11670584D02*
X13345486Y-11537250D01*
X13345486Y-11556298D02*
X13355010Y-11546774D01*
X13355010Y-11546774D02*
X13374058Y-11537250D01*
X13374058Y-11537250D02*
X13402629Y-11537250D01*
X13402629Y-11537250D02*
X13421677Y-11546774D01*
X13421677Y-11546774D02*
X13431201Y-11565822D01*
X13431201Y-11565822D02*
X13431201Y-11670584D01*
X13431201Y-11565822D02*
X13440724Y-11546774D01*
X13440724Y-11546774D02*
X13459772Y-11537250D01*
X13459772Y-11537250D02*
X13488343Y-11537250D01*
X13488343Y-11537250D02*
X13507391Y-11546774D01*
X13507391Y-11546774D02*
X13516915Y-11565822D01*
X13516915Y-11565822D02*
X13516915Y-11670584D01*
X13907391Y-11461060D02*
X13735963Y-11718203D01*
X14164534Y-11470584D02*
X14183582Y-11470584D01*
X14183582Y-11470584D02*
X14202629Y-11480108D01*
X14202629Y-11480108D02*
X14212153Y-11489631D01*
X14212153Y-11489631D02*
X14221677Y-11508679D01*
X14221677Y-11508679D02*
X14231201Y-11546774D01*
X14231201Y-11546774D02*
X14231201Y-11594393D01*
X14231201Y-11594393D02*
X14221677Y-11632488D01*
X14221677Y-11632488D02*
X14212153Y-11651536D01*
X14212153Y-11651536D02*
X14202629Y-11661060D01*
X14202629Y-11661060D02*
X14183582Y-11670584D01*
X14183582Y-11670584D02*
X14164534Y-11670584D01*
X14164534Y-11670584D02*
X14145486Y-11661060D01*
X14145486Y-11661060D02*
X14135963Y-11651536D01*
X14135963Y-11651536D02*
X14126439Y-11632488D01*
X14126439Y-11632488D02*
X14116915Y-11594393D01*
X14116915Y-11594393D02*
X14116915Y-11546774D01*
X14116915Y-11546774D02*
X14126439Y-11508679D01*
X14126439Y-11508679D02*
X14135963Y-11489631D01*
X14135963Y-11489631D02*
X14145486Y-11480108D01*
X14145486Y-11480108D02*
X14164534Y-11470584D01*
X14316915Y-11651536D02*
X14326439Y-11661060D01*
X14326439Y-11661060D02*
X14316915Y-11670584D01*
X14316915Y-11670584D02*
X14307391Y-11661060D01*
X14307391Y-11661060D02*
X14316915Y-11651536D01*
X14316915Y-11651536D02*
X14316915Y-11670584D01*
X14450248Y-11470584D02*
X14469296Y-11470584D01*
X14469296Y-11470584D02*
X14488344Y-11480108D01*
X14488344Y-11480108D02*
X14497867Y-11489631D01*
X14497867Y-11489631D02*
X14507391Y-11508679D01*
X14507391Y-11508679D02*
X14516915Y-11546774D01*
X14516915Y-11546774D02*
X14516915Y-11594393D01*
X14516915Y-11594393D02*
X14507391Y-11632488D01*
X14507391Y-11632488D02*
X14497867Y-11651536D01*
X14497867Y-11651536D02*
X14488344Y-11661060D01*
X14488344Y-11661060D02*
X14469296Y-11670584D01*
X14469296Y-11670584D02*
X14450248Y-11670584D01*
X14450248Y-11670584D02*
X14431201Y-11661060D01*
X14431201Y-11661060D02*
X14421677Y-11651536D01*
X14421677Y-11651536D02*
X14412153Y-11632488D01*
X14412153Y-11632488D02*
X14402629Y-11594393D01*
X14402629Y-11594393D02*
X14402629Y-11546774D01*
X14402629Y-11546774D02*
X14412153Y-11508679D01*
X14412153Y-11508679D02*
X14421677Y-11489631D01*
X14421677Y-11489631D02*
X14431201Y-11480108D01*
X14431201Y-11480108D02*
X14450248Y-11470584D01*
X14583582Y-11470584D02*
X14707391Y-11470584D01*
X14707391Y-11470584D02*
X14640725Y-11546774D01*
X14640725Y-11546774D02*
X14669296Y-11546774D01*
X14669296Y-11546774D02*
X14688344Y-11556298D01*
X14688344Y-11556298D02*
X14697867Y-11565822D01*
X14697867Y-11565822D02*
X14707391Y-11584869D01*
X14707391Y-11584869D02*
X14707391Y-11632488D01*
X14707391Y-11632488D02*
X14697867Y-11651536D01*
X14697867Y-11651536D02*
X14688344Y-11661060D01*
X14688344Y-11661060D02*
X14669296Y-11670584D01*
X14669296Y-11670584D02*
X14612153Y-11670584D01*
X14612153Y-11670584D02*
X14593106Y-11661060D01*
X14593106Y-11661060D02*
X14583582Y-11651536D01*
X14802629Y-11670584D02*
X14840725Y-11670584D01*
X14840725Y-11670584D02*
X14859772Y-11661060D01*
X14859772Y-11661060D02*
X14869296Y-11651536D01*
X14869296Y-11651536D02*
X14888344Y-11622965D01*
X14888344Y-11622965D02*
X14897867Y-11584869D01*
X14897867Y-11584869D02*
X14897867Y-11508679D01*
X14897867Y-11508679D02*
X14888344Y-11489631D01*
X14888344Y-11489631D02*
X14878820Y-11480108D01*
X14878820Y-11480108D02*
X14859772Y-11470584D01*
X14859772Y-11470584D02*
X14821677Y-11470584D01*
X14821677Y-11470584D02*
X14802629Y-11480108D01*
X14802629Y-11480108D02*
X14793106Y-11489631D01*
X14793106Y-11489631D02*
X14783582Y-11508679D01*
X14783582Y-11508679D02*
X14783582Y-11556298D01*
X14783582Y-11556298D02*
X14793106Y-11575346D01*
X14793106Y-11575346D02*
X14802629Y-11584869D01*
X14802629Y-11584869D02*
X14821677Y-11594393D01*
X14821677Y-11594393D02*
X14859772Y-11594393D01*
X14859772Y-11594393D02*
X14878820Y-11584869D01*
X14878820Y-11584869D02*
X14888344Y-11575346D01*
X14888344Y-11575346D02*
X14897867Y-11556298D01*
X15069296Y-11537250D02*
X15069296Y-11670584D01*
X15021677Y-11461060D02*
X14974058Y-11603917D01*
X14974058Y-11603917D02*
X15097867Y-11603917D01*
X15164534Y-11470584D02*
X15164534Y-11508679D01*
X15240725Y-11470584D02*
X15240725Y-11508679D01*
X15535963Y-11746774D02*
X15526439Y-11737250D01*
X15526439Y-11737250D02*
X15507391Y-11708679D01*
X15507391Y-11708679D02*
X15497868Y-11689631D01*
X15497868Y-11689631D02*
X15488344Y-11661060D01*
X15488344Y-11661060D02*
X15478820Y-11613441D01*
X15478820Y-11613441D02*
X15478820Y-11575346D01*
X15478820Y-11575346D02*
X15488344Y-11527727D01*
X15488344Y-11527727D02*
X15497868Y-11499155D01*
X15497868Y-11499155D02*
X15507391Y-11480108D01*
X15507391Y-11480108D02*
X15526439Y-11451536D01*
X15526439Y-11451536D02*
X15535963Y-11442012D01*
X15707391Y-11470584D02*
X15612153Y-11470584D01*
X15612153Y-11470584D02*
X15602629Y-11565822D01*
X15602629Y-11565822D02*
X15612153Y-11556298D01*
X15612153Y-11556298D02*
X15631201Y-11546774D01*
X15631201Y-11546774D02*
X15678820Y-11546774D01*
X15678820Y-11546774D02*
X15697868Y-11556298D01*
X15697868Y-11556298D02*
X15707391Y-11565822D01*
X15707391Y-11565822D02*
X15716915Y-11584869D01*
X15716915Y-11584869D02*
X15716915Y-11632488D01*
X15716915Y-11632488D02*
X15707391Y-11651536D01*
X15707391Y-11651536D02*
X15697868Y-11661060D01*
X15697868Y-11661060D02*
X15678820Y-11670584D01*
X15678820Y-11670584D02*
X15631201Y-11670584D01*
X15631201Y-11670584D02*
X15612153Y-11661060D01*
X15612153Y-11661060D02*
X15602629Y-11651536D01*
X15955010Y-11670584D02*
X15955010Y-11470584D01*
X16040725Y-11670584D02*
X16040725Y-11565822D01*
X16040725Y-11565822D02*
X16031201Y-11546774D01*
X16031201Y-11546774D02*
X16012153Y-11537250D01*
X16012153Y-11537250D02*
X15983582Y-11537250D01*
X15983582Y-11537250D02*
X15964534Y-11546774D01*
X15964534Y-11546774D02*
X15955010Y-11556298D01*
X16164534Y-11670584D02*
X16145487Y-11661060D01*
X16145487Y-11661060D02*
X16135963Y-11651536D01*
X16135963Y-11651536D02*
X16126439Y-11632488D01*
X16126439Y-11632488D02*
X16126439Y-11575346D01*
X16126439Y-11575346D02*
X16135963Y-11556298D01*
X16135963Y-11556298D02*
X16145487Y-11546774D01*
X16145487Y-11546774D02*
X16164534Y-11537250D01*
X16164534Y-11537250D02*
X16193106Y-11537250D01*
X16193106Y-11537250D02*
X16212153Y-11546774D01*
X16212153Y-11546774D02*
X16221677Y-11556298D01*
X16221677Y-11556298D02*
X16231201Y-11575346D01*
X16231201Y-11575346D02*
X16231201Y-11632488D01*
X16231201Y-11632488D02*
X16221677Y-11651536D01*
X16221677Y-11651536D02*
X16212153Y-11661060D01*
X16212153Y-11661060D02*
X16193106Y-11670584D01*
X16193106Y-11670584D02*
X16164534Y-11670584D01*
X16345487Y-11670584D02*
X16326439Y-11661060D01*
X16326439Y-11661060D02*
X16316915Y-11642012D01*
X16316915Y-11642012D02*
X16316915Y-11470584D01*
X16497868Y-11661060D02*
X16478820Y-11670584D01*
X16478820Y-11670584D02*
X16440725Y-11670584D01*
X16440725Y-11670584D02*
X16421677Y-11661060D01*
X16421677Y-11661060D02*
X16412153Y-11642012D01*
X16412153Y-11642012D02*
X16412153Y-11565822D01*
X16412153Y-11565822D02*
X16421677Y-11546774D01*
X16421677Y-11546774D02*
X16440725Y-11537250D01*
X16440725Y-11537250D02*
X16478820Y-11537250D01*
X16478820Y-11537250D02*
X16497868Y-11546774D01*
X16497868Y-11546774D02*
X16507391Y-11565822D01*
X16507391Y-11565822D02*
X16507391Y-11584869D01*
X16507391Y-11584869D02*
X16412153Y-11603917D01*
X16583582Y-11661060D02*
X16602630Y-11670584D01*
X16602630Y-11670584D02*
X16640725Y-11670584D01*
X16640725Y-11670584D02*
X16659772Y-11661060D01*
X16659772Y-11661060D02*
X16669296Y-11642012D01*
X16669296Y-11642012D02*
X16669296Y-11632488D01*
X16669296Y-11632488D02*
X16659772Y-11613441D01*
X16659772Y-11613441D02*
X16640725Y-11603917D01*
X16640725Y-11603917D02*
X16612153Y-11603917D01*
X16612153Y-11603917D02*
X16593106Y-11594393D01*
X16593106Y-11594393D02*
X16583582Y-11575346D01*
X16583582Y-11575346D02*
X16583582Y-11565822D01*
X16583582Y-11565822D02*
X16593106Y-11546774D01*
X16593106Y-11546774D02*
X16612153Y-11537250D01*
X16612153Y-11537250D02*
X16640725Y-11537250D01*
X16640725Y-11537250D02*
X16659772Y-11546774D01*
X16735963Y-11746774D02*
X16745487Y-11737250D01*
X16745487Y-11737250D02*
X16764534Y-11708679D01*
X16764534Y-11708679D02*
X16774058Y-11689631D01*
X16774058Y-11689631D02*
X16783582Y-11661060D01*
X16783582Y-11661060D02*
X16793106Y-11613441D01*
X16793106Y-11613441D02*
X16793106Y-11575346D01*
X16793106Y-11575346D02*
X16783582Y-11527727D01*
X16783582Y-11527727D02*
X16774058Y-11499155D01*
X16774058Y-11499155D02*
X16764534Y-11480108D01*
X16764534Y-11480108D02*
X16745487Y-11451536D01*
X16745487Y-11451536D02*
X16735963Y-11442012D01*
D13*
X11840900Y-11783100D02*
X11960900Y-11903100D01*
X11960900Y-11783100D02*
X11840900Y-11903100D01*
X11960900Y-11843100D02*
G75*
G02*
X11840900Y-11843100I-60000J0D01*
G01*
X11840900Y-11843100D02*
G75*
G02*
X11960900Y-11843100I60000J0D01*
G01*
D11*
X12326439Y-11934584D02*
X12212153Y-11934584D01*
X12269296Y-11934584D02*
X12269296Y-11734584D01*
X12269296Y-11734584D02*
X12250248Y-11763155D01*
X12250248Y-11763155D02*
X12231201Y-11782203D01*
X12231201Y-11782203D02*
X12212153Y-11791727D01*
X12412153Y-11915536D02*
X12421677Y-11925060D01*
X12421677Y-11925060D02*
X12412153Y-11934584D01*
X12412153Y-11934584D02*
X12402629Y-11925060D01*
X12402629Y-11925060D02*
X12412153Y-11915536D01*
X12412153Y-11915536D02*
X12412153Y-11934584D01*
X12497867Y-11753631D02*
X12507391Y-11744108D01*
X12507391Y-11744108D02*
X12526439Y-11734584D01*
X12526439Y-11734584D02*
X12574058Y-11734584D01*
X12574058Y-11734584D02*
X12593105Y-11744108D01*
X12593105Y-11744108D02*
X12602629Y-11753631D01*
X12602629Y-11753631D02*
X12612153Y-11772679D01*
X12612153Y-11772679D02*
X12612153Y-11791727D01*
X12612153Y-11791727D02*
X12602629Y-11820298D01*
X12602629Y-11820298D02*
X12488343Y-11934584D01*
X12488343Y-11934584D02*
X12612153Y-11934584D01*
X12735962Y-11734584D02*
X12755010Y-11734584D01*
X12755010Y-11734584D02*
X12774058Y-11744108D01*
X12774058Y-11744108D02*
X12783582Y-11753631D01*
X12783582Y-11753631D02*
X12793105Y-11772679D01*
X12793105Y-11772679D02*
X12802629Y-11810774D01*
X12802629Y-11810774D02*
X12802629Y-11858393D01*
X12802629Y-11858393D02*
X12793105Y-11896488D01*
X12793105Y-11896488D02*
X12783582Y-11915536D01*
X12783582Y-11915536D02*
X12774058Y-11925060D01*
X12774058Y-11925060D02*
X12755010Y-11934584D01*
X12755010Y-11934584D02*
X12735962Y-11934584D01*
X12735962Y-11934584D02*
X12716915Y-11925060D01*
X12716915Y-11925060D02*
X12707391Y-11915536D01*
X12707391Y-11915536D02*
X12697867Y-11896488D01*
X12697867Y-11896488D02*
X12688343Y-11858393D01*
X12688343Y-11858393D02*
X12688343Y-11810774D01*
X12688343Y-11810774D02*
X12697867Y-11772679D01*
X12697867Y-11772679D02*
X12707391Y-11753631D01*
X12707391Y-11753631D02*
X12716915Y-11744108D01*
X12716915Y-11744108D02*
X12735962Y-11734584D01*
X12926439Y-11734584D02*
X12945486Y-11734584D01*
X12945486Y-11734584D02*
X12964534Y-11744108D01*
X12964534Y-11744108D02*
X12974058Y-11753631D01*
X12974058Y-11753631D02*
X12983582Y-11772679D01*
X12983582Y-11772679D02*
X12993105Y-11810774D01*
X12993105Y-11810774D02*
X12993105Y-11858393D01*
X12993105Y-11858393D02*
X12983582Y-11896488D01*
X12983582Y-11896488D02*
X12974058Y-11915536D01*
X12974058Y-11915536D02*
X12964534Y-11925060D01*
X12964534Y-11925060D02*
X12945486Y-11934584D01*
X12945486Y-11934584D02*
X12926439Y-11934584D01*
X12926439Y-11934584D02*
X12907391Y-11925060D01*
X12907391Y-11925060D02*
X12897867Y-11915536D01*
X12897867Y-11915536D02*
X12888343Y-11896488D01*
X12888343Y-11896488D02*
X12878820Y-11858393D01*
X12878820Y-11858393D02*
X12878820Y-11810774D01*
X12878820Y-11810774D02*
X12888343Y-11772679D01*
X12888343Y-11772679D02*
X12897867Y-11753631D01*
X12897867Y-11753631D02*
X12907391Y-11744108D01*
X12907391Y-11744108D02*
X12926439Y-11734584D01*
X13078820Y-11934584D02*
X13078820Y-11801250D01*
X13078820Y-11820298D02*
X13088343Y-11810774D01*
X13088343Y-11810774D02*
X13107391Y-11801250D01*
X13107391Y-11801250D02*
X13135963Y-11801250D01*
X13135963Y-11801250D02*
X13155010Y-11810774D01*
X13155010Y-11810774D02*
X13164534Y-11829822D01*
X13164534Y-11829822D02*
X13164534Y-11934584D01*
X13164534Y-11829822D02*
X13174058Y-11810774D01*
X13174058Y-11810774D02*
X13193105Y-11801250D01*
X13193105Y-11801250D02*
X13221677Y-11801250D01*
X13221677Y-11801250D02*
X13240724Y-11810774D01*
X13240724Y-11810774D02*
X13250248Y-11829822D01*
X13250248Y-11829822D02*
X13250248Y-11934584D01*
X13345486Y-11934584D02*
X13345486Y-11801250D01*
X13345486Y-11820298D02*
X13355010Y-11810774D01*
X13355010Y-11810774D02*
X13374058Y-11801250D01*
X13374058Y-11801250D02*
X13402629Y-11801250D01*
X13402629Y-11801250D02*
X13421677Y-11810774D01*
X13421677Y-11810774D02*
X13431201Y-11829822D01*
X13431201Y-11829822D02*
X13431201Y-11934584D01*
X13431201Y-11829822D02*
X13440724Y-11810774D01*
X13440724Y-11810774D02*
X13459772Y-11801250D01*
X13459772Y-11801250D02*
X13488343Y-11801250D01*
X13488343Y-11801250D02*
X13507391Y-11810774D01*
X13507391Y-11810774D02*
X13516915Y-11829822D01*
X13516915Y-11829822D02*
X13516915Y-11934584D01*
X13907391Y-11725060D02*
X13735963Y-11982203D01*
X14164534Y-11734584D02*
X14183582Y-11734584D01*
X14183582Y-11734584D02*
X14202629Y-11744108D01*
X14202629Y-11744108D02*
X14212153Y-11753631D01*
X14212153Y-11753631D02*
X14221677Y-11772679D01*
X14221677Y-11772679D02*
X14231201Y-11810774D01*
X14231201Y-11810774D02*
X14231201Y-11858393D01*
X14231201Y-11858393D02*
X14221677Y-11896488D01*
X14221677Y-11896488D02*
X14212153Y-11915536D01*
X14212153Y-11915536D02*
X14202629Y-11925060D01*
X14202629Y-11925060D02*
X14183582Y-11934584D01*
X14183582Y-11934584D02*
X14164534Y-11934584D01*
X14164534Y-11934584D02*
X14145486Y-11925060D01*
X14145486Y-11925060D02*
X14135963Y-11915536D01*
X14135963Y-11915536D02*
X14126439Y-11896488D01*
X14126439Y-11896488D02*
X14116915Y-11858393D01*
X14116915Y-11858393D02*
X14116915Y-11810774D01*
X14116915Y-11810774D02*
X14126439Y-11772679D01*
X14126439Y-11772679D02*
X14135963Y-11753631D01*
X14135963Y-11753631D02*
X14145486Y-11744108D01*
X14145486Y-11744108D02*
X14164534Y-11734584D01*
X14316915Y-11915536D02*
X14326439Y-11925060D01*
X14326439Y-11925060D02*
X14316915Y-11934584D01*
X14316915Y-11934584D02*
X14307391Y-11925060D01*
X14307391Y-11925060D02*
X14316915Y-11915536D01*
X14316915Y-11915536D02*
X14316915Y-11934584D01*
X14450248Y-11734584D02*
X14469296Y-11734584D01*
X14469296Y-11734584D02*
X14488344Y-11744108D01*
X14488344Y-11744108D02*
X14497867Y-11753631D01*
X14497867Y-11753631D02*
X14507391Y-11772679D01*
X14507391Y-11772679D02*
X14516915Y-11810774D01*
X14516915Y-11810774D02*
X14516915Y-11858393D01*
X14516915Y-11858393D02*
X14507391Y-11896488D01*
X14507391Y-11896488D02*
X14497867Y-11915536D01*
X14497867Y-11915536D02*
X14488344Y-11925060D01*
X14488344Y-11925060D02*
X14469296Y-11934584D01*
X14469296Y-11934584D02*
X14450248Y-11934584D01*
X14450248Y-11934584D02*
X14431201Y-11925060D01*
X14431201Y-11925060D02*
X14421677Y-11915536D01*
X14421677Y-11915536D02*
X14412153Y-11896488D01*
X14412153Y-11896488D02*
X14402629Y-11858393D01*
X14402629Y-11858393D02*
X14402629Y-11810774D01*
X14402629Y-11810774D02*
X14412153Y-11772679D01*
X14412153Y-11772679D02*
X14421677Y-11753631D01*
X14421677Y-11753631D02*
X14431201Y-11744108D01*
X14431201Y-11744108D02*
X14450248Y-11734584D01*
X14688344Y-11801250D02*
X14688344Y-11934584D01*
X14640725Y-11725060D02*
X14593106Y-11867917D01*
X14593106Y-11867917D02*
X14716915Y-11867917D01*
X14774058Y-11734584D02*
X14907391Y-11734584D01*
X14907391Y-11734584D02*
X14821677Y-11934584D01*
X14974058Y-11753631D02*
X14983582Y-11744108D01*
X14983582Y-11744108D02*
X15002629Y-11734584D01*
X15002629Y-11734584D02*
X15050248Y-11734584D01*
X15050248Y-11734584D02*
X15069296Y-11744108D01*
X15069296Y-11744108D02*
X15078820Y-11753631D01*
X15078820Y-11753631D02*
X15088344Y-11772679D01*
X15088344Y-11772679D02*
X15088344Y-11791727D01*
X15088344Y-11791727D02*
X15078820Y-11820298D01*
X15078820Y-11820298D02*
X14964534Y-11934584D01*
X14964534Y-11934584D02*
X15088344Y-11934584D01*
X15164534Y-11734584D02*
X15164534Y-11772679D01*
X15240725Y-11734584D02*
X15240725Y-11772679D01*
X15535963Y-12010774D02*
X15526439Y-12001250D01*
X15526439Y-12001250D02*
X15507391Y-11972679D01*
X15507391Y-11972679D02*
X15497868Y-11953631D01*
X15497868Y-11953631D02*
X15488344Y-11925060D01*
X15488344Y-11925060D02*
X15478820Y-11877441D01*
X15478820Y-11877441D02*
X15478820Y-11839346D01*
X15478820Y-11839346D02*
X15488344Y-11791727D01*
X15488344Y-11791727D02*
X15497868Y-11763155D01*
X15497868Y-11763155D02*
X15507391Y-11744108D01*
X15507391Y-11744108D02*
X15526439Y-11715536D01*
X15526439Y-11715536D02*
X15535963Y-11706012D01*
X15697868Y-11801250D02*
X15697868Y-11934584D01*
X15650248Y-11725060D02*
X15602629Y-11867917D01*
X15602629Y-11867917D02*
X15726439Y-11867917D01*
X15955010Y-11934584D02*
X15955010Y-11734584D01*
X16040725Y-11934584D02*
X16040725Y-11829822D01*
X16040725Y-11829822D02*
X16031201Y-11810774D01*
X16031201Y-11810774D02*
X16012153Y-11801250D01*
X16012153Y-11801250D02*
X15983582Y-11801250D01*
X15983582Y-11801250D02*
X15964534Y-11810774D01*
X15964534Y-11810774D02*
X15955010Y-11820298D01*
X16164534Y-11934584D02*
X16145487Y-11925060D01*
X16145487Y-11925060D02*
X16135963Y-11915536D01*
X16135963Y-11915536D02*
X16126439Y-11896488D01*
X16126439Y-11896488D02*
X16126439Y-11839346D01*
X16126439Y-11839346D02*
X16135963Y-11820298D01*
X16135963Y-11820298D02*
X16145487Y-11810774D01*
X16145487Y-11810774D02*
X16164534Y-11801250D01*
X16164534Y-11801250D02*
X16193106Y-11801250D01*
X16193106Y-11801250D02*
X16212153Y-11810774D01*
X16212153Y-11810774D02*
X16221677Y-11820298D01*
X16221677Y-11820298D02*
X16231201Y-11839346D01*
X16231201Y-11839346D02*
X16231201Y-11896488D01*
X16231201Y-11896488D02*
X16221677Y-11915536D01*
X16221677Y-11915536D02*
X16212153Y-11925060D01*
X16212153Y-11925060D02*
X16193106Y-11934584D01*
X16193106Y-11934584D02*
X16164534Y-11934584D01*
X16345487Y-11934584D02*
X16326439Y-11925060D01*
X16326439Y-11925060D02*
X16316915Y-11906012D01*
X16316915Y-11906012D02*
X16316915Y-11734584D01*
X16497868Y-11925060D02*
X16478820Y-11934584D01*
X16478820Y-11934584D02*
X16440725Y-11934584D01*
X16440725Y-11934584D02*
X16421677Y-11925060D01*
X16421677Y-11925060D02*
X16412153Y-11906012D01*
X16412153Y-11906012D02*
X16412153Y-11829822D01*
X16412153Y-11829822D02*
X16421677Y-11810774D01*
X16421677Y-11810774D02*
X16440725Y-11801250D01*
X16440725Y-11801250D02*
X16478820Y-11801250D01*
X16478820Y-11801250D02*
X16497868Y-11810774D01*
X16497868Y-11810774D02*
X16507391Y-11829822D01*
X16507391Y-11829822D02*
X16507391Y-11848869D01*
X16507391Y-11848869D02*
X16412153Y-11867917D01*
X16583582Y-11925060D02*
X16602630Y-11934584D01*
X16602630Y-11934584D02*
X16640725Y-11934584D01*
X16640725Y-11934584D02*
X16659772Y-11925060D01*
X16659772Y-11925060D02*
X16669296Y-11906012D01*
X16669296Y-11906012D02*
X16669296Y-11896488D01*
X16669296Y-11896488D02*
X16659772Y-11877441D01*
X16659772Y-11877441D02*
X16640725Y-11867917D01*
X16640725Y-11867917D02*
X16612153Y-11867917D01*
X16612153Y-11867917D02*
X16593106Y-11858393D01*
X16593106Y-11858393D02*
X16583582Y-11839346D01*
X16583582Y-11839346D02*
X16583582Y-11829822D01*
X16583582Y-11829822D02*
X16593106Y-11810774D01*
X16593106Y-11810774D02*
X16612153Y-11801250D01*
X16612153Y-11801250D02*
X16640725Y-11801250D01*
X16640725Y-11801250D02*
X16659772Y-11810774D01*
X16735963Y-12010774D02*
X16745487Y-12001250D01*
X16745487Y-12001250D02*
X16764534Y-11972679D01*
X16764534Y-11972679D02*
X16774058Y-11953631D01*
X16774058Y-11953631D02*
X16783582Y-11925060D01*
X16783582Y-11925060D02*
X16793106Y-11877441D01*
X16793106Y-11877441D02*
X16793106Y-11839346D01*
X16793106Y-11839346D02*
X16783582Y-11791727D01*
X16783582Y-11791727D02*
X16774058Y-11763155D01*
X16774058Y-11763155D02*
X16764534Y-11744108D01*
X16764534Y-11744108D02*
X16745487Y-11715536D01*
X16745487Y-11715536D02*
X16735963Y-11706012D01*
M02*
