%TF.GenerationSoftware,KiCad,Pcbnew,8.0.8+1*%
%TF.CreationDate,2025-02-28T11:12:55+11:00*%
%TF.ProjectId,vichyctl,76696368-7963-4746-9c2e-6b696361645f,rev?*%
%TF.SameCoordinates,Original*%
%TF.FileFunction,Drillmap*%
%TF.FilePolarity,Positive*%
%FSLAX45Y45*%
G04 Gerber Fmt 4.5, Leading zero omitted, Abs format (unit mm)*
G04 Created by KiCad (PCBNEW 8.0.8+1) date 2025-02-28 11:12:55*
%MOMM*%
%LPD*%
G01*
G04 APERTURE LIST*
%ADD10C,0.050000*%
%ADD11C,0.200000*%
%ADD12C,0.320000*%
G04 APERTURE END LIST*
D10*
X11963400Y-4140200D02*
X14859000Y-4140200D01*
X14859000Y-9880600D01*
X11963400Y-9880600D01*
X11963400Y-4140200D01*
D11*
D12*
X12184400Y-9314200D02*
X12504400Y-9634200D01*
X12504400Y-9314200D02*
X12184400Y-9634200D01*
X13276600Y-4412000D02*
X13596600Y-4732000D01*
X13596600Y-4412000D02*
X13276600Y-4732000D01*
D11*
X12221677Y-10194584D02*
X12221677Y-9994584D01*
X12221677Y-9994584D02*
X12269296Y-9994584D01*
X12269296Y-9994584D02*
X12297867Y-10004108D01*
X12297867Y-10004108D02*
X12316915Y-10023155D01*
X12316915Y-10023155D02*
X12326439Y-10042203D01*
X12326439Y-10042203D02*
X12335962Y-10080298D01*
X12335962Y-10080298D02*
X12335962Y-10108870D01*
X12335962Y-10108870D02*
X12326439Y-10146965D01*
X12326439Y-10146965D02*
X12316915Y-10166012D01*
X12316915Y-10166012D02*
X12297867Y-10185060D01*
X12297867Y-10185060D02*
X12269296Y-10194584D01*
X12269296Y-10194584D02*
X12221677Y-10194584D01*
X12421677Y-10194584D02*
X12421677Y-10061250D01*
X12421677Y-10099346D02*
X12431201Y-10080298D01*
X12431201Y-10080298D02*
X12440724Y-10070774D01*
X12440724Y-10070774D02*
X12459772Y-10061250D01*
X12459772Y-10061250D02*
X12478820Y-10061250D01*
X12545486Y-10194584D02*
X12545486Y-10061250D01*
X12545486Y-9994584D02*
X12535962Y-10004108D01*
X12535962Y-10004108D02*
X12545486Y-10013631D01*
X12545486Y-10013631D02*
X12555010Y-10004108D01*
X12555010Y-10004108D02*
X12545486Y-9994584D01*
X12545486Y-9994584D02*
X12545486Y-10013631D01*
X12669296Y-10194584D02*
X12650248Y-10185060D01*
X12650248Y-10185060D02*
X12640724Y-10166012D01*
X12640724Y-10166012D02*
X12640724Y-9994584D01*
X12774058Y-10194584D02*
X12755010Y-10185060D01*
X12755010Y-10185060D02*
X12745486Y-10166012D01*
X12745486Y-10166012D02*
X12745486Y-9994584D01*
X13002629Y-10194584D02*
X13002629Y-9994584D01*
X13002629Y-9994584D02*
X13069296Y-10137441D01*
X13069296Y-10137441D02*
X13135962Y-9994584D01*
X13135962Y-9994584D02*
X13135962Y-10194584D01*
X13316915Y-10194584D02*
X13316915Y-10089822D01*
X13316915Y-10089822D02*
X13307391Y-10070774D01*
X13307391Y-10070774D02*
X13288343Y-10061250D01*
X13288343Y-10061250D02*
X13250248Y-10061250D01*
X13250248Y-10061250D02*
X13231201Y-10070774D01*
X13316915Y-10185060D02*
X13297867Y-10194584D01*
X13297867Y-10194584D02*
X13250248Y-10194584D01*
X13250248Y-10194584D02*
X13231201Y-10185060D01*
X13231201Y-10185060D02*
X13221677Y-10166012D01*
X13221677Y-10166012D02*
X13221677Y-10146965D01*
X13221677Y-10146965D02*
X13231201Y-10127917D01*
X13231201Y-10127917D02*
X13250248Y-10118393D01*
X13250248Y-10118393D02*
X13297867Y-10118393D01*
X13297867Y-10118393D02*
X13316915Y-10108870D01*
X13412153Y-10061250D02*
X13412153Y-10261250D01*
X13412153Y-10070774D02*
X13431201Y-10061250D01*
X13431201Y-10061250D02*
X13469296Y-10061250D01*
X13469296Y-10061250D02*
X13488343Y-10070774D01*
X13488343Y-10070774D02*
X13497867Y-10080298D01*
X13497867Y-10080298D02*
X13507391Y-10099346D01*
X13507391Y-10099346D02*
X13507391Y-10156489D01*
X13507391Y-10156489D02*
X13497867Y-10175536D01*
X13497867Y-10175536D02*
X13488343Y-10185060D01*
X13488343Y-10185060D02*
X13469296Y-10194584D01*
X13469296Y-10194584D02*
X13431201Y-10194584D01*
X13431201Y-10194584D02*
X13412153Y-10185060D01*
X13593105Y-10175536D02*
X13602629Y-10185060D01*
X13602629Y-10185060D02*
X13593105Y-10194584D01*
X13593105Y-10194584D02*
X13583582Y-10185060D01*
X13583582Y-10185060D02*
X13593105Y-10175536D01*
X13593105Y-10175536D02*
X13593105Y-10194584D01*
X13593105Y-10070774D02*
X13602629Y-10080298D01*
X13602629Y-10080298D02*
X13593105Y-10089822D01*
X13593105Y-10089822D02*
X13583582Y-10080298D01*
X13583582Y-10080298D02*
X13593105Y-10070774D01*
X13593105Y-10070774D02*
X13593105Y-10089822D01*
X11760900Y-10423100D02*
X11960900Y-10623100D01*
X11960900Y-10423100D02*
X11760900Y-10623100D01*
X12202629Y-10414584D02*
X12326439Y-10414584D01*
X12326439Y-10414584D02*
X12259772Y-10490774D01*
X12259772Y-10490774D02*
X12288343Y-10490774D01*
X12288343Y-10490774D02*
X12307391Y-10500298D01*
X12307391Y-10500298D02*
X12316915Y-10509822D01*
X12316915Y-10509822D02*
X12326439Y-10528870D01*
X12326439Y-10528870D02*
X12326439Y-10576489D01*
X12326439Y-10576489D02*
X12316915Y-10595536D01*
X12316915Y-10595536D02*
X12307391Y-10605060D01*
X12307391Y-10605060D02*
X12288343Y-10614584D01*
X12288343Y-10614584D02*
X12231201Y-10614584D01*
X12231201Y-10614584D02*
X12212153Y-10605060D01*
X12212153Y-10605060D02*
X12202629Y-10595536D01*
X12412153Y-10595536D02*
X12421677Y-10605060D01*
X12421677Y-10605060D02*
X12412153Y-10614584D01*
X12412153Y-10614584D02*
X12402629Y-10605060D01*
X12402629Y-10605060D02*
X12412153Y-10595536D01*
X12412153Y-10595536D02*
X12412153Y-10614584D01*
X12497867Y-10433631D02*
X12507391Y-10424108D01*
X12507391Y-10424108D02*
X12526439Y-10414584D01*
X12526439Y-10414584D02*
X12574058Y-10414584D01*
X12574058Y-10414584D02*
X12593105Y-10424108D01*
X12593105Y-10424108D02*
X12602629Y-10433631D01*
X12602629Y-10433631D02*
X12612153Y-10452679D01*
X12612153Y-10452679D02*
X12612153Y-10471727D01*
X12612153Y-10471727D02*
X12602629Y-10500298D01*
X12602629Y-10500298D02*
X12488343Y-10614584D01*
X12488343Y-10614584D02*
X12612153Y-10614584D01*
X12735962Y-10414584D02*
X12755010Y-10414584D01*
X12755010Y-10414584D02*
X12774058Y-10424108D01*
X12774058Y-10424108D02*
X12783582Y-10433631D01*
X12783582Y-10433631D02*
X12793105Y-10452679D01*
X12793105Y-10452679D02*
X12802629Y-10490774D01*
X12802629Y-10490774D02*
X12802629Y-10538393D01*
X12802629Y-10538393D02*
X12793105Y-10576489D01*
X12793105Y-10576489D02*
X12783582Y-10595536D01*
X12783582Y-10595536D02*
X12774058Y-10605060D01*
X12774058Y-10605060D02*
X12755010Y-10614584D01*
X12755010Y-10614584D02*
X12735962Y-10614584D01*
X12735962Y-10614584D02*
X12716915Y-10605060D01*
X12716915Y-10605060D02*
X12707391Y-10595536D01*
X12707391Y-10595536D02*
X12697867Y-10576489D01*
X12697867Y-10576489D02*
X12688343Y-10538393D01*
X12688343Y-10538393D02*
X12688343Y-10490774D01*
X12688343Y-10490774D02*
X12697867Y-10452679D01*
X12697867Y-10452679D02*
X12707391Y-10433631D01*
X12707391Y-10433631D02*
X12716915Y-10424108D01*
X12716915Y-10424108D02*
X12735962Y-10414584D01*
X12926439Y-10414584D02*
X12945486Y-10414584D01*
X12945486Y-10414584D02*
X12964534Y-10424108D01*
X12964534Y-10424108D02*
X12974058Y-10433631D01*
X12974058Y-10433631D02*
X12983582Y-10452679D01*
X12983582Y-10452679D02*
X12993105Y-10490774D01*
X12993105Y-10490774D02*
X12993105Y-10538393D01*
X12993105Y-10538393D02*
X12983582Y-10576489D01*
X12983582Y-10576489D02*
X12974058Y-10595536D01*
X12974058Y-10595536D02*
X12964534Y-10605060D01*
X12964534Y-10605060D02*
X12945486Y-10614584D01*
X12945486Y-10614584D02*
X12926439Y-10614584D01*
X12926439Y-10614584D02*
X12907391Y-10605060D01*
X12907391Y-10605060D02*
X12897867Y-10595536D01*
X12897867Y-10595536D02*
X12888343Y-10576489D01*
X12888343Y-10576489D02*
X12878820Y-10538393D01*
X12878820Y-10538393D02*
X12878820Y-10490774D01*
X12878820Y-10490774D02*
X12888343Y-10452679D01*
X12888343Y-10452679D02*
X12897867Y-10433631D01*
X12897867Y-10433631D02*
X12907391Y-10424108D01*
X12907391Y-10424108D02*
X12926439Y-10414584D01*
X13078820Y-10614584D02*
X13078820Y-10481250D01*
X13078820Y-10500298D02*
X13088343Y-10490774D01*
X13088343Y-10490774D02*
X13107391Y-10481250D01*
X13107391Y-10481250D02*
X13135963Y-10481250D01*
X13135963Y-10481250D02*
X13155010Y-10490774D01*
X13155010Y-10490774D02*
X13164534Y-10509822D01*
X13164534Y-10509822D02*
X13164534Y-10614584D01*
X13164534Y-10509822D02*
X13174058Y-10490774D01*
X13174058Y-10490774D02*
X13193105Y-10481250D01*
X13193105Y-10481250D02*
X13221677Y-10481250D01*
X13221677Y-10481250D02*
X13240724Y-10490774D01*
X13240724Y-10490774D02*
X13250248Y-10509822D01*
X13250248Y-10509822D02*
X13250248Y-10614584D01*
X13345486Y-10614584D02*
X13345486Y-10481250D01*
X13345486Y-10500298D02*
X13355010Y-10490774D01*
X13355010Y-10490774D02*
X13374058Y-10481250D01*
X13374058Y-10481250D02*
X13402629Y-10481250D01*
X13402629Y-10481250D02*
X13421677Y-10490774D01*
X13421677Y-10490774D02*
X13431201Y-10509822D01*
X13431201Y-10509822D02*
X13431201Y-10614584D01*
X13431201Y-10509822D02*
X13440724Y-10490774D01*
X13440724Y-10490774D02*
X13459772Y-10481250D01*
X13459772Y-10481250D02*
X13488343Y-10481250D01*
X13488343Y-10481250D02*
X13507391Y-10490774D01*
X13507391Y-10490774D02*
X13516915Y-10509822D01*
X13516915Y-10509822D02*
X13516915Y-10614584D01*
X13907391Y-10405060D02*
X13735963Y-10662203D01*
X14164534Y-10414584D02*
X14183582Y-10414584D01*
X14183582Y-10414584D02*
X14202629Y-10424108D01*
X14202629Y-10424108D02*
X14212153Y-10433631D01*
X14212153Y-10433631D02*
X14221677Y-10452679D01*
X14221677Y-10452679D02*
X14231201Y-10490774D01*
X14231201Y-10490774D02*
X14231201Y-10538393D01*
X14231201Y-10538393D02*
X14221677Y-10576489D01*
X14221677Y-10576489D02*
X14212153Y-10595536D01*
X14212153Y-10595536D02*
X14202629Y-10605060D01*
X14202629Y-10605060D02*
X14183582Y-10614584D01*
X14183582Y-10614584D02*
X14164534Y-10614584D01*
X14164534Y-10614584D02*
X14145486Y-10605060D01*
X14145486Y-10605060D02*
X14135963Y-10595536D01*
X14135963Y-10595536D02*
X14126439Y-10576489D01*
X14126439Y-10576489D02*
X14116915Y-10538393D01*
X14116915Y-10538393D02*
X14116915Y-10490774D01*
X14116915Y-10490774D02*
X14126439Y-10452679D01*
X14126439Y-10452679D02*
X14135963Y-10433631D01*
X14135963Y-10433631D02*
X14145486Y-10424108D01*
X14145486Y-10424108D02*
X14164534Y-10414584D01*
X14316915Y-10595536D02*
X14326439Y-10605060D01*
X14326439Y-10605060D02*
X14316915Y-10614584D01*
X14316915Y-10614584D02*
X14307391Y-10605060D01*
X14307391Y-10605060D02*
X14316915Y-10595536D01*
X14316915Y-10595536D02*
X14316915Y-10614584D01*
X14516915Y-10614584D02*
X14402629Y-10614584D01*
X14459772Y-10614584D02*
X14459772Y-10414584D01*
X14459772Y-10414584D02*
X14440725Y-10443155D01*
X14440725Y-10443155D02*
X14421677Y-10462203D01*
X14421677Y-10462203D02*
X14402629Y-10471727D01*
X14593106Y-10433631D02*
X14602629Y-10424108D01*
X14602629Y-10424108D02*
X14621677Y-10414584D01*
X14621677Y-10414584D02*
X14669296Y-10414584D01*
X14669296Y-10414584D02*
X14688344Y-10424108D01*
X14688344Y-10424108D02*
X14697867Y-10433631D01*
X14697867Y-10433631D02*
X14707391Y-10452679D01*
X14707391Y-10452679D02*
X14707391Y-10471727D01*
X14707391Y-10471727D02*
X14697867Y-10500298D01*
X14697867Y-10500298D02*
X14583582Y-10614584D01*
X14583582Y-10614584D02*
X14707391Y-10614584D01*
X14878820Y-10414584D02*
X14840725Y-10414584D01*
X14840725Y-10414584D02*
X14821677Y-10424108D01*
X14821677Y-10424108D02*
X14812153Y-10433631D01*
X14812153Y-10433631D02*
X14793106Y-10462203D01*
X14793106Y-10462203D02*
X14783582Y-10500298D01*
X14783582Y-10500298D02*
X14783582Y-10576489D01*
X14783582Y-10576489D02*
X14793106Y-10595536D01*
X14793106Y-10595536D02*
X14802629Y-10605060D01*
X14802629Y-10605060D02*
X14821677Y-10614584D01*
X14821677Y-10614584D02*
X14859772Y-10614584D01*
X14859772Y-10614584D02*
X14878820Y-10605060D01*
X14878820Y-10605060D02*
X14888344Y-10595536D01*
X14888344Y-10595536D02*
X14897867Y-10576489D01*
X14897867Y-10576489D02*
X14897867Y-10528870D01*
X14897867Y-10528870D02*
X14888344Y-10509822D01*
X14888344Y-10509822D02*
X14878820Y-10500298D01*
X14878820Y-10500298D02*
X14859772Y-10490774D01*
X14859772Y-10490774D02*
X14821677Y-10490774D01*
X14821677Y-10490774D02*
X14802629Y-10500298D01*
X14802629Y-10500298D02*
X14793106Y-10509822D01*
X14793106Y-10509822D02*
X14783582Y-10528870D01*
X15021677Y-10414584D02*
X15040725Y-10414584D01*
X15040725Y-10414584D02*
X15059772Y-10424108D01*
X15059772Y-10424108D02*
X15069296Y-10433631D01*
X15069296Y-10433631D02*
X15078820Y-10452679D01*
X15078820Y-10452679D02*
X15088344Y-10490774D01*
X15088344Y-10490774D02*
X15088344Y-10538393D01*
X15088344Y-10538393D02*
X15078820Y-10576489D01*
X15078820Y-10576489D02*
X15069296Y-10595536D01*
X15069296Y-10595536D02*
X15059772Y-10605060D01*
X15059772Y-10605060D02*
X15040725Y-10614584D01*
X15040725Y-10614584D02*
X15021677Y-10614584D01*
X15021677Y-10614584D02*
X15002629Y-10605060D01*
X15002629Y-10605060D02*
X14993106Y-10595536D01*
X14993106Y-10595536D02*
X14983582Y-10576489D01*
X14983582Y-10576489D02*
X14974058Y-10538393D01*
X14974058Y-10538393D02*
X14974058Y-10490774D01*
X14974058Y-10490774D02*
X14983582Y-10452679D01*
X14983582Y-10452679D02*
X14993106Y-10433631D01*
X14993106Y-10433631D02*
X15002629Y-10424108D01*
X15002629Y-10424108D02*
X15021677Y-10414584D01*
X15164534Y-10414584D02*
X15164534Y-10452679D01*
X15240725Y-10414584D02*
X15240725Y-10452679D01*
X15535963Y-10690774D02*
X15526439Y-10681250D01*
X15526439Y-10681250D02*
X15507391Y-10652679D01*
X15507391Y-10652679D02*
X15497868Y-10633631D01*
X15497868Y-10633631D02*
X15488344Y-10605060D01*
X15488344Y-10605060D02*
X15478820Y-10557441D01*
X15478820Y-10557441D02*
X15478820Y-10519346D01*
X15478820Y-10519346D02*
X15488344Y-10471727D01*
X15488344Y-10471727D02*
X15497868Y-10443155D01*
X15497868Y-10443155D02*
X15507391Y-10424108D01*
X15507391Y-10424108D02*
X15526439Y-10395536D01*
X15526439Y-10395536D02*
X15535963Y-10386012D01*
X15602629Y-10433631D02*
X15612153Y-10424108D01*
X15612153Y-10424108D02*
X15631201Y-10414584D01*
X15631201Y-10414584D02*
X15678820Y-10414584D01*
X15678820Y-10414584D02*
X15697868Y-10424108D01*
X15697868Y-10424108D02*
X15707391Y-10433631D01*
X15707391Y-10433631D02*
X15716915Y-10452679D01*
X15716915Y-10452679D02*
X15716915Y-10471727D01*
X15716915Y-10471727D02*
X15707391Y-10500298D01*
X15707391Y-10500298D02*
X15593106Y-10614584D01*
X15593106Y-10614584D02*
X15716915Y-10614584D01*
X15955010Y-10614584D02*
X15955010Y-10414584D01*
X16040725Y-10614584D02*
X16040725Y-10509822D01*
X16040725Y-10509822D02*
X16031201Y-10490774D01*
X16031201Y-10490774D02*
X16012153Y-10481250D01*
X16012153Y-10481250D02*
X15983582Y-10481250D01*
X15983582Y-10481250D02*
X15964534Y-10490774D01*
X15964534Y-10490774D02*
X15955010Y-10500298D01*
X16164534Y-10614584D02*
X16145487Y-10605060D01*
X16145487Y-10605060D02*
X16135963Y-10595536D01*
X16135963Y-10595536D02*
X16126439Y-10576489D01*
X16126439Y-10576489D02*
X16126439Y-10519346D01*
X16126439Y-10519346D02*
X16135963Y-10500298D01*
X16135963Y-10500298D02*
X16145487Y-10490774D01*
X16145487Y-10490774D02*
X16164534Y-10481250D01*
X16164534Y-10481250D02*
X16193106Y-10481250D01*
X16193106Y-10481250D02*
X16212153Y-10490774D01*
X16212153Y-10490774D02*
X16221677Y-10500298D01*
X16221677Y-10500298D02*
X16231201Y-10519346D01*
X16231201Y-10519346D02*
X16231201Y-10576489D01*
X16231201Y-10576489D02*
X16221677Y-10595536D01*
X16221677Y-10595536D02*
X16212153Y-10605060D01*
X16212153Y-10605060D02*
X16193106Y-10614584D01*
X16193106Y-10614584D02*
X16164534Y-10614584D01*
X16345487Y-10614584D02*
X16326439Y-10605060D01*
X16326439Y-10605060D02*
X16316915Y-10586012D01*
X16316915Y-10586012D02*
X16316915Y-10414584D01*
X16497868Y-10605060D02*
X16478820Y-10614584D01*
X16478820Y-10614584D02*
X16440725Y-10614584D01*
X16440725Y-10614584D02*
X16421677Y-10605060D01*
X16421677Y-10605060D02*
X16412153Y-10586012D01*
X16412153Y-10586012D02*
X16412153Y-10509822D01*
X16412153Y-10509822D02*
X16421677Y-10490774D01*
X16421677Y-10490774D02*
X16440725Y-10481250D01*
X16440725Y-10481250D02*
X16478820Y-10481250D01*
X16478820Y-10481250D02*
X16497868Y-10490774D01*
X16497868Y-10490774D02*
X16507391Y-10509822D01*
X16507391Y-10509822D02*
X16507391Y-10528870D01*
X16507391Y-10528870D02*
X16412153Y-10547917D01*
X16583582Y-10605060D02*
X16602630Y-10614584D01*
X16602630Y-10614584D02*
X16640725Y-10614584D01*
X16640725Y-10614584D02*
X16659772Y-10605060D01*
X16659772Y-10605060D02*
X16669296Y-10586012D01*
X16669296Y-10586012D02*
X16669296Y-10576489D01*
X16669296Y-10576489D02*
X16659772Y-10557441D01*
X16659772Y-10557441D02*
X16640725Y-10547917D01*
X16640725Y-10547917D02*
X16612153Y-10547917D01*
X16612153Y-10547917D02*
X16593106Y-10538393D01*
X16593106Y-10538393D02*
X16583582Y-10519346D01*
X16583582Y-10519346D02*
X16583582Y-10509822D01*
X16583582Y-10509822D02*
X16593106Y-10490774D01*
X16593106Y-10490774D02*
X16612153Y-10481250D01*
X16612153Y-10481250D02*
X16640725Y-10481250D01*
X16640725Y-10481250D02*
X16659772Y-10490774D01*
X16735963Y-10690774D02*
X16745487Y-10681250D01*
X16745487Y-10681250D02*
X16764534Y-10652679D01*
X16764534Y-10652679D02*
X16774058Y-10633631D01*
X16774058Y-10633631D02*
X16783582Y-10605060D01*
X16783582Y-10605060D02*
X16793106Y-10557441D01*
X16793106Y-10557441D02*
X16793106Y-10519346D01*
X16793106Y-10519346D02*
X16783582Y-10471727D01*
X16783582Y-10471727D02*
X16774058Y-10443155D01*
X16774058Y-10443155D02*
X16764534Y-10424108D01*
X16764534Y-10424108D02*
X16745487Y-10395536D01*
X16745487Y-10395536D02*
X16735963Y-10386012D01*
X17097868Y-10690774D02*
X17088344Y-10681250D01*
X17088344Y-10681250D02*
X17069296Y-10652679D01*
X17069296Y-10652679D02*
X17059773Y-10633631D01*
X17059773Y-10633631D02*
X17050249Y-10605060D01*
X17050249Y-10605060D02*
X17040725Y-10557441D01*
X17040725Y-10557441D02*
X17040725Y-10519346D01*
X17040725Y-10519346D02*
X17050249Y-10471727D01*
X17050249Y-10471727D02*
X17059773Y-10443155D01*
X17059773Y-10443155D02*
X17069296Y-10424108D01*
X17069296Y-10424108D02*
X17088344Y-10395536D01*
X17088344Y-10395536D02*
X17097868Y-10386012D01*
X17174058Y-10481250D02*
X17174058Y-10614584D01*
X17174058Y-10500298D02*
X17183582Y-10490774D01*
X17183582Y-10490774D02*
X17202630Y-10481250D01*
X17202630Y-10481250D02*
X17231201Y-10481250D01*
X17231201Y-10481250D02*
X17250249Y-10490774D01*
X17250249Y-10490774D02*
X17259773Y-10509822D01*
X17259773Y-10509822D02*
X17259773Y-10614584D01*
X17383582Y-10614584D02*
X17364534Y-10605060D01*
X17364534Y-10605060D02*
X17355011Y-10595536D01*
X17355011Y-10595536D02*
X17345487Y-10576489D01*
X17345487Y-10576489D02*
X17345487Y-10519346D01*
X17345487Y-10519346D02*
X17355011Y-10500298D01*
X17355011Y-10500298D02*
X17364534Y-10490774D01*
X17364534Y-10490774D02*
X17383582Y-10481250D01*
X17383582Y-10481250D02*
X17412154Y-10481250D01*
X17412154Y-10481250D02*
X17431201Y-10490774D01*
X17431201Y-10490774D02*
X17440725Y-10500298D01*
X17440725Y-10500298D02*
X17450249Y-10519346D01*
X17450249Y-10519346D02*
X17450249Y-10576489D01*
X17450249Y-10576489D02*
X17440725Y-10595536D01*
X17440725Y-10595536D02*
X17431201Y-10605060D01*
X17431201Y-10605060D02*
X17412154Y-10614584D01*
X17412154Y-10614584D02*
X17383582Y-10614584D01*
X17507392Y-10481250D02*
X17583582Y-10481250D01*
X17535963Y-10414584D02*
X17535963Y-10586012D01*
X17535963Y-10586012D02*
X17545487Y-10605060D01*
X17545487Y-10605060D02*
X17564534Y-10614584D01*
X17564534Y-10614584D02*
X17583582Y-10614584D01*
X17802630Y-10481250D02*
X17802630Y-10681250D01*
X17802630Y-10490774D02*
X17821677Y-10481250D01*
X17821677Y-10481250D02*
X17859773Y-10481250D01*
X17859773Y-10481250D02*
X17878820Y-10490774D01*
X17878820Y-10490774D02*
X17888344Y-10500298D01*
X17888344Y-10500298D02*
X17897868Y-10519346D01*
X17897868Y-10519346D02*
X17897868Y-10576489D01*
X17897868Y-10576489D02*
X17888344Y-10595536D01*
X17888344Y-10595536D02*
X17878820Y-10605060D01*
X17878820Y-10605060D02*
X17859773Y-10614584D01*
X17859773Y-10614584D02*
X17821677Y-10614584D01*
X17821677Y-10614584D02*
X17802630Y-10605060D01*
X18012154Y-10614584D02*
X17993106Y-10605060D01*
X17993106Y-10605060D02*
X17983582Y-10586012D01*
X17983582Y-10586012D02*
X17983582Y-10414584D01*
X18174058Y-10614584D02*
X18174058Y-10509822D01*
X18174058Y-10509822D02*
X18164535Y-10490774D01*
X18164535Y-10490774D02*
X18145487Y-10481250D01*
X18145487Y-10481250D02*
X18107392Y-10481250D01*
X18107392Y-10481250D02*
X18088344Y-10490774D01*
X18174058Y-10605060D02*
X18155011Y-10614584D01*
X18155011Y-10614584D02*
X18107392Y-10614584D01*
X18107392Y-10614584D02*
X18088344Y-10605060D01*
X18088344Y-10605060D02*
X18078820Y-10586012D01*
X18078820Y-10586012D02*
X18078820Y-10566965D01*
X18078820Y-10566965D02*
X18088344Y-10547917D01*
X18088344Y-10547917D02*
X18107392Y-10538393D01*
X18107392Y-10538393D02*
X18155011Y-10538393D01*
X18155011Y-10538393D02*
X18174058Y-10528870D01*
X18240725Y-10481250D02*
X18316915Y-10481250D01*
X18269296Y-10414584D02*
X18269296Y-10586012D01*
X18269296Y-10586012D02*
X18278820Y-10605060D01*
X18278820Y-10605060D02*
X18297868Y-10614584D01*
X18297868Y-10614584D02*
X18316915Y-10614584D01*
X18459773Y-10605060D02*
X18440725Y-10614584D01*
X18440725Y-10614584D02*
X18402630Y-10614584D01*
X18402630Y-10614584D02*
X18383582Y-10605060D01*
X18383582Y-10605060D02*
X18374058Y-10586012D01*
X18374058Y-10586012D02*
X18374058Y-10509822D01*
X18374058Y-10509822D02*
X18383582Y-10490774D01*
X18383582Y-10490774D02*
X18402630Y-10481250D01*
X18402630Y-10481250D02*
X18440725Y-10481250D01*
X18440725Y-10481250D02*
X18459773Y-10490774D01*
X18459773Y-10490774D02*
X18469296Y-10509822D01*
X18469296Y-10509822D02*
X18469296Y-10528870D01*
X18469296Y-10528870D02*
X18374058Y-10547917D01*
X18640725Y-10614584D02*
X18640725Y-10414584D01*
X18640725Y-10605060D02*
X18621677Y-10614584D01*
X18621677Y-10614584D02*
X18583582Y-10614584D01*
X18583582Y-10614584D02*
X18564535Y-10605060D01*
X18564535Y-10605060D02*
X18555011Y-10595536D01*
X18555011Y-10595536D02*
X18545487Y-10576489D01*
X18545487Y-10576489D02*
X18545487Y-10519346D01*
X18545487Y-10519346D02*
X18555011Y-10500298D01*
X18555011Y-10500298D02*
X18564535Y-10490774D01*
X18564535Y-10490774D02*
X18583582Y-10481250D01*
X18583582Y-10481250D02*
X18621677Y-10481250D01*
X18621677Y-10481250D02*
X18640725Y-10490774D01*
X18716916Y-10690774D02*
X18726439Y-10681250D01*
X18726439Y-10681250D02*
X18745487Y-10652679D01*
X18745487Y-10652679D02*
X18755011Y-10633631D01*
X18755011Y-10633631D02*
X18764535Y-10605060D01*
X18764535Y-10605060D02*
X18774058Y-10557441D01*
X18774058Y-10557441D02*
X18774058Y-10519346D01*
X18774058Y-10519346D02*
X18764535Y-10471727D01*
X18764535Y-10471727D02*
X18755011Y-10443155D01*
X18755011Y-10443155D02*
X18745487Y-10424108D01*
X18745487Y-10424108D02*
X18726439Y-10395536D01*
X18726439Y-10395536D02*
X18716916Y-10386012D01*
M02*
