%TF.GenerationSoftware,KiCad,Pcbnew,8.0.8+1*%
%TF.CreationDate,2025-02-28T13:17:03+11:00*%
%TF.ProjectId,vmon,766d6f6e-2e6b-4696-9361-645f70636258,rev?*%
%TF.SameCoordinates,Original*%
%TF.FileFunction,Soldermask,Top*%
%TF.FilePolarity,Negative*%
%FSLAX46Y46*%
G04 Gerber Fmt 4.6, Leading zero omitted, Abs format (unit mm)*
G04 Created by KiCad (PCBNEW 8.0.8+1) date 2025-02-28 13:17:03*
%MOMM*%
%LPD*%
G01*
G04 APERTURE LIST*
G04 Aperture macros list*
%AMRoundRect*
0 Rectangle with rounded corners*
0 $1 Rounding radius*
0 $2 $3 $4 $5 $6 $7 $8 $9 X,Y pos of 4 corners*
0 Add a 4 corners polygon primitive as box body*
4,1,4,$2,$3,$4,$5,$6,$7,$8,$9,$2,$3,0*
0 Add four circle primitives for the rounded corners*
1,1,$1+$1,$2,$3*
1,1,$1+$1,$4,$5*
1,1,$1+$1,$6,$7*
1,1,$1+$1,$8,$9*
0 Add four rect primitives between the rounded corners*
20,1,$1+$1,$2,$3,$4,$5,0*
20,1,$1+$1,$4,$5,$6,$7,0*
20,1,$1+$1,$6,$7,$8,$9,0*
20,1,$1+$1,$8,$9,$2,$3,0*%
G04 Aperture macros list end*
%ADD10RoundRect,0.250000X-0.350000X-0.450000X0.350000X-0.450000X0.350000X0.450000X-0.350000X0.450000X0*%
%ADD11R,2.000000X1.200000*%
%ADD12O,2.000000X1.200000*%
%ADD13R,1.600000X1.600000*%
%ADD14O,1.600000X1.600000*%
%ADD15RoundRect,0.250000X0.650000X1.550000X-0.650000X1.550000X-0.650000X-1.550000X0.650000X-1.550000X0*%
%ADD16O,1.800000X3.600000*%
%ADD17RoundRect,0.249999X1.425001X-0.450001X1.425001X0.450001X-1.425001X0.450001X-1.425001X-0.450001X0*%
%ADD18RoundRect,0.249999X-1.425001X0.450001X-1.425001X-0.450001X1.425001X-0.450001X1.425001X0.450001X0*%
%ADD19RoundRect,0.250000X0.350000X0.450000X-0.350000X0.450000X-0.350000X-0.450000X0.350000X-0.450000X0*%
%ADD20RoundRect,0.250000X-1.100000X0.412500X-1.100000X-0.412500X1.100000X-0.412500X1.100000X0.412500X0*%
%ADD21C,3.600000*%
%ADD22C,5.600000*%
%ADD23RoundRect,0.250000X-0.450000X0.350000X-0.450000X-0.350000X0.450000X-0.350000X0.450000X0.350000X0*%
%ADD24RoundRect,0.250000X-0.893000X0.893000X-0.893000X-0.893000X0.893000X-0.893000X0.893000X0.893000X0*%
%ADD25C,2.286000*%
%ADD26C,2.900000*%
%ADD27C,5.000000*%
%ADD28RoundRect,0.250000X0.450000X-0.350000X0.450000X0.350000X-0.450000X0.350000X-0.450000X-0.350000X0*%
%ADD29C,8.800000*%
%ADD30C,16.800000*%
%ADD31RoundRect,0.150000X-0.587500X-0.150000X0.587500X-0.150000X0.587500X0.150000X-0.587500X0.150000X0*%
%ADD32RoundRect,0.225000X0.250000X-0.225000X0.250000X0.225000X-0.250000X0.225000X-0.250000X-0.225000X0*%
%ADD33C,1.800000*%
G04 APERTURE END LIST*
D10*
%TO.C,R7*%
X61738000Y-108458000D03*
X63738000Y-108458000D03*
%TD*%
D11*
%TO.C,U1*%
X109728000Y-81280000D03*
D12*
X109728000Y-83820000D03*
X109728000Y-86360000D03*
X109728000Y-88900000D03*
X109728000Y-91440000D03*
X109728000Y-93980000D03*
X109728000Y-96520000D03*
X109728000Y-99060000D03*
X109728000Y-101600000D03*
X109728000Y-104140000D03*
X109728000Y-106680000D03*
X109728000Y-109220000D03*
X109728000Y-111760000D03*
X109728000Y-114300000D03*
X109728000Y-116840000D03*
X135128000Y-116840000D03*
X135128000Y-114300000D03*
X135128000Y-111760000D03*
X135128000Y-109220000D03*
X135128000Y-106680000D03*
X135128000Y-104140000D03*
X135128000Y-101600000D03*
X135128000Y-99060000D03*
X135128000Y-96520000D03*
X135128000Y-93980000D03*
X135128000Y-91440000D03*
X135128000Y-88900000D03*
X135128000Y-86360000D03*
X135128000Y-83820000D03*
X135128000Y-81280000D03*
%TD*%
D13*
%TO.C,U6*%
X97028000Y-84328000D03*
D14*
X94488000Y-84328000D03*
X94488000Y-91948000D03*
X97028000Y-91948000D03*
%TD*%
D15*
%TO.C,J4*%
X98243000Y-78370500D03*
D16*
X93163000Y-78370500D03*
X88083000Y-78370500D03*
X83003000Y-78370500D03*
%TD*%
D17*
%TO.C,R12*%
X149098000Y-78484000D03*
X149098000Y-72384000D03*
%TD*%
%TO.C,R23*%
X155448000Y-103634000D03*
X155448000Y-97534000D03*
%TD*%
%TO.C,R35*%
X168148000Y-125984000D03*
X168148000Y-119884000D03*
%TD*%
%TO.C,R24*%
X161798000Y-103634000D03*
X161798000Y-97534000D03*
%TD*%
D18*
%TO.C,R20*%
X168148000Y-83054000D03*
X168148000Y-89154000D03*
%TD*%
D19*
%TO.C,R2*%
X77438000Y-123698000D03*
X75438000Y-123698000D03*
%TD*%
D20*
%TO.C,C1*%
X104648000Y-108458000D03*
X104648000Y-111583000D03*
%TD*%
D17*
%TO.C,R22*%
X149098000Y-103634000D03*
X149098000Y-97534000D03*
%TD*%
D18*
%TO.C,R21*%
X174498000Y-83054000D03*
X174498000Y-89154000D03*
%TD*%
D21*
%TO.C,H1*%
X55880000Y-73660000D03*
D22*
X55880000Y-73660000D03*
%TD*%
D23*
%TO.C,R37*%
X141478000Y-78994000D03*
X141478000Y-80994000D03*
%TD*%
D13*
%TO.C,U3*%
X61468000Y-91948000D03*
D14*
X61468000Y-94488000D03*
X61468000Y-97028000D03*
X61468000Y-99568000D03*
X61468000Y-102108000D03*
X61468000Y-104648000D03*
%TD*%
D21*
%TO.C,H4*%
X182880000Y-124460000D03*
D22*
X182880000Y-124460000D03*
%TD*%
D17*
%TO.C,R26*%
X174498000Y-103634000D03*
X174498000Y-97534000D03*
%TD*%
D19*
%TO.C,R3*%
X71612000Y-123698000D03*
X69612000Y-123698000D03*
%TD*%
D15*
%TO.C,J3*%
X71573000Y-78370500D03*
D16*
X66493000Y-78370500D03*
%TD*%
D17*
%TO.C,R34*%
X161798000Y-125984000D03*
X161798000Y-119884000D03*
%TD*%
D19*
%TO.C,R9*%
X86360000Y-123698000D03*
X84360000Y-123698000D03*
%TD*%
D18*
%TO.C,R28*%
X155448000Y-108454000D03*
X155448000Y-114554000D03*
%TD*%
%TO.C,R30*%
X168148000Y-108454000D03*
X168148000Y-114554000D03*
%TD*%
%TO.C,R19*%
X161798000Y-83054000D03*
X161798000Y-89154000D03*
%TD*%
D13*
%TO.C,U4*%
X156718000Y-93724000D03*
D14*
X159258000Y-93724000D03*
X161798000Y-93724000D03*
X164338000Y-93724000D03*
X166878000Y-93724000D03*
X169418000Y-93724000D03*
%TD*%
D18*
%TO.C,R27*%
X149098000Y-108454000D03*
X149098000Y-114554000D03*
%TD*%
D13*
%TO.C,U5*%
X69093000Y-84338000D03*
D14*
X66553000Y-84338000D03*
X66553000Y-91958000D03*
X69093000Y-91958000D03*
%TD*%
D24*
%TO.C,U2*%
X71098000Y-99551400D03*
D25*
X71098000Y-113351400D03*
X100098000Y-113351400D03*
X100098000Y-99551400D03*
X79756000Y-99568000D03*
%TD*%
D19*
%TO.C,R1*%
X76168000Y-88138000D03*
X74168000Y-88138000D03*
%TD*%
D21*
%TO.C,H3*%
X182880000Y-73660000D03*
D22*
X182880000Y-73660000D03*
%TD*%
D26*
%TO.C,H2*%
X182880000Y-101600000D03*
D27*
X182880000Y-101600000D03*
%TD*%
D28*
%TO.C,R5*%
X97028000Y-96504000D03*
X97028000Y-94504000D03*
%TD*%
D29*
%TO.C,B12+1*%
X50038000Y-99568000D03*
D30*
X50038000Y-99568000D03*
%TD*%
D13*
%TO.C,U8*%
X94488000Y-119888000D03*
D14*
X91948000Y-119888000D03*
X89408000Y-119888000D03*
X86868000Y-119888000D03*
X84328000Y-119888000D03*
X81788000Y-119888000D03*
X79248000Y-119888000D03*
X76708000Y-119888000D03*
X74168000Y-119888000D03*
X71628000Y-119888000D03*
%TD*%
D13*
%TO.C,U7*%
X84328000Y-91948000D03*
D14*
X86868000Y-91948000D03*
X86868000Y-84328000D03*
X84328000Y-84328000D03*
%TD*%
D17*
%TO.C,R13*%
X155448000Y-78484000D03*
X155448000Y-72384000D03*
%TD*%
%TO.C,R33*%
X155448000Y-125984000D03*
X155448000Y-119884000D03*
%TD*%
%TO.C,R36*%
X174498000Y-125984000D03*
X174498000Y-119884000D03*
%TD*%
D31*
%TO.C,Q2*%
X141478000Y-95128000D03*
X141478000Y-97028000D03*
X143353000Y-96078000D03*
%TD*%
D21*
%TO.C,H5*%
X55880000Y-124460000D03*
D22*
X55880000Y-124460000D03*
%TD*%
D23*
%TO.C,R11*%
X141478000Y-89678000D03*
X141478000Y-91678000D03*
%TD*%
D18*
%TO.C,R18*%
X155448000Y-83054000D03*
X155448000Y-89154000D03*
%TD*%
D17*
%TO.C,R25*%
X168148000Y-103634000D03*
X168148000Y-97534000D03*
%TD*%
D19*
%TO.C,R4*%
X75168000Y-116078000D03*
X73168000Y-116078000D03*
%TD*%
D32*
%TO.C,C2*%
X104648000Y-104928000D03*
X104648000Y-103378000D03*
%TD*%
D17*
%TO.C,R14*%
X161798000Y-78484000D03*
X161798000Y-72384000D03*
%TD*%
D18*
%TO.C,R29*%
X161798000Y-108454000D03*
X161798000Y-114554000D03*
%TD*%
D31*
%TO.C,Q1*%
X73563000Y-92268000D03*
X73563000Y-94168000D03*
X75438000Y-93218000D03*
%TD*%
D17*
%TO.C,R15*%
X168148000Y-78484000D03*
X168148000Y-72384000D03*
%TD*%
D18*
%TO.C,R17*%
X149098000Y-83054000D03*
X149098000Y-89154000D03*
%TD*%
D17*
%TO.C,R16*%
X174498000Y-78484000D03*
X174498000Y-72384000D03*
%TD*%
D10*
%TO.C,R6*%
X86868000Y-94488000D03*
X88868000Y-94488000D03*
%TD*%
D18*
%TO.C,R31*%
X174498000Y-108454000D03*
X174498000Y-114554000D03*
%TD*%
D23*
%TO.C,R38*%
X141478000Y-83598000D03*
X141478000Y-85598000D03*
%TD*%
D19*
%TO.C,R8*%
X82026000Y-123698000D03*
X80026000Y-123698000D03*
%TD*%
D33*
%TO.C,TP1*%
X182880000Y-93218000D03*
%TD*%
D19*
%TO.C,R10*%
X175498000Y-93724000D03*
X173498000Y-93724000D03*
%TD*%
D17*
%TO.C,R32*%
X149098000Y-125984000D03*
X149098000Y-119884000D03*
%TD*%
M02*
