M48
; DRILL file {KiCad 8.0.8+1} date 2025-02-28T11:18:30+1100
; FORMAT={-:-/ absolute / inch / decimal}
; #@! TF.CreationDate,2025-02-28T11:18:30+11:00
; #@! TF.GenerationSoftware,Kicad,Pcbnew,8.0.8+1
; #@! TF.FileFunction,Plated,1,2,PTH
FMAT,2
INCH
; #@! TA.AperFunction,Plated,PTH,ViaDrill
T1C0.0200
; #@! TA.AperFunction,Plated,PTH,ViaDrill
T2C0.0300
; #@! TA.AperFunction,Plated,PTH,ComponentDrill
T3C0.0315
; #@! TA.AperFunction,Plated,PTH,ComponentDrill
T4C0.0354
; #@! TA.AperFunction,Plated,PTH,ComponentDrill
T5C0.0394
; #@! TA.AperFunction,Plated,PTH,ComponentDrill
T6C0.0472
; #@! TA.AperFunction,Plated,PTH,ComponentDrill
T7C0.0984
; #@! TA.AperFunction,Plated,PTH,ComponentDrill
T8C0.1260
; #@! TA.AperFunction,Plated,PTH,ComponentDrill
T9C0.3307
%
G90
G05
T1
X2.86Y-4.27
X3.1Y-3.47
X3.16Y-3.67
X3.26Y-4.04
X3.59Y-3.72
X3.72Y-4.18
X3.78Y-4.86
X3.87Y-4.16
X3.92Y-4.34
X3.97Y-3.72
X4.12Y-4.89
X5.45Y-3.6
X5.47Y-3.93
X5.67Y-3.15
X6.96Y-3.67
T2
X2.5459Y-4.7159
X5.69Y-3.66
X5.69Y-3.9001
X5.8655Y-3.2745
X5.87Y-4.0801
X5.99Y-4.51
X6.0Y-3.8399
X6.1Y-4.51
X6.11Y-3.84
X6.22Y-4.51
X6.23Y-3.84
T3
X2.42Y-3.62
X2.42Y-3.72
X2.42Y-3.82
X2.42Y-3.92
X2.42Y-4.02
X2.42Y-4.12
X2.6202Y-3.3204
X2.6202Y-3.6204
X2.7202Y-3.3204
X2.7202Y-3.6204
X2.82Y-4.72
X2.92Y-4.72
X3.02Y-4.72
X3.12Y-4.72
X3.22Y-4.72
X3.32Y-3.32
X3.32Y-3.62
X3.32Y-4.72
X3.42Y-3.32
X3.42Y-3.62
X3.42Y-4.72
X3.52Y-4.72
X3.62Y-4.72
X3.72Y-3.32
X3.72Y-3.62
X3.72Y-4.72
X3.82Y-3.32
X3.82Y-3.62
X4.32Y-3.2
X4.32Y-3.3
X4.32Y-3.4
X4.32Y-3.5
X4.32Y-3.6
X4.32Y-3.7
X4.32Y-3.8
X4.32Y-3.9
X4.32Y-4.0
X4.32Y-4.1
X4.32Y-4.2
X4.32Y-4.3
X4.32Y-4.4
X4.32Y-4.5
X4.32Y-4.6
X5.32Y-3.2
X5.32Y-3.3
X5.32Y-3.4
X5.32Y-3.5
X5.32Y-3.6
X5.32Y-3.7
X5.32Y-3.8
X5.32Y-3.9
X5.32Y-4.0
X5.32Y-4.1
X5.32Y-4.2
X5.32Y-4.3
X5.32Y-4.4
X5.32Y-4.5
X5.32Y-4.6
X6.17Y-3.6899
X6.27Y-3.6899
X6.37Y-3.6899
X6.47Y-3.6899
X6.57Y-3.6899
X6.67Y-3.6899
T4
X7.2Y-3.67
T5
X2.7991Y-3.9193
X2.7991Y-4.4627
X3.14Y-3.92
X3.9409Y-3.9193
X3.9409Y-4.4627
T6
X2.6178Y-3.0855
X2.8178Y-3.0855
X3.2678Y-3.0855
X3.4678Y-3.0855
X3.6678Y-3.0855
X3.8678Y-3.0855
T7
X7.2Y-4.0
T8
X2.2Y-2.9
X2.2Y-4.9
X7.2Y-2.9
X7.2Y-4.9
T9
X1.97Y-3.92
M30
