%TF.GenerationSoftware,KiCad,Pcbnew,8.0.8+1*%
%TF.CreationDate,2025-02-28T13:17:03+11:00*%
%TF.ProjectId,vmon,766d6f6e-2e6b-4696-9361-645f70636258,rev?*%
%TF.SameCoordinates,Original*%
%TF.FileFunction,Copper,L1,Top*%
%TF.FilePolarity,Positive*%
%FSLAX46Y46*%
G04 Gerber Fmt 4.6, Leading zero omitted, Abs format (unit mm)*
G04 Created by KiCad (PCBNEW 8.0.8+1) date 2025-02-28 13:17:03*
%MOMM*%
%LPD*%
G01*
G04 APERTURE LIST*
G04 Aperture macros list*
%AMRoundRect*
0 Rectangle with rounded corners*
0 $1 Rounding radius*
0 $2 $3 $4 $5 $6 $7 $8 $9 X,Y pos of 4 corners*
0 Add a 4 corners polygon primitive as box body*
4,1,4,$2,$3,$4,$5,$6,$7,$8,$9,$2,$3,0*
0 Add four circle primitives for the rounded corners*
1,1,$1+$1,$2,$3*
1,1,$1+$1,$4,$5*
1,1,$1+$1,$6,$7*
1,1,$1+$1,$8,$9*
0 Add four rect primitives between the rounded corners*
20,1,$1+$1,$2,$3,$4,$5,0*
20,1,$1+$1,$4,$5,$6,$7,0*
20,1,$1+$1,$6,$7,$8,$9,0*
20,1,$1+$1,$8,$9,$2,$3,0*%
G04 Aperture macros list end*
%TA.AperFunction,SMDPad,CuDef*%
%ADD10RoundRect,0.250000X-0.350000X-0.450000X0.350000X-0.450000X0.350000X0.450000X-0.350000X0.450000X0*%
%TD*%
%TA.AperFunction,ComponentPad*%
%ADD11R,2.000000X1.200000*%
%TD*%
%TA.AperFunction,ComponentPad*%
%ADD12O,2.000000X1.200000*%
%TD*%
%TA.AperFunction,ComponentPad*%
%ADD13R,1.600000X1.600000*%
%TD*%
%TA.AperFunction,ComponentPad*%
%ADD14O,1.600000X1.600000*%
%TD*%
%TA.AperFunction,ComponentPad*%
%ADD15RoundRect,0.250000X0.650000X1.550000X-0.650000X1.550000X-0.650000X-1.550000X0.650000X-1.550000X0*%
%TD*%
%TA.AperFunction,ComponentPad*%
%ADD16O,1.800000X3.600000*%
%TD*%
%TA.AperFunction,SMDPad,CuDef*%
%ADD17RoundRect,0.249999X1.425001X-0.450001X1.425001X0.450001X-1.425001X0.450001X-1.425001X-0.450001X0*%
%TD*%
%TA.AperFunction,SMDPad,CuDef*%
%ADD18RoundRect,0.249999X-1.425001X0.450001X-1.425001X-0.450001X1.425001X-0.450001X1.425001X0.450001X0*%
%TD*%
%TA.AperFunction,SMDPad,CuDef*%
%ADD19RoundRect,0.250000X0.350000X0.450000X-0.350000X0.450000X-0.350000X-0.450000X0.350000X-0.450000X0*%
%TD*%
%TA.AperFunction,SMDPad,CuDef*%
%ADD20RoundRect,0.250000X-1.100000X0.412500X-1.100000X-0.412500X1.100000X-0.412500X1.100000X0.412500X0*%
%TD*%
%TA.AperFunction,ComponentPad*%
%ADD21C,3.600000*%
%TD*%
%TA.AperFunction,ConnectorPad*%
%ADD22C,5.600000*%
%TD*%
%TA.AperFunction,SMDPad,CuDef*%
%ADD23RoundRect,0.250000X-0.450000X0.350000X-0.450000X-0.350000X0.450000X-0.350000X0.450000X0.350000X0*%
%TD*%
%TA.AperFunction,ComponentPad*%
%ADD24RoundRect,0.250000X-0.893000X0.893000X-0.893000X-0.893000X0.893000X-0.893000X0.893000X0.893000X0*%
%TD*%
%TA.AperFunction,ComponentPad*%
%ADD25C,2.286000*%
%TD*%
%TA.AperFunction,ComponentPad*%
%ADD26C,2.900000*%
%TD*%
%TA.AperFunction,ConnectorPad*%
%ADD27C,5.000000*%
%TD*%
%TA.AperFunction,SMDPad,CuDef*%
%ADD28RoundRect,0.250000X0.450000X-0.350000X0.450000X0.350000X-0.450000X0.350000X-0.450000X-0.350000X0*%
%TD*%
%TA.AperFunction,ComponentPad*%
%ADD29C,8.800000*%
%TD*%
%TA.AperFunction,ConnectorPad*%
%ADD30C,16.800000*%
%TD*%
%TA.AperFunction,SMDPad,CuDef*%
%ADD31RoundRect,0.150000X-0.587500X-0.150000X0.587500X-0.150000X0.587500X0.150000X-0.587500X0.150000X0*%
%TD*%
%TA.AperFunction,SMDPad,CuDef*%
%ADD32RoundRect,0.225000X0.250000X-0.225000X0.250000X0.225000X-0.250000X0.225000X-0.250000X-0.225000X0*%
%TD*%
%TA.AperFunction,ComponentPad*%
%ADD33C,1.800000*%
%TD*%
%TA.AperFunction,ViaPad*%
%ADD34C,1.270000*%
%TD*%
%TA.AperFunction,ViaPad*%
%ADD35C,2.540000*%
%TD*%
%TA.AperFunction,ViaPad*%
%ADD36C,1.016000*%
%TD*%
%TA.AperFunction,Conductor*%
%ADD37C,2.540000*%
%TD*%
%TA.AperFunction,Conductor*%
%ADD38C,0.254000*%
%TD*%
%TA.AperFunction,Conductor*%
%ADD39C,0.508000*%
%TD*%
%TA.AperFunction,Conductor*%
%ADD40C,1.270000*%
%TD*%
%TA.AperFunction,Conductor*%
%ADD41C,0.200000*%
%TD*%
G04 APERTURE END LIST*
D10*
%TO.P,R7,1*%
%TO.N,Net-(U3-SDO)*%
X61738000Y-108458000D03*
%TO.P,R7,2*%
%TO.N,+3V3*%
X63738000Y-108458000D03*
%TD*%
D11*
%TO.P,U1,1,EN*%
%TO.N,unconnected-(U1-EN-Pad1)*%
X109728000Y-81280000D03*
D12*
%TO.P,U1,2,VP*%
%TO.N,unconnected-(U1-VP-Pad2)*%
X109728000Y-83820000D03*
%TO.P,U1,3,VN*%
%TO.N,unconnected-(U1-VN-Pad3)*%
X109728000Y-86360000D03*
%TO.P,U1,4,D34*%
%TO.N,Net-(U1-D34)*%
X109728000Y-88900000D03*
%TO.P,U1,5,D35*%
%TO.N,unconnected-(U1-D35-Pad5)*%
X109728000Y-91440000D03*
%TO.P,U1,6,D32*%
%TO.N,unconnected-(U1-D32-Pad6)*%
X109728000Y-93980000D03*
%TO.P,U1,7,D33*%
%TO.N,unconnected-(U1-D33-Pad7)*%
X109728000Y-96520000D03*
%TO.P,U1,8,D25*%
%TO.N,unconnected-(U1-D25-Pad8)*%
X109728000Y-99060000D03*
%TO.P,U1,9,D26*%
%TO.N,unconnected-(U1-D26-Pad9)*%
X109728000Y-101600000D03*
%TO.P,U1,10,D27*%
%TO.N,unconnected-(U1-D27-Pad10)*%
X109728000Y-104140000D03*
%TO.P,U1,11,D14*%
%TO.N,unconnected-(U1-D14-Pad11)*%
X109728000Y-106680000D03*
%TO.P,U1,12,D12*%
%TO.N,unconnected-(U1-D12-Pad12)*%
X109728000Y-109220000D03*
%TO.P,U1,13,D13*%
%TO.N,unconnected-(U1-D13-Pad13)*%
X109728000Y-111760000D03*
%TO.P,U1,14,GND*%
%TO.N,GND*%
X109728000Y-114300000D03*
%TO.P,U1,15,VIN*%
%TO.N,Net-(U1-VIN)*%
X109728000Y-116840000D03*
%TO.P,U1,16,3V3*%
%TO.N,+3V3*%
X135128000Y-116840000D03*
%TO.P,U1,17,GND*%
%TO.N,GND*%
X135128000Y-114300000D03*
%TO.P,U1,18,D15*%
%TO.N,unconnected-(U1-D15-Pad18)*%
X135128000Y-111760000D03*
%TO.P,U1,19,D2*%
%TO.N,unconnected-(U1-D2-Pad19)*%
X135128000Y-109220000D03*
%TO.P,U1,20,D4*%
%TO.N,unconnected-(U1-D4-Pad20)*%
X135128000Y-106680000D03*
%TO.P,U1,21,D16*%
%TO.N,/MOSI*%
X135128000Y-104140000D03*
%TO.P,U1,22,D17*%
%TO.N,/MISO*%
X135128000Y-101600000D03*
%TO.P,U1,23,D5*%
%TO.N,unconnected-(U1-D5-Pad23)*%
X135128000Y-99060000D03*
%TO.P,U1,24,D18*%
%TO.N,Net-(Q2-G)*%
X135128000Y-96520000D03*
%TO.P,U1,25,D19*%
%TO.N,unconnected-(U1-D19-Pad25)*%
X135128000Y-93980000D03*
%TO.P,U1,26,D21*%
%TO.N,/SDA*%
X135128000Y-91440000D03*
%TO.P,U1,27,RXD0*%
%TO.N,unconnected-(U1-RXD0-Pad27)*%
X135128000Y-88900000D03*
%TO.P,U1,28,TXD0*%
%TO.N,unconnected-(U1-TXD0-Pad28)*%
X135128000Y-86360000D03*
%TO.P,U1,29,D22*%
%TO.N,/SCL*%
X135128000Y-83820000D03*
%TO.P,U1,30,D23*%
%TO.N,unconnected-(U1-D23-Pad30)*%
X135128000Y-81280000D03*
%TD*%
D13*
%TO.P,U6,1*%
%TO.N,Net-(J4-Pin_1)*%
X97028000Y-84328000D03*
D14*
%TO.P,U6,2*%
%TO.N,Net-(J4-Pin_2)*%
X94488000Y-84328000D03*
%TO.P,U6,3*%
%TO.N,GND*%
X94488000Y-91948000D03*
%TO.P,U6,4*%
%TO.N,/MOSI*%
X97028000Y-91948000D03*
%TD*%
D15*
%TO.P,J4,1,Pin_1*%
%TO.N,Net-(J4-Pin_1)*%
X98243000Y-78370500D03*
D16*
%TO.P,J4,2,Pin_2*%
%TO.N,Net-(J4-Pin_2)*%
X93163000Y-78370500D03*
%TO.P,J4,3,Pin_3*%
%TO.N,Net-(J4-Pin_3)*%
X88083000Y-78370500D03*
%TO.P,J4,4,Pin_4*%
%TO.N,Net-(J4-Pin_4)*%
X83003000Y-78370500D03*
%TD*%
D17*
%TO.P,R12,1*%
%TO.N,Net-(Q2-D)*%
X149098000Y-78484000D03*
%TO.P,R12,2*%
%TO.N,+12VA*%
X149098000Y-72384000D03*
%TD*%
%TO.P,R23,1*%
%TO.N,Net-(Q2-D)*%
X155448000Y-103634000D03*
%TO.P,R23,2*%
%TO.N,+12VA*%
X155448000Y-97534000D03*
%TD*%
%TO.P,R35,1*%
%TO.N,Net-(Q2-D)*%
X168148000Y-125984000D03*
%TO.P,R35,2*%
%TO.N,+12VA*%
X168148000Y-119884000D03*
%TD*%
%TO.P,R24,1*%
%TO.N,Net-(Q2-D)*%
X161798000Y-103634000D03*
%TO.P,R24,2*%
%TO.N,+12VA*%
X161798000Y-97534000D03*
%TD*%
D18*
%TO.P,R20,1*%
%TO.N,Net-(Q2-D)*%
X168148000Y-83054000D03*
%TO.P,R20,2*%
%TO.N,+12VA*%
X168148000Y-89154000D03*
%TD*%
D19*
%TO.P,R2,1*%
%TO.N,+12VA*%
X77438000Y-123698000D03*
%TO.P,R2,2*%
%TO.N,Net-(U8-AN0)*%
X75438000Y-123698000D03*
%TD*%
D20*
%TO.P,C1,1*%
%TO.N,+3V3*%
X104648000Y-108458000D03*
%TO.P,C1,2*%
%TO.N,GND*%
X104648000Y-111583000D03*
%TD*%
D17*
%TO.P,R22,1*%
%TO.N,Net-(Q2-D)*%
X149098000Y-103634000D03*
%TO.P,R22,2*%
%TO.N,+12VA*%
X149098000Y-97534000D03*
%TD*%
D18*
%TO.P,R21,1*%
%TO.N,Net-(Q2-D)*%
X174498000Y-83054000D03*
%TO.P,R21,2*%
%TO.N,+12VA*%
X174498000Y-89154000D03*
%TD*%
D21*
%TO.P,H1,1,1*%
%TO.N,unconnected-(H1-Pad1)*%
X55880000Y-73660000D03*
D22*
X55880000Y-73660000D03*
%TD*%
D23*
%TO.P,R37,1*%
%TO.N,/SCL*%
X141478000Y-78994000D03*
%TO.P,R37,2*%
%TO.N,+3V3*%
X141478000Y-80994000D03*
%TD*%
D13*
%TO.P,U3,1,VCC*%
%TO.N,+3V3*%
X61468000Y-91948000D03*
D14*
%TO.P,U3,2,GND*%
%TO.N,GND*%
X61468000Y-94488000D03*
%TO.P,U3,3,SCL*%
%TO.N,/SCL*%
X61468000Y-97028000D03*
%TO.P,U3,4,SDA*%
%TO.N,/SDA*%
X61468000Y-99568000D03*
%TO.P,U3,5*%
%TO.N,N/C*%
X61468000Y-102108000D03*
%TO.P,U3,6,SDO*%
%TO.N,Net-(U3-SDO)*%
X61468000Y-104648000D03*
%TD*%
D21*
%TO.P,H4,1,1*%
%TO.N,unconnected-(H4-Pad1)*%
X182880000Y-124460000D03*
D22*
X182880000Y-124460000D03*
%TD*%
D17*
%TO.P,R26,1*%
%TO.N,Net-(Q2-D)*%
X174498000Y-103634000D03*
%TO.P,R26,2*%
%TO.N,+12VA*%
X174498000Y-97534000D03*
%TD*%
D19*
%TO.P,R3,1*%
%TO.N,Net-(U8-AN0)*%
X71612000Y-123698000D03*
%TO.P,R3,2*%
%TO.N,GND*%
X69612000Y-123698000D03*
%TD*%
D15*
%TO.P,J3,1,Pin_1*%
%TO.N,Net-(J3-Pin_1)*%
X71573000Y-78370500D03*
D16*
%TO.P,J3,2,Pin_2*%
%TO.N,Net-(J3-Pin_2)*%
X66493000Y-78370500D03*
%TD*%
D17*
%TO.P,R34,1*%
%TO.N,Net-(Q2-D)*%
X161798000Y-125984000D03*
%TO.P,R34,2*%
%TO.N,+12VA*%
X161798000Y-119884000D03*
%TD*%
D19*
%TO.P,R9,1*%
%TO.N,GND*%
X86360000Y-123698000D03*
%TO.P,R9,2*%
%TO.N,Net-(U8-ADDR)*%
X84360000Y-123698000D03*
%TD*%
D18*
%TO.P,R28,1*%
%TO.N,Net-(Q2-D)*%
X155448000Y-108454000D03*
%TO.P,R28,2*%
%TO.N,+12VA*%
X155448000Y-114554000D03*
%TD*%
%TO.P,R30,1*%
%TO.N,Net-(Q2-D)*%
X168148000Y-108454000D03*
%TO.P,R30,2*%
%TO.N,+12VA*%
X168148000Y-114554000D03*
%TD*%
%TO.P,R19,1*%
%TO.N,Net-(Q2-D)*%
X161798000Y-83054000D03*
%TO.P,R19,2*%
%TO.N,+12VA*%
X161798000Y-89154000D03*
%TD*%
D13*
%TO.P,U4,1,VCC*%
%TO.N,+3V3*%
X156718000Y-93724000D03*
D14*
%TO.P,U4,2,GND*%
%TO.N,GND*%
X159258000Y-93724000D03*
%TO.P,U4,3,SCL*%
%TO.N,/SCL*%
X161798000Y-93724000D03*
%TO.P,U4,4,SDA*%
%TO.N,/SDA*%
X164338000Y-93724000D03*
%TO.P,U4,5*%
%TO.N,N/C*%
X166878000Y-93724000D03*
%TO.P,U4,6,SDO*%
%TO.N,Net-(U4-SDO)*%
X169418000Y-93724000D03*
%TD*%
D18*
%TO.P,R27,1*%
%TO.N,Net-(Q2-D)*%
X149098000Y-108454000D03*
%TO.P,R27,2*%
%TO.N,+12VA*%
X149098000Y-114554000D03*
%TD*%
D13*
%TO.P,U5,1*%
%TO.N,Net-(J3-Pin_1)*%
X69093000Y-84338000D03*
D14*
%TO.P,U5,2*%
%TO.N,Net-(J3-Pin_2)*%
X66553000Y-84338000D03*
%TO.P,U5,3*%
%TO.N,GND*%
X66553000Y-91958000D03*
%TO.P,U5,4*%
%TO.N,Net-(Q1-B)*%
X69093000Y-91958000D03*
%TD*%
D24*
%TO.P,U2,1,Vin_p*%
%TO.N,+12VA*%
X71098000Y-99551400D03*
D25*
%TO.P,U2,2,Vin_gnd*%
%TO.N,GND*%
X71098000Y-113351400D03*
%TO.P,U2,3,VO_GND*%
X100098000Y-113351400D03*
%TO.P,U2,4,V5V_p*%
%TO.N,Net-(U1-VIN)*%
X100098000Y-99551400D03*
%TO.P,U2,5,EN*%
%TO.N,Net-(Q1-C)*%
X79756000Y-99568000D03*
%TD*%
D19*
%TO.P,R1,1*%
%TO.N,+12VA*%
X76168000Y-88138000D03*
%TO.P,R1,2*%
%TO.N,Net-(Q1-B)*%
X74168000Y-88138000D03*
%TD*%
D21*
%TO.P,H3,1,1*%
%TO.N,unconnected-(H3-Pad1)*%
X182880000Y-73660000D03*
D22*
X182880000Y-73660000D03*
%TD*%
D26*
%TO.P,H2,1,1*%
%TO.N,GND*%
X182880000Y-101600000D03*
D27*
X182880000Y-101600000D03*
%TD*%
D28*
%TO.P,R5,1*%
%TO.N,+3V3*%
X97028000Y-96504000D03*
%TO.P,R5,2*%
%TO.N,/MOSI*%
X97028000Y-94504000D03*
%TD*%
D29*
%TO.P,B12+1,1,1*%
%TO.N,+12VA*%
X50038000Y-99568000D03*
D30*
X50038000Y-99568000D03*
%TD*%
D13*
%TO.P,U8,1,VDD*%
%TO.N,+3V3*%
X94488000Y-119888000D03*
D14*
%TO.P,U8,2,GND*%
%TO.N,GND*%
X91948000Y-119888000D03*
%TO.P,U8,3,SCL*%
%TO.N,/SCL*%
X89408000Y-119888000D03*
%TO.P,U8,4,SDA*%
%TO.N,/SDA*%
X86868000Y-119888000D03*
%TO.P,U8,5,ADDR*%
%TO.N,Net-(U8-ADDR)*%
X84328000Y-119888000D03*
%TO.P,U8,6,ALRT*%
%TO.N,Net-(U1-D34)*%
X81788000Y-119888000D03*
%TO.P,U8,7,AN0*%
%TO.N,Net-(U8-AN0)*%
X79248000Y-119888000D03*
%TO.P,U8,8,AN1*%
%TO.N,Net-(U8-AN1)*%
X76708000Y-119888000D03*
%TO.P,U8,9,AN2*%
%TO.N,unconnected-(U8-AN2-Pad9)*%
X74168000Y-119888000D03*
%TO.P,U8,10,AN3*%
%TO.N,unconnected-(U8-AN3-Pad10)*%
X71628000Y-119888000D03*
%TD*%
D13*
%TO.P,U7,1*%
%TO.N,+3V3*%
X84328000Y-91948000D03*
D14*
%TO.P,U7,2*%
%TO.N,Net-(R6-Pad1)*%
X86868000Y-91948000D03*
%TO.P,U7,3*%
%TO.N,Net-(J4-Pin_4)*%
X86868000Y-84328000D03*
%TO.P,U7,4*%
%TO.N,Net-(J4-Pin_3)*%
X84328000Y-84328000D03*
%TD*%
D17*
%TO.P,R13,1*%
%TO.N,Net-(Q2-D)*%
X155448000Y-78484000D03*
%TO.P,R13,2*%
%TO.N,+12VA*%
X155448000Y-72384000D03*
%TD*%
%TO.P,R33,1*%
%TO.N,Net-(Q2-D)*%
X155448000Y-125984000D03*
%TO.P,R33,2*%
%TO.N,+12VA*%
X155448000Y-119884000D03*
%TD*%
%TO.P,R36,1*%
%TO.N,Net-(Q2-D)*%
X174498000Y-125984000D03*
%TO.P,R36,2*%
%TO.N,+12VA*%
X174498000Y-119884000D03*
%TD*%
D31*
%TO.P,Q2,1,G*%
%TO.N,Net-(Q2-G)*%
X141478000Y-95128000D03*
%TO.P,Q2,2,S*%
%TO.N,GND*%
X141478000Y-97028000D03*
%TO.P,Q2,3,D*%
%TO.N,Net-(Q2-D)*%
X143353000Y-96078000D03*
%TD*%
D21*
%TO.P,H5,1,1*%
%TO.N,unconnected-(H5-Pad1)*%
X55880000Y-124460000D03*
D22*
X55880000Y-124460000D03*
%TD*%
D23*
%TO.P,R11,1*%
%TO.N,GND*%
X141478000Y-89678000D03*
%TO.P,R11,2*%
%TO.N,Net-(Q2-G)*%
X141478000Y-91678000D03*
%TD*%
D18*
%TO.P,R18,1*%
%TO.N,Net-(Q2-D)*%
X155448000Y-83054000D03*
%TO.P,R18,2*%
%TO.N,+12VA*%
X155448000Y-89154000D03*
%TD*%
D17*
%TO.P,R25,1*%
%TO.N,Net-(Q2-D)*%
X168148000Y-103634000D03*
%TO.P,R25,2*%
%TO.N,+12VA*%
X168148000Y-97534000D03*
%TD*%
D19*
%TO.P,R4,1*%
%TO.N,Net-(U8-AN1)*%
X75168000Y-116078000D03*
%TO.P,R4,2*%
%TO.N,GND*%
X73168000Y-116078000D03*
%TD*%
D32*
%TO.P,C2,1*%
%TO.N,+3V3*%
X104648000Y-104928000D03*
%TO.P,C2,2*%
%TO.N,GND*%
X104648000Y-103378000D03*
%TD*%
D17*
%TO.P,R14,1*%
%TO.N,Net-(Q2-D)*%
X161798000Y-78484000D03*
%TO.P,R14,2*%
%TO.N,+12VA*%
X161798000Y-72384000D03*
%TD*%
D18*
%TO.P,R29,1*%
%TO.N,Net-(Q2-D)*%
X161798000Y-108454000D03*
%TO.P,R29,2*%
%TO.N,+12VA*%
X161798000Y-114554000D03*
%TD*%
D31*
%TO.P,Q1,1,B*%
%TO.N,Net-(Q1-B)*%
X73563000Y-92268000D03*
%TO.P,Q1,2,E*%
%TO.N,GND*%
X73563000Y-94168000D03*
%TO.P,Q1,3,C*%
%TO.N,Net-(Q1-C)*%
X75438000Y-93218000D03*
%TD*%
D17*
%TO.P,R15,1*%
%TO.N,Net-(Q2-D)*%
X168148000Y-78484000D03*
%TO.P,R15,2*%
%TO.N,+12VA*%
X168148000Y-72384000D03*
%TD*%
D18*
%TO.P,R17,1*%
%TO.N,Net-(Q2-D)*%
X149098000Y-83054000D03*
%TO.P,R17,2*%
%TO.N,+12VA*%
X149098000Y-89154000D03*
%TD*%
D17*
%TO.P,R16,1*%
%TO.N,Net-(Q2-D)*%
X174498000Y-78484000D03*
%TO.P,R16,2*%
%TO.N,+12VA*%
X174498000Y-72384000D03*
%TD*%
D10*
%TO.P,R6,1*%
%TO.N,Net-(R6-Pad1)*%
X86868000Y-94488000D03*
%TO.P,R6,2*%
%TO.N,/MISO*%
X88868000Y-94488000D03*
%TD*%
D18*
%TO.P,R31,1*%
%TO.N,Net-(Q2-D)*%
X174498000Y-108454000D03*
%TO.P,R31,2*%
%TO.N,+12VA*%
X174498000Y-114554000D03*
%TD*%
D23*
%TO.P,R38,1*%
%TO.N,+3V3*%
X141478000Y-83598000D03*
%TO.P,R38,2*%
%TO.N,/SDA*%
X141478000Y-85598000D03*
%TD*%
D19*
%TO.P,R8,1*%
%TO.N,+3V3*%
X82026000Y-123698000D03*
%TO.P,R8,2*%
%TO.N,Net-(U1-D34)*%
X80026000Y-123698000D03*
%TD*%
D33*
%TO.P,TP1,1,1*%
%TO.N,GND*%
X182880000Y-93218000D03*
%TD*%
D19*
%TO.P,R10,1*%
%TO.N,GND*%
X175498000Y-93724000D03*
%TO.P,R10,2*%
%TO.N,Net-(U4-SDO)*%
X173498000Y-93724000D03*
%TD*%
D17*
%TO.P,R32,1*%
%TO.N,Net-(Q2-D)*%
X149098000Y-125984000D03*
%TO.P,R32,2*%
%TO.N,+12VA*%
X149098000Y-119884000D03*
%TD*%
D34*
%TO.N,+12VA*%
X78740000Y-88138000D03*
D35*
X154940000Y-114554000D03*
X152400000Y-97534000D03*
X152146000Y-114554000D03*
X155194000Y-97536000D03*
X158242000Y-97536000D03*
X157988000Y-114554000D03*
%TO.N,GND*%
X64665700Y-119783700D03*
D34*
X138938000Y-99822000D03*
X94488000Y-106172000D03*
X138430000Y-91440000D03*
D36*
X176784000Y-93218000D03*
%TO.N,+3V3*%
X82804000Y-102616000D03*
X72644000Y-108458000D03*
D34*
X104648000Y-124206000D03*
X99568000Y-110236000D03*
D36*
%TO.N,Net-(Q1-C)*%
X80264000Y-93218000D03*
D35*
%TO.N,Net-(Q2-D)*%
X148984750Y-83171250D03*
X149098000Y-103634000D03*
X144526000Y-92964000D03*
X144526000Y-99062000D03*
D34*
%TO.N,/MOSI*%
X100838000Y-94488000D03*
%TO.N,/MISO*%
X91186000Y-94488000D03*
%TO.N,Net-(U1-D34)*%
X98298000Y-105664000D03*
D36*
%TO.N,/SCL*%
X144018000Y-80010000D03*
%TO.N,/SDA*%
X96012000Y-123444000D03*
%TD*%
D37*
%TO.N,+12VA*%
X176276000Y-89154000D02*
X174498000Y-89154000D01*
X149098000Y-89154000D02*
X174498000Y-89154000D01*
X149606000Y-97534000D02*
X152400000Y-97534000D01*
X144433000Y-123029000D02*
X140462000Y-127000000D01*
X60452000Y-121666000D02*
X65786000Y-127000000D01*
X140462000Y-127000000D02*
X77470000Y-127000000D01*
X149098000Y-97534000D02*
X149606000Y-97534000D01*
X77470000Y-127000000D02*
X65786000Y-127000000D01*
X50038000Y-109728000D02*
X60452000Y-120142000D01*
X149352000Y-114554000D02*
X152146000Y-114554000D01*
X174498000Y-97534000D02*
X177294000Y-97534000D01*
X179070000Y-95758000D02*
X179070000Y-91948000D01*
X177294000Y-97534000D02*
X179070000Y-95758000D01*
X50038000Y-109728000D02*
X50038000Y-99568000D01*
X180340000Y-78226000D02*
X180340000Y-85090000D01*
X152146000Y-114554000D02*
X173990000Y-114554000D01*
X152400000Y-97534000D02*
X174498000Y-97534000D01*
D38*
X77438000Y-123698000D02*
X77438000Y-126968000D01*
D37*
X174498000Y-72384000D02*
X180340000Y-78226000D01*
X179070000Y-91948000D02*
X176276000Y-89154000D01*
D38*
X76168000Y-88138000D02*
X78740000Y-88138000D01*
D37*
X149098000Y-119884000D02*
X145953000Y-123029000D01*
X149098000Y-119884000D02*
X149352000Y-119884000D01*
X145953000Y-123029000D02*
X144433000Y-123029000D01*
X60452000Y-121666000D02*
X60452000Y-120142000D01*
X173990000Y-114554000D02*
X174498000Y-114554000D01*
X149098000Y-114554000D02*
X149352000Y-114554000D01*
X149352000Y-119884000D02*
X174498000Y-119884000D01*
D38*
X77438000Y-126968000D02*
X77470000Y-127000000D01*
D37*
X149098000Y-119884000D02*
X149098000Y-114554000D01*
X180340000Y-85090000D02*
X176276000Y-89154000D01*
X149098000Y-72384000D02*
X174498000Y-72384000D01*
D39*
%TO.N,GND*%
X77216000Y-102108000D02*
X88459400Y-113351400D01*
D40*
X138938000Y-111506000D02*
X136144000Y-114300000D01*
X102879600Y-113351400D02*
X104648000Y-111583000D01*
D38*
X94488000Y-106172000D02*
X94488000Y-91948000D01*
D40*
X138938000Y-99822000D02*
X138938000Y-111506000D01*
D38*
X68371400Y-116078000D02*
X64665700Y-119783700D01*
D39*
X176784000Y-93726000D02*
X176784000Y-93218000D01*
D40*
X138938000Y-99568000D02*
X138938000Y-99822000D01*
D38*
X73168000Y-116078000D02*
X68371400Y-116078000D01*
D39*
X71252000Y-93980000D02*
X71440000Y-94168000D01*
D38*
X73563000Y-94168000D02*
X71440000Y-94168000D01*
X88138000Y-123698000D02*
X86360000Y-123698000D01*
D40*
X100098000Y-113351400D02*
X102879600Y-113351400D01*
D39*
X68575000Y-93980000D02*
X71252000Y-93980000D01*
X61468000Y-94488000D02*
X69088000Y-102108000D01*
X175498000Y-93724000D02*
X176782000Y-93724000D01*
X104648000Y-111583000D02*
X106857000Y-111583000D01*
X107188000Y-111252000D02*
X107188000Y-104394000D01*
X88459400Y-113351400D02*
X100098000Y-113351400D01*
D38*
X73168000Y-116078000D02*
X73168000Y-115421400D01*
D39*
X106172000Y-103378000D02*
X104648000Y-103378000D01*
D38*
X140192000Y-89678000D02*
X138430000Y-91440000D01*
D39*
X69088000Y-102108000D02*
X77216000Y-102108000D01*
D38*
X91948000Y-119888000D02*
X88138000Y-123698000D01*
D39*
X66553000Y-91958000D02*
X68575000Y-93980000D01*
D38*
X69612000Y-123698000D02*
X66040000Y-120126000D01*
D40*
X136144000Y-114300000D02*
X135128000Y-114300000D01*
D38*
X141478000Y-89678000D02*
X140192000Y-89678000D01*
D39*
X176782000Y-93724000D02*
X176784000Y-93726000D01*
D38*
X66040000Y-120126000D02*
X65008000Y-120126000D01*
D39*
X106857000Y-111583000D02*
X107188000Y-111252000D01*
D38*
X65008000Y-120126000D02*
X64665700Y-119783700D01*
D40*
X141478000Y-97028000D02*
X138938000Y-99568000D01*
D39*
X107188000Y-104394000D02*
X106172000Y-103378000D01*
D40*
%TO.N,+3V3*%
X135128000Y-116840000D02*
X130302000Y-116840000D01*
D39*
X68072000Y-95758000D02*
X81534000Y-95758000D01*
X94488000Y-123190000D02*
X94488000Y-119888000D01*
D38*
X146558000Y-95500000D02*
X146558000Y-100584000D01*
X148334000Y-93724000D02*
X144526000Y-89916000D01*
D39*
X97536000Y-124714000D02*
X94996000Y-124714000D01*
D38*
X142240000Y-104902000D02*
X142240000Y-109982000D01*
D39*
X97028000Y-108204000D02*
X89916000Y-108204000D01*
D38*
X144526000Y-85344000D02*
X142780000Y-83598000D01*
X141478000Y-80994000D02*
X141478000Y-83598000D01*
D39*
X93980000Y-123698000D02*
X94488000Y-123190000D01*
D40*
X122936000Y-124206000D02*
X130302000Y-116840000D01*
D39*
X98044000Y-124206000D02*
X97536000Y-124714000D01*
D38*
X144526000Y-89916000D02*
X144526000Y-85344000D01*
D39*
X84328000Y-102616000D02*
X89916000Y-108204000D01*
D38*
X84328000Y-102616000D02*
X82804000Y-102616000D01*
D39*
X94996000Y-124714000D02*
X93980000Y-123698000D01*
D38*
X82026000Y-124190000D02*
X82804000Y-124968000D01*
X142240000Y-109982000D02*
X135382000Y-116840000D01*
D39*
X65532000Y-94996000D02*
X67310000Y-94996000D01*
D38*
X91440000Y-124968000D02*
X94488000Y-121920000D01*
X82026000Y-123698000D02*
X82026000Y-124190000D01*
D39*
X83312000Y-93980000D02*
X83312000Y-92964000D01*
D38*
X148334000Y-93724000D02*
X146558000Y-95500000D01*
D39*
X104648000Y-108458000D02*
X100330000Y-108458000D01*
D38*
X146558000Y-100584000D02*
X142240000Y-104902000D01*
X97028000Y-96504000D02*
X97028000Y-108204000D01*
D39*
X99568000Y-110236000D02*
X99568000Y-108458000D01*
D38*
X94488000Y-121920000D02*
X94488000Y-119888000D01*
D39*
X81534000Y-95758000D02*
X83312000Y-93980000D01*
X104648000Y-124206000D02*
X98044000Y-124206000D01*
D40*
X104648000Y-124206000D02*
X122936000Y-124206000D01*
D39*
X67310000Y-94996000D02*
X68072000Y-95758000D01*
X83312000Y-92964000D02*
X84328000Y-91948000D01*
D38*
X135382000Y-116840000D02*
X135128000Y-116840000D01*
D39*
X104648000Y-104928000D02*
X103860000Y-104928000D01*
X99035466Y-108458000D02*
X98781466Y-108204000D01*
D38*
X82804000Y-124968000D02*
X91440000Y-124968000D01*
D39*
X103860000Y-104928000D02*
X100330000Y-108458000D01*
X62484000Y-91948000D02*
X65532000Y-94996000D01*
X61468000Y-91948000D02*
X62484000Y-91948000D01*
X84328000Y-102616000D02*
X84328000Y-91948000D01*
D38*
X63738000Y-108458000D02*
X72644000Y-108458000D01*
D39*
X99568000Y-108458000D02*
X99035466Y-108458000D01*
D38*
X156718000Y-93724000D02*
X148334000Y-93724000D01*
D39*
X98781466Y-108204000D02*
X97028000Y-108204000D01*
D38*
X142780000Y-83598000D02*
X141478000Y-83598000D01*
D39*
X100330000Y-108458000D02*
X99568000Y-108458000D01*
D38*
%TO.N,Net-(Q1-B)*%
X74168000Y-88138000D02*
X74168000Y-90170000D01*
X74168000Y-91663000D02*
X73563000Y-92268000D01*
X70602000Y-91958000D02*
X72390000Y-90170000D01*
X74168000Y-90170000D02*
X74168000Y-91663000D01*
X69093000Y-91958000D02*
X70602000Y-91958000D01*
X72390000Y-90170000D02*
X74168000Y-90170000D01*
%TO.N,Net-(Q1-C)*%
X75438000Y-93218000D02*
X80264000Y-93218000D01*
%TO.N,Net-(Q2-G)*%
X141478000Y-92842000D02*
X139192000Y-95128000D01*
X139192000Y-95128000D02*
X136520000Y-95128000D01*
X136520000Y-95128000D02*
X135128000Y-96520000D01*
X141478000Y-91678000D02*
X141478000Y-92842000D01*
X141478000Y-95128000D02*
X139192000Y-95128000D01*
D37*
%TO.N,Net-(Q2-D)*%
X149098000Y-125984000D02*
X174498000Y-125984000D01*
X179578000Y-120904000D02*
X179578000Y-113534000D01*
X179578000Y-113534000D02*
X174498000Y-108454000D01*
X149098000Y-78484000D02*
X149098000Y-82804000D01*
X149352000Y-108454000D02*
X174498000Y-108454000D01*
X144526000Y-96266000D02*
X144526000Y-92964000D01*
X149098000Y-103634000D02*
X149606000Y-103634000D01*
X144526000Y-99062000D02*
X144526000Y-96266000D01*
X149098000Y-82804000D02*
X149098000Y-83054000D01*
X149606000Y-103634000D02*
X174498000Y-103634000D01*
X149098000Y-83054000D02*
X174498000Y-83054000D01*
X174498000Y-125984000D02*
X179578000Y-120904000D01*
X149098000Y-104648000D02*
X149098000Y-108454000D01*
X149098000Y-108454000D02*
X149352000Y-108454000D01*
X149098000Y-78484000D02*
X174498000Y-78484000D01*
D38*
%TO.N,Net-(U8-AN0)*%
X78232000Y-122174000D02*
X73914000Y-122174000D01*
X79248000Y-121158000D02*
X78232000Y-122174000D01*
X73914000Y-122174000D02*
X73406000Y-122682000D01*
X73406000Y-122682000D02*
X73406000Y-123698000D01*
X73406000Y-123698000D02*
X74962000Y-123698000D01*
X79248000Y-119888000D02*
X79248000Y-121158000D01*
X72120000Y-123698000D02*
X73406000Y-123698000D01*
D41*
%TO.N,Net-(U8-AN1)*%
X76708000Y-119888000D02*
X76708000Y-117348000D01*
X76708000Y-117348000D02*
X75438000Y-116078000D01*
D38*
%TO.N,/MOSI*%
X97028000Y-91948000D02*
X97028000Y-94504000D01*
X97028000Y-94504000D02*
X100822000Y-94504000D01*
X100822000Y-94504000D02*
X100838000Y-94488000D01*
%TO.N,Net-(R6-Pad1)*%
X86868000Y-91948000D02*
X86868000Y-94488000D01*
%TO.N,/MISO*%
X91186000Y-94488000D02*
X88868000Y-94488000D01*
%TO.N,Net-(U3-SDO)*%
X61468000Y-104648000D02*
X61468000Y-108188000D01*
X61468000Y-108188000D02*
X61738000Y-108458000D01*
%TO.N,Net-(U1-D34)*%
X108204000Y-89154000D02*
X103632000Y-93726000D01*
X103632000Y-100330000D02*
X98298000Y-105664000D01*
X103632000Y-93726000D02*
X103632000Y-100330000D01*
X109474000Y-89154000D02*
X108204000Y-89154000D01*
X80026000Y-121650000D02*
X81788000Y-119888000D01*
X109728000Y-88900000D02*
X109474000Y-89154000D01*
X80026000Y-123698000D02*
X80026000Y-121650000D01*
%TO.N,Net-(U8-ADDR)*%
X84360000Y-123698000D02*
X84360000Y-119920000D01*
X84360000Y-119920000D02*
X84328000Y-119888000D01*
%TO.N,Net-(U4-SDO)*%
X173498000Y-93724000D02*
X169418000Y-93724000D01*
%TO.N,/SCL*%
X62738000Y-97028000D02*
X70104000Y-104394000D01*
X89916000Y-116840000D02*
X98298000Y-116840000D01*
X140716000Y-78994000D02*
X141478000Y-78994000D01*
X143764000Y-80010000D02*
X143732000Y-79978000D01*
X70104000Y-104394000D02*
X75946000Y-104394000D01*
X98298000Y-116840000D02*
X102870000Y-121412000D01*
X75946000Y-104394000D02*
X89154000Y-117602000D01*
X141478000Y-78994000D02*
X141732000Y-79248000D01*
X141732000Y-79248000D02*
X143256000Y-79248000D01*
X89154000Y-117602000D02*
X89916000Y-116840000D01*
X103378000Y-121412000D02*
X103886000Y-121920000D01*
X102870000Y-121412000D02*
X103378000Y-121412000D01*
X144018000Y-80010000D02*
X143764000Y-80010000D01*
X135128000Y-83820000D02*
X135890000Y-83820000D01*
X122936000Y-113792000D02*
X122936000Y-96012000D01*
X114808000Y-121920000D02*
X122936000Y-113792000D01*
X89154000Y-117602000D02*
X89408000Y-117602000D01*
X135890000Y-83820000D02*
X140716000Y-78994000D01*
X103886000Y-121920000D02*
X114808000Y-121920000D01*
X122936000Y-96012000D02*
X135128000Y-83820000D01*
X61468000Y-97028000D02*
X62738000Y-97028000D01*
X89408000Y-117602000D02*
X89408000Y-119888000D01*
X143256000Y-79248000D02*
X144018000Y-80010000D01*
%TO.N,/SDA*%
X129794000Y-91440000D02*
X124460000Y-96774000D01*
X63246000Y-101346000D02*
X61468000Y-99568000D01*
X86868000Y-119888000D02*
X73914000Y-106934000D01*
X63754000Y-103124000D02*
X63754000Y-101346000D01*
X135128000Y-91440000D02*
X135636000Y-91440000D01*
X73914000Y-106934000D02*
X67564000Y-106934000D01*
X135636000Y-91440000D02*
X141478000Y-85598000D01*
X67564000Y-106934000D02*
X63754000Y-103124000D01*
X135128000Y-91440000D02*
X129794000Y-91440000D01*
X96520000Y-122936000D02*
X96012000Y-123444000D01*
X63754000Y-101346000D02*
X63246000Y-101346000D01*
X124460000Y-114554000D02*
X116078000Y-122936000D01*
X116078000Y-122936000D02*
X96520000Y-122936000D01*
X124460000Y-96774000D02*
X124460000Y-114554000D01*
%TD*%
%TA.AperFunction,Conductor*%
%TO.N,Net-(Q2-D)*%
G36*
X153229568Y-104159685D02*
G01*
X153275323Y-104212489D01*
X153281224Y-104230315D01*
X153281364Y-104230269D01*
X153338640Y-104403119D01*
X153338645Y-104403130D01*
X153430680Y-104552340D01*
X153430683Y-104552344D01*
X153554655Y-104676316D01*
X153554659Y-104676319D01*
X153703869Y-104768354D01*
X153703880Y-104768359D01*
X153870302Y-104823505D01*
X153973020Y-104833999D01*
X155197999Y-104833999D01*
X155198000Y-104833998D01*
X155198000Y-104140000D01*
X155698000Y-104140000D01*
X155698000Y-104833999D01*
X156922972Y-104833999D01*
X156922986Y-104833998D01*
X157025696Y-104823505D01*
X157025698Y-104823505D01*
X157192119Y-104768359D01*
X157192130Y-104768354D01*
X157341340Y-104676319D01*
X157341344Y-104676316D01*
X157465316Y-104552344D01*
X157465319Y-104552340D01*
X157557354Y-104403130D01*
X157557359Y-104403119D01*
X157614636Y-104230269D01*
X157616155Y-104230772D01*
X157645503Y-104176606D01*
X157706716Y-104142921D01*
X157733471Y-104140000D01*
X159512529Y-104140000D01*
X159579568Y-104159685D01*
X159625323Y-104212489D01*
X159631224Y-104230315D01*
X159631364Y-104230269D01*
X159688640Y-104403119D01*
X159688645Y-104403130D01*
X159780680Y-104552340D01*
X159780683Y-104552344D01*
X159904655Y-104676316D01*
X159904659Y-104676319D01*
X160053869Y-104768354D01*
X160053880Y-104768359D01*
X160220302Y-104823505D01*
X160323020Y-104833999D01*
X161547999Y-104833999D01*
X161548000Y-104833998D01*
X161548000Y-104140000D01*
X162048000Y-104140000D01*
X162048000Y-104833999D01*
X163272972Y-104833999D01*
X163272986Y-104833998D01*
X163375696Y-104823505D01*
X163375698Y-104823505D01*
X163542119Y-104768359D01*
X163542130Y-104768354D01*
X163691340Y-104676319D01*
X163691344Y-104676316D01*
X163815316Y-104552344D01*
X163815319Y-104552340D01*
X163907354Y-104403130D01*
X163907359Y-104403119D01*
X163964636Y-104230269D01*
X163966155Y-104230772D01*
X163995503Y-104176606D01*
X164056716Y-104142921D01*
X164083471Y-104140000D01*
X165862529Y-104140000D01*
X165929568Y-104159685D01*
X165975323Y-104212489D01*
X165981224Y-104230315D01*
X165981364Y-104230269D01*
X166038640Y-104403119D01*
X166038645Y-104403130D01*
X166130680Y-104552340D01*
X166130683Y-104552344D01*
X166254655Y-104676316D01*
X166254659Y-104676319D01*
X166403869Y-104768354D01*
X166403880Y-104768359D01*
X166570302Y-104823505D01*
X166673020Y-104833999D01*
X167897999Y-104833999D01*
X167898000Y-104833998D01*
X167898000Y-104140000D01*
X168398000Y-104140000D01*
X168398000Y-104833999D01*
X169622972Y-104833999D01*
X169622986Y-104833998D01*
X169725696Y-104823505D01*
X169725698Y-104823505D01*
X169892119Y-104768359D01*
X169892130Y-104768354D01*
X170041340Y-104676319D01*
X170041344Y-104676316D01*
X170165316Y-104552344D01*
X170165319Y-104552340D01*
X170257354Y-104403130D01*
X170257359Y-104403119D01*
X170314636Y-104230269D01*
X170316155Y-104230772D01*
X170345503Y-104176606D01*
X170406716Y-104142921D01*
X170433471Y-104140000D01*
X172212529Y-104140000D01*
X172279568Y-104159685D01*
X172325323Y-104212489D01*
X172331224Y-104230315D01*
X172331364Y-104230269D01*
X172388640Y-104403119D01*
X172388645Y-104403130D01*
X172480680Y-104552340D01*
X172480683Y-104552344D01*
X172604655Y-104676316D01*
X172604659Y-104676319D01*
X172753869Y-104768354D01*
X172753880Y-104768359D01*
X172920302Y-104823505D01*
X173023020Y-104833999D01*
X174247999Y-104833999D01*
X174248000Y-104833998D01*
X174248000Y-104140000D01*
X174748000Y-104140000D01*
X174748000Y-104833999D01*
X174882000Y-104833999D01*
X174949039Y-104853684D01*
X174994794Y-104906488D01*
X175006000Y-104957999D01*
X175006000Y-107130000D01*
X174986315Y-107197039D01*
X174933511Y-107242794D01*
X174882000Y-107254000D01*
X174748000Y-107254000D01*
X174748000Y-108330000D01*
X174728315Y-108397039D01*
X174675511Y-108442794D01*
X174624000Y-108454000D01*
X174606000Y-108454000D01*
X174363749Y-108451577D01*
X174304961Y-108434315D01*
X174259206Y-108381511D01*
X174248000Y-108330000D01*
X174248000Y-107254000D01*
X173023028Y-107254000D01*
X173023012Y-107254001D01*
X172920303Y-107264494D01*
X172920301Y-107264494D01*
X172753880Y-107319640D01*
X172753869Y-107319645D01*
X172604659Y-107411680D01*
X172604655Y-107411683D01*
X172480683Y-107535655D01*
X172480680Y-107535659D01*
X172388645Y-107684869D01*
X172388640Y-107684880D01*
X172333494Y-107851302D01*
X172323000Y-107954013D01*
X172323000Y-108305923D01*
X172303315Y-108372962D01*
X172250511Y-108418717D01*
X172197760Y-108429917D01*
X170445759Y-108412396D01*
X170378920Y-108392042D01*
X170333695Y-108338783D01*
X170322999Y-108288402D01*
X170322999Y-107954028D01*
X170322998Y-107954013D01*
X170312505Y-107851303D01*
X170312505Y-107851301D01*
X170257359Y-107684880D01*
X170257354Y-107684869D01*
X170165319Y-107535659D01*
X170165316Y-107535655D01*
X170041344Y-107411683D01*
X170041340Y-107411680D01*
X169892130Y-107319645D01*
X169892119Y-107319640D01*
X169725697Y-107264494D01*
X169622986Y-107254000D01*
X168398000Y-107254000D01*
X168398000Y-108330000D01*
X168379871Y-108391738D01*
X167914031Y-108387080D01*
X167909206Y-108381511D01*
X167898000Y-108330000D01*
X167898000Y-107254000D01*
X166673028Y-107254000D01*
X166673012Y-107254001D01*
X166570303Y-107264494D01*
X166570301Y-107264494D01*
X166403880Y-107319640D01*
X166403869Y-107319645D01*
X166254659Y-107411680D01*
X166254655Y-107411683D01*
X166130683Y-107535655D01*
X166130680Y-107535659D01*
X166038645Y-107684869D01*
X166038640Y-107684880D01*
X165983494Y-107851302D01*
X165973000Y-107954013D01*
X165973000Y-108242423D01*
X165953315Y-108309462D01*
X165900511Y-108355217D01*
X165847760Y-108366417D01*
X164095759Y-108348896D01*
X164028920Y-108328542D01*
X163983695Y-108275283D01*
X163972999Y-108224902D01*
X163972999Y-107954028D01*
X163972998Y-107954013D01*
X163962505Y-107851303D01*
X163962505Y-107851301D01*
X163907359Y-107684880D01*
X163907354Y-107684869D01*
X163815319Y-107535659D01*
X163815316Y-107535655D01*
X163691344Y-107411683D01*
X163691340Y-107411680D01*
X163542130Y-107319645D01*
X163542119Y-107319640D01*
X163375697Y-107264494D01*
X163272986Y-107254000D01*
X162048000Y-107254000D01*
X162048000Y-108328420D01*
X161548000Y-108323420D01*
X161548000Y-107254000D01*
X160323028Y-107254000D01*
X160323012Y-107254001D01*
X160220303Y-107264494D01*
X160220301Y-107264494D01*
X160053880Y-107319640D01*
X160053869Y-107319645D01*
X159904659Y-107411680D01*
X159904655Y-107411683D01*
X159780683Y-107535655D01*
X159780680Y-107535659D01*
X159688645Y-107684869D01*
X159688640Y-107684880D01*
X159633494Y-107851302D01*
X159623000Y-107954013D01*
X159623000Y-108178923D01*
X159603315Y-108245962D01*
X159550511Y-108291717D01*
X159497760Y-108302917D01*
X157745759Y-108285396D01*
X157678920Y-108265042D01*
X157633695Y-108211783D01*
X157622999Y-108161402D01*
X157622999Y-107954028D01*
X157622998Y-107954013D01*
X157612505Y-107851303D01*
X157612505Y-107851301D01*
X157557359Y-107684880D01*
X157557354Y-107684869D01*
X157465319Y-107535659D01*
X157465316Y-107535655D01*
X157341344Y-107411683D01*
X157341340Y-107411680D01*
X157192130Y-107319645D01*
X157192119Y-107319640D01*
X157025697Y-107264494D01*
X156922986Y-107254000D01*
X155698000Y-107254000D01*
X155698000Y-108264920D01*
X155198000Y-108259920D01*
X155198000Y-107254000D01*
X153973028Y-107254000D01*
X153973012Y-107254001D01*
X153870303Y-107264494D01*
X153870301Y-107264494D01*
X153703880Y-107319640D01*
X153703869Y-107319645D01*
X153554659Y-107411680D01*
X153554655Y-107411683D01*
X153430683Y-107535655D01*
X153430680Y-107535659D01*
X153338645Y-107684869D01*
X153338640Y-107684880D01*
X153283494Y-107851302D01*
X153273000Y-107954013D01*
X153273000Y-108115423D01*
X153253315Y-108182462D01*
X153200511Y-108228217D01*
X153147760Y-108239417D01*
X151395759Y-108221896D01*
X151328920Y-108201542D01*
X151283695Y-108148283D01*
X151272999Y-108097902D01*
X151272999Y-107954028D01*
X151272998Y-107954013D01*
X151262505Y-107851303D01*
X151262505Y-107851301D01*
X151207359Y-107684880D01*
X151207354Y-107684869D01*
X151115319Y-107535659D01*
X151115316Y-107535655D01*
X150991344Y-107411683D01*
X150991340Y-107411680D01*
X150842130Y-107319645D01*
X150842119Y-107319640D01*
X150675697Y-107264494D01*
X150572986Y-107254000D01*
X149984000Y-107254000D01*
X149916961Y-107234315D01*
X149871206Y-107181511D01*
X149860000Y-107130000D01*
X149860000Y-104957999D01*
X149879685Y-104890960D01*
X149932489Y-104845205D01*
X149984000Y-104833999D01*
X150572972Y-104833999D01*
X150572986Y-104833998D01*
X150675696Y-104823505D01*
X150675698Y-104823505D01*
X150842119Y-104768359D01*
X150842130Y-104768354D01*
X150991340Y-104676319D01*
X150991344Y-104676316D01*
X151115316Y-104552344D01*
X151115319Y-104552340D01*
X151207354Y-104403130D01*
X151207359Y-104403119D01*
X151264636Y-104230269D01*
X151266155Y-104230772D01*
X151295503Y-104176606D01*
X151356716Y-104142921D01*
X151383471Y-104140000D01*
X153162529Y-104140000D01*
X153229568Y-104159685D01*
G37*
%TD.AperFunction*%
%TD*%
%TA.AperFunction,Conductor*%
%TO.N,+12VA*%
G36*
X168215865Y-94267348D02*
G01*
X168260382Y-94318725D01*
X168287429Y-94376728D01*
X168287432Y-94376734D01*
X168417954Y-94563141D01*
X168578858Y-94724045D01*
X168578861Y-94724047D01*
X168765266Y-94854568D01*
X168971504Y-94950739D01*
X169191308Y-95009635D01*
X169353230Y-95023801D01*
X169417998Y-95029468D01*
X169418000Y-95029468D01*
X169418002Y-95029468D01*
X169474807Y-95024498D01*
X169644692Y-95009635D01*
X169864496Y-94950739D01*
X170070734Y-94854568D01*
X170257139Y-94724047D01*
X170418047Y-94563139D01*
X170529212Y-94404376D01*
X170583788Y-94360752D01*
X170630787Y-94351500D01*
X172326646Y-94351500D01*
X172393685Y-94371185D01*
X172439440Y-94423989D01*
X172444350Y-94436492D01*
X172463186Y-94493334D01*
X172555288Y-94642656D01*
X172679344Y-94766712D01*
X172828666Y-94858814D01*
X172995203Y-94913999D01*
X173097991Y-94924500D01*
X173898008Y-94924499D01*
X173898016Y-94924498D01*
X173898019Y-94924498D01*
X173954302Y-94918748D01*
X174000797Y-94913999D01*
X174167334Y-94858814D01*
X174316656Y-94766712D01*
X174410319Y-94673049D01*
X174471642Y-94639564D01*
X174541334Y-94644548D01*
X174585681Y-94673049D01*
X174679344Y-94766712D01*
X174828666Y-94858814D01*
X174995203Y-94913999D01*
X175097991Y-94924500D01*
X175898000Y-94924499D01*
X175965039Y-94944183D01*
X176010794Y-94996987D01*
X176022000Y-95048499D01*
X176022000Y-96210000D01*
X176002315Y-96277039D01*
X175949511Y-96322794D01*
X175898000Y-96334000D01*
X174748000Y-96334000D01*
X174748000Y-97028000D01*
X174248000Y-97028000D01*
X174248000Y-96334000D01*
X173023028Y-96334000D01*
X173023012Y-96334001D01*
X172920303Y-96344494D01*
X172920301Y-96344494D01*
X172753880Y-96399640D01*
X172753869Y-96399645D01*
X172604659Y-96491680D01*
X172604655Y-96491683D01*
X172480683Y-96615655D01*
X172480680Y-96615659D01*
X172388645Y-96764869D01*
X172388640Y-96764880D01*
X172331364Y-96937731D01*
X172329844Y-96937227D01*
X172300497Y-96991394D01*
X172239284Y-97025079D01*
X172212529Y-97028000D01*
X170433471Y-97028000D01*
X170366432Y-97008315D01*
X170320677Y-96955511D01*
X170314775Y-96937684D01*
X170314636Y-96937731D01*
X170257359Y-96764880D01*
X170257354Y-96764869D01*
X170165319Y-96615659D01*
X170165316Y-96615655D01*
X170041344Y-96491683D01*
X170041340Y-96491680D01*
X169892130Y-96399645D01*
X169892119Y-96399640D01*
X169725697Y-96344494D01*
X169622986Y-96334000D01*
X168398000Y-96334000D01*
X168398000Y-97028000D01*
X167898000Y-97028000D01*
X167898000Y-96334000D01*
X166673028Y-96334000D01*
X166673012Y-96334001D01*
X166570303Y-96344494D01*
X166570301Y-96344494D01*
X166403880Y-96399640D01*
X166403869Y-96399645D01*
X166254659Y-96491680D01*
X166254655Y-96491683D01*
X166130683Y-96615655D01*
X166130680Y-96615659D01*
X166038645Y-96764869D01*
X166038640Y-96764880D01*
X165981364Y-96937731D01*
X165979844Y-96937227D01*
X165950497Y-96991394D01*
X165889284Y-97025079D01*
X165862529Y-97028000D01*
X164083471Y-97028000D01*
X164016432Y-97008315D01*
X163970677Y-96955511D01*
X163964775Y-96937684D01*
X163964636Y-96937731D01*
X163907359Y-96764880D01*
X163907354Y-96764869D01*
X163815319Y-96615659D01*
X163815316Y-96615655D01*
X163691344Y-96491683D01*
X163691340Y-96491680D01*
X163542130Y-96399645D01*
X163542119Y-96399640D01*
X163375697Y-96344494D01*
X163272986Y-96334000D01*
X162048000Y-96334000D01*
X162048000Y-97028000D01*
X161548000Y-97028000D01*
X161548000Y-96334000D01*
X160323028Y-96334000D01*
X160323012Y-96334001D01*
X160220303Y-96344494D01*
X160220301Y-96344494D01*
X160053880Y-96399640D01*
X160053869Y-96399645D01*
X159904659Y-96491680D01*
X159904655Y-96491683D01*
X159780683Y-96615655D01*
X159780680Y-96615659D01*
X159688645Y-96764869D01*
X159688640Y-96764880D01*
X159631364Y-96937731D01*
X159629844Y-96937227D01*
X159600497Y-96991394D01*
X159539284Y-97025079D01*
X159512529Y-97028000D01*
X157733471Y-97028000D01*
X157666432Y-97008315D01*
X157620677Y-96955511D01*
X157614775Y-96937684D01*
X157614636Y-96937731D01*
X157557359Y-96764880D01*
X157557354Y-96764869D01*
X157465319Y-96615659D01*
X157465316Y-96615655D01*
X157341344Y-96491683D01*
X157341340Y-96491680D01*
X157192130Y-96399645D01*
X157192119Y-96399640D01*
X157025697Y-96344494D01*
X156922986Y-96334000D01*
X155698000Y-96334000D01*
X155698000Y-97028000D01*
X155198000Y-97028000D01*
X155198000Y-96334000D01*
X153973028Y-96334000D01*
X153973012Y-96334001D01*
X153870303Y-96344494D01*
X153870301Y-96344494D01*
X153703880Y-96399640D01*
X153703869Y-96399645D01*
X153554659Y-96491680D01*
X153554655Y-96491683D01*
X153430683Y-96615655D01*
X153430680Y-96615659D01*
X153338645Y-96764869D01*
X153338640Y-96764880D01*
X153281364Y-96937731D01*
X153279844Y-96937227D01*
X153250497Y-96991394D01*
X153189284Y-97025079D01*
X153162529Y-97028000D01*
X151383471Y-97028000D01*
X151316432Y-97008315D01*
X151270677Y-96955511D01*
X151264775Y-96937684D01*
X151264636Y-96937731D01*
X151207359Y-96764880D01*
X151207354Y-96764869D01*
X151115319Y-96615659D01*
X151115316Y-96615655D01*
X150991344Y-96491683D01*
X150991340Y-96491680D01*
X150842130Y-96399645D01*
X150842119Y-96399640D01*
X150675697Y-96344494D01*
X150572986Y-96334000D01*
X149348000Y-96334000D01*
X149348000Y-97028000D01*
X148848000Y-97028000D01*
X148848000Y-96334000D01*
X148460000Y-96334000D01*
X148392961Y-96314315D01*
X148347206Y-96261511D01*
X148336000Y-96210000D01*
X148336000Y-94660781D01*
X148355685Y-94593742D01*
X148372319Y-94573100D01*
X148557600Y-94387819D01*
X148618923Y-94354334D01*
X148645281Y-94351500D01*
X155293501Y-94351500D01*
X155360540Y-94371185D01*
X155406295Y-94423989D01*
X155417501Y-94475500D01*
X155417501Y-94571876D01*
X155423908Y-94631483D01*
X155474202Y-94766328D01*
X155474206Y-94766335D01*
X155560452Y-94881544D01*
X155560455Y-94881547D01*
X155675664Y-94967793D01*
X155675671Y-94967797D01*
X155810517Y-95018091D01*
X155810516Y-95018091D01*
X155817444Y-95018835D01*
X155870127Y-95024500D01*
X157565872Y-95024499D01*
X157625483Y-95018091D01*
X157760331Y-94967796D01*
X157875546Y-94881546D01*
X157961796Y-94766331D01*
X158012091Y-94631483D01*
X158015862Y-94596401D01*
X158042599Y-94531855D01*
X158099990Y-94492006D01*
X158169816Y-94489511D01*
X158229905Y-94525163D01*
X158240726Y-94538536D01*
X158257956Y-94563143D01*
X158418858Y-94724045D01*
X158418861Y-94724047D01*
X158605266Y-94854568D01*
X158811504Y-94950739D01*
X159031308Y-95009635D01*
X159193230Y-95023801D01*
X159257998Y-95029468D01*
X159258000Y-95029468D01*
X159258002Y-95029468D01*
X159314807Y-95024498D01*
X159484692Y-95009635D01*
X159704496Y-94950739D01*
X159910734Y-94854568D01*
X160097139Y-94724047D01*
X160258047Y-94563139D01*
X160388568Y-94376734D01*
X160415618Y-94318724D01*
X160461790Y-94266285D01*
X160528983Y-94247133D01*
X160595865Y-94267348D01*
X160640382Y-94318725D01*
X160667429Y-94376728D01*
X160667432Y-94376734D01*
X160797954Y-94563141D01*
X160958858Y-94724045D01*
X160958861Y-94724047D01*
X161145266Y-94854568D01*
X161351504Y-94950739D01*
X161571308Y-95009635D01*
X161733230Y-95023801D01*
X161797998Y-95029468D01*
X161798000Y-95029468D01*
X161798002Y-95029468D01*
X161854807Y-95024498D01*
X162024692Y-95009635D01*
X162244496Y-94950739D01*
X162450734Y-94854568D01*
X162637139Y-94724047D01*
X162798047Y-94563139D01*
X162928568Y-94376734D01*
X162955618Y-94318724D01*
X163001790Y-94266285D01*
X163068983Y-94247133D01*
X163135865Y-94267348D01*
X163180382Y-94318725D01*
X163207429Y-94376728D01*
X163207432Y-94376734D01*
X163337954Y-94563141D01*
X163498858Y-94724045D01*
X163498861Y-94724047D01*
X163685266Y-94854568D01*
X163891504Y-94950739D01*
X164111308Y-95009635D01*
X164273230Y-95023801D01*
X164337998Y-95029468D01*
X164338000Y-95029468D01*
X164338002Y-95029468D01*
X164394807Y-95024498D01*
X164564692Y-95009635D01*
X164784496Y-94950739D01*
X164990734Y-94854568D01*
X165177139Y-94724047D01*
X165338047Y-94563139D01*
X165468568Y-94376734D01*
X165495618Y-94318724D01*
X165541790Y-94266285D01*
X165608983Y-94247133D01*
X165675865Y-94267348D01*
X165720382Y-94318725D01*
X165747429Y-94376728D01*
X165747432Y-94376734D01*
X165877954Y-94563141D01*
X166038858Y-94724045D01*
X166038861Y-94724047D01*
X166225266Y-94854568D01*
X166431504Y-94950739D01*
X166651308Y-95009635D01*
X166813230Y-95023801D01*
X166877998Y-95029468D01*
X166878000Y-95029468D01*
X166878002Y-95029468D01*
X166934807Y-95024498D01*
X167104692Y-95009635D01*
X167324496Y-94950739D01*
X167530734Y-94854568D01*
X167717139Y-94724047D01*
X167878047Y-94563139D01*
X168008568Y-94376734D01*
X168035618Y-94318724D01*
X168081790Y-94266285D01*
X168148983Y-94247133D01*
X168215865Y-94267348D01*
G37*
%TD.AperFunction*%
%TA.AperFunction,Conductor*%
G36*
X149291039Y-89173685D02*
G01*
X149336794Y-89226489D01*
X149348000Y-89278000D01*
X149348000Y-90353999D01*
X150572972Y-90353999D01*
X150572986Y-90353998D01*
X150675696Y-90343505D01*
X150675698Y-90343505D01*
X150842119Y-90288359D01*
X150842130Y-90288354D01*
X150991340Y-90196319D01*
X150991344Y-90196316D01*
X151115316Y-90072344D01*
X151115319Y-90072340D01*
X151207354Y-89923130D01*
X151207359Y-89923119D01*
X151262505Y-89756697D01*
X151272999Y-89653986D01*
X151272999Y-89278000D01*
X151292683Y-89210961D01*
X151345487Y-89165206D01*
X151396999Y-89154000D01*
X153149001Y-89154000D01*
X153216040Y-89173685D01*
X153261795Y-89226489D01*
X153273001Y-89278000D01*
X153273001Y-89653986D01*
X153283494Y-89756696D01*
X153283494Y-89756698D01*
X153338640Y-89923119D01*
X153338645Y-89923130D01*
X153430680Y-90072340D01*
X153430683Y-90072344D01*
X153554655Y-90196316D01*
X153554659Y-90196319D01*
X153703869Y-90288354D01*
X153703880Y-90288359D01*
X153870302Y-90343505D01*
X153973020Y-90353999D01*
X155197999Y-90353999D01*
X155198000Y-90353998D01*
X155198000Y-89278000D01*
X155217685Y-89210961D01*
X155270489Y-89165206D01*
X155322000Y-89154000D01*
X155574000Y-89154000D01*
X155641039Y-89173685D01*
X155686794Y-89226489D01*
X155698000Y-89278000D01*
X155698000Y-90353999D01*
X156922972Y-90353999D01*
X156922986Y-90353998D01*
X157025696Y-90343505D01*
X157025698Y-90343505D01*
X157192119Y-90288359D01*
X157192130Y-90288354D01*
X157341340Y-90196319D01*
X157341344Y-90196316D01*
X157465316Y-90072344D01*
X157465319Y-90072340D01*
X157557354Y-89923130D01*
X157557359Y-89923119D01*
X157612505Y-89756697D01*
X157622999Y-89653986D01*
X157622999Y-89278000D01*
X157642683Y-89210961D01*
X157695487Y-89165206D01*
X157746999Y-89154000D01*
X159499001Y-89154000D01*
X159566040Y-89173685D01*
X159611795Y-89226489D01*
X159623001Y-89278000D01*
X159623001Y-89653986D01*
X159633494Y-89756696D01*
X159633494Y-89756698D01*
X159688640Y-89923119D01*
X159688645Y-89923130D01*
X159780680Y-90072340D01*
X159780683Y-90072344D01*
X159904655Y-90196316D01*
X159904659Y-90196319D01*
X160053869Y-90288354D01*
X160053880Y-90288359D01*
X160220302Y-90343505D01*
X160323020Y-90353999D01*
X161547999Y-90353999D01*
X161548000Y-90353998D01*
X161548000Y-89278000D01*
X161567685Y-89210961D01*
X161620489Y-89165206D01*
X161672000Y-89154000D01*
X161924000Y-89154000D01*
X161991039Y-89173685D01*
X162036794Y-89226489D01*
X162048000Y-89278000D01*
X162048000Y-90353999D01*
X163272972Y-90353999D01*
X163272986Y-90353998D01*
X163375696Y-90343505D01*
X163375698Y-90343505D01*
X163542119Y-90288359D01*
X163542130Y-90288354D01*
X163691340Y-90196319D01*
X163691344Y-90196316D01*
X163815316Y-90072344D01*
X163815319Y-90072340D01*
X163907354Y-89923130D01*
X163907359Y-89923119D01*
X163962505Y-89756697D01*
X163972999Y-89653986D01*
X163972999Y-89278000D01*
X163992683Y-89210961D01*
X164045487Y-89165206D01*
X164096999Y-89154000D01*
X165849001Y-89154000D01*
X165916040Y-89173685D01*
X165961795Y-89226489D01*
X165973001Y-89278000D01*
X165973001Y-89653986D01*
X165983494Y-89756696D01*
X165983494Y-89756698D01*
X166038640Y-89923119D01*
X166038645Y-89923130D01*
X166130680Y-90072340D01*
X166130683Y-90072344D01*
X166254655Y-90196316D01*
X166254659Y-90196319D01*
X166403869Y-90288354D01*
X166403880Y-90288359D01*
X166570302Y-90343505D01*
X166673020Y-90353999D01*
X167897999Y-90353999D01*
X167898000Y-90353998D01*
X167898000Y-89278000D01*
X167917685Y-89210961D01*
X167970489Y-89165206D01*
X168022000Y-89154000D01*
X168274000Y-89154000D01*
X168341039Y-89173685D01*
X168386794Y-89226489D01*
X168398000Y-89278000D01*
X168398000Y-90353999D01*
X169622972Y-90353999D01*
X169622986Y-90353998D01*
X169725696Y-90343505D01*
X169725698Y-90343505D01*
X169892119Y-90288359D01*
X169892130Y-90288354D01*
X170041340Y-90196319D01*
X170041344Y-90196316D01*
X170165316Y-90072344D01*
X170165319Y-90072340D01*
X170257354Y-89923130D01*
X170257359Y-89923119D01*
X170312505Y-89756697D01*
X170322999Y-89653986D01*
X170322999Y-89278000D01*
X170342683Y-89210961D01*
X170395487Y-89165206D01*
X170446999Y-89154000D01*
X172199001Y-89154000D01*
X172266040Y-89173685D01*
X172311795Y-89226489D01*
X172323001Y-89278000D01*
X172323001Y-89653986D01*
X172333494Y-89756696D01*
X172333494Y-89756698D01*
X172388640Y-89923119D01*
X172388645Y-89923130D01*
X172480680Y-90072340D01*
X172480683Y-90072344D01*
X172604655Y-90196316D01*
X172604659Y-90196319D01*
X172753869Y-90288354D01*
X172753880Y-90288359D01*
X172920302Y-90343505D01*
X173023020Y-90353999D01*
X174247999Y-90353999D01*
X174248000Y-90353998D01*
X174248000Y-89278000D01*
X174267685Y-89210961D01*
X174320489Y-89165206D01*
X174372000Y-89154000D01*
X174624000Y-89154000D01*
X174691039Y-89173685D01*
X174736794Y-89226489D01*
X174748000Y-89278000D01*
X174748000Y-90353999D01*
X175898000Y-90353999D01*
X175965039Y-90373684D01*
X176010794Y-90426488D01*
X176022000Y-90477999D01*
X176022000Y-92399500D01*
X176002315Y-92466539D01*
X175949511Y-92512294D01*
X175898000Y-92523500D01*
X175097998Y-92523500D01*
X175097980Y-92523501D01*
X174995203Y-92534000D01*
X174995200Y-92534001D01*
X174828668Y-92589185D01*
X174828663Y-92589187D01*
X174679342Y-92681289D01*
X174585681Y-92774951D01*
X174524358Y-92808436D01*
X174454666Y-92803452D01*
X174410319Y-92774951D01*
X174316657Y-92681289D01*
X174316656Y-92681288D01*
X174174218Y-92593432D01*
X174167336Y-92589187D01*
X174167331Y-92589185D01*
X174165862Y-92588698D01*
X174000797Y-92534001D01*
X174000795Y-92534000D01*
X173898010Y-92523500D01*
X173097998Y-92523500D01*
X173097980Y-92523501D01*
X172995203Y-92534000D01*
X172995200Y-92534001D01*
X172828668Y-92589185D01*
X172828663Y-92589187D01*
X172679342Y-92681289D01*
X172555289Y-92805342D01*
X172463187Y-92954663D01*
X172463185Y-92954668D01*
X172444352Y-93011504D01*
X172404579Y-93068949D01*
X172340063Y-93095772D01*
X172326646Y-93096500D01*
X170630787Y-93096500D01*
X170563748Y-93076815D01*
X170529212Y-93043623D01*
X170526352Y-93039539D01*
X170418047Y-92884861D01*
X170418045Y-92884858D01*
X170257141Y-92723954D01*
X170070734Y-92593432D01*
X170070732Y-92593431D01*
X169864497Y-92497261D01*
X169864488Y-92497258D01*
X169644697Y-92438366D01*
X169644693Y-92438365D01*
X169644692Y-92438365D01*
X169644691Y-92438364D01*
X169644686Y-92438364D01*
X169418002Y-92418532D01*
X169417998Y-92418532D01*
X169191313Y-92438364D01*
X169191302Y-92438366D01*
X168971511Y-92497258D01*
X168971502Y-92497261D01*
X168765267Y-92593431D01*
X168765265Y-92593432D01*
X168578858Y-92723954D01*
X168417954Y-92884858D01*
X168287432Y-93071265D01*
X168287431Y-93071267D01*
X168260382Y-93129275D01*
X168214209Y-93181714D01*
X168147016Y-93200866D01*
X168080135Y-93180650D01*
X168035618Y-93129275D01*
X168015109Y-93085294D01*
X168008568Y-93071266D01*
X167878047Y-92884861D01*
X167878045Y-92884858D01*
X167717141Y-92723954D01*
X167530734Y-92593432D01*
X167530732Y-92593431D01*
X167324497Y-92497261D01*
X167324488Y-92497258D01*
X167104697Y-92438366D01*
X167104693Y-92438365D01*
X167104692Y-92438365D01*
X167104691Y-92438364D01*
X167104686Y-92438364D01*
X166878002Y-92418532D01*
X166877998Y-92418532D01*
X166651313Y-92438364D01*
X166651302Y-92438366D01*
X166431511Y-92497258D01*
X166431502Y-92497261D01*
X166225267Y-92593431D01*
X166225265Y-92593432D01*
X166038858Y-92723954D01*
X165877954Y-92884858D01*
X165747432Y-93071265D01*
X165747431Y-93071267D01*
X165720382Y-93129275D01*
X165674209Y-93181714D01*
X165607016Y-93200866D01*
X165540135Y-93180650D01*
X165495618Y-93129275D01*
X165475109Y-93085294D01*
X165468568Y-93071266D01*
X165338047Y-92884861D01*
X165338045Y-92884858D01*
X165177141Y-92723954D01*
X164990734Y-92593432D01*
X164990732Y-92593431D01*
X164784497Y-92497261D01*
X164784488Y-92497258D01*
X164564697Y-92438366D01*
X164564693Y-92438365D01*
X164564692Y-92438365D01*
X164564691Y-92438364D01*
X164564686Y-92438364D01*
X164338002Y-92418532D01*
X164337998Y-92418532D01*
X164111313Y-92438364D01*
X164111302Y-92438366D01*
X163891511Y-92497258D01*
X163891502Y-92497261D01*
X163685267Y-92593431D01*
X163685265Y-92593432D01*
X163498858Y-92723954D01*
X163337954Y-92884858D01*
X163207432Y-93071265D01*
X163207431Y-93071267D01*
X163180382Y-93129275D01*
X163134209Y-93181714D01*
X163067016Y-93200866D01*
X163000135Y-93180650D01*
X162955618Y-93129275D01*
X162935109Y-93085294D01*
X162928568Y-93071266D01*
X162798047Y-92884861D01*
X162798045Y-92884858D01*
X162637141Y-92723954D01*
X162450734Y-92593432D01*
X162450732Y-92593431D01*
X162244497Y-92497261D01*
X162244488Y-92497258D01*
X162024697Y-92438366D01*
X162024693Y-92438365D01*
X162024692Y-92438365D01*
X162024691Y-92438364D01*
X162024686Y-92438364D01*
X161798002Y-92418532D01*
X161797998Y-92418532D01*
X161571313Y-92438364D01*
X161571302Y-92438366D01*
X161351511Y-92497258D01*
X161351502Y-92497261D01*
X161145267Y-92593431D01*
X161145265Y-92593432D01*
X160958858Y-92723954D01*
X160797954Y-92884858D01*
X160667432Y-93071265D01*
X160667431Y-93071267D01*
X160640382Y-93129275D01*
X160594209Y-93181714D01*
X160527016Y-93200866D01*
X160460135Y-93180650D01*
X160415618Y-93129275D01*
X160395109Y-93085294D01*
X160388568Y-93071266D01*
X160258047Y-92884861D01*
X160258045Y-92884858D01*
X160097141Y-92723954D01*
X159910734Y-92593432D01*
X159910732Y-92593431D01*
X159704497Y-92497261D01*
X159704488Y-92497258D01*
X159484697Y-92438366D01*
X159484693Y-92438365D01*
X159484692Y-92438365D01*
X159484691Y-92438364D01*
X159484686Y-92438364D01*
X159258002Y-92418532D01*
X159257998Y-92418532D01*
X159031313Y-92438364D01*
X159031302Y-92438366D01*
X158811511Y-92497258D01*
X158811502Y-92497261D01*
X158605267Y-92593431D01*
X158605265Y-92593432D01*
X158418858Y-92723954D01*
X158257954Y-92884858D01*
X158240725Y-92909464D01*
X158186147Y-92953088D01*
X158116648Y-92960280D01*
X158054294Y-92928757D01*
X158018882Y-92868526D01*
X158015861Y-92851591D01*
X158012091Y-92816516D01*
X157961797Y-92681671D01*
X157961793Y-92681664D01*
X157875547Y-92566455D01*
X157875544Y-92566452D01*
X157760335Y-92480206D01*
X157760328Y-92480202D01*
X157625482Y-92429908D01*
X157625483Y-92429908D01*
X157565883Y-92423501D01*
X157565881Y-92423500D01*
X157565873Y-92423500D01*
X157565864Y-92423500D01*
X155870129Y-92423500D01*
X155870123Y-92423501D01*
X155810516Y-92429908D01*
X155675671Y-92480202D01*
X155675664Y-92480206D01*
X155560455Y-92566452D01*
X155560452Y-92566455D01*
X155474206Y-92681664D01*
X155474202Y-92681671D01*
X155423908Y-92816517D01*
X155417501Y-92876116D01*
X155417500Y-92876135D01*
X155417500Y-92972500D01*
X155397815Y-93039539D01*
X155345011Y-93085294D01*
X155293500Y-93096500D01*
X148645281Y-93096500D01*
X148578242Y-93076815D01*
X148557600Y-93060181D01*
X148372319Y-92874900D01*
X148338834Y-92813577D01*
X148336000Y-92787219D01*
X148336000Y-90477999D01*
X148355685Y-90410960D01*
X148408489Y-90365205D01*
X148460000Y-90353999D01*
X148848000Y-90353999D01*
X148848000Y-89278000D01*
X148867685Y-89210961D01*
X148920489Y-89165206D01*
X148972000Y-89154000D01*
X149224000Y-89154000D01*
X149291039Y-89173685D01*
G37*
%TD.AperFunction*%
%TD*%
%TA.AperFunction,Conductor*%
%TO.N,+12VA*%
G36*
X59378018Y-83585685D02*
G01*
X59423773Y-83638489D01*
X59434975Y-83691016D01*
X59183008Y-114431016D01*
X59162774Y-114497892D01*
X59109597Y-114543213D01*
X59059012Y-114554000D01*
X51424500Y-114554000D01*
X51357461Y-114534315D01*
X51311706Y-114481511D01*
X51300500Y-114430000D01*
X51300500Y-114234110D01*
X51300500Y-114234108D01*
X51266392Y-114106814D01*
X51200500Y-113992686D01*
X51107314Y-113899500D01*
X51050250Y-113866554D01*
X50993187Y-113833608D01*
X50929539Y-113816554D01*
X50865892Y-113799500D01*
X50865891Y-113799500D01*
X50801601Y-113799500D01*
X50798408Y-113799459D01*
X50044416Y-113780039D01*
X50038039Y-113779710D01*
X49287663Y-113721626D01*
X49281312Y-113720970D01*
X48534893Y-113624331D01*
X48528583Y-113623348D01*
X47788148Y-113488415D01*
X47781898Y-113487109D01*
X47049387Y-113314239D01*
X47043212Y-113312613D01*
X46320563Y-113102261D01*
X46314480Y-113100319D01*
X46231292Y-113071382D01*
X45603617Y-112853043D01*
X45597643Y-112850791D01*
X44900469Y-112567256D01*
X44894618Y-112564699D01*
X44212954Y-112245646D01*
X44207242Y-112242791D01*
X43542907Y-111889070D01*
X43537350Y-111885925D01*
X43468003Y-111844284D01*
X42892096Y-111498469D01*
X42886727Y-111495054D01*
X42262269Y-111074891D01*
X42257072Y-111071196D01*
X41655080Y-110619450D01*
X41650073Y-110615487D01*
X41072141Y-110133355D01*
X41067345Y-110129140D01*
X40514993Y-109617892D01*
X40510420Y-109613435D01*
X39985123Y-109074433D01*
X39980786Y-109069747D01*
X39483941Y-108504430D01*
X39479850Y-108499526D01*
X39012750Y-107909359D01*
X39008918Y-107904252D01*
X38572820Y-107290826D01*
X38569255Y-107285528D01*
X38559507Y-107270203D01*
X38366539Y-106966824D01*
X38165325Y-106650482D01*
X38162038Y-106645008D01*
X37791330Y-105990003D01*
X37788329Y-105984367D01*
X37451827Y-105311139D01*
X37449120Y-105305355D01*
X37392614Y-105176059D01*
X37147730Y-104615714D01*
X37145324Y-104609799D01*
X36879828Y-103905540D01*
X36877730Y-103899509D01*
X36822835Y-103727552D01*
X36648835Y-103182498D01*
X36647054Y-103176378D01*
X36646640Y-103174805D01*
X36455379Y-102448556D01*
X36453923Y-102442388D01*
X36299959Y-101705619D01*
X36298818Y-101699353D01*
X36253243Y-101406729D01*
X36182996Y-100955687D01*
X36182176Y-100949355D01*
X36145003Y-100589747D01*
X36104785Y-100200680D01*
X36104297Y-100194368D01*
X36072010Y-99568000D01*
X41133027Y-99568000D01*
X41152912Y-100162782D01*
X41152913Y-100162799D01*
X41212479Y-100754899D01*
X41311467Y-101341745D01*
X41449426Y-101920648D01*
X41625747Y-102489053D01*
X41625749Y-102489058D01*
X41839635Y-103044400D01*
X41839641Y-103044413D01*
X42090136Y-103584217D01*
X42090149Y-103584244D01*
X42376147Y-104106122D01*
X42696364Y-104607735D01*
X42696372Y-104607747D01*
X43049382Y-105086855D01*
X43433610Y-105541322D01*
X43433613Y-105541325D01*
X43570047Y-105682397D01*
X43570049Y-105682397D01*
X46894415Y-102358030D01*
X46922252Y-102391949D01*
X47214051Y-102683748D01*
X47247968Y-102711583D01*
X43922478Y-106037073D01*
X44288687Y-106368289D01*
X44288718Y-106368316D01*
X44755740Y-106737119D01*
X44755764Y-106737136D01*
X45246386Y-107073930D01*
X45758442Y-107377221D01*
X46289579Y-107645616D01*
X46837478Y-107877946D01*
X46837486Y-107877948D01*
X47399674Y-108073162D01*
X47399686Y-108073165D01*
X47973627Y-108230385D01*
X47973644Y-108230389D01*
X48556820Y-108348924D01*
X48556832Y-108348926D01*
X49146660Y-108428252D01*
X49740432Y-108468000D01*
X50335568Y-108468000D01*
X50929339Y-108428252D01*
X51519167Y-108348926D01*
X51519179Y-108348924D01*
X52102355Y-108230389D01*
X52102372Y-108230385D01*
X52676313Y-108073165D01*
X52676325Y-108073162D01*
X53238513Y-107877948D01*
X53238521Y-107877946D01*
X53786420Y-107645616D01*
X54317557Y-107377221D01*
X54829613Y-107073930D01*
X55320235Y-106737136D01*
X55320259Y-106737119D01*
X55787297Y-106368303D01*
X56153519Y-106037072D01*
X52828030Y-102711583D01*
X52861949Y-102683748D01*
X53153748Y-102391949D01*
X53181583Y-102358031D01*
X56505950Y-105682398D01*
X56505951Y-105682397D01*
X56642386Y-105541325D01*
X56642389Y-105541322D01*
X57026617Y-105086855D01*
X57379627Y-104607747D01*
X57379635Y-104607735D01*
X57699852Y-104106122D01*
X57985850Y-103584244D01*
X57985863Y-103584217D01*
X58236358Y-103044413D01*
X58236364Y-103044400D01*
X58450250Y-102489058D01*
X58450252Y-102489053D01*
X58626573Y-101920648D01*
X58764532Y-101341745D01*
X58863520Y-100754899D01*
X58923086Y-100162799D01*
X58923087Y-100162782D01*
X58942972Y-99568000D01*
X58923087Y-98973217D01*
X58923086Y-98973200D01*
X58863520Y-98381100D01*
X58764532Y-97794254D01*
X58626573Y-97215351D01*
X58450252Y-96646946D01*
X58450250Y-96646941D01*
X58236364Y-96091599D01*
X58236358Y-96091586D01*
X57985863Y-95551782D01*
X57985850Y-95551755D01*
X57699852Y-95029877D01*
X57379635Y-94528264D01*
X57379627Y-94528252D01*
X57026617Y-94049144D01*
X56642389Y-93594677D01*
X56642386Y-93594674D01*
X56505951Y-93453601D01*
X56505949Y-93453601D01*
X53181582Y-96777968D01*
X53153748Y-96744051D01*
X52861949Y-96452252D01*
X52828029Y-96424415D01*
X56153520Y-93098925D01*
X55787312Y-92767710D01*
X55787281Y-92767683D01*
X55320259Y-92398880D01*
X55320235Y-92398863D01*
X54829613Y-92062069D01*
X54317557Y-91758778D01*
X53786420Y-91490383D01*
X53238521Y-91258053D01*
X53238513Y-91258051D01*
X52676325Y-91062837D01*
X52676313Y-91062834D01*
X52102372Y-90905614D01*
X52102355Y-90905610D01*
X51519179Y-90787075D01*
X51519167Y-90787073D01*
X50929339Y-90707747D01*
X50335568Y-90668000D01*
X49740432Y-90668000D01*
X49146660Y-90707747D01*
X48556832Y-90787073D01*
X48556820Y-90787075D01*
X47973644Y-90905610D01*
X47973627Y-90905614D01*
X47399686Y-91062834D01*
X47399674Y-91062837D01*
X46837486Y-91258051D01*
X46837478Y-91258053D01*
X46289579Y-91490383D01*
X45758442Y-91758778D01*
X45246386Y-92062069D01*
X44755764Y-92398863D01*
X44755740Y-92398880D01*
X44288718Y-92767683D01*
X44288686Y-92767710D01*
X43922478Y-93098925D01*
X47247969Y-96424416D01*
X47214051Y-96452252D01*
X46922252Y-96744051D01*
X46894416Y-96777969D01*
X43570048Y-93453601D01*
X43570047Y-93453601D01*
X43433613Y-93594674D01*
X43433610Y-93594677D01*
X43049382Y-94049144D01*
X42696372Y-94528252D01*
X42696364Y-94528264D01*
X42376147Y-95029877D01*
X42090149Y-95551755D01*
X42090136Y-95551782D01*
X41839641Y-96091586D01*
X41839635Y-96091599D01*
X41625749Y-96646941D01*
X41625747Y-96646946D01*
X41449426Y-97215351D01*
X41311467Y-97794254D01*
X41212479Y-98381100D01*
X41152913Y-98973200D01*
X41152912Y-98973217D01*
X41133027Y-99568000D01*
X36072010Y-99568000D01*
X36065551Y-99442692D01*
X36065387Y-99436309D01*
X36065387Y-98683690D01*
X36065551Y-98677307D01*
X36086280Y-98275157D01*
X36104297Y-97925628D01*
X36104785Y-97919322D01*
X36182176Y-97170639D01*
X36182996Y-97164312D01*
X36198768Y-97063046D01*
X36298822Y-96420622D01*
X36299958Y-96414387D01*
X36453925Y-95677602D01*
X36455377Y-95671451D01*
X36647060Y-94943599D01*
X36648831Y-94937511D01*
X36877736Y-94220471D01*
X36879821Y-94214478D01*
X37145326Y-93510193D01*
X37147730Y-93504285D01*
X37169880Y-93453601D01*
X37449127Y-92814627D01*
X37451819Y-92808876D01*
X37788336Y-92135617D01*
X37791321Y-92130011D01*
X38162041Y-91474985D01*
X38165325Y-91469517D01*
X38424000Y-91062837D01*
X38569274Y-90834441D01*
X38572820Y-90829173D01*
X39008918Y-90215747D01*
X39012750Y-90210640D01*
X39479850Y-89620473D01*
X39483916Y-89615598D01*
X39980802Y-89050234D01*
X39985105Y-89045584D01*
X40510443Y-88506540D01*
X40514968Y-88502130D01*
X41067358Y-87990846D01*
X41072127Y-87986656D01*
X41650101Y-87504489D01*
X41655051Y-87500571D01*
X42257105Y-87048779D01*
X42262243Y-87045126D01*
X42886754Y-86624927D01*
X42892068Y-86621547D01*
X43537381Y-86234056D01*
X43542875Y-86230946D01*
X44207271Y-85877193D01*
X44212924Y-85874367D01*
X44894637Y-85555291D01*
X44900449Y-85552751D01*
X45597678Y-85269194D01*
X45603583Y-85266968D01*
X46314520Y-85019666D01*
X46320523Y-85017750D01*
X47043233Y-84807380D01*
X47049365Y-84805765D01*
X47781906Y-84632888D01*
X47788139Y-84631585D01*
X48528601Y-84496648D01*
X48534874Y-84495670D01*
X49281345Y-84399025D01*
X49287630Y-84398376D01*
X50038074Y-84340287D01*
X50044380Y-84339961D01*
X50798408Y-84320540D01*
X50801601Y-84320500D01*
X50865890Y-84320500D01*
X50865892Y-84320500D01*
X50993186Y-84286392D01*
X51107314Y-84220500D01*
X51200500Y-84127314D01*
X51266392Y-84013186D01*
X51300500Y-83885892D01*
X51300500Y-83754108D01*
X51300500Y-83690000D01*
X51320185Y-83622961D01*
X51372989Y-83577206D01*
X51424500Y-83566000D01*
X59310979Y-83566000D01*
X59378018Y-83585685D01*
G37*
%TD.AperFunction*%
%TD*%
%TA.AperFunction,Conductor*%
%TO.N,+12VA*%
G36*
X149291039Y-114573685D02*
G01*
X149336794Y-114626489D01*
X149348000Y-114678000D01*
X149348000Y-115753999D01*
X150572972Y-115753999D01*
X150572986Y-115753998D01*
X150675696Y-115743505D01*
X150675698Y-115743505D01*
X150842119Y-115688359D01*
X150842130Y-115688354D01*
X150991340Y-115596319D01*
X150991344Y-115596316D01*
X151115316Y-115472344D01*
X151115319Y-115472340D01*
X151207354Y-115323130D01*
X151207359Y-115323119D01*
X151262505Y-115156697D01*
X151272999Y-115053986D01*
X151272999Y-114678000D01*
X151292683Y-114610961D01*
X151345487Y-114565206D01*
X151396999Y-114554000D01*
X153149001Y-114554000D01*
X153216040Y-114573685D01*
X153261795Y-114626489D01*
X153273001Y-114678000D01*
X153273001Y-115053986D01*
X153283494Y-115156696D01*
X153283494Y-115156698D01*
X153338640Y-115323119D01*
X153338645Y-115323130D01*
X153430680Y-115472340D01*
X153430683Y-115472344D01*
X153554655Y-115596316D01*
X153554659Y-115596319D01*
X153703869Y-115688354D01*
X153703880Y-115688359D01*
X153870302Y-115743505D01*
X153973020Y-115753999D01*
X155197999Y-115753999D01*
X155198000Y-115753998D01*
X155198000Y-114678000D01*
X155217685Y-114610961D01*
X155270489Y-114565206D01*
X155322000Y-114554000D01*
X155574000Y-114554000D01*
X155641039Y-114573685D01*
X155686794Y-114626489D01*
X155698000Y-114678000D01*
X155698000Y-115753999D01*
X156922972Y-115753999D01*
X156922986Y-115753998D01*
X157025696Y-115743505D01*
X157025698Y-115743505D01*
X157192119Y-115688359D01*
X157192130Y-115688354D01*
X157341340Y-115596319D01*
X157341344Y-115596316D01*
X157465316Y-115472344D01*
X157465319Y-115472340D01*
X157557354Y-115323130D01*
X157557359Y-115323119D01*
X157612505Y-115156697D01*
X157622999Y-115053986D01*
X157622999Y-114678000D01*
X157642683Y-114610961D01*
X157695487Y-114565206D01*
X157746999Y-114554000D01*
X159499001Y-114554000D01*
X159566040Y-114573685D01*
X159611795Y-114626489D01*
X159623001Y-114678000D01*
X159623001Y-115053986D01*
X159633494Y-115156696D01*
X159633494Y-115156698D01*
X159688640Y-115323119D01*
X159688645Y-115323130D01*
X159780680Y-115472340D01*
X159780683Y-115472344D01*
X159904655Y-115596316D01*
X159904659Y-115596319D01*
X160053869Y-115688354D01*
X160053880Y-115688359D01*
X160220302Y-115743505D01*
X160323020Y-115753999D01*
X161547999Y-115753999D01*
X161548000Y-115753998D01*
X161548000Y-114678000D01*
X161567685Y-114610961D01*
X161620489Y-114565206D01*
X161672000Y-114554000D01*
X161924000Y-114554000D01*
X161991039Y-114573685D01*
X162036794Y-114626489D01*
X162048000Y-114678000D01*
X162048000Y-115753999D01*
X163272972Y-115753999D01*
X163272986Y-115753998D01*
X163375696Y-115743505D01*
X163375698Y-115743505D01*
X163542119Y-115688359D01*
X163542130Y-115688354D01*
X163691340Y-115596319D01*
X163691344Y-115596316D01*
X163815316Y-115472344D01*
X163815319Y-115472340D01*
X163907354Y-115323130D01*
X163907359Y-115323119D01*
X163962505Y-115156697D01*
X163972999Y-115053986D01*
X163972999Y-114678000D01*
X163992683Y-114610961D01*
X164045487Y-114565206D01*
X164096999Y-114554000D01*
X165849001Y-114554000D01*
X165916040Y-114573685D01*
X165961795Y-114626489D01*
X165973001Y-114678000D01*
X165973001Y-115053986D01*
X165983494Y-115156696D01*
X165983494Y-115156698D01*
X166038640Y-115323119D01*
X166038645Y-115323130D01*
X166130680Y-115472340D01*
X166130683Y-115472344D01*
X166254655Y-115596316D01*
X166254659Y-115596319D01*
X166403869Y-115688354D01*
X166403880Y-115688359D01*
X166570302Y-115743505D01*
X166673020Y-115753999D01*
X167897999Y-115753999D01*
X167898000Y-115753998D01*
X167898000Y-114678000D01*
X167917685Y-114610961D01*
X167970489Y-114565206D01*
X168022000Y-114554000D01*
X168274000Y-114554000D01*
X168341039Y-114573685D01*
X168386794Y-114626489D01*
X168398000Y-114678000D01*
X168398000Y-115753999D01*
X169622972Y-115753999D01*
X169622986Y-115753998D01*
X169725696Y-115743505D01*
X169725698Y-115743505D01*
X169892119Y-115688359D01*
X169892130Y-115688354D01*
X170041340Y-115596319D01*
X170041344Y-115596316D01*
X170165316Y-115472344D01*
X170165319Y-115472340D01*
X170257354Y-115323130D01*
X170257359Y-115323119D01*
X170312505Y-115156697D01*
X170322999Y-115053986D01*
X170322999Y-114678000D01*
X170342683Y-114610961D01*
X170395487Y-114565206D01*
X170446999Y-114554000D01*
X172199001Y-114554000D01*
X172266040Y-114573685D01*
X172311795Y-114626489D01*
X172323001Y-114678000D01*
X172323001Y-115053986D01*
X172333494Y-115156696D01*
X172333494Y-115156698D01*
X172388640Y-115323119D01*
X172388645Y-115323130D01*
X172480680Y-115472340D01*
X172480683Y-115472344D01*
X172604655Y-115596316D01*
X172604659Y-115596319D01*
X172753869Y-115688354D01*
X172753880Y-115688359D01*
X172920302Y-115743505D01*
X173023020Y-115753999D01*
X174247999Y-115753999D01*
X174248000Y-115753998D01*
X174248000Y-114678000D01*
X174267685Y-114610961D01*
X174320489Y-114565206D01*
X174372000Y-114554000D01*
X174624000Y-114554000D01*
X174691039Y-114573685D01*
X174736794Y-114626489D01*
X174748000Y-114678000D01*
X174748000Y-115753999D01*
X175136000Y-115753999D01*
X175203039Y-115773684D01*
X175248794Y-115826488D01*
X175260000Y-115877999D01*
X175260000Y-118560000D01*
X175240315Y-118627039D01*
X175187511Y-118672794D01*
X175136000Y-118684000D01*
X174748000Y-118684000D01*
X174748000Y-119634000D01*
X174248000Y-119634000D01*
X174248000Y-118684000D01*
X173023028Y-118684000D01*
X173023012Y-118684001D01*
X172920303Y-118694494D01*
X172920301Y-118694494D01*
X172753880Y-118749640D01*
X172753869Y-118749645D01*
X172604659Y-118841680D01*
X172604655Y-118841683D01*
X172480683Y-118965655D01*
X172480680Y-118965659D01*
X172388645Y-119114869D01*
X172388640Y-119114880D01*
X172333494Y-119281302D01*
X172323000Y-119384013D01*
X172323000Y-119510000D01*
X172303315Y-119577039D01*
X172250511Y-119622794D01*
X172199000Y-119634000D01*
X170446999Y-119634000D01*
X170379960Y-119614315D01*
X170334205Y-119561511D01*
X170322999Y-119510000D01*
X170322999Y-119384028D01*
X170322998Y-119384013D01*
X170312505Y-119281303D01*
X170312505Y-119281301D01*
X170257359Y-119114880D01*
X170257354Y-119114869D01*
X170165319Y-118965659D01*
X170165316Y-118965655D01*
X170041344Y-118841683D01*
X170041340Y-118841680D01*
X169892130Y-118749645D01*
X169892119Y-118749640D01*
X169725697Y-118694494D01*
X169622986Y-118684000D01*
X168398000Y-118684000D01*
X168398000Y-119634000D01*
X167898000Y-119634000D01*
X167898000Y-118684000D01*
X166673028Y-118684000D01*
X166673012Y-118684001D01*
X166570303Y-118694494D01*
X166570301Y-118694494D01*
X166403880Y-118749640D01*
X166403869Y-118749645D01*
X166254659Y-118841680D01*
X166254655Y-118841683D01*
X166130683Y-118965655D01*
X166130680Y-118965659D01*
X166038645Y-119114869D01*
X166038640Y-119114880D01*
X165983494Y-119281302D01*
X165973000Y-119384013D01*
X165973000Y-119510000D01*
X165953315Y-119577039D01*
X165900511Y-119622794D01*
X165849000Y-119634000D01*
X164096999Y-119634000D01*
X164029960Y-119614315D01*
X163984205Y-119561511D01*
X163972999Y-119510000D01*
X163972999Y-119384028D01*
X163972998Y-119384013D01*
X163962505Y-119281303D01*
X163962505Y-119281301D01*
X163907359Y-119114880D01*
X163907354Y-119114869D01*
X163815319Y-118965659D01*
X163815316Y-118965655D01*
X163691344Y-118841683D01*
X163691340Y-118841680D01*
X163542130Y-118749645D01*
X163542119Y-118749640D01*
X163375697Y-118694494D01*
X163272986Y-118684000D01*
X162048000Y-118684000D01*
X162048000Y-119634000D01*
X161548000Y-119634000D01*
X161548000Y-118684000D01*
X160323028Y-118684000D01*
X160323012Y-118684001D01*
X160220303Y-118694494D01*
X160220301Y-118694494D01*
X160053880Y-118749640D01*
X160053869Y-118749645D01*
X159904659Y-118841680D01*
X159904655Y-118841683D01*
X159780683Y-118965655D01*
X159780680Y-118965659D01*
X159688645Y-119114869D01*
X159688640Y-119114880D01*
X159633494Y-119281302D01*
X159623000Y-119384013D01*
X159623000Y-119510000D01*
X159603315Y-119577039D01*
X159550511Y-119622794D01*
X159499000Y-119634000D01*
X157746999Y-119634000D01*
X157679960Y-119614315D01*
X157634205Y-119561511D01*
X157622999Y-119510000D01*
X157622999Y-119384028D01*
X157622998Y-119384013D01*
X157612505Y-119281303D01*
X157612505Y-119281301D01*
X157557359Y-119114880D01*
X157557354Y-119114869D01*
X157465319Y-118965659D01*
X157465316Y-118965655D01*
X157341344Y-118841683D01*
X157341340Y-118841680D01*
X157192130Y-118749645D01*
X157192119Y-118749640D01*
X157025697Y-118694494D01*
X156922986Y-118684000D01*
X155698000Y-118684000D01*
X155698000Y-119634000D01*
X155198000Y-119634000D01*
X155198000Y-118684000D01*
X153973028Y-118684000D01*
X153973012Y-118684001D01*
X153870303Y-118694494D01*
X153870301Y-118694494D01*
X153703880Y-118749640D01*
X153703869Y-118749645D01*
X153554659Y-118841680D01*
X153554655Y-118841683D01*
X153430683Y-118965655D01*
X153430680Y-118965659D01*
X153338645Y-119114869D01*
X153338640Y-119114880D01*
X153283494Y-119281302D01*
X153273000Y-119384013D01*
X153273000Y-119510000D01*
X153253315Y-119577039D01*
X153200511Y-119622794D01*
X153149000Y-119634000D01*
X151396999Y-119634000D01*
X151329960Y-119614315D01*
X151284205Y-119561511D01*
X151272999Y-119510000D01*
X151272999Y-119384028D01*
X151272998Y-119384013D01*
X151262505Y-119281303D01*
X151262505Y-119281301D01*
X151207359Y-119114880D01*
X151207354Y-119114869D01*
X151115319Y-118965659D01*
X151115316Y-118965655D01*
X150991344Y-118841683D01*
X150991340Y-118841680D01*
X150842130Y-118749645D01*
X150842119Y-118749640D01*
X150675697Y-118694494D01*
X150572986Y-118684000D01*
X149348000Y-118684000D01*
X149348000Y-119634000D01*
X148848000Y-119634000D01*
X148848000Y-118684000D01*
X148822018Y-118684000D01*
X148754979Y-118664315D01*
X148709224Y-118611511D01*
X148698633Y-118547665D01*
X149098000Y-114554000D01*
X149224000Y-114554000D01*
X149291039Y-114573685D01*
G37*
%TD.AperFunction*%
%TD*%
%TA.AperFunction,Conductor*%
%TO.N,Net-(Q2-D)*%
G36*
X153216040Y-78505685D02*
G01*
X153261795Y-78558489D01*
X153273001Y-78610000D01*
X153273001Y-78983986D01*
X153283494Y-79086696D01*
X153283494Y-79086698D01*
X153338640Y-79253119D01*
X153338645Y-79253130D01*
X153430680Y-79402340D01*
X153430683Y-79402344D01*
X153554655Y-79526316D01*
X153554659Y-79526319D01*
X153703869Y-79618354D01*
X153703880Y-79618359D01*
X153870302Y-79673505D01*
X153973020Y-79683999D01*
X155197999Y-79683999D01*
X155198000Y-79683998D01*
X155198000Y-78608000D01*
X155217685Y-78540961D01*
X155270489Y-78495206D01*
X155312807Y-78486000D01*
X155580811Y-78486000D01*
X155641039Y-78503685D01*
X155686794Y-78556489D01*
X155698000Y-78608000D01*
X155698000Y-79683999D01*
X156922972Y-79683999D01*
X156922986Y-79683998D01*
X157025696Y-79673505D01*
X157025698Y-79673505D01*
X157192119Y-79618359D01*
X157192130Y-79618354D01*
X157341340Y-79526319D01*
X157341344Y-79526316D01*
X157465316Y-79402344D01*
X157465319Y-79402340D01*
X157557354Y-79253130D01*
X157557359Y-79253119D01*
X157612505Y-79086697D01*
X157622999Y-78983986D01*
X157623000Y-78983973D01*
X157623000Y-78610000D01*
X157642685Y-78542961D01*
X157695489Y-78497206D01*
X157747000Y-78486000D01*
X159499001Y-78486000D01*
X159566040Y-78505685D01*
X159611795Y-78558489D01*
X159623001Y-78610000D01*
X159623001Y-78983986D01*
X159633494Y-79086696D01*
X159633494Y-79086698D01*
X159688640Y-79253119D01*
X159688645Y-79253130D01*
X159780680Y-79402340D01*
X159780683Y-79402344D01*
X159904655Y-79526316D01*
X159904659Y-79526319D01*
X160053869Y-79618354D01*
X160053880Y-79618359D01*
X160220302Y-79673505D01*
X160323020Y-79683999D01*
X161547999Y-79683999D01*
X161548000Y-79683998D01*
X161548000Y-78608000D01*
X161567685Y-78540961D01*
X161620489Y-78495206D01*
X161662807Y-78486000D01*
X161930811Y-78486000D01*
X161991039Y-78503685D01*
X162036794Y-78556489D01*
X162048000Y-78608000D01*
X162048000Y-79683999D01*
X163272972Y-79683999D01*
X163272986Y-79683998D01*
X163375696Y-79673505D01*
X163375698Y-79673505D01*
X163542119Y-79618359D01*
X163542130Y-79618354D01*
X163691340Y-79526319D01*
X163691344Y-79526316D01*
X163815316Y-79402344D01*
X163815319Y-79402340D01*
X163907354Y-79253130D01*
X163907359Y-79253119D01*
X163962505Y-79086697D01*
X163972999Y-78983986D01*
X163973000Y-78983973D01*
X163973000Y-78610000D01*
X163992685Y-78542961D01*
X164045489Y-78497206D01*
X164097000Y-78486000D01*
X165849001Y-78486000D01*
X165916040Y-78505685D01*
X165961795Y-78558489D01*
X165973001Y-78610000D01*
X165973001Y-78983986D01*
X165983494Y-79086696D01*
X165983494Y-79086698D01*
X166038640Y-79253119D01*
X166038645Y-79253130D01*
X166130680Y-79402340D01*
X166130683Y-79402344D01*
X166254655Y-79526316D01*
X166254659Y-79526319D01*
X166403869Y-79618354D01*
X166403880Y-79618359D01*
X166570302Y-79673505D01*
X166673020Y-79683999D01*
X167897999Y-79683999D01*
X167898000Y-79683998D01*
X167898000Y-78608000D01*
X167917685Y-78540961D01*
X167970489Y-78495206D01*
X168012807Y-78486000D01*
X168280811Y-78486000D01*
X168341039Y-78503685D01*
X168386794Y-78556489D01*
X168398000Y-78608000D01*
X168398000Y-79683999D01*
X169622972Y-79683999D01*
X169622986Y-79683998D01*
X169725696Y-79673505D01*
X169725698Y-79673505D01*
X169892119Y-79618359D01*
X169892130Y-79618354D01*
X170041340Y-79526319D01*
X170041344Y-79526316D01*
X170165316Y-79402344D01*
X170165319Y-79402340D01*
X170257354Y-79253130D01*
X170257359Y-79253119D01*
X170312505Y-79086697D01*
X170322999Y-78983986D01*
X170323000Y-78983973D01*
X170323000Y-78610000D01*
X170342685Y-78542961D01*
X170395489Y-78497206D01*
X170447000Y-78486000D01*
X172199001Y-78486000D01*
X172266040Y-78505685D01*
X172311795Y-78558489D01*
X172323001Y-78610000D01*
X172323001Y-78983986D01*
X172333494Y-79086696D01*
X172333494Y-79086698D01*
X172388640Y-79253119D01*
X172388645Y-79253130D01*
X172480680Y-79402340D01*
X172480683Y-79402344D01*
X172604655Y-79526316D01*
X172604659Y-79526319D01*
X172753869Y-79618354D01*
X172753880Y-79618359D01*
X172920302Y-79673505D01*
X173023020Y-79683999D01*
X174247999Y-79683999D01*
X174248000Y-79683998D01*
X174248000Y-78608000D01*
X174267685Y-78540961D01*
X174320489Y-78495206D01*
X174362807Y-78486000D01*
X174630811Y-78486000D01*
X174691039Y-78503685D01*
X174736794Y-78556489D01*
X174748000Y-78608000D01*
X174748000Y-79683999D01*
X174882000Y-79683999D01*
X174949039Y-79703684D01*
X174994794Y-79756488D01*
X175006000Y-79807999D01*
X175006000Y-81730000D01*
X174986315Y-81797039D01*
X174933511Y-81842794D01*
X174882000Y-81854000D01*
X174748000Y-81854000D01*
X174748000Y-82806554D01*
X174248000Y-82811504D01*
X174248000Y-81854000D01*
X173023028Y-81854000D01*
X173023012Y-81854001D01*
X172920303Y-81864494D01*
X172920301Y-81864494D01*
X172753880Y-81919640D01*
X172753869Y-81919645D01*
X172604659Y-82011680D01*
X172604655Y-82011683D01*
X172480683Y-82135655D01*
X172480680Y-82135659D01*
X172388645Y-82284869D01*
X172388640Y-82284880D01*
X172333494Y-82451302D01*
X172323000Y-82554013D01*
X172323000Y-82707785D01*
X172303315Y-82774824D01*
X172250511Y-82820579D01*
X172200228Y-82831779D01*
X170448227Y-82849126D01*
X170380996Y-82830106D01*
X170334720Y-82777758D01*
X170322999Y-82725132D01*
X170322999Y-82554028D01*
X170322998Y-82554013D01*
X170312505Y-82451303D01*
X170312505Y-82451301D01*
X170257359Y-82284880D01*
X170257354Y-82284869D01*
X170165319Y-82135659D01*
X170165316Y-82135655D01*
X170041344Y-82011683D01*
X170041340Y-82011680D01*
X169892130Y-81919645D01*
X169892119Y-81919640D01*
X169725697Y-81864494D01*
X169622986Y-81854000D01*
X168398000Y-81854000D01*
X168398000Y-82869425D01*
X167898000Y-82874376D01*
X167898000Y-81854000D01*
X166673028Y-81854000D01*
X166673012Y-81854001D01*
X166570303Y-81864494D01*
X166570301Y-81864494D01*
X166403880Y-81919640D01*
X166403869Y-81919645D01*
X166254659Y-82011680D01*
X166254655Y-82011683D01*
X166130683Y-82135655D01*
X166130680Y-82135659D01*
X166038645Y-82284869D01*
X166038640Y-82284880D01*
X165983494Y-82451302D01*
X165973000Y-82554013D01*
X165973000Y-82770656D01*
X165953315Y-82837695D01*
X165900511Y-82883450D01*
X165850228Y-82894650D01*
X164098227Y-82911997D01*
X164030996Y-82892977D01*
X163984720Y-82840629D01*
X163972999Y-82788003D01*
X163972999Y-82554028D01*
X163972998Y-82554013D01*
X163962505Y-82451303D01*
X163962505Y-82451301D01*
X163907359Y-82284880D01*
X163907354Y-82284869D01*
X163815319Y-82135659D01*
X163815316Y-82135655D01*
X163691344Y-82011683D01*
X163691340Y-82011680D01*
X163542130Y-81919645D01*
X163542119Y-81919640D01*
X163375697Y-81864494D01*
X163272986Y-81854000D01*
X162048000Y-81854000D01*
X162048000Y-82930000D01*
X162047323Y-82932303D01*
X161549573Y-82937231D01*
X161548000Y-82930000D01*
X161548000Y-81854000D01*
X160323028Y-81854000D01*
X160323012Y-81854001D01*
X160220303Y-81864494D01*
X160220301Y-81864494D01*
X160053880Y-81919640D01*
X160053869Y-81919645D01*
X159904659Y-82011680D01*
X159904655Y-82011683D01*
X159780683Y-82135655D01*
X159780680Y-82135659D01*
X159688645Y-82284869D01*
X159688640Y-82284880D01*
X159633494Y-82451302D01*
X159623000Y-82554013D01*
X159623000Y-82833527D01*
X159603315Y-82900566D01*
X159550511Y-82946321D01*
X159500228Y-82957521D01*
X157748227Y-82974868D01*
X157680996Y-82955848D01*
X157634720Y-82903500D01*
X157622999Y-82850874D01*
X157622999Y-82554028D01*
X157622998Y-82554013D01*
X157612505Y-82451303D01*
X157612505Y-82451301D01*
X157557359Y-82284880D01*
X157557354Y-82284869D01*
X157465319Y-82135659D01*
X157465316Y-82135655D01*
X157341344Y-82011683D01*
X157341340Y-82011680D01*
X157192130Y-81919645D01*
X157192119Y-81919640D01*
X157025697Y-81864494D01*
X156922986Y-81854000D01*
X155698000Y-81854000D01*
X155698000Y-82930000D01*
X155678808Y-82995358D01*
X155225097Y-82999850D01*
X155209206Y-82981511D01*
X155198000Y-82930000D01*
X155198000Y-81854000D01*
X153973028Y-81854000D01*
X153973012Y-81854001D01*
X153870303Y-81864494D01*
X153870301Y-81864494D01*
X153703880Y-81919640D01*
X153703869Y-81919645D01*
X153554659Y-82011680D01*
X153554655Y-82011683D01*
X153430683Y-82135655D01*
X153430680Y-82135659D01*
X153338645Y-82284869D01*
X153338640Y-82284880D01*
X153283494Y-82451302D01*
X153273000Y-82554013D01*
X153273000Y-82896399D01*
X153253315Y-82963438D01*
X153200511Y-83009193D01*
X153150228Y-83020393D01*
X151398227Y-83037740D01*
X151330996Y-83018720D01*
X151284720Y-82966372D01*
X151272999Y-82913746D01*
X151272999Y-82554028D01*
X151272998Y-82554013D01*
X151262505Y-82451303D01*
X151262505Y-82451301D01*
X151207359Y-82284880D01*
X151207354Y-82284869D01*
X151115319Y-82135659D01*
X151115316Y-82135655D01*
X150991344Y-82011683D01*
X150991340Y-82011680D01*
X150842130Y-81919645D01*
X150842119Y-81919640D01*
X150675697Y-81864494D01*
X150572986Y-81854000D01*
X149476000Y-81854000D01*
X149408961Y-81834315D01*
X149363206Y-81781511D01*
X149352000Y-81730000D01*
X149352000Y-79807999D01*
X149371685Y-79740960D01*
X149424489Y-79695205D01*
X149476000Y-79683999D01*
X150572972Y-79683999D01*
X150572986Y-79683998D01*
X150675696Y-79673505D01*
X150675698Y-79673505D01*
X150842119Y-79618359D01*
X150842130Y-79618354D01*
X150991340Y-79526319D01*
X150991344Y-79526316D01*
X151115316Y-79402344D01*
X151115319Y-79402340D01*
X151207354Y-79253130D01*
X151207359Y-79253119D01*
X151262505Y-79086697D01*
X151272999Y-78983986D01*
X151273000Y-78983973D01*
X151273000Y-78610000D01*
X151292685Y-78542961D01*
X151345489Y-78497206D01*
X151397000Y-78486000D01*
X153149001Y-78486000D01*
X153216040Y-78505685D01*
G37*
%TD.AperFunction*%
%TD*%
M02*
