%TF.GenerationSoftware,KiCad,Pcbnew,8.0.8+1*%
%TF.CreationDate,2025-02-28T13:17:03+11:00*%
%TF.ProjectId,vmon,766d6f6e-2e6b-4696-9361-645f70636258,rev?*%
%TF.SameCoordinates,Original*%
%TF.FileFunction,Copper,L2,Bot*%
%TF.FilePolarity,Positive*%
%FSLAX46Y46*%
G04 Gerber Fmt 4.6, Leading zero omitted, Abs format (unit mm)*
G04 Created by KiCad (PCBNEW 8.0.8+1) date 2025-02-28 13:17:03*
%MOMM*%
%LPD*%
G01*
G04 APERTURE LIST*
G04 Aperture macros list*
%AMRoundRect*
0 Rectangle with rounded corners*
0 $1 Rounding radius*
0 $2 $3 $4 $5 $6 $7 $8 $9 X,Y pos of 4 corners*
0 Add a 4 corners polygon primitive as box body*
4,1,4,$2,$3,$4,$5,$6,$7,$8,$9,$2,$3,0*
0 Add four circle primitives for the rounded corners*
1,1,$1+$1,$2,$3*
1,1,$1+$1,$4,$5*
1,1,$1+$1,$6,$7*
1,1,$1+$1,$8,$9*
0 Add four rect primitives between the rounded corners*
20,1,$1+$1,$2,$3,$4,$5,0*
20,1,$1+$1,$4,$5,$6,$7,0*
20,1,$1+$1,$6,$7,$8,$9,0*
20,1,$1+$1,$8,$9,$2,$3,0*%
G04 Aperture macros list end*
%TA.AperFunction,ComponentPad*%
%ADD10R,2.000000X1.200000*%
%TD*%
%TA.AperFunction,ComponentPad*%
%ADD11O,2.000000X1.200000*%
%TD*%
%TA.AperFunction,ComponentPad*%
%ADD12R,1.600000X1.600000*%
%TD*%
%TA.AperFunction,ComponentPad*%
%ADD13O,1.600000X1.600000*%
%TD*%
%TA.AperFunction,ComponentPad*%
%ADD14RoundRect,0.250000X0.650000X1.550000X-0.650000X1.550000X-0.650000X-1.550000X0.650000X-1.550000X0*%
%TD*%
%TA.AperFunction,ComponentPad*%
%ADD15O,1.800000X3.600000*%
%TD*%
%TA.AperFunction,ComponentPad*%
%ADD16C,3.600000*%
%TD*%
%TA.AperFunction,ConnectorPad*%
%ADD17C,5.600000*%
%TD*%
%TA.AperFunction,ComponentPad*%
%ADD18RoundRect,0.250000X-0.893000X0.893000X-0.893000X-0.893000X0.893000X-0.893000X0.893000X0.893000X0*%
%TD*%
%TA.AperFunction,ComponentPad*%
%ADD19C,2.286000*%
%TD*%
%TA.AperFunction,ComponentPad*%
%ADD20C,2.900000*%
%TD*%
%TA.AperFunction,ConnectorPad*%
%ADD21C,5.000000*%
%TD*%
%TA.AperFunction,ComponentPad*%
%ADD22C,8.800000*%
%TD*%
%TA.AperFunction,ConnectorPad*%
%ADD23C,16.800000*%
%TD*%
%TA.AperFunction,ComponentPad*%
%ADD24C,1.800000*%
%TD*%
%TA.AperFunction,ViaPad*%
%ADD25C,1.270000*%
%TD*%
%TA.AperFunction,ViaPad*%
%ADD26C,2.540000*%
%TD*%
%TA.AperFunction,ViaPad*%
%ADD27C,1.016000*%
%TD*%
%TA.AperFunction,Conductor*%
%ADD28C,2.540000*%
%TD*%
%TA.AperFunction,Conductor*%
%ADD29C,0.254000*%
%TD*%
%TA.AperFunction,Conductor*%
%ADD30C,0.508000*%
%TD*%
%TA.AperFunction,Conductor*%
%ADD31C,1.270000*%
%TD*%
G04 APERTURE END LIST*
D10*
%TO.P,U1,1,EN*%
%TO.N,unconnected-(U1-EN-Pad1)*%
X109728000Y-81280000D03*
D11*
%TO.P,U1,2,VP*%
%TO.N,unconnected-(U1-VP-Pad2)*%
X109728000Y-83820000D03*
%TO.P,U1,3,VN*%
%TO.N,unconnected-(U1-VN-Pad3)*%
X109728000Y-86360000D03*
%TO.P,U1,4,D34*%
%TO.N,Net-(U1-D34)*%
X109728000Y-88900000D03*
%TO.P,U1,5,D35*%
%TO.N,unconnected-(U1-D35-Pad5)*%
X109728000Y-91440000D03*
%TO.P,U1,6,D32*%
%TO.N,unconnected-(U1-D32-Pad6)*%
X109728000Y-93980000D03*
%TO.P,U1,7,D33*%
%TO.N,unconnected-(U1-D33-Pad7)*%
X109728000Y-96520000D03*
%TO.P,U1,8,D25*%
%TO.N,unconnected-(U1-D25-Pad8)*%
X109728000Y-99060000D03*
%TO.P,U1,9,D26*%
%TO.N,unconnected-(U1-D26-Pad9)*%
X109728000Y-101600000D03*
%TO.P,U1,10,D27*%
%TO.N,unconnected-(U1-D27-Pad10)*%
X109728000Y-104140000D03*
%TO.P,U1,11,D14*%
%TO.N,unconnected-(U1-D14-Pad11)*%
X109728000Y-106680000D03*
%TO.P,U1,12,D12*%
%TO.N,unconnected-(U1-D12-Pad12)*%
X109728000Y-109220000D03*
%TO.P,U1,13,D13*%
%TO.N,unconnected-(U1-D13-Pad13)*%
X109728000Y-111760000D03*
%TO.P,U1,14,GND*%
%TO.N,GND*%
X109728000Y-114300000D03*
%TO.P,U1,15,VIN*%
%TO.N,Net-(U1-VIN)*%
X109728000Y-116840000D03*
%TO.P,U1,16,3V3*%
%TO.N,+3V3*%
X135128000Y-116840000D03*
%TO.P,U1,17,GND*%
%TO.N,GND*%
X135128000Y-114300000D03*
%TO.P,U1,18,D15*%
%TO.N,unconnected-(U1-D15-Pad18)*%
X135128000Y-111760000D03*
%TO.P,U1,19,D2*%
%TO.N,unconnected-(U1-D2-Pad19)*%
X135128000Y-109220000D03*
%TO.P,U1,20,D4*%
%TO.N,unconnected-(U1-D4-Pad20)*%
X135128000Y-106680000D03*
%TO.P,U1,21,D16*%
%TO.N,/MOSI*%
X135128000Y-104140000D03*
%TO.P,U1,22,D17*%
%TO.N,/MISO*%
X135128000Y-101600000D03*
%TO.P,U1,23,D5*%
%TO.N,unconnected-(U1-D5-Pad23)*%
X135128000Y-99060000D03*
%TO.P,U1,24,D18*%
%TO.N,Net-(Q2-G)*%
X135128000Y-96520000D03*
%TO.P,U1,25,D19*%
%TO.N,unconnected-(U1-D19-Pad25)*%
X135128000Y-93980000D03*
%TO.P,U1,26,D21*%
%TO.N,/SDA*%
X135128000Y-91440000D03*
%TO.P,U1,27,RXD0*%
%TO.N,unconnected-(U1-RXD0-Pad27)*%
X135128000Y-88900000D03*
%TO.P,U1,28,TXD0*%
%TO.N,unconnected-(U1-TXD0-Pad28)*%
X135128000Y-86360000D03*
%TO.P,U1,29,D22*%
%TO.N,/SCL*%
X135128000Y-83820000D03*
%TO.P,U1,30,D23*%
%TO.N,unconnected-(U1-D23-Pad30)*%
X135128000Y-81280000D03*
%TD*%
D12*
%TO.P,U6,1*%
%TO.N,Net-(J4-Pin_1)*%
X97028000Y-84328000D03*
D13*
%TO.P,U6,2*%
%TO.N,Net-(J4-Pin_2)*%
X94488000Y-84328000D03*
%TO.P,U6,3*%
%TO.N,GND*%
X94488000Y-91948000D03*
%TO.P,U6,4*%
%TO.N,/MOSI*%
X97028000Y-91948000D03*
%TD*%
D14*
%TO.P,J4,1,Pin_1*%
%TO.N,Net-(J4-Pin_1)*%
X98243000Y-78370500D03*
D15*
%TO.P,J4,2,Pin_2*%
%TO.N,Net-(J4-Pin_2)*%
X93163000Y-78370500D03*
%TO.P,J4,3,Pin_3*%
%TO.N,Net-(J4-Pin_3)*%
X88083000Y-78370500D03*
%TO.P,J4,4,Pin_4*%
%TO.N,Net-(J4-Pin_4)*%
X83003000Y-78370500D03*
%TD*%
D16*
%TO.P,H1,1,1*%
%TO.N,unconnected-(H1-Pad1)*%
X55880000Y-73660000D03*
D17*
X55880000Y-73660000D03*
%TD*%
D12*
%TO.P,U3,1,VCC*%
%TO.N,+3V3*%
X61468000Y-91948000D03*
D13*
%TO.P,U3,2,GND*%
%TO.N,GND*%
X61468000Y-94488000D03*
%TO.P,U3,3,SCL*%
%TO.N,/SCL*%
X61468000Y-97028000D03*
%TO.P,U3,4,SDA*%
%TO.N,/SDA*%
X61468000Y-99568000D03*
%TO.P,U3,5*%
%TO.N,N/C*%
X61468000Y-102108000D03*
%TO.P,U3,6,SDO*%
%TO.N,Net-(U3-SDO)*%
X61468000Y-104648000D03*
%TD*%
D16*
%TO.P,H4,1,1*%
%TO.N,unconnected-(H4-Pad1)*%
X182880000Y-124460000D03*
D17*
X182880000Y-124460000D03*
%TD*%
D14*
%TO.P,J3,1,Pin_1*%
%TO.N,Net-(J3-Pin_1)*%
X71573000Y-78370500D03*
D15*
%TO.P,J3,2,Pin_2*%
%TO.N,Net-(J3-Pin_2)*%
X66493000Y-78370500D03*
%TD*%
D12*
%TO.P,U4,1,VCC*%
%TO.N,+3V3*%
X156718000Y-93724000D03*
D13*
%TO.P,U4,2,GND*%
%TO.N,GND*%
X159258000Y-93724000D03*
%TO.P,U4,3,SCL*%
%TO.N,/SCL*%
X161798000Y-93724000D03*
%TO.P,U4,4,SDA*%
%TO.N,/SDA*%
X164338000Y-93724000D03*
%TO.P,U4,5*%
%TO.N,N/C*%
X166878000Y-93724000D03*
%TO.P,U4,6,SDO*%
%TO.N,Net-(U4-SDO)*%
X169418000Y-93724000D03*
%TD*%
D12*
%TO.P,U5,1*%
%TO.N,Net-(J3-Pin_1)*%
X69093000Y-84338000D03*
D13*
%TO.P,U5,2*%
%TO.N,Net-(J3-Pin_2)*%
X66553000Y-84338000D03*
%TO.P,U5,3*%
%TO.N,GND*%
X66553000Y-91958000D03*
%TO.P,U5,4*%
%TO.N,Net-(Q1-B)*%
X69093000Y-91958000D03*
%TD*%
D18*
%TO.P,U2,1,Vin_p*%
%TO.N,+12VA*%
X71098000Y-99551400D03*
D19*
%TO.P,U2,2,Vin_gnd*%
%TO.N,GND*%
X71098000Y-113351400D03*
%TO.P,U2,3,VO_GND*%
X100098000Y-113351400D03*
%TO.P,U2,4,V5V_p*%
%TO.N,Net-(U1-VIN)*%
X100098000Y-99551400D03*
%TO.P,U2,5,EN*%
%TO.N,Net-(Q1-C)*%
X79756000Y-99568000D03*
%TD*%
D16*
%TO.P,H3,1,1*%
%TO.N,unconnected-(H3-Pad1)*%
X182880000Y-73660000D03*
D17*
X182880000Y-73660000D03*
%TD*%
D20*
%TO.P,H2,1,1*%
%TO.N,GND*%
X182880000Y-101600000D03*
D21*
X182880000Y-101600000D03*
%TD*%
D22*
%TO.P,B12+1,1,1*%
%TO.N,+12VA*%
X50038000Y-99568000D03*
D23*
X50038000Y-99568000D03*
%TD*%
D12*
%TO.P,U8,1,VDD*%
%TO.N,+3V3*%
X94488000Y-119888000D03*
D13*
%TO.P,U8,2,GND*%
%TO.N,GND*%
X91948000Y-119888000D03*
%TO.P,U8,3,SCL*%
%TO.N,/SCL*%
X89408000Y-119888000D03*
%TO.P,U8,4,SDA*%
%TO.N,/SDA*%
X86868000Y-119888000D03*
%TO.P,U8,5,ADDR*%
%TO.N,Net-(U8-ADDR)*%
X84328000Y-119888000D03*
%TO.P,U8,6,ALRT*%
%TO.N,Net-(U1-D34)*%
X81788000Y-119888000D03*
%TO.P,U8,7,AN0*%
%TO.N,Net-(U8-AN0)*%
X79248000Y-119888000D03*
%TO.P,U8,8,AN1*%
%TO.N,Net-(U8-AN1)*%
X76708000Y-119888000D03*
%TO.P,U8,9,AN2*%
%TO.N,unconnected-(U8-AN2-Pad9)*%
X74168000Y-119888000D03*
%TO.P,U8,10,AN3*%
%TO.N,unconnected-(U8-AN3-Pad10)*%
X71628000Y-119888000D03*
%TD*%
D12*
%TO.P,U7,1*%
%TO.N,+3V3*%
X84328000Y-91948000D03*
D13*
%TO.P,U7,2*%
%TO.N,Net-(R6-Pad1)*%
X86868000Y-91948000D03*
%TO.P,U7,3*%
%TO.N,Net-(J4-Pin_4)*%
X86868000Y-84328000D03*
%TO.P,U7,4*%
%TO.N,Net-(J4-Pin_3)*%
X84328000Y-84328000D03*
%TD*%
D16*
%TO.P,H5,1,1*%
%TO.N,unconnected-(H5-Pad1)*%
X55880000Y-124460000D03*
D17*
X55880000Y-124460000D03*
%TD*%
D24*
%TO.P,TP1,1,1*%
%TO.N,GND*%
X182880000Y-93218000D03*
%TD*%
D25*
%TO.N,+12VA*%
X78740000Y-88138000D03*
D26*
X154940000Y-114554000D03*
X152400000Y-97534000D03*
X152146000Y-114554000D03*
X155194000Y-97536000D03*
X158242000Y-97536000D03*
X157988000Y-114554000D03*
%TO.N,GND*%
X64665700Y-119783700D03*
D25*
X138938000Y-99822000D03*
X94488000Y-106172000D03*
X138430000Y-91440000D03*
D27*
X176784000Y-93218000D03*
%TO.N,+3V3*%
X82804000Y-102616000D03*
X72644000Y-108458000D03*
D25*
X104648000Y-124206000D03*
X99568000Y-110236000D03*
D27*
%TO.N,Net-(Q1-C)*%
X80264000Y-93218000D03*
D26*
%TO.N,Net-(Q2-D)*%
X148984750Y-83171250D03*
X149098000Y-103634000D03*
X144526000Y-92964000D03*
X144526000Y-99062000D03*
D25*
%TO.N,/MOSI*%
X100838000Y-94488000D03*
%TO.N,/MISO*%
X91186000Y-94488000D03*
%TO.N,Net-(U1-D34)*%
X98298000Y-105664000D03*
D27*
%TO.N,/SCL*%
X144018000Y-80010000D03*
%TO.N,/SDA*%
X96012000Y-123444000D03*
%TD*%
D28*
%TO.N,+12VA*%
X152146000Y-97788000D02*
X152400000Y-97534000D01*
X58928000Y-108458000D02*
X64770000Y-108458000D01*
D29*
X78740000Y-94488000D02*
X73676600Y-99551400D01*
X73676600Y-99551400D02*
X71098000Y-99551400D01*
D28*
X58928000Y-108458000D02*
X50038000Y-99568000D01*
X154940000Y-114554000D02*
X157988000Y-114554000D01*
X71098000Y-104162000D02*
X71098000Y-99551400D01*
X152146000Y-114554000D02*
X154940000Y-114554000D01*
X64770000Y-108458000D02*
X66802000Y-108458000D01*
X155194000Y-97536000D02*
X158242000Y-97536000D01*
X66802000Y-108458000D02*
X71098000Y-104162000D01*
X152400000Y-97534000D02*
X152402000Y-97536000D01*
X152146000Y-114554000D02*
X152146000Y-97788000D01*
D29*
X78740000Y-88138000D02*
X78740000Y-94488000D01*
D28*
X158242000Y-97536000D02*
X158496000Y-97536000D01*
X152402000Y-97536000D02*
X155194000Y-97536000D01*
%TO.N,GND*%
X182880000Y-101600000D02*
X182880000Y-93218000D01*
X115316000Y-127000000D02*
X100076000Y-127000000D01*
X182880000Y-115062000D02*
X170942000Y-127000000D01*
D29*
X100098000Y-113351400D02*
X94488000Y-107741400D01*
D30*
X63246000Y-92964000D02*
X62992000Y-92964000D01*
D28*
X68072000Y-127000000D02*
X63373000Y-122301000D01*
D29*
X160784000Y-95250000D02*
X174752000Y-95250000D01*
X174752000Y-95250000D02*
X176784000Y-93218000D01*
D28*
X139192000Y-116078000D02*
X139192000Y-127000000D01*
X115316000Y-127000000D02*
X139192000Y-127000000D01*
X109728000Y-114300000D02*
X113030000Y-114300000D01*
D29*
X159258000Y-93724000D02*
X160784000Y-95250000D01*
D28*
X64665700Y-119783700D02*
X63373000Y-121076400D01*
D30*
X66553000Y-91958000D02*
X64252000Y-91958000D01*
D31*
X91948000Y-119888000D02*
X91948000Y-127000000D01*
D28*
X100076000Y-127000000D02*
X91948000Y-127000000D01*
X170942000Y-127000000D02*
X139192000Y-127000000D01*
X135128000Y-114300000D02*
X137414000Y-114300000D01*
X91948000Y-127000000D02*
X68072000Y-127000000D01*
D29*
X94488000Y-107741400D02*
X94488000Y-106172000D01*
D28*
X100098000Y-113351400D02*
X100098000Y-126978000D01*
X137414000Y-114300000D02*
X139192000Y-116078000D01*
X71098000Y-113351400D02*
X64665700Y-119783700D01*
D29*
X138430000Y-99314000D02*
X138938000Y-99822000D01*
X138430000Y-91440000D02*
X138430000Y-99314000D01*
D30*
X62992000Y-92964000D02*
X61468000Y-94488000D01*
D28*
X100098000Y-126978000D02*
X100076000Y-127000000D01*
X115316000Y-116586000D02*
X115316000Y-127000000D01*
X113030000Y-114300000D02*
X115316000Y-116586000D01*
X63373000Y-121076400D02*
X63373000Y-122301000D01*
D30*
X64252000Y-91958000D02*
X63246000Y-92964000D01*
D28*
X182880000Y-101600000D02*
X182880000Y-115062000D01*
D30*
X176784000Y-93218000D02*
X182880000Y-93218000D01*
D31*
%TO.N,+3V3*%
X102616000Y-116586000D02*
X102616000Y-111506000D01*
X102616000Y-111506000D02*
X101346000Y-110236000D01*
X104648000Y-124206000D02*
X104648000Y-118618000D01*
D29*
X82804000Y-102616000D02*
X78486000Y-102616000D01*
D31*
X101346000Y-110236000D02*
X99568000Y-110236000D01*
D29*
X78486000Y-102616000D02*
X72644000Y-108458000D01*
D31*
X104648000Y-118618000D02*
X102616000Y-116586000D01*
D29*
%TO.N,Net-(J3-Pin_1)*%
X69093000Y-80850500D02*
X71573000Y-78370500D01*
X69093000Y-84338000D02*
X69093000Y-80850500D01*
%TO.N,Net-(J3-Pin_2)*%
X66553000Y-78430500D02*
X66493000Y-78370500D01*
X66553000Y-84338000D02*
X66553000Y-78430500D01*
%TO.N,Net-(J4-Pin_2)*%
X94488000Y-79695500D02*
X93163000Y-78370500D01*
X94488000Y-84328000D02*
X94488000Y-79695500D01*
%TO.N,Net-(J4-Pin_3)*%
X84919500Y-81534000D02*
X84582000Y-81534000D01*
X84582000Y-81534000D02*
X84328000Y-81788000D01*
X88083000Y-78370500D02*
X84919500Y-81534000D01*
X84328000Y-81788000D02*
X84328000Y-84328000D01*
%TO.N,Net-(J4-Pin_4)*%
X86868000Y-84328000D02*
X90424000Y-80772000D01*
X90424000Y-75946000D02*
X89154000Y-74676000D01*
X89154000Y-74676000D02*
X86697500Y-74676000D01*
X86697500Y-74676000D02*
X83003000Y-78370500D01*
X90424000Y-80772000D02*
X90424000Y-75946000D01*
%TO.N,Net-(J4-Pin_1)*%
X97028000Y-84328000D02*
X97028000Y-79585500D01*
X97028000Y-79585500D02*
X98243000Y-78370500D01*
%TO.N,Net-(Q1-C)*%
X80264000Y-93472000D02*
X79756000Y-93980000D01*
X79756000Y-93980000D02*
X79756000Y-99568000D01*
X80264000Y-93218000D02*
X80264000Y-93472000D01*
D28*
%TO.N,Net-(Q2-D)*%
X144526000Y-87630000D02*
X148984750Y-83171250D01*
X144526000Y-92964000D02*
X144526000Y-87630000D01*
X149098000Y-103634000D02*
X144526000Y-99062000D01*
D29*
%TO.N,/MOSI*%
X130048000Y-104140000D02*
X135128000Y-104140000D01*
X121158000Y-95250000D02*
X130048000Y-104140000D01*
X100838000Y-94488000D02*
X101600000Y-95250000D01*
X101600000Y-95250000D02*
X121158000Y-95250000D01*
%TO.N,/MISO*%
X121412000Y-93218000D02*
X121412000Y-92710000D01*
X129794000Y-101600000D02*
X121412000Y-93218000D01*
X135128000Y-101600000D02*
X129794000Y-101600000D01*
X121412000Y-92710000D02*
X99314000Y-92710000D01*
X97536000Y-94488000D02*
X91186000Y-94488000D01*
X99314000Y-92710000D02*
X97536000Y-94488000D01*
%TO.N,Net-(U1-D34)*%
X96774000Y-104140000D02*
X92710000Y-104140000D01*
X98298000Y-105664000D02*
X96774000Y-104140000D01*
X92710000Y-104140000D02*
X81788000Y-115062000D01*
X81788000Y-115062000D02*
X81788000Y-119888000D01*
%TO.N,/SCL*%
X161798000Y-93724000D02*
X161798000Y-91694000D01*
X161798000Y-91694000D02*
X150114000Y-80010000D01*
X150114000Y-80010000D02*
X144018000Y-80010000D01*
%TO.N,/SDA*%
X149860000Y-77978000D02*
X164338000Y-92456000D01*
X143764000Y-77978000D02*
X138430000Y-83312000D01*
X135636000Y-91440000D02*
X135128000Y-91440000D01*
X96012000Y-123444000D02*
X97536000Y-121920000D01*
X143764000Y-77978000D02*
X149860000Y-77978000D01*
X164338000Y-93724000D02*
X164338000Y-92456000D01*
X138430000Y-88646000D02*
X135636000Y-91440000D01*
X97536000Y-121920000D02*
X97536000Y-118618000D01*
X97536000Y-118618000D02*
X96012000Y-117094000D01*
X96012000Y-117094000D02*
X89408000Y-117094000D01*
X89408000Y-117094000D02*
X89408000Y-117348000D01*
X89408000Y-117348000D02*
X86868000Y-119888000D01*
X138430000Y-83312000D02*
X138430000Y-88646000D01*
D31*
%TO.N,Net-(U1-VIN)*%
X100098000Y-105940000D02*
X100098000Y-99551400D01*
X109728000Y-116840000D02*
X106934000Y-116840000D01*
X106934000Y-116840000D02*
X104648000Y-114554000D01*
X104648000Y-110490000D02*
X100098000Y-105940000D01*
X104648000Y-114554000D02*
X104648000Y-110490000D01*
%TD*%
%TA.AperFunction,Conductor*%
%TO.N,+12VA*%
G36*
X59444425Y-83585685D02*
G01*
X59473204Y-83611292D01*
X60454374Y-84805760D01*
X64898292Y-90215747D01*
X65249818Y-90643691D01*
X65277160Y-90707989D01*
X65278000Y-90722399D01*
X65278000Y-91079500D01*
X65258315Y-91146539D01*
X65205511Y-91192294D01*
X65154000Y-91203500D01*
X64332446Y-91203500D01*
X64332426Y-91203499D01*
X64326312Y-91203499D01*
X64177688Y-91203499D01*
X64177686Y-91203499D01*
X64056105Y-91227684D01*
X64031920Y-91232495D01*
X63993194Y-91248536D01*
X63894607Y-91289371D01*
X63894606Y-91289372D01*
X63870822Y-91305265D01*
X63870820Y-91305267D01*
X63771033Y-91371941D01*
X63718487Y-91424487D01*
X63665941Y-91477034D01*
X62980180Y-92162795D01*
X62918857Y-92196280D01*
X62849165Y-92191296D01*
X62793232Y-92149424D01*
X62768815Y-92083960D01*
X62768499Y-92075114D01*
X62768499Y-91100129D01*
X62768498Y-91100123D01*
X62768497Y-91100116D01*
X62762091Y-91040517D01*
X62747751Y-91002070D01*
X62711797Y-90905671D01*
X62711793Y-90905664D01*
X62625547Y-90790455D01*
X62625544Y-90790452D01*
X62510335Y-90704206D01*
X62510328Y-90704202D01*
X62375482Y-90653908D01*
X62375483Y-90653908D01*
X62315883Y-90647501D01*
X62315881Y-90647500D01*
X62315873Y-90647500D01*
X62315864Y-90647500D01*
X60620129Y-90647500D01*
X60620123Y-90647501D01*
X60560516Y-90653908D01*
X60425671Y-90704202D01*
X60425664Y-90704206D01*
X60310455Y-90790452D01*
X60310452Y-90790455D01*
X60224206Y-90905664D01*
X60224202Y-90905671D01*
X60173908Y-91040517D01*
X60167501Y-91100116D01*
X60167501Y-91100123D01*
X60167500Y-91100135D01*
X60167500Y-92795870D01*
X60167501Y-92795876D01*
X60173908Y-92855483D01*
X60224202Y-92990328D01*
X60224206Y-92990335D01*
X60310452Y-93105544D01*
X60310455Y-93105547D01*
X60425664Y-93191793D01*
X60425671Y-93191797D01*
X60447654Y-93199996D01*
X60560517Y-93242091D01*
X60595596Y-93245862D01*
X60660144Y-93272599D01*
X60699993Y-93329991D01*
X60702488Y-93399816D01*
X60666836Y-93459905D01*
X60653464Y-93470725D01*
X60628858Y-93487954D01*
X60467954Y-93648858D01*
X60337432Y-93835265D01*
X60337431Y-93835267D01*
X60241261Y-94041502D01*
X60241258Y-94041511D01*
X60182366Y-94261302D01*
X60182364Y-94261313D01*
X60162532Y-94487998D01*
X60162532Y-94488001D01*
X60182364Y-94714686D01*
X60182366Y-94714697D01*
X60241258Y-94934488D01*
X60241261Y-94934497D01*
X60337431Y-95140732D01*
X60337432Y-95140734D01*
X60467954Y-95327141D01*
X60628858Y-95488045D01*
X60628861Y-95488047D01*
X60815266Y-95618568D01*
X60873275Y-95645618D01*
X60925714Y-95691791D01*
X60944866Y-95758984D01*
X60924650Y-95825865D01*
X60873275Y-95870382D01*
X60815267Y-95897431D01*
X60815265Y-95897432D01*
X60628858Y-96027954D01*
X60467954Y-96188858D01*
X60337432Y-96375265D01*
X60337431Y-96375267D01*
X60241261Y-96581502D01*
X60241258Y-96581511D01*
X60182366Y-96801302D01*
X60182364Y-96801313D01*
X60162532Y-97027998D01*
X60162532Y-97028001D01*
X60182364Y-97254686D01*
X60182366Y-97254697D01*
X60241258Y-97474488D01*
X60241261Y-97474497D01*
X60337431Y-97680732D01*
X60337432Y-97680734D01*
X60467954Y-97867141D01*
X60628858Y-98028045D01*
X60628861Y-98028047D01*
X60815266Y-98158568D01*
X60851817Y-98175612D01*
X60873275Y-98185618D01*
X60925714Y-98231791D01*
X60944866Y-98298984D01*
X60924650Y-98365865D01*
X60873275Y-98410381D01*
X60856272Y-98418310D01*
X60815267Y-98437431D01*
X60815265Y-98437432D01*
X60628858Y-98567954D01*
X60467954Y-98728858D01*
X60337432Y-98915265D01*
X60337431Y-98915267D01*
X60241261Y-99121502D01*
X60241258Y-99121511D01*
X60182366Y-99341302D01*
X60182364Y-99341313D01*
X60162532Y-99567998D01*
X60162532Y-99568001D01*
X60182364Y-99794686D01*
X60182366Y-99794697D01*
X60241258Y-100014488D01*
X60241261Y-100014497D01*
X60337431Y-100220732D01*
X60337432Y-100220734D01*
X60467954Y-100407141D01*
X60628858Y-100568045D01*
X60628861Y-100568047D01*
X60815266Y-100698568D01*
X60846471Y-100713119D01*
X60873275Y-100725618D01*
X60925714Y-100771791D01*
X60944866Y-100838984D01*
X60924650Y-100905865D01*
X60873275Y-100950381D01*
X60861898Y-100955687D01*
X60815267Y-100977431D01*
X60815265Y-100977432D01*
X60628858Y-101107954D01*
X60467954Y-101268858D01*
X60337432Y-101455265D01*
X60337431Y-101455267D01*
X60241261Y-101661502D01*
X60241258Y-101661511D01*
X60182366Y-101881302D01*
X60182364Y-101881313D01*
X60162532Y-102107998D01*
X60162532Y-102108001D01*
X60182364Y-102334686D01*
X60182366Y-102334697D01*
X60241258Y-102554488D01*
X60241261Y-102554497D01*
X60337431Y-102760732D01*
X60337432Y-102760734D01*
X60467954Y-102947141D01*
X60628858Y-103108045D01*
X60628861Y-103108047D01*
X60815266Y-103238568D01*
X60873275Y-103265618D01*
X60925714Y-103311791D01*
X60944866Y-103378984D01*
X60924650Y-103445865D01*
X60873275Y-103490382D01*
X60815267Y-103517431D01*
X60815265Y-103517432D01*
X60628858Y-103647954D01*
X60467954Y-103808858D01*
X60337432Y-103995265D01*
X60337431Y-103995267D01*
X60241261Y-104201502D01*
X60241258Y-104201511D01*
X60182366Y-104421302D01*
X60182364Y-104421313D01*
X60162532Y-104647998D01*
X60162532Y-104648001D01*
X60182364Y-104874686D01*
X60182366Y-104874697D01*
X60241258Y-105094488D01*
X60241261Y-105094497D01*
X60337431Y-105300732D01*
X60337432Y-105300734D01*
X60467954Y-105487141D01*
X60628858Y-105648045D01*
X60628861Y-105648047D01*
X60815266Y-105778568D01*
X61021504Y-105874739D01*
X61241308Y-105933635D01*
X61403230Y-105947801D01*
X61467998Y-105953468D01*
X61468000Y-105953468D01*
X61468002Y-105953468D01*
X61524673Y-105948509D01*
X61694692Y-105933635D01*
X61914496Y-105874739D01*
X62120734Y-105778568D01*
X62307139Y-105648047D01*
X62468047Y-105487139D01*
X62598568Y-105300734D01*
X62694739Y-105094496D01*
X62753635Y-104874692D01*
X62772289Y-104661476D01*
X62773468Y-104648001D01*
X62773468Y-104647998D01*
X62765203Y-104553533D01*
X62753635Y-104421308D01*
X62694739Y-104201504D01*
X62598568Y-103995266D01*
X62468047Y-103808861D01*
X62468045Y-103808858D01*
X62307141Y-103647954D01*
X62120734Y-103517432D01*
X62120728Y-103517429D01*
X62062725Y-103490382D01*
X62010285Y-103444210D01*
X61991133Y-103377017D01*
X62011348Y-103310135D01*
X62062725Y-103265618D01*
X62120734Y-103238568D01*
X62307139Y-103108047D01*
X62468047Y-102947139D01*
X62598568Y-102760734D01*
X62694739Y-102554496D01*
X62753635Y-102334692D01*
X62773468Y-102108000D01*
X62753635Y-101881308D01*
X62694739Y-101661504D01*
X62598568Y-101455266D01*
X62468047Y-101268861D01*
X62468045Y-101268858D01*
X62307141Y-101107954D01*
X62120734Y-100977432D01*
X62120728Y-100977429D01*
X62074102Y-100955687D01*
X62062724Y-100950381D01*
X62010285Y-100904210D01*
X61991133Y-100837017D01*
X62011348Y-100770135D01*
X62062725Y-100725618D01*
X62120734Y-100698568D01*
X62307139Y-100568047D01*
X62468047Y-100407139D01*
X62598568Y-100220734D01*
X62694739Y-100014496D01*
X62753635Y-99794692D01*
X62773468Y-99568000D01*
X62771074Y-99540642D01*
X62762505Y-99442692D01*
X62753635Y-99341308D01*
X62706886Y-99166836D01*
X62694741Y-99121511D01*
X62694738Y-99121502D01*
X62653542Y-99033158D01*
X62598568Y-98915266D01*
X62468047Y-98728861D01*
X62468045Y-98728858D01*
X62307141Y-98567954D01*
X62120734Y-98437432D01*
X62120728Y-98437429D01*
X62091790Y-98423935D01*
X62062724Y-98410381D01*
X62010285Y-98364210D01*
X61991133Y-98297017D01*
X62011348Y-98230135D01*
X62062725Y-98185618D01*
X62120734Y-98158568D01*
X62307139Y-98028047D01*
X62468047Y-97867139D01*
X62598568Y-97680734D01*
X62694739Y-97474496D01*
X62753635Y-97254692D01*
X62773468Y-97028000D01*
X62753635Y-96801308D01*
X62694739Y-96581504D01*
X62598568Y-96375266D01*
X62468047Y-96188861D01*
X62468045Y-96188858D01*
X62307141Y-96027954D01*
X62120734Y-95897432D01*
X62120728Y-95897429D01*
X62062725Y-95870382D01*
X62010285Y-95824210D01*
X61991133Y-95757017D01*
X62011348Y-95690135D01*
X62062725Y-95645618D01*
X62120734Y-95618568D01*
X62307139Y-95488047D01*
X62468047Y-95327139D01*
X62598568Y-95140734D01*
X62694739Y-94934496D01*
X62753635Y-94714692D01*
X62773468Y-94488000D01*
X62759324Y-94326339D01*
X62773090Y-94257841D01*
X62795168Y-94227855D01*
X63274006Y-93749017D01*
X63335327Y-93715534D01*
X63337468Y-93715088D01*
X63393144Y-93704012D01*
X63441895Y-93694315D01*
X63441895Y-93694316D01*
X63441900Y-93694313D01*
X63466080Y-93689505D01*
X63524953Y-93665119D01*
X63603389Y-93632630D01*
X63726966Y-93550059D01*
X64528205Y-92748818D01*
X64589528Y-92715334D01*
X64615886Y-92712500D01*
X65154000Y-92712500D01*
X65221039Y-92732185D01*
X65266794Y-92784989D01*
X65278000Y-92836500D01*
X65278000Y-113883643D01*
X65258315Y-113950682D01*
X65229740Y-113981824D01*
X64574727Y-114487120D01*
X64521500Y-114528181D01*
X64456396Y-114553543D01*
X64445760Y-114554000D01*
X51424500Y-114554000D01*
X51357461Y-114534315D01*
X51311706Y-114481511D01*
X51300500Y-114430000D01*
X51300500Y-114234110D01*
X51300500Y-114234108D01*
X51266392Y-114106814D01*
X51200500Y-113992686D01*
X51107314Y-113899500D01*
X51050250Y-113866554D01*
X50993187Y-113833608D01*
X50929539Y-113816554D01*
X50865892Y-113799500D01*
X50865891Y-113799500D01*
X50801601Y-113799500D01*
X50798408Y-113799459D01*
X50044416Y-113780039D01*
X50038039Y-113779710D01*
X49287663Y-113721626D01*
X49281312Y-113720970D01*
X48534893Y-113624331D01*
X48528583Y-113623348D01*
X47788148Y-113488415D01*
X47781898Y-113487109D01*
X47049387Y-113314239D01*
X47043212Y-113312613D01*
X46320563Y-113102261D01*
X46314480Y-113100319D01*
X46298749Y-113094847D01*
X45603617Y-112853043D01*
X45597643Y-112850791D01*
X44900469Y-112567256D01*
X44894618Y-112564699D01*
X44212954Y-112245646D01*
X44207242Y-112242791D01*
X43562167Y-111899325D01*
X43542905Y-111889069D01*
X43537350Y-111885925D01*
X43468003Y-111844284D01*
X42892096Y-111498469D01*
X42886727Y-111495054D01*
X42262269Y-111074891D01*
X42257072Y-111071196D01*
X42163356Y-111000870D01*
X41655075Y-110619446D01*
X41650073Y-110615487D01*
X41639234Y-110606445D01*
X41338567Y-110355617D01*
X41072141Y-110133355D01*
X41067345Y-110129140D01*
X40591291Y-109688512D01*
X40514988Y-109617887D01*
X40510420Y-109613435D01*
X40471804Y-109573812D01*
X39985123Y-109074433D01*
X39980786Y-109069747D01*
X39796781Y-108860384D01*
X39483932Y-108504419D01*
X39479850Y-108499526D01*
X39012750Y-107909359D01*
X39008918Y-107904252D01*
X38572820Y-107290826D01*
X38569255Y-107285528D01*
X38559507Y-107270203D01*
X38272720Y-106819325D01*
X38165325Y-106650482D01*
X38162038Y-106645008D01*
X37791330Y-105990003D01*
X37788329Y-105984367D01*
X37451827Y-105311139D01*
X37449120Y-105305355D01*
X37392614Y-105176059D01*
X37256020Y-104863503D01*
X37147730Y-104615714D01*
X37145324Y-104609799D01*
X36932490Y-104045232D01*
X36879825Y-103905533D01*
X36877730Y-103899509D01*
X36865656Y-103861687D01*
X36648835Y-103182498D01*
X36647054Y-103176378D01*
X36632584Y-103121433D01*
X36455379Y-102448556D01*
X36453923Y-102442388D01*
X36299959Y-101705619D01*
X36298818Y-101699353D01*
X36298103Y-101694763D01*
X36182996Y-100955687D01*
X36182176Y-100949355D01*
X36155931Y-100695464D01*
X36104785Y-100200680D01*
X36104297Y-100194368D01*
X36072010Y-99568000D01*
X41133027Y-99568000D01*
X41152912Y-100162782D01*
X41152913Y-100162799D01*
X41212479Y-100754899D01*
X41311467Y-101341745D01*
X41449426Y-101920648D01*
X41625747Y-102489053D01*
X41625749Y-102489058D01*
X41839635Y-103044400D01*
X41839641Y-103044413D01*
X42090136Y-103584217D01*
X42090149Y-103584244D01*
X42376147Y-104106122D01*
X42696364Y-104607735D01*
X42696372Y-104607747D01*
X43049382Y-105086855D01*
X43433610Y-105541322D01*
X43433613Y-105541325D01*
X43570047Y-105682397D01*
X43570049Y-105682397D01*
X46894415Y-102358030D01*
X46922252Y-102391949D01*
X47214051Y-102683748D01*
X47247968Y-102711583D01*
X43922478Y-106037073D01*
X44288687Y-106368289D01*
X44288718Y-106368316D01*
X44755740Y-106737119D01*
X44755764Y-106737136D01*
X45246386Y-107073930D01*
X45758442Y-107377221D01*
X46289579Y-107645616D01*
X46837478Y-107877946D01*
X46837486Y-107877948D01*
X47399674Y-108073162D01*
X47399686Y-108073165D01*
X47973627Y-108230385D01*
X47973644Y-108230389D01*
X48556820Y-108348924D01*
X48556832Y-108348926D01*
X49146660Y-108428252D01*
X49740432Y-108468000D01*
X50335568Y-108468000D01*
X50929339Y-108428252D01*
X51519167Y-108348926D01*
X51519179Y-108348924D01*
X52102355Y-108230389D01*
X52102372Y-108230385D01*
X52676313Y-108073165D01*
X52676325Y-108073162D01*
X53238513Y-107877948D01*
X53238521Y-107877946D01*
X53786420Y-107645616D01*
X54317557Y-107377221D01*
X54829613Y-107073930D01*
X55320235Y-106737136D01*
X55320259Y-106737119D01*
X55787297Y-106368303D01*
X56153519Y-106037072D01*
X52828030Y-102711583D01*
X52861949Y-102683748D01*
X53153748Y-102391949D01*
X53181583Y-102358031D01*
X56505950Y-105682398D01*
X56505951Y-105682397D01*
X56642386Y-105541325D01*
X56642389Y-105541322D01*
X57026617Y-105086855D01*
X57379627Y-104607747D01*
X57379635Y-104607735D01*
X57699852Y-104106122D01*
X57985850Y-103584244D01*
X57985863Y-103584217D01*
X58236358Y-103044413D01*
X58236364Y-103044400D01*
X58450250Y-102489058D01*
X58450252Y-102489053D01*
X58626573Y-101920648D01*
X58764532Y-101341745D01*
X58863520Y-100754899D01*
X58923086Y-100162799D01*
X58923087Y-100162782D01*
X58942972Y-99568000D01*
X58923087Y-98973217D01*
X58923086Y-98973200D01*
X58863520Y-98381100D01*
X58764532Y-97794254D01*
X58626573Y-97215351D01*
X58450252Y-96646946D01*
X58450250Y-96646941D01*
X58236364Y-96091599D01*
X58236358Y-96091586D01*
X57985863Y-95551782D01*
X57985850Y-95551755D01*
X57699852Y-95029877D01*
X57379635Y-94528264D01*
X57379627Y-94528252D01*
X57026617Y-94049144D01*
X56642389Y-93594677D01*
X56642386Y-93594674D01*
X56505951Y-93453601D01*
X56505949Y-93453601D01*
X53181582Y-96777968D01*
X53153748Y-96744051D01*
X52861949Y-96452252D01*
X52828029Y-96424415D01*
X56153520Y-93098925D01*
X55787312Y-92767710D01*
X55787281Y-92767683D01*
X55320259Y-92398880D01*
X55320235Y-92398863D01*
X54829613Y-92062069D01*
X54317557Y-91758778D01*
X53786420Y-91490383D01*
X53238521Y-91258053D01*
X53238513Y-91258051D01*
X52676325Y-91062837D01*
X52676313Y-91062834D01*
X52102372Y-90905614D01*
X52102355Y-90905610D01*
X51519179Y-90787075D01*
X51519167Y-90787073D01*
X50929339Y-90707747D01*
X50335568Y-90668000D01*
X49740432Y-90668000D01*
X49146660Y-90707747D01*
X48556832Y-90787073D01*
X48556820Y-90787075D01*
X47973644Y-90905610D01*
X47973627Y-90905614D01*
X47399686Y-91062834D01*
X47399674Y-91062837D01*
X46837486Y-91258051D01*
X46837478Y-91258053D01*
X46289579Y-91490383D01*
X45758442Y-91758778D01*
X45246386Y-92062069D01*
X44755764Y-92398863D01*
X44755740Y-92398880D01*
X44288718Y-92767683D01*
X44288686Y-92767710D01*
X43922478Y-93098925D01*
X47247969Y-96424416D01*
X47214051Y-96452252D01*
X46922252Y-96744051D01*
X46894416Y-96777969D01*
X43570048Y-93453601D01*
X43570047Y-93453601D01*
X43433613Y-93594674D01*
X43433610Y-93594677D01*
X43049382Y-94049144D01*
X42696372Y-94528252D01*
X42696364Y-94528264D01*
X42376147Y-95029877D01*
X42090149Y-95551755D01*
X42090136Y-95551782D01*
X41839641Y-96091586D01*
X41839635Y-96091599D01*
X41625749Y-96646941D01*
X41625747Y-96646946D01*
X41449426Y-97215351D01*
X41311467Y-97794254D01*
X41212479Y-98381100D01*
X41152913Y-98973200D01*
X41152912Y-98973217D01*
X41133027Y-99568000D01*
X36072010Y-99568000D01*
X36065551Y-99442692D01*
X36065387Y-99436309D01*
X36065387Y-98683690D01*
X36065551Y-98677307D01*
X36069218Y-98606162D01*
X36104297Y-97925628D01*
X36104785Y-97919322D01*
X36182176Y-97170639D01*
X36182996Y-97164312D01*
X36195552Y-97083695D01*
X36298822Y-96420622D01*
X36299958Y-96414387D01*
X36453925Y-95677602D01*
X36455377Y-95671451D01*
X36647060Y-94943599D01*
X36648831Y-94937511D01*
X36877736Y-94220471D01*
X36879821Y-94214478D01*
X37145326Y-93510193D01*
X37147730Y-93504285D01*
X37150125Y-93498805D01*
X37449127Y-92814627D01*
X37451819Y-92808876D01*
X37788336Y-92135617D01*
X37791321Y-92130011D01*
X38162041Y-91474985D01*
X38165325Y-91469517D01*
X38212431Y-91395459D01*
X38569274Y-90834441D01*
X38572820Y-90829173D01*
X38600346Y-90790455D01*
X38698732Y-90652062D01*
X39008918Y-90215747D01*
X39012750Y-90210640D01*
X39305176Y-89841169D01*
X39479859Y-89620461D01*
X39483916Y-89615598D01*
X39980802Y-89050234D01*
X39985105Y-89045584D01*
X40510443Y-88506540D01*
X40514968Y-88502130D01*
X41067358Y-87990846D01*
X41072127Y-87986656D01*
X41650101Y-87504489D01*
X41655051Y-87500571D01*
X42257105Y-87048779D01*
X42262243Y-87045126D01*
X42886754Y-86624927D01*
X42892068Y-86621547D01*
X43537381Y-86234056D01*
X43542875Y-86230946D01*
X44207271Y-85877193D01*
X44212924Y-85874367D01*
X44894637Y-85555291D01*
X44900449Y-85552751D01*
X45597678Y-85269194D01*
X45603583Y-85266968D01*
X46314520Y-85019666D01*
X46320523Y-85017750D01*
X47043233Y-84807380D01*
X47049365Y-84805765D01*
X47781906Y-84632888D01*
X47788139Y-84631585D01*
X48528601Y-84496648D01*
X48534874Y-84495670D01*
X49281345Y-84399025D01*
X49287630Y-84398376D01*
X50038074Y-84340287D01*
X50044380Y-84339961D01*
X50798408Y-84320540D01*
X50801601Y-84320500D01*
X50865890Y-84320500D01*
X50865892Y-84320500D01*
X50993186Y-84286392D01*
X51107314Y-84220500D01*
X51200500Y-84127314D01*
X51266392Y-84013186D01*
X51300500Y-83885892D01*
X51300500Y-83754108D01*
X51300500Y-83690000D01*
X51320185Y-83622961D01*
X51372989Y-83577206D01*
X51424500Y-83566000D01*
X59377386Y-83566000D01*
X59444425Y-83585685D01*
G37*
%TD.AperFunction*%
%TD*%
%TA.AperFunction,Conductor*%
%TO.N,GND*%
G36*
X187459500Y-128915500D02*
G01*
X187439815Y-128982539D01*
X187387011Y-129028294D01*
X187335500Y-129039500D01*
X60830000Y-129039500D01*
X60762961Y-129019815D01*
X60717206Y-128967011D01*
X60706000Y-128915500D01*
X60706000Y-119887998D01*
X70322532Y-119887998D01*
X70322532Y-119888001D01*
X70342364Y-120114686D01*
X70342366Y-120114697D01*
X70401258Y-120334488D01*
X70401261Y-120334497D01*
X70497431Y-120540732D01*
X70497432Y-120540734D01*
X70627954Y-120727141D01*
X70788858Y-120888045D01*
X70788861Y-120888047D01*
X70975266Y-121018568D01*
X71181504Y-121114739D01*
X71401308Y-121173635D01*
X71563230Y-121187801D01*
X71627998Y-121193468D01*
X71628000Y-121193468D01*
X71628002Y-121193468D01*
X71684807Y-121188498D01*
X71854692Y-121173635D01*
X72074496Y-121114739D01*
X72280734Y-121018568D01*
X72467139Y-120888047D01*
X72628047Y-120727139D01*
X72758568Y-120540734D01*
X72785618Y-120482724D01*
X72831790Y-120430285D01*
X72898983Y-120411133D01*
X72965865Y-120431348D01*
X73010382Y-120482725D01*
X73037429Y-120540728D01*
X73037432Y-120540734D01*
X73167954Y-120727141D01*
X73328858Y-120888045D01*
X73328861Y-120888047D01*
X73515266Y-121018568D01*
X73721504Y-121114739D01*
X73941308Y-121173635D01*
X74103230Y-121187801D01*
X74167998Y-121193468D01*
X74168000Y-121193468D01*
X74168002Y-121193468D01*
X74224807Y-121188498D01*
X74394692Y-121173635D01*
X74614496Y-121114739D01*
X74820734Y-121018568D01*
X75007139Y-120888047D01*
X75168047Y-120727139D01*
X75298568Y-120540734D01*
X75325618Y-120482724D01*
X75371790Y-120430285D01*
X75438983Y-120411133D01*
X75505865Y-120431348D01*
X75550382Y-120482725D01*
X75577429Y-120540728D01*
X75577432Y-120540734D01*
X75707954Y-120727141D01*
X75868858Y-120888045D01*
X75868861Y-120888047D01*
X76055266Y-121018568D01*
X76261504Y-121114739D01*
X76481308Y-121173635D01*
X76643230Y-121187801D01*
X76707998Y-121193468D01*
X76708000Y-121193468D01*
X76708002Y-121193468D01*
X76764807Y-121188498D01*
X76934692Y-121173635D01*
X77154496Y-121114739D01*
X77360734Y-121018568D01*
X77547139Y-120888047D01*
X77708047Y-120727139D01*
X77838568Y-120540734D01*
X77865618Y-120482724D01*
X77911790Y-120430285D01*
X77978983Y-120411133D01*
X78045865Y-120431348D01*
X78090382Y-120482725D01*
X78117429Y-120540728D01*
X78117432Y-120540734D01*
X78247954Y-120727141D01*
X78408858Y-120888045D01*
X78408861Y-120888047D01*
X78595266Y-121018568D01*
X78801504Y-121114739D01*
X79021308Y-121173635D01*
X79183230Y-121187801D01*
X79247998Y-121193468D01*
X79248000Y-121193468D01*
X79248002Y-121193468D01*
X79304807Y-121188498D01*
X79474692Y-121173635D01*
X79694496Y-121114739D01*
X79900734Y-121018568D01*
X80087139Y-120888047D01*
X80248047Y-120727139D01*
X80378568Y-120540734D01*
X80405618Y-120482724D01*
X80451790Y-120430285D01*
X80518983Y-120411133D01*
X80585865Y-120431348D01*
X80630382Y-120482725D01*
X80657429Y-120540728D01*
X80657432Y-120540734D01*
X80787954Y-120727141D01*
X80948858Y-120888045D01*
X80948861Y-120888047D01*
X81135266Y-121018568D01*
X81341504Y-121114739D01*
X81561308Y-121173635D01*
X81723230Y-121187801D01*
X81787998Y-121193468D01*
X81788000Y-121193468D01*
X81788002Y-121193468D01*
X81844807Y-121188498D01*
X82014692Y-121173635D01*
X82234496Y-121114739D01*
X82440734Y-121018568D01*
X82627139Y-120888047D01*
X82788047Y-120727139D01*
X82918568Y-120540734D01*
X82945618Y-120482724D01*
X82991790Y-120430285D01*
X83058983Y-120411133D01*
X83125865Y-120431348D01*
X83170382Y-120482725D01*
X83197429Y-120540728D01*
X83197432Y-120540734D01*
X83327954Y-120727141D01*
X83488858Y-120888045D01*
X83488861Y-120888047D01*
X83675266Y-121018568D01*
X83881504Y-121114739D01*
X84101308Y-121173635D01*
X84263230Y-121187801D01*
X84327998Y-121193468D01*
X84328000Y-121193468D01*
X84328002Y-121193468D01*
X84384807Y-121188498D01*
X84554692Y-121173635D01*
X84774496Y-121114739D01*
X84980734Y-121018568D01*
X85167139Y-120888047D01*
X85328047Y-120727139D01*
X85458568Y-120540734D01*
X85485618Y-120482724D01*
X85531790Y-120430285D01*
X85598983Y-120411133D01*
X85665865Y-120431348D01*
X85710382Y-120482725D01*
X85737429Y-120540728D01*
X85737432Y-120540734D01*
X85867954Y-120727141D01*
X86028858Y-120888045D01*
X86028861Y-120888047D01*
X86215266Y-121018568D01*
X86421504Y-121114739D01*
X86641308Y-121173635D01*
X86803230Y-121187801D01*
X86867998Y-121193468D01*
X86868000Y-121193468D01*
X86868002Y-121193468D01*
X86924807Y-121188498D01*
X87094692Y-121173635D01*
X87314496Y-121114739D01*
X87520734Y-121018568D01*
X87707139Y-120888047D01*
X87868047Y-120727139D01*
X87998568Y-120540734D01*
X88025618Y-120482724D01*
X88071790Y-120430285D01*
X88138983Y-120411133D01*
X88205865Y-120431348D01*
X88250382Y-120482725D01*
X88277429Y-120540728D01*
X88277432Y-120540734D01*
X88407954Y-120727141D01*
X88568858Y-120888045D01*
X88568861Y-120888047D01*
X88755266Y-121018568D01*
X88961504Y-121114739D01*
X89181308Y-121173635D01*
X89343230Y-121187801D01*
X89407998Y-121193468D01*
X89408000Y-121193468D01*
X89408002Y-121193468D01*
X89464807Y-121188498D01*
X89634692Y-121173635D01*
X89854496Y-121114739D01*
X90060734Y-121018568D01*
X90247139Y-120888047D01*
X90408047Y-120727139D01*
X90538568Y-120540734D01*
X90565895Y-120482129D01*
X90612064Y-120429695D01*
X90679257Y-120410542D01*
X90746139Y-120430757D01*
X90790657Y-120482133D01*
X90817865Y-120540482D01*
X90948342Y-120726820D01*
X91109179Y-120887657D01*
X91295517Y-121018134D01*
X91501673Y-121114265D01*
X91501682Y-121114269D01*
X91697999Y-121166872D01*
X91698000Y-121166871D01*
X91698000Y-120203686D01*
X91702394Y-120208080D01*
X91793606Y-120260741D01*
X91895339Y-120288000D01*
X92000661Y-120288000D01*
X92102394Y-120260741D01*
X92193606Y-120208080D01*
X92198000Y-120203686D01*
X92198000Y-121166872D01*
X92394317Y-121114269D01*
X92394326Y-121114265D01*
X92600482Y-121018134D01*
X92786820Y-120887657D01*
X92947658Y-120726819D01*
X92965190Y-120701781D01*
X93019766Y-120658155D01*
X93089264Y-120650961D01*
X93151619Y-120682482D01*
X93187034Y-120742712D01*
X93190055Y-120759647D01*
X93193907Y-120795480D01*
X93244202Y-120930328D01*
X93244206Y-120930335D01*
X93330452Y-121045544D01*
X93330455Y-121045547D01*
X93445664Y-121131793D01*
X93445671Y-121131797D01*
X93580517Y-121182091D01*
X93580516Y-121182091D01*
X93587444Y-121182835D01*
X93640127Y-121188500D01*
X95335872Y-121188499D01*
X95395483Y-121182091D01*
X95530331Y-121131796D01*
X95645546Y-121045546D01*
X95731796Y-120930331D01*
X95782091Y-120795483D01*
X95788500Y-120735873D01*
X95788499Y-119040128D01*
X95782091Y-118980517D01*
X95762981Y-118929281D01*
X95731797Y-118845671D01*
X95731793Y-118845664D01*
X95645547Y-118730455D01*
X95645544Y-118730452D01*
X95530335Y-118644206D01*
X95530328Y-118644202D01*
X95395482Y-118593908D01*
X95395483Y-118593908D01*
X95335883Y-118587501D01*
X95335881Y-118587500D01*
X95335873Y-118587500D01*
X95335864Y-118587500D01*
X93640129Y-118587500D01*
X93640123Y-118587501D01*
X93580516Y-118593908D01*
X93445671Y-118644202D01*
X93445664Y-118644206D01*
X93330455Y-118730452D01*
X93330452Y-118730455D01*
X93244206Y-118845664D01*
X93244202Y-118845671D01*
X93193908Y-118980517D01*
X93190056Y-119016352D01*
X93163318Y-119080903D01*
X93105926Y-119120752D01*
X93036101Y-119123245D01*
X92976012Y-119087593D01*
X92965192Y-119074221D01*
X92947657Y-119049179D01*
X92786820Y-118888342D01*
X92600482Y-118757865D01*
X92394328Y-118661734D01*
X92198000Y-118609127D01*
X92198000Y-119572314D01*
X92193606Y-119567920D01*
X92102394Y-119515259D01*
X92000661Y-119488000D01*
X91895339Y-119488000D01*
X91793606Y-119515259D01*
X91702394Y-119567920D01*
X91698000Y-119572314D01*
X91698000Y-118609127D01*
X91501671Y-118661734D01*
X91295517Y-118757865D01*
X91109179Y-118888342D01*
X90948342Y-119049179D01*
X90817867Y-119235515D01*
X90790657Y-119293867D01*
X90744484Y-119346306D01*
X90677290Y-119365457D01*
X90610409Y-119345241D01*
X90565893Y-119293865D01*
X90538570Y-119235271D01*
X90538567Y-119235265D01*
X90408045Y-119048858D01*
X90247141Y-118887954D01*
X90060734Y-118757432D01*
X90060732Y-118757431D01*
X89854497Y-118661261D01*
X89854488Y-118661258D01*
X89634697Y-118602366D01*
X89634693Y-118602365D01*
X89634692Y-118602365D01*
X89634691Y-118602364D01*
X89634686Y-118602364D01*
X89408002Y-118582532D01*
X89407998Y-118582532D01*
X89366996Y-118586119D01*
X89298496Y-118572352D01*
X89248313Y-118523737D01*
X89232380Y-118455708D01*
X89255756Y-118389864D01*
X89268504Y-118374914D01*
X89570647Y-118072772D01*
X89885602Y-117757819D01*
X89946925Y-117724334D01*
X89973283Y-117721500D01*
X95700719Y-117721500D01*
X95767758Y-117741185D01*
X95788400Y-117757819D01*
X96872181Y-118841600D01*
X96905666Y-118902923D01*
X96908500Y-118929281D01*
X96908500Y-121608718D01*
X96888815Y-121675757D01*
X96872181Y-121696399D01*
X96168137Y-122400443D01*
X96106814Y-122433928D01*
X96068303Y-122436165D01*
X96012000Y-122430620D01*
X95814300Y-122450091D01*
X95624191Y-122507760D01*
X95449001Y-122601401D01*
X95448994Y-122601405D01*
X95295431Y-122727431D01*
X95169405Y-122880994D01*
X95169401Y-122881001D01*
X95075760Y-123056191D01*
X95018091Y-123246300D01*
X94998620Y-123444000D01*
X95018091Y-123641699D01*
X95075760Y-123831808D01*
X95169401Y-124006998D01*
X95169405Y-124007005D01*
X95295431Y-124160568D01*
X95448994Y-124286594D01*
X95449001Y-124286598D01*
X95624191Y-124380239D01*
X95624193Y-124380239D01*
X95624196Y-124380241D01*
X95814299Y-124437908D01*
X95814298Y-124437908D01*
X95832024Y-124439653D01*
X96012000Y-124457380D01*
X96209701Y-124437908D01*
X96399804Y-124380241D01*
X96453899Y-124351327D01*
X96558587Y-124295370D01*
X96575004Y-124286595D01*
X96728568Y-124160568D01*
X96854595Y-124007004D01*
X96948241Y-123831804D01*
X97005908Y-123641701D01*
X97025380Y-123444000D01*
X97019834Y-123387695D01*
X97032852Y-123319051D01*
X97055553Y-123287864D01*
X98023410Y-122320009D01*
X98092083Y-122217233D01*
X98139385Y-122103035D01*
X98163500Y-121981804D01*
X98163500Y-121858197D01*
X98163500Y-118556197D01*
X98163500Y-118556194D01*
X98139386Y-118434970D01*
X98139385Y-118434969D01*
X98139385Y-118434965D01*
X98105063Y-118352103D01*
X98092086Y-118320773D01*
X98092079Y-118320760D01*
X98023412Y-118217993D01*
X97987538Y-118182119D01*
X97936008Y-118130589D01*
X97222207Y-117416788D01*
X96412013Y-116606593D01*
X96412010Y-116606590D01*
X96375654Y-116582298D01*
X96309238Y-116537920D01*
X96309226Y-116537913D01*
X96275785Y-116524062D01*
X96195035Y-116490614D01*
X96195027Y-116490612D01*
X96073807Y-116466500D01*
X96073803Y-116466500D01*
X89469803Y-116466500D01*
X89346197Y-116466500D01*
X89346195Y-116466500D01*
X89224970Y-116490613D01*
X89224960Y-116490616D01*
X89110773Y-116537913D01*
X89110760Y-116537920D01*
X89007992Y-116606588D01*
X89007988Y-116606591D01*
X88920591Y-116693988D01*
X88920588Y-116693992D01*
X88851920Y-116796760D01*
X88851913Y-116796773D01*
X88804616Y-116910960D01*
X88804613Y-116910970D01*
X88780500Y-117032194D01*
X88780500Y-117036718D01*
X88760815Y-117103757D01*
X88744181Y-117124399D01*
X87280590Y-118587989D01*
X87219267Y-118621474D01*
X87160816Y-118620083D01*
X87130930Y-118612075D01*
X87094694Y-118602365D01*
X87094686Y-118602364D01*
X86868002Y-118582532D01*
X86867998Y-118582532D01*
X86641313Y-118602364D01*
X86641302Y-118602366D01*
X86421511Y-118661258D01*
X86421502Y-118661261D01*
X86215267Y-118757431D01*
X86215265Y-118757432D01*
X86028858Y-118887954D01*
X85867954Y-119048858D01*
X85737432Y-119235265D01*
X85737431Y-119235267D01*
X85710382Y-119293275D01*
X85664209Y-119345714D01*
X85597016Y-119364866D01*
X85530135Y-119344650D01*
X85485618Y-119293275D01*
X85458568Y-119235267D01*
X85458567Y-119235265D01*
X85328045Y-119048858D01*
X85167141Y-118887954D01*
X84980734Y-118757432D01*
X84980732Y-118757431D01*
X84774497Y-118661261D01*
X84774488Y-118661258D01*
X84554697Y-118602366D01*
X84554693Y-118602365D01*
X84554692Y-118602365D01*
X84554691Y-118602364D01*
X84554686Y-118602364D01*
X84328002Y-118582532D01*
X84327998Y-118582532D01*
X84101313Y-118602364D01*
X84101302Y-118602366D01*
X83881511Y-118661258D01*
X83881502Y-118661261D01*
X83675267Y-118757431D01*
X83675265Y-118757432D01*
X83488858Y-118887954D01*
X83327954Y-119048858D01*
X83197432Y-119235265D01*
X83197431Y-119235267D01*
X83170382Y-119293275D01*
X83124209Y-119345714D01*
X83057016Y-119364866D01*
X82990135Y-119344650D01*
X82945618Y-119293275D01*
X82918568Y-119235267D01*
X82918567Y-119235265D01*
X82788045Y-119048858D01*
X82627141Y-118887954D01*
X82468377Y-118776787D01*
X82424752Y-118722210D01*
X82415500Y-118675212D01*
X82415500Y-115373281D01*
X82435185Y-115306242D01*
X82451819Y-115285600D01*
X92933600Y-104803819D01*
X92994923Y-104770334D01*
X93021281Y-104767500D01*
X96462719Y-104767500D01*
X96529758Y-104787185D01*
X96550400Y-104803819D01*
X97137925Y-105391344D01*
X97171410Y-105452667D01*
X97173715Y-105490466D01*
X97157635Y-105663999D01*
X97157635Y-105664000D01*
X97177051Y-105873537D01*
X97177051Y-105873539D01*
X97177052Y-105873542D01*
X97234641Y-106075947D01*
X97234642Y-106075950D01*
X97328442Y-106264325D01*
X97455261Y-106432260D01*
X97610776Y-106574030D01*
X97610778Y-106574032D01*
X97789692Y-106684811D01*
X97789698Y-106684814D01*
X97831268Y-106700918D01*
X97985924Y-106760832D01*
X98192780Y-106799500D01*
X98192782Y-106799500D01*
X98403218Y-106799500D01*
X98403220Y-106799500D01*
X98610076Y-106760832D01*
X98806304Y-106684813D01*
X98985223Y-106574031D01*
X98985226Y-106574028D01*
X98989797Y-106570577D01*
X98990523Y-106571539D01*
X99047806Y-106543612D01*
X99117194Y-106551807D01*
X99168795Y-106592887D01*
X99169093Y-106593297D01*
X99169133Y-106593408D01*
X99169160Y-106593389D01*
X99231886Y-106679724D01*
X99231891Y-106679730D01*
X101440980Y-108888819D01*
X101474465Y-108950142D01*
X101469481Y-109019834D01*
X101427609Y-109075767D01*
X101362145Y-109100184D01*
X101353299Y-109100500D01*
X99462778Y-109100500D01*
X99376490Y-109116629D01*
X99373107Y-109117213D01*
X99302101Y-109128460D01*
X99302091Y-109128462D01*
X99294680Y-109130870D01*
X99279167Y-109134822D01*
X99255927Y-109139167D01*
X99255922Y-109139168D01*
X99190369Y-109164563D01*
X99183898Y-109166866D01*
X99132126Y-109183688D01*
X99132110Y-109183695D01*
X99109572Y-109195178D01*
X99098079Y-109200316D01*
X99059705Y-109215183D01*
X99059690Y-109215190D01*
X99014785Y-109242993D01*
X99005810Y-109248047D01*
X98972864Y-109264835D01*
X98938233Y-109289995D01*
X98930629Y-109295101D01*
X98880779Y-109325967D01*
X98854665Y-109349772D01*
X98844021Y-109358446D01*
X98828269Y-109369891D01*
X98785677Y-109412482D01*
X98781538Y-109416435D01*
X98725257Y-109467743D01*
X98714524Y-109481955D01*
X98703274Y-109494885D01*
X98701893Y-109496265D01*
X98701892Y-109496267D01*
X98656224Y-109559122D01*
X98654863Y-109560960D01*
X98598442Y-109635675D01*
X98598440Y-109635678D01*
X98554108Y-109724708D01*
X98553593Y-109725729D01*
X98515692Y-109800114D01*
X98513831Y-109804609D01*
X98513586Y-109804507D01*
X98509975Y-109813339D01*
X98504644Y-109824046D01*
X98504642Y-109824051D01*
X98482216Y-109902866D01*
X98480882Y-109907244D01*
X98460461Y-109970096D01*
X98460457Y-109970112D01*
X98458327Y-109983562D01*
X98455123Y-109998087D01*
X98447052Y-110026458D01*
X98441101Y-110090671D01*
X98440103Y-110098626D01*
X98432500Y-110146629D01*
X98432500Y-110177765D01*
X98431971Y-110189206D01*
X98427635Y-110235999D01*
X98431971Y-110282791D01*
X98432500Y-110294233D01*
X98432500Y-110325370D01*
X98440103Y-110373371D01*
X98441101Y-110381327D01*
X98447052Y-110445541D01*
X98455121Y-110473900D01*
X98458328Y-110488437D01*
X98460460Y-110501898D01*
X98480874Y-110564727D01*
X98482209Y-110569109D01*
X98504642Y-110647951D01*
X98509968Y-110658646D01*
X98513584Y-110667482D01*
X98513828Y-110667382D01*
X98515690Y-110671879D01*
X98515691Y-110671881D01*
X98550464Y-110740128D01*
X98553637Y-110746354D01*
X98554051Y-110747176D01*
X98598442Y-110836325D01*
X98654888Y-110911073D01*
X98656160Y-110912788D01*
X98661827Y-110920588D01*
X98701890Y-110975729D01*
X98703256Y-110977095D01*
X98714529Y-110990049D01*
X98725260Y-111004259D01*
X98781549Y-111055573D01*
X98785669Y-111059508D01*
X98828272Y-111102111D01*
X98828278Y-111102115D01*
X98844023Y-111113556D01*
X98854668Y-111122229D01*
X98880777Y-111146031D01*
X98930641Y-111176905D01*
X98938238Y-111182006D01*
X98972868Y-111207167D01*
X99005813Y-111223953D01*
X99014778Y-111229001D01*
X99059696Y-111256813D01*
X99098089Y-111271686D01*
X99109578Y-111276824D01*
X99132119Y-111288309D01*
X99183905Y-111305134D01*
X99190365Y-111307434D01*
X99255924Y-111332832D01*
X99279176Y-111337178D01*
X99294703Y-111341135D01*
X99302103Y-111343540D01*
X99373165Y-111354794D01*
X99376455Y-111355362D01*
X99462780Y-111371500D01*
X99478634Y-111371500D01*
X100824299Y-111371500D01*
X100891338Y-111391185D01*
X100911980Y-111407819D01*
X101444181Y-111940020D01*
X101477666Y-112001343D01*
X101480500Y-112027701D01*
X101480500Y-112271090D01*
X101460815Y-112338129D01*
X101444181Y-112358771D01*
X100580962Y-113221989D01*
X100563925Y-113158407D01*
X100498099Y-113044393D01*
X100405007Y-112951301D01*
X100290993Y-112885475D01*
X100227408Y-112868437D01*
X101072679Y-112023167D01*
X101072679Y-112023166D01*
X101066719Y-112018076D01*
X101066714Y-112018073D01*
X100846213Y-111882949D01*
X100607285Y-111783982D01*
X100355820Y-111723611D01*
X100098000Y-111703320D01*
X99840179Y-111723611D01*
X99588714Y-111783982D01*
X99349786Y-111882949D01*
X99129289Y-112018070D01*
X99129273Y-112018082D01*
X99123320Y-112023166D01*
X99968591Y-112868437D01*
X99905007Y-112885475D01*
X99790993Y-112951301D01*
X99697901Y-113044393D01*
X99632075Y-113158407D01*
X99615037Y-113221990D01*
X98769766Y-112376720D01*
X98764682Y-112382673D01*
X98764670Y-112382689D01*
X98629549Y-112603186D01*
X98530582Y-112842114D01*
X98470211Y-113093579D01*
X98449920Y-113351400D01*
X98470211Y-113609220D01*
X98530582Y-113860685D01*
X98629549Y-114099613D01*
X98764673Y-114320114D01*
X98764676Y-114320119D01*
X98769767Y-114326079D01*
X99615037Y-113480809D01*
X99632075Y-113544393D01*
X99697901Y-113658407D01*
X99790993Y-113751499D01*
X99905007Y-113817325D01*
X99968590Y-113834362D01*
X99123319Y-114679632D01*
X99129283Y-114684725D01*
X99349786Y-114819850D01*
X99588714Y-114918817D01*
X99840179Y-114979188D01*
X100098000Y-114999479D01*
X100355820Y-114979188D01*
X100607285Y-114918817D01*
X100846213Y-114819850D01*
X101066713Y-114684726D01*
X101066723Y-114684719D01*
X101072678Y-114679632D01*
X101072678Y-114679631D01*
X100227409Y-113834362D01*
X100290993Y-113817325D01*
X100405007Y-113751499D01*
X100498099Y-113658407D01*
X100563925Y-113544393D01*
X100580962Y-113480809D01*
X101444181Y-114344028D01*
X101477666Y-114405351D01*
X101480500Y-114431709D01*
X101480500Y-116675370D01*
X101499728Y-116796773D01*
X101508459Y-116851897D01*
X101532736Y-116926611D01*
X101533631Y-116929366D01*
X101563692Y-117021885D01*
X101644833Y-117181132D01*
X101703911Y-117262445D01*
X101703910Y-117262445D01*
X101749884Y-117325721D01*
X101749891Y-117325730D01*
X103476181Y-119052020D01*
X103509666Y-119113343D01*
X103512500Y-119139701D01*
X103512500Y-124147765D01*
X103511971Y-124159206D01*
X103507635Y-124205999D01*
X103511971Y-124252791D01*
X103512500Y-124264233D01*
X103512500Y-124295370D01*
X103520103Y-124343371D01*
X103521101Y-124351327D01*
X103523781Y-124380241D01*
X103527052Y-124415542D01*
X103527052Y-124415543D01*
X103535121Y-124443900D01*
X103538328Y-124458437D01*
X103540460Y-124471898D01*
X103560874Y-124534727D01*
X103562209Y-124539109D01*
X103584642Y-124617951D01*
X103589968Y-124628646D01*
X103593584Y-124637482D01*
X103593828Y-124637382D01*
X103595690Y-124641877D01*
X103595691Y-124641881D01*
X103633592Y-124716267D01*
X103633637Y-124716354D01*
X103634051Y-124717176D01*
X103678442Y-124806325D01*
X103678443Y-124806326D01*
X103678444Y-124806328D01*
X103686794Y-124817385D01*
X103734867Y-124881044D01*
X103736160Y-124882788D01*
X103781889Y-124945728D01*
X103781890Y-124945729D01*
X103783256Y-124947095D01*
X103794529Y-124960049D01*
X103805260Y-124974259D01*
X103861549Y-125025573D01*
X103865669Y-125029508D01*
X103908272Y-125072111D01*
X103908278Y-125072115D01*
X103924023Y-125083556D01*
X103934668Y-125092229D01*
X103960777Y-125116031D01*
X104010638Y-125146903D01*
X104010641Y-125146905D01*
X104018238Y-125152006D01*
X104052868Y-125177167D01*
X104085813Y-125193953D01*
X104094778Y-125199001D01*
X104139696Y-125226813D01*
X104178089Y-125241686D01*
X104189578Y-125246824D01*
X104212119Y-125258309D01*
X104263905Y-125275134D01*
X104270365Y-125277434D01*
X104285031Y-125283115D01*
X104335924Y-125302832D01*
X104359176Y-125307178D01*
X104374703Y-125311135D01*
X104382103Y-125313540D01*
X104453165Y-125324794D01*
X104456455Y-125325362D01*
X104542780Y-125341500D01*
X104542782Y-125341500D01*
X104753219Y-125341500D01*
X104753220Y-125341500D01*
X104839491Y-125325372D01*
X104842848Y-125324793D01*
X104876911Y-125319397D01*
X104913897Y-125313540D01*
X104921294Y-125311136D01*
X104936830Y-125307177D01*
X104960076Y-125302832D01*
X105025650Y-125277427D01*
X105032084Y-125275137D01*
X105083881Y-125258309D01*
X105106426Y-125246820D01*
X105117920Y-125241682D01*
X105156304Y-125226813D01*
X105201234Y-125198993D01*
X105210169Y-125193961D01*
X105243132Y-125177167D01*
X105277774Y-125151996D01*
X105285342Y-125146914D01*
X105335223Y-125116031D01*
X105361336Y-125092224D01*
X105371983Y-125083550D01*
X105387728Y-125072111D01*
X105430349Y-125029488D01*
X105434447Y-125025575D01*
X105490740Y-124974259D01*
X105501467Y-124960052D01*
X105512752Y-124947086D01*
X105514111Y-124945728D01*
X105559807Y-124882833D01*
X105561132Y-124881044D01*
X105561172Y-124880991D01*
X105617558Y-124806325D01*
X105661982Y-124717105D01*
X105662278Y-124716519D01*
X105700309Y-124641881D01*
X105700311Y-124641873D01*
X105702174Y-124637377D01*
X105702422Y-124637479D01*
X105706037Y-124628633D01*
X105711359Y-124617947D01*
X105733790Y-124539109D01*
X105735111Y-124534769D01*
X105755540Y-124471897D01*
X105757424Y-124459997D01*
X179574652Y-124459997D01*
X179574652Y-124460002D01*
X179594028Y-124817368D01*
X179594029Y-124817385D01*
X179651926Y-125170539D01*
X179651932Y-125170565D01*
X179747672Y-125515392D01*
X179747674Y-125515399D01*
X179880142Y-125847870D01*
X179880151Y-125847888D01*
X180047784Y-126164077D01*
X180047790Y-126164086D01*
X180248634Y-126460309D01*
X180248641Y-126460319D01*
X180480331Y-126733085D01*
X180480332Y-126733086D01*
X180740163Y-126979211D01*
X181025081Y-127195800D01*
X181331747Y-127380315D01*
X181331749Y-127380316D01*
X181331751Y-127380317D01*
X181331755Y-127380319D01*
X181656552Y-127530585D01*
X181656565Y-127530591D01*
X181995726Y-127644868D01*
X182345254Y-127721805D01*
X182701052Y-127760500D01*
X182701058Y-127760500D01*
X183058942Y-127760500D01*
X183058948Y-127760500D01*
X183414746Y-127721805D01*
X183764274Y-127644868D01*
X184103435Y-127530591D01*
X184428253Y-127380315D01*
X184734919Y-127195800D01*
X185019837Y-126979211D01*
X185279668Y-126733086D01*
X185511365Y-126460311D01*
X185712211Y-126164085D01*
X185879853Y-125847880D01*
X186012324Y-125515403D01*
X186108071Y-125170552D01*
X186125891Y-125061848D01*
X186165970Y-124817385D01*
X186165970Y-124817382D01*
X186165972Y-124817371D01*
X186185348Y-124460000D01*
X186165972Y-124102629D01*
X186150295Y-124007005D01*
X186108073Y-123749460D01*
X186108072Y-123749459D01*
X186108071Y-123749448D01*
X186012324Y-123404597D01*
X185879853Y-123072120D01*
X185712211Y-122755915D01*
X185511365Y-122459689D01*
X185511361Y-122459684D01*
X185511358Y-122459680D01*
X185279668Y-122186914D01*
X185191118Y-122103035D01*
X185019837Y-121940789D01*
X185019830Y-121940783D01*
X185019827Y-121940781D01*
X184911189Y-121858197D01*
X184734919Y-121724200D01*
X184428253Y-121539685D01*
X184428252Y-121539684D01*
X184428248Y-121539682D01*
X184428244Y-121539680D01*
X184103447Y-121389414D01*
X184103441Y-121389411D01*
X184103435Y-121389409D01*
X183933854Y-121332270D01*
X183764273Y-121275131D01*
X183414744Y-121198194D01*
X183058949Y-121159500D01*
X183058948Y-121159500D01*
X182701052Y-121159500D01*
X182701050Y-121159500D01*
X182345255Y-121198194D01*
X181995726Y-121275131D01*
X181739970Y-121361306D01*
X181656565Y-121389409D01*
X181656563Y-121389410D01*
X181656552Y-121389414D01*
X181331755Y-121539680D01*
X181331751Y-121539682D01*
X181217013Y-121608718D01*
X181025081Y-121724200D01*
X180936768Y-121791333D01*
X180740172Y-121940781D01*
X180740163Y-121940789D01*
X180480331Y-122186914D01*
X180248641Y-122459680D01*
X180248634Y-122459690D01*
X180047790Y-122755913D01*
X180047784Y-122755922D01*
X179880151Y-123072111D01*
X179880142Y-123072129D01*
X179747674Y-123404600D01*
X179747672Y-123404607D01*
X179651932Y-123749434D01*
X179651926Y-123749460D01*
X179594029Y-124102614D01*
X179594028Y-124102627D01*
X179594028Y-124102629D01*
X179590887Y-124160568D01*
X179574652Y-124459997D01*
X105757424Y-124459997D01*
X105757671Y-124458437D01*
X105760878Y-124443901D01*
X105768948Y-124415542D01*
X105774898Y-124351322D01*
X105775890Y-124343405D01*
X105783500Y-124295366D01*
X105783500Y-124264233D01*
X105784029Y-124252791D01*
X105788365Y-124205999D01*
X105784029Y-124159206D01*
X105783500Y-124147765D01*
X105783500Y-118528629D01*
X105766025Y-118418302D01*
X105755541Y-118352103D01*
X105701815Y-118186754D01*
X105700754Y-118182993D01*
X105700309Y-118182119D01*
X105619167Y-118022868D01*
X105514111Y-117878272D01*
X105387728Y-117751889D01*
X103787819Y-116151980D01*
X103754334Y-116090657D01*
X103751500Y-116064299D01*
X103751500Y-115562701D01*
X103771185Y-115495662D01*
X103823989Y-115449907D01*
X103893147Y-115439963D01*
X103956703Y-115468988D01*
X103963179Y-115475018D01*
X106194271Y-117706111D01*
X106219353Y-117724334D01*
X106241605Y-117740501D01*
X106338869Y-117811168D01*
X106404719Y-117844719D01*
X106470570Y-117878272D01*
X106498119Y-117892309D01*
X106668103Y-117947541D01*
X106766175Y-117963073D01*
X106844630Y-117975500D01*
X106844634Y-117975500D01*
X109817365Y-117975500D01*
X109817366Y-117975500D01*
X109993897Y-117947540D01*
X109995086Y-117947153D01*
X109996884Y-117946570D01*
X110035204Y-117940500D01*
X110214610Y-117940500D01*
X110214611Y-117940500D01*
X110385701Y-117913402D01*
X110550445Y-117859873D01*
X110704788Y-117781232D01*
X110844928Y-117679414D01*
X110967414Y-117556928D01*
X111069232Y-117416788D01*
X111147873Y-117262445D01*
X111201402Y-117097701D01*
X111228500Y-116926611D01*
X111228500Y-116753389D01*
X133627500Y-116753389D01*
X133627500Y-116926611D01*
X133654598Y-117097701D01*
X133708127Y-117262445D01*
X133786768Y-117416788D01*
X133888586Y-117556928D01*
X134011072Y-117679414D01*
X134151212Y-117781232D01*
X134305555Y-117859873D01*
X134470299Y-117913402D01*
X134641389Y-117940500D01*
X134641390Y-117940500D01*
X135614610Y-117940500D01*
X135614611Y-117940500D01*
X135785701Y-117913402D01*
X135950445Y-117859873D01*
X136104788Y-117781232D01*
X136244928Y-117679414D01*
X136367414Y-117556928D01*
X136469232Y-117416788D01*
X136547873Y-117262445D01*
X136601402Y-117097701D01*
X136628500Y-116926611D01*
X136628500Y-116753389D01*
X136601402Y-116582299D01*
X136547873Y-116417555D01*
X136469232Y-116263212D01*
X136367414Y-116123072D01*
X136244928Y-116000586D01*
X136104788Y-115898768D01*
X135950445Y-115820127D01*
X135785701Y-115766598D01*
X135785699Y-115766597D01*
X135785698Y-115766597D01*
X135654271Y-115745781D01*
X135614611Y-115739500D01*
X134641389Y-115739500D01*
X134601728Y-115745781D01*
X134470302Y-115766597D01*
X134305552Y-115820128D01*
X134151211Y-115898768D01*
X134071256Y-115956859D01*
X134011072Y-116000586D01*
X134011070Y-116000588D01*
X134011069Y-116000588D01*
X133888588Y-116123069D01*
X133888588Y-116123070D01*
X133888586Y-116123072D01*
X133852879Y-116172218D01*
X133786768Y-116263211D01*
X133708128Y-116417552D01*
X133654597Y-116582302D01*
X133627500Y-116753389D01*
X111228500Y-116753389D01*
X111201402Y-116582299D01*
X111147873Y-116417555D01*
X111069232Y-116263212D01*
X110967414Y-116123072D01*
X110844928Y-116000586D01*
X110704788Y-115898768D01*
X110550445Y-115820127D01*
X110385701Y-115766598D01*
X110385699Y-115766597D01*
X110385698Y-115766597D01*
X110254271Y-115745781D01*
X110214611Y-115739500D01*
X110214610Y-115739500D01*
X110035204Y-115739500D01*
X109996884Y-115733430D01*
X109993899Y-115732460D01*
X109876209Y-115713820D01*
X109817366Y-115704500D01*
X109817365Y-115704500D01*
X107455702Y-115704500D01*
X107388663Y-115684815D01*
X107368021Y-115668181D01*
X105913268Y-114213428D01*
X108228000Y-114213428D01*
X108228000Y-114386571D01*
X108255085Y-114557584D01*
X108308591Y-114722257D01*
X108387195Y-114876524D01*
X108488967Y-115016602D01*
X108573406Y-115101041D01*
X109328000Y-114346447D01*
X109328000Y-114352661D01*
X109355259Y-114454394D01*
X109407920Y-114545606D01*
X109482394Y-114620080D01*
X109573606Y-114672741D01*
X109675339Y-114700000D01*
X109681552Y-114700000D01*
X109023787Y-115357762D01*
X109070419Y-115372914D01*
X109241429Y-115400000D01*
X110214571Y-115400000D01*
X110385582Y-115372914D01*
X110385585Y-115372913D01*
X110432211Y-115357763D01*
X110432211Y-115357762D01*
X109774448Y-114700000D01*
X109780661Y-114700000D01*
X109882394Y-114672741D01*
X109973606Y-114620080D01*
X110048080Y-114545606D01*
X110100741Y-114454394D01*
X110128000Y-114352661D01*
X110128000Y-114346448D01*
X110882592Y-115101041D01*
X110882593Y-115101041D01*
X110967033Y-115016601D01*
X111068804Y-114876524D01*
X111147408Y-114722257D01*
X111200914Y-114557584D01*
X111228000Y-114386571D01*
X111228000Y-114213428D01*
X133628000Y-114213428D01*
X133628000Y-114386571D01*
X133655085Y-114557584D01*
X133708591Y-114722257D01*
X133787195Y-114876524D01*
X133888967Y-115016602D01*
X133973406Y-115101041D01*
X134728000Y-114346447D01*
X134728000Y-114352661D01*
X134755259Y-114454394D01*
X134807920Y-114545606D01*
X134882394Y-114620080D01*
X134973606Y-114672741D01*
X135075339Y-114700000D01*
X135081552Y-114700000D01*
X134423787Y-115357762D01*
X134470419Y-115372914D01*
X134641429Y-115400000D01*
X135614571Y-115400000D01*
X135785582Y-115372914D01*
X135785585Y-115372913D01*
X135832211Y-115357763D01*
X135832211Y-115357762D01*
X135174448Y-114700000D01*
X135180661Y-114700000D01*
X135282394Y-114672741D01*
X135373606Y-114620080D01*
X135448080Y-114545606D01*
X135500741Y-114454394D01*
X135528000Y-114352661D01*
X135528000Y-114346448D01*
X136282592Y-115101041D01*
X136282593Y-115101041D01*
X136367033Y-115016601D01*
X136468804Y-114876524D01*
X136547408Y-114722257D01*
X136600914Y-114557584D01*
X136628000Y-114386571D01*
X136628000Y-114213428D01*
X136600914Y-114042415D01*
X136547408Y-113877742D01*
X136468804Y-113723475D01*
X136367032Y-113583397D01*
X136282593Y-113498958D01*
X135528000Y-114253550D01*
X135528000Y-114247339D01*
X135500741Y-114145606D01*
X135448080Y-114054394D01*
X135373606Y-113979920D01*
X135282394Y-113927259D01*
X135180661Y-113900000D01*
X135174446Y-113900000D01*
X135832211Y-113242235D01*
X135785586Y-113227086D01*
X135614571Y-113200000D01*
X134641429Y-113200000D01*
X134470414Y-113227086D01*
X134423788Y-113242235D01*
X134423788Y-113242236D01*
X135081552Y-113900000D01*
X135075339Y-113900000D01*
X134973606Y-113927259D01*
X134882394Y-113979920D01*
X134807920Y-114054394D01*
X134755259Y-114145606D01*
X134728000Y-114247339D01*
X134728000Y-114253552D01*
X133973406Y-113498958D01*
X133888966Y-113583398D01*
X133787198Y-113723471D01*
X133708591Y-113877742D01*
X133655085Y-114042415D01*
X133628000Y-114213428D01*
X111228000Y-114213428D01*
X111200914Y-114042415D01*
X111147408Y-113877742D01*
X111068804Y-113723475D01*
X110967032Y-113583397D01*
X110882593Y-113498958D01*
X110128000Y-114253549D01*
X110128000Y-114247339D01*
X110100741Y-114145606D01*
X110048080Y-114054394D01*
X109973606Y-113979920D01*
X109882394Y-113927259D01*
X109780661Y-113900000D01*
X109774446Y-113900000D01*
X110432211Y-113242235D01*
X110385586Y-113227086D01*
X110214571Y-113200000D01*
X109241429Y-113200000D01*
X109070414Y-113227086D01*
X109023788Y-113242235D01*
X109023788Y-113242236D01*
X109681552Y-113900000D01*
X109675339Y-113900000D01*
X109573606Y-113927259D01*
X109482394Y-113979920D01*
X109407920Y-114054394D01*
X109355259Y-114145606D01*
X109328000Y-114247339D01*
X109328000Y-114253552D01*
X108573406Y-113498958D01*
X108488966Y-113583398D01*
X108387198Y-113723471D01*
X108308591Y-113877742D01*
X108255085Y-114042415D01*
X108228000Y-114213428D01*
X105913268Y-114213428D01*
X105819819Y-114119979D01*
X105786334Y-114058656D01*
X105783500Y-114032298D01*
X105783500Y-111673389D01*
X108227500Y-111673389D01*
X108227500Y-111846610D01*
X108242294Y-111940020D01*
X108254598Y-112017701D01*
X108308127Y-112182445D01*
X108386768Y-112336788D01*
X108488586Y-112476928D01*
X108611072Y-112599414D01*
X108751212Y-112701232D01*
X108905555Y-112779873D01*
X109070299Y-112833402D01*
X109241389Y-112860500D01*
X109241390Y-112860500D01*
X110214610Y-112860500D01*
X110214611Y-112860500D01*
X110385701Y-112833402D01*
X110550445Y-112779873D01*
X110704788Y-112701232D01*
X110844928Y-112599414D01*
X110967414Y-112476928D01*
X111069232Y-112336788D01*
X111147873Y-112182445D01*
X111201402Y-112017701D01*
X111228500Y-111846611D01*
X111228500Y-111673389D01*
X133627500Y-111673389D01*
X133627500Y-111846610D01*
X133642294Y-111940020D01*
X133654598Y-112017701D01*
X133708127Y-112182445D01*
X133786768Y-112336788D01*
X133888586Y-112476928D01*
X134011072Y-112599414D01*
X134151212Y-112701232D01*
X134305555Y-112779873D01*
X134470299Y-112833402D01*
X134641389Y-112860500D01*
X134641390Y-112860500D01*
X135614610Y-112860500D01*
X135614611Y-112860500D01*
X135785701Y-112833402D01*
X135950445Y-112779873D01*
X136104788Y-112701232D01*
X136244928Y-112599414D01*
X136367414Y-112476928D01*
X136469232Y-112336788D01*
X136547873Y-112182445D01*
X136601402Y-112017701D01*
X136628500Y-111846611D01*
X136628500Y-111673389D01*
X136601402Y-111502299D01*
X136547873Y-111337555D01*
X136469232Y-111183212D01*
X136367414Y-111043072D01*
X136244928Y-110920586D01*
X136104788Y-110818768D01*
X135950445Y-110740127D01*
X135785701Y-110686598D01*
X135785699Y-110686597D01*
X135785698Y-110686597D01*
X135654271Y-110665781D01*
X135614611Y-110659500D01*
X134641389Y-110659500D01*
X134601728Y-110665781D01*
X134470302Y-110686597D01*
X134305552Y-110740128D01*
X134151211Y-110818768D01*
X134071256Y-110876859D01*
X134011072Y-110920586D01*
X134011070Y-110920588D01*
X134011069Y-110920588D01*
X133888588Y-111043069D01*
X133888588Y-111043070D01*
X133888586Y-111043072D01*
X133876645Y-111059508D01*
X133786768Y-111183211D01*
X133708128Y-111337552D01*
X133654597Y-111502302D01*
X133627500Y-111673389D01*
X111228500Y-111673389D01*
X111201402Y-111502299D01*
X111147873Y-111337555D01*
X111069232Y-111183212D01*
X110967414Y-111043072D01*
X110844928Y-110920586D01*
X110704788Y-110818768D01*
X110550445Y-110740127D01*
X110385701Y-110686598D01*
X110385699Y-110686597D01*
X110385698Y-110686597D01*
X110254271Y-110665781D01*
X110214611Y-110659500D01*
X109241389Y-110659500D01*
X109201728Y-110665781D01*
X109070302Y-110686597D01*
X108905552Y-110740128D01*
X108751211Y-110818768D01*
X108671256Y-110876859D01*
X108611072Y-110920586D01*
X108611070Y-110920588D01*
X108611069Y-110920588D01*
X108488588Y-111043069D01*
X108488588Y-111043070D01*
X108488586Y-111043072D01*
X108476645Y-111059508D01*
X108386768Y-111183211D01*
X108308128Y-111337552D01*
X108254597Y-111502302D01*
X108227500Y-111673389D01*
X105783500Y-111673389D01*
X105783500Y-110400634D01*
X105770808Y-110320501D01*
X105770808Y-110320497D01*
X105764836Y-110282791D01*
X105755541Y-110224103D01*
X105713481Y-110094657D01*
X105701815Y-110058754D01*
X105700754Y-110054993D01*
X105700309Y-110054119D01*
X105619167Y-109894868D01*
X105514111Y-109750272D01*
X105387728Y-109623889D01*
X104897228Y-109133389D01*
X108227500Y-109133389D01*
X108227500Y-109306610D01*
X108253596Y-109471379D01*
X108254598Y-109477701D01*
X108308127Y-109642445D01*
X108386768Y-109796788D01*
X108488586Y-109936928D01*
X108611072Y-110059414D01*
X108751212Y-110161232D01*
X108905555Y-110239873D01*
X109070299Y-110293402D01*
X109241389Y-110320500D01*
X109241390Y-110320500D01*
X110214610Y-110320500D01*
X110214611Y-110320500D01*
X110385701Y-110293402D01*
X110550445Y-110239873D01*
X110704788Y-110161232D01*
X110844928Y-110059414D01*
X110967414Y-109936928D01*
X111069232Y-109796788D01*
X111147873Y-109642445D01*
X111201402Y-109477701D01*
X111228500Y-109306611D01*
X111228500Y-109133389D01*
X133627500Y-109133389D01*
X133627500Y-109306610D01*
X133653596Y-109471379D01*
X133654598Y-109477701D01*
X133708127Y-109642445D01*
X133786768Y-109796788D01*
X133888586Y-109936928D01*
X134011072Y-110059414D01*
X134151212Y-110161232D01*
X134305555Y-110239873D01*
X134470299Y-110293402D01*
X134641389Y-110320500D01*
X134641390Y-110320500D01*
X135614610Y-110320500D01*
X135614611Y-110320500D01*
X135785701Y-110293402D01*
X135950445Y-110239873D01*
X136104788Y-110161232D01*
X136244928Y-110059414D01*
X136367414Y-109936928D01*
X136469232Y-109796788D01*
X136547873Y-109642445D01*
X136601402Y-109477701D01*
X136628500Y-109306611D01*
X136628500Y-109133389D01*
X136601402Y-108962299D01*
X136547873Y-108797555D01*
X136469232Y-108643212D01*
X136367414Y-108503072D01*
X136244928Y-108380586D01*
X136104788Y-108278768D01*
X135950445Y-108200127D01*
X135785701Y-108146598D01*
X135785699Y-108146597D01*
X135785698Y-108146597D01*
X135654271Y-108125781D01*
X135614611Y-108119500D01*
X134641389Y-108119500D01*
X134601728Y-108125781D01*
X134470302Y-108146597D01*
X134305552Y-108200128D01*
X134151211Y-108278768D01*
X134119427Y-108301861D01*
X134011072Y-108380586D01*
X134011070Y-108380588D01*
X134011069Y-108380588D01*
X133888588Y-108503069D01*
X133888588Y-108503070D01*
X133888586Y-108503072D01*
X133844859Y-108563256D01*
X133786768Y-108643211D01*
X133708128Y-108797552D01*
X133654597Y-108962302D01*
X133627500Y-109133389D01*
X111228500Y-109133389D01*
X111201402Y-108962299D01*
X111147873Y-108797555D01*
X111069232Y-108643212D01*
X110967414Y-108503072D01*
X110844928Y-108380586D01*
X110704788Y-108278768D01*
X110550445Y-108200127D01*
X110385701Y-108146598D01*
X110385699Y-108146597D01*
X110385698Y-108146597D01*
X110254271Y-108125781D01*
X110214611Y-108119500D01*
X109241389Y-108119500D01*
X109201728Y-108125781D01*
X109070302Y-108146597D01*
X108905552Y-108200128D01*
X108751211Y-108278768D01*
X108719427Y-108301861D01*
X108611072Y-108380586D01*
X108611070Y-108380588D01*
X108611069Y-108380588D01*
X108488588Y-108503069D01*
X108488588Y-108503070D01*
X108488586Y-108503072D01*
X108444859Y-108563256D01*
X108386768Y-108643211D01*
X108308128Y-108797552D01*
X108254597Y-108962302D01*
X108227500Y-109133389D01*
X104897228Y-109133389D01*
X102357228Y-106593389D01*
X108227500Y-106593389D01*
X108227500Y-106766611D01*
X108254598Y-106937701D01*
X108308127Y-107102445D01*
X108386768Y-107256788D01*
X108488586Y-107396928D01*
X108611072Y-107519414D01*
X108751212Y-107621232D01*
X108905555Y-107699873D01*
X109070299Y-107753402D01*
X109241389Y-107780500D01*
X109241390Y-107780500D01*
X110214610Y-107780500D01*
X110214611Y-107780500D01*
X110385701Y-107753402D01*
X110550445Y-107699873D01*
X110704788Y-107621232D01*
X110844928Y-107519414D01*
X110967414Y-107396928D01*
X111069232Y-107256788D01*
X111147873Y-107102445D01*
X111201402Y-106937701D01*
X111228500Y-106766611D01*
X111228500Y-106593389D01*
X133627500Y-106593389D01*
X133627500Y-106766611D01*
X133654598Y-106937701D01*
X133708127Y-107102445D01*
X133786768Y-107256788D01*
X133888586Y-107396928D01*
X134011072Y-107519414D01*
X134151212Y-107621232D01*
X134305555Y-107699873D01*
X134470299Y-107753402D01*
X134641389Y-107780500D01*
X134641390Y-107780500D01*
X135614610Y-107780500D01*
X135614611Y-107780500D01*
X135785701Y-107753402D01*
X135950445Y-107699873D01*
X136104788Y-107621232D01*
X136244928Y-107519414D01*
X136367414Y-107396928D01*
X136469232Y-107256788D01*
X136547873Y-107102445D01*
X136601402Y-106937701D01*
X136628500Y-106766611D01*
X136628500Y-106593389D01*
X136601402Y-106422299D01*
X136547873Y-106257555D01*
X136469232Y-106103212D01*
X136367414Y-105963072D01*
X136244928Y-105840586D01*
X136104788Y-105738768D01*
X135950445Y-105660127D01*
X135785701Y-105606598D01*
X135785699Y-105606597D01*
X135785698Y-105606597D01*
X135654271Y-105585781D01*
X135614611Y-105579500D01*
X134641389Y-105579500D01*
X134601728Y-105585781D01*
X134470302Y-105606597D01*
X134305552Y-105660128D01*
X134151211Y-105738768D01*
X134096432Y-105778568D01*
X134011072Y-105840586D01*
X134011070Y-105840588D01*
X134011069Y-105840588D01*
X133888588Y-105963069D01*
X133888588Y-105963070D01*
X133888586Y-105963072D01*
X133844859Y-106023256D01*
X133786768Y-106103211D01*
X133708128Y-106257552D01*
X133654597Y-106422302D01*
X133636727Y-106535132D01*
X133627500Y-106593389D01*
X111228500Y-106593389D01*
X111201402Y-106422299D01*
X111147873Y-106257555D01*
X111069232Y-106103212D01*
X110967414Y-105963072D01*
X110844928Y-105840586D01*
X110704788Y-105738768D01*
X110550445Y-105660127D01*
X110385701Y-105606598D01*
X110385699Y-105606597D01*
X110385698Y-105606597D01*
X110254271Y-105585781D01*
X110214611Y-105579500D01*
X109241389Y-105579500D01*
X109201728Y-105585781D01*
X109070302Y-105606597D01*
X108905552Y-105660128D01*
X108751211Y-105738768D01*
X108696432Y-105778568D01*
X108611072Y-105840586D01*
X108611070Y-105840588D01*
X108611069Y-105840588D01*
X108488588Y-105963069D01*
X108488588Y-105963070D01*
X108488586Y-105963072D01*
X108444859Y-106023256D01*
X108386768Y-106103211D01*
X108308128Y-106257552D01*
X108254597Y-106422302D01*
X108236727Y-106535132D01*
X108227500Y-106593389D01*
X102357228Y-106593389D01*
X101269819Y-105505980D01*
X101236334Y-105444657D01*
X101233500Y-105418299D01*
X101233500Y-104053389D01*
X108227500Y-104053389D01*
X108227500Y-104226611D01*
X108254598Y-104397701D01*
X108308127Y-104562445D01*
X108386768Y-104716788D01*
X108488586Y-104856928D01*
X108611072Y-104979414D01*
X108751212Y-105081232D01*
X108905555Y-105159873D01*
X109070299Y-105213402D01*
X109241389Y-105240500D01*
X109241390Y-105240500D01*
X110214610Y-105240500D01*
X110214611Y-105240500D01*
X110385701Y-105213402D01*
X110550445Y-105159873D01*
X110704788Y-105081232D01*
X110844928Y-104979414D01*
X110967414Y-104856928D01*
X111069232Y-104716788D01*
X111147873Y-104562445D01*
X111201402Y-104397701D01*
X111228500Y-104226611D01*
X111228500Y-104053389D01*
X111201402Y-103882299D01*
X111147873Y-103717555D01*
X111069232Y-103563212D01*
X110967414Y-103423072D01*
X110844928Y-103300586D01*
X110704788Y-103198768D01*
X110550445Y-103120127D01*
X110385701Y-103066598D01*
X110385699Y-103066597D01*
X110385698Y-103066597D01*
X110254271Y-103045781D01*
X110214611Y-103039500D01*
X109241389Y-103039500D01*
X109201728Y-103045781D01*
X109070302Y-103066597D01*
X108905552Y-103120128D01*
X108751211Y-103198768D01*
X108696432Y-103238568D01*
X108611072Y-103300586D01*
X108611070Y-103300588D01*
X108611069Y-103300588D01*
X108488588Y-103423069D01*
X108488588Y-103423070D01*
X108488586Y-103423072D01*
X108462778Y-103458594D01*
X108386768Y-103563211D01*
X108308128Y-103717552D01*
X108254597Y-103882302D01*
X108253262Y-103890733D01*
X108227500Y-104053389D01*
X101233500Y-104053389D01*
X101233500Y-101513389D01*
X108227500Y-101513389D01*
X108227500Y-101686611D01*
X108254598Y-101857701D01*
X108308127Y-102022445D01*
X108386768Y-102176788D01*
X108488586Y-102316928D01*
X108611072Y-102439414D01*
X108751212Y-102541232D01*
X108905555Y-102619873D01*
X109070299Y-102673402D01*
X109241389Y-102700500D01*
X109241390Y-102700500D01*
X110214610Y-102700500D01*
X110214611Y-102700500D01*
X110385701Y-102673402D01*
X110550445Y-102619873D01*
X110704788Y-102541232D01*
X110844928Y-102439414D01*
X110967414Y-102316928D01*
X111069232Y-102176788D01*
X111147873Y-102022445D01*
X111201402Y-101857701D01*
X111228500Y-101686611D01*
X111228500Y-101513389D01*
X111201402Y-101342299D01*
X111147873Y-101177555D01*
X111069232Y-101023212D01*
X110967414Y-100883072D01*
X110844928Y-100760586D01*
X110704788Y-100658768D01*
X110550445Y-100580127D01*
X110385701Y-100526598D01*
X110385699Y-100526597D01*
X110385698Y-100526597D01*
X110254271Y-100505781D01*
X110214611Y-100499500D01*
X109241389Y-100499500D01*
X109201728Y-100505781D01*
X109070302Y-100526597D01*
X108905552Y-100580128D01*
X108751211Y-100658768D01*
X108696432Y-100698568D01*
X108611072Y-100760586D01*
X108611070Y-100760588D01*
X108611069Y-100760588D01*
X108488588Y-100883069D01*
X108488588Y-100883070D01*
X108488586Y-100883072D01*
X108460751Y-100921384D01*
X108386768Y-101023211D01*
X108308128Y-101177552D01*
X108254597Y-101342302D01*
X108236706Y-101455266D01*
X108227500Y-101513389D01*
X101233500Y-101513389D01*
X101233500Y-100798257D01*
X101253185Y-100731218D01*
X101263210Y-100717725D01*
X101263721Y-100717126D01*
X101263724Y-100717124D01*
X101431731Y-100520412D01*
X101566897Y-100299841D01*
X101665895Y-100060840D01*
X101726285Y-99809295D01*
X101746582Y-99551400D01*
X101726285Y-99293505D01*
X101665895Y-99041960D01*
X101637492Y-98973389D01*
X108227500Y-98973389D01*
X108227500Y-99146610D01*
X108253261Y-99309264D01*
X108254598Y-99317701D01*
X108292826Y-99435355D01*
X108308128Y-99482447D01*
X108360548Y-99585327D01*
X108386768Y-99636788D01*
X108488586Y-99776928D01*
X108611072Y-99899414D01*
X108751212Y-100001232D01*
X108905555Y-100079873D01*
X109070299Y-100133402D01*
X109241389Y-100160500D01*
X109241390Y-100160500D01*
X110214610Y-100160500D01*
X110214611Y-100160500D01*
X110385701Y-100133402D01*
X110550445Y-100079873D01*
X110704788Y-100001232D01*
X110844928Y-99899414D01*
X110967414Y-99776928D01*
X111069232Y-99636788D01*
X111147873Y-99482445D01*
X111201402Y-99317701D01*
X111228500Y-99146611D01*
X111228500Y-98973389D01*
X111201402Y-98802299D01*
X111147873Y-98637555D01*
X111069232Y-98483212D01*
X110967414Y-98343072D01*
X110844928Y-98220586D01*
X110704788Y-98118768D01*
X110550445Y-98040127D01*
X110385701Y-97986598D01*
X110385699Y-97986597D01*
X110385698Y-97986597D01*
X110254271Y-97965781D01*
X110214611Y-97959500D01*
X109241389Y-97959500D01*
X109201728Y-97965781D01*
X109070302Y-97986597D01*
X108905552Y-98040128D01*
X108751211Y-98118768D01*
X108696432Y-98158568D01*
X108611072Y-98220586D01*
X108611070Y-98220588D01*
X108611069Y-98220588D01*
X108488588Y-98343069D01*
X108488588Y-98343070D01*
X108488586Y-98343072D01*
X108457632Y-98385676D01*
X108386768Y-98483211D01*
X108308128Y-98637552D01*
X108254597Y-98802302D01*
X108227500Y-98973389D01*
X101637492Y-98973389D01*
X101566897Y-98802959D01*
X101566897Y-98802958D01*
X101447666Y-98608391D01*
X101431731Y-98582388D01*
X101431730Y-98582387D01*
X101431729Y-98582385D01*
X101362220Y-98501001D01*
X101263724Y-98385676D01*
X101110416Y-98254739D01*
X101067014Y-98217670D01*
X101067009Y-98217667D01*
X100846441Y-98082502D01*
X100614907Y-97986598D01*
X100607440Y-97983505D01*
X100607436Y-97983504D01*
X100607430Y-97983502D01*
X100355898Y-97923115D01*
X100098000Y-97902818D01*
X99840101Y-97923115D01*
X99588569Y-97983502D01*
X99588557Y-97983506D01*
X99349558Y-98082502D01*
X99128990Y-98217667D01*
X99128985Y-98217670D01*
X98932276Y-98385676D01*
X98764270Y-98582385D01*
X98764267Y-98582390D01*
X98629102Y-98802958D01*
X98530106Y-99041957D01*
X98530102Y-99041969D01*
X98469715Y-99293501D01*
X98449418Y-99551400D01*
X98469715Y-99809298D01*
X98530102Y-100060830D01*
X98530106Y-100060842D01*
X98629102Y-100299841D01*
X98764267Y-100520409D01*
X98764270Y-100520414D01*
X98778448Y-100537014D01*
X98932276Y-100717124D01*
X98932278Y-100717126D01*
X98932790Y-100717725D01*
X98961361Y-100781487D01*
X98962500Y-100798257D01*
X98962500Y-104522679D01*
X98942815Y-104589718D01*
X98890011Y-104635473D01*
X98820853Y-104645417D01*
X98793706Y-104638306D01*
X98665772Y-104588745D01*
X98610076Y-104567168D01*
X98403220Y-104528500D01*
X98192780Y-104528500D01*
X98192778Y-104528500D01*
X98136664Y-104538989D01*
X98067149Y-104531957D01*
X98026200Y-104504781D01*
X97174010Y-103652591D01*
X97174005Y-103652587D01*
X97167066Y-103647950D01*
X97167066Y-103647949D01*
X97103464Y-103605452D01*
X97071233Y-103583917D01*
X97071230Y-103583915D01*
X97071229Y-103583915D01*
X97027894Y-103565965D01*
X96957035Y-103536614D01*
X96957027Y-103536612D01*
X96835807Y-103512500D01*
X96835803Y-103512500D01*
X92771804Y-103512500D01*
X92648197Y-103512500D01*
X92648192Y-103512500D01*
X92526973Y-103536612D01*
X92526961Y-103536615D01*
X92489238Y-103552240D01*
X92489239Y-103552241D01*
X92412768Y-103583916D01*
X92316933Y-103647949D01*
X92316934Y-103647950D01*
X92309994Y-103652587D01*
X92309989Y-103652591D01*
X86845952Y-109116629D01*
X81387992Y-114574589D01*
X81346959Y-114615622D01*
X81300586Y-114661994D01*
X81300585Y-114661996D01*
X81231233Y-114765789D01*
X81229586Y-114770393D01*
X81184614Y-114878964D01*
X81184612Y-114878972D01*
X81162551Y-114989875D01*
X81162552Y-114989876D01*
X81160500Y-115000191D01*
X81160500Y-118675212D01*
X81140815Y-118742251D01*
X81107623Y-118776787D01*
X80948858Y-118887954D01*
X80787954Y-119048858D01*
X80657432Y-119235265D01*
X80657431Y-119235267D01*
X80630382Y-119293275D01*
X80584209Y-119345714D01*
X80517016Y-119364866D01*
X80450135Y-119344650D01*
X80405618Y-119293275D01*
X80378568Y-119235267D01*
X80378567Y-119235265D01*
X80248045Y-119048858D01*
X80087141Y-118887954D01*
X79900734Y-118757432D01*
X79900732Y-118757431D01*
X79694497Y-118661261D01*
X79694488Y-118661258D01*
X79474697Y-118602366D01*
X79474693Y-118602365D01*
X79474692Y-118602365D01*
X79474691Y-118602364D01*
X79474686Y-118602364D01*
X79248002Y-118582532D01*
X79247998Y-118582532D01*
X79021313Y-118602364D01*
X79021302Y-118602366D01*
X78801511Y-118661258D01*
X78801502Y-118661261D01*
X78595267Y-118757431D01*
X78595265Y-118757432D01*
X78408858Y-118887954D01*
X78247954Y-119048858D01*
X78117432Y-119235265D01*
X78117431Y-119235267D01*
X78090382Y-119293275D01*
X78044209Y-119345714D01*
X77977016Y-119364866D01*
X77910135Y-119344650D01*
X77865618Y-119293275D01*
X77838568Y-119235267D01*
X77838567Y-119235265D01*
X77708045Y-119048858D01*
X77547141Y-118887954D01*
X77360734Y-118757432D01*
X77360732Y-118757431D01*
X77154497Y-118661261D01*
X77154488Y-118661258D01*
X76934697Y-118602366D01*
X76934693Y-118602365D01*
X76934692Y-118602365D01*
X76934691Y-118602364D01*
X76934686Y-118602364D01*
X76708002Y-118582532D01*
X76707998Y-118582532D01*
X76481313Y-118602364D01*
X76481302Y-118602366D01*
X76261511Y-118661258D01*
X76261502Y-118661261D01*
X76055267Y-118757431D01*
X76055265Y-118757432D01*
X75868858Y-118887954D01*
X75707954Y-119048858D01*
X75577432Y-119235265D01*
X75577431Y-119235267D01*
X75550382Y-119293275D01*
X75504209Y-119345714D01*
X75437016Y-119364866D01*
X75370135Y-119344650D01*
X75325618Y-119293275D01*
X75298568Y-119235267D01*
X75298567Y-119235265D01*
X75168045Y-119048858D01*
X75007141Y-118887954D01*
X74820734Y-118757432D01*
X74820732Y-118757431D01*
X74614497Y-118661261D01*
X74614488Y-118661258D01*
X74394697Y-118602366D01*
X74394693Y-118602365D01*
X74394692Y-118602365D01*
X74394691Y-118602364D01*
X74394686Y-118602364D01*
X74168002Y-118582532D01*
X74167998Y-118582532D01*
X73941313Y-118602364D01*
X73941302Y-118602366D01*
X73721511Y-118661258D01*
X73721502Y-118661261D01*
X73515267Y-118757431D01*
X73515265Y-118757432D01*
X73328858Y-118887954D01*
X73167954Y-119048858D01*
X73037432Y-119235265D01*
X73037431Y-119235267D01*
X73010382Y-119293275D01*
X72964209Y-119345714D01*
X72897016Y-119364866D01*
X72830135Y-119344650D01*
X72785618Y-119293275D01*
X72758568Y-119235267D01*
X72758567Y-119235265D01*
X72628045Y-119048858D01*
X72467141Y-118887954D01*
X72280734Y-118757432D01*
X72280732Y-118757431D01*
X72074497Y-118661261D01*
X72074488Y-118661258D01*
X71854697Y-118602366D01*
X71854693Y-118602365D01*
X71854692Y-118602365D01*
X71854691Y-118602364D01*
X71854686Y-118602364D01*
X71628002Y-118582532D01*
X71627998Y-118582532D01*
X71401313Y-118602364D01*
X71401302Y-118602366D01*
X71181511Y-118661258D01*
X71181502Y-118661261D01*
X70975267Y-118757431D01*
X70975265Y-118757432D01*
X70788858Y-118887954D01*
X70627954Y-119048858D01*
X70497432Y-119235265D01*
X70497431Y-119235267D01*
X70401261Y-119441502D01*
X70401258Y-119441511D01*
X70342366Y-119661302D01*
X70342364Y-119661313D01*
X70322532Y-119887998D01*
X60706000Y-119887998D01*
X60706000Y-118170951D01*
X60725685Y-118103912D01*
X60754257Y-118072772D01*
X66874555Y-113351400D01*
X69449920Y-113351400D01*
X69470211Y-113609220D01*
X69530582Y-113860685D01*
X69629549Y-114099613D01*
X69764673Y-114320114D01*
X69764676Y-114320119D01*
X69769767Y-114326079D01*
X70615037Y-113480809D01*
X70632075Y-113544393D01*
X70697901Y-113658407D01*
X70790993Y-113751499D01*
X70905007Y-113817325D01*
X70968590Y-113834362D01*
X70123319Y-114679632D01*
X70129283Y-114684725D01*
X70349786Y-114819850D01*
X70588714Y-114918817D01*
X70840179Y-114979188D01*
X71098000Y-114999479D01*
X71355820Y-114979188D01*
X71607285Y-114918817D01*
X71846213Y-114819850D01*
X72066713Y-114684726D01*
X72066723Y-114684719D01*
X72072678Y-114679632D01*
X72072678Y-114679631D01*
X71227409Y-113834362D01*
X71290993Y-113817325D01*
X71405007Y-113751499D01*
X71498099Y-113658407D01*
X71563925Y-113544393D01*
X71580962Y-113480809D01*
X72426231Y-114326078D01*
X72426232Y-114326078D01*
X72431319Y-114320123D01*
X72431326Y-114320113D01*
X72566450Y-114099613D01*
X72665417Y-113860685D01*
X72725788Y-113609220D01*
X72746079Y-113351400D01*
X72725788Y-113093579D01*
X72665417Y-112842114D01*
X72566450Y-112603186D01*
X72431325Y-112382683D01*
X72426232Y-112376719D01*
X71580962Y-113221989D01*
X71563925Y-113158407D01*
X71498099Y-113044393D01*
X71405007Y-112951301D01*
X71290993Y-112885475D01*
X71227408Y-112868437D01*
X72072679Y-112023167D01*
X72072679Y-112023166D01*
X72066719Y-112018076D01*
X72066714Y-112018073D01*
X71846213Y-111882949D01*
X71607285Y-111783982D01*
X71355820Y-111723611D01*
X71098000Y-111703320D01*
X70840179Y-111723611D01*
X70588714Y-111783982D01*
X70349786Y-111882949D01*
X70129289Y-112018070D01*
X70129273Y-112018082D01*
X70123320Y-112023166D01*
X70968591Y-112868437D01*
X70905007Y-112885475D01*
X70790993Y-112951301D01*
X70697901Y-113044393D01*
X70632075Y-113158407D01*
X70615037Y-113221990D01*
X69769766Y-112376720D01*
X69764682Y-112382673D01*
X69764670Y-112382689D01*
X69629549Y-112603186D01*
X69530582Y-112842114D01*
X69470211Y-113093579D01*
X69449920Y-113351400D01*
X66874555Y-113351400D01*
X69596000Y-111252000D01*
X69634805Y-108458000D01*
X71630620Y-108458000D01*
X71650091Y-108655699D01*
X71707760Y-108845808D01*
X71801401Y-109020998D01*
X71801405Y-109021005D01*
X71927431Y-109174568D01*
X72080994Y-109300594D01*
X72081001Y-109300598D01*
X72256191Y-109394239D01*
X72256193Y-109394239D01*
X72256196Y-109394241D01*
X72446299Y-109451908D01*
X72446298Y-109451908D01*
X72464024Y-109453653D01*
X72644000Y-109471380D01*
X72841701Y-109451908D01*
X73031804Y-109394241D01*
X73207004Y-109300595D01*
X73360568Y-109174568D01*
X73486595Y-109021004D01*
X73580241Y-108845804D01*
X73637908Y-108655701D01*
X73657380Y-108458000D01*
X73651834Y-108401695D01*
X73664852Y-108333051D01*
X73687553Y-108301864D01*
X78709600Y-103279819D01*
X78770923Y-103246334D01*
X78797281Y-103243500D01*
X81955688Y-103243500D01*
X82022727Y-103263185D01*
X82051542Y-103288836D01*
X82087432Y-103332568D01*
X82240994Y-103458594D01*
X82241001Y-103458598D01*
X82416191Y-103552239D01*
X82416193Y-103552239D01*
X82416196Y-103552241D01*
X82606299Y-103609908D01*
X82606298Y-103609908D01*
X82624024Y-103611653D01*
X82804000Y-103629380D01*
X83001701Y-103609908D01*
X83191804Y-103552241D01*
X83230354Y-103531636D01*
X83281963Y-103504050D01*
X83367004Y-103458595D01*
X83520568Y-103332568D01*
X83646595Y-103179004D01*
X83740241Y-103003804D01*
X83797908Y-102813701D01*
X83817380Y-102616000D01*
X83797908Y-102418299D01*
X83740241Y-102228196D01*
X83740239Y-102228193D01*
X83740239Y-102228191D01*
X83646598Y-102053001D01*
X83646594Y-102052994D01*
X83520568Y-101899431D01*
X83367005Y-101773405D01*
X83366998Y-101773401D01*
X83191808Y-101679760D01*
X83096752Y-101650925D01*
X83001701Y-101622092D01*
X83001699Y-101622091D01*
X83001701Y-101622091D01*
X82804000Y-101602620D01*
X82606300Y-101622091D01*
X82416191Y-101679760D01*
X82241001Y-101773401D01*
X82240994Y-101773405D01*
X82087432Y-101899431D01*
X82051542Y-101943164D01*
X81993796Y-101982499D01*
X81955688Y-101988500D01*
X78424192Y-101988500D01*
X78302973Y-102012611D01*
X78302973Y-102012612D01*
X78302970Y-102012613D01*
X78302966Y-102012614D01*
X78236070Y-102040323D01*
X78236068Y-102040323D01*
X78188770Y-102059915D01*
X78116807Y-102107998D01*
X78116806Y-102108000D01*
X78086791Y-102128055D01*
X78085986Y-102128593D01*
X72800136Y-107414443D01*
X72738813Y-107447928D01*
X72700302Y-107450164D01*
X72644000Y-107444620D01*
X72643999Y-107444620D01*
X72446300Y-107464091D01*
X72256191Y-107521760D01*
X72081001Y-107615401D01*
X72080994Y-107615405D01*
X71927431Y-107741431D01*
X71801405Y-107894994D01*
X71801401Y-107895001D01*
X71707760Y-108070191D01*
X71650091Y-108260300D01*
X71630620Y-108458000D01*
X69634805Y-108458000D01*
X69638739Y-108174771D01*
X69659352Y-108108016D01*
X69675036Y-108088827D01*
X72262495Y-105501368D01*
X72262513Y-105501353D01*
X72431984Y-105331882D01*
X72431989Y-105331877D01*
X72573276Y-105147748D01*
X72579610Y-105136778D01*
X72665387Y-104988205D01*
X72689320Y-104946752D01*
X72778137Y-104732330D01*
X72838206Y-104508149D01*
X72868500Y-104278045D01*
X72868500Y-100302900D01*
X72888185Y-100235861D01*
X72940989Y-100190106D01*
X72992500Y-100178900D01*
X73738404Y-100178900D01*
X73738405Y-100178899D01*
X73859635Y-100154786D01*
X73940384Y-100121337D01*
X73973833Y-100107483D01*
X74076608Y-100038811D01*
X74164011Y-99951408D01*
X78916819Y-95198600D01*
X78978142Y-95165115D01*
X79047834Y-95170099D01*
X79103767Y-95211971D01*
X79128184Y-95277435D01*
X79128500Y-95286281D01*
X79128500Y-97966153D01*
X79108815Y-98033192D01*
X79056011Y-98078947D01*
X79051955Y-98080713D01*
X79047634Y-98082503D01*
X79007559Y-98099103D01*
X79007557Y-98099104D01*
X79007555Y-98099105D01*
X78786990Y-98234267D01*
X78786985Y-98234270D01*
X78590276Y-98402276D01*
X78422270Y-98598985D01*
X78422267Y-98598990D01*
X78287102Y-98819558D01*
X78188106Y-99058557D01*
X78188102Y-99058569D01*
X78127715Y-99310101D01*
X78107418Y-99568000D01*
X78127715Y-99825898D01*
X78188102Y-100077430D01*
X78188106Y-100077442D01*
X78287102Y-100316441D01*
X78422267Y-100537009D01*
X78422270Y-100537014D01*
X78448775Y-100568047D01*
X78590276Y-100733724D01*
X78661716Y-100794739D01*
X78786985Y-100901729D01*
X78786987Y-100901730D01*
X78786988Y-100901731D01*
X78819059Y-100921384D01*
X79007558Y-101036897D01*
X79092057Y-101071897D01*
X79246560Y-101135895D01*
X79498105Y-101196285D01*
X79756000Y-101216582D01*
X80013895Y-101196285D01*
X80265440Y-101135895D01*
X80504441Y-101036897D01*
X80725012Y-100901731D01*
X80921724Y-100733724D01*
X81089731Y-100537012D01*
X81224897Y-100316441D01*
X81323895Y-100077440D01*
X81384285Y-99825895D01*
X81404582Y-99568000D01*
X81384285Y-99310105D01*
X81323895Y-99058560D01*
X81224897Y-98819559D01*
X81224897Y-98819558D01*
X81089732Y-98598990D01*
X81089729Y-98598985D01*
X81009973Y-98505603D01*
X80921724Y-98402276D01*
X80792199Y-98291652D01*
X80725014Y-98234270D01*
X80725009Y-98234267D01*
X80504444Y-98099105D01*
X80504441Y-98099103D01*
X80464366Y-98082503D01*
X80460045Y-98080713D01*
X80405643Y-98036871D01*
X80383579Y-97970577D01*
X80383500Y-97966153D01*
X80383500Y-94327594D01*
X80403185Y-94260555D01*
X80455989Y-94214800D01*
X80471491Y-94208938D01*
X80651804Y-94154241D01*
X80657739Y-94151069D01*
X80798091Y-94076049D01*
X80827004Y-94060595D01*
X80980568Y-93934568D01*
X81106595Y-93781004D01*
X81166997Y-93668000D01*
X81200239Y-93605808D01*
X81200239Y-93605807D01*
X81200241Y-93605804D01*
X81257908Y-93415701D01*
X81277380Y-93218000D01*
X81265773Y-93100153D01*
X81278792Y-93031508D01*
X81326857Y-92980798D01*
X81389176Y-92964000D01*
X83002423Y-92964000D01*
X83069462Y-92983685D01*
X83101689Y-93013689D01*
X83170452Y-93105544D01*
X83170455Y-93105547D01*
X83285664Y-93191793D01*
X83285671Y-93191797D01*
X83420517Y-93242091D01*
X83420516Y-93242091D01*
X83427444Y-93242835D01*
X83480127Y-93248500D01*
X85175872Y-93248499D01*
X85235483Y-93242091D01*
X85370331Y-93191796D01*
X85485546Y-93105546D01*
X85522669Y-93055956D01*
X85554311Y-93013689D01*
X85610245Y-92971818D01*
X85653577Y-92964000D01*
X86012548Y-92964000D01*
X86079587Y-92983685D01*
X86083670Y-92986424D01*
X86215266Y-93078568D01*
X86421504Y-93174739D01*
X86421509Y-93174740D01*
X86421511Y-93174741D01*
X86458825Y-93184739D01*
X86641308Y-93233635D01*
X86803230Y-93247801D01*
X86867998Y-93253468D01*
X86868000Y-93253468D01*
X86868002Y-93253468D01*
X86924807Y-93248498D01*
X87094692Y-93233635D01*
X87314496Y-93174739D01*
X87520734Y-93078568D01*
X87652329Y-92986424D01*
X87718535Y-92964098D01*
X87723452Y-92964000D01*
X96172548Y-92964000D01*
X96239587Y-92983685D01*
X96243670Y-92986424D01*
X96375266Y-93078568D01*
X96581504Y-93174739D01*
X96581509Y-93174740D01*
X96581511Y-93174741D01*
X96618825Y-93184739D01*
X96801308Y-93233635D01*
X96963230Y-93247801D01*
X97027998Y-93253468D01*
X97028000Y-93253468D01*
X97028002Y-93253468D01*
X97084807Y-93248498D01*
X97254692Y-93233635D01*
X97474496Y-93174739D01*
X97680734Y-93078568D01*
X97778196Y-93010324D01*
X97844401Y-92987998D01*
X97912168Y-93005008D01*
X97959981Y-93055956D01*
X97972659Y-93124666D01*
X97946177Y-93189323D01*
X97936999Y-93199581D01*
X97312400Y-93824181D01*
X97251077Y-93857666D01*
X97224719Y-93860500D01*
X92196781Y-93860500D01*
X92129742Y-93840815D01*
X92097827Y-93811227D01*
X92028738Y-93719738D01*
X91873223Y-93577969D01*
X91873221Y-93577967D01*
X91694307Y-93467188D01*
X91694301Y-93467185D01*
X91529165Y-93403212D01*
X91498076Y-93391168D01*
X91291220Y-93352500D01*
X91080780Y-93352500D01*
X90873924Y-93391168D01*
X90873921Y-93391168D01*
X90873921Y-93391169D01*
X90677698Y-93467185D01*
X90677692Y-93467188D01*
X90498778Y-93577967D01*
X90498776Y-93577969D01*
X90343261Y-93719739D01*
X90216442Y-93887674D01*
X90122642Y-94076049D01*
X90102846Y-94145626D01*
X90076650Y-94237697D01*
X90065051Y-94278462D01*
X90045635Y-94487999D01*
X90045635Y-94488000D01*
X90065051Y-94697537D01*
X90065051Y-94697539D01*
X90065052Y-94697542D01*
X90117406Y-94881547D01*
X90122642Y-94899950D01*
X90216442Y-95088325D01*
X90343261Y-95256260D01*
X90498776Y-95398030D01*
X90498778Y-95398032D01*
X90677692Y-95508811D01*
X90677698Y-95508814D01*
X90719268Y-95524918D01*
X90873924Y-95584832D01*
X91080780Y-95623500D01*
X91080782Y-95623500D01*
X91291218Y-95623500D01*
X91291220Y-95623500D01*
X91498076Y-95584832D01*
X91694304Y-95508813D01*
X91873223Y-95398031D01*
X92028740Y-95256259D01*
X92097827Y-95164773D01*
X92153936Y-95123137D01*
X92196781Y-95115500D01*
X97597804Y-95115500D01*
X97597805Y-95115499D01*
X97719035Y-95091386D01*
X97799784Y-95057937D01*
X97833233Y-95044083D01*
X97936008Y-94975411D01*
X98023411Y-94888008D01*
X99537600Y-93373819D01*
X99598923Y-93340334D01*
X99625281Y-93337500D01*
X100103333Y-93337500D01*
X100170372Y-93357185D01*
X100216127Y-93409989D01*
X100226071Y-93479147D01*
X100197046Y-93542703D01*
X100168610Y-93566927D01*
X100150778Y-93577967D01*
X100150776Y-93577969D01*
X99995261Y-93719739D01*
X99868442Y-93887674D01*
X99774642Y-94076049D01*
X99754846Y-94145626D01*
X99728650Y-94237697D01*
X99717051Y-94278462D01*
X99697635Y-94487999D01*
X99697635Y-94488000D01*
X99717051Y-94697537D01*
X99717051Y-94697539D01*
X99717052Y-94697542D01*
X99769406Y-94881547D01*
X99774642Y-94899950D01*
X99868442Y-95088325D01*
X99995261Y-95256260D01*
X100150776Y-95398030D01*
X100150778Y-95398032D01*
X100329692Y-95508811D01*
X100329698Y-95508814D01*
X100371268Y-95524918D01*
X100525924Y-95584832D01*
X100732780Y-95623500D01*
X100732782Y-95623500D01*
X100943217Y-95623500D01*
X100943220Y-95623500D01*
X100999333Y-95613010D01*
X101068848Y-95620041D01*
X101109799Y-95647218D01*
X101112589Y-95650008D01*
X101185113Y-95722532D01*
X101199994Y-95737413D01*
X101199996Y-95737414D01*
X101302756Y-95806076D01*
X101302758Y-95806077D01*
X101302767Y-95806083D01*
X101337658Y-95820535D01*
X101337659Y-95820536D01*
X101337660Y-95820536D01*
X101416966Y-95853386D01*
X101538192Y-95877499D01*
X101538196Y-95877500D01*
X101538197Y-95877500D01*
X108217900Y-95877500D01*
X108284939Y-95897185D01*
X108330694Y-95949989D01*
X108340638Y-96019147D01*
X108328385Y-96057794D01*
X108308129Y-96097549D01*
X108254597Y-96262302D01*
X108240331Y-96352375D01*
X108227500Y-96433389D01*
X108227500Y-96606611D01*
X108235677Y-96658239D01*
X108250406Y-96751237D01*
X108254598Y-96777701D01*
X108308127Y-96942445D01*
X108386768Y-97096788D01*
X108488586Y-97236928D01*
X108611072Y-97359414D01*
X108751212Y-97461232D01*
X108905555Y-97539873D01*
X109070299Y-97593402D01*
X109241389Y-97620500D01*
X109241390Y-97620500D01*
X110214610Y-97620500D01*
X110214611Y-97620500D01*
X110385701Y-97593402D01*
X110550445Y-97539873D01*
X110704788Y-97461232D01*
X110844928Y-97359414D01*
X110967414Y-97236928D01*
X111069232Y-97096788D01*
X111147873Y-96942445D01*
X111201402Y-96777701D01*
X111228500Y-96606611D01*
X111228500Y-96433389D01*
X111201402Y-96262299D01*
X111147873Y-96097555D01*
X111147597Y-96097013D01*
X111127615Y-96057794D01*
X111114719Y-95989124D01*
X111140996Y-95924384D01*
X111198103Y-95884128D01*
X111238100Y-95877500D01*
X120846719Y-95877500D01*
X120913758Y-95897185D01*
X120934400Y-95913819D01*
X129560589Y-104540008D01*
X129610299Y-104589718D01*
X129647993Y-104627412D01*
X129750760Y-104696079D01*
X129750773Y-104696086D01*
X129794106Y-104714035D01*
X129794107Y-104714035D01*
X129864966Y-104743386D01*
X129986192Y-104767499D01*
X129986196Y-104767500D01*
X129986197Y-104767500D01*
X130109804Y-104767500D01*
X133760432Y-104767500D01*
X133827471Y-104787185D01*
X133860751Y-104818616D01*
X133888582Y-104856924D01*
X133888586Y-104856928D01*
X134011072Y-104979414D01*
X134151212Y-105081232D01*
X134305555Y-105159873D01*
X134470299Y-105213402D01*
X134641389Y-105240500D01*
X134641390Y-105240500D01*
X135614610Y-105240500D01*
X135614611Y-105240500D01*
X135785701Y-105213402D01*
X135950445Y-105159873D01*
X136104788Y-105081232D01*
X136244928Y-104979414D01*
X136367414Y-104856928D01*
X136469232Y-104716788D01*
X136547873Y-104562445D01*
X136601402Y-104397701D01*
X136628500Y-104226611D01*
X136628500Y-104053389D01*
X136601402Y-103882299D01*
X136547873Y-103717555D01*
X136469232Y-103563212D01*
X136367414Y-103423072D01*
X136244928Y-103300586D01*
X136104788Y-103198768D01*
X135950445Y-103120127D01*
X135785701Y-103066598D01*
X135785699Y-103066597D01*
X135785698Y-103066597D01*
X135654271Y-103045781D01*
X135614611Y-103039500D01*
X134641389Y-103039500D01*
X134601728Y-103045781D01*
X134470302Y-103066597D01*
X134305552Y-103120128D01*
X134151211Y-103198768D01*
X134096432Y-103238568D01*
X134011072Y-103300586D01*
X134011070Y-103300588D01*
X134011069Y-103300588D01*
X133888582Y-103423075D01*
X133860751Y-103461384D01*
X133805422Y-103504050D01*
X133760432Y-103512500D01*
X130359281Y-103512500D01*
X130292242Y-103492815D01*
X130271600Y-103476181D01*
X121558011Y-94762591D01*
X121558007Y-94762588D01*
X121455235Y-94693918D01*
X121455226Y-94693913D01*
X121399992Y-94671035D01*
X121341035Y-94646614D01*
X121341027Y-94646612D01*
X121219807Y-94622500D01*
X121219803Y-94622500D01*
X111238100Y-94622500D01*
X111171061Y-94602815D01*
X111125306Y-94550011D01*
X111115362Y-94480853D01*
X111127615Y-94442206D01*
X111147870Y-94402450D01*
X111147873Y-94402445D01*
X111201402Y-94237701D01*
X111228500Y-94066611D01*
X111228500Y-93893389D01*
X111201402Y-93722299D01*
X111147873Y-93557555D01*
X111140306Y-93542703D01*
X111127615Y-93517794D01*
X111114719Y-93449124D01*
X111140996Y-93384384D01*
X111198103Y-93344128D01*
X111238100Y-93337500D01*
X120699443Y-93337500D01*
X120766482Y-93357185D01*
X120812237Y-93409989D01*
X120814004Y-93414047D01*
X120833591Y-93461334D01*
X120855915Y-93515229D01*
X120855921Y-93515241D01*
X120877434Y-93547436D01*
X120877435Y-93547438D01*
X120924585Y-93618003D01*
X120924591Y-93618011D01*
X129306589Y-102000008D01*
X129359575Y-102052994D01*
X129393993Y-102087412D01*
X129496760Y-102156079D01*
X129496773Y-102156086D01*
X129593025Y-102195954D01*
X129610965Y-102203385D01*
X129610969Y-102203385D01*
X129610970Y-102203386D01*
X129732194Y-102227500D01*
X129732197Y-102227500D01*
X133760432Y-102227500D01*
X133827471Y-102247185D01*
X133860751Y-102278616D01*
X133888582Y-102316924D01*
X133888586Y-102316928D01*
X134011072Y-102439414D01*
X134151212Y-102541232D01*
X134305555Y-102619873D01*
X134470299Y-102673402D01*
X134641389Y-102700500D01*
X134641390Y-102700500D01*
X135614610Y-102700500D01*
X135614611Y-102700500D01*
X135785701Y-102673402D01*
X135950445Y-102619873D01*
X136104788Y-102541232D01*
X136244928Y-102439414D01*
X136367414Y-102316928D01*
X136469232Y-102176788D01*
X136547873Y-102022445D01*
X136601402Y-101857701D01*
X136628500Y-101686611D01*
X136628500Y-101513389D01*
X136601402Y-101342299D01*
X136547873Y-101177555D01*
X136469232Y-101023212D01*
X136367414Y-100883072D01*
X136244928Y-100760586D01*
X136104788Y-100658768D01*
X135950445Y-100580127D01*
X135785701Y-100526598D01*
X135785699Y-100526597D01*
X135785698Y-100526597D01*
X135654271Y-100505781D01*
X135614611Y-100499500D01*
X134641389Y-100499500D01*
X134601728Y-100505781D01*
X134470302Y-100526597D01*
X134305552Y-100580128D01*
X134151211Y-100658768D01*
X134096432Y-100698568D01*
X134011072Y-100760586D01*
X134011070Y-100760588D01*
X134011069Y-100760588D01*
X133888582Y-100883075D01*
X133860751Y-100921384D01*
X133805422Y-100964050D01*
X133760432Y-100972500D01*
X130105281Y-100972500D01*
X130038242Y-100952815D01*
X130017600Y-100936181D01*
X128054808Y-98973389D01*
X133627500Y-98973389D01*
X133627500Y-99146610D01*
X133653261Y-99309264D01*
X133654598Y-99317701D01*
X133692826Y-99435355D01*
X133708128Y-99482447D01*
X133760548Y-99585327D01*
X133786768Y-99636788D01*
X133888586Y-99776928D01*
X134011072Y-99899414D01*
X134151212Y-100001232D01*
X134305555Y-100079873D01*
X134470299Y-100133402D01*
X134641389Y-100160500D01*
X134641390Y-100160500D01*
X135614610Y-100160500D01*
X135614611Y-100160500D01*
X135785701Y-100133402D01*
X135950445Y-100079873D01*
X136104788Y-100001232D01*
X136244928Y-99899414D01*
X136367414Y-99776928D01*
X136469232Y-99636788D01*
X136547873Y-99482445D01*
X136601402Y-99317701D01*
X136628500Y-99146611D01*
X136628500Y-99061996D01*
X142750535Y-99061996D01*
X142750535Y-99062003D01*
X142755152Y-99123609D01*
X142755499Y-99132876D01*
X142755499Y-99178048D01*
X142763707Y-99240403D01*
X142764421Y-99247319D01*
X142770364Y-99326618D01*
X142770364Y-99326622D01*
X142780165Y-99369562D01*
X142782212Y-99380962D01*
X142785791Y-99408139D01*
X142785792Y-99408145D01*
X142806659Y-99486023D01*
X142807775Y-99490523D01*
X142829412Y-99585323D01*
X142839019Y-99609802D01*
X142843360Y-99622995D01*
X142845858Y-99632314D01*
X142845866Y-99632338D01*
X142883489Y-99723168D01*
X142884356Y-99725318D01*
X142904611Y-99776928D01*
X142926362Y-99832347D01*
X143059041Y-100062154D01*
X143130724Y-100152042D01*
X143132151Y-100153867D01*
X143192006Y-100231871D01*
X143192010Y-100231875D01*
X143192011Y-100231876D01*
X143198835Y-100238700D01*
X143208097Y-100249064D01*
X143224491Y-100269622D01*
X143224500Y-100269631D01*
X143295796Y-100335784D01*
X143299136Y-100339001D01*
X147770829Y-104810694D01*
X147780094Y-104821061D01*
X147796492Y-104841623D01*
X147796496Y-104841627D01*
X147796500Y-104841631D01*
X147867796Y-104907784D01*
X147871110Y-104910975D01*
X147906880Y-104946745D01*
X147928122Y-104967987D01*
X147949868Y-104984673D01*
X147958719Y-104992146D01*
X147991016Y-105022114D01*
X148056734Y-105066920D01*
X148062358Y-105070990D01*
X148092947Y-105094461D01*
X148112253Y-105109275D01*
X148151346Y-105131845D01*
X148159197Y-105136778D01*
X148175279Y-105147743D01*
X148210268Y-105171598D01*
X148265969Y-105198421D01*
X148274143Y-105202743D01*
X148313232Y-105225312D01*
X148313244Y-105225317D01*
X148313248Y-105225320D01*
X148313253Y-105225322D01*
X148313255Y-105225323D01*
X148371327Y-105249377D01*
X148377677Y-105252218D01*
X148449352Y-105286735D01*
X148467852Y-105292440D01*
X148491455Y-105299721D01*
X148502350Y-105303647D01*
X148527670Y-105314136D01*
X148605524Y-105334996D01*
X148609942Y-105336269D01*
X148702922Y-105364950D01*
X148728930Y-105368870D01*
X148742523Y-105371706D01*
X148751851Y-105374206D01*
X148849382Y-105387046D01*
X148851550Y-105387352D01*
X148965319Y-105404500D01*
X148965320Y-105404500D01*
X149230681Y-105404500D01*
X149344469Y-105387348D01*
X149346635Y-105387043D01*
X149444148Y-105374206D01*
X149453478Y-105371705D01*
X149467072Y-105368869D01*
X149493078Y-105364950D01*
X149586078Y-105336262D01*
X149590467Y-105334998D01*
X149668329Y-105314136D01*
X149693649Y-105303647D01*
X149704525Y-105299727D01*
X149746650Y-105286734D01*
X149818336Y-105252211D01*
X149824664Y-105249379D01*
X149882752Y-105225320D01*
X149921857Y-105202742D01*
X149930037Y-105198419D01*
X149985733Y-105171598D01*
X150036820Y-105136766D01*
X150044655Y-105131845D01*
X150083745Y-105109276D01*
X150083747Y-105109275D01*
X150133647Y-105070984D01*
X150139236Y-105066939D01*
X150181650Y-105038022D01*
X150248129Y-105016523D01*
X150315679Y-105034378D01*
X150362852Y-105085918D01*
X150375500Y-105140477D01*
X150375500Y-114483109D01*
X150375153Y-114492376D01*
X150370535Y-114553996D01*
X150370535Y-114554003D01*
X150375153Y-114615622D01*
X150375500Y-114624889D01*
X150375500Y-114670052D01*
X150383707Y-114732383D01*
X150384421Y-114739303D01*
X150390363Y-114818613D01*
X150390365Y-114818621D01*
X150400167Y-114861568D01*
X150402214Y-114872970D01*
X150405791Y-114900137D01*
X150405793Y-114900145D01*
X150426654Y-114978000D01*
X150427765Y-114982479D01*
X150449414Y-115077327D01*
X150449415Y-115077329D01*
X150459018Y-115101798D01*
X150463362Y-115114997D01*
X150465863Y-115124330D01*
X150503485Y-115215158D01*
X150503490Y-115215169D01*
X150504354Y-115217312D01*
X150546361Y-115324345D01*
X150679042Y-115554155D01*
X150750683Y-115643990D01*
X150752111Y-115645816D01*
X150812006Y-115723872D01*
X150812010Y-115723876D01*
X150812011Y-115723877D01*
X150818839Y-115730705D01*
X150828097Y-115741065D01*
X150844492Y-115761623D01*
X150907545Y-115820127D01*
X150915782Y-115827770D01*
X150919122Y-115830988D01*
X150976123Y-115887989D01*
X150997880Y-115904683D01*
X151006721Y-115912148D01*
X151006733Y-115912159D01*
X151039014Y-115942113D01*
X151104724Y-115986913D01*
X151110342Y-115990978D01*
X151160252Y-116029276D01*
X151160254Y-116029277D01*
X151199358Y-116051853D01*
X151207213Y-116056789D01*
X151258263Y-116091595D01*
X151258265Y-116091595D01*
X151258268Y-116091598D01*
X151308235Y-116115661D01*
X151313952Y-116118414D01*
X151322150Y-116122747D01*
X151322713Y-116123072D01*
X151361248Y-116145320D01*
X151419358Y-116169389D01*
X151425641Y-116172200D01*
X151497350Y-116206734D01*
X151539443Y-116219717D01*
X151550351Y-116223649D01*
X151575664Y-116234135D01*
X151575667Y-116234135D01*
X151575670Y-116234137D01*
X151653540Y-116255001D01*
X151657972Y-116256278D01*
X151750922Y-116284950D01*
X151750925Y-116284950D01*
X151750931Y-116284952D01*
X151776915Y-116288868D01*
X151790525Y-116291707D01*
X151799851Y-116294206D01*
X151897382Y-116307046D01*
X151899550Y-116307352D01*
X152013319Y-116324500D01*
X152013320Y-116324500D01*
X158120681Y-116324500D01*
X158234463Y-116307349D01*
X158236629Y-116307044D01*
X158334149Y-116294206D01*
X158343470Y-116291708D01*
X158357069Y-116288870D01*
X158383078Y-116284950D01*
X158476055Y-116256269D01*
X158480458Y-116255002D01*
X158558330Y-116234137D01*
X158583667Y-116223640D01*
X158594545Y-116219720D01*
X158636650Y-116206734D01*
X158708361Y-116172198D01*
X158714636Y-116169391D01*
X158772752Y-116145320D01*
X158811864Y-116122738D01*
X158820037Y-116118419D01*
X158875733Y-116091598D01*
X158926788Y-116056789D01*
X158934639Y-116051855D01*
X158973748Y-116029276D01*
X159023678Y-115990961D01*
X159029244Y-115986934D01*
X159094984Y-115942114D01*
X159127272Y-115912154D01*
X159136128Y-115904676D01*
X159143828Y-115898768D01*
X159157877Y-115887989D01*
X159214902Y-115830962D01*
X159218186Y-115827798D01*
X159289508Y-115761623D01*
X159305907Y-115741057D01*
X159315171Y-115730694D01*
X159321989Y-115723877D01*
X159381904Y-115645792D01*
X159383237Y-115644089D01*
X159454958Y-115554155D01*
X159587639Y-115324345D01*
X159629654Y-115217288D01*
X159630514Y-115215158D01*
X159668135Y-115124336D01*
X159668137Y-115124330D01*
X159670633Y-115115009D01*
X159674981Y-115101798D01*
X159684586Y-115077327D01*
X159706237Y-114982463D01*
X159707340Y-114978018D01*
X159707345Y-114978000D01*
X159728206Y-114900149D01*
X159731784Y-114872970D01*
X159733826Y-114861592D01*
X159743635Y-114818619D01*
X159749580Y-114739267D01*
X159750288Y-114732407D01*
X159758500Y-114670045D01*
X159758500Y-114624889D01*
X159758847Y-114615622D01*
X159763465Y-114554003D01*
X159763465Y-114553996D01*
X159758847Y-114492376D01*
X159758500Y-114483109D01*
X159758500Y-114437960D01*
X159758499Y-114437949D01*
X159750289Y-114375598D01*
X159749577Y-114368687D01*
X159747729Y-114344028D01*
X159743635Y-114289381D01*
X159733828Y-114246414D01*
X159731782Y-114235015D01*
X159728206Y-114207853D01*
X159728206Y-114207851D01*
X159707342Y-114129986D01*
X159706226Y-114125485D01*
X159684587Y-114030676D01*
X159684585Y-114030670D01*
X159674980Y-114006198D01*
X159670633Y-113992988D01*
X159668137Y-113983670D01*
X159630509Y-113892831D01*
X159629653Y-113890705D01*
X159600853Y-113817325D01*
X159587639Y-113783655D01*
X159587638Y-113783654D01*
X159587639Y-113783654D01*
X159515327Y-113658407D01*
X159454958Y-113553845D01*
X159383226Y-113463896D01*
X159381904Y-113462206D01*
X159321989Y-113384123D01*
X159315155Y-113377289D01*
X159305906Y-113366940D01*
X159289508Y-113346377D01*
X159218216Y-113280228D01*
X159214902Y-113277036D01*
X159157877Y-113220011D01*
X159157876Y-113220010D01*
X159157872Y-113220006D01*
X159136126Y-113203321D01*
X159127266Y-113195840D01*
X159094982Y-113165884D01*
X159052402Y-113136854D01*
X159029283Y-113121092D01*
X159023657Y-113117020D01*
X158973756Y-113078730D01*
X158973754Y-113078729D01*
X158973748Y-113078724D01*
X158934636Y-113056142D01*
X158926789Y-113051210D01*
X158875740Y-113016406D01*
X158875734Y-113016403D01*
X158875735Y-113016403D01*
X158875733Y-113016402D01*
X158820032Y-112989577D01*
X158811845Y-112985249D01*
X158772764Y-112962686D01*
X158772743Y-112962675D01*
X158714664Y-112938619D01*
X158708314Y-112935778D01*
X158636650Y-112901266D01*
X158636644Y-112901264D01*
X158636636Y-112901261D01*
X158594558Y-112888282D01*
X158583657Y-112884353D01*
X158558330Y-112873863D01*
X158558323Y-112873860D01*
X158480455Y-112852995D01*
X158476001Y-112851712D01*
X158383082Y-112823050D01*
X158357068Y-112819128D01*
X158343475Y-112816292D01*
X158334151Y-112813794D01*
X158236657Y-112800958D01*
X158234363Y-112800634D01*
X158120688Y-112783500D01*
X158120681Y-112783500D01*
X158104045Y-112783500D01*
X155072681Y-112783500D01*
X155056045Y-112783500D01*
X154040500Y-112783500D01*
X153973461Y-112763815D01*
X153927706Y-112711011D01*
X153916500Y-112659500D01*
X153916500Y-101599996D01*
X179874916Y-101599996D01*
X179874916Y-101600003D01*
X179895235Y-101948869D01*
X179895236Y-101948880D01*
X179955914Y-102293002D01*
X179955916Y-102293011D01*
X180056145Y-102627800D01*
X180194555Y-102948670D01*
X180194561Y-102948683D01*
X180369289Y-103251322D01*
X180577972Y-103531631D01*
X180577976Y-103531636D01*
X180586147Y-103540297D01*
X180586148Y-103540298D01*
X181836320Y-102290125D01*
X181926554Y-102414320D01*
X182065680Y-102553446D01*
X182189873Y-102643678D01*
X180942817Y-103890733D01*
X180942818Y-103890734D01*
X181085480Y-104010442D01*
X181377461Y-104202480D01*
X181689739Y-104359314D01*
X181689745Y-104359316D01*
X182018130Y-104478838D01*
X182018133Y-104478839D01*
X182358171Y-104559429D01*
X182705276Y-104599999D01*
X182705277Y-104600000D01*
X183054723Y-104600000D01*
X183054723Y-104599999D01*
X183401827Y-104559429D01*
X183401829Y-104559429D01*
X183741866Y-104478839D01*
X183741869Y-104478838D01*
X184070254Y-104359316D01*
X184070260Y-104359314D01*
X184382538Y-104202480D01*
X184674515Y-104010445D01*
X184817180Y-103890734D01*
X184817181Y-103890733D01*
X183570126Y-102643678D01*
X183694320Y-102553446D01*
X183833446Y-102414320D01*
X183923679Y-102290126D01*
X185173850Y-103540297D01*
X185182032Y-103531625D01*
X185390710Y-103251322D01*
X185565438Y-102948683D01*
X185565444Y-102948670D01*
X185703854Y-102627800D01*
X185804083Y-102293011D01*
X185804085Y-102293002D01*
X185864763Y-101948880D01*
X185864764Y-101948869D01*
X185885084Y-101600003D01*
X185885084Y-101599996D01*
X185864764Y-101251130D01*
X185864763Y-101251119D01*
X185804085Y-100906997D01*
X185804083Y-100906988D01*
X185703854Y-100572199D01*
X185565444Y-100251329D01*
X185565438Y-100251316D01*
X185390710Y-99948677D01*
X185182029Y-99668371D01*
X185173850Y-99659701D01*
X185173850Y-99659700D01*
X183923678Y-100909872D01*
X183833446Y-100785680D01*
X183694320Y-100646554D01*
X183570125Y-100556320D01*
X184817181Y-99309265D01*
X184817180Y-99309264D01*
X184674519Y-99189557D01*
X184382538Y-98997519D01*
X184070260Y-98840685D01*
X184070254Y-98840683D01*
X183741869Y-98721161D01*
X183741866Y-98721160D01*
X183401828Y-98640570D01*
X183054723Y-98600000D01*
X182705277Y-98600000D01*
X182358172Y-98640570D01*
X182358170Y-98640570D01*
X182018133Y-98721160D01*
X182018130Y-98721161D01*
X181689745Y-98840683D01*
X181689739Y-98840685D01*
X181377461Y-98997519D01*
X181085485Y-99189554D01*
X180942817Y-99309264D01*
X182189874Y-100556320D01*
X182065680Y-100646554D01*
X181926554Y-100785680D01*
X181836320Y-100909873D01*
X180586148Y-99659701D01*
X180586146Y-99659701D01*
X180577973Y-99668366D01*
X180369289Y-99948677D01*
X180194561Y-100251316D01*
X180194555Y-100251329D01*
X180056145Y-100572199D01*
X179955916Y-100906988D01*
X179955914Y-100906997D01*
X179895236Y-101251119D01*
X179895235Y-101251130D01*
X179874916Y-101599996D01*
X153916500Y-101599996D01*
X153916500Y-99430500D01*
X153936185Y-99363461D01*
X153988989Y-99317706D01*
X154040500Y-99306500D01*
X158612038Y-99306500D01*
X158612045Y-99306500D01*
X158842149Y-99276206D01*
X159066330Y-99216137D01*
X159280752Y-99127320D01*
X159481748Y-99011276D01*
X159665877Y-98869989D01*
X159829989Y-98705877D01*
X159971276Y-98521748D01*
X160087320Y-98320752D01*
X160176137Y-98106330D01*
X160236206Y-97882149D01*
X160266500Y-97652045D01*
X160266500Y-97419955D01*
X160236206Y-97189851D01*
X160176137Y-96965670D01*
X160087320Y-96751248D01*
X160010462Y-96618124D01*
X159971279Y-96550256D01*
X159971278Y-96550254D01*
X159829990Y-96366124D01*
X159829984Y-96366117D01*
X159665882Y-96202015D01*
X159665875Y-96202009D01*
X159481745Y-96060721D01*
X159481743Y-96060720D01*
X159280762Y-95944685D01*
X159280754Y-95944681D01*
X159280752Y-95944680D01*
X159275924Y-95942680D01*
X159066328Y-95855862D01*
X158924203Y-95817780D01*
X158842149Y-95795794D01*
X158813386Y-95792007D01*
X158612052Y-95765500D01*
X158612045Y-95765500D01*
X158374681Y-95765500D01*
X158358045Y-95765500D01*
X155326681Y-95765500D01*
X155310045Y-95765500D01*
X152555244Y-95765500D01*
X152536762Y-95764115D01*
X152532681Y-95763500D01*
X152532680Y-95763500D01*
X152519917Y-95763500D01*
X152519885Y-95763499D01*
X152516045Y-95763499D01*
X152283955Y-95763499D01*
X152280115Y-95763499D01*
X152280083Y-95763500D01*
X152267311Y-95763500D01*
X152153688Y-95780626D01*
X152151394Y-95780950D01*
X152053851Y-95793793D01*
X152053839Y-95793795D01*
X152044513Y-95796294D01*
X152030915Y-95799131D01*
X152004920Y-95803050D01*
X152004915Y-95803051D01*
X151911996Y-95831713D01*
X151907568Y-95832988D01*
X151864746Y-95844463D01*
X151829672Y-95853862D01*
X151804346Y-95864352D01*
X151793450Y-95868279D01*
X151751350Y-95881266D01*
X151679690Y-95915775D01*
X151673346Y-95918614D01*
X151615247Y-95942680D01*
X151615232Y-95942688D01*
X151576143Y-95965255D01*
X151567951Y-95969585D01*
X151512267Y-95996402D01*
X151461201Y-96031216D01*
X151453357Y-96036145D01*
X151414257Y-96058721D01*
X151414252Y-96058724D01*
X151364352Y-96097013D01*
X151358720Y-96101089D01*
X151293014Y-96145887D01*
X151293012Y-96145889D01*
X151260722Y-96175848D01*
X151251872Y-96183322D01*
X151230122Y-96200011D01*
X151173123Y-96257010D01*
X151169785Y-96260225D01*
X151098488Y-96326380D01*
X151082100Y-96346930D01*
X151072837Y-96357296D01*
X151024622Y-96405510D01*
X150976125Y-96454008D01*
X150976123Y-96454010D01*
X150971796Y-96458338D01*
X150971795Y-96458338D01*
X150812015Y-96618117D01*
X150812009Y-96618124D01*
X150670721Y-96802254D01*
X150670720Y-96802256D01*
X150554685Y-97003237D01*
X150554677Y-97003254D01*
X150465863Y-97217669D01*
X150405792Y-97441854D01*
X150375499Y-97671947D01*
X150375499Y-97908431D01*
X150375500Y-97908460D01*
X150375500Y-102108273D01*
X150355815Y-102175312D01*
X150303011Y-102221067D01*
X150233853Y-102231011D01*
X150170297Y-102201986D01*
X150163819Y-102195954D01*
X145853166Y-97885301D01*
X145843903Y-97874936D01*
X145827508Y-97854377D01*
X145827507Y-97854376D01*
X145827503Y-97854371D01*
X145756202Y-97788215D01*
X145752888Y-97785023D01*
X145695876Y-97728011D01*
X145695875Y-97728010D01*
X145695874Y-97728009D01*
X145674125Y-97711321D01*
X145665274Y-97703847D01*
X145632984Y-97673886D01*
X145600960Y-97652052D01*
X145567283Y-97629091D01*
X145561650Y-97625015D01*
X145511754Y-97586729D01*
X145511741Y-97586720D01*
X145472647Y-97564149D01*
X145464798Y-97559217D01*
X145436422Y-97539871D01*
X145413733Y-97524402D01*
X145413731Y-97524401D01*
X145358053Y-97497588D01*
X145349854Y-97493255D01*
X145310759Y-97470683D01*
X145310743Y-97470675D01*
X145252664Y-97446619D01*
X145246314Y-97443778D01*
X145242313Y-97441851D01*
X145174650Y-97409266D01*
X145174644Y-97409264D01*
X145174636Y-97409261D01*
X145132558Y-97396282D01*
X145121656Y-97392353D01*
X145096330Y-97381863D01*
X145096326Y-97381862D01*
X145018430Y-97360989D01*
X145014010Y-97359715D01*
X144921077Y-97331049D01*
X144921078Y-97331049D01*
X144895088Y-97327132D01*
X144881486Y-97324294D01*
X144872159Y-97321795D01*
X144872151Y-97321793D01*
X144872149Y-97321793D01*
X144872143Y-97321792D01*
X144872142Y-97321792D01*
X144774604Y-97308950D01*
X144772310Y-97308626D01*
X144658688Y-97291500D01*
X144658681Y-97291500D01*
X144645917Y-97291500D01*
X144645885Y-97291499D01*
X144642045Y-97291499D01*
X144409955Y-97291499D01*
X144406115Y-97291499D01*
X144406083Y-97291500D01*
X144393311Y-97291500D01*
X144279688Y-97308626D01*
X144277394Y-97308950D01*
X144179851Y-97321793D01*
X144179839Y-97321795D01*
X144170513Y-97324294D01*
X144156915Y-97327131D01*
X144130920Y-97331050D01*
X144130915Y-97331051D01*
X144037996Y-97359713D01*
X144033568Y-97360988D01*
X143990746Y-97372463D01*
X143955672Y-97381862D01*
X143930346Y-97392352D01*
X143919450Y-97396279D01*
X143877350Y-97409266D01*
X143805690Y-97443775D01*
X143799346Y-97446614D01*
X143741247Y-97470680D01*
X143741232Y-97470688D01*
X143702143Y-97493255D01*
X143693951Y-97497585D01*
X143638267Y-97524402D01*
X143587201Y-97559216D01*
X143579357Y-97564145D01*
X143540257Y-97586721D01*
X143540252Y-97586724D01*
X143490360Y-97625007D01*
X143484728Y-97629083D01*
X143419015Y-97673885D01*
X143386723Y-97703847D01*
X143377875Y-97711319D01*
X143356126Y-97728008D01*
X143299135Y-97784999D01*
X143295797Y-97788214D01*
X143224489Y-97854379D01*
X143224485Y-97854383D01*
X143208094Y-97874936D01*
X143198846Y-97885287D01*
X143192013Y-97892121D01*
X143132183Y-97970092D01*
X143130756Y-97971915D01*
X143059043Y-98061842D01*
X142926361Y-98291652D01*
X142926360Y-98291656D01*
X142884341Y-98398717D01*
X142883474Y-98400866D01*
X142845865Y-98491662D01*
X142845859Y-98491679D01*
X142843361Y-98501001D01*
X142839022Y-98514188D01*
X142829412Y-98538677D01*
X142807775Y-98633475D01*
X142806659Y-98637974D01*
X142785793Y-98715848D01*
X142782213Y-98743039D01*
X142780165Y-98754441D01*
X142770365Y-98797378D01*
X142770363Y-98797386D01*
X142764421Y-98876682D01*
X142763707Y-98883598D01*
X142755499Y-98945951D01*
X142755499Y-98991122D01*
X142755152Y-99000389D01*
X142750535Y-99061996D01*
X136628500Y-99061996D01*
X136628500Y-98973389D01*
X136601402Y-98802299D01*
X136547873Y-98637555D01*
X136469232Y-98483212D01*
X136367414Y-98343072D01*
X136244928Y-98220586D01*
X136104788Y-98118768D01*
X135950445Y-98040127D01*
X135785701Y-97986598D01*
X135785699Y-97986597D01*
X135785698Y-97986597D01*
X135654271Y-97965781D01*
X135614611Y-97959500D01*
X134641389Y-97959500D01*
X134601728Y-97965781D01*
X134470302Y-97986597D01*
X134305552Y-98040128D01*
X134151211Y-98118768D01*
X134096432Y-98158568D01*
X134011072Y-98220586D01*
X134011070Y-98220588D01*
X134011069Y-98220588D01*
X133888588Y-98343069D01*
X133888588Y-98343070D01*
X133888586Y-98343072D01*
X133857632Y-98385676D01*
X133786768Y-98483211D01*
X133708128Y-98637552D01*
X133654597Y-98802302D01*
X133627500Y-98973389D01*
X128054808Y-98973389D01*
X125514808Y-96433389D01*
X133627500Y-96433389D01*
X133627500Y-96606611D01*
X133635677Y-96658239D01*
X133650406Y-96751237D01*
X133654598Y-96777701D01*
X133708127Y-96942445D01*
X133786768Y-97096788D01*
X133888586Y-97236928D01*
X134011072Y-97359414D01*
X134151212Y-97461232D01*
X134305555Y-97539873D01*
X134470299Y-97593402D01*
X134641389Y-97620500D01*
X134641390Y-97620500D01*
X135614610Y-97620500D01*
X135614611Y-97620500D01*
X135785701Y-97593402D01*
X135950445Y-97539873D01*
X136104788Y-97461232D01*
X136244928Y-97359414D01*
X136367414Y-97236928D01*
X136469232Y-97096788D01*
X136547873Y-96942445D01*
X136601402Y-96777701D01*
X136628500Y-96606611D01*
X136628500Y-96433389D01*
X136601402Y-96262299D01*
X136547873Y-96097555D01*
X136469232Y-95943212D01*
X136367414Y-95803072D01*
X136244928Y-95680586D01*
X136104788Y-95578768D01*
X135950445Y-95500127D01*
X135785701Y-95446598D01*
X135785699Y-95446597D01*
X135785698Y-95446597D01*
X135654271Y-95425781D01*
X135614611Y-95419500D01*
X134641389Y-95419500D01*
X134601728Y-95425781D01*
X134470302Y-95446597D01*
X134305552Y-95500128D01*
X134151211Y-95578768D01*
X134089644Y-95623500D01*
X134011072Y-95680586D01*
X134011070Y-95680588D01*
X134011069Y-95680588D01*
X133888588Y-95803069D01*
X133888588Y-95803070D01*
X133888586Y-95803072D01*
X133886398Y-95806084D01*
X133786768Y-95943211D01*
X133708128Y-96097552D01*
X133654597Y-96262302D01*
X133640331Y-96352375D01*
X133627500Y-96433389D01*
X125514808Y-96433389D01*
X122974808Y-93893389D01*
X133627500Y-93893389D01*
X133627500Y-94066611D01*
X133632272Y-94096741D01*
X133650041Y-94208933D01*
X133654598Y-94237701D01*
X133708127Y-94402445D01*
X133786768Y-94556788D01*
X133888586Y-94696928D01*
X134011072Y-94819414D01*
X134151212Y-94921232D01*
X134305555Y-94999873D01*
X134470299Y-95053402D01*
X134641389Y-95080500D01*
X134641390Y-95080500D01*
X135614610Y-95080500D01*
X135614611Y-95080500D01*
X135785701Y-95053402D01*
X135950445Y-94999873D01*
X136104788Y-94921232D01*
X136244928Y-94819414D01*
X136367414Y-94696928D01*
X136469232Y-94556788D01*
X136547873Y-94402445D01*
X136601402Y-94237701D01*
X136628500Y-94066611D01*
X136628500Y-93893389D01*
X136601402Y-93722299D01*
X136547873Y-93557555D01*
X136469232Y-93403212D01*
X136367414Y-93263072D01*
X136244928Y-93140586D01*
X136104788Y-93038768D01*
X135996681Y-92983685D01*
X135950447Y-92960128D01*
X135950446Y-92960127D01*
X135950445Y-92960127D01*
X135785701Y-92906598D01*
X135785699Y-92906597D01*
X135785698Y-92906597D01*
X135648440Y-92884858D01*
X135614611Y-92879500D01*
X134641389Y-92879500D01*
X134607560Y-92884858D01*
X134470302Y-92906597D01*
X134399774Y-92929513D01*
X134362286Y-92941694D01*
X134305552Y-92960128D01*
X134151211Y-93038768D01*
X134085824Y-93086275D01*
X134011072Y-93140586D01*
X134011070Y-93140588D01*
X134011069Y-93140588D01*
X133888588Y-93263069D01*
X133888588Y-93263070D01*
X133888586Y-93263072D01*
X133844859Y-93323256D01*
X133786768Y-93403211D01*
X133708128Y-93557552D01*
X133708127Y-93557554D01*
X133708127Y-93557555D01*
X133686161Y-93625158D01*
X133654597Y-93722302D01*
X133645988Y-93776661D01*
X133627500Y-93893389D01*
X122974808Y-93893389D01*
X122075819Y-92994400D01*
X122042334Y-92933077D01*
X122039500Y-92906719D01*
X122039500Y-92648194D01*
X122015386Y-92526970D01*
X122015385Y-92526969D01*
X122015385Y-92526965D01*
X121996016Y-92480204D01*
X121968086Y-92412773D01*
X121968079Y-92412760D01*
X121899411Y-92309992D01*
X121899408Y-92309988D01*
X121812011Y-92222591D01*
X121812007Y-92222588D01*
X121709239Y-92153920D01*
X121709226Y-92153913D01*
X121595039Y-92106616D01*
X121595029Y-92106613D01*
X121473805Y-92082500D01*
X121473803Y-92082500D01*
X111238100Y-92082500D01*
X111171061Y-92062815D01*
X111125306Y-92010011D01*
X111115362Y-91940853D01*
X111127615Y-91902206D01*
X111147870Y-91862450D01*
X111147873Y-91862445D01*
X111201402Y-91697701D01*
X111228500Y-91526611D01*
X111228500Y-91353389D01*
X111201402Y-91182299D01*
X111147873Y-91017555D01*
X111069232Y-90863212D01*
X110967414Y-90723072D01*
X110844928Y-90600586D01*
X110844926Y-90600585D01*
X110842332Y-90598369D01*
X110841619Y-90597277D01*
X110841483Y-90597141D01*
X110841511Y-90597112D01*
X110804140Y-90539862D01*
X110803642Y-90469994D01*
X110840996Y-90410948D01*
X110904344Y-90381471D01*
X110922095Y-90380083D01*
X134141429Y-90240208D01*
X134208582Y-90259488D01*
X134254654Y-90312015D01*
X134265014Y-90381112D01*
X134236372Y-90444842D01*
X134198468Y-90474689D01*
X134151214Y-90498766D01*
X134100688Y-90535476D01*
X134011072Y-90600586D01*
X134011070Y-90600588D01*
X134011069Y-90600588D01*
X133888588Y-90723069D01*
X133888588Y-90723070D01*
X133888586Y-90723072D01*
X133844859Y-90783256D01*
X133786768Y-90863211D01*
X133708128Y-91017552D01*
X133654597Y-91182302D01*
X133636706Y-91295266D01*
X133627500Y-91353389D01*
X133627500Y-91526611D01*
X133654598Y-91697701D01*
X133708127Y-91862445D01*
X133786768Y-92016788D01*
X133888586Y-92156928D01*
X134011072Y-92279414D01*
X134151212Y-92381232D01*
X134305555Y-92459873D01*
X134470299Y-92513402D01*
X134641389Y-92540500D01*
X134641390Y-92540500D01*
X135614610Y-92540500D01*
X135614611Y-92540500D01*
X135785701Y-92513402D01*
X135950445Y-92459873D01*
X136104788Y-92381232D01*
X136244928Y-92279414D01*
X136367414Y-92156928D01*
X136469232Y-92016788D01*
X136547873Y-91862445D01*
X136601402Y-91697701D01*
X136628500Y-91526611D01*
X136628500Y-91386279D01*
X136648185Y-91319240D01*
X136664814Y-91298603D01*
X137708912Y-90254506D01*
X137770230Y-90221024D01*
X137795824Y-90218193D01*
X142630758Y-90189067D01*
X142697910Y-90208347D01*
X142743982Y-90260874D01*
X142755500Y-90313064D01*
X142755500Y-92893109D01*
X142755153Y-92902376D01*
X142750979Y-92958081D01*
X142750535Y-92964000D01*
X142754695Y-93019518D01*
X142755153Y-93025622D01*
X142755500Y-93034889D01*
X142755500Y-93080052D01*
X142763707Y-93142383D01*
X142764421Y-93149303D01*
X142770363Y-93228613D01*
X142770365Y-93228621D01*
X142780167Y-93271568D01*
X142782214Y-93282970D01*
X142785791Y-93310137D01*
X142785793Y-93310145D01*
X142806654Y-93388000D01*
X142807765Y-93392479D01*
X142829414Y-93487327D01*
X142829415Y-93487329D01*
X142839018Y-93511798D01*
X142843362Y-93524997D01*
X142845863Y-93534330D01*
X142880522Y-93618003D01*
X142883490Y-93625169D01*
X142884354Y-93627312D01*
X142926361Y-93734345D01*
X143059042Y-93964155D01*
X143100095Y-94015634D01*
X143130683Y-94053990D01*
X143132111Y-94055816D01*
X143192006Y-94133872D01*
X143192010Y-94133876D01*
X143192011Y-94133877D01*
X143198839Y-94140705D01*
X143208097Y-94151065D01*
X143224492Y-94171623D01*
X143285340Y-94228081D01*
X143295782Y-94237770D01*
X143299122Y-94240988D01*
X143356123Y-94297989D01*
X143377880Y-94314683D01*
X143386721Y-94322148D01*
X143398695Y-94333258D01*
X143419014Y-94352113D01*
X143484724Y-94396913D01*
X143490342Y-94400978D01*
X143540252Y-94439276D01*
X143540254Y-94439277D01*
X143579358Y-94461853D01*
X143587213Y-94466789D01*
X143638263Y-94501595D01*
X143638265Y-94501595D01*
X143638268Y-94501598D01*
X143685625Y-94524404D01*
X143693952Y-94528414D01*
X143702151Y-94532747D01*
X143741248Y-94555320D01*
X143799358Y-94579389D01*
X143805641Y-94582200D01*
X143877350Y-94616734D01*
X143877355Y-94616735D01*
X143877356Y-94616736D01*
X143896044Y-94622500D01*
X143919443Y-94629717D01*
X143930351Y-94633649D01*
X143955664Y-94644135D01*
X143955667Y-94644135D01*
X143955670Y-94644137D01*
X144033540Y-94665001D01*
X144037972Y-94666278D01*
X144130922Y-94694950D01*
X144130925Y-94694950D01*
X144130931Y-94694952D01*
X144156915Y-94698868D01*
X144170525Y-94701707D01*
X144179851Y-94704206D01*
X144277382Y-94717046D01*
X144279550Y-94717352D01*
X144393319Y-94734500D01*
X144393320Y-94734500D01*
X144658681Y-94734500D01*
X144772463Y-94717349D01*
X144774629Y-94717044D01*
X144872149Y-94704206D01*
X144881470Y-94701708D01*
X144895069Y-94698870D01*
X144921078Y-94694950D01*
X145014055Y-94666269D01*
X145018458Y-94665002D01*
X145096330Y-94644137D01*
X145121667Y-94633640D01*
X145132545Y-94629720D01*
X145174650Y-94616734D01*
X145246361Y-94582198D01*
X145252636Y-94579391D01*
X145310752Y-94555320D01*
X145349864Y-94532738D01*
X145358037Y-94528419D01*
X145413733Y-94501598D01*
X145464788Y-94466789D01*
X145472639Y-94461855D01*
X145511748Y-94439276D01*
X145561678Y-94400961D01*
X145567244Y-94396934D01*
X145632984Y-94352114D01*
X145665272Y-94322154D01*
X145674128Y-94314676D01*
X145674133Y-94314672D01*
X145695877Y-94297989D01*
X145752902Y-94240962D01*
X145756186Y-94237798D01*
X145827508Y-94171623D01*
X145843907Y-94151057D01*
X145853171Y-94140694D01*
X145859989Y-94133877D01*
X145919904Y-94055792D01*
X145921237Y-94054089D01*
X145992958Y-93964155D01*
X146125639Y-93734345D01*
X146167654Y-93627288D01*
X146168514Y-93625158D01*
X146206135Y-93534336D01*
X146206137Y-93534330D01*
X146208633Y-93525009D01*
X146212981Y-93511798D01*
X146222586Y-93487327D01*
X146244237Y-93392463D01*
X146245340Y-93388018D01*
X146249145Y-93373819D01*
X146266206Y-93310149D01*
X146269784Y-93282970D01*
X146271826Y-93271592D01*
X146281635Y-93228619D01*
X146287580Y-93149267D01*
X146288288Y-93142407D01*
X146296500Y-93080045D01*
X146296500Y-93034889D01*
X146296847Y-93025622D01*
X146297305Y-93019518D01*
X146301465Y-92964000D01*
X146301021Y-92958081D01*
X146296847Y-92902376D01*
X146296500Y-92893109D01*
X146296500Y-90290239D01*
X146316185Y-90223200D01*
X146368989Y-90177445D01*
X146419747Y-90166242D01*
X146558000Y-90165409D01*
X146558000Y-90424000D01*
X159482004Y-90265423D01*
X161134181Y-91917600D01*
X161167666Y-91978923D01*
X161170500Y-92005281D01*
X161170500Y-92511212D01*
X161150815Y-92578251D01*
X161117623Y-92612787D01*
X160958858Y-92723954D01*
X160797954Y-92884858D01*
X160690187Y-93038768D01*
X160667432Y-93071266D01*
X160651447Y-93105547D01*
X160640106Y-93129867D01*
X160593933Y-93182306D01*
X160526739Y-93201457D01*
X160459858Y-93181241D01*
X160415342Y-93129865D01*
X160388135Y-93071520D01*
X160388134Y-93071518D01*
X160257657Y-92885179D01*
X160096820Y-92724342D01*
X159910482Y-92593865D01*
X159704328Y-92497734D01*
X159508000Y-92445127D01*
X159508000Y-93408314D01*
X159503606Y-93403920D01*
X159412394Y-93351259D01*
X159310661Y-93324000D01*
X159205339Y-93324000D01*
X159103606Y-93351259D01*
X159012394Y-93403920D01*
X159008000Y-93408314D01*
X159008000Y-92445127D01*
X158811671Y-92497734D01*
X158605517Y-92593865D01*
X158419179Y-92724342D01*
X158258339Y-92885182D01*
X158240806Y-92910222D01*
X158186229Y-92953845D01*
X158116730Y-92961037D01*
X158054376Y-92929513D01*
X158018963Y-92869283D01*
X158015943Y-92852349D01*
X158012091Y-92816516D01*
X157961797Y-92681671D01*
X157961793Y-92681664D01*
X157875547Y-92566455D01*
X157875544Y-92566452D01*
X157760335Y-92480206D01*
X157760328Y-92480202D01*
X157625482Y-92429908D01*
X157625483Y-92429908D01*
X157565883Y-92423501D01*
X157565881Y-92423500D01*
X157565873Y-92423500D01*
X157565864Y-92423500D01*
X155870129Y-92423500D01*
X155870123Y-92423501D01*
X155810516Y-92429908D01*
X155675671Y-92480202D01*
X155675664Y-92480206D01*
X155560455Y-92566452D01*
X155560452Y-92566455D01*
X155474206Y-92681664D01*
X155474202Y-92681671D01*
X155423908Y-92816517D01*
X155417501Y-92876116D01*
X155417500Y-92876135D01*
X155417500Y-94571870D01*
X155417501Y-94571876D01*
X155423908Y-94631483D01*
X155474202Y-94766328D01*
X155474206Y-94766335D01*
X155560452Y-94881544D01*
X155560455Y-94881547D01*
X155675664Y-94967793D01*
X155675671Y-94967797D01*
X155810517Y-95018091D01*
X155810516Y-95018091D01*
X155817444Y-95018835D01*
X155870127Y-95024500D01*
X157565872Y-95024499D01*
X157625483Y-95018091D01*
X157760331Y-94967796D01*
X157875546Y-94881546D01*
X157961796Y-94766331D01*
X158007372Y-94644135D01*
X158012090Y-94631486D01*
X158012090Y-94631485D01*
X158012091Y-94631483D01*
X158015944Y-94595644D01*
X158042679Y-94531098D01*
X158100070Y-94491248D01*
X158169895Y-94488753D01*
X158229985Y-94524404D01*
X158240806Y-94537777D01*
X158258341Y-94562819D01*
X158419179Y-94723657D01*
X158605517Y-94854134D01*
X158811673Y-94950265D01*
X158811682Y-94950269D01*
X159007999Y-95002872D01*
X159008000Y-95002871D01*
X159008000Y-94039686D01*
X159012394Y-94044080D01*
X159103606Y-94096741D01*
X159205339Y-94124000D01*
X159310661Y-94124000D01*
X159412394Y-94096741D01*
X159503606Y-94044080D01*
X159508000Y-94039686D01*
X159508000Y-95002872D01*
X159704317Y-94950269D01*
X159704326Y-94950265D01*
X159910482Y-94854134D01*
X160096820Y-94723657D01*
X160257657Y-94562820D01*
X160388132Y-94376484D01*
X160415341Y-94318134D01*
X160461513Y-94265695D01*
X160528707Y-94246542D01*
X160595588Y-94266757D01*
X160640105Y-94318132D01*
X160662088Y-94365275D01*
X160667431Y-94376732D01*
X160667432Y-94376734D01*
X160797954Y-94563141D01*
X160958858Y-94724045D01*
X161005693Y-94756839D01*
X161145266Y-94854568D01*
X161351504Y-94950739D01*
X161571308Y-95009635D01*
X161733230Y-95023801D01*
X161797998Y-95029468D01*
X161798000Y-95029468D01*
X161798002Y-95029468D01*
X161854807Y-95024498D01*
X162024692Y-95009635D01*
X162244496Y-94950739D01*
X162450734Y-94854568D01*
X162637139Y-94724047D01*
X162798047Y-94563139D01*
X162928568Y-94376734D01*
X162955618Y-94318724D01*
X163001790Y-94266285D01*
X163068983Y-94247133D01*
X163135865Y-94267348D01*
X163180381Y-94318724D01*
X163194517Y-94349038D01*
X163207429Y-94376728D01*
X163207432Y-94376734D01*
X163337954Y-94563141D01*
X163498858Y-94724045D01*
X163545693Y-94756839D01*
X163685266Y-94854568D01*
X163891504Y-94950739D01*
X164111308Y-95009635D01*
X164273230Y-95023801D01*
X164337998Y-95029468D01*
X164338000Y-95029468D01*
X164338002Y-95029468D01*
X164394807Y-95024498D01*
X164564692Y-95009635D01*
X164784496Y-94950739D01*
X164990734Y-94854568D01*
X165177139Y-94724047D01*
X165338047Y-94563139D01*
X165468568Y-94376734D01*
X165495618Y-94318724D01*
X165541790Y-94266285D01*
X165608983Y-94247133D01*
X165675865Y-94267348D01*
X165720381Y-94318724D01*
X165734517Y-94349038D01*
X165747429Y-94376728D01*
X165747432Y-94376734D01*
X165877954Y-94563141D01*
X166038858Y-94724045D01*
X166085693Y-94756839D01*
X166225266Y-94854568D01*
X166431504Y-94950739D01*
X166651308Y-95009635D01*
X166813230Y-95023801D01*
X166877998Y-95029468D01*
X166878000Y-95029468D01*
X166878002Y-95029468D01*
X166934807Y-95024498D01*
X167104692Y-95009635D01*
X167324496Y-94950739D01*
X167530734Y-94854568D01*
X167717139Y-94724047D01*
X167878047Y-94563139D01*
X168008568Y-94376734D01*
X168035618Y-94318724D01*
X168081790Y-94266285D01*
X168148983Y-94247133D01*
X168215865Y-94267348D01*
X168260381Y-94318724D01*
X168274517Y-94349038D01*
X168287429Y-94376728D01*
X168287432Y-94376734D01*
X168417954Y-94563141D01*
X168578858Y-94724045D01*
X168625693Y-94756839D01*
X168765266Y-94854568D01*
X168971504Y-94950739D01*
X169191308Y-95009635D01*
X169353230Y-95023801D01*
X169417998Y-95029468D01*
X169418000Y-95029468D01*
X169418002Y-95029468D01*
X169474807Y-95024498D01*
X169644692Y-95009635D01*
X169864496Y-94950739D01*
X170070734Y-94854568D01*
X170257139Y-94724047D01*
X170418047Y-94563139D01*
X170548568Y-94376734D01*
X170644739Y-94170496D01*
X170703635Y-93950692D01*
X170723468Y-93724000D01*
X170723319Y-93722302D01*
X170714194Y-93618003D01*
X170703635Y-93497308D01*
X170644739Y-93277504D01*
X170616989Y-93217994D01*
X181475202Y-93217994D01*
X181475202Y-93218005D01*
X181494361Y-93449218D01*
X181551317Y-93674135D01*
X181644516Y-93886609D01*
X181728811Y-94015633D01*
X182437861Y-93306584D01*
X182460667Y-93391694D01*
X182519910Y-93494306D01*
X182603694Y-93578090D01*
X182706306Y-93637333D01*
X182791414Y-93660138D01*
X182081201Y-94370351D01*
X182111649Y-94394050D01*
X182315697Y-94504476D01*
X182315706Y-94504479D01*
X182535139Y-94579811D01*
X182763993Y-94618000D01*
X182996007Y-94618000D01*
X183224860Y-94579811D01*
X183444293Y-94504479D01*
X183444301Y-94504476D01*
X183648355Y-94394047D01*
X183678797Y-94370351D01*
X183678798Y-94370350D01*
X182968585Y-93660137D01*
X183053694Y-93637333D01*
X183156306Y-93578090D01*
X183240090Y-93494306D01*
X183299333Y-93391694D01*
X183322138Y-93306585D01*
X184031186Y-94015634D01*
X184115484Y-93886606D01*
X184208682Y-93674135D01*
X184265638Y-93449218D01*
X184284798Y-93218005D01*
X184284798Y-93217994D01*
X184265638Y-92986781D01*
X184208682Y-92761864D01*
X184115483Y-92549390D01*
X184031186Y-92420364D01*
X183322137Y-93129413D01*
X183299333Y-93044306D01*
X183240090Y-92941694D01*
X183156306Y-92857910D01*
X183053694Y-92798667D01*
X182968584Y-92775861D01*
X183678797Y-92065647D01*
X183678797Y-92065645D01*
X183648360Y-92041955D01*
X183648354Y-92041951D01*
X183444302Y-91931523D01*
X183444293Y-91931520D01*
X183224860Y-91856188D01*
X182996007Y-91818000D01*
X182763993Y-91818000D01*
X182535139Y-91856188D01*
X182315706Y-91931520D01*
X182315697Y-91931523D01*
X182111650Y-92041949D01*
X182081200Y-92065647D01*
X182791415Y-92775861D01*
X182706306Y-92798667D01*
X182603694Y-92857910D01*
X182519910Y-92941694D01*
X182460667Y-93044306D01*
X182437861Y-93129414D01*
X181728812Y-92420365D01*
X181644516Y-92549391D01*
X181644514Y-92549395D01*
X181551317Y-92761864D01*
X181494361Y-92986781D01*
X181475202Y-93217994D01*
X170616989Y-93217994D01*
X170548568Y-93071266D01*
X170418047Y-92884861D01*
X170418045Y-92884858D01*
X170257141Y-92723954D01*
X170070734Y-92593432D01*
X170070732Y-92593431D01*
X169864497Y-92497261D01*
X169864488Y-92497258D01*
X169644697Y-92438366D01*
X169644693Y-92438365D01*
X169644692Y-92438365D01*
X169644691Y-92438364D01*
X169644686Y-92438364D01*
X169418002Y-92418532D01*
X169417998Y-92418532D01*
X169191313Y-92438364D01*
X169191302Y-92438366D01*
X168971511Y-92497258D01*
X168971502Y-92497261D01*
X168765267Y-92593431D01*
X168765265Y-92593432D01*
X168578858Y-92723954D01*
X168417954Y-92884858D01*
X168287432Y-93071265D01*
X168287431Y-93071267D01*
X168260382Y-93129275D01*
X168214209Y-93181714D01*
X168147016Y-93200866D01*
X168080135Y-93180650D01*
X168035618Y-93129275D01*
X168033469Y-93124666D01*
X168008568Y-93071266D01*
X167878047Y-92884861D01*
X167878045Y-92884858D01*
X167717141Y-92723954D01*
X167530734Y-92593432D01*
X167530732Y-92593431D01*
X167324497Y-92497261D01*
X167324488Y-92497258D01*
X167104697Y-92438366D01*
X167104693Y-92438365D01*
X167104692Y-92438365D01*
X167104691Y-92438364D01*
X167104686Y-92438364D01*
X166878002Y-92418532D01*
X166877998Y-92418532D01*
X166651313Y-92438364D01*
X166651302Y-92438366D01*
X166431511Y-92497258D01*
X166431502Y-92497261D01*
X166225267Y-92593431D01*
X166225265Y-92593432D01*
X166038858Y-92723954D01*
X165877954Y-92884858D01*
X165747432Y-93071265D01*
X165747431Y-93071267D01*
X165720382Y-93129275D01*
X165674209Y-93181714D01*
X165607016Y-93200866D01*
X165540135Y-93180650D01*
X165495618Y-93129275D01*
X165493469Y-93124666D01*
X165468568Y-93071266D01*
X165338047Y-92884861D01*
X165338045Y-92884858D01*
X165177141Y-92723954D01*
X165018377Y-92612787D01*
X164974752Y-92558210D01*
X164965500Y-92511212D01*
X164965500Y-92394196D01*
X164965499Y-92394192D01*
X164943135Y-92281759D01*
X164941386Y-92272965D01*
X164896412Y-92164392D01*
X164894764Y-92159786D01*
X164825414Y-92055996D01*
X164825413Y-92055994D01*
X164786207Y-92016788D01*
X164738008Y-91968589D01*
X162991777Y-90222358D01*
X187459500Y-89922141D01*
X187459500Y-128915500D01*
G37*
%TD.AperFunction*%
%TD*%
%TA.AperFunction,Conductor*%
%TO.N,GND*%
G36*
X149869758Y-80657185D02*
G01*
X149890400Y-80673819D01*
X159482004Y-90265423D01*
X146558000Y-90424000D01*
X146558000Y-88153226D01*
X146577685Y-88086187D01*
X146594315Y-88065549D01*
X150211638Y-84448225D01*
X150214923Y-84445060D01*
X150286258Y-84378873D01*
X150302661Y-84358302D01*
X150311925Y-84347939D01*
X150318739Y-84341126D01*
X150378634Y-84263067D01*
X150379967Y-84261364D01*
X150451708Y-84171405D01*
X150584389Y-83941595D01*
X150626411Y-83834520D01*
X150627230Y-83832487D01*
X150664887Y-83741580D01*
X150667386Y-83732250D01*
X150671724Y-83719065D01*
X150681336Y-83694577D01*
X150702977Y-83599759D01*
X150704094Y-83595254D01*
X150724955Y-83517404D01*
X150724957Y-83517398D01*
X150728534Y-83490219D01*
X150730579Y-83478829D01*
X150740385Y-83435869D01*
X150746327Y-83356566D01*
X150747037Y-83349674D01*
X150755251Y-83287295D01*
X150755251Y-83242126D01*
X150755598Y-83232859D01*
X150760215Y-83171253D01*
X150760215Y-83171246D01*
X150755598Y-83109639D01*
X150755251Y-83100372D01*
X150755251Y-83055206D01*
X150755251Y-83055205D01*
X150747036Y-82992813D01*
X150746327Y-82985941D01*
X150743180Y-82943938D01*
X150740386Y-82906638D01*
X150740385Y-82906634D01*
X150740385Y-82906631D01*
X150730581Y-82863681D01*
X150728534Y-82852274D01*
X150724957Y-82825101D01*
X150704093Y-82747239D01*
X150702976Y-82742735D01*
X150681340Y-82647939D01*
X150681338Y-82647933D01*
X150681336Y-82647923D01*
X150671728Y-82623444D01*
X150667388Y-82610254D01*
X150664887Y-82600920D01*
X150627263Y-82510088D01*
X150626395Y-82507936D01*
X150584389Y-82400906D01*
X150584389Y-82400905D01*
X150451708Y-82171095D01*
X150380016Y-82081196D01*
X150378587Y-82079369D01*
X150318742Y-82001376D01*
X150318739Y-82001373D01*
X150311905Y-81994539D01*
X150302654Y-81984187D01*
X150286258Y-81963627D01*
X150214951Y-81897464D01*
X150211652Y-81894286D01*
X150154627Y-81837261D01*
X150132874Y-81820569D01*
X150132869Y-81820565D01*
X150124017Y-81813090D01*
X150091734Y-81783136D01*
X150091730Y-81783133D01*
X150026027Y-81738337D01*
X150020393Y-81734260D01*
X149970505Y-81695980D01*
X149970503Y-81695979D01*
X149970497Y-81695974D01*
X149931387Y-81673393D01*
X149923560Y-81668476D01*
X149872483Y-81633652D01*
X149872484Y-81633652D01*
X149872479Y-81633649D01*
X149816802Y-81606836D01*
X149808607Y-81602505D01*
X149769511Y-81579934D01*
X149769496Y-81579926D01*
X149711397Y-81555860D01*
X149705051Y-81553020D01*
X149633416Y-81518522D01*
X149633403Y-81518517D01*
X149633400Y-81518516D01*
X149620289Y-81514471D01*
X149591303Y-81505530D01*
X149580404Y-81501602D01*
X149555083Y-81491114D01*
X149555081Y-81491113D01*
X149555080Y-81491113D01*
X149477180Y-81470239D01*
X149472760Y-81468965D01*
X149379827Y-81440299D01*
X149379828Y-81440299D01*
X149353838Y-81436382D01*
X149340236Y-81433544D01*
X149330909Y-81431045D01*
X149330901Y-81431043D01*
X149330899Y-81431043D01*
X149330893Y-81431042D01*
X149330892Y-81431042D01*
X149233354Y-81418200D01*
X149231060Y-81417876D01*
X149117438Y-81400750D01*
X149117431Y-81400750D01*
X149104667Y-81400750D01*
X149104635Y-81400749D01*
X149100795Y-81400749D01*
X148868705Y-81400749D01*
X148864865Y-81400749D01*
X148864833Y-81400750D01*
X148852061Y-81400750D01*
X148738426Y-81417878D01*
X148736132Y-81418202D01*
X148686182Y-81424778D01*
X148638602Y-81431043D01*
X148638600Y-81431043D01*
X148638595Y-81431044D01*
X148629260Y-81433545D01*
X148615670Y-81436380D01*
X148589668Y-81440300D01*
X148496735Y-81468966D01*
X148492281Y-81470249D01*
X148414432Y-81491109D01*
X148414418Y-81491113D01*
X148389097Y-81501601D01*
X148378205Y-81505526D01*
X148336104Y-81518514D01*
X148264445Y-81553023D01*
X148258097Y-81555863D01*
X148200004Y-81579925D01*
X148200003Y-81579926D01*
X148160891Y-81602507D01*
X148152697Y-81606837D01*
X148097019Y-81633651D01*
X148097013Y-81633654D01*
X148045957Y-81668463D01*
X148038111Y-81673393D01*
X147999008Y-81695970D01*
X147998995Y-81695979D01*
X147949110Y-81734257D01*
X147943478Y-81738333D01*
X147877765Y-81783135D01*
X147845473Y-81813097D01*
X147836625Y-81820569D01*
X147814876Y-81837258D01*
X147757885Y-81894249D01*
X147754547Y-81897464D01*
X147683242Y-81963626D01*
X147666845Y-81984187D01*
X147657581Y-81994552D01*
X146769681Y-82882453D01*
X146708358Y-82915938D01*
X146638667Y-82910954D01*
X146582733Y-82869082D01*
X146558316Y-82803618D01*
X146558000Y-82794772D01*
X146558000Y-80761500D01*
X146577685Y-80694461D01*
X146630489Y-80648706D01*
X146682000Y-80637500D01*
X149802719Y-80637500D01*
X149869758Y-80657185D01*
G37*
%TD.AperFunction*%
%TA.AperFunction,Conductor*%
G36*
X181660449Y-70377685D02*
G01*
X181706204Y-70430489D01*
X181716148Y-70499647D01*
X181687123Y-70563203D01*
X181645478Y-70594538D01*
X181536119Y-70645133D01*
X181331745Y-70739685D01*
X181069415Y-70897524D01*
X181025081Y-70924200D01*
X180936768Y-70991333D01*
X180740172Y-71140781D01*
X180740163Y-71140789D01*
X180480331Y-71386914D01*
X180248641Y-71659680D01*
X180248634Y-71659690D01*
X180047790Y-71955913D01*
X180047784Y-71955922D01*
X179880151Y-72272111D01*
X179880142Y-72272129D01*
X179747674Y-72604600D01*
X179747672Y-72604607D01*
X179651932Y-72949434D01*
X179651926Y-72949460D01*
X179594029Y-73302614D01*
X179594028Y-73302631D01*
X179574652Y-73659997D01*
X179574652Y-73660002D01*
X179594028Y-74017368D01*
X179594029Y-74017385D01*
X179651926Y-74370539D01*
X179651932Y-74370565D01*
X179747672Y-74715392D01*
X179747674Y-74715399D01*
X179880142Y-75047870D01*
X179880151Y-75047888D01*
X180047784Y-75364077D01*
X180047790Y-75364086D01*
X180248634Y-75660309D01*
X180248641Y-75660319D01*
X180480331Y-75933085D01*
X180480332Y-75933086D01*
X180740163Y-76179211D01*
X181025081Y-76395800D01*
X181331747Y-76580315D01*
X181331749Y-76580316D01*
X181331751Y-76580317D01*
X181331755Y-76580319D01*
X181656552Y-76730585D01*
X181656565Y-76730591D01*
X181995726Y-76844868D01*
X182345254Y-76921805D01*
X182701052Y-76960500D01*
X182701058Y-76960500D01*
X183058942Y-76960500D01*
X183058948Y-76960500D01*
X183414746Y-76921805D01*
X183764274Y-76844868D01*
X184103435Y-76730591D01*
X184428253Y-76580315D01*
X184734919Y-76395800D01*
X185019837Y-76179211D01*
X185279668Y-75933086D01*
X185511365Y-75660311D01*
X185712211Y-75364085D01*
X185879853Y-75047880D01*
X186012324Y-74715403D01*
X186108071Y-74370552D01*
X186165972Y-74017371D01*
X186185348Y-73660000D01*
X186165972Y-73302629D01*
X186108071Y-72949448D01*
X186012324Y-72604597D01*
X185879853Y-72272120D01*
X185712211Y-71955915D01*
X185511365Y-71659689D01*
X185511361Y-71659684D01*
X185511358Y-71659680D01*
X185279668Y-71386914D01*
X185019837Y-71140789D01*
X185019830Y-71140783D01*
X185019827Y-71140781D01*
X184952245Y-71089407D01*
X184734919Y-70924200D01*
X184559418Y-70818604D01*
X184428254Y-70739685D01*
X184304468Y-70682416D01*
X184114522Y-70594538D01*
X184061946Y-70548525D01*
X184042592Y-70481390D01*
X184062606Y-70414448D01*
X184115634Y-70368953D01*
X184166590Y-70358000D01*
X187331179Y-70358000D01*
X187398218Y-70377685D01*
X187443973Y-70430489D01*
X187455137Y-70478780D01*
X187459458Y-70645133D01*
X187459500Y-70648353D01*
X187459500Y-89922141D01*
X162991777Y-90222358D01*
X150260011Y-77490591D01*
X150260007Y-77490588D01*
X150157239Y-77421920D01*
X150157226Y-77421913D01*
X150123785Y-77408062D01*
X150043035Y-77374614D01*
X150043027Y-77374612D01*
X149921807Y-77350500D01*
X149921803Y-77350500D01*
X146682000Y-77350500D01*
X146614961Y-77330815D01*
X146569206Y-77278011D01*
X146558000Y-77226500D01*
X146558000Y-70482000D01*
X146577685Y-70414961D01*
X146630489Y-70369206D01*
X146682000Y-70358000D01*
X181593410Y-70358000D01*
X181660449Y-70377685D01*
G37*
%TD.AperFunction*%
%TD*%
M02*
