%TF.GenerationSoftware,KiCad,Pcbnew,8.0.8+1*%
%TF.CreationDate,2025-02-28T13:17:03+11:00*%
%TF.ProjectId,vmon,766d6f6e-2e6b-4696-9361-645f70636258,rev?*%
%TF.SameCoordinates,Original*%
%TF.FileFunction,Soldermask,Bot*%
%TF.FilePolarity,Negative*%
%FSLAX46Y46*%
G04 Gerber Fmt 4.6, Leading zero omitted, Abs format (unit mm)*
G04 Created by KiCad (PCBNEW 8.0.8+1) date 2025-02-28 13:17:03*
%MOMM*%
%LPD*%
G01*
G04 APERTURE LIST*
G04 Aperture macros list*
%AMRoundRect*
0 Rectangle with rounded corners*
0 $1 Rounding radius*
0 $2 $3 $4 $5 $6 $7 $8 $9 X,Y pos of 4 corners*
0 Add a 4 corners polygon primitive as box body*
4,1,4,$2,$3,$4,$5,$6,$7,$8,$9,$2,$3,0*
0 Add four circle primitives for the rounded corners*
1,1,$1+$1,$2,$3*
1,1,$1+$1,$4,$5*
1,1,$1+$1,$6,$7*
1,1,$1+$1,$8,$9*
0 Add four rect primitives between the rounded corners*
20,1,$1+$1,$2,$3,$4,$5,0*
20,1,$1+$1,$4,$5,$6,$7,0*
20,1,$1+$1,$6,$7,$8,$9,0*
20,1,$1+$1,$8,$9,$2,$3,0*%
G04 Aperture macros list end*
%ADD10R,2.000000X1.200000*%
%ADD11O,2.000000X1.200000*%
%ADD12R,1.600000X1.600000*%
%ADD13O,1.600000X1.600000*%
%ADD14RoundRect,0.250000X0.650000X1.550000X-0.650000X1.550000X-0.650000X-1.550000X0.650000X-1.550000X0*%
%ADD15O,1.800000X3.600000*%
%ADD16C,3.600000*%
%ADD17C,5.600000*%
%ADD18RoundRect,0.250000X-0.893000X0.893000X-0.893000X-0.893000X0.893000X-0.893000X0.893000X0.893000X0*%
%ADD19C,2.286000*%
%ADD20C,2.900000*%
%ADD21C,5.000000*%
%ADD22C,8.800000*%
%ADD23C,16.800000*%
%ADD24C,1.800000*%
G04 APERTURE END LIST*
D10*
%TO.C,U1*%
X109728000Y-81280000D03*
D11*
X109728000Y-83820000D03*
X109728000Y-86360000D03*
X109728000Y-88900000D03*
X109728000Y-91440000D03*
X109728000Y-93980000D03*
X109728000Y-96520000D03*
X109728000Y-99060000D03*
X109728000Y-101600000D03*
X109728000Y-104140000D03*
X109728000Y-106680000D03*
X109728000Y-109220000D03*
X109728000Y-111760000D03*
X109728000Y-114300000D03*
X109728000Y-116840000D03*
X135128000Y-116840000D03*
X135128000Y-114300000D03*
X135128000Y-111760000D03*
X135128000Y-109220000D03*
X135128000Y-106680000D03*
X135128000Y-104140000D03*
X135128000Y-101600000D03*
X135128000Y-99060000D03*
X135128000Y-96520000D03*
X135128000Y-93980000D03*
X135128000Y-91440000D03*
X135128000Y-88900000D03*
X135128000Y-86360000D03*
X135128000Y-83820000D03*
X135128000Y-81280000D03*
%TD*%
D12*
%TO.C,U6*%
X97028000Y-84328000D03*
D13*
X94488000Y-84328000D03*
X94488000Y-91948000D03*
X97028000Y-91948000D03*
%TD*%
D14*
%TO.C,J4*%
X98243000Y-78370500D03*
D15*
X93163000Y-78370500D03*
X88083000Y-78370500D03*
X83003000Y-78370500D03*
%TD*%
D16*
%TO.C,H1*%
X55880000Y-73660000D03*
D17*
X55880000Y-73660000D03*
%TD*%
D12*
%TO.C,U3*%
X61468000Y-91948000D03*
D13*
X61468000Y-94488000D03*
X61468000Y-97028000D03*
X61468000Y-99568000D03*
X61468000Y-102108000D03*
X61468000Y-104648000D03*
%TD*%
D16*
%TO.C,H4*%
X182880000Y-124460000D03*
D17*
X182880000Y-124460000D03*
%TD*%
D14*
%TO.C,J3*%
X71573000Y-78370500D03*
D15*
X66493000Y-78370500D03*
%TD*%
D12*
%TO.C,U4*%
X156718000Y-93724000D03*
D13*
X159258000Y-93724000D03*
X161798000Y-93724000D03*
X164338000Y-93724000D03*
X166878000Y-93724000D03*
X169418000Y-93724000D03*
%TD*%
D12*
%TO.C,U5*%
X69093000Y-84338000D03*
D13*
X66553000Y-84338000D03*
X66553000Y-91958000D03*
X69093000Y-91958000D03*
%TD*%
D18*
%TO.C,U2*%
X71098000Y-99551400D03*
D19*
X71098000Y-113351400D03*
X100098000Y-113351400D03*
X100098000Y-99551400D03*
X79756000Y-99568000D03*
%TD*%
D16*
%TO.C,H3*%
X182880000Y-73660000D03*
D17*
X182880000Y-73660000D03*
%TD*%
D20*
%TO.C,H2*%
X182880000Y-101600000D03*
D21*
X182880000Y-101600000D03*
%TD*%
D22*
%TO.C,B12+1*%
X50038000Y-99568000D03*
D23*
X50038000Y-99568000D03*
%TD*%
D12*
%TO.C,U8*%
X94488000Y-119888000D03*
D13*
X91948000Y-119888000D03*
X89408000Y-119888000D03*
X86868000Y-119888000D03*
X84328000Y-119888000D03*
X81788000Y-119888000D03*
X79248000Y-119888000D03*
X76708000Y-119888000D03*
X74168000Y-119888000D03*
X71628000Y-119888000D03*
%TD*%
D12*
%TO.C,U7*%
X84328000Y-91948000D03*
D13*
X86868000Y-91948000D03*
X86868000Y-84328000D03*
X84328000Y-84328000D03*
%TD*%
D16*
%TO.C,H5*%
X55880000Y-124460000D03*
D17*
X55880000Y-124460000D03*
%TD*%
D24*
%TO.C,TP1*%
X182880000Y-93218000D03*
%TD*%
M02*
