%TF.GenerationSoftware,KiCad,Pcbnew,8.0.8+1*%
%TF.CreationDate,2025-02-28T11:20:59+11:00*%
%TF.ProjectId,vmon,766d6f6e-2e6b-4696-9361-645f70636258,rev?*%
%TF.SameCoordinates,Original*%
%TF.FileFunction,Drillmap*%
%TF.FilePolarity,Positive*%
%FSLAX45Y45*%
G04 Gerber Fmt 4.5, Leading zero omitted, Abs format (unit mm)*
G04 Created by KiCad (PCBNEW 8.0.8+1) date 2025-02-28 11:20:59*
%MOMM*%
%LPD*%
G01*
G04 APERTURE LIST*
%ADD10C,0.050000*%
%ADD11C,0.200000*%
G04 APERTURE END LIST*
D10*
X18796000Y-6858000D02*
X18796000Y-12954000D01*
X5080000Y-12954000D02*
X5080000Y-11430000D01*
X5080000Y-11430000D02*
G75*
G02*
X5080000Y-8382000I0J1524000D01*
G01*
X18796000Y-12954000D02*
X5080000Y-12954000D01*
X5080000Y-6858000D02*
X18796000Y-6858000D01*
X5080000Y-8382000D02*
X5080000Y-6858000D01*
D11*
X3814277Y-13267984D02*
X3814277Y-13067984D01*
X3814277Y-13067984D02*
X3861896Y-13067984D01*
X3861896Y-13067984D02*
X3890467Y-13077508D01*
X3890467Y-13077508D02*
X3909515Y-13096555D01*
X3909515Y-13096555D02*
X3919039Y-13115603D01*
X3919039Y-13115603D02*
X3928562Y-13153698D01*
X3928562Y-13153698D02*
X3928562Y-13182269D01*
X3928562Y-13182269D02*
X3919039Y-13220365D01*
X3919039Y-13220365D02*
X3909515Y-13239412D01*
X3909515Y-13239412D02*
X3890467Y-13258460D01*
X3890467Y-13258460D02*
X3861896Y-13267984D01*
X3861896Y-13267984D02*
X3814277Y-13267984D01*
X4014277Y-13267984D02*
X4014277Y-13134650D01*
X4014277Y-13172746D02*
X4023801Y-13153698D01*
X4023801Y-13153698D02*
X4033324Y-13144174D01*
X4033324Y-13144174D02*
X4052372Y-13134650D01*
X4052372Y-13134650D02*
X4071420Y-13134650D01*
X4138086Y-13267984D02*
X4138086Y-13134650D01*
X4138086Y-13067984D02*
X4128562Y-13077508D01*
X4128562Y-13077508D02*
X4138086Y-13087031D01*
X4138086Y-13087031D02*
X4147610Y-13077508D01*
X4147610Y-13077508D02*
X4138086Y-13067984D01*
X4138086Y-13067984D02*
X4138086Y-13087031D01*
X4261896Y-13267984D02*
X4242848Y-13258460D01*
X4242848Y-13258460D02*
X4233324Y-13239412D01*
X4233324Y-13239412D02*
X4233324Y-13067984D01*
X4366658Y-13267984D02*
X4347610Y-13258460D01*
X4347610Y-13258460D02*
X4338086Y-13239412D01*
X4338086Y-13239412D02*
X4338086Y-13067984D01*
X4595229Y-13267984D02*
X4595229Y-13067984D01*
X4595229Y-13067984D02*
X4661896Y-13210841D01*
X4661896Y-13210841D02*
X4728563Y-13067984D01*
X4728563Y-13067984D02*
X4728563Y-13267984D01*
X4909515Y-13267984D02*
X4909515Y-13163222D01*
X4909515Y-13163222D02*
X4899991Y-13144174D01*
X4899991Y-13144174D02*
X4880944Y-13134650D01*
X4880944Y-13134650D02*
X4842848Y-13134650D01*
X4842848Y-13134650D02*
X4823801Y-13144174D01*
X4909515Y-13258460D02*
X4890467Y-13267984D01*
X4890467Y-13267984D02*
X4842848Y-13267984D01*
X4842848Y-13267984D02*
X4823801Y-13258460D01*
X4823801Y-13258460D02*
X4814277Y-13239412D01*
X4814277Y-13239412D02*
X4814277Y-13220365D01*
X4814277Y-13220365D02*
X4823801Y-13201317D01*
X4823801Y-13201317D02*
X4842848Y-13191793D01*
X4842848Y-13191793D02*
X4890467Y-13191793D01*
X4890467Y-13191793D02*
X4909515Y-13182269D01*
X5004753Y-13134650D02*
X5004753Y-13334650D01*
X5004753Y-13144174D02*
X5023801Y-13134650D01*
X5023801Y-13134650D02*
X5061896Y-13134650D01*
X5061896Y-13134650D02*
X5080944Y-13144174D01*
X5080944Y-13144174D02*
X5090467Y-13153698D01*
X5090467Y-13153698D02*
X5099991Y-13172746D01*
X5099991Y-13172746D02*
X5099991Y-13229888D01*
X5099991Y-13229888D02*
X5090467Y-13248936D01*
X5090467Y-13248936D02*
X5080944Y-13258460D01*
X5080944Y-13258460D02*
X5061896Y-13267984D01*
X5061896Y-13267984D02*
X5023801Y-13267984D01*
X5023801Y-13267984D02*
X5004753Y-13258460D01*
X5185705Y-13248936D02*
X5195229Y-13258460D01*
X5195229Y-13258460D02*
X5185705Y-13267984D01*
X5185705Y-13267984D02*
X5176182Y-13258460D01*
X5176182Y-13258460D02*
X5185705Y-13248936D01*
X5185705Y-13248936D02*
X5185705Y-13267984D01*
X5185705Y-13144174D02*
X5195229Y-13153698D01*
X5195229Y-13153698D02*
X5185705Y-13163222D01*
X5185705Y-13163222D02*
X5176182Y-13153698D01*
X5176182Y-13153698D02*
X5185705Y-13144174D01*
X5185705Y-13144174D02*
X5185705Y-13163222D01*
M02*
