%TF.GenerationSoftware,KiCad,Pcbnew,8.0.8+1*%
%TF.CreationDate,2025-02-28T11:20:59+11:00*%
%TF.ProjectId,vmon,766d6f6e-2e6b-4696-9361-645f70636258,rev?*%
%TF.SameCoordinates,Original*%
%TF.FileFunction,Drillmap*%
%TF.FilePolarity,Positive*%
%FSLAX45Y45*%
G04 Gerber Fmt 4.5, Leading zero omitted, Abs format (unit mm)*
G04 Created by KiCad (PCBNEW 8.0.8+1) date 2025-02-28 11:20:59*
%MOMM*%
%LPD*%
G01*
G04 APERTURE LIST*
%ADD10C,0.050000*%
%ADD11C,0.200000*%
%ADD12C,0.100000*%
%ADD13C,0.120000*%
%ADD14C,0.250000*%
%ADD15C,0.320000*%
%ADD16C,0.840000*%
G04 APERTURE END LIST*
D10*
X18796000Y-6858000D02*
X18796000Y-12954000D01*
X5080000Y-12954000D02*
X5080000Y-11430000D01*
X5080000Y-11430000D02*
G75*
G02*
X5080000Y-8382000I0J1524000D01*
G01*
X18796000Y-12954000D02*
X5080000Y-12954000D01*
X5080000Y-6858000D02*
X18796000Y-6858000D01*
X5080000Y-8382000D02*
X5080000Y-6858000D01*
D11*
D12*
X7239000Y-10820400D02*
X7289800Y-10871200D01*
X7289800Y-10820400D02*
X7239000Y-10871200D01*
X7848600Y-8788400D02*
X7899400Y-8839200D01*
X7899400Y-8788400D02*
X7848600Y-8839200D01*
X8001000Y-9296400D02*
X8051800Y-9347200D01*
X8051800Y-9296400D02*
X8001000Y-9347200D01*
X8255000Y-10236200D02*
X8305800Y-10287000D01*
X8305800Y-10236200D02*
X8255000Y-10287000D01*
X9093200Y-9423400D02*
X9144000Y-9474200D01*
X9144000Y-9423400D02*
X9093200Y-9474200D01*
X9423400Y-10591800D02*
X9474200Y-10642600D01*
X9474200Y-10591800D02*
X9423400Y-10642600D01*
X9575800Y-12319000D02*
X9626600Y-12369800D01*
X9626600Y-12319000D02*
X9575800Y-12369800D01*
X9804400Y-10541000D02*
X9855200Y-10591800D01*
X9855200Y-10541000D02*
X9804400Y-10591800D01*
X9931400Y-10998200D02*
X9982200Y-11049000D01*
X9982200Y-10998200D02*
X9931400Y-11049000D01*
X10058400Y-9423400D02*
X10109200Y-9474200D01*
X10109200Y-9423400D02*
X10058400Y-9474200D01*
X10439400Y-12395200D02*
X10490200Y-12446000D01*
X10490200Y-12395200D02*
X10439400Y-12446000D01*
X13817600Y-9118600D02*
X13868400Y-9169400D01*
X13868400Y-9118600D02*
X13817600Y-9169400D01*
X13868400Y-9956800D02*
X13919200Y-10007600D01*
X13919200Y-9956800D02*
X13868400Y-10007600D01*
X14376400Y-7975600D02*
X14427200Y-8026400D01*
X14427200Y-7975600D02*
X14376400Y-8026400D01*
X17653000Y-9296400D02*
X17703800Y-9347200D01*
X17703800Y-9296400D02*
X17653000Y-9347200D01*
X6504670Y-11978370D02*
G75*
G02*
X6428470Y-11978370I-38100J0D01*
G01*
X6428470Y-11978370D02*
G75*
G02*
X6504670Y-11978370I38100J0D01*
G01*
X14490700Y-9296400D02*
G75*
G02*
X14414500Y-9296400I-38100J0D01*
G01*
X14414500Y-9296400D02*
G75*
G02*
X14490700Y-9296400I38100J0D01*
G01*
X14490700Y-9906200D02*
G75*
G02*
X14414500Y-9906200I-38100J0D01*
G01*
X14414500Y-9906200D02*
G75*
G02*
X14490700Y-9906200I38100J0D01*
G01*
X14936575Y-8317125D02*
G75*
G02*
X14860375Y-8317125I-38100J0D01*
G01*
X14860375Y-8317125D02*
G75*
G02*
X14936575Y-8317125I38100J0D01*
G01*
X14947900Y-10363400D02*
G75*
G02*
X14871700Y-10363400I-38100J0D01*
G01*
X14871700Y-10363400D02*
G75*
G02*
X14947900Y-10363400I38100J0D01*
G01*
X15252700Y-11455400D02*
G75*
G02*
X15176500Y-11455400I-38100J0D01*
G01*
X15176500Y-11455400D02*
G75*
G02*
X15252700Y-11455400I38100J0D01*
G01*
X15278100Y-9753400D02*
G75*
G02*
X15201900Y-9753400I-38100J0D01*
G01*
X15201900Y-9753400D02*
G75*
G02*
X15278100Y-9753400I38100J0D01*
G01*
X15532100Y-11455400D02*
G75*
G02*
X15455900Y-11455400I-38100J0D01*
G01*
X15455900Y-11455400D02*
G75*
G02*
X15532100Y-11455400I38100J0D01*
G01*
X15557500Y-9753600D02*
G75*
G02*
X15481300Y-9753600I-38100J0D01*
G01*
X15481300Y-9753600D02*
G75*
G02*
X15557500Y-9753600I38100J0D01*
G01*
X15836900Y-11455400D02*
G75*
G02*
X15760700Y-11455400I-38100J0D01*
G01*
X15760700Y-11455400D02*
G75*
G02*
X15836900Y-11455400I38100J0D01*
G01*
X15862300Y-9753600D02*
G75*
G02*
X15786100Y-9753600I-38100J0D01*
G01*
X15786100Y-9753600D02*
G75*
G02*
X15862300Y-9753600I38100J0D01*
G01*
X6146800Y-9154800D02*
X6146800Y-9234800D01*
X6106800Y-9194800D02*
X6186800Y-9194800D01*
X6146800Y-9408800D02*
X6146800Y-9488800D01*
X6106800Y-9448800D02*
X6186800Y-9448800D01*
X6146800Y-9662800D02*
X6146800Y-9742800D01*
X6106800Y-9702800D02*
X6186800Y-9702800D01*
X6146800Y-9916800D02*
X6146800Y-9996800D01*
X6106800Y-9956800D02*
X6186800Y-9956800D01*
X6146800Y-10170800D02*
X6146800Y-10250800D01*
X6106800Y-10210800D02*
X6186800Y-10210800D01*
X6146800Y-10424800D02*
X6146800Y-10504800D01*
X6106800Y-10464800D02*
X6186800Y-10464800D01*
X6655300Y-8393800D02*
X6655300Y-8473800D01*
X6615300Y-8433800D02*
X6695300Y-8433800D01*
X6655300Y-9155800D02*
X6655300Y-9235800D01*
X6615300Y-9195800D02*
X6695300Y-9195800D01*
X6909300Y-8393800D02*
X6909300Y-8473800D01*
X6869300Y-8433800D02*
X6949300Y-8433800D01*
X6909300Y-9155800D02*
X6909300Y-9235800D01*
X6869300Y-9195800D02*
X6949300Y-9195800D01*
X7162800Y-11948800D02*
X7162800Y-12028800D01*
X7122800Y-11988800D02*
X7202800Y-11988800D01*
X7416800Y-11948800D02*
X7416800Y-12028800D01*
X7376800Y-11988800D02*
X7456800Y-11988800D01*
X7670800Y-11948800D02*
X7670800Y-12028800D01*
X7630800Y-11988800D02*
X7710800Y-11988800D01*
X7924800Y-11948800D02*
X7924800Y-12028800D01*
X7884800Y-11988800D02*
X7964800Y-11988800D01*
X8178800Y-11948800D02*
X8178800Y-12028800D01*
X8138800Y-11988800D02*
X8218800Y-11988800D01*
X8432800Y-8392800D02*
X8432800Y-8472800D01*
X8392800Y-8432800D02*
X8472800Y-8432800D01*
X8432800Y-9154800D02*
X8432800Y-9234800D01*
X8392800Y-9194800D02*
X8472800Y-9194800D01*
X8432800Y-11948800D02*
X8432800Y-12028800D01*
X8392800Y-11988800D02*
X8472800Y-11988800D01*
X8686800Y-8392800D02*
X8686800Y-8472800D01*
X8646800Y-8432800D02*
X8726800Y-8432800D01*
X8686800Y-9154800D02*
X8686800Y-9234800D01*
X8646800Y-9194800D02*
X8726800Y-9194800D01*
X8686800Y-11948800D02*
X8686800Y-12028800D01*
X8646800Y-11988800D02*
X8726800Y-11988800D01*
X8940800Y-11948800D02*
X8940800Y-12028800D01*
X8900800Y-11988800D02*
X8980800Y-11988800D01*
X9194800Y-11948800D02*
X9194800Y-12028800D01*
X9154800Y-11988800D02*
X9234800Y-11988800D01*
X9448800Y-8392800D02*
X9448800Y-8472800D01*
X9408800Y-8432800D02*
X9488800Y-8432800D01*
X9448800Y-9154800D02*
X9448800Y-9234800D01*
X9408800Y-9194800D02*
X9488800Y-9194800D01*
X9448800Y-11948800D02*
X9448800Y-12028800D01*
X9408800Y-11988800D02*
X9488800Y-11988800D01*
X9702800Y-8392800D02*
X9702800Y-8472800D01*
X9662800Y-8432800D02*
X9742800Y-8432800D01*
X9702800Y-9154800D02*
X9702800Y-9234800D01*
X9662800Y-9194800D02*
X9742800Y-9194800D01*
X10972800Y-8088000D02*
X10972800Y-8168000D01*
X10932800Y-8128000D02*
X11012800Y-8128000D01*
X10972800Y-8342000D02*
X10972800Y-8422000D01*
X10932800Y-8382000D02*
X11012800Y-8382000D01*
X10972800Y-8596000D02*
X10972800Y-8676000D01*
X10932800Y-8636000D02*
X11012800Y-8636000D01*
X10972800Y-8850000D02*
X10972800Y-8930000D01*
X10932800Y-8890000D02*
X11012800Y-8890000D01*
X10972800Y-9104000D02*
X10972800Y-9184000D01*
X10932800Y-9144000D02*
X11012800Y-9144000D01*
X10972800Y-9358000D02*
X10972800Y-9438000D01*
X10932800Y-9398000D02*
X11012800Y-9398000D01*
X10972800Y-9612000D02*
X10972800Y-9692000D01*
X10932800Y-9652000D02*
X11012800Y-9652000D01*
X10972800Y-9866000D02*
X10972800Y-9946000D01*
X10932800Y-9906000D02*
X11012800Y-9906000D01*
X10972800Y-10120000D02*
X10972800Y-10200000D01*
X10932800Y-10160000D02*
X11012800Y-10160000D01*
X10972800Y-10374000D02*
X10972800Y-10454000D01*
X10932800Y-10414000D02*
X11012800Y-10414000D01*
X10972800Y-10628000D02*
X10972800Y-10708000D01*
X10932800Y-10668000D02*
X11012800Y-10668000D01*
X10972800Y-10882000D02*
X10972800Y-10962000D01*
X10932800Y-10922000D02*
X11012800Y-10922000D01*
X10972800Y-11136000D02*
X10972800Y-11216000D01*
X10932800Y-11176000D02*
X11012800Y-11176000D01*
X10972800Y-11390000D02*
X10972800Y-11470000D01*
X10932800Y-11430000D02*
X11012800Y-11430000D01*
X10972800Y-11644000D02*
X10972800Y-11724000D01*
X10932800Y-11684000D02*
X11012800Y-11684000D01*
X13512800Y-8088000D02*
X13512800Y-8168000D01*
X13472800Y-8128000D02*
X13552800Y-8128000D01*
X13512800Y-8342000D02*
X13512800Y-8422000D01*
X13472800Y-8382000D02*
X13552800Y-8382000D01*
X13512800Y-8596000D02*
X13512800Y-8676000D01*
X13472800Y-8636000D02*
X13552800Y-8636000D01*
X13512800Y-8850000D02*
X13512800Y-8930000D01*
X13472800Y-8890000D02*
X13552800Y-8890000D01*
X13512800Y-9104000D02*
X13512800Y-9184000D01*
X13472800Y-9144000D02*
X13552800Y-9144000D01*
X13512800Y-9358000D02*
X13512800Y-9438000D01*
X13472800Y-9398000D02*
X13552800Y-9398000D01*
X13512800Y-9612000D02*
X13512800Y-9692000D01*
X13472800Y-9652000D02*
X13552800Y-9652000D01*
X13512800Y-9866000D02*
X13512800Y-9946000D01*
X13472800Y-9906000D02*
X13552800Y-9906000D01*
X13512800Y-10120000D02*
X13512800Y-10200000D01*
X13472800Y-10160000D02*
X13552800Y-10160000D01*
X13512800Y-10374000D02*
X13512800Y-10454000D01*
X13472800Y-10414000D02*
X13552800Y-10414000D01*
X13512800Y-10628000D02*
X13512800Y-10708000D01*
X13472800Y-10668000D02*
X13552800Y-10668000D01*
X13512800Y-10882000D02*
X13512800Y-10962000D01*
X13472800Y-10922000D02*
X13552800Y-10922000D01*
X13512800Y-11136000D02*
X13512800Y-11216000D01*
X13472800Y-11176000D02*
X13552800Y-11176000D01*
X13512800Y-11390000D02*
X13512800Y-11470000D01*
X13472800Y-11430000D02*
X13552800Y-11430000D01*
X13512800Y-11644000D02*
X13512800Y-11724000D01*
X13472800Y-11684000D02*
X13552800Y-11684000D01*
X15671800Y-9332400D02*
X15671800Y-9412400D01*
X15631800Y-9372400D02*
X15711800Y-9372400D01*
X15925800Y-9332400D02*
X15925800Y-9412400D01*
X15885800Y-9372400D02*
X15965800Y-9372400D01*
X16179800Y-9332400D02*
X16179800Y-9412400D01*
X16139800Y-9372400D02*
X16219800Y-9372400D01*
X16433800Y-9332400D02*
X16433800Y-9412400D01*
X16393800Y-9372400D02*
X16473800Y-9372400D01*
X16687800Y-9332400D02*
X16687800Y-9412400D01*
X16647800Y-9372400D02*
X16727800Y-9372400D01*
X16941800Y-9332400D02*
X16941800Y-9412400D01*
X16901800Y-9372400D02*
X16981800Y-9372400D01*
X18319820Y-9353620D02*
X18319820Y-9289980D01*
X18256180Y-9289980D01*
X18256180Y-9353620D01*
X18319820Y-9353620D01*
X7109800Y-10005140D02*
X7159800Y-9955140D01*
X7109800Y-9905140D01*
X7059800Y-9955140D01*
X7109800Y-10005140D01*
X7109800Y-11385140D02*
X7159800Y-11335140D01*
X7109800Y-11285140D01*
X7059800Y-11335140D01*
X7109800Y-11385140D01*
X7975600Y-10006800D02*
X8025600Y-9956800D01*
X7975600Y-9906800D01*
X7925600Y-9956800D01*
X7975600Y-10006800D01*
X10009800Y-10005140D02*
X10059800Y-9955140D01*
X10009800Y-9905140D01*
X9959800Y-9955140D01*
X10009800Y-10005140D01*
X10009800Y-11385140D02*
X10059800Y-11335140D01*
X10009800Y-11285140D01*
X9959800Y-11335140D01*
X10009800Y-11385140D01*
D13*
X6589300Y-7777050D02*
X6709300Y-7897050D01*
X6709300Y-7777050D02*
X6589300Y-7897050D01*
X6709300Y-7837050D02*
G75*
G02*
X6589300Y-7837050I-60000J0D01*
G01*
X6589300Y-7837050D02*
G75*
G02*
X6709300Y-7837050I60000J0D01*
G01*
X7097300Y-7777050D02*
X7217300Y-7897050D01*
X7217300Y-7777050D02*
X7097300Y-7897050D01*
X7217300Y-7837050D02*
G75*
G02*
X7097300Y-7837050I-60000J0D01*
G01*
X7097300Y-7837050D02*
G75*
G02*
X7217300Y-7837050I60000J0D01*
G01*
X8240300Y-7777050D02*
X8360300Y-7897050D01*
X8360300Y-7777050D02*
X8240300Y-7897050D01*
X8360300Y-7837050D02*
G75*
G02*
X8240300Y-7837050I-60000J0D01*
G01*
X8240300Y-7837050D02*
G75*
G02*
X8360300Y-7837050I60000J0D01*
G01*
X8748300Y-7777050D02*
X8868300Y-7897050D01*
X8868300Y-7777050D02*
X8748300Y-7897050D01*
X8868300Y-7837050D02*
G75*
G02*
X8748300Y-7837050I-60000J0D01*
G01*
X8748300Y-7837050D02*
G75*
G02*
X8868300Y-7837050I60000J0D01*
G01*
X9256300Y-7777050D02*
X9376300Y-7897050D01*
X9376300Y-7777050D02*
X9256300Y-7897050D01*
X9376300Y-7837050D02*
G75*
G02*
X9256300Y-7837050I-60000J0D01*
G01*
X9256300Y-7837050D02*
G75*
G02*
X9376300Y-7837050I60000J0D01*
G01*
X9764300Y-7777050D02*
X9884300Y-7897050D01*
X9884300Y-7777050D02*
X9764300Y-7897050D01*
X9884300Y-7837050D02*
G75*
G02*
X9764300Y-7837050I-60000J0D01*
G01*
X9764300Y-7837050D02*
G75*
G02*
X9884300Y-7837050I60000J0D01*
G01*
D14*
X18163000Y-10035000D02*
X18413000Y-10285000D01*
X18413000Y-10035000D02*
X18163000Y-10285000D01*
X18288000Y-10035000D02*
X18288000Y-10285000D01*
X18163000Y-10160000D02*
X18413000Y-10160000D01*
D15*
X5428000Y-7206000D02*
X5748000Y-7526000D01*
X5748000Y-7206000D02*
X5428000Y-7526000D01*
X5701138Y-7479138D02*
X5701138Y-7252862D01*
X5474862Y-7252862D01*
X5474862Y-7479138D01*
X5701138Y-7479138D01*
X5428000Y-12286000D02*
X5748000Y-12606000D01*
X5748000Y-12286000D02*
X5428000Y-12606000D01*
X5701138Y-12559138D02*
X5701138Y-12332862D01*
X5474862Y-12332862D01*
X5474862Y-12559138D01*
X5701138Y-12559138D01*
X18128000Y-7206000D02*
X18448000Y-7526000D01*
X18448000Y-7206000D02*
X18128000Y-7526000D01*
X18401138Y-7479138D02*
X18401138Y-7252862D01*
X18174862Y-7252862D01*
X18174862Y-7479138D01*
X18401138Y-7479138D01*
X18128000Y-12286000D02*
X18448000Y-12606000D01*
X18448000Y-12286000D02*
X18128000Y-12606000D01*
X18401138Y-12559138D02*
X18401138Y-12332862D01*
X18174862Y-12332862D01*
X18174862Y-12559138D01*
X18401138Y-12559138D01*
D16*
X4583800Y-9536800D02*
X5423800Y-10376800D01*
X5423800Y-9536800D02*
X4583800Y-10376800D01*
X5003800Y-10376800D02*
X5423800Y-9956800D01*
X5003800Y-9536800D01*
X4583800Y-9956800D01*
X5003800Y-10376800D01*
D11*
X3814277Y-13267984D02*
X3814277Y-13067984D01*
X3814277Y-13067984D02*
X3861896Y-13067984D01*
X3861896Y-13067984D02*
X3890467Y-13077508D01*
X3890467Y-13077508D02*
X3909515Y-13096555D01*
X3909515Y-13096555D02*
X3919039Y-13115603D01*
X3919039Y-13115603D02*
X3928562Y-13153698D01*
X3928562Y-13153698D02*
X3928562Y-13182269D01*
X3928562Y-13182269D02*
X3919039Y-13220365D01*
X3919039Y-13220365D02*
X3909515Y-13239412D01*
X3909515Y-13239412D02*
X3890467Y-13258460D01*
X3890467Y-13258460D02*
X3861896Y-13267984D01*
X3861896Y-13267984D02*
X3814277Y-13267984D01*
X4014277Y-13267984D02*
X4014277Y-13134650D01*
X4014277Y-13172746D02*
X4023801Y-13153698D01*
X4023801Y-13153698D02*
X4033324Y-13144174D01*
X4033324Y-13144174D02*
X4052372Y-13134650D01*
X4052372Y-13134650D02*
X4071420Y-13134650D01*
X4138086Y-13267984D02*
X4138086Y-13134650D01*
X4138086Y-13067984D02*
X4128562Y-13077508D01*
X4128562Y-13077508D02*
X4138086Y-13087031D01*
X4138086Y-13087031D02*
X4147610Y-13077508D01*
X4147610Y-13077508D02*
X4138086Y-13067984D01*
X4138086Y-13067984D02*
X4138086Y-13087031D01*
X4261896Y-13267984D02*
X4242848Y-13258460D01*
X4242848Y-13258460D02*
X4233324Y-13239412D01*
X4233324Y-13239412D02*
X4233324Y-13067984D01*
X4366658Y-13267984D02*
X4347610Y-13258460D01*
X4347610Y-13258460D02*
X4338086Y-13239412D01*
X4338086Y-13239412D02*
X4338086Y-13067984D01*
X4595229Y-13267984D02*
X4595229Y-13067984D01*
X4595229Y-13067984D02*
X4661896Y-13210841D01*
X4661896Y-13210841D02*
X4728563Y-13067984D01*
X4728563Y-13067984D02*
X4728563Y-13267984D01*
X4909515Y-13267984D02*
X4909515Y-13163222D01*
X4909515Y-13163222D02*
X4899991Y-13144174D01*
X4899991Y-13144174D02*
X4880944Y-13134650D01*
X4880944Y-13134650D02*
X4842848Y-13134650D01*
X4842848Y-13134650D02*
X4823801Y-13144174D01*
X4909515Y-13258460D02*
X4890467Y-13267984D01*
X4890467Y-13267984D02*
X4842848Y-13267984D01*
X4842848Y-13267984D02*
X4823801Y-13258460D01*
X4823801Y-13258460D02*
X4814277Y-13239412D01*
X4814277Y-13239412D02*
X4814277Y-13220365D01*
X4814277Y-13220365D02*
X4823801Y-13201317D01*
X4823801Y-13201317D02*
X4842848Y-13191793D01*
X4842848Y-13191793D02*
X4890467Y-13191793D01*
X4890467Y-13191793D02*
X4909515Y-13182269D01*
X5004753Y-13134650D02*
X5004753Y-13334650D01*
X5004753Y-13144174D02*
X5023801Y-13134650D01*
X5023801Y-13134650D02*
X5061896Y-13134650D01*
X5061896Y-13134650D02*
X5080944Y-13144174D01*
X5080944Y-13144174D02*
X5090467Y-13153698D01*
X5090467Y-13153698D02*
X5099991Y-13172746D01*
X5099991Y-13172746D02*
X5099991Y-13229888D01*
X5099991Y-13229888D02*
X5090467Y-13248936D01*
X5090467Y-13248936D02*
X5080944Y-13258460D01*
X5080944Y-13258460D02*
X5061896Y-13267984D01*
X5061896Y-13267984D02*
X5023801Y-13267984D01*
X5023801Y-13267984D02*
X5004753Y-13258460D01*
X5185705Y-13248936D02*
X5195229Y-13258460D01*
X5195229Y-13258460D02*
X5185705Y-13267984D01*
X5185705Y-13267984D02*
X5176182Y-13258460D01*
X5176182Y-13258460D02*
X5185705Y-13248936D01*
X5185705Y-13248936D02*
X5185705Y-13267984D01*
X5185705Y-13144174D02*
X5195229Y-13153698D01*
X5195229Y-13153698D02*
X5185705Y-13163222D01*
X5185705Y-13163222D02*
X5176182Y-13153698D01*
X5176182Y-13153698D02*
X5185705Y-13144174D01*
X5185705Y-13144174D02*
X5185705Y-13163222D01*
D12*
X3502700Y-13571100D02*
X3553500Y-13621900D01*
X3553500Y-13571100D02*
X3502700Y-13621900D01*
D11*
X3852372Y-13487984D02*
X3871420Y-13487984D01*
X3871420Y-13487984D02*
X3890467Y-13497508D01*
X3890467Y-13497508D02*
X3899991Y-13507031D01*
X3899991Y-13507031D02*
X3909515Y-13526079D01*
X3909515Y-13526079D02*
X3919039Y-13564174D01*
X3919039Y-13564174D02*
X3919039Y-13611793D01*
X3919039Y-13611793D02*
X3909515Y-13649888D01*
X3909515Y-13649888D02*
X3899991Y-13668936D01*
X3899991Y-13668936D02*
X3890467Y-13678460D01*
X3890467Y-13678460D02*
X3871420Y-13687984D01*
X3871420Y-13687984D02*
X3852372Y-13687984D01*
X3852372Y-13687984D02*
X3833324Y-13678460D01*
X3833324Y-13678460D02*
X3823801Y-13668936D01*
X3823801Y-13668936D02*
X3814277Y-13649888D01*
X3814277Y-13649888D02*
X3804753Y-13611793D01*
X3804753Y-13611793D02*
X3804753Y-13564174D01*
X3804753Y-13564174D02*
X3814277Y-13526079D01*
X3814277Y-13526079D02*
X3823801Y-13507031D01*
X3823801Y-13507031D02*
X3833324Y-13497508D01*
X3833324Y-13497508D02*
X3852372Y-13487984D01*
X4004753Y-13668936D02*
X4014277Y-13678460D01*
X4014277Y-13678460D02*
X4004753Y-13687984D01*
X4004753Y-13687984D02*
X3995229Y-13678460D01*
X3995229Y-13678460D02*
X4004753Y-13668936D01*
X4004753Y-13668936D02*
X4004753Y-13687984D01*
X4195229Y-13487984D02*
X4099991Y-13487984D01*
X4099991Y-13487984D02*
X4090467Y-13583222D01*
X4090467Y-13583222D02*
X4099991Y-13573698D01*
X4099991Y-13573698D02*
X4119039Y-13564174D01*
X4119039Y-13564174D02*
X4166658Y-13564174D01*
X4166658Y-13564174D02*
X4185705Y-13573698D01*
X4185705Y-13573698D02*
X4195229Y-13583222D01*
X4195229Y-13583222D02*
X4204753Y-13602269D01*
X4204753Y-13602269D02*
X4204753Y-13649888D01*
X4204753Y-13649888D02*
X4195229Y-13668936D01*
X4195229Y-13668936D02*
X4185705Y-13678460D01*
X4185705Y-13678460D02*
X4166658Y-13687984D01*
X4166658Y-13687984D02*
X4119039Y-13687984D01*
X4119039Y-13687984D02*
X4099991Y-13678460D01*
X4099991Y-13678460D02*
X4090467Y-13668936D01*
X4328563Y-13487984D02*
X4347610Y-13487984D01*
X4347610Y-13487984D02*
X4366658Y-13497508D01*
X4366658Y-13497508D02*
X4376182Y-13507031D01*
X4376182Y-13507031D02*
X4385705Y-13526079D01*
X4385705Y-13526079D02*
X4395229Y-13564174D01*
X4395229Y-13564174D02*
X4395229Y-13611793D01*
X4395229Y-13611793D02*
X4385705Y-13649888D01*
X4385705Y-13649888D02*
X4376182Y-13668936D01*
X4376182Y-13668936D02*
X4366658Y-13678460D01*
X4366658Y-13678460D02*
X4347610Y-13687984D01*
X4347610Y-13687984D02*
X4328563Y-13687984D01*
X4328563Y-13687984D02*
X4309515Y-13678460D01*
X4309515Y-13678460D02*
X4299991Y-13668936D01*
X4299991Y-13668936D02*
X4290467Y-13649888D01*
X4290467Y-13649888D02*
X4280944Y-13611793D01*
X4280944Y-13611793D02*
X4280944Y-13564174D01*
X4280944Y-13564174D02*
X4290467Y-13526079D01*
X4290467Y-13526079D02*
X4299991Y-13507031D01*
X4299991Y-13507031D02*
X4309515Y-13497508D01*
X4309515Y-13497508D02*
X4328563Y-13487984D01*
X4509515Y-13573698D02*
X4490467Y-13564174D01*
X4490467Y-13564174D02*
X4480944Y-13554650D01*
X4480944Y-13554650D02*
X4471420Y-13535603D01*
X4471420Y-13535603D02*
X4471420Y-13526079D01*
X4471420Y-13526079D02*
X4480944Y-13507031D01*
X4480944Y-13507031D02*
X4490467Y-13497508D01*
X4490467Y-13497508D02*
X4509515Y-13487984D01*
X4509515Y-13487984D02*
X4547610Y-13487984D01*
X4547610Y-13487984D02*
X4566658Y-13497508D01*
X4566658Y-13497508D02*
X4576182Y-13507031D01*
X4576182Y-13507031D02*
X4585705Y-13526079D01*
X4585705Y-13526079D02*
X4585705Y-13535603D01*
X4585705Y-13535603D02*
X4576182Y-13554650D01*
X4576182Y-13554650D02*
X4566658Y-13564174D01*
X4566658Y-13564174D02*
X4547610Y-13573698D01*
X4547610Y-13573698D02*
X4509515Y-13573698D01*
X4509515Y-13573698D02*
X4490467Y-13583222D01*
X4490467Y-13583222D02*
X4480944Y-13592746D01*
X4480944Y-13592746D02*
X4471420Y-13611793D01*
X4471420Y-13611793D02*
X4471420Y-13649888D01*
X4471420Y-13649888D02*
X4480944Y-13668936D01*
X4480944Y-13668936D02*
X4490467Y-13678460D01*
X4490467Y-13678460D02*
X4509515Y-13687984D01*
X4509515Y-13687984D02*
X4547610Y-13687984D01*
X4547610Y-13687984D02*
X4566658Y-13678460D01*
X4566658Y-13678460D02*
X4576182Y-13668936D01*
X4576182Y-13668936D02*
X4585705Y-13649888D01*
X4585705Y-13649888D02*
X4585705Y-13611793D01*
X4585705Y-13611793D02*
X4576182Y-13592746D01*
X4576182Y-13592746D02*
X4566658Y-13583222D01*
X4566658Y-13583222D02*
X4547610Y-13573698D01*
X4671420Y-13687984D02*
X4671420Y-13554650D01*
X4671420Y-13573698D02*
X4680944Y-13564174D01*
X4680944Y-13564174D02*
X4699991Y-13554650D01*
X4699991Y-13554650D02*
X4728563Y-13554650D01*
X4728563Y-13554650D02*
X4747610Y-13564174D01*
X4747610Y-13564174D02*
X4757134Y-13583222D01*
X4757134Y-13583222D02*
X4757134Y-13687984D01*
X4757134Y-13583222D02*
X4766658Y-13564174D01*
X4766658Y-13564174D02*
X4785705Y-13554650D01*
X4785705Y-13554650D02*
X4814277Y-13554650D01*
X4814277Y-13554650D02*
X4833325Y-13564174D01*
X4833325Y-13564174D02*
X4842848Y-13583222D01*
X4842848Y-13583222D02*
X4842848Y-13687984D01*
X4938086Y-13687984D02*
X4938086Y-13554650D01*
X4938086Y-13573698D02*
X4947610Y-13564174D01*
X4947610Y-13564174D02*
X4966658Y-13554650D01*
X4966658Y-13554650D02*
X4995229Y-13554650D01*
X4995229Y-13554650D02*
X5014277Y-13564174D01*
X5014277Y-13564174D02*
X5023801Y-13583222D01*
X5023801Y-13583222D02*
X5023801Y-13687984D01*
X5023801Y-13583222D02*
X5033325Y-13564174D01*
X5033325Y-13564174D02*
X5052372Y-13554650D01*
X5052372Y-13554650D02*
X5080944Y-13554650D01*
X5080944Y-13554650D02*
X5099991Y-13564174D01*
X5099991Y-13564174D02*
X5109515Y-13583222D01*
X5109515Y-13583222D02*
X5109515Y-13687984D01*
X5499991Y-13478460D02*
X5328563Y-13735603D01*
X5757134Y-13487984D02*
X5776182Y-13487984D01*
X5776182Y-13487984D02*
X5795229Y-13497508D01*
X5795229Y-13497508D02*
X5804753Y-13507031D01*
X5804753Y-13507031D02*
X5814277Y-13526079D01*
X5814277Y-13526079D02*
X5823801Y-13564174D01*
X5823801Y-13564174D02*
X5823801Y-13611793D01*
X5823801Y-13611793D02*
X5814277Y-13649888D01*
X5814277Y-13649888D02*
X5804753Y-13668936D01*
X5804753Y-13668936D02*
X5795229Y-13678460D01*
X5795229Y-13678460D02*
X5776182Y-13687984D01*
X5776182Y-13687984D02*
X5757134Y-13687984D01*
X5757134Y-13687984D02*
X5738086Y-13678460D01*
X5738086Y-13678460D02*
X5728563Y-13668936D01*
X5728563Y-13668936D02*
X5719039Y-13649888D01*
X5719039Y-13649888D02*
X5709515Y-13611793D01*
X5709515Y-13611793D02*
X5709515Y-13564174D01*
X5709515Y-13564174D02*
X5719039Y-13526079D01*
X5719039Y-13526079D02*
X5728563Y-13507031D01*
X5728563Y-13507031D02*
X5738086Y-13497508D01*
X5738086Y-13497508D02*
X5757134Y-13487984D01*
X5909515Y-13668936D02*
X5919039Y-13678460D01*
X5919039Y-13678460D02*
X5909515Y-13687984D01*
X5909515Y-13687984D02*
X5899991Y-13678460D01*
X5899991Y-13678460D02*
X5909515Y-13668936D01*
X5909515Y-13668936D02*
X5909515Y-13687984D01*
X6042848Y-13487984D02*
X6061896Y-13487984D01*
X6061896Y-13487984D02*
X6080944Y-13497508D01*
X6080944Y-13497508D02*
X6090467Y-13507031D01*
X6090467Y-13507031D02*
X6099991Y-13526079D01*
X6099991Y-13526079D02*
X6109515Y-13564174D01*
X6109515Y-13564174D02*
X6109515Y-13611793D01*
X6109515Y-13611793D02*
X6099991Y-13649888D01*
X6099991Y-13649888D02*
X6090467Y-13668936D01*
X6090467Y-13668936D02*
X6080944Y-13678460D01*
X6080944Y-13678460D02*
X6061896Y-13687984D01*
X6061896Y-13687984D02*
X6042848Y-13687984D01*
X6042848Y-13687984D02*
X6023801Y-13678460D01*
X6023801Y-13678460D02*
X6014277Y-13668936D01*
X6014277Y-13668936D02*
X6004753Y-13649888D01*
X6004753Y-13649888D02*
X5995229Y-13611793D01*
X5995229Y-13611793D02*
X5995229Y-13564174D01*
X5995229Y-13564174D02*
X6004753Y-13526079D01*
X6004753Y-13526079D02*
X6014277Y-13507031D01*
X6014277Y-13507031D02*
X6023801Y-13497508D01*
X6023801Y-13497508D02*
X6042848Y-13487984D01*
X6185706Y-13507031D02*
X6195229Y-13497508D01*
X6195229Y-13497508D02*
X6214277Y-13487984D01*
X6214277Y-13487984D02*
X6261896Y-13487984D01*
X6261896Y-13487984D02*
X6280944Y-13497508D01*
X6280944Y-13497508D02*
X6290467Y-13507031D01*
X6290467Y-13507031D02*
X6299991Y-13526079D01*
X6299991Y-13526079D02*
X6299991Y-13545127D01*
X6299991Y-13545127D02*
X6290467Y-13573698D01*
X6290467Y-13573698D02*
X6176182Y-13687984D01*
X6176182Y-13687984D02*
X6299991Y-13687984D01*
X6423801Y-13487984D02*
X6442848Y-13487984D01*
X6442848Y-13487984D02*
X6461896Y-13497508D01*
X6461896Y-13497508D02*
X6471420Y-13507031D01*
X6471420Y-13507031D02*
X6480944Y-13526079D01*
X6480944Y-13526079D02*
X6490467Y-13564174D01*
X6490467Y-13564174D02*
X6490467Y-13611793D01*
X6490467Y-13611793D02*
X6480944Y-13649888D01*
X6480944Y-13649888D02*
X6471420Y-13668936D01*
X6471420Y-13668936D02*
X6461896Y-13678460D01*
X6461896Y-13678460D02*
X6442848Y-13687984D01*
X6442848Y-13687984D02*
X6423801Y-13687984D01*
X6423801Y-13687984D02*
X6404753Y-13678460D01*
X6404753Y-13678460D02*
X6395229Y-13668936D01*
X6395229Y-13668936D02*
X6385706Y-13649888D01*
X6385706Y-13649888D02*
X6376182Y-13611793D01*
X6376182Y-13611793D02*
X6376182Y-13564174D01*
X6376182Y-13564174D02*
X6385706Y-13526079D01*
X6385706Y-13526079D02*
X6395229Y-13507031D01*
X6395229Y-13507031D02*
X6404753Y-13497508D01*
X6404753Y-13497508D02*
X6423801Y-13487984D01*
X6614277Y-13487984D02*
X6633325Y-13487984D01*
X6633325Y-13487984D02*
X6652372Y-13497508D01*
X6652372Y-13497508D02*
X6661896Y-13507031D01*
X6661896Y-13507031D02*
X6671420Y-13526079D01*
X6671420Y-13526079D02*
X6680944Y-13564174D01*
X6680944Y-13564174D02*
X6680944Y-13611793D01*
X6680944Y-13611793D02*
X6671420Y-13649888D01*
X6671420Y-13649888D02*
X6661896Y-13668936D01*
X6661896Y-13668936D02*
X6652372Y-13678460D01*
X6652372Y-13678460D02*
X6633325Y-13687984D01*
X6633325Y-13687984D02*
X6614277Y-13687984D01*
X6614277Y-13687984D02*
X6595229Y-13678460D01*
X6595229Y-13678460D02*
X6585706Y-13668936D01*
X6585706Y-13668936D02*
X6576182Y-13649888D01*
X6576182Y-13649888D02*
X6566658Y-13611793D01*
X6566658Y-13611793D02*
X6566658Y-13564174D01*
X6566658Y-13564174D02*
X6576182Y-13526079D01*
X6576182Y-13526079D02*
X6585706Y-13507031D01*
X6585706Y-13507031D02*
X6595229Y-13497508D01*
X6595229Y-13497508D02*
X6614277Y-13487984D01*
X6757134Y-13487984D02*
X6757134Y-13526079D01*
X6833325Y-13487984D02*
X6833325Y-13526079D01*
X7128563Y-13764174D02*
X7119039Y-13754650D01*
X7119039Y-13754650D02*
X7099991Y-13726079D01*
X7099991Y-13726079D02*
X7090468Y-13707031D01*
X7090468Y-13707031D02*
X7080944Y-13678460D01*
X7080944Y-13678460D02*
X7071420Y-13630841D01*
X7071420Y-13630841D02*
X7071420Y-13592746D01*
X7071420Y-13592746D02*
X7080944Y-13545127D01*
X7080944Y-13545127D02*
X7090468Y-13516555D01*
X7090468Y-13516555D02*
X7099991Y-13497508D01*
X7099991Y-13497508D02*
X7119039Y-13468936D01*
X7119039Y-13468936D02*
X7128563Y-13459412D01*
X7309515Y-13687984D02*
X7195229Y-13687984D01*
X7252372Y-13687984D02*
X7252372Y-13487984D01*
X7252372Y-13487984D02*
X7233325Y-13516555D01*
X7233325Y-13516555D02*
X7214277Y-13535603D01*
X7214277Y-13535603D02*
X7195229Y-13545127D01*
X7490468Y-13487984D02*
X7395229Y-13487984D01*
X7395229Y-13487984D02*
X7385706Y-13583222D01*
X7385706Y-13583222D02*
X7395229Y-13573698D01*
X7395229Y-13573698D02*
X7414277Y-13564174D01*
X7414277Y-13564174D02*
X7461896Y-13564174D01*
X7461896Y-13564174D02*
X7480944Y-13573698D01*
X7480944Y-13573698D02*
X7490468Y-13583222D01*
X7490468Y-13583222D02*
X7499991Y-13602269D01*
X7499991Y-13602269D02*
X7499991Y-13649888D01*
X7499991Y-13649888D02*
X7490468Y-13668936D01*
X7490468Y-13668936D02*
X7480944Y-13678460D01*
X7480944Y-13678460D02*
X7461896Y-13687984D01*
X7461896Y-13687984D02*
X7414277Y-13687984D01*
X7414277Y-13687984D02*
X7395229Y-13678460D01*
X7395229Y-13678460D02*
X7385706Y-13668936D01*
X7738087Y-13687984D02*
X7738087Y-13487984D01*
X7823801Y-13687984D02*
X7823801Y-13583222D01*
X7823801Y-13583222D02*
X7814277Y-13564174D01*
X7814277Y-13564174D02*
X7795230Y-13554650D01*
X7795230Y-13554650D02*
X7766658Y-13554650D01*
X7766658Y-13554650D02*
X7747610Y-13564174D01*
X7747610Y-13564174D02*
X7738087Y-13573698D01*
X7947610Y-13687984D02*
X7928563Y-13678460D01*
X7928563Y-13678460D02*
X7919039Y-13668936D01*
X7919039Y-13668936D02*
X7909515Y-13649888D01*
X7909515Y-13649888D02*
X7909515Y-13592746D01*
X7909515Y-13592746D02*
X7919039Y-13573698D01*
X7919039Y-13573698D02*
X7928563Y-13564174D01*
X7928563Y-13564174D02*
X7947610Y-13554650D01*
X7947610Y-13554650D02*
X7976182Y-13554650D01*
X7976182Y-13554650D02*
X7995230Y-13564174D01*
X7995230Y-13564174D02*
X8004753Y-13573698D01*
X8004753Y-13573698D02*
X8014277Y-13592746D01*
X8014277Y-13592746D02*
X8014277Y-13649888D01*
X8014277Y-13649888D02*
X8004753Y-13668936D01*
X8004753Y-13668936D02*
X7995230Y-13678460D01*
X7995230Y-13678460D02*
X7976182Y-13687984D01*
X7976182Y-13687984D02*
X7947610Y-13687984D01*
X8128563Y-13687984D02*
X8109515Y-13678460D01*
X8109515Y-13678460D02*
X8099991Y-13659412D01*
X8099991Y-13659412D02*
X8099991Y-13487984D01*
X8280944Y-13678460D02*
X8261896Y-13687984D01*
X8261896Y-13687984D02*
X8223801Y-13687984D01*
X8223801Y-13687984D02*
X8204753Y-13678460D01*
X8204753Y-13678460D02*
X8195230Y-13659412D01*
X8195230Y-13659412D02*
X8195230Y-13583222D01*
X8195230Y-13583222D02*
X8204753Y-13564174D01*
X8204753Y-13564174D02*
X8223801Y-13554650D01*
X8223801Y-13554650D02*
X8261896Y-13554650D01*
X8261896Y-13554650D02*
X8280944Y-13564174D01*
X8280944Y-13564174D02*
X8290468Y-13583222D01*
X8290468Y-13583222D02*
X8290468Y-13602269D01*
X8290468Y-13602269D02*
X8195230Y-13621317D01*
X8366658Y-13678460D02*
X8385706Y-13687984D01*
X8385706Y-13687984D02*
X8423801Y-13687984D01*
X8423801Y-13687984D02*
X8442849Y-13678460D01*
X8442849Y-13678460D02*
X8452373Y-13659412D01*
X8452373Y-13659412D02*
X8452373Y-13649888D01*
X8452373Y-13649888D02*
X8442849Y-13630841D01*
X8442849Y-13630841D02*
X8423801Y-13621317D01*
X8423801Y-13621317D02*
X8395230Y-13621317D01*
X8395230Y-13621317D02*
X8376182Y-13611793D01*
X8376182Y-13611793D02*
X8366658Y-13592746D01*
X8366658Y-13592746D02*
X8366658Y-13583222D01*
X8366658Y-13583222D02*
X8376182Y-13564174D01*
X8376182Y-13564174D02*
X8395230Y-13554650D01*
X8395230Y-13554650D02*
X8423801Y-13554650D01*
X8423801Y-13554650D02*
X8442849Y-13564174D01*
X8519039Y-13764174D02*
X8528563Y-13754650D01*
X8528563Y-13754650D02*
X8547611Y-13726079D01*
X8547611Y-13726079D02*
X8557134Y-13707031D01*
X8557134Y-13707031D02*
X8566658Y-13678460D01*
X8566658Y-13678460D02*
X8576182Y-13630841D01*
X8576182Y-13630841D02*
X8576182Y-13592746D01*
X8576182Y-13592746D02*
X8566658Y-13545127D01*
X8566658Y-13545127D02*
X8557134Y-13516555D01*
X8557134Y-13516555D02*
X8547611Y-13497508D01*
X8547611Y-13497508D02*
X8528563Y-13468936D01*
X8528563Y-13468936D02*
X8519039Y-13459412D01*
D12*
X3553500Y-13860500D02*
G75*
G02*
X3477300Y-13860500I-38100J0D01*
G01*
X3477300Y-13860500D02*
G75*
G02*
X3553500Y-13860500I38100J0D01*
G01*
D11*
X3852372Y-13751984D02*
X3871420Y-13751984D01*
X3871420Y-13751984D02*
X3890467Y-13761508D01*
X3890467Y-13761508D02*
X3899991Y-13771031D01*
X3899991Y-13771031D02*
X3909515Y-13790079D01*
X3909515Y-13790079D02*
X3919039Y-13828174D01*
X3919039Y-13828174D02*
X3919039Y-13875793D01*
X3919039Y-13875793D02*
X3909515Y-13913888D01*
X3909515Y-13913888D02*
X3899991Y-13932936D01*
X3899991Y-13932936D02*
X3890467Y-13942460D01*
X3890467Y-13942460D02*
X3871420Y-13951984D01*
X3871420Y-13951984D02*
X3852372Y-13951984D01*
X3852372Y-13951984D02*
X3833324Y-13942460D01*
X3833324Y-13942460D02*
X3823801Y-13932936D01*
X3823801Y-13932936D02*
X3814277Y-13913888D01*
X3814277Y-13913888D02*
X3804753Y-13875793D01*
X3804753Y-13875793D02*
X3804753Y-13828174D01*
X3804753Y-13828174D02*
X3814277Y-13790079D01*
X3814277Y-13790079D02*
X3823801Y-13771031D01*
X3823801Y-13771031D02*
X3833324Y-13761508D01*
X3833324Y-13761508D02*
X3852372Y-13751984D01*
X4004753Y-13932936D02*
X4014277Y-13942460D01*
X4014277Y-13942460D02*
X4004753Y-13951984D01*
X4004753Y-13951984D02*
X3995229Y-13942460D01*
X3995229Y-13942460D02*
X4004753Y-13932936D01*
X4004753Y-13932936D02*
X4004753Y-13951984D01*
X4080943Y-13751984D02*
X4214277Y-13751984D01*
X4214277Y-13751984D02*
X4128562Y-13951984D01*
X4376182Y-13751984D02*
X4338086Y-13751984D01*
X4338086Y-13751984D02*
X4319039Y-13761508D01*
X4319039Y-13761508D02*
X4309515Y-13771031D01*
X4309515Y-13771031D02*
X4290467Y-13799603D01*
X4290467Y-13799603D02*
X4280944Y-13837698D01*
X4280944Y-13837698D02*
X4280944Y-13913888D01*
X4280944Y-13913888D02*
X4290467Y-13932936D01*
X4290467Y-13932936D02*
X4299991Y-13942460D01*
X4299991Y-13942460D02*
X4319039Y-13951984D01*
X4319039Y-13951984D02*
X4357134Y-13951984D01*
X4357134Y-13951984D02*
X4376182Y-13942460D01*
X4376182Y-13942460D02*
X4385705Y-13932936D01*
X4385705Y-13932936D02*
X4395229Y-13913888D01*
X4395229Y-13913888D02*
X4395229Y-13866269D01*
X4395229Y-13866269D02*
X4385705Y-13847222D01*
X4385705Y-13847222D02*
X4376182Y-13837698D01*
X4376182Y-13837698D02*
X4357134Y-13828174D01*
X4357134Y-13828174D02*
X4319039Y-13828174D01*
X4319039Y-13828174D02*
X4299991Y-13837698D01*
X4299991Y-13837698D02*
X4290467Y-13847222D01*
X4290467Y-13847222D02*
X4280944Y-13866269D01*
X4471420Y-13771031D02*
X4480944Y-13761508D01*
X4480944Y-13761508D02*
X4499991Y-13751984D01*
X4499991Y-13751984D02*
X4547610Y-13751984D01*
X4547610Y-13751984D02*
X4566658Y-13761508D01*
X4566658Y-13761508D02*
X4576182Y-13771031D01*
X4576182Y-13771031D02*
X4585705Y-13790079D01*
X4585705Y-13790079D02*
X4585705Y-13809127D01*
X4585705Y-13809127D02*
X4576182Y-13837698D01*
X4576182Y-13837698D02*
X4461896Y-13951984D01*
X4461896Y-13951984D02*
X4585705Y-13951984D01*
X4671420Y-13951984D02*
X4671420Y-13818650D01*
X4671420Y-13837698D02*
X4680944Y-13828174D01*
X4680944Y-13828174D02*
X4699991Y-13818650D01*
X4699991Y-13818650D02*
X4728563Y-13818650D01*
X4728563Y-13818650D02*
X4747610Y-13828174D01*
X4747610Y-13828174D02*
X4757134Y-13847222D01*
X4757134Y-13847222D02*
X4757134Y-13951984D01*
X4757134Y-13847222D02*
X4766658Y-13828174D01*
X4766658Y-13828174D02*
X4785705Y-13818650D01*
X4785705Y-13818650D02*
X4814277Y-13818650D01*
X4814277Y-13818650D02*
X4833325Y-13828174D01*
X4833325Y-13828174D02*
X4842848Y-13847222D01*
X4842848Y-13847222D02*
X4842848Y-13951984D01*
X4938086Y-13951984D02*
X4938086Y-13818650D01*
X4938086Y-13837698D02*
X4947610Y-13828174D01*
X4947610Y-13828174D02*
X4966658Y-13818650D01*
X4966658Y-13818650D02*
X4995229Y-13818650D01*
X4995229Y-13818650D02*
X5014277Y-13828174D01*
X5014277Y-13828174D02*
X5023801Y-13847222D01*
X5023801Y-13847222D02*
X5023801Y-13951984D01*
X5023801Y-13847222D02*
X5033325Y-13828174D01*
X5033325Y-13828174D02*
X5052372Y-13818650D01*
X5052372Y-13818650D02*
X5080944Y-13818650D01*
X5080944Y-13818650D02*
X5099991Y-13828174D01*
X5099991Y-13828174D02*
X5109515Y-13847222D01*
X5109515Y-13847222D02*
X5109515Y-13951984D01*
X5499991Y-13742460D02*
X5328563Y-13999603D01*
X5757134Y-13751984D02*
X5776182Y-13751984D01*
X5776182Y-13751984D02*
X5795229Y-13761508D01*
X5795229Y-13761508D02*
X5804753Y-13771031D01*
X5804753Y-13771031D02*
X5814277Y-13790079D01*
X5814277Y-13790079D02*
X5823801Y-13828174D01*
X5823801Y-13828174D02*
X5823801Y-13875793D01*
X5823801Y-13875793D02*
X5814277Y-13913888D01*
X5814277Y-13913888D02*
X5804753Y-13932936D01*
X5804753Y-13932936D02*
X5795229Y-13942460D01*
X5795229Y-13942460D02*
X5776182Y-13951984D01*
X5776182Y-13951984D02*
X5757134Y-13951984D01*
X5757134Y-13951984D02*
X5738086Y-13942460D01*
X5738086Y-13942460D02*
X5728563Y-13932936D01*
X5728563Y-13932936D02*
X5719039Y-13913888D01*
X5719039Y-13913888D02*
X5709515Y-13875793D01*
X5709515Y-13875793D02*
X5709515Y-13828174D01*
X5709515Y-13828174D02*
X5719039Y-13790079D01*
X5719039Y-13790079D02*
X5728563Y-13771031D01*
X5728563Y-13771031D02*
X5738086Y-13761508D01*
X5738086Y-13761508D02*
X5757134Y-13751984D01*
X5909515Y-13932936D02*
X5919039Y-13942460D01*
X5919039Y-13942460D02*
X5909515Y-13951984D01*
X5909515Y-13951984D02*
X5899991Y-13942460D01*
X5899991Y-13942460D02*
X5909515Y-13932936D01*
X5909515Y-13932936D02*
X5909515Y-13951984D01*
X6042848Y-13751984D02*
X6061896Y-13751984D01*
X6061896Y-13751984D02*
X6080944Y-13761508D01*
X6080944Y-13761508D02*
X6090467Y-13771031D01*
X6090467Y-13771031D02*
X6099991Y-13790079D01*
X6099991Y-13790079D02*
X6109515Y-13828174D01*
X6109515Y-13828174D02*
X6109515Y-13875793D01*
X6109515Y-13875793D02*
X6099991Y-13913888D01*
X6099991Y-13913888D02*
X6090467Y-13932936D01*
X6090467Y-13932936D02*
X6080944Y-13942460D01*
X6080944Y-13942460D02*
X6061896Y-13951984D01*
X6061896Y-13951984D02*
X6042848Y-13951984D01*
X6042848Y-13951984D02*
X6023801Y-13942460D01*
X6023801Y-13942460D02*
X6014277Y-13932936D01*
X6014277Y-13932936D02*
X6004753Y-13913888D01*
X6004753Y-13913888D02*
X5995229Y-13875793D01*
X5995229Y-13875793D02*
X5995229Y-13828174D01*
X5995229Y-13828174D02*
X6004753Y-13790079D01*
X6004753Y-13790079D02*
X6014277Y-13771031D01*
X6014277Y-13771031D02*
X6023801Y-13761508D01*
X6023801Y-13761508D02*
X6042848Y-13751984D01*
X6176182Y-13751984D02*
X6299991Y-13751984D01*
X6299991Y-13751984D02*
X6233325Y-13828174D01*
X6233325Y-13828174D02*
X6261896Y-13828174D01*
X6261896Y-13828174D02*
X6280944Y-13837698D01*
X6280944Y-13837698D02*
X6290467Y-13847222D01*
X6290467Y-13847222D02*
X6299991Y-13866269D01*
X6299991Y-13866269D02*
X6299991Y-13913888D01*
X6299991Y-13913888D02*
X6290467Y-13932936D01*
X6290467Y-13932936D02*
X6280944Y-13942460D01*
X6280944Y-13942460D02*
X6261896Y-13951984D01*
X6261896Y-13951984D02*
X6204753Y-13951984D01*
X6204753Y-13951984D02*
X6185706Y-13942460D01*
X6185706Y-13942460D02*
X6176182Y-13932936D01*
X6423801Y-13751984D02*
X6442848Y-13751984D01*
X6442848Y-13751984D02*
X6461896Y-13761508D01*
X6461896Y-13761508D02*
X6471420Y-13771031D01*
X6471420Y-13771031D02*
X6480944Y-13790079D01*
X6480944Y-13790079D02*
X6490467Y-13828174D01*
X6490467Y-13828174D02*
X6490467Y-13875793D01*
X6490467Y-13875793D02*
X6480944Y-13913888D01*
X6480944Y-13913888D02*
X6471420Y-13932936D01*
X6471420Y-13932936D02*
X6461896Y-13942460D01*
X6461896Y-13942460D02*
X6442848Y-13951984D01*
X6442848Y-13951984D02*
X6423801Y-13951984D01*
X6423801Y-13951984D02*
X6404753Y-13942460D01*
X6404753Y-13942460D02*
X6395229Y-13932936D01*
X6395229Y-13932936D02*
X6385706Y-13913888D01*
X6385706Y-13913888D02*
X6376182Y-13875793D01*
X6376182Y-13875793D02*
X6376182Y-13828174D01*
X6376182Y-13828174D02*
X6385706Y-13790079D01*
X6385706Y-13790079D02*
X6395229Y-13771031D01*
X6395229Y-13771031D02*
X6404753Y-13761508D01*
X6404753Y-13761508D02*
X6423801Y-13751984D01*
X6614277Y-13751984D02*
X6633325Y-13751984D01*
X6633325Y-13751984D02*
X6652372Y-13761508D01*
X6652372Y-13761508D02*
X6661896Y-13771031D01*
X6661896Y-13771031D02*
X6671420Y-13790079D01*
X6671420Y-13790079D02*
X6680944Y-13828174D01*
X6680944Y-13828174D02*
X6680944Y-13875793D01*
X6680944Y-13875793D02*
X6671420Y-13913888D01*
X6671420Y-13913888D02*
X6661896Y-13932936D01*
X6661896Y-13932936D02*
X6652372Y-13942460D01*
X6652372Y-13942460D02*
X6633325Y-13951984D01*
X6633325Y-13951984D02*
X6614277Y-13951984D01*
X6614277Y-13951984D02*
X6595229Y-13942460D01*
X6595229Y-13942460D02*
X6585706Y-13932936D01*
X6585706Y-13932936D02*
X6576182Y-13913888D01*
X6576182Y-13913888D02*
X6566658Y-13875793D01*
X6566658Y-13875793D02*
X6566658Y-13828174D01*
X6566658Y-13828174D02*
X6576182Y-13790079D01*
X6576182Y-13790079D02*
X6585706Y-13771031D01*
X6585706Y-13771031D02*
X6595229Y-13761508D01*
X6595229Y-13761508D02*
X6614277Y-13751984D01*
X6757134Y-13751984D02*
X6757134Y-13790079D01*
X6833325Y-13751984D02*
X6833325Y-13790079D01*
X7128563Y-14028174D02*
X7119039Y-14018650D01*
X7119039Y-14018650D02*
X7099991Y-13990079D01*
X7099991Y-13990079D02*
X7090468Y-13971031D01*
X7090468Y-13971031D02*
X7080944Y-13942460D01*
X7080944Y-13942460D02*
X7071420Y-13894841D01*
X7071420Y-13894841D02*
X7071420Y-13856746D01*
X7071420Y-13856746D02*
X7080944Y-13809127D01*
X7080944Y-13809127D02*
X7090468Y-13780555D01*
X7090468Y-13780555D02*
X7099991Y-13761508D01*
X7099991Y-13761508D02*
X7119039Y-13732936D01*
X7119039Y-13732936D02*
X7128563Y-13723412D01*
X7309515Y-13951984D02*
X7195229Y-13951984D01*
X7252372Y-13951984D02*
X7252372Y-13751984D01*
X7252372Y-13751984D02*
X7233325Y-13780555D01*
X7233325Y-13780555D02*
X7214277Y-13799603D01*
X7214277Y-13799603D02*
X7195229Y-13809127D01*
X7499991Y-13951984D02*
X7385706Y-13951984D01*
X7442848Y-13951984D02*
X7442848Y-13751984D01*
X7442848Y-13751984D02*
X7423801Y-13780555D01*
X7423801Y-13780555D02*
X7404753Y-13799603D01*
X7404753Y-13799603D02*
X7385706Y-13809127D01*
X7738087Y-13951984D02*
X7738087Y-13751984D01*
X7823801Y-13951984D02*
X7823801Y-13847222D01*
X7823801Y-13847222D02*
X7814277Y-13828174D01*
X7814277Y-13828174D02*
X7795230Y-13818650D01*
X7795230Y-13818650D02*
X7766658Y-13818650D01*
X7766658Y-13818650D02*
X7747610Y-13828174D01*
X7747610Y-13828174D02*
X7738087Y-13837698D01*
X7947610Y-13951984D02*
X7928563Y-13942460D01*
X7928563Y-13942460D02*
X7919039Y-13932936D01*
X7919039Y-13932936D02*
X7909515Y-13913888D01*
X7909515Y-13913888D02*
X7909515Y-13856746D01*
X7909515Y-13856746D02*
X7919039Y-13837698D01*
X7919039Y-13837698D02*
X7928563Y-13828174D01*
X7928563Y-13828174D02*
X7947610Y-13818650D01*
X7947610Y-13818650D02*
X7976182Y-13818650D01*
X7976182Y-13818650D02*
X7995230Y-13828174D01*
X7995230Y-13828174D02*
X8004753Y-13837698D01*
X8004753Y-13837698D02*
X8014277Y-13856746D01*
X8014277Y-13856746D02*
X8014277Y-13913888D01*
X8014277Y-13913888D02*
X8004753Y-13932936D01*
X8004753Y-13932936D02*
X7995230Y-13942460D01*
X7995230Y-13942460D02*
X7976182Y-13951984D01*
X7976182Y-13951984D02*
X7947610Y-13951984D01*
X8128563Y-13951984D02*
X8109515Y-13942460D01*
X8109515Y-13942460D02*
X8099991Y-13923412D01*
X8099991Y-13923412D02*
X8099991Y-13751984D01*
X8280944Y-13942460D02*
X8261896Y-13951984D01*
X8261896Y-13951984D02*
X8223801Y-13951984D01*
X8223801Y-13951984D02*
X8204753Y-13942460D01*
X8204753Y-13942460D02*
X8195230Y-13923412D01*
X8195230Y-13923412D02*
X8195230Y-13847222D01*
X8195230Y-13847222D02*
X8204753Y-13828174D01*
X8204753Y-13828174D02*
X8223801Y-13818650D01*
X8223801Y-13818650D02*
X8261896Y-13818650D01*
X8261896Y-13818650D02*
X8280944Y-13828174D01*
X8280944Y-13828174D02*
X8290468Y-13847222D01*
X8290468Y-13847222D02*
X8290468Y-13866269D01*
X8290468Y-13866269D02*
X8195230Y-13885317D01*
X8366658Y-13942460D02*
X8385706Y-13951984D01*
X8385706Y-13951984D02*
X8423801Y-13951984D01*
X8423801Y-13951984D02*
X8442849Y-13942460D01*
X8442849Y-13942460D02*
X8452373Y-13923412D01*
X8452373Y-13923412D02*
X8452373Y-13913888D01*
X8452373Y-13913888D02*
X8442849Y-13894841D01*
X8442849Y-13894841D02*
X8423801Y-13885317D01*
X8423801Y-13885317D02*
X8395230Y-13885317D01*
X8395230Y-13885317D02*
X8376182Y-13875793D01*
X8376182Y-13875793D02*
X8366658Y-13856746D01*
X8366658Y-13856746D02*
X8366658Y-13847222D01*
X8366658Y-13847222D02*
X8376182Y-13828174D01*
X8376182Y-13828174D02*
X8395230Y-13818650D01*
X8395230Y-13818650D02*
X8423801Y-13818650D01*
X8423801Y-13818650D02*
X8442849Y-13828174D01*
X8519039Y-14028174D02*
X8528563Y-14018650D01*
X8528563Y-14018650D02*
X8547611Y-13990079D01*
X8547611Y-13990079D02*
X8557134Y-13971031D01*
X8557134Y-13971031D02*
X8566658Y-13942460D01*
X8566658Y-13942460D02*
X8576182Y-13894841D01*
X8576182Y-13894841D02*
X8576182Y-13856746D01*
X8576182Y-13856746D02*
X8566658Y-13809127D01*
X8566658Y-13809127D02*
X8557134Y-13780555D01*
X8557134Y-13780555D02*
X8547611Y-13761508D01*
X8547611Y-13761508D02*
X8528563Y-13732936D01*
X8528563Y-13732936D02*
X8519039Y-13723412D01*
D12*
X3513500Y-14084500D02*
X3513500Y-14164500D01*
X3473500Y-14124500D02*
X3553500Y-14124500D01*
D11*
X3852372Y-14015984D02*
X3871420Y-14015984D01*
X3871420Y-14015984D02*
X3890467Y-14025508D01*
X3890467Y-14025508D02*
X3899991Y-14035031D01*
X3899991Y-14035031D02*
X3909515Y-14054079D01*
X3909515Y-14054079D02*
X3919039Y-14092174D01*
X3919039Y-14092174D02*
X3919039Y-14139793D01*
X3919039Y-14139793D02*
X3909515Y-14177888D01*
X3909515Y-14177888D02*
X3899991Y-14196936D01*
X3899991Y-14196936D02*
X3890467Y-14206460D01*
X3890467Y-14206460D02*
X3871420Y-14215984D01*
X3871420Y-14215984D02*
X3852372Y-14215984D01*
X3852372Y-14215984D02*
X3833324Y-14206460D01*
X3833324Y-14206460D02*
X3823801Y-14196936D01*
X3823801Y-14196936D02*
X3814277Y-14177888D01*
X3814277Y-14177888D02*
X3804753Y-14139793D01*
X3804753Y-14139793D02*
X3804753Y-14092174D01*
X3804753Y-14092174D02*
X3814277Y-14054079D01*
X3814277Y-14054079D02*
X3823801Y-14035031D01*
X3823801Y-14035031D02*
X3833324Y-14025508D01*
X3833324Y-14025508D02*
X3852372Y-14015984D01*
X4004753Y-14196936D02*
X4014277Y-14206460D01*
X4014277Y-14206460D02*
X4004753Y-14215984D01*
X4004753Y-14215984D02*
X3995229Y-14206460D01*
X3995229Y-14206460D02*
X4004753Y-14196936D01*
X4004753Y-14196936D02*
X4004753Y-14215984D01*
X4128562Y-14101698D02*
X4109515Y-14092174D01*
X4109515Y-14092174D02*
X4099991Y-14082650D01*
X4099991Y-14082650D02*
X4090467Y-14063603D01*
X4090467Y-14063603D02*
X4090467Y-14054079D01*
X4090467Y-14054079D02*
X4099991Y-14035031D01*
X4099991Y-14035031D02*
X4109515Y-14025508D01*
X4109515Y-14025508D02*
X4128562Y-14015984D01*
X4128562Y-14015984D02*
X4166658Y-14015984D01*
X4166658Y-14015984D02*
X4185705Y-14025508D01*
X4185705Y-14025508D02*
X4195229Y-14035031D01*
X4195229Y-14035031D02*
X4204753Y-14054079D01*
X4204753Y-14054079D02*
X4204753Y-14063603D01*
X4204753Y-14063603D02*
X4195229Y-14082650D01*
X4195229Y-14082650D02*
X4185705Y-14092174D01*
X4185705Y-14092174D02*
X4166658Y-14101698D01*
X4166658Y-14101698D02*
X4128562Y-14101698D01*
X4128562Y-14101698D02*
X4109515Y-14111222D01*
X4109515Y-14111222D02*
X4099991Y-14120746D01*
X4099991Y-14120746D02*
X4090467Y-14139793D01*
X4090467Y-14139793D02*
X4090467Y-14177888D01*
X4090467Y-14177888D02*
X4099991Y-14196936D01*
X4099991Y-14196936D02*
X4109515Y-14206460D01*
X4109515Y-14206460D02*
X4128562Y-14215984D01*
X4128562Y-14215984D02*
X4166658Y-14215984D01*
X4166658Y-14215984D02*
X4185705Y-14206460D01*
X4185705Y-14206460D02*
X4195229Y-14196936D01*
X4195229Y-14196936D02*
X4204753Y-14177888D01*
X4204753Y-14177888D02*
X4204753Y-14139793D01*
X4204753Y-14139793D02*
X4195229Y-14120746D01*
X4195229Y-14120746D02*
X4185705Y-14111222D01*
X4185705Y-14111222D02*
X4166658Y-14101698D01*
X4328563Y-14015984D02*
X4347610Y-14015984D01*
X4347610Y-14015984D02*
X4366658Y-14025508D01*
X4366658Y-14025508D02*
X4376182Y-14035031D01*
X4376182Y-14035031D02*
X4385705Y-14054079D01*
X4385705Y-14054079D02*
X4395229Y-14092174D01*
X4395229Y-14092174D02*
X4395229Y-14139793D01*
X4395229Y-14139793D02*
X4385705Y-14177888D01*
X4385705Y-14177888D02*
X4376182Y-14196936D01*
X4376182Y-14196936D02*
X4366658Y-14206460D01*
X4366658Y-14206460D02*
X4347610Y-14215984D01*
X4347610Y-14215984D02*
X4328563Y-14215984D01*
X4328563Y-14215984D02*
X4309515Y-14206460D01*
X4309515Y-14206460D02*
X4299991Y-14196936D01*
X4299991Y-14196936D02*
X4290467Y-14177888D01*
X4290467Y-14177888D02*
X4280944Y-14139793D01*
X4280944Y-14139793D02*
X4280944Y-14092174D01*
X4280944Y-14092174D02*
X4290467Y-14054079D01*
X4290467Y-14054079D02*
X4299991Y-14035031D01*
X4299991Y-14035031D02*
X4309515Y-14025508D01*
X4309515Y-14025508D02*
X4328563Y-14015984D01*
X4519039Y-14015984D02*
X4538086Y-14015984D01*
X4538086Y-14015984D02*
X4557134Y-14025508D01*
X4557134Y-14025508D02*
X4566658Y-14035031D01*
X4566658Y-14035031D02*
X4576182Y-14054079D01*
X4576182Y-14054079D02*
X4585705Y-14092174D01*
X4585705Y-14092174D02*
X4585705Y-14139793D01*
X4585705Y-14139793D02*
X4576182Y-14177888D01*
X4576182Y-14177888D02*
X4566658Y-14196936D01*
X4566658Y-14196936D02*
X4557134Y-14206460D01*
X4557134Y-14206460D02*
X4538086Y-14215984D01*
X4538086Y-14215984D02*
X4519039Y-14215984D01*
X4519039Y-14215984D02*
X4499991Y-14206460D01*
X4499991Y-14206460D02*
X4490467Y-14196936D01*
X4490467Y-14196936D02*
X4480944Y-14177888D01*
X4480944Y-14177888D02*
X4471420Y-14139793D01*
X4471420Y-14139793D02*
X4471420Y-14092174D01*
X4471420Y-14092174D02*
X4480944Y-14054079D01*
X4480944Y-14054079D02*
X4490467Y-14035031D01*
X4490467Y-14035031D02*
X4499991Y-14025508D01*
X4499991Y-14025508D02*
X4519039Y-14015984D01*
X4671420Y-14215984D02*
X4671420Y-14082650D01*
X4671420Y-14101698D02*
X4680944Y-14092174D01*
X4680944Y-14092174D02*
X4699991Y-14082650D01*
X4699991Y-14082650D02*
X4728563Y-14082650D01*
X4728563Y-14082650D02*
X4747610Y-14092174D01*
X4747610Y-14092174D02*
X4757134Y-14111222D01*
X4757134Y-14111222D02*
X4757134Y-14215984D01*
X4757134Y-14111222D02*
X4766658Y-14092174D01*
X4766658Y-14092174D02*
X4785705Y-14082650D01*
X4785705Y-14082650D02*
X4814277Y-14082650D01*
X4814277Y-14082650D02*
X4833325Y-14092174D01*
X4833325Y-14092174D02*
X4842848Y-14111222D01*
X4842848Y-14111222D02*
X4842848Y-14215984D01*
X4938086Y-14215984D02*
X4938086Y-14082650D01*
X4938086Y-14101698D02*
X4947610Y-14092174D01*
X4947610Y-14092174D02*
X4966658Y-14082650D01*
X4966658Y-14082650D02*
X4995229Y-14082650D01*
X4995229Y-14082650D02*
X5014277Y-14092174D01*
X5014277Y-14092174D02*
X5023801Y-14111222D01*
X5023801Y-14111222D02*
X5023801Y-14215984D01*
X5023801Y-14111222D02*
X5033325Y-14092174D01*
X5033325Y-14092174D02*
X5052372Y-14082650D01*
X5052372Y-14082650D02*
X5080944Y-14082650D01*
X5080944Y-14082650D02*
X5099991Y-14092174D01*
X5099991Y-14092174D02*
X5109515Y-14111222D01*
X5109515Y-14111222D02*
X5109515Y-14215984D01*
X5499991Y-14006460D02*
X5328563Y-14263603D01*
X5757134Y-14015984D02*
X5776182Y-14015984D01*
X5776182Y-14015984D02*
X5795229Y-14025508D01*
X5795229Y-14025508D02*
X5804753Y-14035031D01*
X5804753Y-14035031D02*
X5814277Y-14054079D01*
X5814277Y-14054079D02*
X5823801Y-14092174D01*
X5823801Y-14092174D02*
X5823801Y-14139793D01*
X5823801Y-14139793D02*
X5814277Y-14177888D01*
X5814277Y-14177888D02*
X5804753Y-14196936D01*
X5804753Y-14196936D02*
X5795229Y-14206460D01*
X5795229Y-14206460D02*
X5776182Y-14215984D01*
X5776182Y-14215984D02*
X5757134Y-14215984D01*
X5757134Y-14215984D02*
X5738086Y-14206460D01*
X5738086Y-14206460D02*
X5728563Y-14196936D01*
X5728563Y-14196936D02*
X5719039Y-14177888D01*
X5719039Y-14177888D02*
X5709515Y-14139793D01*
X5709515Y-14139793D02*
X5709515Y-14092174D01*
X5709515Y-14092174D02*
X5719039Y-14054079D01*
X5719039Y-14054079D02*
X5728563Y-14035031D01*
X5728563Y-14035031D02*
X5738086Y-14025508D01*
X5738086Y-14025508D02*
X5757134Y-14015984D01*
X5909515Y-14196936D02*
X5919039Y-14206460D01*
X5919039Y-14206460D02*
X5909515Y-14215984D01*
X5909515Y-14215984D02*
X5899991Y-14206460D01*
X5899991Y-14206460D02*
X5909515Y-14196936D01*
X5909515Y-14196936D02*
X5909515Y-14215984D01*
X6042848Y-14015984D02*
X6061896Y-14015984D01*
X6061896Y-14015984D02*
X6080944Y-14025508D01*
X6080944Y-14025508D02*
X6090467Y-14035031D01*
X6090467Y-14035031D02*
X6099991Y-14054079D01*
X6099991Y-14054079D02*
X6109515Y-14092174D01*
X6109515Y-14092174D02*
X6109515Y-14139793D01*
X6109515Y-14139793D02*
X6099991Y-14177888D01*
X6099991Y-14177888D02*
X6090467Y-14196936D01*
X6090467Y-14196936D02*
X6080944Y-14206460D01*
X6080944Y-14206460D02*
X6061896Y-14215984D01*
X6061896Y-14215984D02*
X6042848Y-14215984D01*
X6042848Y-14215984D02*
X6023801Y-14206460D01*
X6023801Y-14206460D02*
X6014277Y-14196936D01*
X6014277Y-14196936D02*
X6004753Y-14177888D01*
X6004753Y-14177888D02*
X5995229Y-14139793D01*
X5995229Y-14139793D02*
X5995229Y-14092174D01*
X5995229Y-14092174D02*
X6004753Y-14054079D01*
X6004753Y-14054079D02*
X6014277Y-14035031D01*
X6014277Y-14035031D02*
X6023801Y-14025508D01*
X6023801Y-14025508D02*
X6042848Y-14015984D01*
X6176182Y-14015984D02*
X6299991Y-14015984D01*
X6299991Y-14015984D02*
X6233325Y-14092174D01*
X6233325Y-14092174D02*
X6261896Y-14092174D01*
X6261896Y-14092174D02*
X6280944Y-14101698D01*
X6280944Y-14101698D02*
X6290467Y-14111222D01*
X6290467Y-14111222D02*
X6299991Y-14130269D01*
X6299991Y-14130269D02*
X6299991Y-14177888D01*
X6299991Y-14177888D02*
X6290467Y-14196936D01*
X6290467Y-14196936D02*
X6280944Y-14206460D01*
X6280944Y-14206460D02*
X6261896Y-14215984D01*
X6261896Y-14215984D02*
X6204753Y-14215984D01*
X6204753Y-14215984D02*
X6185706Y-14206460D01*
X6185706Y-14206460D02*
X6176182Y-14196936D01*
X6490467Y-14215984D02*
X6376182Y-14215984D01*
X6433325Y-14215984D02*
X6433325Y-14015984D01*
X6433325Y-14015984D02*
X6414277Y-14044555D01*
X6414277Y-14044555D02*
X6395229Y-14063603D01*
X6395229Y-14063603D02*
X6376182Y-14073127D01*
X6671420Y-14015984D02*
X6576182Y-14015984D01*
X6576182Y-14015984D02*
X6566658Y-14111222D01*
X6566658Y-14111222D02*
X6576182Y-14101698D01*
X6576182Y-14101698D02*
X6595229Y-14092174D01*
X6595229Y-14092174D02*
X6642848Y-14092174D01*
X6642848Y-14092174D02*
X6661896Y-14101698D01*
X6661896Y-14101698D02*
X6671420Y-14111222D01*
X6671420Y-14111222D02*
X6680944Y-14130269D01*
X6680944Y-14130269D02*
X6680944Y-14177888D01*
X6680944Y-14177888D02*
X6671420Y-14196936D01*
X6671420Y-14196936D02*
X6661896Y-14206460D01*
X6661896Y-14206460D02*
X6642848Y-14215984D01*
X6642848Y-14215984D02*
X6595229Y-14215984D01*
X6595229Y-14215984D02*
X6576182Y-14206460D01*
X6576182Y-14206460D02*
X6566658Y-14196936D01*
X6757134Y-14015984D02*
X6757134Y-14054079D01*
X6833325Y-14015984D02*
X6833325Y-14054079D01*
X7128563Y-14292174D02*
X7119039Y-14282650D01*
X7119039Y-14282650D02*
X7099991Y-14254079D01*
X7099991Y-14254079D02*
X7090468Y-14235031D01*
X7090468Y-14235031D02*
X7080944Y-14206460D01*
X7080944Y-14206460D02*
X7071420Y-14158841D01*
X7071420Y-14158841D02*
X7071420Y-14120746D01*
X7071420Y-14120746D02*
X7080944Y-14073127D01*
X7080944Y-14073127D02*
X7090468Y-14044555D01*
X7090468Y-14044555D02*
X7099991Y-14025508D01*
X7099991Y-14025508D02*
X7119039Y-13996936D01*
X7119039Y-13996936D02*
X7128563Y-13987412D01*
X7290468Y-14015984D02*
X7252372Y-14015984D01*
X7252372Y-14015984D02*
X7233325Y-14025508D01*
X7233325Y-14025508D02*
X7223801Y-14035031D01*
X7223801Y-14035031D02*
X7204753Y-14063603D01*
X7204753Y-14063603D02*
X7195229Y-14101698D01*
X7195229Y-14101698D02*
X7195229Y-14177888D01*
X7195229Y-14177888D02*
X7204753Y-14196936D01*
X7204753Y-14196936D02*
X7214277Y-14206460D01*
X7214277Y-14206460D02*
X7233325Y-14215984D01*
X7233325Y-14215984D02*
X7271420Y-14215984D01*
X7271420Y-14215984D02*
X7290468Y-14206460D01*
X7290468Y-14206460D02*
X7299991Y-14196936D01*
X7299991Y-14196936D02*
X7309515Y-14177888D01*
X7309515Y-14177888D02*
X7309515Y-14130269D01*
X7309515Y-14130269D02*
X7299991Y-14111222D01*
X7299991Y-14111222D02*
X7290468Y-14101698D01*
X7290468Y-14101698D02*
X7271420Y-14092174D01*
X7271420Y-14092174D02*
X7233325Y-14092174D01*
X7233325Y-14092174D02*
X7214277Y-14101698D01*
X7214277Y-14101698D02*
X7204753Y-14111222D01*
X7204753Y-14111222D02*
X7195229Y-14130269D01*
X7480944Y-14082650D02*
X7480944Y-14215984D01*
X7433325Y-14006460D02*
X7385706Y-14149317D01*
X7385706Y-14149317D02*
X7509515Y-14149317D01*
X7738087Y-14215984D02*
X7738087Y-14015984D01*
X7823801Y-14215984D02*
X7823801Y-14111222D01*
X7823801Y-14111222D02*
X7814277Y-14092174D01*
X7814277Y-14092174D02*
X7795230Y-14082650D01*
X7795230Y-14082650D02*
X7766658Y-14082650D01*
X7766658Y-14082650D02*
X7747610Y-14092174D01*
X7747610Y-14092174D02*
X7738087Y-14101698D01*
X7947610Y-14215984D02*
X7928563Y-14206460D01*
X7928563Y-14206460D02*
X7919039Y-14196936D01*
X7919039Y-14196936D02*
X7909515Y-14177888D01*
X7909515Y-14177888D02*
X7909515Y-14120746D01*
X7909515Y-14120746D02*
X7919039Y-14101698D01*
X7919039Y-14101698D02*
X7928563Y-14092174D01*
X7928563Y-14092174D02*
X7947610Y-14082650D01*
X7947610Y-14082650D02*
X7976182Y-14082650D01*
X7976182Y-14082650D02*
X7995230Y-14092174D01*
X7995230Y-14092174D02*
X8004753Y-14101698D01*
X8004753Y-14101698D02*
X8014277Y-14120746D01*
X8014277Y-14120746D02*
X8014277Y-14177888D01*
X8014277Y-14177888D02*
X8004753Y-14196936D01*
X8004753Y-14196936D02*
X7995230Y-14206460D01*
X7995230Y-14206460D02*
X7976182Y-14215984D01*
X7976182Y-14215984D02*
X7947610Y-14215984D01*
X8128563Y-14215984D02*
X8109515Y-14206460D01*
X8109515Y-14206460D02*
X8099991Y-14187412D01*
X8099991Y-14187412D02*
X8099991Y-14015984D01*
X8280944Y-14206460D02*
X8261896Y-14215984D01*
X8261896Y-14215984D02*
X8223801Y-14215984D01*
X8223801Y-14215984D02*
X8204753Y-14206460D01*
X8204753Y-14206460D02*
X8195230Y-14187412D01*
X8195230Y-14187412D02*
X8195230Y-14111222D01*
X8195230Y-14111222D02*
X8204753Y-14092174D01*
X8204753Y-14092174D02*
X8223801Y-14082650D01*
X8223801Y-14082650D02*
X8261896Y-14082650D01*
X8261896Y-14082650D02*
X8280944Y-14092174D01*
X8280944Y-14092174D02*
X8290468Y-14111222D01*
X8290468Y-14111222D02*
X8290468Y-14130269D01*
X8290468Y-14130269D02*
X8195230Y-14149317D01*
X8366658Y-14206460D02*
X8385706Y-14215984D01*
X8385706Y-14215984D02*
X8423801Y-14215984D01*
X8423801Y-14215984D02*
X8442849Y-14206460D01*
X8442849Y-14206460D02*
X8452373Y-14187412D01*
X8452373Y-14187412D02*
X8452373Y-14177888D01*
X8452373Y-14177888D02*
X8442849Y-14158841D01*
X8442849Y-14158841D02*
X8423801Y-14149317D01*
X8423801Y-14149317D02*
X8395230Y-14149317D01*
X8395230Y-14149317D02*
X8376182Y-14139793D01*
X8376182Y-14139793D02*
X8366658Y-14120746D01*
X8366658Y-14120746D02*
X8366658Y-14111222D01*
X8366658Y-14111222D02*
X8376182Y-14092174D01*
X8376182Y-14092174D02*
X8395230Y-14082650D01*
X8395230Y-14082650D02*
X8423801Y-14082650D01*
X8423801Y-14082650D02*
X8442849Y-14092174D01*
X8519039Y-14292174D02*
X8528563Y-14282650D01*
X8528563Y-14282650D02*
X8547611Y-14254079D01*
X8547611Y-14254079D02*
X8557134Y-14235031D01*
X8557134Y-14235031D02*
X8566658Y-14206460D01*
X8566658Y-14206460D02*
X8576182Y-14158841D01*
X8576182Y-14158841D02*
X8576182Y-14120746D01*
X8576182Y-14120746D02*
X8566658Y-14073127D01*
X8566658Y-14073127D02*
X8557134Y-14044555D01*
X8557134Y-14044555D02*
X8547611Y-14025508D01*
X8547611Y-14025508D02*
X8528563Y-13996936D01*
X8528563Y-13996936D02*
X8519039Y-13987412D01*
D12*
X3540320Y-14420320D02*
X3540320Y-14356680D01*
X3476680Y-14356680D01*
X3476680Y-14420320D01*
X3540320Y-14420320D01*
D11*
X3852372Y-14279984D02*
X3871420Y-14279984D01*
X3871420Y-14279984D02*
X3890467Y-14289508D01*
X3890467Y-14289508D02*
X3899991Y-14299031D01*
X3899991Y-14299031D02*
X3909515Y-14318079D01*
X3909515Y-14318079D02*
X3919039Y-14356174D01*
X3919039Y-14356174D02*
X3919039Y-14403793D01*
X3919039Y-14403793D02*
X3909515Y-14441888D01*
X3909515Y-14441888D02*
X3899991Y-14460936D01*
X3899991Y-14460936D02*
X3890467Y-14470460D01*
X3890467Y-14470460D02*
X3871420Y-14479984D01*
X3871420Y-14479984D02*
X3852372Y-14479984D01*
X3852372Y-14479984D02*
X3833324Y-14470460D01*
X3833324Y-14470460D02*
X3823801Y-14460936D01*
X3823801Y-14460936D02*
X3814277Y-14441888D01*
X3814277Y-14441888D02*
X3804753Y-14403793D01*
X3804753Y-14403793D02*
X3804753Y-14356174D01*
X3804753Y-14356174D02*
X3814277Y-14318079D01*
X3814277Y-14318079D02*
X3823801Y-14299031D01*
X3823801Y-14299031D02*
X3833324Y-14289508D01*
X3833324Y-14289508D02*
X3852372Y-14279984D01*
X4004753Y-14460936D02*
X4014277Y-14470460D01*
X4014277Y-14470460D02*
X4004753Y-14479984D01*
X4004753Y-14479984D02*
X3995229Y-14470460D01*
X3995229Y-14470460D02*
X4004753Y-14460936D01*
X4004753Y-14460936D02*
X4004753Y-14479984D01*
X4109515Y-14479984D02*
X4147610Y-14479984D01*
X4147610Y-14479984D02*
X4166658Y-14470460D01*
X4166658Y-14470460D02*
X4176182Y-14460936D01*
X4176182Y-14460936D02*
X4195229Y-14432365D01*
X4195229Y-14432365D02*
X4204753Y-14394269D01*
X4204753Y-14394269D02*
X4204753Y-14318079D01*
X4204753Y-14318079D02*
X4195229Y-14299031D01*
X4195229Y-14299031D02*
X4185705Y-14289508D01*
X4185705Y-14289508D02*
X4166658Y-14279984D01*
X4166658Y-14279984D02*
X4128562Y-14279984D01*
X4128562Y-14279984D02*
X4109515Y-14289508D01*
X4109515Y-14289508D02*
X4099991Y-14299031D01*
X4099991Y-14299031D02*
X4090467Y-14318079D01*
X4090467Y-14318079D02*
X4090467Y-14365698D01*
X4090467Y-14365698D02*
X4099991Y-14384746D01*
X4099991Y-14384746D02*
X4109515Y-14394269D01*
X4109515Y-14394269D02*
X4128562Y-14403793D01*
X4128562Y-14403793D02*
X4166658Y-14403793D01*
X4166658Y-14403793D02*
X4185705Y-14394269D01*
X4185705Y-14394269D02*
X4195229Y-14384746D01*
X4195229Y-14384746D02*
X4204753Y-14365698D01*
X4328563Y-14279984D02*
X4347610Y-14279984D01*
X4347610Y-14279984D02*
X4366658Y-14289508D01*
X4366658Y-14289508D02*
X4376182Y-14299031D01*
X4376182Y-14299031D02*
X4385705Y-14318079D01*
X4385705Y-14318079D02*
X4395229Y-14356174D01*
X4395229Y-14356174D02*
X4395229Y-14403793D01*
X4395229Y-14403793D02*
X4385705Y-14441888D01*
X4385705Y-14441888D02*
X4376182Y-14460936D01*
X4376182Y-14460936D02*
X4366658Y-14470460D01*
X4366658Y-14470460D02*
X4347610Y-14479984D01*
X4347610Y-14479984D02*
X4328563Y-14479984D01*
X4328563Y-14479984D02*
X4309515Y-14470460D01*
X4309515Y-14470460D02*
X4299991Y-14460936D01*
X4299991Y-14460936D02*
X4290467Y-14441888D01*
X4290467Y-14441888D02*
X4280944Y-14403793D01*
X4280944Y-14403793D02*
X4280944Y-14356174D01*
X4280944Y-14356174D02*
X4290467Y-14318079D01*
X4290467Y-14318079D02*
X4299991Y-14299031D01*
X4299991Y-14299031D02*
X4309515Y-14289508D01*
X4309515Y-14289508D02*
X4328563Y-14279984D01*
X4519039Y-14279984D02*
X4538086Y-14279984D01*
X4538086Y-14279984D02*
X4557134Y-14289508D01*
X4557134Y-14289508D02*
X4566658Y-14299031D01*
X4566658Y-14299031D02*
X4576182Y-14318079D01*
X4576182Y-14318079D02*
X4585705Y-14356174D01*
X4585705Y-14356174D02*
X4585705Y-14403793D01*
X4585705Y-14403793D02*
X4576182Y-14441888D01*
X4576182Y-14441888D02*
X4566658Y-14460936D01*
X4566658Y-14460936D02*
X4557134Y-14470460D01*
X4557134Y-14470460D02*
X4538086Y-14479984D01*
X4538086Y-14479984D02*
X4519039Y-14479984D01*
X4519039Y-14479984D02*
X4499991Y-14470460D01*
X4499991Y-14470460D02*
X4490467Y-14460936D01*
X4490467Y-14460936D02*
X4480944Y-14441888D01*
X4480944Y-14441888D02*
X4471420Y-14403793D01*
X4471420Y-14403793D02*
X4471420Y-14356174D01*
X4471420Y-14356174D02*
X4480944Y-14318079D01*
X4480944Y-14318079D02*
X4490467Y-14299031D01*
X4490467Y-14299031D02*
X4499991Y-14289508D01*
X4499991Y-14289508D02*
X4519039Y-14279984D01*
X4671420Y-14479984D02*
X4671420Y-14346650D01*
X4671420Y-14365698D02*
X4680944Y-14356174D01*
X4680944Y-14356174D02*
X4699991Y-14346650D01*
X4699991Y-14346650D02*
X4728563Y-14346650D01*
X4728563Y-14346650D02*
X4747610Y-14356174D01*
X4747610Y-14356174D02*
X4757134Y-14375222D01*
X4757134Y-14375222D02*
X4757134Y-14479984D01*
X4757134Y-14375222D02*
X4766658Y-14356174D01*
X4766658Y-14356174D02*
X4785705Y-14346650D01*
X4785705Y-14346650D02*
X4814277Y-14346650D01*
X4814277Y-14346650D02*
X4833325Y-14356174D01*
X4833325Y-14356174D02*
X4842848Y-14375222D01*
X4842848Y-14375222D02*
X4842848Y-14479984D01*
X4938086Y-14479984D02*
X4938086Y-14346650D01*
X4938086Y-14365698D02*
X4947610Y-14356174D01*
X4947610Y-14356174D02*
X4966658Y-14346650D01*
X4966658Y-14346650D02*
X4995229Y-14346650D01*
X4995229Y-14346650D02*
X5014277Y-14356174D01*
X5014277Y-14356174D02*
X5023801Y-14375222D01*
X5023801Y-14375222D02*
X5023801Y-14479984D01*
X5023801Y-14375222D02*
X5033325Y-14356174D01*
X5033325Y-14356174D02*
X5052372Y-14346650D01*
X5052372Y-14346650D02*
X5080944Y-14346650D01*
X5080944Y-14346650D02*
X5099991Y-14356174D01*
X5099991Y-14356174D02*
X5109515Y-14375222D01*
X5109515Y-14375222D02*
X5109515Y-14479984D01*
X5499991Y-14270460D02*
X5328563Y-14527603D01*
X5757134Y-14279984D02*
X5776182Y-14279984D01*
X5776182Y-14279984D02*
X5795229Y-14289508D01*
X5795229Y-14289508D02*
X5804753Y-14299031D01*
X5804753Y-14299031D02*
X5814277Y-14318079D01*
X5814277Y-14318079D02*
X5823801Y-14356174D01*
X5823801Y-14356174D02*
X5823801Y-14403793D01*
X5823801Y-14403793D02*
X5814277Y-14441888D01*
X5814277Y-14441888D02*
X5804753Y-14460936D01*
X5804753Y-14460936D02*
X5795229Y-14470460D01*
X5795229Y-14470460D02*
X5776182Y-14479984D01*
X5776182Y-14479984D02*
X5757134Y-14479984D01*
X5757134Y-14479984D02*
X5738086Y-14470460D01*
X5738086Y-14470460D02*
X5728563Y-14460936D01*
X5728563Y-14460936D02*
X5719039Y-14441888D01*
X5719039Y-14441888D02*
X5709515Y-14403793D01*
X5709515Y-14403793D02*
X5709515Y-14356174D01*
X5709515Y-14356174D02*
X5719039Y-14318079D01*
X5719039Y-14318079D02*
X5728563Y-14299031D01*
X5728563Y-14299031D02*
X5738086Y-14289508D01*
X5738086Y-14289508D02*
X5757134Y-14279984D01*
X5909515Y-14460936D02*
X5919039Y-14470460D01*
X5919039Y-14470460D02*
X5909515Y-14479984D01*
X5909515Y-14479984D02*
X5899991Y-14470460D01*
X5899991Y-14470460D02*
X5909515Y-14460936D01*
X5909515Y-14460936D02*
X5909515Y-14479984D01*
X6042848Y-14279984D02*
X6061896Y-14279984D01*
X6061896Y-14279984D02*
X6080944Y-14289508D01*
X6080944Y-14289508D02*
X6090467Y-14299031D01*
X6090467Y-14299031D02*
X6099991Y-14318079D01*
X6099991Y-14318079D02*
X6109515Y-14356174D01*
X6109515Y-14356174D02*
X6109515Y-14403793D01*
X6109515Y-14403793D02*
X6099991Y-14441888D01*
X6099991Y-14441888D02*
X6090467Y-14460936D01*
X6090467Y-14460936D02*
X6080944Y-14470460D01*
X6080944Y-14470460D02*
X6061896Y-14479984D01*
X6061896Y-14479984D02*
X6042848Y-14479984D01*
X6042848Y-14479984D02*
X6023801Y-14470460D01*
X6023801Y-14470460D02*
X6014277Y-14460936D01*
X6014277Y-14460936D02*
X6004753Y-14441888D01*
X6004753Y-14441888D02*
X5995229Y-14403793D01*
X5995229Y-14403793D02*
X5995229Y-14356174D01*
X5995229Y-14356174D02*
X6004753Y-14318079D01*
X6004753Y-14318079D02*
X6014277Y-14299031D01*
X6014277Y-14299031D02*
X6023801Y-14289508D01*
X6023801Y-14289508D02*
X6042848Y-14279984D01*
X6176182Y-14279984D02*
X6299991Y-14279984D01*
X6299991Y-14279984D02*
X6233325Y-14356174D01*
X6233325Y-14356174D02*
X6261896Y-14356174D01*
X6261896Y-14356174D02*
X6280944Y-14365698D01*
X6280944Y-14365698D02*
X6290467Y-14375222D01*
X6290467Y-14375222D02*
X6299991Y-14394269D01*
X6299991Y-14394269D02*
X6299991Y-14441888D01*
X6299991Y-14441888D02*
X6290467Y-14460936D01*
X6290467Y-14460936D02*
X6280944Y-14470460D01*
X6280944Y-14470460D02*
X6261896Y-14479984D01*
X6261896Y-14479984D02*
X6204753Y-14479984D01*
X6204753Y-14479984D02*
X6185706Y-14470460D01*
X6185706Y-14470460D02*
X6176182Y-14460936D01*
X6480944Y-14279984D02*
X6385706Y-14279984D01*
X6385706Y-14279984D02*
X6376182Y-14375222D01*
X6376182Y-14375222D02*
X6385706Y-14365698D01*
X6385706Y-14365698D02*
X6404753Y-14356174D01*
X6404753Y-14356174D02*
X6452372Y-14356174D01*
X6452372Y-14356174D02*
X6471420Y-14365698D01*
X6471420Y-14365698D02*
X6480944Y-14375222D01*
X6480944Y-14375222D02*
X6490467Y-14394269D01*
X6490467Y-14394269D02*
X6490467Y-14441888D01*
X6490467Y-14441888D02*
X6480944Y-14460936D01*
X6480944Y-14460936D02*
X6471420Y-14470460D01*
X6471420Y-14470460D02*
X6452372Y-14479984D01*
X6452372Y-14479984D02*
X6404753Y-14479984D01*
X6404753Y-14479984D02*
X6385706Y-14470460D01*
X6385706Y-14470460D02*
X6376182Y-14460936D01*
X6661896Y-14346650D02*
X6661896Y-14479984D01*
X6614277Y-14270460D02*
X6566658Y-14413317D01*
X6566658Y-14413317D02*
X6690467Y-14413317D01*
X6757134Y-14279984D02*
X6757134Y-14318079D01*
X6833325Y-14279984D02*
X6833325Y-14318079D01*
X7128563Y-14556174D02*
X7119039Y-14546650D01*
X7119039Y-14546650D02*
X7099991Y-14518079D01*
X7099991Y-14518079D02*
X7090468Y-14499031D01*
X7090468Y-14499031D02*
X7080944Y-14470460D01*
X7080944Y-14470460D02*
X7071420Y-14422841D01*
X7071420Y-14422841D02*
X7071420Y-14384746D01*
X7071420Y-14384746D02*
X7080944Y-14337127D01*
X7080944Y-14337127D02*
X7090468Y-14308555D01*
X7090468Y-14308555D02*
X7099991Y-14289508D01*
X7099991Y-14289508D02*
X7119039Y-14260936D01*
X7119039Y-14260936D02*
X7128563Y-14251412D01*
X7309515Y-14479984D02*
X7195229Y-14479984D01*
X7252372Y-14479984D02*
X7252372Y-14279984D01*
X7252372Y-14279984D02*
X7233325Y-14308555D01*
X7233325Y-14308555D02*
X7214277Y-14327603D01*
X7214277Y-14327603D02*
X7195229Y-14337127D01*
X7547610Y-14479984D02*
X7547610Y-14279984D01*
X7633325Y-14479984D02*
X7633325Y-14375222D01*
X7633325Y-14375222D02*
X7623801Y-14356174D01*
X7623801Y-14356174D02*
X7604753Y-14346650D01*
X7604753Y-14346650D02*
X7576182Y-14346650D01*
X7576182Y-14346650D02*
X7557134Y-14356174D01*
X7557134Y-14356174D02*
X7547610Y-14365698D01*
X7757134Y-14479984D02*
X7738087Y-14470460D01*
X7738087Y-14470460D02*
X7728563Y-14460936D01*
X7728563Y-14460936D02*
X7719039Y-14441888D01*
X7719039Y-14441888D02*
X7719039Y-14384746D01*
X7719039Y-14384746D02*
X7728563Y-14365698D01*
X7728563Y-14365698D02*
X7738087Y-14356174D01*
X7738087Y-14356174D02*
X7757134Y-14346650D01*
X7757134Y-14346650D02*
X7785706Y-14346650D01*
X7785706Y-14346650D02*
X7804753Y-14356174D01*
X7804753Y-14356174D02*
X7814277Y-14365698D01*
X7814277Y-14365698D02*
X7823801Y-14384746D01*
X7823801Y-14384746D02*
X7823801Y-14441888D01*
X7823801Y-14441888D02*
X7814277Y-14460936D01*
X7814277Y-14460936D02*
X7804753Y-14470460D01*
X7804753Y-14470460D02*
X7785706Y-14479984D01*
X7785706Y-14479984D02*
X7757134Y-14479984D01*
X7938087Y-14479984D02*
X7919039Y-14470460D01*
X7919039Y-14470460D02*
X7909515Y-14451412D01*
X7909515Y-14451412D02*
X7909515Y-14279984D01*
X8090468Y-14470460D02*
X8071420Y-14479984D01*
X8071420Y-14479984D02*
X8033325Y-14479984D01*
X8033325Y-14479984D02*
X8014277Y-14470460D01*
X8014277Y-14470460D02*
X8004753Y-14451412D01*
X8004753Y-14451412D02*
X8004753Y-14375222D01*
X8004753Y-14375222D02*
X8014277Y-14356174D01*
X8014277Y-14356174D02*
X8033325Y-14346650D01*
X8033325Y-14346650D02*
X8071420Y-14346650D01*
X8071420Y-14346650D02*
X8090468Y-14356174D01*
X8090468Y-14356174D02*
X8099991Y-14375222D01*
X8099991Y-14375222D02*
X8099991Y-14394269D01*
X8099991Y-14394269D02*
X8004753Y-14413317D01*
X8166658Y-14556174D02*
X8176182Y-14546650D01*
X8176182Y-14546650D02*
X8195230Y-14518079D01*
X8195230Y-14518079D02*
X8204753Y-14499031D01*
X8204753Y-14499031D02*
X8214277Y-14470460D01*
X8214277Y-14470460D02*
X8223801Y-14422841D01*
X8223801Y-14422841D02*
X8223801Y-14384746D01*
X8223801Y-14384746D02*
X8214277Y-14337127D01*
X8214277Y-14337127D02*
X8204753Y-14308555D01*
X8204753Y-14308555D02*
X8195230Y-14289508D01*
X8195230Y-14289508D02*
X8176182Y-14260936D01*
X8176182Y-14260936D02*
X8166658Y-14251412D01*
D12*
X3503500Y-14702500D02*
X3553500Y-14652500D01*
X3503500Y-14602500D01*
X3453500Y-14652500D01*
X3503500Y-14702500D01*
D11*
X3919039Y-14743984D02*
X3804753Y-14743984D01*
X3861896Y-14743984D02*
X3861896Y-14543984D01*
X3861896Y-14543984D02*
X3842848Y-14572555D01*
X3842848Y-14572555D02*
X3823801Y-14591603D01*
X3823801Y-14591603D02*
X3804753Y-14601127D01*
X4004753Y-14724936D02*
X4014277Y-14734460D01*
X4014277Y-14734460D02*
X4004753Y-14743984D01*
X4004753Y-14743984D02*
X3995229Y-14734460D01*
X3995229Y-14734460D02*
X4004753Y-14724936D01*
X4004753Y-14724936D02*
X4004753Y-14743984D01*
X4138086Y-14543984D02*
X4157134Y-14543984D01*
X4157134Y-14543984D02*
X4176182Y-14553508D01*
X4176182Y-14553508D02*
X4185705Y-14563031D01*
X4185705Y-14563031D02*
X4195229Y-14582079D01*
X4195229Y-14582079D02*
X4204753Y-14620174D01*
X4204753Y-14620174D02*
X4204753Y-14667793D01*
X4204753Y-14667793D02*
X4195229Y-14705888D01*
X4195229Y-14705888D02*
X4185705Y-14724936D01*
X4185705Y-14724936D02*
X4176182Y-14734460D01*
X4176182Y-14734460D02*
X4157134Y-14743984D01*
X4157134Y-14743984D02*
X4138086Y-14743984D01*
X4138086Y-14743984D02*
X4119039Y-14734460D01*
X4119039Y-14734460D02*
X4109515Y-14724936D01*
X4109515Y-14724936D02*
X4099991Y-14705888D01*
X4099991Y-14705888D02*
X4090467Y-14667793D01*
X4090467Y-14667793D02*
X4090467Y-14620174D01*
X4090467Y-14620174D02*
X4099991Y-14582079D01*
X4099991Y-14582079D02*
X4109515Y-14563031D01*
X4109515Y-14563031D02*
X4119039Y-14553508D01*
X4119039Y-14553508D02*
X4138086Y-14543984D01*
X4328563Y-14543984D02*
X4347610Y-14543984D01*
X4347610Y-14543984D02*
X4366658Y-14553508D01*
X4366658Y-14553508D02*
X4376182Y-14563031D01*
X4376182Y-14563031D02*
X4385705Y-14582079D01*
X4385705Y-14582079D02*
X4395229Y-14620174D01*
X4395229Y-14620174D02*
X4395229Y-14667793D01*
X4395229Y-14667793D02*
X4385705Y-14705888D01*
X4385705Y-14705888D02*
X4376182Y-14724936D01*
X4376182Y-14724936D02*
X4366658Y-14734460D01*
X4366658Y-14734460D02*
X4347610Y-14743984D01*
X4347610Y-14743984D02*
X4328563Y-14743984D01*
X4328563Y-14743984D02*
X4309515Y-14734460D01*
X4309515Y-14734460D02*
X4299991Y-14724936D01*
X4299991Y-14724936D02*
X4290467Y-14705888D01*
X4290467Y-14705888D02*
X4280944Y-14667793D01*
X4280944Y-14667793D02*
X4280944Y-14620174D01*
X4280944Y-14620174D02*
X4290467Y-14582079D01*
X4290467Y-14582079D02*
X4299991Y-14563031D01*
X4299991Y-14563031D02*
X4309515Y-14553508D01*
X4309515Y-14553508D02*
X4328563Y-14543984D01*
X4519039Y-14543984D02*
X4538086Y-14543984D01*
X4538086Y-14543984D02*
X4557134Y-14553508D01*
X4557134Y-14553508D02*
X4566658Y-14563031D01*
X4566658Y-14563031D02*
X4576182Y-14582079D01*
X4576182Y-14582079D02*
X4585705Y-14620174D01*
X4585705Y-14620174D02*
X4585705Y-14667793D01*
X4585705Y-14667793D02*
X4576182Y-14705888D01*
X4576182Y-14705888D02*
X4566658Y-14724936D01*
X4566658Y-14724936D02*
X4557134Y-14734460D01*
X4557134Y-14734460D02*
X4538086Y-14743984D01*
X4538086Y-14743984D02*
X4519039Y-14743984D01*
X4519039Y-14743984D02*
X4499991Y-14734460D01*
X4499991Y-14734460D02*
X4490467Y-14724936D01*
X4490467Y-14724936D02*
X4480944Y-14705888D01*
X4480944Y-14705888D02*
X4471420Y-14667793D01*
X4471420Y-14667793D02*
X4471420Y-14620174D01*
X4471420Y-14620174D02*
X4480944Y-14582079D01*
X4480944Y-14582079D02*
X4490467Y-14563031D01*
X4490467Y-14563031D02*
X4499991Y-14553508D01*
X4499991Y-14553508D02*
X4519039Y-14543984D01*
X4671420Y-14743984D02*
X4671420Y-14610650D01*
X4671420Y-14629698D02*
X4680944Y-14620174D01*
X4680944Y-14620174D02*
X4699991Y-14610650D01*
X4699991Y-14610650D02*
X4728563Y-14610650D01*
X4728563Y-14610650D02*
X4747610Y-14620174D01*
X4747610Y-14620174D02*
X4757134Y-14639222D01*
X4757134Y-14639222D02*
X4757134Y-14743984D01*
X4757134Y-14639222D02*
X4766658Y-14620174D01*
X4766658Y-14620174D02*
X4785705Y-14610650D01*
X4785705Y-14610650D02*
X4814277Y-14610650D01*
X4814277Y-14610650D02*
X4833325Y-14620174D01*
X4833325Y-14620174D02*
X4842848Y-14639222D01*
X4842848Y-14639222D02*
X4842848Y-14743984D01*
X4938086Y-14743984D02*
X4938086Y-14610650D01*
X4938086Y-14629698D02*
X4947610Y-14620174D01*
X4947610Y-14620174D02*
X4966658Y-14610650D01*
X4966658Y-14610650D02*
X4995229Y-14610650D01*
X4995229Y-14610650D02*
X5014277Y-14620174D01*
X5014277Y-14620174D02*
X5023801Y-14639222D01*
X5023801Y-14639222D02*
X5023801Y-14743984D01*
X5023801Y-14639222D02*
X5033325Y-14620174D01*
X5033325Y-14620174D02*
X5052372Y-14610650D01*
X5052372Y-14610650D02*
X5080944Y-14610650D01*
X5080944Y-14610650D02*
X5099991Y-14620174D01*
X5099991Y-14620174D02*
X5109515Y-14639222D01*
X5109515Y-14639222D02*
X5109515Y-14743984D01*
X5499991Y-14534460D02*
X5328563Y-14791603D01*
X5757134Y-14543984D02*
X5776182Y-14543984D01*
X5776182Y-14543984D02*
X5795229Y-14553508D01*
X5795229Y-14553508D02*
X5804753Y-14563031D01*
X5804753Y-14563031D02*
X5814277Y-14582079D01*
X5814277Y-14582079D02*
X5823801Y-14620174D01*
X5823801Y-14620174D02*
X5823801Y-14667793D01*
X5823801Y-14667793D02*
X5814277Y-14705888D01*
X5814277Y-14705888D02*
X5804753Y-14724936D01*
X5804753Y-14724936D02*
X5795229Y-14734460D01*
X5795229Y-14734460D02*
X5776182Y-14743984D01*
X5776182Y-14743984D02*
X5757134Y-14743984D01*
X5757134Y-14743984D02*
X5738086Y-14734460D01*
X5738086Y-14734460D02*
X5728563Y-14724936D01*
X5728563Y-14724936D02*
X5719039Y-14705888D01*
X5719039Y-14705888D02*
X5709515Y-14667793D01*
X5709515Y-14667793D02*
X5709515Y-14620174D01*
X5709515Y-14620174D02*
X5719039Y-14582079D01*
X5719039Y-14582079D02*
X5728563Y-14563031D01*
X5728563Y-14563031D02*
X5738086Y-14553508D01*
X5738086Y-14553508D02*
X5757134Y-14543984D01*
X5909515Y-14724936D02*
X5919039Y-14734460D01*
X5919039Y-14734460D02*
X5909515Y-14743984D01*
X5909515Y-14743984D02*
X5899991Y-14734460D01*
X5899991Y-14734460D02*
X5909515Y-14724936D01*
X5909515Y-14724936D02*
X5909515Y-14743984D01*
X6042848Y-14543984D02*
X6061896Y-14543984D01*
X6061896Y-14543984D02*
X6080944Y-14553508D01*
X6080944Y-14553508D02*
X6090467Y-14563031D01*
X6090467Y-14563031D02*
X6099991Y-14582079D01*
X6099991Y-14582079D02*
X6109515Y-14620174D01*
X6109515Y-14620174D02*
X6109515Y-14667793D01*
X6109515Y-14667793D02*
X6099991Y-14705888D01*
X6099991Y-14705888D02*
X6090467Y-14724936D01*
X6090467Y-14724936D02*
X6080944Y-14734460D01*
X6080944Y-14734460D02*
X6061896Y-14743984D01*
X6061896Y-14743984D02*
X6042848Y-14743984D01*
X6042848Y-14743984D02*
X6023801Y-14734460D01*
X6023801Y-14734460D02*
X6014277Y-14724936D01*
X6014277Y-14724936D02*
X6004753Y-14705888D01*
X6004753Y-14705888D02*
X5995229Y-14667793D01*
X5995229Y-14667793D02*
X5995229Y-14620174D01*
X5995229Y-14620174D02*
X6004753Y-14582079D01*
X6004753Y-14582079D02*
X6014277Y-14563031D01*
X6014277Y-14563031D02*
X6023801Y-14553508D01*
X6023801Y-14553508D02*
X6042848Y-14543984D01*
X6176182Y-14543984D02*
X6299991Y-14543984D01*
X6299991Y-14543984D02*
X6233325Y-14620174D01*
X6233325Y-14620174D02*
X6261896Y-14620174D01*
X6261896Y-14620174D02*
X6280944Y-14629698D01*
X6280944Y-14629698D02*
X6290467Y-14639222D01*
X6290467Y-14639222D02*
X6299991Y-14658269D01*
X6299991Y-14658269D02*
X6299991Y-14705888D01*
X6299991Y-14705888D02*
X6290467Y-14724936D01*
X6290467Y-14724936D02*
X6280944Y-14734460D01*
X6280944Y-14734460D02*
X6261896Y-14743984D01*
X6261896Y-14743984D02*
X6204753Y-14743984D01*
X6204753Y-14743984D02*
X6185706Y-14734460D01*
X6185706Y-14734460D02*
X6176182Y-14724936D01*
X6395229Y-14743984D02*
X6433325Y-14743984D01*
X6433325Y-14743984D02*
X6452372Y-14734460D01*
X6452372Y-14734460D02*
X6461896Y-14724936D01*
X6461896Y-14724936D02*
X6480944Y-14696365D01*
X6480944Y-14696365D02*
X6490467Y-14658269D01*
X6490467Y-14658269D02*
X6490467Y-14582079D01*
X6490467Y-14582079D02*
X6480944Y-14563031D01*
X6480944Y-14563031D02*
X6471420Y-14553508D01*
X6471420Y-14553508D02*
X6452372Y-14543984D01*
X6452372Y-14543984D02*
X6414277Y-14543984D01*
X6414277Y-14543984D02*
X6395229Y-14553508D01*
X6395229Y-14553508D02*
X6385706Y-14563031D01*
X6385706Y-14563031D02*
X6376182Y-14582079D01*
X6376182Y-14582079D02*
X6376182Y-14629698D01*
X6376182Y-14629698D02*
X6385706Y-14648746D01*
X6385706Y-14648746D02*
X6395229Y-14658269D01*
X6395229Y-14658269D02*
X6414277Y-14667793D01*
X6414277Y-14667793D02*
X6452372Y-14667793D01*
X6452372Y-14667793D02*
X6471420Y-14658269D01*
X6471420Y-14658269D02*
X6480944Y-14648746D01*
X6480944Y-14648746D02*
X6490467Y-14629698D01*
X6661896Y-14610650D02*
X6661896Y-14743984D01*
X6614277Y-14534460D02*
X6566658Y-14677317D01*
X6566658Y-14677317D02*
X6690467Y-14677317D01*
X6757134Y-14543984D02*
X6757134Y-14582079D01*
X6833325Y-14543984D02*
X6833325Y-14582079D01*
X7128563Y-14820174D02*
X7119039Y-14810650D01*
X7119039Y-14810650D02*
X7099991Y-14782079D01*
X7099991Y-14782079D02*
X7090468Y-14763031D01*
X7090468Y-14763031D02*
X7080944Y-14734460D01*
X7080944Y-14734460D02*
X7071420Y-14686841D01*
X7071420Y-14686841D02*
X7071420Y-14648746D01*
X7071420Y-14648746D02*
X7080944Y-14601127D01*
X7080944Y-14601127D02*
X7090468Y-14572555D01*
X7090468Y-14572555D02*
X7099991Y-14553508D01*
X7099991Y-14553508D02*
X7119039Y-14524936D01*
X7119039Y-14524936D02*
X7128563Y-14515412D01*
X7299991Y-14543984D02*
X7204753Y-14543984D01*
X7204753Y-14543984D02*
X7195229Y-14639222D01*
X7195229Y-14639222D02*
X7204753Y-14629698D01*
X7204753Y-14629698D02*
X7223801Y-14620174D01*
X7223801Y-14620174D02*
X7271420Y-14620174D01*
X7271420Y-14620174D02*
X7290468Y-14629698D01*
X7290468Y-14629698D02*
X7299991Y-14639222D01*
X7299991Y-14639222D02*
X7309515Y-14658269D01*
X7309515Y-14658269D02*
X7309515Y-14705888D01*
X7309515Y-14705888D02*
X7299991Y-14724936D01*
X7299991Y-14724936D02*
X7290468Y-14734460D01*
X7290468Y-14734460D02*
X7271420Y-14743984D01*
X7271420Y-14743984D02*
X7223801Y-14743984D01*
X7223801Y-14743984D02*
X7204753Y-14734460D01*
X7204753Y-14734460D02*
X7195229Y-14724936D01*
X7547610Y-14743984D02*
X7547610Y-14543984D01*
X7633325Y-14743984D02*
X7633325Y-14639222D01*
X7633325Y-14639222D02*
X7623801Y-14620174D01*
X7623801Y-14620174D02*
X7604753Y-14610650D01*
X7604753Y-14610650D02*
X7576182Y-14610650D01*
X7576182Y-14610650D02*
X7557134Y-14620174D01*
X7557134Y-14620174D02*
X7547610Y-14629698D01*
X7757134Y-14743984D02*
X7738087Y-14734460D01*
X7738087Y-14734460D02*
X7728563Y-14724936D01*
X7728563Y-14724936D02*
X7719039Y-14705888D01*
X7719039Y-14705888D02*
X7719039Y-14648746D01*
X7719039Y-14648746D02*
X7728563Y-14629698D01*
X7728563Y-14629698D02*
X7738087Y-14620174D01*
X7738087Y-14620174D02*
X7757134Y-14610650D01*
X7757134Y-14610650D02*
X7785706Y-14610650D01*
X7785706Y-14610650D02*
X7804753Y-14620174D01*
X7804753Y-14620174D02*
X7814277Y-14629698D01*
X7814277Y-14629698D02*
X7823801Y-14648746D01*
X7823801Y-14648746D02*
X7823801Y-14705888D01*
X7823801Y-14705888D02*
X7814277Y-14724936D01*
X7814277Y-14724936D02*
X7804753Y-14734460D01*
X7804753Y-14734460D02*
X7785706Y-14743984D01*
X7785706Y-14743984D02*
X7757134Y-14743984D01*
X7938087Y-14743984D02*
X7919039Y-14734460D01*
X7919039Y-14734460D02*
X7909515Y-14715412D01*
X7909515Y-14715412D02*
X7909515Y-14543984D01*
X8090468Y-14734460D02*
X8071420Y-14743984D01*
X8071420Y-14743984D02*
X8033325Y-14743984D01*
X8033325Y-14743984D02*
X8014277Y-14734460D01*
X8014277Y-14734460D02*
X8004753Y-14715412D01*
X8004753Y-14715412D02*
X8004753Y-14639222D01*
X8004753Y-14639222D02*
X8014277Y-14620174D01*
X8014277Y-14620174D02*
X8033325Y-14610650D01*
X8033325Y-14610650D02*
X8071420Y-14610650D01*
X8071420Y-14610650D02*
X8090468Y-14620174D01*
X8090468Y-14620174D02*
X8099991Y-14639222D01*
X8099991Y-14639222D02*
X8099991Y-14658269D01*
X8099991Y-14658269D02*
X8004753Y-14677317D01*
X8176182Y-14734460D02*
X8195230Y-14743984D01*
X8195230Y-14743984D02*
X8233325Y-14743984D01*
X8233325Y-14743984D02*
X8252372Y-14734460D01*
X8252372Y-14734460D02*
X8261896Y-14715412D01*
X8261896Y-14715412D02*
X8261896Y-14705888D01*
X8261896Y-14705888D02*
X8252372Y-14686841D01*
X8252372Y-14686841D02*
X8233325Y-14677317D01*
X8233325Y-14677317D02*
X8204753Y-14677317D01*
X8204753Y-14677317D02*
X8185706Y-14667793D01*
X8185706Y-14667793D02*
X8176182Y-14648746D01*
X8176182Y-14648746D02*
X8176182Y-14639222D01*
X8176182Y-14639222D02*
X8185706Y-14620174D01*
X8185706Y-14620174D02*
X8204753Y-14610650D01*
X8204753Y-14610650D02*
X8233325Y-14610650D01*
X8233325Y-14610650D02*
X8252372Y-14620174D01*
X8328563Y-14820174D02*
X8338087Y-14810650D01*
X8338087Y-14810650D02*
X8357134Y-14782079D01*
X8357134Y-14782079D02*
X8366658Y-14763031D01*
X8366658Y-14763031D02*
X8376182Y-14734460D01*
X8376182Y-14734460D02*
X8385706Y-14686841D01*
X8385706Y-14686841D02*
X8385706Y-14648746D01*
X8385706Y-14648746D02*
X8376182Y-14601127D01*
X8376182Y-14601127D02*
X8366658Y-14572555D01*
X8366658Y-14572555D02*
X8357134Y-14553508D01*
X8357134Y-14553508D02*
X8338087Y-14524936D01*
X8338087Y-14524936D02*
X8328563Y-14515412D01*
D13*
X3433500Y-14856500D02*
X3553500Y-14976500D01*
X3553500Y-14856500D02*
X3433500Y-14976500D01*
X3553500Y-14916500D02*
G75*
G02*
X3433500Y-14916500I-60000J0D01*
G01*
X3433500Y-14916500D02*
G75*
G02*
X3553500Y-14916500I60000J0D01*
G01*
D11*
X3919039Y-15007984D02*
X3804753Y-15007984D01*
X3861896Y-15007984D02*
X3861896Y-14807984D01*
X3861896Y-14807984D02*
X3842848Y-14836555D01*
X3842848Y-14836555D02*
X3823801Y-14855603D01*
X3823801Y-14855603D02*
X3804753Y-14865127D01*
X4004753Y-14988936D02*
X4014277Y-14998460D01*
X4014277Y-14998460D02*
X4004753Y-15007984D01*
X4004753Y-15007984D02*
X3995229Y-14998460D01*
X3995229Y-14998460D02*
X4004753Y-14988936D01*
X4004753Y-14988936D02*
X4004753Y-15007984D01*
X4090467Y-14827031D02*
X4099991Y-14817508D01*
X4099991Y-14817508D02*
X4119039Y-14807984D01*
X4119039Y-14807984D02*
X4166658Y-14807984D01*
X4166658Y-14807984D02*
X4185705Y-14817508D01*
X4185705Y-14817508D02*
X4195229Y-14827031D01*
X4195229Y-14827031D02*
X4204753Y-14846079D01*
X4204753Y-14846079D02*
X4204753Y-14865127D01*
X4204753Y-14865127D02*
X4195229Y-14893698D01*
X4195229Y-14893698D02*
X4080943Y-15007984D01*
X4080943Y-15007984D02*
X4204753Y-15007984D01*
X4328563Y-14807984D02*
X4347610Y-14807984D01*
X4347610Y-14807984D02*
X4366658Y-14817508D01*
X4366658Y-14817508D02*
X4376182Y-14827031D01*
X4376182Y-14827031D02*
X4385705Y-14846079D01*
X4385705Y-14846079D02*
X4395229Y-14884174D01*
X4395229Y-14884174D02*
X4395229Y-14931793D01*
X4395229Y-14931793D02*
X4385705Y-14969888D01*
X4385705Y-14969888D02*
X4376182Y-14988936D01*
X4376182Y-14988936D02*
X4366658Y-14998460D01*
X4366658Y-14998460D02*
X4347610Y-15007984D01*
X4347610Y-15007984D02*
X4328563Y-15007984D01*
X4328563Y-15007984D02*
X4309515Y-14998460D01*
X4309515Y-14998460D02*
X4299991Y-14988936D01*
X4299991Y-14988936D02*
X4290467Y-14969888D01*
X4290467Y-14969888D02*
X4280944Y-14931793D01*
X4280944Y-14931793D02*
X4280944Y-14884174D01*
X4280944Y-14884174D02*
X4290467Y-14846079D01*
X4290467Y-14846079D02*
X4299991Y-14827031D01*
X4299991Y-14827031D02*
X4309515Y-14817508D01*
X4309515Y-14817508D02*
X4328563Y-14807984D01*
X4519039Y-14807984D02*
X4538086Y-14807984D01*
X4538086Y-14807984D02*
X4557134Y-14817508D01*
X4557134Y-14817508D02*
X4566658Y-14827031D01*
X4566658Y-14827031D02*
X4576182Y-14846079D01*
X4576182Y-14846079D02*
X4585705Y-14884174D01*
X4585705Y-14884174D02*
X4585705Y-14931793D01*
X4585705Y-14931793D02*
X4576182Y-14969888D01*
X4576182Y-14969888D02*
X4566658Y-14988936D01*
X4566658Y-14988936D02*
X4557134Y-14998460D01*
X4557134Y-14998460D02*
X4538086Y-15007984D01*
X4538086Y-15007984D02*
X4519039Y-15007984D01*
X4519039Y-15007984D02*
X4499991Y-14998460D01*
X4499991Y-14998460D02*
X4490467Y-14988936D01*
X4490467Y-14988936D02*
X4480944Y-14969888D01*
X4480944Y-14969888D02*
X4471420Y-14931793D01*
X4471420Y-14931793D02*
X4471420Y-14884174D01*
X4471420Y-14884174D02*
X4480944Y-14846079D01*
X4480944Y-14846079D02*
X4490467Y-14827031D01*
X4490467Y-14827031D02*
X4499991Y-14817508D01*
X4499991Y-14817508D02*
X4519039Y-14807984D01*
X4671420Y-15007984D02*
X4671420Y-14874650D01*
X4671420Y-14893698D02*
X4680944Y-14884174D01*
X4680944Y-14884174D02*
X4699991Y-14874650D01*
X4699991Y-14874650D02*
X4728563Y-14874650D01*
X4728563Y-14874650D02*
X4747610Y-14884174D01*
X4747610Y-14884174D02*
X4757134Y-14903222D01*
X4757134Y-14903222D02*
X4757134Y-15007984D01*
X4757134Y-14903222D02*
X4766658Y-14884174D01*
X4766658Y-14884174D02*
X4785705Y-14874650D01*
X4785705Y-14874650D02*
X4814277Y-14874650D01*
X4814277Y-14874650D02*
X4833325Y-14884174D01*
X4833325Y-14884174D02*
X4842848Y-14903222D01*
X4842848Y-14903222D02*
X4842848Y-15007984D01*
X4938086Y-15007984D02*
X4938086Y-14874650D01*
X4938086Y-14893698D02*
X4947610Y-14884174D01*
X4947610Y-14884174D02*
X4966658Y-14874650D01*
X4966658Y-14874650D02*
X4995229Y-14874650D01*
X4995229Y-14874650D02*
X5014277Y-14884174D01*
X5014277Y-14884174D02*
X5023801Y-14903222D01*
X5023801Y-14903222D02*
X5023801Y-15007984D01*
X5023801Y-14903222D02*
X5033325Y-14884174D01*
X5033325Y-14884174D02*
X5052372Y-14874650D01*
X5052372Y-14874650D02*
X5080944Y-14874650D01*
X5080944Y-14874650D02*
X5099991Y-14884174D01*
X5099991Y-14884174D02*
X5109515Y-14903222D01*
X5109515Y-14903222D02*
X5109515Y-15007984D01*
X5499991Y-14798460D02*
X5328563Y-15055603D01*
X5757134Y-14807984D02*
X5776182Y-14807984D01*
X5776182Y-14807984D02*
X5795229Y-14817508D01*
X5795229Y-14817508D02*
X5804753Y-14827031D01*
X5804753Y-14827031D02*
X5814277Y-14846079D01*
X5814277Y-14846079D02*
X5823801Y-14884174D01*
X5823801Y-14884174D02*
X5823801Y-14931793D01*
X5823801Y-14931793D02*
X5814277Y-14969888D01*
X5814277Y-14969888D02*
X5804753Y-14988936D01*
X5804753Y-14988936D02*
X5795229Y-14998460D01*
X5795229Y-14998460D02*
X5776182Y-15007984D01*
X5776182Y-15007984D02*
X5757134Y-15007984D01*
X5757134Y-15007984D02*
X5738086Y-14998460D01*
X5738086Y-14998460D02*
X5728563Y-14988936D01*
X5728563Y-14988936D02*
X5719039Y-14969888D01*
X5719039Y-14969888D02*
X5709515Y-14931793D01*
X5709515Y-14931793D02*
X5709515Y-14884174D01*
X5709515Y-14884174D02*
X5719039Y-14846079D01*
X5719039Y-14846079D02*
X5728563Y-14827031D01*
X5728563Y-14827031D02*
X5738086Y-14817508D01*
X5738086Y-14817508D02*
X5757134Y-14807984D01*
X5909515Y-14988936D02*
X5919039Y-14998460D01*
X5919039Y-14998460D02*
X5909515Y-15007984D01*
X5909515Y-15007984D02*
X5899991Y-14998460D01*
X5899991Y-14998460D02*
X5909515Y-14988936D01*
X5909515Y-14988936D02*
X5909515Y-15007984D01*
X6042848Y-14807984D02*
X6061896Y-14807984D01*
X6061896Y-14807984D02*
X6080944Y-14817508D01*
X6080944Y-14817508D02*
X6090467Y-14827031D01*
X6090467Y-14827031D02*
X6099991Y-14846079D01*
X6099991Y-14846079D02*
X6109515Y-14884174D01*
X6109515Y-14884174D02*
X6109515Y-14931793D01*
X6109515Y-14931793D02*
X6099991Y-14969888D01*
X6099991Y-14969888D02*
X6090467Y-14988936D01*
X6090467Y-14988936D02*
X6080944Y-14998460D01*
X6080944Y-14998460D02*
X6061896Y-15007984D01*
X6061896Y-15007984D02*
X6042848Y-15007984D01*
X6042848Y-15007984D02*
X6023801Y-14998460D01*
X6023801Y-14998460D02*
X6014277Y-14988936D01*
X6014277Y-14988936D02*
X6004753Y-14969888D01*
X6004753Y-14969888D02*
X5995229Y-14931793D01*
X5995229Y-14931793D02*
X5995229Y-14884174D01*
X5995229Y-14884174D02*
X6004753Y-14846079D01*
X6004753Y-14846079D02*
X6014277Y-14827031D01*
X6014277Y-14827031D02*
X6023801Y-14817508D01*
X6023801Y-14817508D02*
X6042848Y-14807984D01*
X6280944Y-14874650D02*
X6280944Y-15007984D01*
X6233325Y-14798460D02*
X6185706Y-14941317D01*
X6185706Y-14941317D02*
X6309515Y-14941317D01*
X6366658Y-14807984D02*
X6499991Y-14807984D01*
X6499991Y-14807984D02*
X6414277Y-15007984D01*
X6566658Y-14827031D02*
X6576182Y-14817508D01*
X6576182Y-14817508D02*
X6595229Y-14807984D01*
X6595229Y-14807984D02*
X6642848Y-14807984D01*
X6642848Y-14807984D02*
X6661896Y-14817508D01*
X6661896Y-14817508D02*
X6671420Y-14827031D01*
X6671420Y-14827031D02*
X6680944Y-14846079D01*
X6680944Y-14846079D02*
X6680944Y-14865127D01*
X6680944Y-14865127D02*
X6671420Y-14893698D01*
X6671420Y-14893698D02*
X6557134Y-15007984D01*
X6557134Y-15007984D02*
X6680944Y-15007984D01*
X6757134Y-14807984D02*
X6757134Y-14846079D01*
X6833325Y-14807984D02*
X6833325Y-14846079D01*
X7128563Y-15084174D02*
X7119039Y-15074650D01*
X7119039Y-15074650D02*
X7099991Y-15046079D01*
X7099991Y-15046079D02*
X7090468Y-15027031D01*
X7090468Y-15027031D02*
X7080944Y-14998460D01*
X7080944Y-14998460D02*
X7071420Y-14950841D01*
X7071420Y-14950841D02*
X7071420Y-14912746D01*
X7071420Y-14912746D02*
X7080944Y-14865127D01*
X7080944Y-14865127D02*
X7090468Y-14836555D01*
X7090468Y-14836555D02*
X7099991Y-14817508D01*
X7099991Y-14817508D02*
X7119039Y-14788936D01*
X7119039Y-14788936D02*
X7128563Y-14779412D01*
X7290468Y-14807984D02*
X7252372Y-14807984D01*
X7252372Y-14807984D02*
X7233325Y-14817508D01*
X7233325Y-14817508D02*
X7223801Y-14827031D01*
X7223801Y-14827031D02*
X7204753Y-14855603D01*
X7204753Y-14855603D02*
X7195229Y-14893698D01*
X7195229Y-14893698D02*
X7195229Y-14969888D01*
X7195229Y-14969888D02*
X7204753Y-14988936D01*
X7204753Y-14988936D02*
X7214277Y-14998460D01*
X7214277Y-14998460D02*
X7233325Y-15007984D01*
X7233325Y-15007984D02*
X7271420Y-15007984D01*
X7271420Y-15007984D02*
X7290468Y-14998460D01*
X7290468Y-14998460D02*
X7299991Y-14988936D01*
X7299991Y-14988936D02*
X7309515Y-14969888D01*
X7309515Y-14969888D02*
X7309515Y-14922269D01*
X7309515Y-14922269D02*
X7299991Y-14903222D01*
X7299991Y-14903222D02*
X7290468Y-14893698D01*
X7290468Y-14893698D02*
X7271420Y-14884174D01*
X7271420Y-14884174D02*
X7233325Y-14884174D01*
X7233325Y-14884174D02*
X7214277Y-14893698D01*
X7214277Y-14893698D02*
X7204753Y-14903222D01*
X7204753Y-14903222D02*
X7195229Y-14922269D01*
X7547610Y-15007984D02*
X7547610Y-14807984D01*
X7633325Y-15007984D02*
X7633325Y-14903222D01*
X7633325Y-14903222D02*
X7623801Y-14884174D01*
X7623801Y-14884174D02*
X7604753Y-14874650D01*
X7604753Y-14874650D02*
X7576182Y-14874650D01*
X7576182Y-14874650D02*
X7557134Y-14884174D01*
X7557134Y-14884174D02*
X7547610Y-14893698D01*
X7757134Y-15007984D02*
X7738087Y-14998460D01*
X7738087Y-14998460D02*
X7728563Y-14988936D01*
X7728563Y-14988936D02*
X7719039Y-14969888D01*
X7719039Y-14969888D02*
X7719039Y-14912746D01*
X7719039Y-14912746D02*
X7728563Y-14893698D01*
X7728563Y-14893698D02*
X7738087Y-14884174D01*
X7738087Y-14884174D02*
X7757134Y-14874650D01*
X7757134Y-14874650D02*
X7785706Y-14874650D01*
X7785706Y-14874650D02*
X7804753Y-14884174D01*
X7804753Y-14884174D02*
X7814277Y-14893698D01*
X7814277Y-14893698D02*
X7823801Y-14912746D01*
X7823801Y-14912746D02*
X7823801Y-14969888D01*
X7823801Y-14969888D02*
X7814277Y-14988936D01*
X7814277Y-14988936D02*
X7804753Y-14998460D01*
X7804753Y-14998460D02*
X7785706Y-15007984D01*
X7785706Y-15007984D02*
X7757134Y-15007984D01*
X7938087Y-15007984D02*
X7919039Y-14998460D01*
X7919039Y-14998460D02*
X7909515Y-14979412D01*
X7909515Y-14979412D02*
X7909515Y-14807984D01*
X8090468Y-14998460D02*
X8071420Y-15007984D01*
X8071420Y-15007984D02*
X8033325Y-15007984D01*
X8033325Y-15007984D02*
X8014277Y-14998460D01*
X8014277Y-14998460D02*
X8004753Y-14979412D01*
X8004753Y-14979412D02*
X8004753Y-14903222D01*
X8004753Y-14903222D02*
X8014277Y-14884174D01*
X8014277Y-14884174D02*
X8033325Y-14874650D01*
X8033325Y-14874650D02*
X8071420Y-14874650D01*
X8071420Y-14874650D02*
X8090468Y-14884174D01*
X8090468Y-14884174D02*
X8099991Y-14903222D01*
X8099991Y-14903222D02*
X8099991Y-14922269D01*
X8099991Y-14922269D02*
X8004753Y-14941317D01*
X8176182Y-14998460D02*
X8195230Y-15007984D01*
X8195230Y-15007984D02*
X8233325Y-15007984D01*
X8233325Y-15007984D02*
X8252372Y-14998460D01*
X8252372Y-14998460D02*
X8261896Y-14979412D01*
X8261896Y-14979412D02*
X8261896Y-14969888D01*
X8261896Y-14969888D02*
X8252372Y-14950841D01*
X8252372Y-14950841D02*
X8233325Y-14941317D01*
X8233325Y-14941317D02*
X8204753Y-14941317D01*
X8204753Y-14941317D02*
X8185706Y-14931793D01*
X8185706Y-14931793D02*
X8176182Y-14912746D01*
X8176182Y-14912746D02*
X8176182Y-14903222D01*
X8176182Y-14903222D02*
X8185706Y-14884174D01*
X8185706Y-14884174D02*
X8204753Y-14874650D01*
X8204753Y-14874650D02*
X8233325Y-14874650D01*
X8233325Y-14874650D02*
X8252372Y-14884174D01*
X8328563Y-15084174D02*
X8338087Y-15074650D01*
X8338087Y-15074650D02*
X8357134Y-15046079D01*
X8357134Y-15046079D02*
X8366658Y-15027031D01*
X8366658Y-15027031D02*
X8376182Y-14998460D01*
X8376182Y-14998460D02*
X8385706Y-14950841D01*
X8385706Y-14950841D02*
X8385706Y-14912746D01*
X8385706Y-14912746D02*
X8376182Y-14865127D01*
X8376182Y-14865127D02*
X8366658Y-14836555D01*
X8366658Y-14836555D02*
X8357134Y-14817508D01*
X8357134Y-14817508D02*
X8338087Y-14788936D01*
X8338087Y-14788936D02*
X8328563Y-14779412D01*
X3353500Y-15080500D02*
X3553500Y-15280500D01*
X3553500Y-15080500D02*
X3353500Y-15280500D01*
X3453500Y-15080500D02*
X3453500Y-15280500D01*
X3353500Y-15180500D02*
X3553500Y-15180500D01*
X3804753Y-15091031D02*
X3814277Y-15081508D01*
X3814277Y-15081508D02*
X3833324Y-15071984D01*
X3833324Y-15071984D02*
X3880943Y-15071984D01*
X3880943Y-15071984D02*
X3899991Y-15081508D01*
X3899991Y-15081508D02*
X3909515Y-15091031D01*
X3909515Y-15091031D02*
X3919039Y-15110079D01*
X3919039Y-15110079D02*
X3919039Y-15129127D01*
X3919039Y-15129127D02*
X3909515Y-15157698D01*
X3909515Y-15157698D02*
X3795229Y-15271984D01*
X3795229Y-15271984D02*
X3919039Y-15271984D01*
X4004753Y-15252936D02*
X4014277Y-15262460D01*
X4014277Y-15262460D02*
X4004753Y-15271984D01*
X4004753Y-15271984D02*
X3995229Y-15262460D01*
X3995229Y-15262460D02*
X4004753Y-15252936D01*
X4004753Y-15252936D02*
X4004753Y-15271984D01*
X4195229Y-15071984D02*
X4099991Y-15071984D01*
X4099991Y-15071984D02*
X4090467Y-15167222D01*
X4090467Y-15167222D02*
X4099991Y-15157698D01*
X4099991Y-15157698D02*
X4119039Y-15148174D01*
X4119039Y-15148174D02*
X4166658Y-15148174D01*
X4166658Y-15148174D02*
X4185705Y-15157698D01*
X4185705Y-15157698D02*
X4195229Y-15167222D01*
X4195229Y-15167222D02*
X4204753Y-15186269D01*
X4204753Y-15186269D02*
X4204753Y-15233888D01*
X4204753Y-15233888D02*
X4195229Y-15252936D01*
X4195229Y-15252936D02*
X4185705Y-15262460D01*
X4185705Y-15262460D02*
X4166658Y-15271984D01*
X4166658Y-15271984D02*
X4119039Y-15271984D01*
X4119039Y-15271984D02*
X4099991Y-15262460D01*
X4099991Y-15262460D02*
X4090467Y-15252936D01*
X4328563Y-15071984D02*
X4347610Y-15071984D01*
X4347610Y-15071984D02*
X4366658Y-15081508D01*
X4366658Y-15081508D02*
X4376182Y-15091031D01*
X4376182Y-15091031D02*
X4385705Y-15110079D01*
X4385705Y-15110079D02*
X4395229Y-15148174D01*
X4395229Y-15148174D02*
X4395229Y-15195793D01*
X4395229Y-15195793D02*
X4385705Y-15233888D01*
X4385705Y-15233888D02*
X4376182Y-15252936D01*
X4376182Y-15252936D02*
X4366658Y-15262460D01*
X4366658Y-15262460D02*
X4347610Y-15271984D01*
X4347610Y-15271984D02*
X4328563Y-15271984D01*
X4328563Y-15271984D02*
X4309515Y-15262460D01*
X4309515Y-15262460D02*
X4299991Y-15252936D01*
X4299991Y-15252936D02*
X4290467Y-15233888D01*
X4290467Y-15233888D02*
X4280944Y-15195793D01*
X4280944Y-15195793D02*
X4280944Y-15148174D01*
X4280944Y-15148174D02*
X4290467Y-15110079D01*
X4290467Y-15110079D02*
X4299991Y-15091031D01*
X4299991Y-15091031D02*
X4309515Y-15081508D01*
X4309515Y-15081508D02*
X4328563Y-15071984D01*
X4519039Y-15071984D02*
X4538086Y-15071984D01*
X4538086Y-15071984D02*
X4557134Y-15081508D01*
X4557134Y-15081508D02*
X4566658Y-15091031D01*
X4566658Y-15091031D02*
X4576182Y-15110079D01*
X4576182Y-15110079D02*
X4585705Y-15148174D01*
X4585705Y-15148174D02*
X4585705Y-15195793D01*
X4585705Y-15195793D02*
X4576182Y-15233888D01*
X4576182Y-15233888D02*
X4566658Y-15252936D01*
X4566658Y-15252936D02*
X4557134Y-15262460D01*
X4557134Y-15262460D02*
X4538086Y-15271984D01*
X4538086Y-15271984D02*
X4519039Y-15271984D01*
X4519039Y-15271984D02*
X4499991Y-15262460D01*
X4499991Y-15262460D02*
X4490467Y-15252936D01*
X4490467Y-15252936D02*
X4480944Y-15233888D01*
X4480944Y-15233888D02*
X4471420Y-15195793D01*
X4471420Y-15195793D02*
X4471420Y-15148174D01*
X4471420Y-15148174D02*
X4480944Y-15110079D01*
X4480944Y-15110079D02*
X4490467Y-15091031D01*
X4490467Y-15091031D02*
X4499991Y-15081508D01*
X4499991Y-15081508D02*
X4519039Y-15071984D01*
X4671420Y-15271984D02*
X4671420Y-15138650D01*
X4671420Y-15157698D02*
X4680944Y-15148174D01*
X4680944Y-15148174D02*
X4699991Y-15138650D01*
X4699991Y-15138650D02*
X4728563Y-15138650D01*
X4728563Y-15138650D02*
X4747610Y-15148174D01*
X4747610Y-15148174D02*
X4757134Y-15167222D01*
X4757134Y-15167222D02*
X4757134Y-15271984D01*
X4757134Y-15167222D02*
X4766658Y-15148174D01*
X4766658Y-15148174D02*
X4785705Y-15138650D01*
X4785705Y-15138650D02*
X4814277Y-15138650D01*
X4814277Y-15138650D02*
X4833325Y-15148174D01*
X4833325Y-15148174D02*
X4842848Y-15167222D01*
X4842848Y-15167222D02*
X4842848Y-15271984D01*
X4938086Y-15271984D02*
X4938086Y-15138650D01*
X4938086Y-15157698D02*
X4947610Y-15148174D01*
X4947610Y-15148174D02*
X4966658Y-15138650D01*
X4966658Y-15138650D02*
X4995229Y-15138650D01*
X4995229Y-15138650D02*
X5014277Y-15148174D01*
X5014277Y-15148174D02*
X5023801Y-15167222D01*
X5023801Y-15167222D02*
X5023801Y-15271984D01*
X5023801Y-15167222D02*
X5033325Y-15148174D01*
X5033325Y-15148174D02*
X5052372Y-15138650D01*
X5052372Y-15138650D02*
X5080944Y-15138650D01*
X5080944Y-15138650D02*
X5099991Y-15148174D01*
X5099991Y-15148174D02*
X5109515Y-15167222D01*
X5109515Y-15167222D02*
X5109515Y-15271984D01*
X5499991Y-15062460D02*
X5328563Y-15319603D01*
X5757134Y-15071984D02*
X5776182Y-15071984D01*
X5776182Y-15071984D02*
X5795229Y-15081508D01*
X5795229Y-15081508D02*
X5804753Y-15091031D01*
X5804753Y-15091031D02*
X5814277Y-15110079D01*
X5814277Y-15110079D02*
X5823801Y-15148174D01*
X5823801Y-15148174D02*
X5823801Y-15195793D01*
X5823801Y-15195793D02*
X5814277Y-15233888D01*
X5814277Y-15233888D02*
X5804753Y-15252936D01*
X5804753Y-15252936D02*
X5795229Y-15262460D01*
X5795229Y-15262460D02*
X5776182Y-15271984D01*
X5776182Y-15271984D02*
X5757134Y-15271984D01*
X5757134Y-15271984D02*
X5738086Y-15262460D01*
X5738086Y-15262460D02*
X5728563Y-15252936D01*
X5728563Y-15252936D02*
X5719039Y-15233888D01*
X5719039Y-15233888D02*
X5709515Y-15195793D01*
X5709515Y-15195793D02*
X5709515Y-15148174D01*
X5709515Y-15148174D02*
X5719039Y-15110079D01*
X5719039Y-15110079D02*
X5728563Y-15091031D01*
X5728563Y-15091031D02*
X5738086Y-15081508D01*
X5738086Y-15081508D02*
X5757134Y-15071984D01*
X5909515Y-15252936D02*
X5919039Y-15262460D01*
X5919039Y-15262460D02*
X5909515Y-15271984D01*
X5909515Y-15271984D02*
X5899991Y-15262460D01*
X5899991Y-15262460D02*
X5909515Y-15252936D01*
X5909515Y-15252936D02*
X5909515Y-15271984D01*
X6042848Y-15071984D02*
X6061896Y-15071984D01*
X6061896Y-15071984D02*
X6080944Y-15081508D01*
X6080944Y-15081508D02*
X6090467Y-15091031D01*
X6090467Y-15091031D02*
X6099991Y-15110079D01*
X6099991Y-15110079D02*
X6109515Y-15148174D01*
X6109515Y-15148174D02*
X6109515Y-15195793D01*
X6109515Y-15195793D02*
X6099991Y-15233888D01*
X6099991Y-15233888D02*
X6090467Y-15252936D01*
X6090467Y-15252936D02*
X6080944Y-15262460D01*
X6080944Y-15262460D02*
X6061896Y-15271984D01*
X6061896Y-15271984D02*
X6042848Y-15271984D01*
X6042848Y-15271984D02*
X6023801Y-15262460D01*
X6023801Y-15262460D02*
X6014277Y-15252936D01*
X6014277Y-15252936D02*
X6004753Y-15233888D01*
X6004753Y-15233888D02*
X5995229Y-15195793D01*
X5995229Y-15195793D02*
X5995229Y-15148174D01*
X5995229Y-15148174D02*
X6004753Y-15110079D01*
X6004753Y-15110079D02*
X6014277Y-15091031D01*
X6014277Y-15091031D02*
X6023801Y-15081508D01*
X6023801Y-15081508D02*
X6042848Y-15071984D01*
X6204753Y-15271984D02*
X6242848Y-15271984D01*
X6242848Y-15271984D02*
X6261896Y-15262460D01*
X6261896Y-15262460D02*
X6271420Y-15252936D01*
X6271420Y-15252936D02*
X6290467Y-15224365D01*
X6290467Y-15224365D02*
X6299991Y-15186269D01*
X6299991Y-15186269D02*
X6299991Y-15110079D01*
X6299991Y-15110079D02*
X6290467Y-15091031D01*
X6290467Y-15091031D02*
X6280944Y-15081508D01*
X6280944Y-15081508D02*
X6261896Y-15071984D01*
X6261896Y-15071984D02*
X6223801Y-15071984D01*
X6223801Y-15071984D02*
X6204753Y-15081508D01*
X6204753Y-15081508D02*
X6195229Y-15091031D01*
X6195229Y-15091031D02*
X6185706Y-15110079D01*
X6185706Y-15110079D02*
X6185706Y-15157698D01*
X6185706Y-15157698D02*
X6195229Y-15176746D01*
X6195229Y-15176746D02*
X6204753Y-15186269D01*
X6204753Y-15186269D02*
X6223801Y-15195793D01*
X6223801Y-15195793D02*
X6261896Y-15195793D01*
X6261896Y-15195793D02*
X6280944Y-15186269D01*
X6280944Y-15186269D02*
X6290467Y-15176746D01*
X6290467Y-15176746D02*
X6299991Y-15157698D01*
X6414277Y-15157698D02*
X6395229Y-15148174D01*
X6395229Y-15148174D02*
X6385706Y-15138650D01*
X6385706Y-15138650D02*
X6376182Y-15119603D01*
X6376182Y-15119603D02*
X6376182Y-15110079D01*
X6376182Y-15110079D02*
X6385706Y-15091031D01*
X6385706Y-15091031D02*
X6395229Y-15081508D01*
X6395229Y-15081508D02*
X6414277Y-15071984D01*
X6414277Y-15071984D02*
X6452372Y-15071984D01*
X6452372Y-15071984D02*
X6471420Y-15081508D01*
X6471420Y-15081508D02*
X6480944Y-15091031D01*
X6480944Y-15091031D02*
X6490467Y-15110079D01*
X6490467Y-15110079D02*
X6490467Y-15119603D01*
X6490467Y-15119603D02*
X6480944Y-15138650D01*
X6480944Y-15138650D02*
X6471420Y-15148174D01*
X6471420Y-15148174D02*
X6452372Y-15157698D01*
X6452372Y-15157698D02*
X6414277Y-15157698D01*
X6414277Y-15157698D02*
X6395229Y-15167222D01*
X6395229Y-15167222D02*
X6385706Y-15176746D01*
X6385706Y-15176746D02*
X6376182Y-15195793D01*
X6376182Y-15195793D02*
X6376182Y-15233888D01*
X6376182Y-15233888D02*
X6385706Y-15252936D01*
X6385706Y-15252936D02*
X6395229Y-15262460D01*
X6395229Y-15262460D02*
X6414277Y-15271984D01*
X6414277Y-15271984D02*
X6452372Y-15271984D01*
X6452372Y-15271984D02*
X6471420Y-15262460D01*
X6471420Y-15262460D02*
X6480944Y-15252936D01*
X6480944Y-15252936D02*
X6490467Y-15233888D01*
X6490467Y-15233888D02*
X6490467Y-15195793D01*
X6490467Y-15195793D02*
X6480944Y-15176746D01*
X6480944Y-15176746D02*
X6471420Y-15167222D01*
X6471420Y-15167222D02*
X6452372Y-15157698D01*
X6661896Y-15138650D02*
X6661896Y-15271984D01*
X6614277Y-15062460D02*
X6566658Y-15205317D01*
X6566658Y-15205317D02*
X6690467Y-15205317D01*
X6757134Y-15071984D02*
X6757134Y-15110079D01*
X6833325Y-15071984D02*
X6833325Y-15110079D01*
X7128563Y-15348174D02*
X7119039Y-15338650D01*
X7119039Y-15338650D02*
X7099991Y-15310079D01*
X7099991Y-15310079D02*
X7090468Y-15291031D01*
X7090468Y-15291031D02*
X7080944Y-15262460D01*
X7080944Y-15262460D02*
X7071420Y-15214841D01*
X7071420Y-15214841D02*
X7071420Y-15176746D01*
X7071420Y-15176746D02*
X7080944Y-15129127D01*
X7080944Y-15129127D02*
X7090468Y-15100555D01*
X7090468Y-15100555D02*
X7099991Y-15081508D01*
X7099991Y-15081508D02*
X7119039Y-15052936D01*
X7119039Y-15052936D02*
X7128563Y-15043412D01*
X7309515Y-15271984D02*
X7195229Y-15271984D01*
X7252372Y-15271984D02*
X7252372Y-15071984D01*
X7252372Y-15071984D02*
X7233325Y-15100555D01*
X7233325Y-15100555D02*
X7214277Y-15119603D01*
X7214277Y-15119603D02*
X7195229Y-15129127D01*
X7547610Y-15271984D02*
X7547610Y-15071984D01*
X7633325Y-15271984D02*
X7633325Y-15167222D01*
X7633325Y-15167222D02*
X7623801Y-15148174D01*
X7623801Y-15148174D02*
X7604753Y-15138650D01*
X7604753Y-15138650D02*
X7576182Y-15138650D01*
X7576182Y-15138650D02*
X7557134Y-15148174D01*
X7557134Y-15148174D02*
X7547610Y-15157698D01*
X7757134Y-15271984D02*
X7738087Y-15262460D01*
X7738087Y-15262460D02*
X7728563Y-15252936D01*
X7728563Y-15252936D02*
X7719039Y-15233888D01*
X7719039Y-15233888D02*
X7719039Y-15176746D01*
X7719039Y-15176746D02*
X7728563Y-15157698D01*
X7728563Y-15157698D02*
X7738087Y-15148174D01*
X7738087Y-15148174D02*
X7757134Y-15138650D01*
X7757134Y-15138650D02*
X7785706Y-15138650D01*
X7785706Y-15138650D02*
X7804753Y-15148174D01*
X7804753Y-15148174D02*
X7814277Y-15157698D01*
X7814277Y-15157698D02*
X7823801Y-15176746D01*
X7823801Y-15176746D02*
X7823801Y-15233888D01*
X7823801Y-15233888D02*
X7814277Y-15252936D01*
X7814277Y-15252936D02*
X7804753Y-15262460D01*
X7804753Y-15262460D02*
X7785706Y-15271984D01*
X7785706Y-15271984D02*
X7757134Y-15271984D01*
X7938087Y-15271984D02*
X7919039Y-15262460D01*
X7919039Y-15262460D02*
X7909515Y-15243412D01*
X7909515Y-15243412D02*
X7909515Y-15071984D01*
X8090468Y-15262460D02*
X8071420Y-15271984D01*
X8071420Y-15271984D02*
X8033325Y-15271984D01*
X8033325Y-15271984D02*
X8014277Y-15262460D01*
X8014277Y-15262460D02*
X8004753Y-15243412D01*
X8004753Y-15243412D02*
X8004753Y-15167222D01*
X8004753Y-15167222D02*
X8014277Y-15148174D01*
X8014277Y-15148174D02*
X8033325Y-15138650D01*
X8033325Y-15138650D02*
X8071420Y-15138650D01*
X8071420Y-15138650D02*
X8090468Y-15148174D01*
X8090468Y-15148174D02*
X8099991Y-15167222D01*
X8099991Y-15167222D02*
X8099991Y-15186269D01*
X8099991Y-15186269D02*
X8004753Y-15205317D01*
X8166658Y-15348174D02*
X8176182Y-15338650D01*
X8176182Y-15338650D02*
X8195230Y-15310079D01*
X8195230Y-15310079D02*
X8204753Y-15291031D01*
X8204753Y-15291031D02*
X8214277Y-15262460D01*
X8214277Y-15262460D02*
X8223801Y-15214841D01*
X8223801Y-15214841D02*
X8223801Y-15176746D01*
X8223801Y-15176746D02*
X8214277Y-15129127D01*
X8214277Y-15129127D02*
X8204753Y-15100555D01*
X8204753Y-15100555D02*
X8195230Y-15081508D01*
X8195230Y-15081508D02*
X8176182Y-15052936D01*
X8176182Y-15052936D02*
X8166658Y-15043412D01*
X3353500Y-15400500D02*
X3553500Y-15600500D01*
X3553500Y-15400500D02*
X3353500Y-15600500D01*
X3524211Y-15571211D02*
X3524211Y-15429789D01*
X3382789Y-15429789D01*
X3382789Y-15571211D01*
X3524211Y-15571211D01*
X3795229Y-15391984D02*
X3919039Y-15391984D01*
X3919039Y-15391984D02*
X3852372Y-15468174D01*
X3852372Y-15468174D02*
X3880943Y-15468174D01*
X3880943Y-15468174D02*
X3899991Y-15477698D01*
X3899991Y-15477698D02*
X3909515Y-15487222D01*
X3909515Y-15487222D02*
X3919039Y-15506269D01*
X3919039Y-15506269D02*
X3919039Y-15553888D01*
X3919039Y-15553888D02*
X3909515Y-15572936D01*
X3909515Y-15572936D02*
X3899991Y-15582460D01*
X3899991Y-15582460D02*
X3880943Y-15591984D01*
X3880943Y-15591984D02*
X3823801Y-15591984D01*
X3823801Y-15591984D02*
X3804753Y-15582460D01*
X3804753Y-15582460D02*
X3795229Y-15572936D01*
X4004753Y-15572936D02*
X4014277Y-15582460D01*
X4014277Y-15582460D02*
X4004753Y-15591984D01*
X4004753Y-15591984D02*
X3995229Y-15582460D01*
X3995229Y-15582460D02*
X4004753Y-15572936D01*
X4004753Y-15572936D02*
X4004753Y-15591984D01*
X4090467Y-15411031D02*
X4099991Y-15401508D01*
X4099991Y-15401508D02*
X4119039Y-15391984D01*
X4119039Y-15391984D02*
X4166658Y-15391984D01*
X4166658Y-15391984D02*
X4185705Y-15401508D01*
X4185705Y-15401508D02*
X4195229Y-15411031D01*
X4195229Y-15411031D02*
X4204753Y-15430079D01*
X4204753Y-15430079D02*
X4204753Y-15449127D01*
X4204753Y-15449127D02*
X4195229Y-15477698D01*
X4195229Y-15477698D02*
X4080943Y-15591984D01*
X4080943Y-15591984D02*
X4204753Y-15591984D01*
X4328563Y-15391984D02*
X4347610Y-15391984D01*
X4347610Y-15391984D02*
X4366658Y-15401508D01*
X4366658Y-15401508D02*
X4376182Y-15411031D01*
X4376182Y-15411031D02*
X4385705Y-15430079D01*
X4385705Y-15430079D02*
X4395229Y-15468174D01*
X4395229Y-15468174D02*
X4395229Y-15515793D01*
X4395229Y-15515793D02*
X4385705Y-15553888D01*
X4385705Y-15553888D02*
X4376182Y-15572936D01*
X4376182Y-15572936D02*
X4366658Y-15582460D01*
X4366658Y-15582460D02*
X4347610Y-15591984D01*
X4347610Y-15591984D02*
X4328563Y-15591984D01*
X4328563Y-15591984D02*
X4309515Y-15582460D01*
X4309515Y-15582460D02*
X4299991Y-15572936D01*
X4299991Y-15572936D02*
X4290467Y-15553888D01*
X4290467Y-15553888D02*
X4280944Y-15515793D01*
X4280944Y-15515793D02*
X4280944Y-15468174D01*
X4280944Y-15468174D02*
X4290467Y-15430079D01*
X4290467Y-15430079D02*
X4299991Y-15411031D01*
X4299991Y-15411031D02*
X4309515Y-15401508D01*
X4309515Y-15401508D02*
X4328563Y-15391984D01*
X4519039Y-15391984D02*
X4538086Y-15391984D01*
X4538086Y-15391984D02*
X4557134Y-15401508D01*
X4557134Y-15401508D02*
X4566658Y-15411031D01*
X4566658Y-15411031D02*
X4576182Y-15430079D01*
X4576182Y-15430079D02*
X4585705Y-15468174D01*
X4585705Y-15468174D02*
X4585705Y-15515793D01*
X4585705Y-15515793D02*
X4576182Y-15553888D01*
X4576182Y-15553888D02*
X4566658Y-15572936D01*
X4566658Y-15572936D02*
X4557134Y-15582460D01*
X4557134Y-15582460D02*
X4538086Y-15591984D01*
X4538086Y-15591984D02*
X4519039Y-15591984D01*
X4519039Y-15591984D02*
X4499991Y-15582460D01*
X4499991Y-15582460D02*
X4490467Y-15572936D01*
X4490467Y-15572936D02*
X4480944Y-15553888D01*
X4480944Y-15553888D02*
X4471420Y-15515793D01*
X4471420Y-15515793D02*
X4471420Y-15468174D01*
X4471420Y-15468174D02*
X4480944Y-15430079D01*
X4480944Y-15430079D02*
X4490467Y-15411031D01*
X4490467Y-15411031D02*
X4499991Y-15401508D01*
X4499991Y-15401508D02*
X4519039Y-15391984D01*
X4671420Y-15591984D02*
X4671420Y-15458650D01*
X4671420Y-15477698D02*
X4680944Y-15468174D01*
X4680944Y-15468174D02*
X4699991Y-15458650D01*
X4699991Y-15458650D02*
X4728563Y-15458650D01*
X4728563Y-15458650D02*
X4747610Y-15468174D01*
X4747610Y-15468174D02*
X4757134Y-15487222D01*
X4757134Y-15487222D02*
X4757134Y-15591984D01*
X4757134Y-15487222D02*
X4766658Y-15468174D01*
X4766658Y-15468174D02*
X4785705Y-15458650D01*
X4785705Y-15458650D02*
X4814277Y-15458650D01*
X4814277Y-15458650D02*
X4833325Y-15468174D01*
X4833325Y-15468174D02*
X4842848Y-15487222D01*
X4842848Y-15487222D02*
X4842848Y-15591984D01*
X4938086Y-15591984D02*
X4938086Y-15458650D01*
X4938086Y-15477698D02*
X4947610Y-15468174D01*
X4947610Y-15468174D02*
X4966658Y-15458650D01*
X4966658Y-15458650D02*
X4995229Y-15458650D01*
X4995229Y-15458650D02*
X5014277Y-15468174D01*
X5014277Y-15468174D02*
X5023801Y-15487222D01*
X5023801Y-15487222D02*
X5023801Y-15591984D01*
X5023801Y-15487222D02*
X5033325Y-15468174D01*
X5033325Y-15468174D02*
X5052372Y-15458650D01*
X5052372Y-15458650D02*
X5080944Y-15458650D01*
X5080944Y-15458650D02*
X5099991Y-15468174D01*
X5099991Y-15468174D02*
X5109515Y-15487222D01*
X5109515Y-15487222D02*
X5109515Y-15591984D01*
X5499991Y-15382460D02*
X5328563Y-15639603D01*
X5757134Y-15391984D02*
X5776182Y-15391984D01*
X5776182Y-15391984D02*
X5795229Y-15401508D01*
X5795229Y-15401508D02*
X5804753Y-15411031D01*
X5804753Y-15411031D02*
X5814277Y-15430079D01*
X5814277Y-15430079D02*
X5823801Y-15468174D01*
X5823801Y-15468174D02*
X5823801Y-15515793D01*
X5823801Y-15515793D02*
X5814277Y-15553888D01*
X5814277Y-15553888D02*
X5804753Y-15572936D01*
X5804753Y-15572936D02*
X5795229Y-15582460D01*
X5795229Y-15582460D02*
X5776182Y-15591984D01*
X5776182Y-15591984D02*
X5757134Y-15591984D01*
X5757134Y-15591984D02*
X5738086Y-15582460D01*
X5738086Y-15582460D02*
X5728563Y-15572936D01*
X5728563Y-15572936D02*
X5719039Y-15553888D01*
X5719039Y-15553888D02*
X5709515Y-15515793D01*
X5709515Y-15515793D02*
X5709515Y-15468174D01*
X5709515Y-15468174D02*
X5719039Y-15430079D01*
X5719039Y-15430079D02*
X5728563Y-15411031D01*
X5728563Y-15411031D02*
X5738086Y-15401508D01*
X5738086Y-15401508D02*
X5757134Y-15391984D01*
X5909515Y-15572936D02*
X5919039Y-15582460D01*
X5919039Y-15582460D02*
X5909515Y-15591984D01*
X5909515Y-15591984D02*
X5899991Y-15582460D01*
X5899991Y-15582460D02*
X5909515Y-15572936D01*
X5909515Y-15572936D02*
X5909515Y-15591984D01*
X6109515Y-15591984D02*
X5995229Y-15591984D01*
X6052372Y-15591984D02*
X6052372Y-15391984D01*
X6052372Y-15391984D02*
X6033325Y-15420555D01*
X6033325Y-15420555D02*
X6014277Y-15439603D01*
X6014277Y-15439603D02*
X5995229Y-15449127D01*
X6185706Y-15411031D02*
X6195229Y-15401508D01*
X6195229Y-15401508D02*
X6214277Y-15391984D01*
X6214277Y-15391984D02*
X6261896Y-15391984D01*
X6261896Y-15391984D02*
X6280944Y-15401508D01*
X6280944Y-15401508D02*
X6290467Y-15411031D01*
X6290467Y-15411031D02*
X6299991Y-15430079D01*
X6299991Y-15430079D02*
X6299991Y-15449127D01*
X6299991Y-15449127D02*
X6290467Y-15477698D01*
X6290467Y-15477698D02*
X6176182Y-15591984D01*
X6176182Y-15591984D02*
X6299991Y-15591984D01*
X6471420Y-15391984D02*
X6433325Y-15391984D01*
X6433325Y-15391984D02*
X6414277Y-15401508D01*
X6414277Y-15401508D02*
X6404753Y-15411031D01*
X6404753Y-15411031D02*
X6385706Y-15439603D01*
X6385706Y-15439603D02*
X6376182Y-15477698D01*
X6376182Y-15477698D02*
X6376182Y-15553888D01*
X6376182Y-15553888D02*
X6385706Y-15572936D01*
X6385706Y-15572936D02*
X6395229Y-15582460D01*
X6395229Y-15582460D02*
X6414277Y-15591984D01*
X6414277Y-15591984D02*
X6452372Y-15591984D01*
X6452372Y-15591984D02*
X6471420Y-15582460D01*
X6471420Y-15582460D02*
X6480944Y-15572936D01*
X6480944Y-15572936D02*
X6490467Y-15553888D01*
X6490467Y-15553888D02*
X6490467Y-15506269D01*
X6490467Y-15506269D02*
X6480944Y-15487222D01*
X6480944Y-15487222D02*
X6471420Y-15477698D01*
X6471420Y-15477698D02*
X6452372Y-15468174D01*
X6452372Y-15468174D02*
X6414277Y-15468174D01*
X6414277Y-15468174D02*
X6395229Y-15477698D01*
X6395229Y-15477698D02*
X6385706Y-15487222D01*
X6385706Y-15487222D02*
X6376182Y-15506269D01*
X6614277Y-15391984D02*
X6633325Y-15391984D01*
X6633325Y-15391984D02*
X6652372Y-15401508D01*
X6652372Y-15401508D02*
X6661896Y-15411031D01*
X6661896Y-15411031D02*
X6671420Y-15430079D01*
X6671420Y-15430079D02*
X6680944Y-15468174D01*
X6680944Y-15468174D02*
X6680944Y-15515793D01*
X6680944Y-15515793D02*
X6671420Y-15553888D01*
X6671420Y-15553888D02*
X6661896Y-15572936D01*
X6661896Y-15572936D02*
X6652372Y-15582460D01*
X6652372Y-15582460D02*
X6633325Y-15591984D01*
X6633325Y-15591984D02*
X6614277Y-15591984D01*
X6614277Y-15591984D02*
X6595229Y-15582460D01*
X6595229Y-15582460D02*
X6585706Y-15572936D01*
X6585706Y-15572936D02*
X6576182Y-15553888D01*
X6576182Y-15553888D02*
X6566658Y-15515793D01*
X6566658Y-15515793D02*
X6566658Y-15468174D01*
X6566658Y-15468174D02*
X6576182Y-15430079D01*
X6576182Y-15430079D02*
X6585706Y-15411031D01*
X6585706Y-15411031D02*
X6595229Y-15401508D01*
X6595229Y-15401508D02*
X6614277Y-15391984D01*
X6757134Y-15391984D02*
X6757134Y-15430079D01*
X6833325Y-15391984D02*
X6833325Y-15430079D01*
X7128563Y-15668174D02*
X7119039Y-15658650D01*
X7119039Y-15658650D02*
X7099991Y-15630079D01*
X7099991Y-15630079D02*
X7090468Y-15611031D01*
X7090468Y-15611031D02*
X7080944Y-15582460D01*
X7080944Y-15582460D02*
X7071420Y-15534841D01*
X7071420Y-15534841D02*
X7071420Y-15496746D01*
X7071420Y-15496746D02*
X7080944Y-15449127D01*
X7080944Y-15449127D02*
X7090468Y-15420555D01*
X7090468Y-15420555D02*
X7099991Y-15401508D01*
X7099991Y-15401508D02*
X7119039Y-15372936D01*
X7119039Y-15372936D02*
X7128563Y-15363412D01*
X7290468Y-15458650D02*
X7290468Y-15591984D01*
X7242848Y-15382460D02*
X7195229Y-15525317D01*
X7195229Y-15525317D02*
X7319039Y-15525317D01*
X7547610Y-15591984D02*
X7547610Y-15391984D01*
X7633325Y-15591984D02*
X7633325Y-15487222D01*
X7633325Y-15487222D02*
X7623801Y-15468174D01*
X7623801Y-15468174D02*
X7604753Y-15458650D01*
X7604753Y-15458650D02*
X7576182Y-15458650D01*
X7576182Y-15458650D02*
X7557134Y-15468174D01*
X7557134Y-15468174D02*
X7547610Y-15477698D01*
X7757134Y-15591984D02*
X7738087Y-15582460D01*
X7738087Y-15582460D02*
X7728563Y-15572936D01*
X7728563Y-15572936D02*
X7719039Y-15553888D01*
X7719039Y-15553888D02*
X7719039Y-15496746D01*
X7719039Y-15496746D02*
X7728563Y-15477698D01*
X7728563Y-15477698D02*
X7738087Y-15468174D01*
X7738087Y-15468174D02*
X7757134Y-15458650D01*
X7757134Y-15458650D02*
X7785706Y-15458650D01*
X7785706Y-15458650D02*
X7804753Y-15468174D01*
X7804753Y-15468174D02*
X7814277Y-15477698D01*
X7814277Y-15477698D02*
X7823801Y-15496746D01*
X7823801Y-15496746D02*
X7823801Y-15553888D01*
X7823801Y-15553888D02*
X7814277Y-15572936D01*
X7814277Y-15572936D02*
X7804753Y-15582460D01*
X7804753Y-15582460D02*
X7785706Y-15591984D01*
X7785706Y-15591984D02*
X7757134Y-15591984D01*
X7938087Y-15591984D02*
X7919039Y-15582460D01*
X7919039Y-15582460D02*
X7909515Y-15563412D01*
X7909515Y-15563412D02*
X7909515Y-15391984D01*
X8090468Y-15582460D02*
X8071420Y-15591984D01*
X8071420Y-15591984D02*
X8033325Y-15591984D01*
X8033325Y-15591984D02*
X8014277Y-15582460D01*
X8014277Y-15582460D02*
X8004753Y-15563412D01*
X8004753Y-15563412D02*
X8004753Y-15487222D01*
X8004753Y-15487222D02*
X8014277Y-15468174D01*
X8014277Y-15468174D02*
X8033325Y-15458650D01*
X8033325Y-15458650D02*
X8071420Y-15458650D01*
X8071420Y-15458650D02*
X8090468Y-15468174D01*
X8090468Y-15468174D02*
X8099991Y-15487222D01*
X8099991Y-15487222D02*
X8099991Y-15506269D01*
X8099991Y-15506269D02*
X8004753Y-15525317D01*
X8176182Y-15582460D02*
X8195230Y-15591984D01*
X8195230Y-15591984D02*
X8233325Y-15591984D01*
X8233325Y-15591984D02*
X8252372Y-15582460D01*
X8252372Y-15582460D02*
X8261896Y-15563412D01*
X8261896Y-15563412D02*
X8261896Y-15553888D01*
X8261896Y-15553888D02*
X8252372Y-15534841D01*
X8252372Y-15534841D02*
X8233325Y-15525317D01*
X8233325Y-15525317D02*
X8204753Y-15525317D01*
X8204753Y-15525317D02*
X8185706Y-15515793D01*
X8185706Y-15515793D02*
X8176182Y-15496746D01*
X8176182Y-15496746D02*
X8176182Y-15487222D01*
X8176182Y-15487222D02*
X8185706Y-15468174D01*
X8185706Y-15468174D02*
X8204753Y-15458650D01*
X8204753Y-15458650D02*
X8233325Y-15458650D01*
X8233325Y-15458650D02*
X8252372Y-15468174D01*
X8328563Y-15668174D02*
X8338087Y-15658650D01*
X8338087Y-15658650D02*
X8357134Y-15630079D01*
X8357134Y-15630079D02*
X8366658Y-15611031D01*
X8366658Y-15611031D02*
X8376182Y-15582460D01*
X8376182Y-15582460D02*
X8385706Y-15534841D01*
X8385706Y-15534841D02*
X8385706Y-15496746D01*
X8385706Y-15496746D02*
X8376182Y-15449127D01*
X8376182Y-15449127D02*
X8366658Y-15420555D01*
X8366658Y-15420555D02*
X8357134Y-15401508D01*
X8357134Y-15401508D02*
X8338087Y-15372936D01*
X8338087Y-15372936D02*
X8328563Y-15363412D01*
X3353500Y-15720500D02*
X3553500Y-15920500D01*
X3553500Y-15720500D02*
X3353500Y-15920500D01*
X3453500Y-15920500D02*
X3553500Y-15820500D01*
X3453500Y-15720500D01*
X3353500Y-15820500D01*
X3453500Y-15920500D01*
X3842848Y-15797698D02*
X3823801Y-15788174D01*
X3823801Y-15788174D02*
X3814277Y-15778650D01*
X3814277Y-15778650D02*
X3804753Y-15759603D01*
X3804753Y-15759603D02*
X3804753Y-15750079D01*
X3804753Y-15750079D02*
X3814277Y-15731031D01*
X3814277Y-15731031D02*
X3823801Y-15721508D01*
X3823801Y-15721508D02*
X3842848Y-15711984D01*
X3842848Y-15711984D02*
X3880943Y-15711984D01*
X3880943Y-15711984D02*
X3899991Y-15721508D01*
X3899991Y-15721508D02*
X3909515Y-15731031D01*
X3909515Y-15731031D02*
X3919039Y-15750079D01*
X3919039Y-15750079D02*
X3919039Y-15759603D01*
X3919039Y-15759603D02*
X3909515Y-15778650D01*
X3909515Y-15778650D02*
X3899991Y-15788174D01*
X3899991Y-15788174D02*
X3880943Y-15797698D01*
X3880943Y-15797698D02*
X3842848Y-15797698D01*
X3842848Y-15797698D02*
X3823801Y-15807222D01*
X3823801Y-15807222D02*
X3814277Y-15816746D01*
X3814277Y-15816746D02*
X3804753Y-15835793D01*
X3804753Y-15835793D02*
X3804753Y-15873888D01*
X3804753Y-15873888D02*
X3814277Y-15892936D01*
X3814277Y-15892936D02*
X3823801Y-15902460D01*
X3823801Y-15902460D02*
X3842848Y-15911984D01*
X3842848Y-15911984D02*
X3880943Y-15911984D01*
X3880943Y-15911984D02*
X3899991Y-15902460D01*
X3899991Y-15902460D02*
X3909515Y-15892936D01*
X3909515Y-15892936D02*
X3919039Y-15873888D01*
X3919039Y-15873888D02*
X3919039Y-15835793D01*
X3919039Y-15835793D02*
X3909515Y-15816746D01*
X3909515Y-15816746D02*
X3899991Y-15807222D01*
X3899991Y-15807222D02*
X3880943Y-15797698D01*
X4004753Y-15892936D02*
X4014277Y-15902460D01*
X4014277Y-15902460D02*
X4004753Y-15911984D01*
X4004753Y-15911984D02*
X3995229Y-15902460D01*
X3995229Y-15902460D02*
X4004753Y-15892936D01*
X4004753Y-15892936D02*
X4004753Y-15911984D01*
X4185705Y-15778650D02*
X4185705Y-15911984D01*
X4138086Y-15702460D02*
X4090467Y-15845317D01*
X4090467Y-15845317D02*
X4214277Y-15845317D01*
X4328563Y-15711984D02*
X4347610Y-15711984D01*
X4347610Y-15711984D02*
X4366658Y-15721508D01*
X4366658Y-15721508D02*
X4376182Y-15731031D01*
X4376182Y-15731031D02*
X4385705Y-15750079D01*
X4385705Y-15750079D02*
X4395229Y-15788174D01*
X4395229Y-15788174D02*
X4395229Y-15835793D01*
X4395229Y-15835793D02*
X4385705Y-15873888D01*
X4385705Y-15873888D02*
X4376182Y-15892936D01*
X4376182Y-15892936D02*
X4366658Y-15902460D01*
X4366658Y-15902460D02*
X4347610Y-15911984D01*
X4347610Y-15911984D02*
X4328563Y-15911984D01*
X4328563Y-15911984D02*
X4309515Y-15902460D01*
X4309515Y-15902460D02*
X4299991Y-15892936D01*
X4299991Y-15892936D02*
X4290467Y-15873888D01*
X4290467Y-15873888D02*
X4280944Y-15835793D01*
X4280944Y-15835793D02*
X4280944Y-15788174D01*
X4280944Y-15788174D02*
X4290467Y-15750079D01*
X4290467Y-15750079D02*
X4299991Y-15731031D01*
X4299991Y-15731031D02*
X4309515Y-15721508D01*
X4309515Y-15721508D02*
X4328563Y-15711984D01*
X4519039Y-15711984D02*
X4538086Y-15711984D01*
X4538086Y-15711984D02*
X4557134Y-15721508D01*
X4557134Y-15721508D02*
X4566658Y-15731031D01*
X4566658Y-15731031D02*
X4576182Y-15750079D01*
X4576182Y-15750079D02*
X4585705Y-15788174D01*
X4585705Y-15788174D02*
X4585705Y-15835793D01*
X4585705Y-15835793D02*
X4576182Y-15873888D01*
X4576182Y-15873888D02*
X4566658Y-15892936D01*
X4566658Y-15892936D02*
X4557134Y-15902460D01*
X4557134Y-15902460D02*
X4538086Y-15911984D01*
X4538086Y-15911984D02*
X4519039Y-15911984D01*
X4519039Y-15911984D02*
X4499991Y-15902460D01*
X4499991Y-15902460D02*
X4490467Y-15892936D01*
X4490467Y-15892936D02*
X4480944Y-15873888D01*
X4480944Y-15873888D02*
X4471420Y-15835793D01*
X4471420Y-15835793D02*
X4471420Y-15788174D01*
X4471420Y-15788174D02*
X4480944Y-15750079D01*
X4480944Y-15750079D02*
X4490467Y-15731031D01*
X4490467Y-15731031D02*
X4499991Y-15721508D01*
X4499991Y-15721508D02*
X4519039Y-15711984D01*
X4671420Y-15911984D02*
X4671420Y-15778650D01*
X4671420Y-15797698D02*
X4680944Y-15788174D01*
X4680944Y-15788174D02*
X4699991Y-15778650D01*
X4699991Y-15778650D02*
X4728563Y-15778650D01*
X4728563Y-15778650D02*
X4747610Y-15788174D01*
X4747610Y-15788174D02*
X4757134Y-15807222D01*
X4757134Y-15807222D02*
X4757134Y-15911984D01*
X4757134Y-15807222D02*
X4766658Y-15788174D01*
X4766658Y-15788174D02*
X4785705Y-15778650D01*
X4785705Y-15778650D02*
X4814277Y-15778650D01*
X4814277Y-15778650D02*
X4833325Y-15788174D01*
X4833325Y-15788174D02*
X4842848Y-15807222D01*
X4842848Y-15807222D02*
X4842848Y-15911984D01*
X4938086Y-15911984D02*
X4938086Y-15778650D01*
X4938086Y-15797698D02*
X4947610Y-15788174D01*
X4947610Y-15788174D02*
X4966658Y-15778650D01*
X4966658Y-15778650D02*
X4995229Y-15778650D01*
X4995229Y-15778650D02*
X5014277Y-15788174D01*
X5014277Y-15788174D02*
X5023801Y-15807222D01*
X5023801Y-15807222D02*
X5023801Y-15911984D01*
X5023801Y-15807222D02*
X5033325Y-15788174D01*
X5033325Y-15788174D02*
X5052372Y-15778650D01*
X5052372Y-15778650D02*
X5080944Y-15778650D01*
X5080944Y-15778650D02*
X5099991Y-15788174D01*
X5099991Y-15788174D02*
X5109515Y-15807222D01*
X5109515Y-15807222D02*
X5109515Y-15911984D01*
X5499991Y-15702460D02*
X5328563Y-15959603D01*
X5757134Y-15711984D02*
X5776182Y-15711984D01*
X5776182Y-15711984D02*
X5795229Y-15721508D01*
X5795229Y-15721508D02*
X5804753Y-15731031D01*
X5804753Y-15731031D02*
X5814277Y-15750079D01*
X5814277Y-15750079D02*
X5823801Y-15788174D01*
X5823801Y-15788174D02*
X5823801Y-15835793D01*
X5823801Y-15835793D02*
X5814277Y-15873888D01*
X5814277Y-15873888D02*
X5804753Y-15892936D01*
X5804753Y-15892936D02*
X5795229Y-15902460D01*
X5795229Y-15902460D02*
X5776182Y-15911984D01*
X5776182Y-15911984D02*
X5757134Y-15911984D01*
X5757134Y-15911984D02*
X5738086Y-15902460D01*
X5738086Y-15902460D02*
X5728563Y-15892936D01*
X5728563Y-15892936D02*
X5719039Y-15873888D01*
X5719039Y-15873888D02*
X5709515Y-15835793D01*
X5709515Y-15835793D02*
X5709515Y-15788174D01*
X5709515Y-15788174D02*
X5719039Y-15750079D01*
X5719039Y-15750079D02*
X5728563Y-15731031D01*
X5728563Y-15731031D02*
X5738086Y-15721508D01*
X5738086Y-15721508D02*
X5757134Y-15711984D01*
X5909515Y-15892936D02*
X5919039Y-15902460D01*
X5919039Y-15902460D02*
X5909515Y-15911984D01*
X5909515Y-15911984D02*
X5899991Y-15902460D01*
X5899991Y-15902460D02*
X5909515Y-15892936D01*
X5909515Y-15892936D02*
X5909515Y-15911984D01*
X5985706Y-15711984D02*
X6109515Y-15711984D01*
X6109515Y-15711984D02*
X6042848Y-15788174D01*
X6042848Y-15788174D02*
X6071420Y-15788174D01*
X6071420Y-15788174D02*
X6090467Y-15797698D01*
X6090467Y-15797698D02*
X6099991Y-15807222D01*
X6099991Y-15807222D02*
X6109515Y-15826269D01*
X6109515Y-15826269D02*
X6109515Y-15873888D01*
X6109515Y-15873888D02*
X6099991Y-15892936D01*
X6099991Y-15892936D02*
X6090467Y-15902460D01*
X6090467Y-15902460D02*
X6071420Y-15911984D01*
X6071420Y-15911984D02*
X6014277Y-15911984D01*
X6014277Y-15911984D02*
X5995229Y-15902460D01*
X5995229Y-15902460D02*
X5985706Y-15892936D01*
X6176182Y-15711984D02*
X6299991Y-15711984D01*
X6299991Y-15711984D02*
X6233325Y-15788174D01*
X6233325Y-15788174D02*
X6261896Y-15788174D01*
X6261896Y-15788174D02*
X6280944Y-15797698D01*
X6280944Y-15797698D02*
X6290467Y-15807222D01*
X6290467Y-15807222D02*
X6299991Y-15826269D01*
X6299991Y-15826269D02*
X6299991Y-15873888D01*
X6299991Y-15873888D02*
X6290467Y-15892936D01*
X6290467Y-15892936D02*
X6280944Y-15902460D01*
X6280944Y-15902460D02*
X6261896Y-15911984D01*
X6261896Y-15911984D02*
X6204753Y-15911984D01*
X6204753Y-15911984D02*
X6185706Y-15902460D01*
X6185706Y-15902460D02*
X6176182Y-15892936D01*
X6423801Y-15711984D02*
X6442848Y-15711984D01*
X6442848Y-15711984D02*
X6461896Y-15721508D01*
X6461896Y-15721508D02*
X6471420Y-15731031D01*
X6471420Y-15731031D02*
X6480944Y-15750079D01*
X6480944Y-15750079D02*
X6490467Y-15788174D01*
X6490467Y-15788174D02*
X6490467Y-15835793D01*
X6490467Y-15835793D02*
X6480944Y-15873888D01*
X6480944Y-15873888D02*
X6471420Y-15892936D01*
X6471420Y-15892936D02*
X6461896Y-15902460D01*
X6461896Y-15902460D02*
X6442848Y-15911984D01*
X6442848Y-15911984D02*
X6423801Y-15911984D01*
X6423801Y-15911984D02*
X6404753Y-15902460D01*
X6404753Y-15902460D02*
X6395229Y-15892936D01*
X6395229Y-15892936D02*
X6385706Y-15873888D01*
X6385706Y-15873888D02*
X6376182Y-15835793D01*
X6376182Y-15835793D02*
X6376182Y-15788174D01*
X6376182Y-15788174D02*
X6385706Y-15750079D01*
X6385706Y-15750079D02*
X6395229Y-15731031D01*
X6395229Y-15731031D02*
X6404753Y-15721508D01*
X6404753Y-15721508D02*
X6423801Y-15711984D01*
X6557134Y-15711984D02*
X6690467Y-15711984D01*
X6690467Y-15711984D02*
X6604753Y-15911984D01*
X6757134Y-15711984D02*
X6757134Y-15750079D01*
X6833325Y-15711984D02*
X6833325Y-15750079D01*
X7128563Y-15988174D02*
X7119039Y-15978650D01*
X7119039Y-15978650D02*
X7099991Y-15950079D01*
X7099991Y-15950079D02*
X7090468Y-15931031D01*
X7090468Y-15931031D02*
X7080944Y-15902460D01*
X7080944Y-15902460D02*
X7071420Y-15854841D01*
X7071420Y-15854841D02*
X7071420Y-15816746D01*
X7071420Y-15816746D02*
X7080944Y-15769127D01*
X7080944Y-15769127D02*
X7090468Y-15740555D01*
X7090468Y-15740555D02*
X7099991Y-15721508D01*
X7099991Y-15721508D02*
X7119039Y-15692936D01*
X7119039Y-15692936D02*
X7128563Y-15683412D01*
X7309515Y-15911984D02*
X7195229Y-15911984D01*
X7252372Y-15911984D02*
X7252372Y-15711984D01*
X7252372Y-15711984D02*
X7233325Y-15740555D01*
X7233325Y-15740555D02*
X7214277Y-15759603D01*
X7214277Y-15759603D02*
X7195229Y-15769127D01*
X7547610Y-15911984D02*
X7547610Y-15711984D01*
X7633325Y-15911984D02*
X7633325Y-15807222D01*
X7633325Y-15807222D02*
X7623801Y-15788174D01*
X7623801Y-15788174D02*
X7604753Y-15778650D01*
X7604753Y-15778650D02*
X7576182Y-15778650D01*
X7576182Y-15778650D02*
X7557134Y-15788174D01*
X7557134Y-15788174D02*
X7547610Y-15797698D01*
X7757134Y-15911984D02*
X7738087Y-15902460D01*
X7738087Y-15902460D02*
X7728563Y-15892936D01*
X7728563Y-15892936D02*
X7719039Y-15873888D01*
X7719039Y-15873888D02*
X7719039Y-15816746D01*
X7719039Y-15816746D02*
X7728563Y-15797698D01*
X7728563Y-15797698D02*
X7738087Y-15788174D01*
X7738087Y-15788174D02*
X7757134Y-15778650D01*
X7757134Y-15778650D02*
X7785706Y-15778650D01*
X7785706Y-15778650D02*
X7804753Y-15788174D01*
X7804753Y-15788174D02*
X7814277Y-15797698D01*
X7814277Y-15797698D02*
X7823801Y-15816746D01*
X7823801Y-15816746D02*
X7823801Y-15873888D01*
X7823801Y-15873888D02*
X7814277Y-15892936D01*
X7814277Y-15892936D02*
X7804753Y-15902460D01*
X7804753Y-15902460D02*
X7785706Y-15911984D01*
X7785706Y-15911984D02*
X7757134Y-15911984D01*
X7938087Y-15911984D02*
X7919039Y-15902460D01*
X7919039Y-15902460D02*
X7909515Y-15883412D01*
X7909515Y-15883412D02*
X7909515Y-15711984D01*
X8090468Y-15902460D02*
X8071420Y-15911984D01*
X8071420Y-15911984D02*
X8033325Y-15911984D01*
X8033325Y-15911984D02*
X8014277Y-15902460D01*
X8014277Y-15902460D02*
X8004753Y-15883412D01*
X8004753Y-15883412D02*
X8004753Y-15807222D01*
X8004753Y-15807222D02*
X8014277Y-15788174D01*
X8014277Y-15788174D02*
X8033325Y-15778650D01*
X8033325Y-15778650D02*
X8071420Y-15778650D01*
X8071420Y-15778650D02*
X8090468Y-15788174D01*
X8090468Y-15788174D02*
X8099991Y-15807222D01*
X8099991Y-15807222D02*
X8099991Y-15826269D01*
X8099991Y-15826269D02*
X8004753Y-15845317D01*
X8166658Y-15988174D02*
X8176182Y-15978650D01*
X8176182Y-15978650D02*
X8195230Y-15950079D01*
X8195230Y-15950079D02*
X8204753Y-15931031D01*
X8204753Y-15931031D02*
X8214277Y-15902460D01*
X8214277Y-15902460D02*
X8223801Y-15854841D01*
X8223801Y-15854841D02*
X8223801Y-15816746D01*
X8223801Y-15816746D02*
X8214277Y-15769127D01*
X8214277Y-15769127D02*
X8204753Y-15740555D01*
X8204753Y-15740555D02*
X8195230Y-15721508D01*
X8195230Y-15721508D02*
X8176182Y-15692936D01*
X8176182Y-15692936D02*
X8166658Y-15683412D01*
M02*
